<svg width="88" height="58" viewBox="0 0 88 58" fill="none" xmlns="http://www.w3.org/2000/svg">
<g id="Client Logo">
<path id="Vector" d="M87.8002 0.04245H0.200195V57.0424H87.8002V0.04245Z" fill="white"/>
<path id="Vector_2" d="M28.9004 6.74246V19.5425C28.9004 23.5425 32.1004 25.9425 36.1004 25.9425C40.1004 25.9425 43.3004 23.5425 43.3004 19.5425V6.74246H28.9004Z" fill="white"/>
<path id="Vector_3" d="M28.9004 6.74246V19.5425C28.9004 23.5425 32.1004 25.9425 36.1004 25.9425C40.1004 25.9425 43.3004 23.5425 43.3004 19.5425V6.74246H28.9004ZM42.8004 19.5425C42.8004 21.2425 42.1004 22.7425 40.9004 23.8425C39.7004 24.8425 38.0004 25.4425 36.2004 25.4425C34.3004 25.4425 32.7004 24.8425 31.5004 23.8425C30.2004 22.7425 29.6004 21.3425 29.6004 19.5425V7.34246H42.9004V19.5425H42.8004Z" fill="black"/>
<path id="Vector_4" d="M36.4002 15.3424C36.2002 15.4424 35.9002 15.5424 35.7002 15.6424V19.3424L32.2002 21.2424H40.0002L36.5002 19.3424L36.4002 15.3424Z" fill="#FBB040"/>
<path id="Vector_5" d="M40.1995 11.4425C40.1995 11.9425 39.9995 12.5425 39.5995 12.9425C39.1995 13.3425 38.6995 13.5425 38.0995 13.5425H37.9995C37.8995 13.5425 37.8995 13.6425 37.7995 13.6425C37.6995 13.7425 37.4995 13.7425 37.3995 13.8425L36.8995 14.0425C36.6995 14.1425 36.4995 14.1425 36.3995 14.2425V15.4425C36.6995 15.3425 36.9995 15.2425 37.2995 15.1425L37.7995 15.0425C37.9995 14.9425 38.1995 14.9425 38.3995 14.8425C38.7995 14.6425 39.0995 14.4425 39.3995 14.0425C39.6995 13.7425 39.8995 13.3425 40.0995 12.9425C40.2995 12.5425 40.2995 12.1425 40.2995 11.6425C40.2995 11.4425 40.2995 11.2425 40.2995 11.0425C40.2995 10.9425 40.2995 10.8425 40.1995 10.7425V10.6425C40.1995 10.5425 40.1995 10.5425 40.0995 10.4425C39.9995 10.2425 39.8995 9.94247 39.6995 9.74247C39.4995 9.54247 39.3995 9.34247 39.1995 9.24247C38.7995 8.94247 38.3995 8.84247 37.8995 8.74247C37.4995 8.64247 36.9995 8.74247 36.5995 8.74247C36.3995 8.74247 36.1995 8.84247 35.9995 8.94247C35.8995 8.94247 35.7995 9.04247 35.6995 9.04247C35.6995 9.04247 35.2995 8.84247 35.0995 9.14247C34.7995 9.44247 34.4995 9.84247 34.2995 10.2425C34.0995 10.5425 34.0995 10.9425 34.3995 11.0425C34.7995 11.1425 35.7995 11.2425 35.9995 10.7425C36.0995 10.5425 36.1995 10.3425 36.1995 10.2425C36.2995 10.2425 36.3995 10.1425 36.4995 10.1425C36.5995 10.1425 36.6995 10.0425 36.8995 10.0425C37.1995 10.0425 37.4995 10.0425 37.6995 10.0425C37.9995 10.0425 38.1995 10.1425 38.3995 10.3425C38.5995 10.4425 38.6995 10.6425 38.7995 10.8425V10.9425C38.7995 11.0425 38.7995 11.0425 38.7995 11.1425C38.7995 11.2425 38.7995 11.3425 38.7995 11.4425H40.1995ZM35.5995 9.94247C35.4995 10.0425 35.3995 9.94247 35.2995 9.94247C35.2995 9.84247 35.2995 9.74247 35.3995 9.74247C35.4995 9.64247 35.5995 9.74247 35.6995 9.74247C35.6995 9.74247 35.6995 9.84247 35.5995 9.94247Z" fill="#B11116"/>
<path id="Vector_6" d="M35.9996 14.4425C35.8996 14.4425 35.7996 14.5425 35.6996 14.5425C35.4996 14.6425 35.1996 14.8425 34.9996 14.9425C34.6996 15.1425 34.3996 15.4425 34.0996 15.7425C33.7996 16.0425 33.5996 16.4425 33.5996 16.8425C33.5996 16.9425 33.5996 16.9425 33.5996 17.0425C33.5996 17.0425 33.5996 17.1425 33.5996 17.2425C33.5996 17.3425 33.5996 17.4425 33.5996 17.5425C33.5996 17.7425 33.6996 17.9425 33.6996 18.1425C33.7996 18.5425 33.9996 18.8425 34.2996 19.1425C34.5996 19.4425 34.8996 19.6425 35.1996 19.7425C34.5996 19.3425 34.1996 18.7425 34.0996 18.0425C34.0996 17.8425 34.0996 17.7425 34.0996 17.5425C34.0996 17.4425 34.0996 17.3425 34.0996 17.3425V17.2425V17.1425C34.1996 16.8425 34.3996 16.6425 34.5996 16.4425C34.7996 16.2425 35.0996 16.0425 35.3996 15.9425C35.4996 15.9425 35.4996 15.8425 35.5996 15.8425C35.7996 15.7425 36.0996 15.6425 36.2996 15.5425H36.3996V14.3425C36.2996 14.2425 36.0996 14.3425 35.9996 14.4425Z" fill="#B11116"/>
<path id="Vector_7" d="M39.0004 11.4425H31.9004C31.9004 11.9425 32.1004 12.5425 32.5004 12.9425C32.9004 13.3425 33.4004 13.5425 34.0004 13.5425H35.7004V14.5425C35.8004 14.4425 35.9004 14.4425 36.0004 14.4425C36.2004 14.3425 36.3004 14.2425 36.5004 14.2425V13.5425H38.1004H38.2004C38.7004 13.5425 39.3004 13.3425 39.7004 12.9425C40.1004 12.5425 40.3004 12.0425 40.3004 11.4425H39.0004Z" fill="#FBB040"/>
<path id="Vector_8" d="M44.5 6.74246V19.5425C44.5 23.5425 47.7 25.9425 51.7 25.9425C55.7 25.9425 58.9 23.5425 58.9 19.5425V6.74246H44.5Z" fill="white"/>
<path id="Vector_9" d="M57.5002 21.0424H46.2002V21.2425H57.5002V21.0424Z" fill="black"/>
<path id="Vector_10" d="M57.5002 21.2425H46.2002V21.4425H57.5002V21.2425Z" fill="#8B0304"/>
<path id="Vector_11" d="M55.7004 16.0424H50.9004V21.0424H55.7004V16.0424Z" fill="black"/>
<path id="Vector_12" d="M55.5004 18.4425H53.4004V20.8425H55.5004V18.4425Z" fill="#FFE17F"/>
<path id="Vector_13" d="M52.0996 17.1425V17.9425V20.8425H52.7996V17.9425H55.4996V17.1425H52.0996Z" fill="#008C44"/>
<path id="Vector_14" d="M53.2 18.0424H53V20.8424H53.2V18.2425H55.5V18.0424H53.2Z" fill="#008C44"/>
<path id="Vector_15" d="M51.0996 16.1425V17.0425V20.8425H51.8996V17.0425H55.4996V16.1425H51.0996Z" fill="#ED1C24"/>
<path id="Vector_16" d="M56.2002 13.9425C56.1002 13.8425 55.9002 13.7425 55.8002 13.7425C55.5002 13.7425 55.2002 13.9425 55.2002 14.4425V16.0425H55.8002V17.8425C55.8002 18.0425 56.0002 18.1425 56.2002 18.1425C56.4002 18.1425 56.5002 18.0425 56.5002 17.8425V14.4425C56.4002 14.2425 56.3002 14.0425 56.2002 13.9425Z" fill="black"/>
<path id="Vector_17" d="M56.1002 14.0424C56.0002 13.9424 55.9002 13.8424 55.7002 13.8424C55.5002 13.8424 55.2002 14.0424 55.2002 14.4424V16.0424H55.5002V14.8424C55.5002 14.7424 55.5002 14.7424 55.6002 14.7424C55.7002 14.7424 55.7002 14.7424 55.7002 14.8424V17.9424C55.7002 18.0424 55.8002 18.1424 56.0002 18.1424C56.1002 18.1424 56.2002 18.0424 56.2002 17.9424V14.5424C56.3002 14.2424 56.2002 14.1424 56.1002 14.0424Z" fill="#26247B"/>
<path id="Vector_18" d="M48.6004 19.9425C48.7004 19.9425 48.8004 19.8425 48.8004 19.7425V16.3425V16.2425V15.7425C48.8004 15.5425 48.9004 15.3425 49.1004 15.3425C49.2004 15.3425 49.2004 15.3425 49.3004 15.4425C49.4004 15.3425 49.4004 15.3425 49.4004 15.3425C49.4004 15.3425 49.5004 15.2425 49.7004 15.2425C49.6004 15.0425 49.3004 14.9425 49.1004 14.9425C48.7004 14.9425 48.4004 15.3425 48.4004 15.8425V16.3425V16.4425V19.8425C48.4004 19.7425 48.5004 19.9425 48.6004 19.9425Z" fill="#231F20"/>
<path id="Vector_19" d="M48.8 16.3425V16.1425H48.5V16.3425V16.4425V19.6425C48.5 19.7425 48.6 19.8425 48.7 19.8425C48.8 19.8425 48.9 19.7425 48.9 19.6425V16.4425L48.8 16.3425Z" fill="#008C44"/>
<path id="Vector_20" d="M54.8 14.2425L52.5 14.7425C51.3 14.5425 50.1 15.0425 49.6 15.2425C49.5 15.3425 49.4 15.3425 49.4 15.3425C49.4 15.3425 49.3 15.3425 49.3 15.4425C49.2 15.6425 49 16.0425 49.1 16.9425C49.2 18.1425 49.4 20.0425 48.7 20.2425C47.9 20.4425 47.1 20.9425 47 21.0425H50.4C50.4 21.0425 50.6 20.7425 50.4 20.4425C50.2 20.1425 50.3 19.9425 50.4 19.6425C50.5 19.2425 51 17.3425 50.8 16.2425H54.6C55.9 15.2425 54.8 14.2425 54.8 14.2425Z" fill="black"/>
<path id="Vector_21" d="M49.2 14.9425C48.8 14.9425 48.5 15.3425 48.5 15.7425V16.1425H48.9V15.7425C48.9 15.5425 49 15.3425 49.2 15.3425C49.3 15.3425 49.4 15.3425 49.4 15.4425L49.5 15.3425C49.5 15.3425 49.6 15.2425 49.7 15.2425C49.6 15.0425 49.4 14.9425 49.2 14.9425Z" fill="#F58345"/>
<path id="Vector_22" d="M52.0004 14.7425C51.1004 14.7425 50.3004 15.0425 49.9004 15.2425C50.3004 15.3425 50.6004 15.6425 50.8004 15.8425L52.4004 14.7425C52.2004 14.7425 52.1004 14.7425 52.0004 14.7425Z" fill="black"/>
<path id="Vector_23" d="M54.8004 14.3424L52.6004 14.8424L50.9004 16.0424H54.6004C54.9004 15.7424 55.1004 15.5424 55.1004 15.2424C55.1004 14.7424 54.9004 14.4424 54.8004 14.3424Z" fill="black"/>
<path id="Vector_24" d="M52.0004 14.7425C51.1004 14.7425 50.3004 15.0425 49.9004 15.2425C50.3004 15.3425 50.6004 15.6425 50.8004 15.8425L52.4004 14.7425C52.2004 14.7425 52.1004 14.7425 52.0004 14.7425Z" fill="#005BAA"/>
<path id="Vector_25" d="M54.8004 14.3424L52.6004 14.8424L50.9004 16.0424H54.6004C54.9004 15.7424 55.1004 15.5424 55.1004 15.2424C55.1004 14.7424 54.9004 14.4424 54.8004 14.3424Z" fill="#005BAA"/>
<path id="Vector_26" d="M50.3002 19.5425C50.4002 19.1425 50.9002 17.2425 50.7002 16.1425C50.7002 16.1425 50.5002 15.7425 50.1002 15.5425C49.7002 15.3425 49.6002 15.9425 49.6002 16.0425C49.6002 16.2425 49.6002 16.5425 49.6002 16.9425C49.7002 18.2425 49.8002 20.1425 49.4002 20.2425C48.8002 20.4425 47.9002 20.8425 47.7002 21.0425H50.3002C50.3002 20.9425 50.4002 20.7425 50.3002 20.4425C50.2002 20.1425 50.2002 19.9425 50.3002 19.5425Z" fill="#F58345"/>
<path id="Vector_27" d="M49.8 15.4425C49.5 15.3425 49.3 15.6425 49.3 15.7425C49.2 15.9425 49.2 16.3425 49.2 16.9425C49.3 18.2425 49.5 20.1425 48.7 20.3425C48 20.5425 47.2 20.9425 47 21.0425H47.6C47.8 20.8425 48.7 20.4425 49.3 20.2425C49.7 20.1425 49.7 18.2425 49.5 16.9425C49.5 15.9425 49.7 15.5425 49.8 15.4425Z" fill="#F58345"/>
<path id="Vector_28" d="M48.0554 10.7606L47.5283 11.2212L50.2261 14.3085L50.7532 13.8479L48.0554 10.7606Z" fill="black"/>
<path id="Vector_29" d="M48.1245 10.8294L47.6729 11.2244L50.3061 14.2356L50.7577 13.8406L48.1245 10.8294Z" fill="#FFE17F"/>
<path id="Vector_30" d="M50.4998 8.94246V8.74246L50.2998 8.94246V9.04246L48.2998 10.8425L48.3998 10.9425L50.3998 9.14246H50.4998L50.6998 8.94246H50.4998Z" fill="black"/>
<path id="Vector_31" d="M54.8002 14.2424L54.9002 13.5424L52.8002 14.2424L52.7002 14.6425L54.8002 14.2424Z" fill="black"/>
<path id="Vector_32" d="M54.8004 13.8425V13.6425L52.9004 14.3425L54.8004 13.8425Z" fill="white"/>
<path id="Vector_33" d="M52.7998 14.4425V14.6425L54.7998 14.1425V13.9425L52.7998 14.4425Z" fill="#ED1C24"/>
<path id="Vector_34" d="M55 10.6425H54.4L53 10.5424H52.5C52.3 10.5424 51.8 10.7424 51.6 11.2424C51.4 11.8424 51 12.3425 51 12.3425C51 12.3425 50.9 12.5425 50.8 12.3425C50.7 12.1425 50.5 11.9424 50.2 11.7424C50 11.6424 49.9 11.5424 49.9 11.4424C49.8 11.5424 49.6 11.6424 49.5 11.7424C49.6 11.9424 49.9 12.3425 49.9 12.3425C49.9 12.3425 50.5 13.1424 50.8 13.4424C51.1 13.7424 51.3 13.5424 51.4 13.4424C51.5 13.3424 52.1 12.7425 52.3 12.1425C52.3 12.1425 52.6 12.6425 52.8 12.8425C53 13.0425 52.9 13.2424 52.9 13.4424L52.2 13.7424C52.3 13.9424 52.4 14.1425 52.4 14.3425C52.6 14.3425 52.9 14.1425 52.9 14.1425L55 13.3425L55.7 12.1425C56.5 10.7425 55.2 10.6425 55 10.6425Z" fill="black"/>
<path id="Vector_35" d="M55.7998 11.0425C55.5998 10.7425 55.1998 10.7425 54.9998 10.7425H54.3998L52.9998 10.6425H52.4998C52.2998 10.6425 51.7998 10.7425 51.5998 11.3425C51.3998 11.9425 50.9998 12.5425 50.9998 12.5425C50.9998 12.5425 50.8998 12.6425 50.7998 12.6425C50.6998 12.6425 50.6998 12.6425 50.5998 12.5425C50.4998 12.4425 50.2998 12.1425 49.9998 11.9425C49.7998 11.8425 49.6998 11.7425 49.6998 11.6425C49.5998 11.7425 49.4998 11.8425 49.2998 11.9425C49.3998 12.1425 49.6998 12.5425 49.6998 12.5425C49.6998 12.5425 50.2998 13.3425 50.5998 13.6425C50.6998 13.7425 50.7998 13.7425 50.8998 13.7425C50.9998 13.7425 50.9998 13.7425 51.0998 13.6425C51.1998 13.5425 51.6998 12.9425 51.8998 12.3425V12.2425C51.8998 12.2425 51.8998 12.1425 52.0998 11.9425C52.1998 11.8425 52.3998 11.7425 52.3998 11.7425V11.8425C52.3998 11.8425 52.0998 12.0425 51.9998 12.3425V12.4425C51.9998 12.4425 52.2998 12.9425 52.4998 13.1425C52.6998 13.3425 52.5998 13.5425 52.5998 13.7425C53.0998 13.5425 53.7998 13.2425 53.8998 13.2425C53.9998 13.1425 54.1998 12.6425 54.2998 12.2425C54.3998 12.0425 54.3998 11.8425 54.4998 11.8425H54.5998C54.5998 11.8425 54.4998 12.0425 54.4998 12.2425C54.2998 12.7425 54.1998 13.1425 53.9998 13.2425C53.8998 13.3425 52.8998 13.6425 52.6998 13.7425L51.8998 14.0425C51.9998 14.1425 51.9998 14.3425 51.9998 14.5425C52.1998 14.5425 52.4998 14.4425 52.4998 14.4425L54.4998 13.6425L55.1998 12.4425C55.7998 11.7425 55.8998 11.3425 55.7998 11.0425Z" fill="#F58345"/>
<path id="Vector_36" d="M55.4998 10.5424H53.4998L52.7998 11.5424C53.0998 11.7424 53.4998 11.8425 53.8998 11.8425C54.7998 11.8425 55.4998 11.3425 55.4998 10.8425C55.4998 10.7425 55.4998 10.6424 55.4998 10.5424Z" fill="black"/>
<path id="Vector_37" d="M55.3998 10.5424H53.4998L52.7998 11.4424C53.0998 11.6424 53.4998 11.7424 53.8998 11.7424C54.7998 11.7424 55.4998 11.3424 55.4998 10.7424C55.3998 10.7424 55.3998 10.6424 55.3998 10.5424Z" fill="#ED1C24"/>
<path id="Vector_38" d="M55.2004 10.5424H53.4004L52.9004 11.2424C53.1004 11.4424 53.5004 11.4424 53.9004 11.4424C54.7004 11.4424 55.3004 11.0424 55.3004 10.5424C55.2004 10.6424 55.2004 10.6424 55.2004 10.5424Z" fill="black"/>
<path id="Vector_39" d="M55.2 10.5424H53.5L53 11.2424C53.2 11.4424 53.6 11.4424 53.9 11.4424C54.6 11.4424 55.2 11.0425 55.2 10.6425C55.2 10.6425 55.2 10.6424 55.2 10.5424Z" fill="white"/>
<path id="Vector_40" d="M55 10.5424H53.4L53 11.1425C53.2 11.2425 53.5 11.3425 53.9 11.3425C54.5 11.3425 55 11.0425 55 10.6425C55 10.6425 55 10.6424 55 10.5424Z" fill="black"/>
<path id="Vector_41" d="M54.9 10.5424H53.4L53 11.0424C53.2 11.1424 53.5 11.2424 53.8 11.2424C54.4 11.2424 54.8 10.9424 54.8 10.5424C54.9 10.6424 54.9 10.6424 54.9 10.5424Z" fill="#FFE17F"/>
<path id="Vector_42" d="M56.5003 12.3424C56.5003 12.3424 56.0003 10.5424 55.4003 9.64243C54.8003 8.84243 53.2003 8.24243 52.8003 9.24243C52.8003 9.24243 51.6003 9.54243 51.2003 10.2424C51.0003 10.6424 51.4003 10.5424 51.7003 10.3424C52.0003 10.0424 52.7003 9.74243 53.3003 9.74243C53.3003 9.74243 53.5003 10.0424 53.0003 10.5424C53.0003 10.5424 53.0003 10.7424 53.2003 10.8424L52.7003 11.5424V12.4424H53.2003V10.9424C53.3003 11.0424 53.5003 11.1424 53.8003 11.1424V12.4424H54.3003V10.6424H54.9003C55.1003 10.6424 56.4003 10.7424 55.4003 12.2424H56.5003V12.3424Z" fill="black"/>
<path id="Vector_43" d="M53.2002 12.3424H52.7002V12.4424H53.2002V12.3424Z" fill="white"/>
<path id="Vector_44" d="M54.4004 12.3424H53.9004V12.4424H54.4004V12.3424Z" fill="white"/>
<path id="Vector_45" d="M55.6996 12.1425L55.5996 12.2425H56.2996V12.1425H55.6996Z" fill="white"/>
<path id="Vector_46" d="M52.7002 12.2424H53.1002V11.0424L52.7002 11.5424V12.2424Z" fill="#005BAA"/>
<path id="Vector_47" d="M56.4002 12.0425C56.2002 11.5425 55.8002 10.2425 55.4002 9.64246C55.1002 9.14246 54.4002 8.74246 53.8002 8.74246H53.7002C53.8002 8.84246 54.2002 9.04246 54.2002 9.34246C54.3002 9.54246 54.2002 9.74246 54.1002 9.84246C53.7002 10.4425 53.8002 10.4425 53.9002 10.5425C54.0002 10.6425 54.0002 10.7425 54.0002 10.8425V11.2425V12.2425H54.4002V10.6425H55.1002C55.3002 10.6425 55.8002 10.6425 56.0002 11.0425C56.1002 11.3425 56.1002 11.6425 55.9002 12.1425H56.4002V12.0425Z" fill="#005BAA"/>
<path id="Vector_48" d="M52.8001 9.34244C52.8001 9.34244 51.7001 9.64244 51.2001 10.3424C51.0001 10.6424 51.5001 10.4424 51.6001 10.3424C51.9001 10.0424 52.5001 9.84244 53.1001 9.74244C53.0001 9.64244 52.9001 9.44244 52.8001 9.34244ZM51.6001 10.2424C51.5001 10.3424 51.2001 10.4424 51.2001 10.4424C51.2001 10.4424 51.2001 10.4424 51.2001 10.3424C51.6001 9.74244 52.5001 9.44244 52.7001 9.44244C52.7001 9.54244 52.8001 9.64244 52.9001 9.64244C52.4001 9.74244 51.9001 9.94244 51.6001 10.2424Z" fill="#FFE17F"/>
<path id="Vector_49" d="M53.9995 9.44245C53.8995 9.14245 53.6995 8.94245 53.4995 8.94245C53.3995 8.84245 53.0995 9.04245 52.9995 9.14245C52.8995 9.24245 52.9995 9.34245 52.9995 9.34245C53.0995 9.54245 53.3995 9.64245 53.3995 9.64245C53.3995 9.64245 53.5995 9.94245 53.0995 10.5424C53.0995 10.5424 53.1995 10.6424 53.1995 10.7424C53.2995 10.8424 53.4995 10.9424 53.6995 10.9424C53.7995 10.8424 53.7995 10.7424 53.6995 10.6424C53.4995 10.5424 53.4995 10.3424 53.8995 9.74245C53.9995 9.74245 53.9995 9.54245 53.9995 9.44245ZM53.4995 9.34245C53.3995 9.34245 53.2995 9.24245 53.2995 9.24245C53.2995 9.14245 53.3995 9.14245 53.4995 9.14245C53.5995 9.14245 53.6995 9.24245 53.6995 9.24245C53.5995 9.34245 53.5995 9.34245 53.4995 9.34245Z" fill="white"/>
<path id="Vector_50" d="M58.2004 7.34244L55.4004 9.74244C55.4004 9.84244 55.5004 9.84244 55.5004 9.94244L58.4004 7.54244V7.34244H58.2004Z" fill="#F7941D"/>
<path id="Vector_51" d="M49.4998 12.0425C49.4998 12.0425 49.2998 11.6425 49.0998 11.5425C48.7998 11.3425 48.5998 11.2425 48.4998 11.1425C48.3998 11.0425 48.2998 10.9425 48.2998 10.8425C48.2998 10.8425 48.2998 10.7425 48.3998 10.7425C48.3998 10.7425 48.4998 10.7425 48.4998 10.8425C48.5998 10.9425 48.6998 10.9425 48.6998 10.9425C48.7998 10.9425 48.7998 11.0425 48.7998 11.0425C48.7998 11.0425 48.8998 11.0425 48.9998 11.0425C49.0998 11.0425 49.0998 11.0425 49.0998 10.9425C49.0998 10.8425 49.0998 10.8425 49.0998 10.7425C49.0998 10.7425 48.9998 10.6425 48.8998 10.6425C48.7998 10.6425 48.7998 10.6425 48.6998 10.6425H48.5998C48.5998 10.6425 48.5998 10.6425 48.4998 10.6425C48.3998 10.6425 48.2998 10.6425 48.2998 10.5425V10.4425V10.3425C48.2998 10.3425 48.2998 10.3425 48.2998 10.2425C48.2998 10.2425 48.2998 10.1425 48.3998 10.1425C48.3998 10.1425 48.3998 10.1425 48.3998 10.0425C48.3998 9.94247 48.4998 9.94247 48.5998 9.94247C48.6998 9.94247 48.7998 9.94247 48.8998 9.94247C49.0998 9.94247 49.2998 9.94247 49.3998 10.0425C49.5998 10.2425 49.7998 10.6425 49.7998 10.9425C49.8998 11.2425 49.8998 11.3425 49.8998 11.4425L50.0998 11.7425L49.4998 12.0425Z" fill="black"/>
<path id="Vector_52" d="M49.5998 11.9425C49.5998 11.9425 49.3998 11.5425 49.1998 11.4425C48.9998 11.2425 48.6998 11.1425 48.5998 11.0425C48.3998 10.9425 48.3998 10.7425 48.5998 10.8425C48.7998 10.9425 48.8998 11.0425 48.9998 11.0425C49.0998 11.0425 49.2998 11.1425 49.2998 11.0425C49.3998 10.9425 49.2998 10.7425 49.0998 10.6425C48.8998 10.6425 48.7998 10.6425 48.6998 10.6425C48.5998 10.6425 48.4998 10.5425 48.5998 10.5425C48.6998 10.5425 48.6998 10.5425 48.7998 10.5425C48.8998 10.5425 48.8998 10.5425 48.7998 10.5425C48.6998 10.5425 48.4998 10.5425 48.4998 10.5425C48.4998 10.5425 48.4998 10.5425 48.5998 10.5425C48.6998 10.5425 48.6998 10.5425 48.7998 10.5425C48.8998 10.5425 48.8998 10.5425 48.7998 10.5425C48.6998 10.5425 48.5998 10.5425 48.4998 10.5425C48.3998 10.5425 48.3998 10.4425 48.4998 10.4425C48.5998 10.4425 48.7998 10.4425 48.8998 10.4425C48.9998 10.4425 48.9998 10.4425 48.8998 10.4425C48.6998 10.4425 48.6998 10.4425 48.5998 10.4425C48.4998 10.4425 48.4998 10.3425 48.6998 10.3425C48.8998 10.3425 49.2998 10.2425 49.3998 10.4425C49.5998 10.5425 49.6998 11.0425 49.7998 11.3425C49.8998 11.6425 49.8998 11.8425 49.8998 11.8425L49.9998 12.0425L49.5998 11.9425Z" fill="#F58345"/>
<path id="Vector_53" d="M52.1 12.6424C52.1 12.7424 52 12.7424 51.9 12.6424L51.2 12.2424C51.1 12.2424 51.1 12.1424 51.2 12.0424C51.2 11.9424 51.3 11.9424 51.4 12.0424L52.1 12.4424C52.1 12.5424 52.1 12.6424 52.1 12.6424Z" fill="white"/>
<path id="Vector_54" d="M52.1 12.6424C52.1 12.7424 52 12.7424 51.9 12.6424L51.2 12.2424C51.1 12.2424 51.1 12.1424 51.2 12.0424C51.2 11.9424 51.3 11.9424 51.4 12.0424L52.1 12.4424C52.1 12.5424 52.1 12.6424 52.1 12.6424Z" stroke="black" stroke-width="0.06" stroke-miterlimit="10"/>
<path id="Vector_55" d="M52.1996 12.4425C52.1996 12.5425 52.0996 12.5425 51.9996 12.4425L51.2996 12.0425C51.1996 12.0425 51.1996 11.9425 51.2996 11.8425C51.2996 11.7425 51.3996 11.7425 51.4996 11.8425L52.1996 12.2425C52.1996 12.3425 52.1996 12.4425 52.1996 12.4425Z" fill="#26247B"/>
<path id="Vector_56" d="M52.1996 12.4425C52.1996 12.5425 52.0996 12.5425 51.9996 12.4425L51.2996 12.0425C51.1996 12.0425 51.1996 11.9425 51.2996 11.8425C51.2996 11.7425 51.3996 11.7425 51.4996 11.8425L52.1996 12.2425C52.1996 12.3425 52.1996 12.4425 52.1996 12.4425Z" stroke="black" stroke-width="0.06" stroke-miterlimit="10"/>
<path id="Vector_57" d="M52.3002 12.2425C52.3002 12.3425 52.2002 12.3425 52.1002 12.2425L51.4002 11.8425C51.3002 11.8425 51.3002 11.7425 51.4002 11.6425C51.4002 11.5425 51.5002 11.5425 51.6002 11.6425L52.3002 12.0425C52.3002 12.1425 52.4002 12.2425 52.3002 12.2425Z" fill="white"/>
<path id="Vector_58" d="M52.3002 12.2425C52.3002 12.3425 52.2002 12.3425 52.1002 12.2425L51.4002 11.8425C51.3002 11.8425 51.3002 11.7425 51.4002 11.6425C51.4002 11.5425 51.5002 11.5425 51.6002 11.6425L52.3002 12.0425C52.3002 12.1425 52.4002 12.2425 52.3002 12.2425Z" stroke="black" stroke-width="0.06" stroke-miterlimit="10"/>
<path id="Vector_59" d="M50.7998 14.8425C50.6998 14.8425 50.5998 14.8425 50.3998 14.8425C50.2998 14.8425 50.1998 14.8424 50.1998 14.7424C50.0998 14.7424 49.9998 14.7425 49.9998 14.6425V14.5424L49.8998 14.4424L49.7998 14.3425C49.7998 14.3425 49.7998 14.2424 49.9998 14.2424H50.0998C50.1998 14.2424 50.3998 14.2425 50.7998 14.3425H50.8998C50.8998 14.3425 50.8998 14.3425 50.7998 14.3425C50.7998 14.3425 50.6998 14.3425 50.5998 14.3425C50.4998 14.3425 50.3998 14.3424 50.3998 14.2424C50.3998 14.2424 50.3998 14.1424 50.7998 14.0424C50.8998 14.0424 50.8998 14.0424 50.9998 14.0424C51.1998 14.0424 51.3998 14.0425 51.4998 14.1425C51.5998 14.1425 51.8998 14.0424 51.8998 14.0424L52.1998 14.5424L51.8998 14.6425C51.8998 14.6425 51.3998 14.8424 51.0998 14.9424C51.1998 14.8424 50.9998 14.8425 50.7998 14.8425Z" fill="#231F20"/>
<path id="Vector_60" d="M51.9999 13.9425C51.9999 13.9425 51.5999 14.0425 51.4999 14.0425C51.3999 14.0425 51.0999 13.9425 50.7999 14.0425C50.4999 14.0425 50.2999 14.1425 50.5999 14.1425C50.7999 14.1425 50.8999 14.1425 50.8999 14.1425C50.8999 14.1425 50.9999 14.3425 50.7999 14.3425C50.5999 14.3425 50.1999 14.3425 50.0999 14.2425C49.9999 14.2425 49.7999 14.2425 50.0999 14.3425C50.2999 14.4425 50.5999 14.4425 50.6999 14.4425C50.7999 14.4425 50.7999 14.4425 50.6999 14.4425C50.5999 14.4425 50.2999 14.4425 50.0999 14.4425C49.8999 14.4425 49.9999 14.5425 50.1999 14.5425C50.4999 14.5425 50.5999 14.5425 50.5999 14.5425C50.6999 14.5425 50.6999 14.5425 50.5999 14.5425C50.3999 14.5425 50.2999 14.5425 50.0999 14.5425C49.9999 14.5425 49.7999 14.6425 50.1999 14.6425C50.4999 14.6425 50.6999 14.7425 50.4999 14.7425C50.3999 14.7425 49.8999 14.7425 50.2999 14.7425C50.6999 14.8425 50.8999 14.7425 51.1999 14.7425C51.4999 14.6425 51.9999 14.4425 51.9999 14.4425L52.1999 14.3425L51.9999 13.9425Z" fill="#F58345"/>
<path id="Vector_61" d="M52.3 14.5425H52.2L52 14.0425V13.9425H52.1L52.3 14.4425C52.4 14.4425 52.4 14.4425 52.3 14.5425Z" fill="#FFE17F"/>
<path id="Vector_62" d="M52.3 14.5425H52.2L52 14.0425V13.9425H52.1L52.3 14.4425C52.4 14.4425 52.4 14.4425 52.3 14.5425Z" stroke="black" stroke-width="0.06" stroke-miterlimit="10"/>
<path id="Vector_63" d="M52.5002 14.4424H52.4002L52.2002 13.9424V13.8424H52.3002L52.5002 14.3424C52.6002 14.3424 52.6002 14.4424 52.5002 14.4424Z" fill="#005E9E"/>
<path id="Vector_64" d="M52.5002 14.4424H52.4002L52.2002 13.9424V13.8424H52.3002L52.5002 14.3424C52.6002 14.3424 52.6002 14.4424 52.5002 14.4424Z" stroke="black" stroke-width="0.06" stroke-miterlimit="10"/>
<path id="Vector_65" d="M52.7004 14.3425H52.6004L52.4004 13.8425V13.7425H52.5004L52.7004 14.2425C52.8004 14.2425 52.7004 14.3425 52.7004 14.3425Z" fill="#FFE17F"/>
<path id="Vector_66" d="M52.7004 14.3425H52.6004L52.4004 13.8425V13.7425H52.5004L52.7004 14.2425C52.8004 14.2425 52.7004 14.3425 52.7004 14.3425Z" stroke="black" stroke-width="0.06" stroke-miterlimit="10"/>
<path id="Vector_67" d="M49.4004 11.8425V11.7425L49.9004 11.4425H50.0004V11.5425L49.5004 11.8425C49.5004 11.9425 49.4004 11.8425 49.4004 11.8425Z" fill="#FFE17F"/>
<path id="Vector_68" d="M49.4004 11.8425V11.7425L49.9004 11.4425H50.0004V11.5425L49.5004 11.8425C49.5004 11.9425 49.4004 11.8425 49.4004 11.8425Z" stroke="black" stroke-width="0.06" stroke-miterlimit="10"/>
<path id="Vector_69" d="M49.5 12.0425V11.9425L50 11.6425H50.1V11.7425L49.6 12.0425H49.5Z" fill="#005E9E"/>
<path id="Vector_70" d="M49.5 12.0425V11.9425L50 11.6425H50.1V11.7425L49.6 12.0425H49.5Z" stroke="black" stroke-width="0.06" stroke-miterlimit="10"/>
<path id="Vector_71" d="M49.5996 12.1425V12.0425L50.0996 11.7425H50.1996V11.8425L49.6996 12.1425C49.6996 12.2425 49.5996 12.2425 49.5996 12.1425Z" fill="#FFE17F"/>
<path id="Vector_72" d="M49.5996 12.1425V12.0425L50.0996 11.7425H50.1996V11.8425L49.6996 12.1425C49.6996 12.2425 49.5996 12.2425 49.5996 12.1425Z" stroke="black" stroke-width="0.06" stroke-miterlimit="10"/>
<path id="Vector_73" d="M55.2998 12.8424C55.2998 12.9424 55.1998 12.9424 55.0998 12.9424L54.3998 12.6424C54.2998 12.6424 54.2998 12.5424 54.2998 12.4424C54.2998 12.3424 54.3998 12.3424 54.4998 12.3424L55.1998 12.6424C55.2998 12.6424 55.3998 12.7424 55.2998 12.8424Z" fill="white"/>
<path id="Vector_74" d="M55.2998 12.8424C55.2998 12.9424 55.1998 12.9424 55.0998 12.9424L54.3998 12.6424C54.2998 12.6424 54.2998 12.5424 54.2998 12.4424C54.2998 12.3424 54.3998 12.3424 54.4998 12.3424L55.1998 12.6424C55.2998 12.6424 55.3998 12.7424 55.2998 12.8424Z" stroke="black" stroke-width="0.06" stroke-miterlimit="10"/>
<path id="Vector_75" d="M55.4004 12.6425C55.4004 12.7425 55.3004 12.7425 55.2004 12.7425L54.5004 12.4425C54.4004 12.4425 54.4004 12.3425 54.4004 12.2425C54.4004 12.1425 54.5004 12.1425 54.6004 12.1425L55.3004 12.4425C55.4004 12.4425 55.5004 12.5425 55.4004 12.6425Z" fill="#26247B"/>
<path id="Vector_76" d="M55.4004 12.6425C55.4004 12.7425 55.3004 12.7425 55.2004 12.7425L54.5004 12.4425C54.4004 12.4425 54.4004 12.3425 54.4004 12.2425C54.4004 12.1425 54.5004 12.1425 54.6004 12.1425L55.3004 12.4425C55.4004 12.4425 55.5004 12.5425 55.4004 12.6425Z" stroke="black" stroke-width="0.06" stroke-miterlimit="10"/>
<path id="Vector_77" d="M55.5996 12.3425C55.5996 12.4425 55.4996 12.4425 55.3996 12.4425L54.6996 12.0425C54.5996 12.0425 54.5996 11.9425 54.5996 11.8425C54.5996 11.7425 54.6996 11.7425 54.7996 11.7425L55.4996 12.0425C55.5996 12.2425 55.5996 12.3425 55.5996 12.3425Z" fill="white"/>
<path id="Vector_78" d="M55.5996 12.3425C55.5996 12.4425 55.4996 12.4425 55.3996 12.4425L54.6996 12.0425C54.5996 12.0425 54.5996 11.9425 54.5996 11.8425C54.5996 11.7425 54.6996 11.7425 54.7996 11.7425L55.4996 12.0425C55.5996 12.2425 55.5996 12.3425 55.5996 12.3425Z" stroke="black" stroke-width="0.06" stroke-miterlimit="10"/>
<path id="Vector_79" d="M44.5 6.74246V19.5425C44.5 23.5425 47.7 25.9425 51.7 25.9425C55.7 25.9425 58.9 23.5425 58.9 19.5425V6.74246H44.5ZM58.4 19.5425C58.4 21.2425 57.7 22.7425 56.5 23.8425C55.3 24.8425 53.6 25.4425 51.8 25.4425C49.9 25.4425 48.3 24.8425 47.1 23.8425C45.8 22.7425 45.2 21.3425 45.2 19.5425V7.34246H58.5V19.5425H58.4Z" fill="black"/>
<path id="Vector_80" d="M68.8 28.3424C68.9 28.9424 68.9 29.4424 69 29.9424C69.3 29.7424 69.6 29.5424 69.9 29.3424C71 28.7424 72.1 28.2424 73.2 27.9424C73.3 27.9424 73.5 27.8424 73.7 27.8424C73.9 27.8424 74 27.9424 74 28.1424C74 28.2424 74 28.4424 73.9 28.5424C73.8 28.7424 73.6 28.9424 73.5 29.2424C73.3 29.6424 73 29.9424 72.8 30.3424L72.7 30.4424C72.7 30.4424 72.7 30.4424 72.6 30.4424C72.7 30.2424 72.7 30.0424 72.8 29.9424C73 29.6424 73.2 29.3424 73.4 28.9424C73.5 28.8424 73.6 28.6424 73.6 28.5424C73.6 28.5424 73.6 28.5424 73.6 28.4424C73.5 28.4424 73.3 28.4424 73.2 28.5424C72.4 28.8424 71.6 29.1424 70.8 29.4424C70.2 29.7424 69.7 30.0424 69.1 30.3424C69.4 30.5424 69.6 30.7424 69.9 30.8424C69.8 30.8424 69.7 30.8424 69.6 30.8424C69.8 31.0424 70 31.1424 70.2 31.3424C70.6 31.6424 71 31.9424 71.4 32.2424C71.9 32.6424 72 33.1424 71.9 33.8424C71.8 34.1424 71.6 34.3424 71.3 34.4424C70.8 34.6424 70.3 34.7424 69.8 34.7424C69.4 34.7424 69.1 34.5424 69 34.1424C69 34.1424 69 34.1424 69 34.0424C68.8 34.4424 68.4 34.6424 67.9 34.6424C67.4 34.5424 67.3 34.2424 67.2 33.8424C67.1 33.9424 67 34.0424 67 34.1424C66.6 34.5424 66.2 34.8424 65.6 34.8424C65.3 34.8424 65.1 34.7424 65 34.5424C64.8 34.2424 64.7 33.8424 64.6 33.5424C64.5 33.9424 64 34.1424 63.6 34.2424C63.2 34.3424 63 34.1424 63 33.6424C63.1 33.1424 63.4 32.8424 63.7 32.5424C63.9 32.3424 64.1 32.2424 64.3 32.0424C64.1 31.7424 64.2 31.4424 64.3 31.0424C64.4 31.3424 64.5 31.5424 64.6 31.7424C64.8 31.5424 64.9 31.3424 65.1 31.0424C65.1 31.4424 65 31.6424 64.8 31.8424C64.7 31.9424 64.7 32.0424 64.7 32.1424C64.8 32.5424 64.8 32.9424 64.9 33.2424C65.1 33.9424 65.5 34.1424 66.2 33.9424C66.6 33.8424 66.9 33.6424 67.1 33.3424C67.2 33.2424 67.3 33.2424 67.4 33.1424C67.4 33.2424 67.4 33.2424 67.4 33.3424C67.4 33.8424 67.9 34.1424 68.4 34.0424C68.4 34.0424 68.4 34.0424 68.5 34.0424C68.8 33.9424 68.9 33.8424 68.9 33.5424C68.8 32.3424 68.8 31.2424 68.7 30.0424C68.7 29.6424 68.6 29.2424 68.6 28.8424C68.5 28.7424 68.6 28.5424 68.8 28.3424C68.7 28.3424 68.7 28.3424 68.8 28.3424ZM69 31.0424C69 31.8424 69.1 32.7424 69.1 33.5424C69.2 34.0424 69.4 34.2424 69.9 34.2424C70.1 34.2424 70.2 34.2424 70.4 34.2424C70.9 34.1424 71.3 34.0424 71.7 33.7424C71.8 33.6424 71.8 33.6424 71.8 33.4424C71.6 33.1424 71.4 32.9424 71.1 32.7424C70.4 32.2424 69.6 31.8424 69 31.0424ZM63.3 33.6424C63.4 33.6424 63.5 33.7424 63.6 33.7424C64 33.7424 64.3 33.6424 64.6 33.3424L64.7 33.2424C64.7 33.0424 64.6 32.8424 64.6 32.5424C64 32.8424 63.6 33.1424 63.3 33.6424Z" fill="#231F20"/>
<path id="Vector_81" d="M53.8999 33.4424C53.8999 33.5424 53.8999 33.6424 53.8999 33.7424C53.9999 34.1424 54.2999 34.2424 54.5999 34.2424C54.9999 34.1424 55.2999 34.0424 55.4999 33.7424C55.5999 33.6424 55.7999 33.4424 55.8999 33.3424C55.8999 33.6424 55.8999 33.9424 56.1999 34.0424C56.1999 33.9424 56.2999 33.9424 56.2999 33.8424C56.5999 33.3424 56.8999 32.8424 57.3999 32.4424C57.8999 32.0424 58.1999 32.0424 58.7999 32.4424C59.2999 32.7424 59.3999 33.2424 59.0999 33.8424C59.0999 33.8424 59.0999 33.9424 58.9999 34.0424C59.3999 33.9424 59.6999 33.7424 59.9999 33.6424C59.9999 33.6424 60.0999 33.5424 60.0999 33.4424C60.0999 33.0424 59.9999 32.5424 59.9999 32.1424C59.8999 31.4424 59.8999 30.6424 59.7999 29.9424C59.7999 29.5424 59.6999 29.2424 59.6999 28.8424C59.6999 28.7424 59.6999 28.7424 59.6999 28.6424C59.4999 28.3424 59.6999 28.0424 59.8999 27.8424C60.0999 28.3424 60.1999 28.7424 60.3999 29.2424H60.2999C60.1999 29.1424 60.1999 29.0424 60.0999 28.9424C60.1999 29.6424 60.1999 30.2424 60.2999 30.9424C60.3999 31.7424 60.3999 32.4424 60.3999 33.2424C60.3999 33.4424 60.3999 33.5424 60.2999 33.7424C60.1999 34.0424 60.0999 34.1424 59.7999 34.2424C59.0999 34.5424 58.3999 34.7424 57.5999 34.7424C57.3999 34.7424 57.0999 34.7424 56.8999 34.7424C56.1999 34.7424 55.8999 34.5424 55.5999 33.8424C55.4999 33.9424 55.4999 33.9424 55.3999 34.0424C55.0999 34.3424 54.7999 34.5424 54.3999 34.6424C53.9999 34.7424 53.6999 34.5424 53.5999 34.1424C53.5999 34.0424 53.4999 33.9424 53.4999 33.8424C53.3999 33.9424 53.2999 34.1424 53.1999 34.2424C52.7999 34.6424 52.3999 34.7424 51.7999 34.6424C51.5999 34.5424 51.3999 34.4424 51.2999 34.2424C51.1999 33.9424 51.0999 33.6424 51.0999 33.4424V33.3424C50.7999 34.1424 50.1999 34.4424 49.4999 34.8424C48.6999 35.2424 48.1999 34.9424 47.9999 34.0424C47.8999 33.6424 48.0999 33.2424 48.1999 32.8424C48.1999 32.8424 48.1999 32.8424 48.1999 32.7424C48.1999 32.7424 48.1999 32.7424 48.2999 32.7424C48.2999 32.8424 48.1999 32.9424 48.1999 33.1424C48.1999 33.4424 48.0999 33.6424 48.0999 33.9424C48.0999 34.2424 48.2999 34.4424 48.5999 34.3424C48.7999 34.3424 48.9999 34.3424 49.0999 34.2424C49.6999 34.0424 50.0999 33.6424 50.5999 33.2424C50.7999 33.0424 50.8999 32.7424 50.7999 32.4424C50.5999 31.8424 50.3999 31.3424 50.1999 30.7424C50.0999 30.4424 50.0999 30.2424 50.2999 29.8424C50.4999 30.2424 50.5999 30.5424 50.6999 30.8424C50.8999 31.4424 50.9999 32.1424 51.0999 32.7424C51.1999 32.9424 51.1999 33.2424 51.1999 33.4424C51.2999 33.9424 51.5999 34.1424 52.0999 34.0424C52.4999 34.0424 52.8999 33.8424 53.0999 33.5424C53.5999 33.6424 53.6999 33.5424 53.8999 33.4424ZM56.3999 34.2424C57.1999 34.4424 57.9999 34.3424 58.6999 33.8424C59.0999 33.6424 59.0999 33.6424 58.7999 33.2424C58.4999 32.8424 57.9999 32.7424 57.5999 32.9424C57.0999 33.2424 56.7999 33.6424 56.3999 34.2424Z" fill="#231F20"/>
<path id="Vector_82" d="M35.2004 34.9425C35.1004 34.8425 35.2004 34.8425 35.2004 34.9425C34.4004 35.0425 33.8004 34.9425 33.3004 34.5424C33.0004 34.3424 32.9004 34.3424 32.6004 34.5424C32.3004 34.7424 32.0004 34.9425 31.6004 34.9425C30.8004 35.0425 30.3004 34.7424 30.1004 34.0424C30.0004 33.8424 30.0004 33.6425 30.0004 33.4425C29.8004 34.0425 29.3004 34.1425 28.8004 34.2425C28.5004 34.2425 28.4004 34.1424 28.4004 33.8424C28.4004 33.5424 28.5004 33.3424 28.7004 33.0424C28.9004 32.6424 29.3004 32.4424 29.7004 32.1424C29.7004 32.1424 29.7004 32.1424 29.8004 32.0424C29.6004 31.7424 29.7004 31.4424 29.8004 31.0424C29.9004 31.2424 30.0004 31.5425 30.1004 31.7425C30.3004 31.5425 30.4004 31.3424 30.6004 31.0424C30.6004 31.3424 30.5004 31.6424 30.3004 31.8424C30.2004 31.9424 30.1004 32.1424 30.2004 32.3424C30.3004 32.6424 30.3004 33.0424 30.4004 33.3424C30.5004 34.0424 31.1004 34.3425 31.7004 34.2425C32.0004 34.2425 32.3004 34.0425 32.6004 33.9425C32.3004 33.6425 32.0004 33.4425 31.5004 33.5424C31.5004 33.1424 31.7004 32.9424 32.0004 32.8424C32.9004 32.5424 33.7004 32.5424 34.6004 33.0424C34.5004 33.2424 34.5004 33.3424 34.4004 33.5424L34.3004 33.6424C34.1004 33.7424 33.8004 33.8424 33.6004 33.8424C34.0004 34.1424 34.5004 34.2425 34.9004 34.2425C35.2004 34.2425 35.2004 34.2425 35.2004 33.9425C35.2004 33.4425 35.3004 33.0424 35.6004 32.6424C35.8004 32.3424 36.1004 32.3425 36.3004 32.7425C36.6004 33.3425 36.5004 34.2424 35.6004 34.6424C35.4004 34.7424 35.3004 34.8425 35.2004 34.9425ZM28.6004 33.4425C28.7004 33.4425 28.7004 33.5424 28.8004 33.5424C29.2004 33.5424 29.5004 33.4424 29.8004 33.1424L29.9004 33.0424C29.9004 32.8424 29.8004 32.6425 29.8004 32.4425C29.4004 32.6425 28.9004 32.9425 28.6004 33.4425ZM35.3004 34.1424C35.6004 34.0424 35.8004 33.9425 36.0004 33.7425C36.0004 33.7425 36.1004 33.6424 36.0004 33.5424C36.0004 33.4425 35.9004 33.2424 35.8004 33.1424C35.7004 33.0424 35.6004 33.0424 35.5004 33.1424C35.4004 33.4424 35.3004 33.8424 35.3004 34.1424ZM33.5004 33.3424H32.7004C33.1004 33.6424 33.2004 33.6424 33.5004 33.3424Z" fill="#231F20"/>
<path id="Vector_83" d="M14.5002 34.9425C14.3002 35.3425 14.3002 35.6424 14.3002 36.0424C14.4002 36.4425 14.6002 36.6424 15.0002 36.5424C15.2002 36.4425 15.5002 36.3424 15.6002 36.1424C15.9002 35.9424 16.1002 35.6425 16.3002 35.4425C16.8002 34.8425 17.4002 34.4425 18.1002 34.2425C17.9002 33.6425 18.2002 33.0424 18.5002 32.6424C18.5002 32.3424 18.6002 32.1424 18.6002 31.8424C18.9002 32.0424 19.2002 32.1424 19.5002 32.3424C19.4002 32.3424 19.3002 32.3424 19.2002 32.3424C19.3002 32.4424 19.4002 32.5424 19.5002 32.6424C19.7002 32.7424 19.9002 32.9424 20.0002 33.0424C20.5002 33.3424 20.5002 33.7425 20.4002 34.2425C20.4002 34.3425 20.4002 34.3425 20.3002 34.4425C20.1002 34.8425 19.9002 34.9424 19.5002 34.8424C19.3002 34.7424 19.0002 34.7424 18.8002 34.6424C18.7002 34.6424 18.6002 34.6424 18.5002 34.6424C17.9002 34.8424 17.4002 35.0425 16.9002 35.4425C16.6002 35.6425 16.4002 35.9425 16.1002 36.2425C15.9002 36.4425 15.7002 36.6424 15.4002 36.8424C14.7002 37.4424 14.1002 36.9425 14.0002 36.2425C13.9002 35.8425 14.0002 35.3425 14.2002 34.9425C14.2002 34.8425 14.3002 34.7425 14.3002 34.7425C14.2002 34.1425 14.4002 33.7425 14.7002 33.2425C14.7002 33.2425 14.7002 33.1424 14.8002 33.1424C14.6002 32.9424 14.4002 32.6425 14.2002 32.4425C14.2002 32.4425 14.1002 32.3425 14.1002 32.2425C14.1002 32.0425 14.2002 31.9425 14.2002 31.7425C14.5002 31.9425 14.7002 32.1425 15.0002 32.2425C14.9002 32.2425 14.9002 32.3424 14.8002 32.3424C14.9002 32.4424 15.0002 32.5425 15.2002 32.7425C15.4002 32.3425 15.7002 31.9424 15.9002 31.5424C15.9002 32.1424 15.6002 32.5425 15.3002 32.9425C15.6002 33.2425 15.8002 33.5425 15.7002 33.9425C15.7002 34.2425 15.6002 34.5425 15.4002 34.7425C15.3002 34.9425 14.8002 35.0425 14.5002 34.9425ZM15.1002 33.2425C14.9002 33.5425 14.7002 33.8424 14.6002 34.1424C14.5002 34.3424 14.6002 34.4425 14.8002 34.4425C15.1002 34.4425 15.3002 34.2424 15.5002 34.0424C15.6002 33.9425 15.6002 33.8425 15.5002 33.7425C15.4002 33.5425 15.3002 33.4425 15.1002 33.2425ZM18.9002 32.8424C18.7002 32.8424 18.4002 33.1424 18.4002 33.3424C18.4002 33.5424 18.7002 33.8424 18.9002 33.8424C19.0002 33.8424 19.4002 33.5425 19.4002 33.4425C19.3002 33.2425 19.0002 32.8424 18.9002 32.8424ZM19.3002 34.0424C19.6002 34.0424 19.9002 34.1424 20.2002 34.1424C20.3002 34.1424 20.3002 34.0424 20.4002 34.0424C20.4002 33.9425 20.4002 33.8424 20.3002 33.8424C20.1002 33.6424 19.8002 33.4425 19.5002 33.2425C19.5002 33.5425 19.4002 33.7424 19.3002 34.0424Z" fill="#231F20"/>
<path id="Vector_84" d="M23.7996 34.1424C24.2996 34.3424 24.7996 34.3424 25.2996 34.0424C25.2996 34.0424 25.3996 33.9424 25.3996 33.8424C25.3996 33.4424 25.2996 32.9424 25.2996 32.5424C25.1996 31.8424 25.1996 30.7424 25.0996 29.9424C25.0996 29.5424 24.9996 29.1424 24.9996 28.7424V28.6424C24.7996 28.3424 25.0996 28.1424 25.0996 27.8424C25.0996 27.8424 25.0996 27.8424 25.1996 27.8424C25.3996 28.3424 25.4996 28.7424 25.6996 29.2424C25.6996 29.2424 25.6996 29.2424 25.5996 29.2424L25.4996 29.1424L25.3996 29.0424C25.3996 29.5424 25.4996 30.3424 25.4996 30.8424C25.5996 31.7424 25.5996 32.6424 25.6996 33.5424C25.6996 33.7424 25.6996 33.8424 25.6996 34.0424C25.5996 34.5424 25.2996 34.7424 24.8996 34.8424C24.3996 34.9424 23.9996 34.8424 23.5996 34.6424C23.4996 34.5424 23.3996 34.6424 23.2996 34.6424C22.9996 34.7424 22.6996 34.9424 22.2996 34.9424C21.6996 35.0424 21.1996 34.6424 21.0996 33.9424C20.9996 33.4424 20.9996 32.9424 20.9996 32.4424C20.8996 31.3424 20.7996 29.6424 20.5996 28.5424C20.5996 28.3424 20.6996 28.1424 20.7996 27.9424H20.8996C20.8996 28.1424 20.9996 28.4424 20.9996 28.6424C21.0996 29.7424 21.1996 31.2424 21.2996 32.3424C21.2996 32.7424 21.3996 33.2424 21.3996 33.6424C21.4996 34.1424 21.7996 34.3424 22.2996 34.3424C22.5996 34.3424 22.7996 34.2424 23.0996 34.2424C23.0996 34.0424 22.9996 33.9424 22.9996 33.7424C22.8996 33.1424 23.1996 32.7424 23.5996 32.4424C23.7996 32.2424 23.9996 32.3424 24.0996 32.6424C24.2996 33.1424 24.2996 33.5424 23.9996 34.0424C23.8996 34.0424 23.8996 34.0424 23.7996 34.1424ZM23.3996 33.9424C23.9996 33.5424 23.9996 33.5424 23.6996 33.0424C23.5996 32.9424 23.5996 32.9424 23.4996 32.9424C22.9996 33.3424 22.8996 33.5424 23.3996 33.9424Z" fill="#231F20"/>
<path id="Vector_85" d="M42.6996 33.4425C42.5996 33.6425 42.5996 33.7425 42.4996 33.9425C42.4996 33.9425 42.3996 34.0425 42.2996 34.0425C41.9996 34.0425 41.6996 34.0425 41.3996 34.0425C40.8996 34.1425 40.4996 34.3425 39.9996 34.5425C39.4996 34.7425 38.9996 34.9425 38.3996 34.9425C37.6996 34.9425 37.1996 34.5425 37.0996 33.8425C36.9996 33.3425 36.9996 32.7425 36.9996 32.2425C36.8996 31.1425 36.7996 29.5425 36.5996 28.5425C36.5996 28.3425 36.6996 28.1425 36.7996 27.9425H36.8996C36.9996 28.2425 36.9996 28.5425 37.0996 28.8425C37.1996 30.0425 37.3996 31.7425 37.3996 32.9425C37.3996 33.1425 37.3996 33.3425 37.4996 33.6425C37.5996 34.1425 37.8996 34.4425 38.4996 34.4425C38.7996 34.4425 38.9996 34.4425 39.2996 34.3425C39.4996 34.2425 39.7996 34.1425 39.9996 34.1425C40.1996 34.0425 40.3996 33.9425 40.6996 33.8425C40.1996 33.6425 39.7996 33.5425 39.2996 33.3425C38.8996 33.5425 38.3996 33.2425 37.9996 33.3425C37.9996 33.0425 38.1996 32.7425 38.4996 32.6425C38.7996 32.5425 39.0996 32.5425 39.3996 32.6425C40.1996 32.8425 40.9996 33.1425 41.6996 33.3425C41.8996 33.4425 42.2996 33.4425 42.6996 33.4425Z" fill="#231F20"/>
<path id="Vector_86" d="M47.3001 27.8424C47.5001 28.3424 47.6001 28.7424 47.8001 29.2424C47.8001 29.2424 47.8001 29.2424 47.7001 29.2424C47.6001 29.1424 47.6001 29.1424 47.5001 29.0424C47.5001 29.1424 47.5001 29.1424 47.5001 29.1424C47.6001 30.0424 47.7001 31.2424 47.7001 32.1424C47.7001 32.7424 47.8001 33.3424 47.8001 33.9424C47.8001 34.6424 47.1001 35.1424 46.4001 34.8424C46.2001 34.7424 46.0001 34.6424 45.9001 34.4424C45.8001 34.1424 45.7001 33.8424 45.6001 33.5424C45.4001 34.0424 45.0001 34.1424 44.5001 34.2424C44.1001 34.3424 43.9001 34.0424 44.0001 33.7424C44.1001 33.2424 44.4001 32.9424 44.7001 32.6424C44.9001 32.4424 45.1001 32.3424 45.3001 32.1424C45.1001 31.8424 45.2001 31.5424 45.3001 31.1424C45.4001 31.4424 45.5001 31.6424 45.6001 31.8424C45.8001 31.6424 45.9001 31.4424 46.1001 31.1424C46.1001 31.4424 46.0001 31.6424 45.9001 31.8424C45.7001 32.0424 45.7001 32.2424 45.7001 32.5424C45.8001 32.8424 45.8001 33.2424 45.9001 33.5424C46.1001 34.2424 46.8001 34.4424 47.4001 34.0424C47.4001 34.0424 47.5001 33.9424 47.5001 33.8424C47.4001 32.6424 47.3001 31.3424 47.2001 30.1424C47.2001 29.8424 47.1001 29.0424 47.1001 28.7424V28.6424C46.9001 28.3424 47.1001 28.1424 47.3001 27.8424C47.2001 27.8424 47.2001 27.8424 47.3001 27.8424ZM44.3001 33.5424C44.4001 33.5424 44.5001 33.6424 44.5001 33.6424C44.9001 33.6424 45.2001 33.5424 45.5001 33.2424L45.6001 33.1424C45.6001 32.9424 45.5001 32.7424 45.5001 32.4424C45.0001 32.7424 44.5001 33.0424 44.3001 33.5424Z" fill="#231F20"/>
<path id="Vector_87" d="M26.0996 28.5424C26.2996 28.9424 26.4996 29.4424 26.5996 29.9424C26.5996 29.9424 26.5996 29.9424 26.4996 29.9424C26.3996 29.8424 26.3996 29.8425 26.2996 29.7425C26.2996 30.0425 26.2996 30.3425 26.3996 30.6425C26.4996 31.4425 26.4996 32.1425 26.5996 32.9425C26.5996 33.3425 26.5996 33.8425 26.5996 34.2425C26.5996 34.4425 26.4996 34.6424 26.4996 34.8424C26.4996 34.8424 26.4996 34.8424 26.3996 34.8424C26.3996 34.5424 26.3996 34.2425 26.2996 33.9425C26.1996 32.9425 26.1996 32.0424 26.0996 31.0424C26.0996 30.5424 25.9996 30.0424 25.9996 29.5424V29.4424C25.7996 29.0424 25.9996 28.8424 26.0996 28.5424Z" fill="#231F20"/>
<path id="Vector_88" d="M61.0002 28.5424L61.5002 29.9424C61.5002 29.9424 61.4002 29.9424 61.4002 30.0424C61.3002 29.9424 61.3002 29.8425 61.2002 29.7425C61.2002 29.7425 61.2002 29.7425 61.1002 29.7425C61.2002 30.6425 61.2002 31.5425 61.3002 32.4425C61.3002 33.0425 61.4002 33.5424 61.4002 34.1424C61.4002 34.3424 61.3002 34.6424 61.3002 34.8424C61.3002 34.8424 61.3002 34.8424 61.2002 34.8424C61.2002 34.6424 61.2002 34.3424 61.1002 34.1424C61.0002 33.1424 61.0002 32.2425 60.9002 31.2425C60.9002 30.7425 60.8002 30.2425 60.8002 29.6425C60.8002 29.5425 60.8002 29.4424 60.8002 29.3424C60.8002 29.2424 60.7002 29.1424 60.7002 29.0424C60.8002 28.8424 60.9002 28.7424 61.0002 28.5424Z" fill="#231F20"/>
<path id="Vector_89" d="M35.6998 28.3424C35.6998 28.5424 35.5998 28.7424 35.2998 28.7424C33.7998 29.3424 32.1998 29.8424 30.6998 30.4424C30.5998 30.4424 30.3998 30.5424 30.2998 30.6424C30.3998 30.4424 30.3998 30.2424 30.5998 30.2424C32.2998 29.6424 33.9998 29.0424 35.6998 28.3424Z" fill="#231F20"/>
<path id="Vector_90" d="M58.0004 28.4425C58.0004 28.6425 57.9004 28.8425 57.7004 28.8425C56.4004 29.3425 55.1004 29.8425 53.8004 30.2425C53.7004 30.2425 53.6004 30.3425 53.4004 30.3425C53.4004 30.1425 53.5004 29.9425 53.8004 29.8425C55.1004 29.5425 56.5004 29.0425 58.0004 28.4425C57.9004 28.4425 57.9004 28.4425 58.0004 28.4425Z" fill="#231F20"/>
<path id="Vector_91" d="M64 30.1425C64 29.9425 64.1 29.7425 64.4 29.6425C65.7 29.1425 66.9 28.7425 68.2 28.2425H68.3C68.3 28.4425 68.2 28.6425 68 28.6425C66.8 29.0425 65.6 29.5425 64.4 29.9425C64.2 30.0425 64.1 30.1425 64 30.1425Z" fill="#231F20"/>
<path id="Vector_92" d="M21.2002 29.1425C21.2002 28.9425 21.3002 28.7425 21.5002 28.7425C22.7002 28.3425 23.8002 27.8425 25.0002 27.4425C25.0002 27.4425 25.0002 27.4425 25.1002 27.4425C25.1002 27.6425 25.0002 27.7425 24.8002 27.8425C23.7002 28.2425 22.7002 28.6425 21.6002 29.0425C21.4002 29.0425 21.3002 29.0425 21.2002 29.1425Z" fill="#231F20"/>
<path id="Vector_93" d="M38.2998 29.7425C38.2998 29.5425 38.3998 29.3425 38.6998 29.2425C39.7998 28.8425 40.9998 28.4425 42.0998 27.9425H42.1998C42.1998 28.1425 42.0998 28.2425 41.8998 28.3425C40.7998 28.7425 39.6998 29.1425 38.6998 29.5425C38.5998 29.6425 38.4998 29.6425 38.2998 29.7425Z" fill="#231F20"/>
<path id="Vector_94" d="M64.7004 30.6424C64.6004 30.8424 64.5004 31.0424 64.4004 31.2424C64.2004 31.1424 64.0004 31.0424 63.8004 30.9424C63.7004 31.1424 63.6004 31.2424 63.5004 31.4424C63.3004 31.3424 63.1004 31.2424 62.9004 31.1424C63.0004 30.9424 63.1004 30.7424 63.2004 30.5424C63.4004 30.6424 63.6004 30.7424 63.8004 30.8424C63.9004 30.6424 64.0004 30.5424 64.1004 30.3424C64.3004 30.3424 64.5004 30.5424 64.7004 30.6424Z" fill="#231F20"/>
<path id="Vector_95" d="M28.3 30.4425C28.5 30.5425 28.7 30.6425 28.9 30.7425C29 30.5425 29.1 30.4425 29.2 30.2425C29.4 30.3425 29.6 30.4425 29.8 30.5425C29.7 30.7425 29.6 30.9425 29.5 31.1425C29.3 31.0425 29.1 30.9425 28.9 30.8425C28.8 31.0425 28.7 31.1425 28.6 31.3425C28.4 31.2425 28.2 31.1425 28 31.0425C28.1 30.8425 28.2 30.6425 28.3 30.4425Z" fill="#231F20"/>
<path id="Vector_96" d="M52.8998 36.2425C52.6998 36.1425 52.4998 36.0425 52.2998 35.9425C52.3998 35.7425 52.4998 35.5425 52.5998 35.3425C52.7998 35.4425 52.9998 35.5425 53.1998 35.6425C53.2998 35.4425 53.3998 35.3425 53.4998 35.1425C53.6998 35.2425 53.8998 35.3425 54.0998 35.4425C53.9998 35.6425 53.8998 35.8425 53.7998 36.0425C53.5998 35.9425 53.3998 35.8425 53.1998 35.7425C53.0998 35.9425 52.9998 36.0425 52.8998 36.2425Z" fill="#231F20"/>
<path id="Vector_97" d="M66.7998 36.1425C66.5998 36.0425 66.3998 35.9425 66.1998 35.8425C66.0998 36.0425 65.9998 36.1425 65.8998 36.3425C65.6998 36.2425 65.4998 36.1425 65.2998 36.0425C65.3998 35.8425 65.4998 35.6425 65.5998 35.4425C65.7998 35.5425 65.9998 35.6425 66.1998 35.7425C66.2998 35.5425 66.3998 35.4425 66.4998 35.2425C66.6998 35.3425 66.8998 35.4425 67.0998 35.5425C66.9998 35.7425 66.8998 35.9425 66.7998 36.1425Z" fill="#231F20"/>
<path id="Vector_98" d="M23.1998 31.7425C23.0998 31.9425 22.9998 32.0425 22.8998 32.2425C22.6998 32.1425 22.4998 32.0425 22.2998 31.9425C22.3998 31.7425 22.4998 31.5425 22.5998 31.3425C22.8998 31.4425 22.9998 31.5425 23.1998 31.7425C23.2998 31.5425 23.3998 31.3425 23.4998 31.2425C23.6998 31.3425 23.8998 31.4425 24.0998 31.5425C23.9998 31.7425 23.8998 31.9425 23.7998 32.1425C23.5998 31.9425 23.3998 31.8425 23.1998 31.7425Z" fill="#231F20"/>
<path id="Vector_99" d="M15.5 31.5425C15.3 31.4425 15.1 31.3425 14.9 31.2425C14.8 31.4425 14.7 31.5425 14.6 31.7425C14.4 31.6425 14.2 31.5425 14 31.4425C14.1 31.2425 14.2 31.0425 14.3 30.8425C14.5 30.9425 14.7 31.0425 14.9 31.1425C15 30.9425 15.1 30.8425 15.2 30.6425C15.4 30.7425 15.5 30.8425 15.7 30.9425C15.7 30.9425 15.8 31.0425 15.7 31.0425C15.7 31.2425 15.6 31.3425 15.5 31.5425Z" fill="#231F20"/>
<path id="Vector_100" d="M44.2004 30.2425C44.4004 30.3425 44.6004 30.4424 44.8004 30.5424C44.9004 30.3424 45.0004 30.2424 45.1004 30.0424C45.3004 30.1424 45.5004 30.2424 45.7004 30.3424C45.6004 30.5424 45.5004 30.7424 45.4004 30.9424C45.2004 30.8424 45.0004 30.7425 44.8004 30.6425C44.7004 30.8425 44.6004 30.9425 44.5004 31.1425C44.3004 31.0425 44.1004 30.9424 43.9004 30.8424C44.1004 30.6424 44.1004 30.4425 44.2004 30.2425Z" fill="#231F20"/>
<path id="Vector_101" d="M44.4 29.7424C44.9 29.8424 45.2 29.5424 45.7 29.3424C45.4 29.6424 45.0999 29.9424 44.5999 29.9424C44.2999 29.9424 44.2 29.7424 44.4 29.5424C44.5 29.4424 44.5999 29.3424 44.5999 29.2424C44.6999 29.1424 44.9 29.0424 45 28.9424C44.7 28.8424 44.8 28.7424 44.8 28.5424V28.4424C44.8 28.2424 44.8 28.1424 45 28.2424C45.3 28.3424 45.5 28.5424 45.5 28.8424C45.5 29.0424 45.4 29.1424 45.2 29.1424C45.1 29.1424 45 29.1424 45 29.2424C44.9 29.3424 44.6999 29.4424 44.5999 29.5424C44.5999 29.4424 44.5 29.5424 44.4 29.7424C44.4 29.6424 44.4 29.6424 44.4 29.7424ZM45.5999 28.8424C45.5999 28.7424 45.5 28.6424 45.4 28.5424C45.4 28.6424 45.4 28.7424 45.4 28.8424C45.4 28.8424 45.4999 28.8424 45.5999 28.8424ZM44.9 28.6424L45.2 28.7424C45.2 28.6424 45.1999 28.6424 45.0999 28.5424C45.0999 28.5424 45 28.6424 44.9 28.6424Z" fill="#231F20"/>
<path id="Vector_102" d="M15.6001 29.3425C15.3001 29.5425 15.0001 29.7425 14.8001 29.9425V30.0425C14.9001 30.0425 15.0001 30.0425 15.1001 30.0425C15.4001 29.9425 15.8001 29.8425 16.1001 29.7425C15.9001 29.9425 15.6001 30.1425 15.3001 30.2425C15.2001 30.2425 15.0001 30.2425 14.9001 30.2425C14.7001 30.2425 14.7001 30.0425 14.8001 29.9425C14.9001 29.8425 15.0001 29.7425 15.1001 29.6425C15.2001 29.5425 15.3001 29.4425 15.5001 29.3425C15.3001 29.2425 15.3001 29.0425 15.3001 28.9425V28.8425C15.3001 28.6425 15.3001 28.6425 15.5001 28.6425C15.8001 28.6425 16.0001 28.9425 16.1001 29.1425C16.0001 29.3425 16.0001 29.3425 15.6001 29.3425ZM15.9001 29.1425C15.9001 29.0425 15.8001 28.9425 15.7001 28.8425C15.7001 28.9425 15.7001 29.0425 15.7001 29.1425C15.7001 29.1425 15.8001 29.1425 15.9001 29.1425ZM15.3001 28.9425C15.4001 29.0425 15.5001 29.0425 15.5001 29.0425C15.5001 28.9425 15.4001 28.9425 15.4001 28.8425C15.4001 28.8425 15.4001 28.9425 15.3001 28.9425Z" fill="#231F20"/>
<path id="Vector_103" d="M69 35.5424C69 35.8424 68.9 35.9424 68.6 36.0424C68 36.2424 67.4 36.4425 66.8 36.7425C66.7 36.7425 66.6 36.8424 66.5 36.8424C66.6 36.6424 66.5 36.5425 66.7 36.4425C67.5 36.1425 68.2 35.8424 69 35.5424Z" fill="#231F20"/>
<path id="Vector_104" d="M57.1996 35.9424C57.2996 35.8424 57.3996 35.6424 57.5996 35.5424C57.6996 35.4424 57.8996 35.4424 57.9996 35.5424C58.0996 35.6424 58.0996 35.8424 57.9996 35.9424C57.7996 36.2424 57.3996 36.2424 57.0996 36.1424C56.8996 36.0424 56.7996 36.0424 56.6996 36.1424C56.5996 36.2424 56.4996 36.3424 56.3996 36.4424C55.9996 36.8424 55.5996 37.0424 55.0996 37.0424C55.1996 37.0424 55.2996 36.9424 55.3996 36.9424C55.8996 36.7424 56.2996 36.5424 56.5996 36.1424C56.5996 36.0424 56.6996 36.0424 56.6996 36.0424C56.7996 35.7424 56.8996 35.7424 57.1996 35.9424ZM57.8996 35.7424C57.6996 35.6424 57.4996 35.7424 57.3996 35.9424C57.5996 36.0424 57.6996 35.9424 57.8996 35.7424Z" fill="#231F20"/>
<path id="Vector_105" d="M71.0996 27.6424L71.1996 27.7424C71.1996 27.8424 71.0996 27.9424 71.0996 27.9424C70.9996 27.9424 70.9996 27.8424 70.8996 27.8424C70.4996 28.5424 69.7996 28.8424 69.0996 29.1424C69.6996 28.7424 70.2996 28.3424 70.7996 27.7424C70.7996 27.7424 70.6996 27.7424 70.6996 27.6424C70.5996 27.5424 70.3996 27.4424 70.4996 27.2424C70.5996 27.0424 70.6996 26.9424 70.8996 26.8424C70.9996 26.8424 71.0996 26.8424 71.0996 27.0424C71.1996 27.3424 71.0996 27.4424 71.0996 27.6424ZM70.8996 27.5424C70.9996 27.5424 70.9996 27.5424 70.8996 27.5424C70.8996 27.4424 70.8996 27.3424 70.8996 27.2424C70.8996 27.2424 70.7996 27.2424 70.6996 27.2424C70.6996 27.2424 70.6996 27.2424 70.6996 27.3424C70.7996 27.4424 70.8996 27.4424 70.8996 27.5424Z" fill="#231F20"/>
<path id="Vector_106" d="M71.9004 31.0424C71.8004 30.8424 71.4004 30.8424 71.1004 30.9424C71.2004 31.0424 71.3004 31.0424 71.4004 31.0424C71.6004 31.1424 71.8004 31.2424 72.0004 31.3424C72.1004 31.4424 72.2004 31.5425 72.1004 31.6425C72.0004 31.7425 71.9004 31.8425 71.8004 31.7425C71.5004 31.6425 71.2004 31.4424 70.9004 31.3424C70.6004 31.2424 70.6004 31.0424 70.7004 30.8424C71.0004 31.3424 71.6004 31.4425 72.0004 31.6425C72.0004 31.6425 72.0004 31.6424 72.0004 31.5424C71.9004 31.4424 71.9004 31.4424 71.8004 31.3424C71.6004 31.2424 71.4004 31.1424 71.2004 31.0424C71.1004 31.0424 71.0004 30.9424 71.0004 30.8424C71.0004 30.7424 71.1004 30.6425 71.2004 30.6425C71.4004 30.6425 71.6004 30.5424 71.8004 30.5424C72.1004 30.7424 72.1004 30.8424 71.9004 31.0424Z" fill="#231F20"/>
<path id="Vector_107" d="M64.1998 28.9425C63.8998 28.8425 63.8998 28.7425 63.9998 28.4425V28.3425C63.9998 28.1425 63.9998 28.0425 64.1998 28.1425C64.4998 28.2425 64.6998 28.3425 64.6998 28.6425C64.6998 28.8425 64.6998 28.9425 64.3998 28.9425H64.2998C63.8998 29.4425 63.3998 29.8425 62.7998 29.9425C63.2998 29.6425 63.7998 29.3425 64.1998 28.9425ZM64.3998 28.4425V28.7425C64.4998 28.7425 64.4998 28.7425 64.6998 28.7425C64.5998 28.6425 64.4998 28.5425 64.3998 28.4425ZM64.2998 28.6425C64.2998 28.5425 64.2998 28.4425 64.2998 28.4425C64.1998 28.4425 64.1998 28.5425 64.0998 28.6425C64.1998 28.6425 64.1998 28.6425 64.2998 28.6425Z" fill="#231F20"/>
<path id="Vector_108" d="M27.7002 29.9424C28.2002 29.6424 28.7002 29.3424 29.2002 28.8424C29.1002 28.7424 29.0002 28.7424 29.0002 28.6424C29.0002 28.5424 29.0002 28.4424 29.0002 28.3424V28.2424C29.0002 28.0424 29.0002 27.9424 29.3002 28.0424C29.6002 28.1424 29.7002 28.3424 29.8002 28.5424C29.8002 28.7424 29.7002 28.8424 29.5002 28.8424H29.4002C28.9002 29.3424 28.4002 29.7424 27.7002 29.9424ZM29.6002 28.6424C29.6002 28.5424 29.5002 28.4424 29.4002 28.3424V28.6424C29.5002 28.6424 29.6002 28.6424 29.6002 28.6424ZM29.3002 28.5424C29.3002 28.4424 29.3002 28.3424 29.3002 28.3424C29.2002 28.3424 29.2002 28.4424 29.1002 28.5424C29.1002 28.5424 29.2002 28.5424 29.3002 28.5424Z" fill="#231F20"/>
<path id="Vector_109" d="M35.8002 35.2425C35.3002 36.0425 34.6002 36.2425 33.7002 36.4425C33.8002 36.4425 33.8002 36.3425 33.9002 36.3425C34.4002 36.1425 34.8002 35.8425 35.3002 35.6425C35.5002 35.5425 35.6002 35.3425 35.7002 35.1425C35.8002 35.0425 35.8002 35.0425 35.9002 34.9425C36.0002 34.8425 36.1002 34.7425 36.3002 34.8425C36.4002 34.9425 36.4002 35.1425 36.3002 35.2425C36.3002 35.2425 36.2002 35.3425 36.1002 35.3425C36.0002 35.3425 35.9002 35.3425 35.8002 35.2425Z" fill="#231F20"/>
<path id="Vector_110" d="M66.1996 32.7425C66.0996 32.8425 65.9996 33.0425 65.7996 32.9425C65.5996 32.9425 65.5996 32.7425 65.5996 32.4425C65.5996 32.3425 65.5996 32.2425 65.5996 32.0425C65.5996 31.9425 65.6996 31.9425 65.6996 31.8425C65.6996 31.8425 65.6996 31.8425 65.7996 31.8425C65.7996 31.9425 65.7996 32.0425 65.7996 32.0425C65.7996 32.1425 65.7996 32.2425 65.7996 32.3425C65.7996 32.4425 65.8996 32.5425 65.9996 32.5425C66.0996 32.5425 66.2996 32.4425 66.1996 32.2425C66.1996 32.1425 66.1996 32.0425 66.0996 31.9425C66.0996 31.8425 66.0996 31.7425 66.0996 31.7425C66.0996 31.7425 66.0996 31.7425 66.1996 31.7425C66.1996 31.8425 66.1996 31.9425 66.2996 32.0425C66.2996 32.1425 66.2996 32.2425 66.3996 32.3425C66.3996 32.4425 66.5996 32.3425 66.6996 32.3425C66.6996 32.2425 66.6996 32.1425 66.6996 32.1425C66.5996 31.9425 66.5996 31.8425 66.5996 31.6425C66.6996 31.7425 66.6996 31.9425 66.7996 32.0425C66.7996 32.1425 66.7996 32.2425 66.7996 32.3425C66.6996 32.9425 66.3996 33.0425 66.1996 32.7425Z" fill="#231F20"/>
<path id="Vector_111" d="M33.5998 35.6424C33.4998 35.9424 33.0998 36.2424 32.6998 36.1424C32.3998 36.1424 32.2998 35.9424 32.3998 35.6424C32.3998 35.5424 32.4998 35.3425 32.5998 35.2425C32.2998 35.0425 32.2998 34.8424 32.5998 34.6424C32.6998 34.5424 32.7998 34.6424 32.8998 34.5424C32.8998 34.6424 32.8998 34.7425 32.8998 34.7425H32.4998C32.5998 34.9425 32.6998 35.0425 32.8998 34.9425C32.9998 34.9425 33.0998 34.7424 33.1998 34.6424C33.0998 34.7424 32.9998 34.9424 32.8998 35.0424C32.7998 35.1424 32.5998 35.2425 32.4998 35.4425C32.4998 35.5425 32.3998 35.6424 32.4998 35.6424C32.4998 35.7424 32.5998 35.7425 32.6998 35.7425C33.0998 36.0425 33.3998 35.8424 33.5998 35.6424Z" fill="#231F20"/>
<path id="Vector_112" d="M39.3997 30.0424C39.9997 30.4424 40.2997 31.4424 39.9997 32.1424C39.9997 32.0424 39.9997 31.9424 39.9997 31.8424C39.9997 31.3424 39.7997 30.9425 39.4997 30.6425C39.2997 30.4425 39.2997 30.3424 39.3997 30.0424Z" fill="#231F20"/>
<path id="Vector_113" d="M23.5003 28.7425C24.2003 29.2425 24.4003 30.2425 24.1003 30.9425C24.1003 30.7425 24.1003 30.6425 24.1003 30.5425C24.1003 30.0425 24.0003 29.6425 23.6003 29.4425C23.4003 29.2425 23.4003 29.0425 23.5003 28.7425Z" fill="#231F20"/>
<path id="Vector_114" d="M35.4002 30.8425C35.2002 30.7425 35.1002 30.7425 35.1002 30.9425C35.1002 31.1425 35.0002 31.3425 35.0002 31.6425C35.0002 31.6425 35.0002 31.7425 34.9002 31.8425C34.8002 31.6425 34.8002 31.4425 34.7002 31.2425C34.7002 31.1425 34.6002 30.9425 34.4002 30.9425C34.3002 30.9425 34.2002 30.8425 34.2002 30.7425C34.2002 30.5425 34.3002 30.5425 34.5002 30.6425C34.7002 30.8425 34.8002 31.0425 34.9002 31.3425C34.9002 31.1425 35.0002 30.9425 35.0002 30.7425V30.6425C35.0002 30.5425 35.1002 30.4425 35.2002 30.4425C35.5002 30.5425 35.5002 30.6425 35.4002 30.8425Z" fill="#231F20"/>
<path id="Vector_115" d="M44.2 28.2425C44.3 27.9425 44.3 27.7425 44.3 27.5425C44.3 27.4425 44.4 27.3425 44.5 27.3425C44.6 27.4425 44.7 27.5425 44.6 27.6425C44.4 27.5425 44.3 27.5425 44.3 27.7425C44.3 27.9425 44.2 28.1425 44.2 28.3425C44.2 28.4425 44.2 28.4425 44.1 28.5425C44 28.3425 44 28.1425 43.9 27.9425C43.9 27.8425 43.8 27.7425 43.7 27.7425C43.6 27.7425 43.5 27.6425 43.5 27.5425C43.5 27.3425 43.7 27.2425 43.8 27.4425C43.9 27.5425 44 27.7425 44.1 27.8425C44.1 28.0425 44.1 28.1425 44.2 28.2425Z" fill="#231F20"/>
<path id="Vector_116" d="M41.2 31.3425C41.2 31.0425 41.3 30.8425 41.3 30.6425C41.3 30.5425 41.4 30.4425 41.5 30.4425C41.6 30.4425 41.7 30.6425 41.6 30.7425C41.4 30.6425 41.4 30.6425 41.3 30.8425C41.3 31.0425 41.2 31.2425 41.2 31.4425C41.2 31.5425 41.1 31.5425 41.1 31.6425C41 31.4425 40.9 31.2425 40.9 31.0425C40.9 30.9425 40.8 30.8425 40.7 30.9425C40.6 30.9425 40.5 30.8425 40.5 30.8425C40.5 30.7425 40.5 30.6425 40.5 30.5425H40.7C40.8 30.6425 40.9 30.8425 41 30.9425C41.2 31.1425 41.2 31.2425 41.2 31.3425Z" fill="#231F20"/>
<path id="Vector_117" d="M23.3002 26.7425C23.0002 26.5425 23.0002 26.5425 23.0002 26.8425C23.0002 27.0425 22.9002 27.2425 22.9002 27.4425C22.9002 27.5425 22.9002 27.5425 22.8002 27.6425V27.5425C22.7002 27.3425 22.7002 27.2425 22.6002 27.0425C22.6002 26.9425 22.5002 26.8425 22.4002 26.8425C22.2002 26.8425 22.2002 26.6425 22.2002 26.5425C22.3002 26.4425 22.4002 26.3425 22.5002 26.4425C22.6002 26.5425 22.7002 26.7425 22.8002 26.8425C22.8002 26.9425 22.9002 27.0425 22.9002 27.1425C23.0002 26.8425 23.0002 26.6425 23.1002 26.4425C23.1002 26.3425 23.2002 26.2425 23.2002 26.2425C23.3002 26.2425 23.4002 26.3425 23.4002 26.3425C23.4002 26.5425 23.3002 26.6425 23.3002 26.7425Z" fill="#231F20"/>
<path id="Vector_118" d="M14.5998 28.1425C14.5998 27.9425 14.6998 27.7425 14.6998 27.5425V27.4425C14.6998 27.3425 14.7998 27.2425 14.8998 27.2425C14.9998 27.2425 15.0998 27.4425 14.9998 27.5425C14.7998 27.4425 14.6998 27.4425 14.6998 27.7425C14.6998 27.9425 14.6998 28.1425 14.5998 28.2425C14.5998 28.3425 14.4998 28.4425 14.4998 28.5425C14.3998 28.2425 14.2998 28.0425 14.1998 27.8425C14.1998 27.7425 14.0998 27.7425 13.9998 27.7425C13.8998 27.7425 13.7998 27.7425 13.7998 27.6425C13.7998 27.5425 13.7998 27.4425 13.7998 27.3425H13.9998C14.0998 27.4425 14.1998 27.6425 14.2998 27.7425C14.5998 27.9425 14.5998 28.0425 14.5998 28.1425Z" fill="#231F20"/>
<path id="Vector_119" d="M52.1002 29.1424C51.9002 29.0424 51.8002 29.0424 51.8002 29.3424C51.8002 29.5424 51.7002 29.7424 51.7002 30.0424C51.7002 30.0424 51.7002 30.1424 51.6002 30.2424C51.5002 30.0424 51.4002 29.8424 51.4002 29.6424C51.4002 29.5424 51.3002 29.5424 51.2002 29.5424C51.0002 29.5424 50.9002 29.4424 51.0002 29.2424C51.0002 29.1424 51.1002 29.0424 51.2002 29.1424C51.3002 29.2424 51.4002 29.4424 51.5002 29.5424C51.5002 29.6424 51.6002 29.7424 51.6002 29.8424C51.6002 29.6424 51.7002 29.4424 51.7002 29.2424C51.7002 29.1424 51.7002 29.1424 51.7002 29.0424C51.7002 28.9424 51.8002 28.8424 51.9002 28.8424C52.1002 28.8424 52.1002 28.9424 52.1002 29.1424Z" fill="#231F20"/>
<path id="Vector_120" d="M19.4996 31.3425C19.5996 31.1425 19.5996 30.8425 19.6996 30.6425C19.6996 30.5425 19.7996 30.4425 19.8996 30.4425C19.9996 30.5425 20.0996 30.6425 19.9996 30.7425C19.6996 30.6425 19.6996 30.6425 19.6996 30.9425C19.6996 31.1425 19.5996 31.3425 19.5996 31.5425C19.5996 31.6425 19.5996 31.6425 19.4996 31.7425C19.3996 31.5425 19.2996 31.3425 19.2996 31.1425C19.2996 31.0425 19.1996 30.9425 19.0996 31.0425C18.8996 31.0425 18.7996 30.8425 18.8996 30.7425C18.8996 30.6425 18.9996 30.6425 19.0996 30.6425C19.1996 30.7425 19.2996 30.8425 19.3996 30.9425C19.3996 31.0425 19.3996 31.1425 19.4996 31.3425Z" fill="#231F20"/>
<path id="Vector_121" d="M42.5999 35.6425C42.3999 35.9425 42.1999 36.2425 41.8999 36.2425C41.5999 36.2425 41.4999 36.0425 41.5999 35.8425C41.6999 35.6425 41.7999 35.4425 41.9999 35.2425C41.7999 35.2425 41.6999 35.2425 41.4999 35.3425C41.3999 35.1425 41.7999 35.0425 42.1999 35.1425C42.1999 35.2425 42.0999 35.2425 42.0999 35.3425C41.9999 35.4425 41.8999 35.5425 41.7999 35.6425C41.7999 35.7425 41.6999 35.8425 41.6999 35.8425C41.6999 35.9425 41.8999 35.9425 41.8999 35.9425C42.0999 35.9425 42.1999 35.8425 42.3999 35.7425C42.3999 35.7425 42.4999 35.6425 42.5999 35.6425Z" fill="#231F20"/>
<path id="Vector_122" d="M40.5998 34.7425C40.7998 34.8425 40.9998 34.9425 41.1998 35.0425C41.0998 35.2425 40.9998 35.4425 40.8998 35.6425C40.6998 35.5425 40.4998 35.4425 40.2998 35.3425C40.3998 35.1425 40.4998 34.9425 40.5998 34.7425Z" fill="#231F20"/>
<path id="Vector_123" d="M52.9002 32.4424C52.9002 32.5424 52.9002 32.6424 52.9002 32.7424C52.9002 32.8424 52.8002 32.9424 52.7002 32.9424C52.6002 32.9424 52.5002 32.8424 52.5002 32.8424C52.5002 32.7424 52.5002 32.5424 52.5002 32.4424C52.5002 32.2424 52.6002 32.0424 52.6002 31.8424C52.7002 31.5424 52.6002 31.3424 52.4002 31.1424C52.3002 31.0424 52.3002 30.9424 52.4002 30.8424C52.7002 31.0424 52.8002 31.4424 52.7002 31.9424C52.7002 32.1424 52.6002 32.3424 52.6002 32.5424C52.6002 32.6424 52.6002 32.6424 52.6002 32.7424L52.7002 32.8424C52.8002 32.6424 52.8002 32.6424 52.9002 32.4424Z" fill="#231F20"/>
<path id="Vector_124" d="M67.5 30.3424C67.5 30.5424 67.4 30.6424 67.4 30.8424C67.4 30.9424 67.3 31.0424 67.4 31.1424C67.4 31.2424 67.5 31.3424 67.6 31.3424C67.7 31.3424 67.7 31.2424 67.8 31.2424V31.1424C67.8 31.1424 67.8 31.1424 67.9 31.1424C67.8 31.2424 67.8 31.4424 67.7 31.5424C67.6 31.6424 67.4 31.6424 67.4 31.5424C67.3 31.4424 67.3 31.2424 67.3 31.1424C67.2 30.9424 67.3 30.6424 67.5 30.3424C67.4 30.3424 67.4 30.3424 67.5 30.3424Z" fill="#231F20"/>
<path id="Vector_125" d="M52.1004 36.0425C52.1004 36.1425 52.0004 36.3425 52.0004 36.4425C51.9004 36.6425 51.7004 36.6425 51.6004 36.4425C51.5004 36.2425 51.5004 36.1425 51.6004 35.9425C51.7004 35.7425 51.8004 35.4425 51.9004 35.2425C51.9004 35.3425 51.8004 35.5425 51.8004 35.6425C51.8004 35.7425 51.7004 35.9425 51.7004 36.0425C51.7004 36.1425 51.7004 36.2425 51.9004 36.2425C51.9004 36.2425 52.0004 36.1425 52.1004 36.0425C52.0004 36.1425 52.0004 36.0425 52.1004 36.0425Z" fill="#231F20"/>
<path id="Vector_126" d="M39.2996 27.1425C39.2996 27.2425 39.1996 27.4425 39.1996 27.5425C39.1996 27.6425 39.0996 27.8425 39.0996 27.9425C39.0996 28.0425 39.0996 28.2425 39.2996 28.2425C39.3996 28.2425 39.3996 28.1425 39.4996 28.0425C39.4996 28.0425 39.4996 28.0425 39.5996 27.9425C39.5996 28.0425 39.5996 28.1425 39.4996 28.2425C39.3996 28.3425 39.2996 28.4425 39.2996 28.4425C39.1996 28.4425 39.0996 28.3425 39.0996 28.2425C39.0996 28.1425 39.0996 27.9425 39.0996 27.8425C39.0996 27.5425 39.1996 27.3425 39.2996 27.1425Z" fill="#231F20"/>
<path id="Vector_127" d="M49.6 32.9425C49.6 33.0425 49.5 33.2424 49.5 33.3424C49.4 33.5424 49.2 33.5424 49.1 33.3424C49 33.2424 49 33.0425 49 32.9425C49.1 32.6425 49.2 32.3424 49.3 32.0424C49.3 32.0424 49.3 32.0424 49.4 32.0424C49.4 32.2424 49.3 32.3424 49.3 32.5424C49.3 32.6424 49.2 32.7424 49.2 32.8424C49.2 32.9424 49.3 33.0424 49.4 33.0424C49.3 33.1424 49.4 33.1425 49.6 32.9425C49.5 33.0425 49.5 32.9425 49.6 32.9425Z" fill="#231F20"/>
<path id="Vector_128" d="M23.0998 29.1425C23.0998 29.2425 22.9998 29.4425 22.9998 29.5425C22.9998 29.6425 22.8998 29.8425 22.8998 29.9425C22.8998 30.0425 22.9998 30.1425 23.0998 30.1425C23.1998 30.0425 23.1998 30.0425 23.2998 29.9425C23.2998 29.9425 23.2998 29.8425 23.3998 29.8425C23.3998 29.9425 23.3998 30.0425 23.3998 30.0425C23.3998 30.1425 23.2998 30.3425 23.0998 30.3425C22.8998 30.3425 22.8998 30.1425 22.7998 30.0425C22.7998 29.9425 22.7998 29.9425 22.7998 29.8425C22.7998 29.6425 22.8998 29.4425 23.0998 29.1425C22.9998 29.1425 22.9998 29.1425 23.0998 29.1425Z" fill="#231F20"/>
<path id="Vector_129" d="M56.4996 30.3424C56.4996 30.5424 56.3996 30.6424 56.3996 30.8424C56.3996 30.9424 56.2996 31.0424 56.2996 31.1424C56.2996 31.2424 56.3996 31.3424 56.4996 31.3424C56.5996 31.2424 56.5996 31.2424 56.6996 31.1424C56.6996 31.1424 56.6996 31.0424 56.7996 31.0424C56.7996 31.1424 56.6996 31.3424 56.5996 31.4424C56.4996 31.6424 56.2996 31.6424 56.1996 31.4424C56.0996 31.3424 56.0996 31.1424 56.0996 31.0424C56.1996 30.9424 56.2996 30.6424 56.4996 30.3424Z" fill="#231F20"/>
<path id="Vector_130" d="M17.2 33.5425C17.2 33.6425 17.1 33.8425 17.1 33.9425C17 34.1425 16.8 34.1425 16.7 33.9425C16.6 33.7425 16.6 33.6425 16.7 33.4425C16.8 33.1425 16.9 32.9425 17 32.7425C17 32.8425 16.9 33.0425 16.9 33.1425C16.9 33.2425 16.8 33.4425 16.8 33.5425C16.8 33.6425 16.8 33.7425 17 33.8425C17 33.7425 17 33.6425 17.2 33.5425C17.1 33.5425 17.1 33.5425 17.2 33.5425Z" fill="#231F20"/>
<path id="Vector_131" d="M32.9002 31.6424C32.9002 31.7424 32.8002 31.9424 32.8002 32.0424C32.7002 32.2424 32.5002 32.2424 32.4002 32.0424C32.3002 31.9424 32.3002 31.7424 32.4002 31.5424C32.5002 31.2424 32.6002 31.0424 32.7002 30.8424C32.7002 31.0424 32.6002 31.1424 32.6002 31.3424C32.6002 31.4424 32.5002 31.5424 32.5002 31.6424C32.5002 31.7424 32.5002 31.8424 32.7002 31.8424C32.6002 31.9424 32.7002 31.7424 32.9002 31.6424C32.8002 31.7424 32.8002 31.6424 32.9002 31.6424Z" fill="#231F20"/>
<path id="Vector_132" d="M18.6001 35.8425C18.6001 35.9425 18.5001 36.0425 18.5001 36.1425C18.5001 36.2425 18.4001 36.2425 18.3001 36.2425C18.2001 36.2425 18.1001 36.1425 18.1001 36.1425C18.1001 35.9425 18.0001 35.8425 18.1001 35.6425C18.2001 35.4425 18.3001 35.1425 18.4001 34.9425C18.4001 35.0425 18.3001 35.1425 18.3001 35.2425C18.3001 35.4425 18.2001 35.5425 18.2001 35.7425C18.2001 35.8425 18.2001 35.9425 18.3001 36.0425C18.5001 36.0425 18.5001 35.9425 18.6001 35.8425Z" fill="#231F20"/>
<path id="Vector_133" d="M74 38.4425H14V38.7425H74V38.4425Z" fill="#231F20"/>
<path id="Vector_134" d="M14 40.1425H16.2V40.8425H14.8V41.6425H16.1V42.3425H14.8V43.8425H14V40.1425Z" fill="#231F20"/>
<path id="Vector_135" d="M17.4998 42.8424L17.1998 43.7425H16.2998L17.3998 40.0424H18.4998L19.5998 43.7425H18.6998L18.3998 42.8424H17.4998ZM18.3998 42.2425L18.1998 41.4425C18.0998 41.2425 18.0998 40.9425 17.9998 40.7425C17.8998 40.9425 17.8998 41.2425 17.7998 41.4425L17.5998 42.2425H18.3998Z" fill="#231F20"/>
<path id="Vector_136" d="M22.8 43.7425C22.6 43.8425 22.3 43.9425 21.9 43.9425C20.6 43.9425 20 43.1425 20 42.1425C20 40.8425 20.9 40.2425 22 40.2425C22.4 40.2425 22.8 40.3425 22.9 40.4425L22.7 41.1425C22.5 41.0425 22.3 41.0425 22 41.0425C21.3 41.0425 20.8 41.4425 20.8 42.2425C20.8 42.9425 21.2 43.4425 22 43.4425C22.2 43.4425 22.5 43.3425 22.7 43.3425L22.8 43.7425Z" fill="#231F20"/>
<path id="Vector_137" d="M24.3 40.1425V42.2425C24.3 42.8425 24.5 43.2425 25 43.2425C25.4 43.2425 25.7 42.9425 25.7 42.2425V40.1425H26.5V42.2425C26.5 43.3425 25.9 43.9425 25 43.9425C24.1 43.9425 23.5 43.4425 23.5 42.2425V40.2425H24.3V40.1425Z" fill="#231F20"/>
<path id="Vector_138" d="M27.2998 40.1425H28.0998V43.1425H29.5998V43.8425H27.2998V40.1425Z" fill="#231F20"/>
<path id="Vector_139" d="M30.3004 40.8425H29.4004V40.1425H32.2004V40.8425H31.2004V43.8425H30.3004V40.8425Z" fill="#231F20"/>
<path id="Vector_140" d="M33.6004 43.8425V42.3425L32.4004 40.1425H33.3004L33.7004 41.0425C33.8004 41.3425 33.9004 41.5425 34.0004 41.7425C34.1004 41.5425 34.2004 41.3425 34.3004 41.0425L34.7004 40.1425H35.6004L34.4004 42.2425V43.7425H33.6004V43.8425Z" fill="#231F20"/>
<path id="Vector_141" d="M40.5996 41.9425C40.5996 43.1425 39.8996 43.8424 38.7996 43.8424C37.6996 43.8424 37.0996 43.0425 37.0996 41.9425C37.0996 40.8425 37.7996 40.0424 38.8996 40.0424C39.9996 40.0424 40.5996 40.9425 40.5996 41.9425ZM37.8996 41.9425C37.8996 42.6425 38.1996 43.1424 38.7996 43.1424C39.3996 43.1424 39.6996 42.6425 39.6996 41.9425C39.6996 41.2425 39.3996 40.7425 38.7996 40.7425C38.2996 40.7425 37.8996 41.2425 37.8996 41.9425Z" fill="#231F20"/>
<path id="Vector_142" d="M41.2002 40.1425H43.5002V40.8425H42.1002V41.6425H43.4002V42.3425H42.1002V43.8425H41.2002V40.1425Z" fill="#231F20"/>
<path id="Vector_143" d="M45.2998 40.2425C45.5998 40.2425 45.8998 40.1425 46.3998 40.1425C46.8998 40.1425 47.2998 40.2425 47.4998 40.4425C47.6998 40.6425 47.8998 40.9425 47.8998 41.2425C47.8998 41.6425 47.7998 41.9425 47.5998 42.1425C47.2998 42.4425 46.8998 42.5425 46.3998 42.5425C46.2998 42.5425 46.1998 42.5425 46.0998 42.5425V43.8425H45.2998V40.2425ZM46.0998 41.8425C46.1998 41.8425 46.2998 41.8425 46.3998 41.8425C46.7998 41.8425 47.0998 41.6425 47.0998 41.2425C47.0998 40.9425 46.8998 40.7425 46.4998 40.7425C46.2998 40.7425 46.1998 40.7425 46.1998 40.7425V41.8425H46.0998Z" fill="#231F20"/>
<path id="Vector_144" d="M49.3996 40.1425V41.5425H50.7996V40.1425H51.5996V43.8425H50.7996V42.2425H49.3996V43.8425H48.5996V40.1425H49.3996Z" fill="#231F20"/>
<path id="Vector_145" d="M53.2996 42.8424L52.9996 43.7425H52.0996L53.1996 40.0424H54.2996L55.3996 43.7425H54.4996L54.1996 42.8424H53.2996ZM54.1996 42.2425L53.9996 41.4425C53.8996 41.2425 53.8996 40.9425 53.7996 40.7425C53.6996 40.9425 53.6996 41.2425 53.5996 41.4425L53.3996 42.2425H54.1996Z" fill="#231F20"/>
<path id="Vector_146" d="M56.0996 40.2425C56.3996 40.2425 56.7996 40.1425 57.1996 40.1425C57.6996 40.1425 58.0996 40.2425 58.3996 40.4425C58.5996 40.6425 58.6996 40.8425 58.6996 41.2425C58.6996 41.7425 58.3996 42.0425 58.0996 42.1425C58.3996 42.2425 58.4996 42.4425 58.5996 42.8425C58.6996 43.2425 58.7996 43.7425 58.8996 43.8425H58.0996C57.9996 43.7425 57.9996 43.4425 57.7996 42.9425C57.6996 42.4425 57.4996 42.3425 57.1996 42.3425H56.9996V43.7425H56.1996V40.2425H56.0996ZM56.8996 41.7425H57.1996C57.5996 41.7425 57.8996 41.5425 57.8996 41.2425C57.8996 40.9425 57.6996 40.7425 57.2996 40.7425C57.0996 40.7425 56.9996 40.7425 56.8996 40.7425V41.7425Z" fill="#231F20"/>
<path id="Vector_147" d="M62.6 42.4425C62.6 42.0425 62.6 41.4425 62.6 40.9425C62.5 41.4425 62.3 41.9425 62.2 42.3425L61.8 43.7425H61.2L60.8 42.3425C60.7 41.9425 60.6 41.3425 60.5 40.9425C60.5 41.4425 60.5 42.0425 60.4 42.4425L60.3 43.8425H59.5L59.7 40.1425H60.8L61.2 41.3425C61.3 41.7425 61.4 42.2425 61.5 42.6425C61.6 42.2425 61.7 41.7425 61.8 41.3425L62.2 40.1425H63.3L63.5 43.8425H62.7L62.6 42.4425Z" fill="#231F20"/>
<path id="Vector_148" d="M64.9998 42.8424L64.6998 43.7425H63.7998L64.8998 40.0424H65.9998L67.0998 43.7425H66.1998L65.8998 42.8424H64.9998ZM65.8998 42.2425L65.6998 41.4425C65.5998 41.2425 65.5998 40.9425 65.4998 40.7425C65.3998 40.9425 65.3998 41.2425 65.2998 41.4425L65.0998 42.2425H65.8998Z" fill="#231F20"/>
<path id="Vector_149" d="M70.3996 43.7425C70.1996 43.8425 69.8996 43.9425 69.4996 43.9425C68.1996 43.9425 67.5996 43.1425 67.5996 42.1425C67.5996 40.8425 68.4996 40.2425 69.5996 40.2425C69.9996 40.2425 70.3996 40.3425 70.4996 40.4425L70.2996 41.1425C70.0996 41.0425 69.8996 41.0425 69.5996 41.0425C68.8996 41.0425 68.3996 41.4425 68.3996 42.2425C68.3996 42.9425 68.7996 43.4425 69.5996 43.4425C69.7996 43.4425 70.0996 43.3425 70.2996 43.3425L70.3996 43.7425Z" fill="#231F20"/>
<path id="Vector_150" d="M71.9002 43.8425V42.3425L70.7002 40.1425H71.6002L72.0002 41.0425C72.1002 41.3425 72.2002 41.5425 72.3002 41.7425C72.4002 41.5425 72.5002 41.3425 72.6002 41.0425L73.0002 40.1425H73.9002L72.7002 42.2425V43.7425H71.9002V43.8425Z" fill="#231F20"/>
<path id="Vector_151" d="M23.0998 50.2425C22.8998 50.3425 22.5998 50.4425 22.1998 50.4425C20.8998 50.4425 20.2998 49.6425 20.2998 48.6425C20.2998 47.3425 21.1998 46.7425 22.2998 46.7425C22.6998 46.7425 23.0998 46.8425 23.1998 46.9425L22.9998 47.6425C22.7998 47.5425 22.5998 47.5425 22.2998 47.5425C21.5998 47.5425 21.0998 47.9425 21.0998 48.7425C21.0998 49.4425 21.4998 49.9425 22.2998 49.9425C22.4998 49.9425 22.7998 49.8425 22.9998 49.8425L23.0998 50.2425Z" fill="#231F20"/>
<path id="Vector_152" d="M24.7 49.4425L24.4 50.3425H23.5L24.6 46.6425H25.7L26.8 50.3425H25.9L25.6 49.4425H24.7ZM25.6 48.7425L25.4 47.9425C25.3 47.7425 25.3 47.4425 25.2 47.2425C25.1 47.4425 25.1 47.7425 25 47.9425L24.8 48.7425H25.6Z" fill="#231F20"/>
<path id="Vector_153" d="M28.3 46.6425H27.5V50.3425H28.3V46.6425Z" fill="#231F20"/>
<path id="Vector_154" d="M29.0996 46.7425C29.3996 46.7425 29.7996 46.6425 30.1996 46.6425C30.6996 46.6425 31.0996 46.7425 31.3996 46.9425C31.5996 47.1425 31.6996 47.3425 31.6996 47.7425C31.6996 48.2425 31.3996 48.5425 31.0996 48.6425C31.3996 48.7425 31.4996 48.9425 31.5996 49.3425C31.6996 49.7425 31.7996 50.2425 31.8996 50.3425H31.0996C30.9996 50.2425 30.9996 49.9425 30.7996 49.4425C30.6996 48.9425 30.4996 48.8425 30.1996 48.8425H29.9996V50.2425H29.1996V46.7425H29.0996ZM29.9996 48.3425H30.2996C30.6996 48.3425 30.9996 48.1425 30.9996 47.8425C30.9996 47.5425 30.7996 47.3425 30.3996 47.3425C30.1996 47.3425 30.0996 47.3425 29.9996 47.3425V48.3425Z" fill="#231F20"/>
<path id="Vector_155" d="M35.7998 48.4425C35.7998 49.6425 35.0998 50.3424 33.9998 50.3424C32.8998 50.3424 32.2998 49.5425 32.2998 48.4425C32.2998 47.3425 32.9998 46.5424 34.0998 46.5424C35.1998 46.6424 35.7998 47.4425 35.7998 48.4425ZM33.1998 48.5424C33.1998 49.2424 33.4998 49.7425 34.0998 49.7425C34.6998 49.7425 34.9998 49.2424 34.9998 48.5424C34.9998 47.8424 34.6998 47.3424 34.0998 47.3424C33.4998 47.2424 33.1998 47.8424 33.1998 48.5424Z" fill="#231F20"/>
<path id="Vector_156" d="M38.3996 46.6425V48.7425C38.3996 49.3425 38.5996 49.7425 39.0996 49.7425C39.4996 49.7425 39.7996 49.4425 39.7996 48.7425V46.6425H40.5996V48.7425C40.5996 49.8425 39.9996 50.4425 39.0996 50.4425C38.1996 50.4425 37.5996 49.9425 37.5996 48.7425V46.7425H38.3996V46.6425Z" fill="#231F20"/>
<path id="Vector_157" d="M41.4004 50.3425V46.6425H42.4004L43.2004 47.9425C43.4004 48.3425 43.6004 48.7425 43.8004 49.2425C43.7004 48.7425 43.7004 48.2425 43.7004 47.7425V46.6425H44.5004V50.3425H43.6004L42.8004 48.9425C42.6004 48.5425 42.3004 48.0425 42.2004 47.6425C42.2004 48.1425 42.2004 48.6425 42.2004 49.2425V50.3425H41.4004Z" fill="#231F20"/>
<path id="Vector_158" d="M46.0002 46.6425H45.2002V50.3425H46.0002V46.6425Z" fill="#231F20"/>
<path id="Vector_159" d="M47.7996 50.3424L46.5996 46.6424H47.4996L47.8996 48.1424C47.9996 48.5424 48.0996 49.0425 48.1996 49.4425C48.2996 49.0425 48.3996 48.5424 48.4996 48.1424L48.9996 46.5424H49.8996L48.6996 50.2425H47.7996V50.3424Z" fill="#231F20"/>
<path id="Vector_160" d="M52.7 48.7425H51.3V49.6425H52.8V50.3425H50.5V46.6425H52.7V47.3425H51.3V48.1425H52.7V48.7425Z" fill="#231F20"/>
<path id="Vector_161" d="M53.5 46.7425C53.8 46.7425 54.2 46.6425 54.6 46.6425C55.1 46.6425 55.5 46.7425 55.8 46.9425C56 47.1425 56.1 47.3425 56.1 47.7425C56.1 48.2425 55.8 48.5425 55.5 48.6425C55.8 48.7425 55.9 48.9425 56 49.3425C56.1 49.7425 56.2 50.2425 56.3 50.3425H55.5C55.4 50.2425 55.4 49.9425 55.2 49.4425C55.1 48.9425 54.9 48.8425 54.6 48.8425H54.4V50.2425H53.6V46.7425H53.5ZM54.3 48.3425H54.6C55 48.3425 55.3 48.1425 55.3 47.8425C55.3 47.5425 55.1 47.3425 54.7 47.3425C54.5 47.3425 54.4 47.3425 54.3 47.3425V48.3425Z" fill="#231F20"/>
<path id="Vector_162" d="M56.8002 49.4425C57.0002 49.5425 57.4002 49.6424 57.7002 49.6424C58.1002 49.6424 58.3002 49.4425 58.3002 49.2425C58.3002 49.0425 58.1002 48.8425 57.7002 48.7425C57.1002 48.5425 56.7002 48.2424 56.7002 47.6424C56.7002 47.0424 57.2002 46.5424 58.1002 46.5424C58.5002 46.5424 58.8002 46.6425 59.0002 46.7425L58.8002 47.4425C58.7002 47.3425 58.4002 47.2425 58.0002 47.2425C57.6002 47.2425 57.5002 47.4424 57.5002 47.6424C57.5002 47.8424 57.7002 47.9424 58.2002 48.1424C58.8002 48.3424 59.2002 48.7425 59.2002 49.2425C59.2002 49.8425 58.7002 50.3424 57.7002 50.3424C57.3002 50.3424 56.9002 50.2424 56.7002 50.1424L56.8002 49.4425Z" fill="#231F20"/>
<path id="Vector_163" d="M60.7004 46.6425H59.9004V50.3425H60.7004V46.6425Z" fill="#231F20"/>
<path id="Vector_164" d="M62.2002 47.3425H61.2002V46.6425H64.1002V47.3425H63.1002V50.3425H62.2002V47.3425Z" fill="#231F20"/>
<path id="Vector_165" d="M65.4998 50.3425V48.8425L64.2998 46.6425H65.1998L65.5998 47.5425C65.6998 47.8425 65.7998 48.0425 65.8998 48.2425C65.9998 48.0425 66.0998 47.8425 66.1998 47.5425L66.5998 46.6425H67.4998L66.2998 48.7425V50.2425H65.4998V50.3425Z" fill="#231F20"/>
</g>
</svg>
