<svg width="668" height="791" viewBox="0 0 668 791" fill="none" xmlns="http://www.w3.org/2000/svg">
<path d="M127 267.651C127 260.871 130.127 254.469 135.474 250.301L320.474 106.08C328.426 99.8813 339.574 99.8813 347.526 106.08L532.526 250.301C537.873 254.469 541 260.871 541 267.651V522.349C541 529.129 537.873 535.531 532.526 539.699L347.526 683.92C339.574 690.119 328.426 690.119 320.474 683.92L135.474 539.699C130.126 535.531 127 529.129 127 522.349V267.651Z" stroke="#042A37" stroke-width="4"/>
<mask id="mask0_749_41651" style="mask-type:luminance" maskUnits="userSpaceOnUse" x="229" y="290" width="209" height="210">
<path d="M333.763 290.529C319.705 290.529 306.047 293.285 293.187 298.716C280.767 303.948 269.624 311.496 260.039 321.041C250.454 330.626 242.946 341.769 237.714 354.189C232.283 367.049 229.527 380.707 229.527 394.765C229.527 408.823 232.283 422.482 237.714 435.341C242.986 447.762 250.494 458.904 260.039 468.489C269.624 478.074 280.767 485.582 293.187 490.814C306.047 496.245 319.705 499.001 333.763 499.001C347.821 499.001 361.48 496.245 374.339 490.814C386.76 485.582 397.902 478.034 407.487 468.489C417.072 458.904 424.58 447.762 429.812 435.341C435.243 422.482 437.999 408.823 437.999 394.765C437.999 385.779 436.841 376.873 434.604 368.247C434.165 366.49 432.368 365.451 430.611 365.931C428.853 366.37 427.815 368.167 428.294 369.924C430.411 377.992 431.489 386.338 431.489 394.765C431.489 448.68 387.638 492.531 333.723 492.531C279.808 492.531 235.957 448.68 235.957 394.765C235.957 340.85 279.808 296.999 333.723 296.999C341.751 296.999 349.738 297.958 357.446 299.915C359.203 300.354 360.96 299.276 361.4 297.558C361.839 295.801 360.761 294.044 359.043 293.604C350.816 291.568 342.31 290.529 333.763 290.529Z" fill="white"/>
</mask>
<g mask="url(#mask0_749_41651)">
<path d="M333.766 186.254L542.278 394.806L333.766 603.317L125.215 394.806L333.766 186.254Z" fill="#35C5E8"/>
</g>
<mask id="mask1_749_41651" style="mask-type:luminance" maskUnits="userSpaceOnUse" x="261" y="322" width="145" height="145">
<path d="M305.807 328.669C297.261 332.303 289.593 337.455 283.003 344.045C276.413 350.635 271.222 358.302 267.627 366.849C263.873 375.715 261.996 385.1 261.996 394.765C261.996 404.47 263.913 413.855 267.627 422.681C271.262 431.228 276.413 438.896 283.003 445.485C289.593 452.075 297.261 457.267 305.807 460.861C314.673 464.615 324.058 466.492 333.723 466.492C343.388 466.492 352.813 464.575 361.639 460.861C370.186 457.267 377.854 452.075 384.443 445.485C391.033 438.896 396.225 431.228 399.819 422.681C403.573 413.815 405.45 404.43 405.45 394.765C405.45 388.774 404.691 382.824 403.254 377.073C402.814 375.316 401.057 374.277 399.3 374.717C397.543 375.156 396.504 376.913 396.944 378.67C398.262 383.902 398.94 389.294 398.94 394.765C398.94 430.748 369.667 460.022 333.683 460.022C297.7 460.022 268.426 430.748 268.426 394.765C268.426 358.782 297.7 329.508 333.683 329.508C339.035 329.508 344.346 330.147 349.458 331.425C351.216 331.864 352.973 330.786 353.412 329.068C353.851 327.311 352.773 325.554 351.056 325.115C345.425 323.717 339.554 322.998 333.683 322.998C324.058 323.038 314.673 324.915 305.807 328.669Z" fill="white"/>
</mask>
<g mask="url(#mask1_749_41651)">
<path d="M333.766 251.271L477.26 394.805L333.766 538.299L190.232 394.805L333.766 251.271Z" fill="#35C5E8"/>
</g>
<mask id="mask2_749_41651" style="mask-type:luminance" maskUnits="userSpaceOnUse" x="293" y="354" width="82" height="82">
<path d="M305.285 366.329C297.697 373.917 293.504 384.021 293.504 394.804C293.504 405.547 297.697 415.652 305.285 423.28C312.873 430.868 322.977 435.061 333.761 435.061C344.504 435.061 354.608 430.868 362.236 423.28C369.824 415.691 374.017 405.587 374.017 394.804C374.017 391.37 373.578 387.935 372.739 384.66C372.3 382.903 370.503 381.865 368.785 382.344C367.028 382.783 365.99 384.58 366.469 386.298C367.188 389.053 367.547 391.929 367.547 394.804C367.547 413.415 352.411 428.551 333.8 428.551C315.19 428.551 300.054 413.415 300.054 394.804C300.054 376.194 315.19 361.058 333.8 361.058C336.556 361.058 339.272 361.377 341.908 362.016C343.665 362.455 345.422 361.377 345.861 359.62C346.301 357.863 345.222 356.105 343.465 355.666C340.31 354.907 337.075 354.508 333.8 354.508C322.977 354.548 312.873 358.741 305.285 366.329Z" fill="white"/>
</mask>
<g mask="url(#mask2_749_41651)">
<path d="M333.765 314.291L414.238 394.804L333.765 475.278L253.252 394.804L333.765 314.291Z" fill="#35C5E8"/>
</g>
<mask id="mask3_749_41651" style="mask-type:luminance" maskUnits="userSpaceOnUse" x="360" y="297" width="71" height="71">
<path d="M370.75 357.584L368.313 339.612L399.025 308.901L401.861 323.558C402.14 325.035 403.298 326.194 404.816 326.513L419.473 329.349L388.761 360.06L370.75 357.584ZM398.706 298.637L361.724 335.619C360.885 336.457 360.526 337.616 360.685 338.734L363.761 361.338C364 362.976 365.278 364.294 366.956 364.533L389.56 367.608C389.72 367.648 389.879 367.648 390.079 367.648C391.078 367.648 391.996 367.249 392.715 366.57L429.697 329.588C430.655 328.63 431.015 327.192 430.615 325.874C430.216 324.556 429.098 323.558 427.78 323.318L408.73 319.604L405.016 300.554C404.736 299.196 403.778 298.118 402.46 297.718C402.1 297.599 401.741 297.559 401.381 297.559C400.383 297.559 399.424 297.958 398.706 298.637Z" fill="white"/>
</mask>
<g mask="url(#mask3_749_41651)">
<path d="M395.748 262.334L466.038 332.623L395.748 402.913L325.459 332.623L395.748 262.334Z" fill="#35C5E8"/>
</g>
<mask id="mask4_749_41651" style="mask-type:luminance" maskUnits="userSpaceOnUse" x="329" y="357" width="43" height="43">
<path d="M364.721 358.303L330.096 392.928C328.658 394.366 328.658 396.722 330.096 398.2C330.815 398.919 331.773 399.278 332.732 399.278C333.69 399.278 334.649 398.919 335.368 398.2L369.993 363.575C371.431 362.137 371.431 359.781 369.993 358.303C369.274 357.584 368.316 357.225 367.357 357.225C366.399 357.225 365.48 357.584 364.721 358.303Z" fill="white"/>
</mask>
<g mask="url(#mask4_749_41651)">
<path d="M350.062 335.857L392.475 378.271L350.062 420.644L307.648 378.271L350.062 335.857Z" fill="#35C5E8"/>
</g>
</svg>
