<svg width="668" height="791" viewBox="0 0 668 791" fill="none" xmlns="http://www.w3.org/2000/svg">
<path d="M124.693 255.536L124.5 255.686V255.93V534.07V534.314L124.693 534.464L333.693 697.394L334 697.634L334.307 697.394L543.307 534.464L543.5 534.314V534.07V255.93V255.686L543.307 255.536L334.307 92.6055L334 92.3659L333.693 92.6055L124.693 255.536Z" stroke="url(#paint0_linear_270_259)"/>
<mask id="mask0_270_259" style="mask-type:luminance" maskUnits="userSpaceOnUse" x="229" y="290" width="209" height="209">
<path d="M333.763 290.528C319.705 290.528 306.047 293.284 293.187 298.715C280.767 303.947 269.624 311.495 260.039 321.04C250.454 330.625 242.946 341.768 237.714 354.188C232.283 367.048 229.527 380.706 229.527 394.764C229.527 408.822 232.283 422.481 237.714 435.34C242.986 447.761 250.494 458.903 260.039 468.488C269.624 478.073 280.767 485.581 293.187 490.813C306.047 496.244 319.705 499 333.763 499C347.821 499 361.48 496.244 374.339 490.813C386.76 485.581 397.902 478.033 407.487 468.488C417.072 458.903 424.58 447.761 429.812 435.34C435.243 422.481 437.999 408.822 437.999 394.764C437.999 385.778 436.841 376.872 434.604 368.246C434.165 366.489 432.368 365.45 430.611 365.93C428.853 366.369 427.815 368.166 428.294 369.923C430.411 377.991 431.489 386.337 431.489 394.764C431.489 448.679 387.638 492.53 333.723 492.53C279.808 492.53 235.957 448.679 235.957 394.764C235.957 340.849 279.808 296.998 333.723 296.998C341.751 296.998 349.738 297.957 357.446 299.914C359.203 300.353 360.96 299.275 361.4 297.557C361.839 295.8 360.761 294.043 359.043 293.603C350.816 291.567 342.31 290.528 333.763 290.528Z" fill="white"/>
</mask>
<g mask="url(#mask0_270_259)">
<path d="M333.766 186.252L542.278 394.804L333.766 603.316L125.215 394.804L333.766 186.252Z" fill="url(#paint1_linear_270_259)"/>
</g>
<mask id="mask1_270_259" style="mask-type:luminance" maskUnits="userSpaceOnUse" x="261" y="322" width="145" height="145">
<path d="M305.807 328.668C297.261 332.302 289.593 337.454 283.003 344.044C276.413 350.633 271.222 358.301 267.627 366.848C263.873 375.714 261.996 385.099 261.996 394.764C261.996 404.468 263.913 413.854 267.627 422.68C271.262 431.226 276.413 438.894 283.003 445.484C289.593 452.073 297.261 457.265 305.807 460.86C314.673 464.614 324.058 466.491 333.723 466.491C343.388 466.491 352.813 464.574 361.639 460.86C370.186 457.265 377.854 452.073 384.443 445.484C391.033 438.894 396.225 431.226 399.819 422.68C403.573 413.814 405.45 404.429 405.45 394.764C405.45 388.773 404.691 382.823 403.254 377.072C402.814 375.314 401.057 374.276 399.3 374.715C397.543 375.155 396.504 376.912 396.944 378.669C398.262 383.901 398.94 389.292 398.94 394.764C398.94 430.747 369.667 460.021 333.683 460.021C297.7 460.021 268.426 430.747 268.426 394.764C268.426 358.78 297.7 329.507 333.683 329.507C339.035 329.507 344.346 330.146 349.458 331.423C351.216 331.863 352.973 330.785 353.412 329.067C353.851 327.31 352.773 325.553 351.056 325.113C345.425 323.716 339.554 322.997 333.683 322.997C324.058 323.037 314.673 324.914 305.807 328.668Z" fill="white"/>
</mask>
<g mask="url(#mask1_270_259)">
<path d="M333.766 251.27L477.26 394.804L333.766 538.298L190.232 394.804L333.766 251.27Z" fill="url(#paint2_linear_270_259)"/>
</g>
<mask id="mask2_270_259" style="mask-type:luminance" maskUnits="userSpaceOnUse" x="293" y="354" width="82" height="82">
<path d="M305.285 366.329C297.697 373.917 293.504 384.021 293.504 394.804C293.504 405.547 297.697 415.651 305.285 423.279C312.873 430.867 322.977 435.06 333.761 435.06C344.504 435.06 354.608 430.867 362.236 423.279C369.824 415.691 374.017 405.587 374.017 394.804C374.017 391.369 373.578 387.935 372.739 384.66C372.3 382.903 370.503 381.864 368.785 382.343C367.028 382.783 365.99 384.58 366.469 386.297C367.188 389.053 367.547 391.928 367.547 394.804C367.547 413.415 352.411 428.551 333.8 428.551C315.19 428.551 300.054 413.415 300.054 394.804C300.054 376.193 315.19 361.057 333.8 361.057C336.556 361.057 339.272 361.376 341.908 362.015C343.665 362.455 345.422 361.376 345.861 359.619C346.301 357.862 345.222 356.105 343.465 355.665C340.31 354.907 337.075 354.507 333.8 354.507C322.977 354.547 312.873 358.741 305.285 366.329Z" fill="white"/>
</mask>
<g mask="url(#mask2_270_259)">
<path d="M333.765 314.291L414.238 394.804L333.765 475.277L253.252 394.804L333.765 314.291Z" fill="url(#paint3_linear_270_259)"/>
</g>
<mask id="mask3_270_259" style="mask-type:luminance" maskUnits="userSpaceOnUse" x="360" y="297" width="71" height="71">
<path d="M370.75 357.582L368.313 339.611L399.025 308.899L401.861 323.556C402.14 325.034 403.298 326.192 404.816 326.511L419.473 329.347L388.761 360.059L370.75 357.582ZM398.706 298.635L361.724 335.617C360.885 336.456 360.526 337.614 360.685 338.732L363.761 361.337C364 362.974 365.278 364.292 366.956 364.531L389.56 367.607C389.72 367.647 389.879 367.647 390.079 367.647C391.078 367.647 391.996 367.247 392.715 366.568L429.697 329.587C430.655 328.628 431.015 327.19 430.615 325.872C430.216 324.554 429.098 323.556 427.78 323.316L408.73 319.602L405.016 300.552C404.736 299.194 403.778 298.116 402.46 297.717C402.1 297.597 401.741 297.557 401.381 297.557C400.383 297.557 399.424 297.956 398.706 298.635Z" fill="white"/>
</mask>
<g mask="url(#mask3_270_259)">
<path d="M395.748 262.332L466.038 332.622L395.748 402.911L325.459 332.622L395.748 262.332Z" fill="url(#paint4_linear_270_259)"/>
</g>
<mask id="mask4_270_259" style="mask-type:luminance" maskUnits="userSpaceOnUse" x="329" y="357" width="43" height="43">
<path d="M364.721 358.301L330.096 392.927C328.658 394.364 328.658 396.721 330.096 398.198C330.815 398.917 331.773 399.277 332.732 399.277C333.69 399.277 334.649 398.917 335.368 398.198L369.993 363.573C371.431 362.135 371.431 359.779 369.993 358.301C369.274 357.582 368.316 357.223 367.357 357.223C366.399 357.223 365.48 357.582 364.721 358.301Z" fill="white"/>
</mask>
<g mask="url(#mask4_270_259)">
<path d="M350.062 335.856L392.475 378.27L350.062 420.643L307.648 378.27L350.062 335.856Z" fill="url(#paint5_linear_270_259)"/>
</g>
<defs>
<linearGradient id="paint0_linear_270_259" x1="123.239" y1="395.083" x2="544.586" y2="395.083" gradientUnits="userSpaceOnUse">
<stop stop-color="white"/>
<stop offset="0.085261" stop-color="#E2E1E1"/>
<stop offset="0.2676" stop-color="#A8A7A7"/>
<stop offset="0.4438" stop-color="#797677"/>
<stop offset="0.6095" stop-color="#535051"/>
<stop offset="0.7621" stop-color="#393536"/>
<stop offset="0.897" stop-color="#292526"/>
<stop offset="1" stop-color="#231F20"/>
</linearGradient>
<linearGradient id="paint1_linear_270_259" x1="234.15" y1="295.235" x2="401.245" y2="462.33" gradientUnits="userSpaceOnUse">
<stop stop-color="white"/>
<stop offset="1" stop-color="#231F20"/>
</linearGradient>
<linearGradient id="paint2_linear_270_259" x1="234.15" y1="295.235" x2="401.245" y2="462.33" gradientUnits="userSpaceOnUse">
<stop stop-color="white"/>
<stop offset="1" stop-color="#231F20"/>
</linearGradient>
<linearGradient id="paint3_linear_270_259" x1="234.149" y1="295.235" x2="401.244" y2="462.33" gradientUnits="userSpaceOnUse">
<stop stop-color="white"/>
<stop offset="1" stop-color="#231F20"/>
</linearGradient>
<linearGradient id="paint4_linear_270_259" x1="296.225" y1="233.159" x2="463.32" y2="400.254" gradientUnits="userSpaceOnUse">
<stop stop-color="white"/>
<stop offset="1" stop-color="#231F20"/>
</linearGradient>
<linearGradient id="paint5_linear_270_259" x1="250.543" y1="278.842" x2="417.638" y2="445.937" gradientUnits="userSpaceOnUse">
<stop stop-color="white"/>
<stop offset="1" stop-color="#231F20"/>
</linearGradient>
</defs>
</svg>
