<svg width="418" height="604" viewBox="0 0 418 604" fill="none" xmlns="http://www.w3.org/2000/svg">
<path d="M416 174.651C416 167.871 412.873 161.469 407.526 157.301L222.526 13.0804C214.574 6.88132 203.426 6.88133 195.474 13.0804L10.474 157.301C5.12653 161.469 2.00003 167.871 2.00003 174.651V429.349C2.00003 436.129 5.12653 442.531 10.474 446.699L195.474 590.92C203.426 597.119 214.574 597.119 222.526 590.92L407.526 446.699C412.874 442.531 416 436.129 416 429.349V174.651Z" stroke="#042A37" stroke-width="4"/>
<mask id="mask0_749_41596" style="mask-type:luminance" maskUnits="userSpaceOnUse" x="171" y="264" width="77" height="77">
<path d="M178.039 302.418C178.039 285.124 192.124 271.039 209.418 271.039C226.712 271.039 240.797 285.124 240.797 302.418C240.797 319.712 226.712 333.797 209.418 333.797C192.124 333.761 178.039 319.712 178.039 302.418ZM182.532 275.532C175.364 282.699 171.406 292.255 171.406 302.418C171.406 312.58 175.364 322.137 182.532 329.304C189.699 336.471 199.255 340.429 209.418 340.429C219.58 340.429 229.136 336.471 236.304 329.304C243.471 322.137 247.429 312.58 247.429 302.418C247.429 292.255 243.471 282.699 236.304 275.532C229.136 268.365 219.58 264.406 209.418 264.406C199.255 264.371 189.699 268.329 182.532 275.532Z" fill="white"/>
</mask>
<g mask="url(#mask0_749_41596)">
<path d="M285.44 302.418L209.418 378.44L133.359 302.418L209.418 226.359L285.44 302.418Z" fill="#35C5E8"/>
</g>
<mask id="mask1_749_41596" style="mask-type:luminance" maskUnits="userSpaceOnUse" x="194" y="287" width="31" height="31">
<path d="M200.111 302.418C200.111 297.319 204.283 293.147 209.382 293.147C214.481 293.147 218.653 297.319 218.653 302.418C218.653 307.517 214.481 311.689 209.382 311.689C204.283 311.689 200.111 307.517 200.111 302.418ZM194.299 302.418C194.299 310.762 201.074 317.537 209.418 317.537C217.762 317.537 224.537 310.762 224.537 302.418C224.537 294.074 217.762 287.299 209.418 287.299C201.074 287.299 194.299 294.074 194.299 302.418Z" fill="white"/>
</mask>
<g mask="url(#mask1_749_41596)">
<path d="M239.62 302.418L209.418 332.62L179.18 302.418L209.418 272.18L239.62 302.418Z" fill="#35C5E8"/>
</g>
<mask id="mask2_749_41596" style="mask-type:luminance" maskUnits="userSpaceOnUse" x="106" y="263" width="207" height="79">
<path d="M139.885 318.001C127.547 311.868 118.383 305.628 113.926 302.419C118.383 299.174 127.547 292.969 139.885 286.836C156.145 278.742 181.391 269.078 209.382 269.078C237.374 269.078 262.619 278.742 278.879 286.836C291.217 292.969 300.381 299.209 304.838 302.419C300.381 305.663 291.217 311.868 278.879 318.001C262.619 326.095 237.374 335.759 209.382 335.759C181.391 335.759 156.145 326.095 139.885 318.001ZM169.552 269.007C158.748 272.074 147.872 276.317 137.139 281.666C118.918 290.758 107.686 299.744 107.222 300.136C106.545 300.707 106.152 301.527 106.152 302.419C106.152 303.31 106.545 304.13 107.222 304.701C107.686 305.093 118.918 314.079 137.139 323.171C147.836 328.52 158.748 332.763 169.552 335.83C183.067 339.645 196.474 341.607 209.382 341.607C222.29 341.607 235.698 339.681 249.212 335.83C260.016 332.763 270.892 328.52 281.625 323.171C299.846 314.079 311.079 305.093 311.542 304.701C312.22 304.13 312.612 303.31 312.612 302.419C312.612 301.527 312.22 300.707 311.542 300.136C311.079 299.744 299.846 290.758 281.625 281.666C270.928 276.317 260.016 272.074 249.212 269.007C235.662 265.192 222.29 263.23 209.382 263.23C196.51 263.23 183.102 265.192 169.552 269.007Z" fill="white"/>
</mask>
<g mask="url(#mask2_749_41596)">
<path d="M351.8 302.418L209.418 444.8L67 302.418L209.418 160L351.8 302.418Z" fill="#35C5E8"/>
</g>
<mask id="mask3_749_41596" style="mask-type:luminance" maskUnits="userSpaceOnUse" x="206" y="360" width="7" height="36">
<path d="M206.494 363.608V392.633C206.494 394.238 207.813 395.557 209.418 395.557C211.023 395.557 212.342 394.238 212.342 392.633V363.608C212.342 362.003 211.023 360.684 209.418 360.684C207.778 360.684 206.494 361.967 206.494 363.608Z" fill="white"/>
</mask>
<g mask="url(#mask3_749_41596)">
<path d="M229.743 378.12L209.418 398.445L189.058 378.12L209.418 357.76L229.743 378.12Z" fill="#35C5E8"/>
</g>
<mask id="mask4_749_41596" style="mask-type:luminance" maskUnits="userSpaceOnUse" x="206" y="209" width="7" height="36">
<path d="M209.418 209.279C207.813 209.279 206.494 210.599 206.494 212.203V241.229C206.494 242.833 207.813 244.153 209.418 244.153C211.023 244.153 212.342 242.833 212.342 241.229V212.203C212.306 210.563 211.023 209.279 209.418 209.279Z" fill="white"/>
</mask>
<g mask="url(#mask4_749_41596)">
<path d="M229.743 226.716L209.418 247.041L189.058 226.716L209.418 206.355L229.743 226.716Z" fill="#35C5E8"/>
</g>
<mask id="mask5_749_41596" style="mask-type:luminance" maskUnits="userSpaceOnUse" x="136" y="229" width="29" height="28">
<path d="M137.068 230.781C135.998 231.958 136.069 233.812 137.282 234.882L159.853 255.421C160.424 255.92 161.101 256.17 161.814 256.17C162.599 256.17 163.383 255.849 163.989 255.207C165.059 254.03 164.988 252.176 163.775 251.106L141.168 230.567C140.598 230.068 139.92 229.818 139.207 229.818C138.423 229.818 137.638 230.139 137.068 230.781Z" fill="white"/>
</mask>
<g mask="url(#mask5_749_41596)">
<path d="M178.217 243.011L150.511 270.718L122.805 243.011L150.511 215.27L178.217 243.011Z" fill="#35C5E8"/>
</g>
<mask id="mask6_749_41596" style="mask-type:luminance" maskUnits="userSpaceOnUse" x="254" y="348" width="29" height="27">
<path d="M254.846 349.058C253.776 350.235 253.847 352.089 255.06 353.159L277.631 373.698C278.202 374.197 278.879 374.447 279.593 374.447C280.377 374.447 281.161 374.126 281.732 373.484C282.802 372.307 282.73 370.453 281.554 369.383L258.982 348.845C258.412 348.345 257.734 348.096 257.021 348.096C256.201 348.096 255.416 348.417 254.846 349.058Z" fill="white"/>
</mask>
<g mask="url(#mask6_749_41596)">
<path d="M295.995 361.288L268.289 388.994L240.583 361.288L268.289 333.582L295.995 361.288Z" fill="#35C5E8"/>
</g>
<mask id="mask7_749_41596" style="mask-type:luminance" maskUnits="userSpaceOnUse" x="254" y="229" width="29" height="28">
<path d="M277.632 230.567L255.06 251.106C253.883 252.176 253.776 254.03 254.846 255.207C255.417 255.849 256.201 256.17 257.021 256.17C257.734 256.17 258.412 255.92 258.983 255.421L281.554 234.882C282.731 233.812 282.838 231.958 281.732 230.781C281.162 230.139 280.377 229.818 279.593 229.818C278.88 229.818 278.166 230.068 277.632 230.567Z" fill="white"/>
</mask>
<g mask="url(#mask7_749_41596)">
<path d="M295.995 243.011L268.289 270.718L240.583 243.011L268.289 215.27L295.995 243.011Z" fill="#35C5E8"/>
</g>
<mask id="mask8_749_41596" style="mask-type:luminance" maskUnits="userSpaceOnUse" x="136" y="348" width="29" height="27">
<path d="M159.853 348.845L137.282 369.383C136.105 370.453 135.998 372.307 137.068 373.484C137.638 374.126 138.423 374.447 139.243 374.447C139.956 374.447 140.634 374.197 141.204 373.698L163.776 353.159C164.952 352.089 165.059 350.235 163.99 349.058C163.419 348.417 162.635 348.096 161.85 348.096C161.101 348.096 160.424 348.345 159.853 348.845Z" fill="white"/>
</mask>
<g mask="url(#mask8_749_41596)">
<path d="M178.217 361.288L150.511 388.994L122.805 361.288L150.511 333.582L178.217 361.288Z" fill="#35C5E8"/>
</g>
</svg>
