<svg width="668" height="791" viewBox="0 0 668 791" fill="none" xmlns="http://www.w3.org/2000/svg">
<path d="M543.307 255.536L543.5 255.686V255.93V534.07V534.314L543.307 534.464L334.307 697.394L334 697.634L333.693 697.394L124.693 534.464L124.5 534.314V534.07V255.93V255.686L124.693 255.536L333.693 92.6055L334 92.3659L334.307 92.6055L543.307 255.536Z" stroke="url(#paint0_linear_270_203)"/>
<mask id="mask0_270_203" style="mask-type:luminance" maskUnits="userSpaceOnUse" x="296" y="357" width="77" height="77">
<path d="M303.039 395.418C303.039 378.124 317.124 364.039 334.418 364.039C351.712 364.039 365.797 378.124 365.797 395.418C365.797 412.712 351.712 426.797 334.418 426.797C317.124 426.761 303.039 412.712 303.039 395.418ZM307.532 368.532C300.364 375.699 296.406 385.255 296.406 395.418C296.406 405.58 300.364 415.137 307.532 422.304C314.699 429.471 324.255 433.429 334.418 433.429C344.58 433.429 354.136 429.471 361.304 422.304C368.471 415.137 372.429 405.58 372.429 395.418C372.429 385.255 368.471 375.699 361.304 368.532C354.136 361.365 344.58 357.406 334.418 357.406C324.255 357.371 314.699 361.329 307.532 368.532Z" fill="white"/>
</mask>
<g mask="url(#mask0_270_203)">
<path d="M410.44 395.418L334.418 471.441L258.359 395.418L334.418 319.359L410.44 395.418Z" fill="url(#paint1_linear_270_203)"/>
</g>
<mask id="mask1_270_203" style="mask-type:luminance" maskUnits="userSpaceOnUse" x="319" y="380" width="31" height="31">
<path d="M325.111 395.418C325.111 390.319 329.283 386.147 334.382 386.147C339.481 386.147 343.653 390.319 343.653 395.418C343.653 400.517 339.481 404.689 334.382 404.689C329.283 404.689 325.111 400.517 325.111 395.418ZM319.299 395.418C319.299 403.762 326.074 410.537 334.418 410.537C342.762 410.537 349.537 403.762 349.537 395.418C349.537 387.074 342.762 380.299 334.418 380.299C326.074 380.299 319.299 387.074 319.299 395.418Z" fill="white"/>
</mask>
<g mask="url(#mask1_270_203)">
<path d="M364.62 395.418L334.418 425.62L304.18 395.418L334.418 365.18L364.62 395.418Z" fill="url(#paint2_linear_270_203)"/>
</g>
<mask id="mask2_270_203" style="mask-type:luminance" maskUnits="userSpaceOnUse" x="231" y="356" width="207" height="79">
<path d="M264.885 411C252.547 404.867 243.383 398.627 238.926 395.418C243.383 392.173 252.547 385.968 264.885 379.835C281.145 371.741 306.391 362.078 334.382 362.078C362.374 362.078 387.619 371.741 403.879 379.835C416.217 385.968 425.381 392.209 429.838 395.418C425.381 398.663 416.217 404.867 403.879 411C387.619 419.095 362.374 428.758 334.382 428.758C306.391 428.758 281.145 419.095 264.885 411ZM294.552 362.006C283.748 365.073 272.872 369.316 262.139 374.665C243.918 383.758 232.686 392.743 232.222 393.136C231.545 393.706 231.152 394.526 231.152 395.418C231.152 396.309 231.545 397.129 232.222 397.7C232.686 398.092 243.918 407.078 262.139 416.171C272.836 421.519 283.748 425.763 294.552 428.829C308.067 432.645 321.474 434.606 334.382 434.606C347.29 434.606 360.698 432.68 374.212 428.829C385.016 425.763 395.892 421.519 406.625 416.171C424.846 407.078 436.079 398.092 436.542 397.7C437.22 397.129 437.612 396.309 437.612 395.418C437.612 394.526 437.22 393.706 436.542 393.136C436.079 392.743 424.846 383.758 406.625 374.665C395.928 369.316 385.016 365.073 374.212 362.006C360.662 358.191 347.29 356.23 334.382 356.23C321.51 356.23 308.102 358.191 294.552 362.006Z" fill="white"/>
</mask>
<g mask="url(#mask2_270_203)">
<path d="M476.8 395.418L334.418 537.8L192 395.418L334.418 253L476.8 395.418Z" fill="url(#paint3_linear_270_203)"/>
</g>
<mask id="mask3_270_203" style="mask-type:luminance" maskUnits="userSpaceOnUse" x="331" y="453" width="7" height="36">
<path d="M331.494 456.607V485.632C331.494 487.237 332.813 488.556 334.418 488.556C336.023 488.556 337.342 487.237 337.342 485.632V456.607C337.342 455.002 336.023 453.683 334.418 453.683C332.778 453.683 331.494 454.967 331.494 456.607Z" fill="white"/>
</mask>
<g mask="url(#mask3_270_203)">
<path d="M354.743 471.12L334.418 491.445L314.058 471.12L334.418 450.759L354.743 471.12Z" fill="url(#paint4_linear_270_203)"/>
</g>
<mask id="mask4_270_203" style="mask-type:luminance" maskUnits="userSpaceOnUse" x="331" y="302" width="7" height="36">
<path d="M334.418 302.279C332.813 302.279 331.494 303.599 331.494 305.203V334.229C331.494 335.833 332.813 337.153 334.418 337.153C336.023 337.153 337.342 335.833 337.342 334.229V305.203C337.306 303.563 336.023 302.279 334.418 302.279Z" fill="white"/>
</mask>
<g mask="url(#mask4_270_203)">
<path d="M354.743 319.716L334.418 340.041L314.058 319.716L334.418 299.355L354.743 319.716Z" fill="url(#paint5_linear_270_203)"/>
</g>
<mask id="mask5_270_203" style="mask-type:luminance" maskUnits="userSpaceOnUse" x="261" y="322" width="29" height="28">
<path d="M262.068 323.781C260.998 324.958 261.069 326.812 262.282 327.882L284.853 348.421C285.424 348.92 286.101 349.169 286.814 349.169C287.599 349.169 288.383 348.849 288.989 348.207C290.059 347.03 289.988 345.176 288.775 344.106L266.168 323.567C265.598 323.068 264.92 322.818 264.207 322.818C263.423 322.818 262.638 323.139 262.068 323.781Z" fill="white"/>
</mask>
<g mask="url(#mask5_270_203)">
<path d="M303.217 336.012L275.511 363.718L247.805 336.012L275.511 308.27L303.217 336.012Z" fill="url(#paint6_linear_270_203)"/>
</g>
<mask id="mask6_270_203" style="mask-type:luminance" maskUnits="userSpaceOnUse" x="379" y="441" width="29" height="27">
<path d="M379.846 442.058C378.776 443.235 378.847 445.089 380.06 446.159L402.631 466.698C403.202 467.197 403.879 467.447 404.593 467.447C405.377 467.447 406.161 467.126 406.732 466.484C407.802 465.307 407.73 463.453 406.554 462.383L383.982 441.844C383.412 441.345 382.734 441.096 382.021 441.096C381.201 441.096 380.416 441.417 379.846 442.058Z" fill="white"/>
</mask>
<g mask="url(#mask6_270_203)">
<path d="M420.995 454.289L393.289 481.995L365.583 454.289L393.289 426.583L420.995 454.289Z" fill="url(#paint7_linear_270_203)"/>
</g>
<mask id="mask7_270_203" style="mask-type:luminance" maskUnits="userSpaceOnUse" x="379" y="322" width="29" height="28">
<path d="M402.632 323.567L380.06 344.106C378.883 345.176 378.776 347.03 379.846 348.207C380.417 348.849 381.201 349.169 382.021 349.169C382.734 349.169 383.412 348.92 383.983 348.421L406.554 327.882C407.731 326.812 407.838 324.958 406.732 323.781C406.162 323.139 405.377 322.818 404.593 322.818C403.88 322.818 403.166 323.068 402.632 323.567Z" fill="white"/>
</mask>
<g mask="url(#mask7_270_203)">
<path d="M420.995 336.012L393.289 363.718L365.583 336.012L393.289 308.27L420.995 336.012Z" fill="url(#paint8_linear_270_203)"/>
</g>
<mask id="mask8_270_203" style="mask-type:luminance" maskUnits="userSpaceOnUse" x="261" y="441" width="29" height="27">
<path d="M284.853 441.844L262.282 462.383C261.105 463.453 260.998 465.307 262.068 466.484C262.638 467.126 263.423 467.447 264.243 467.447C264.956 467.447 265.634 467.197 266.204 466.698L288.776 446.159C289.952 445.089 290.059 443.235 288.99 442.058C288.419 441.417 287.635 441.096 286.85 441.096C286.101 441.096 285.424 441.345 284.853 441.844Z" fill="white"/>
</mask>
<g mask="url(#mask8_270_203)">
<path d="M303.217 454.289L275.511 481.995L247.805 454.289L275.511 426.583L303.217 454.289Z" fill="url(#paint9_linear_270_203)"/>
</g>
<defs>
<linearGradient id="paint0_linear_270_203" x1="544.761" y1="395.083" x2="123.414" y2="395.083" gradientUnits="userSpaceOnUse">
<stop stop-color="white"/>
<stop offset="0.085261" stop-color="#E2E1E1"/>
<stop offset="0.2676" stop-color="#A8A7A7"/>
<stop offset="0.4438" stop-color="#797677"/>
<stop offset="0.6095" stop-color="#535051"/>
<stop offset="0.7621" stop-color="#393536"/>
<stop offset="0.897" stop-color="#292526"/>
<stop offset="1" stop-color="#231F20"/>
</linearGradient>
<linearGradient id="paint1_linear_270_203" x1="430.672" y1="299.171" x2="283.276" y2="446.566" gradientUnits="userSpaceOnUse">
<stop stop-color="white"/>
<stop offset="1" stop-color="#231F20"/>
</linearGradient>
<linearGradient id="paint2_linear_270_203" x1="430.672" y1="299.171" x2="283.276" y2="446.566" gradientUnits="userSpaceOnUse">
<stop stop-color="white"/>
<stop offset="1" stop-color="#231F20"/>
</linearGradient>
<linearGradient id="paint3_linear_270_203" x1="430.672" y1="299.171" x2="283.276" y2="446.566" gradientUnits="userSpaceOnUse">
<stop stop-color="white"/>
<stop offset="1" stop-color="#231F20"/>
</linearGradient>
<linearGradient id="paint4_linear_270_203" x1="468.523" y1="337.022" x2="321.128" y2="484.417" gradientUnits="userSpaceOnUse">
<stop stop-color="white"/>
<stop offset="1" stop-color="#231F20"/>
</linearGradient>
<linearGradient id="paint5_linear_270_203" x1="392.806" y1="261.305" x2="245.411" y2="408.7" gradientUnits="userSpaceOnUse">
<stop stop-color="white"/>
<stop offset="1" stop-color="#231F20"/>
</linearGradient>
<linearGradient id="paint6_linear_270_203" x1="371.507" y1="240.006" x2="224.112" y2="387.401" gradientUnits="userSpaceOnUse">
<stop stop-color="white"/>
<stop offset="1" stop-color="#231F20"/>
</linearGradient>
<linearGradient id="paint7_linear_270_203" x1="489.542" y1="358.04" x2="342.146" y2="505.435" gradientUnits="userSpaceOnUse">
<stop stop-color="white"/>
<stop offset="1" stop-color="#231F20"/>
</linearGradient>
<linearGradient id="paint8_linear_270_203" x1="430.421" y1="298.92" x2="283.026" y2="446.315" gradientUnits="userSpaceOnUse">
<stop stop-color="white"/>
<stop offset="1" stop-color="#231F20"/>
</linearGradient>
<linearGradient id="paint9_linear_270_203" x1="430.672" y1="299.17" x2="283.276" y2="446.566" gradientUnits="userSpaceOnUse">
<stop stop-color="white"/>
<stop offset="1" stop-color="#231F20"/>
</linearGradient>
</defs>
</svg>
