<svg width="48" height="48" viewBox="0 0 48 48" fill="none" xmlns="http://www.w3.org/2000/svg">
<rect width="48" height="48" rx="8" fill="white"/>
<path d="M12 36.9132L15.8726 40V34.9825L12 31.8958V36.9132Z" fill="#35C5E8"/>
<path d="M20.5472 29.953V22.8723H17.1464V34.3483L20.5472 37.0618V34.1677L23.1931 32.0644L20.5472 29.953Z" fill="#35C5E8"/>
<path d="M12 30.246L15.8726 33.3328V17.0962H12V30.246Z" fill="#35C5E8"/>
<path d="M32.5856 40L36.4581 36.9132V31.8958L32.5856 34.9825V40Z" fill="#35C5E8"/>
<path d="M21.821 34.8019V38.0773L24.2271 39.996L26.6332 38.0773V34.8019L24.2271 32.8832L21.821 34.8019Z" fill="#35C5E8"/>
<path d="M27.907 29.953L25.265 32.0644L27.907 34.1677V37.0618L31.3117 34.3483V22.8723H27.907V29.953Z" fill="#35C5E8"/>
<path d="M21.821 28.9856H26.6332V21.7605L31.3117 20.0987V17.0962H17.1464V20.0987L21.821 21.7605V28.9856Z" fill="#35C5E8"/>
<path d="M32.5856 17.0962V33.3328L36.4581 30.246V17.0962H32.5856Z" fill="#35C5E8"/>
<path d="M36.4581 9H32.5856V11.8379H26.1653V9H22.2928V11.8379H15.8726V9H12V15.7957H36.4581V9Z" fill="#35C5E8"/>
</svg>
