<svg width="88" height="58" viewBox="0 0 88 58" fill="none" xmlns="http://www.w3.org/2000/svg">
<g id="Client Logo">
<path id="Vector" d="M87.9994 0.04245H0.399414V57.0424H87.9994V0.04245Z" fill="white"/>
<path id="Vector_2" d="M79.0988 15.0424H9.29883V42.1424H79.0988V15.0424Z" fill="white"/>
<path id="Vector_3" d="M65.9992 17.8424C65.1992 17.5424 64.3992 17.7424 63.4992 17.8424C62.9992 17.9424 62.4992 17.9424 62.0992 17.8424C61.6992 17.7424 61.3993 17.4424 61.1993 17.1424C61.0993 17.0424 61.0993 16.9424 61.1993 16.9424C61.1993 16.8424 61.2992 16.9424 61.3992 16.9424C62.1992 17.2424 62.8993 16.9424 63.6993 16.7424C63.9993 16.6424 64.3993 16.5424 64.6993 16.4424C65.4993 16.1424 66.1992 16.1424 66.9992 16.4424C67.7992 16.7424 68.5992 16.7424 69.3992 16.4424C70.3992 16.1424 71.4992 16.1424 72.4992 16.5424C72.9992 16.7424 72.9992 16.7424 72.8992 17.3424C72.5992 18.4424 72.4992 19.5424 72.4992 20.7424C72.4992 21.3424 72.6992 21.8424 73.2992 22.1424C74.0992 22.6424 74.8992 23.2424 75.8992 23.4424C76.2992 23.5424 76.3992 23.7424 76.3992 24.1424C76.3992 24.2424 76.3992 24.4424 76.3992 24.5424C76.2992 25.1424 76.4992 25.7424 76.9992 26.1424C77.7992 26.7424 78.1993 27.5424 78.1993 28.6424C78.1993 29.1424 78.3992 29.6424 78.7992 30.0424C79.0992 30.4424 79.1992 30.8424 78.8992 31.3424C77.1992 34.5424 74.5992 36.4424 71.0992 36.8424C65.2992 37.5424 60.3992 33.6424 59.5992 27.8424C59.3992 26.6424 59.4993 25.3424 59.6993 24.1424C59.6993 23.9424 59.7992 23.7424 60.0992 23.7424C60.3992 23.7424 60.3992 23.9424 60.3992 24.1424C60.1992 25.5424 60.8992 26.5424 61.9992 27.2424C62.3992 27.5424 62.7993 27.7424 63.1993 27.9424C63.7993 28.1424 63.7992 28.4424 63.5992 28.9424C63.4992 29.1424 63.4992 29.4424 63.4992 29.6424C63.5992 29.8424 63.6992 30.0424 63.7992 30.2424C64.5992 31.0424 64.8992 32.0424 65.0992 33.1424C65.1992 33.7424 65.3992 34.2424 65.7992 34.6424C66.2992 35.2424 66.8993 35.4424 67.5992 35.1424H67.6993C68.8993 34.3424 70.2992 34.2424 71.5992 34.0424C72.0992 33.9424 72.4992 33.8424 72.7992 33.4424C72.8992 33.3424 72.9992 33.2424 72.8992 33.1424C72.7992 33.0424 72.6993 33.1424 72.5992 33.1424C72.1993 33.1424 71.8992 33.1424 71.4992 33.1424C71.1992 33.0424 70.9992 32.9424 70.9992 32.6424C70.9992 32.3424 71.1992 32.2424 71.4992 32.1424C71.7992 32.1424 71.9992 32.0424 72.2992 32.1424C72.5992 32.1424 72.8992 32.1424 73.2992 32.2424C73.8992 32.2424 74.2992 32.0424 74.5992 31.5424C74.9992 31.0424 75.1992 30.3424 75.3992 29.7424C75.4992 29.4424 75.2992 29.2424 74.9992 29.2424C74.4992 29.1424 73.9992 28.9424 73.4992 28.8424C72.6992 28.6424 72.0993 28.2424 71.6993 27.5424C71.1993 26.3424 70.1992 26.0424 68.9992 25.9424C68.5992 25.9424 68.1992 25.8424 67.7992 26.0424C67.4992 26.1424 67.3992 26.1424 67.4992 25.7424C67.5992 25.3424 67.5992 25.0424 67.2992 24.7424C66.9992 24.5424 66.5992 24.5424 66.2992 24.7424C65.9992 24.8424 65.7992 25.0424 65.4992 25.1424C64.8992 25.4424 64.1992 25.6424 63.4992 25.4424C62.4992 25.1424 62.0992 24.0424 62.7992 23.2424C63.0992 22.8424 63.3993 22.5424 63.6993 22.1424C64.0993 21.4424 64.2992 20.6424 64.4992 19.8424C64.5992 19.1424 64.8993 18.5424 65.6993 18.3424C65.7993 18.2424 65.8992 18.3424 65.9992 18.3424C66.1992 17.9424 65.9992 17.9424 65.9992 17.8424Z" fill="#575756"/>
<path id="Vector_4" d="M27.8984 28.6424C27.8984 26.4424 28.1984 24.6424 28.3984 22.9424C28.4984 21.5424 28.6984 20.0424 28.7984 18.6424C28.7984 18.0424 28.9984 17.4424 29.3984 16.9424C29.7984 16.4424 30.1984 15.9424 30.5984 15.4424C30.6984 15.3424 30.6984 15.1424 30.8984 15.2424C31.0984 15.3424 30.9984 15.4424 30.9984 15.5424C30.8984 16.9424 30.6984 18.3424 30.5984 19.8424C30.2984 22.8424 29.8984 25.7424 29.7984 28.7424C29.7984 29.1424 29.7984 29.5424 29.8984 29.9424C29.9984 30.7424 30.3984 31.4424 31.0984 31.9424C32.6984 33.1424 34.4984 33.6424 36.4984 33.7424C38.9984 33.8424 41.3984 33.2424 43.7984 32.3424C45.1984 31.8424 46.5984 31.2424 47.9984 30.5424C48.6984 30.1424 49.0985 29.6424 49.1985 28.7424C49.5985 26.1424 49.6984 23.4424 49.8984 20.8424C49.8984 20.1424 49.9984 19.4424 49.9984 18.8424C49.9984 18.4424 50.1984 18.1424 50.3984 17.9424C50.9984 17.2424 51.4984 16.4424 51.9984 15.6424C52.0984 15.5424 52.0984 15.3424 52.2984 15.3424C52.4984 15.4424 52.4984 15.6424 52.3984 15.7424C52.1984 17.6424 51.9984 19.4424 51.8984 21.3424C51.6984 23.2424 51.4984 25.1424 51.3984 27.0424C51.2984 27.8424 51.5984 28.4424 52.0984 28.9424C52.5984 29.4424 52.9984 30.0424 53.2984 30.7424C53.4984 31.3424 53.4984 31.8424 53.2984 32.3424C52.7984 33.4424 52.0985 34.3424 51.1985 35.1424C50.7985 35.5424 50.0984 35.4424 49.5984 35.0424C48.6985 34.1424 47.5984 33.7424 46.2984 33.9424C45.5984 34.0424 44.8985 34.3424 44.1985 34.5424C42.4985 35.2424 40.8985 36.0424 39.1985 36.6424C37.5985 37.1424 35.9984 37.5424 34.3984 37.2424C31.4984 36.7424 29.5984 35.0424 28.5984 32.1424C27.9984 30.7424 27.8984 29.4424 27.8984 28.6424Z" fill="#1883C6"/>
<path id="Vector_5" d="M16.0986 35.6424C17.5986 35.5424 19.0986 35.3424 20.4986 34.8424C22.7986 34.0424 23.9986 32.2424 24.0986 29.6424C24.1986 26.3424 24.3986 23.0424 24.4986 19.7424C24.4986 19.1424 24.6986 18.6424 24.9986 18.2424C25.5986 17.3424 26.1986 16.3424 26.6986 15.4424C26.7986 15.3424 26.7986 15.1424 26.9986 15.2424C27.0986 15.3424 27.0986 15.4424 27.0986 15.5424C26.7986 18.9424 26.4986 22.2424 26.1986 25.6424C26.0986 27.2424 25.9986 28.8424 25.6986 30.4424C24.7986 34.4424 22.6986 37.5424 19.0986 39.4424C16.8986 40.6424 14.5986 40.6424 12.3986 39.4424C10.7986 38.5424 10.0986 37.1424 9.79858 35.4424C9.39858 32.8424 9.89858 30.4424 10.7986 28.0424C10.9986 27.4424 11.3986 26.9424 11.8986 26.5424C11.9986 26.4424 12.0986 26.3424 12.2986 26.4424C12.3986 26.5424 12.2986 26.6424 12.2986 26.7424C11.6986 28.2424 11.3986 29.7424 11.1986 31.2424C10.9986 33.1424 12.1986 34.8424 14.1986 35.4424C14.6986 35.5424 15.3986 35.6424 16.0986 35.6424Z" fill="#1883C6"/>
<path id="Vector_6" d="M66.6985 38.8424C70.5985 38.8424 74.4984 38.8424 78.4984 38.8424C79.0984 38.8424 78.9984 38.7424 78.9984 39.4424C78.9984 39.8424 78.9984 40.2424 78.9984 40.6424C78.9984 40.8424 78.9985 40.9424 78.6985 40.9424C78.5985 40.9424 78.4984 40.9424 78.4984 40.9424C70.5984 40.9424 62.6984 40.9424 54.8984 40.9424C54.4984 40.9424 54.3984 40.8424 54.3984 40.4424C54.3984 40.0424 54.3984 39.6424 54.3984 39.2424C54.3984 38.8424 54.4984 38.8424 54.7984 38.8424C56.6984 38.8424 58.5984 38.8424 60.4984 38.8424H66.6985Z" fill="#575756"/>
<path id="Vector_7" d="M57.799 15.7425C57.599 20.0425 57.399 24.3425 57.099 28.6425C56.999 30.7425 56.699 32.8425 55.899 34.7425C55.699 35.3425 55.299 35.9425 54.899 36.4425C54.799 36.5425 54.699 36.7425 54.499 36.6425C54.299 36.5425 54.399 36.3425 54.399 36.2425C54.799 33.7425 54.899 31.2425 54.899 28.7425C54.999 26.0425 54.999 23.4425 55.099 20.7425C55.099 20.2425 55.199 19.6425 55.199 19.1425C55.199 18.8425 55.299 18.6425 55.399 18.3425C55.999 17.3425 56.599 16.4425 57.099 15.4425C57.199 15.2425 57.299 15.0425 57.499 15.1425C57.799 15.2425 57.599 15.4425 57.699 15.6425C57.799 15.7425 57.799 15.7425 57.799 15.7425Z" fill="#1883C6"/>
<path id="Vector_8" d="M76.3992 22.5424C76.2992 22.5424 76.2992 22.5424 76.1992 22.5424C75.4992 22.2424 74.6992 22.0424 74.0992 21.5424C73.5992 21.1424 73.7992 20.6424 74.2992 20.3424C74.3992 20.2424 74.5992 20.2424 74.6992 20.1424C75.2992 19.9424 75.6992 19.6424 75.9992 19.1424C76.2992 18.6424 76.4992 18.6424 76.9992 19.0424C77.4992 19.5424 77.9992 20.0424 78.3992 20.6424C78.6992 21.0424 78.5992 21.1424 78.1992 21.3424C77.7992 21.5424 77.5992 21.7424 77.2992 22.0424C76.9992 22.2424 76.6992 22.4424 76.3992 22.5424Z" fill="#575756"/>
<path id="Vector_9" d="M37.799 37.6424C37.999 38.0424 37.899 38.5424 37.999 38.8424C37.999 38.9424 37.999 38.9424 37.999 39.0424C37.999 39.2424 37.899 39.6424 38.199 39.7424C38.499 39.8424 38.799 39.6424 38.999 39.4424C38.999 39.4424 39.099 39.4424 39.099 39.3424C39.199 39.4424 39.099 39.6424 39.399 39.6424C39.599 39.6424 39.699 39.5424 39.799 39.4424C39.999 39.2424 40.299 39.0424 40.499 38.8424C40.699 38.7424 40.899 38.6424 41.099 38.8424C41.299 39.0424 41.299 39.2424 41.199 39.5424C40.999 39.9424 40.599 40.0424 40.199 40.1424C40.099 40.1424 39.899 40.1424 39.799 40.3424C40.099 40.5424 40.499 40.4424 40.799 40.4424C41.099 40.3424 41.299 40.2424 41.599 40.1424C41.799 40.0424 41.999 39.8424 41.999 40.3424C41.999 40.4424 42.099 40.4424 42.199 40.4424C42.499 40.4424 42.799 40.4424 43.099 40.1424C42.799 40.1424 42.499 40.1424 42.599 39.8424C42.599 39.5424 42.699 39.3424 42.999 39.3424C43.299 39.3424 43.399 39.5424 43.399 39.8424C43.499 40.2424 43.399 40.5424 42.999 40.8424C42.599 41.1424 42.099 41.2424 41.799 41.0424C41.399 40.7424 41.299 40.9424 40.999 41.0424C40.599 41.1424 40.299 41.2424 39.899 41.1424C39.599 41.1424 39.399 41.0424 39.299 40.6424C39.199 40.3424 38.999 40.2424 38.699 40.3424C38.599 40.3424 38.599 40.4424 38.499 40.4424C37.799 40.5424 37.699 40.5424 37.599 39.8424C37.599 39.3424 37.499 38.9424 37.499 38.4424C37.599 38.0424 37.599 37.8424 37.799 37.6424Z" fill="#575756"/>
<path id="Vector_10" d="M49.9988 40.4425C50.4988 40.5425 50.9988 40.5425 51.3988 40.3425C51.5988 40.2425 51.5988 40.1425 51.5988 40.0425C51.6988 39.8425 51.7988 39.6425 51.9988 39.7425C52.1988 39.7425 52.2988 39.8425 52.3988 40.0425C52.4988 40.2425 52.3989 40.4425 52.1989 40.5425C51.4989 40.9425 50.6988 41.1425 49.7988 41.0425C49.6988 41.0425 49.4988 40.9425 49.4988 40.8425C49.4988 40.4425 49.0988 40.4425 48.9988 40.1425C48.8988 39.9425 48.7988 40.0425 48.7988 40.0425C48.4988 40.1425 48.2988 40.3425 48.0988 40.6425C47.7988 41.0425 47.3988 41.1425 46.9988 40.9425C46.8988 40.9425 46.7988 40.8425 46.7988 40.7425C46.7988 40.6425 46.8988 40.6425 46.9988 40.5425C47.1988 40.4425 47.2988 40.4425 47.4988 40.4425C47.7988 40.4425 47.9988 40.2425 48.0988 40.0425C48.2988 39.6425 48.6988 39.5425 49.0988 39.4425C49.1988 39.4425 49.2988 39.4425 49.2988 39.5425C49.4988 39.8425 49.5988 39.8425 49.7988 39.6425C49.9988 39.4425 50.1988 39.1425 50.3988 38.9425C50.5988 38.7425 50.8988 38.6425 51.0988 38.9425C51.2988 39.1425 51.1988 39.4425 51.0988 39.6425C50.8988 40.1425 50.4988 40.2425 49.9988 40.4425Z" fill="#575756"/>
<path id="Vector_11" d="M28.2988 39.7425C28.3988 39.9425 28.2988 40.1425 28.4988 40.1425C28.6988 40.1425 28.9988 40.2425 29.0988 39.8425C29.1988 39.6425 29.2988 39.4425 29.4988 39.4425C29.6988 39.4425 29.7988 39.5425 29.8988 39.7425C29.9988 39.9425 29.8989 40.1425 29.6989 40.2425C29.2989 40.6425 28.3988 40.7425 27.8988 40.5425C27.7988 40.5425 27.7989 40.5425 27.6989 40.5425C27.3989 40.7425 27.1988 40.7425 26.8988 40.6425C26.5988 40.6425 26.4988 40.8425 26.2988 41.0425C26.0988 41.2425 25.9988 41.5425 25.7988 41.7425C25.7988 41.2425 26.3989 40.4425 26.6989 40.2425C26.7989 40.2425 26.8988 40.1425 26.8988 40.1425C27.4988 40.2425 27.8988 40.0425 28.2988 39.7425Z" fill="#585857"/>
<path id="Vector_12" d="M31.3986 40.7425C31.1986 40.6425 30.8986 40.7425 30.8986 40.4425C30.8986 40.2425 30.9986 39.9425 31.0986 39.8425C31.2986 39.6425 31.4986 39.8425 31.5986 39.9425C31.6986 40.2425 31.8986 40.1425 32.0986 40.0425C32.3986 39.9425 32.1986 39.8425 32.1986 39.6425C32.1986 39.5425 32.1986 39.4425 32.1986 39.4425C32.1986 39.3425 32.2986 39.2425 32.3986 39.2425C32.4986 39.2425 32.5986 39.3425 32.5986 39.4425C32.7986 40.0425 32.5986 40.4425 31.9986 40.6425C31.7986 40.7425 31.5986 40.7425 31.4986 41.0425C31.1986 41.5425 30.1986 41.8425 29.6986 41.6425C29.6986 41.6425 29.5986 41.6425 29.5986 41.5425C29.5986 41.4425 29.6986 41.4425 29.6986 41.4425C29.9986 41.3425 30.1986 41.2425 30.4986 41.2425C30.8986 41.0425 31.1986 40.9425 31.3986 40.7425Z" fill="#585857"/>
<path id="Vector_13" d="M35.8984 41.0425C35.7984 41.0425 35.6985 41.0425 35.6985 41.0425C35.5985 41.0425 35.4984 41.0425 35.3984 40.8425C35.3984 40.7425 35.4984 40.6425 35.5984 40.6425C35.8984 40.5425 36.0984 40.4425 36.3984 40.4425C36.6984 40.3425 36.8985 40.2425 36.6985 39.9425C36.6985 39.8425 36.6985 39.7425 36.6985 39.7425C36.6985 39.6425 36.7984 39.4425 36.8984 39.4425C37.0984 39.4425 37.0984 39.5425 37.0984 39.6425C37.2984 40.1425 37.0984 40.7425 36.4984 40.9425C36.2984 41.0425 36.0984 41.0425 35.8984 41.0425Z" fill="#595958"/>
<path id="Vector_14" d="M44.8984 41.6425C45.0984 41.1425 45.2984 40.8425 45.4984 40.4425C45.6984 40.1425 45.9984 39.9425 46.3984 40.0425C46.5984 40.1425 46.8984 40.0425 47.0984 39.8425C47.1984 39.8425 47.1984 39.7425 47.2984 39.7425C47.3984 39.8425 47.2984 39.9425 47.2984 39.9425C47.1984 40.3425 46.7984 40.5425 46.4984 40.4425C45.8984 40.3425 45.5984 40.6425 45.2984 41.1425C45.1984 41.4425 45.0984 41.6425 44.8984 41.6425Z" fill="#5A5A59"/>
<path id="Vector_15" d="M33.2988 41.7424C33.5988 41.1424 33.7989 40.6424 34.1989 40.2424C34.2989 40.1424 34.3988 40.1424 34.5988 40.1424C34.9988 40.2424 35.2988 40.1424 35.5988 39.8424C35.6988 40.1424 35.5988 40.2424 35.3988 40.4424C35.1988 40.6424 34.8989 40.7424 34.6989 40.6424C34.1989 40.5424 33.9988 40.7424 33.7988 41.1424C33.6988 41.3424 33.5988 41.5424 33.2988 41.7424Z" fill="#595958"/>
<path id="Vector_16" d="M44.0993 40.4424C43.9993 39.7424 43.7993 39.1424 43.8993 38.5424C43.8993 38.4424 43.8993 38.3424 44.0993 38.3424C44.1993 38.3424 44.1993 38.4424 44.1993 38.5424C44.2993 39.0424 44.3993 39.5424 44.3993 39.9424C44.2993 40.1424 44.2993 40.3424 44.0993 40.4424Z" fill="#5D5D5C"/>
<path id="Vector_17" d="M70.1988 27.4424C70.1988 27.3424 70.0988 27.2424 70.2988 27.1424C70.3988 27.1424 70.4988 27.2424 70.4988 27.2424C70.6988 27.4424 70.7988 27.6424 70.9988 27.8424C71.0988 27.9424 71.1988 28.0424 71.0988 28.1424C70.9988 28.3424 70.6988 28.2424 70.4988 28.3424C70.3988 28.3424 70.2988 28.2424 70.2988 28.1424C70.2988 27.9424 70.1988 27.6424 70.1988 27.4424Z" fill="#5C5C5B"/>
<path id="Vector_18" d="M41.4986 38.6424C41.4986 38.6424 41.2986 38.6424 41.1986 38.5424L41.0986 38.4425C41.0986 38.3425 41.1986 38.3425 41.1986 38.3425C41.3986 38.3425 41.4986 38.2424 41.6986 38.1424C41.7986 38.1424 41.8986 37.9424 41.9986 38.1424C42.0986 38.2424 41.9986 38.4424 41.8986 38.5424C41.8986 38.6424 41.6986 38.6424 41.4986 38.6424Z" fill="#5F5F5E"/>
<path id="Vector_19" d="M27.7984 41.7424C27.6984 41.7424 27.5984 41.7424 27.4984 41.6424C27.3984 41.6424 27.3984 41.5424 27.3984 41.5424C27.3984 41.4424 27.4984 41.4424 27.5984 41.4424C27.6984 41.4424 27.8984 41.3424 27.9984 41.3424C28.0984 41.3424 28.1984 41.1424 28.3984 41.2424C28.4984 41.3424 28.3984 41.4424 28.3984 41.5424C28.3984 41.7424 28.1984 41.7424 28.0984 41.8424C27.9984 41.7424 27.8984 41.7424 27.7984 41.7424Z" fill="#5F5F5E"/>
<path id="Vector_20" d="M42.7988 38.8425C42.6988 38.8425 42.5988 38.8425 42.4988 38.7425C42.3988 38.7425 42.2988 38.6425 42.2988 38.5425C42.2988 38.4425 42.3988 38.4425 42.4988 38.4425C42.5988 38.4425 42.7988 38.3425 42.8988 38.3425C42.9988 38.3425 43.1988 38.1425 43.2988 38.3425C43.3988 38.5425 43.2988 38.7425 42.9988 38.7425C42.9988 38.8425 42.8988 38.8425 42.7988 38.8425Z" fill="#626261"/>
<path id="Vector_21" d="M45.5992 39.2425C45.5992 39.2425 45.4992 39.2425 45.3992 39.1425C45.2992 39.1425 45.1992 39.1425 45.1992 39.0425C45.1992 38.9425 45.2992 38.9425 45.3992 38.9425C45.4992 38.9425 45.6992 38.8425 45.7992 38.8425C45.8992 38.8425 45.9992 38.6425 46.0992 38.8425C46.1992 39.0425 46.0992 39.1425 45.8992 39.2425C45.8992 39.2425 45.7992 39.2425 45.5992 39.2425Z" fill="#5E5E5D"/>
<path id="Vector_22" d="M35.5986 42.0424C35.4986 42.0424 35.3986 41.9425 35.2986 41.9425C35.1986 41.9425 35.0986 41.8425 35.0986 41.8425C35.0986 41.7425 35.1986 41.7425 35.2986 41.7425C35.3986 41.6425 35.5986 41.6424 35.6986 41.6424C35.7986 41.6424 35.9986 41.4424 35.9986 41.6424C36.0986 41.7424 35.9986 41.9424 35.7986 42.0424C35.7986 42.0424 35.6986 42.0424 35.5986 42.0424Z" fill="#5F5F5E"/>
<path id="Vector_23" d="M26.5986 39.2424C26.4986 39.2424 26.3986 39.2424 26.2986 39.1424C26.1986 39.1424 26.0986 39.1424 26.0986 38.9424C26.0986 38.8424 26.1986 38.8424 26.2986 38.8424C26.3986 38.8424 26.5986 38.7424 26.6986 38.7424C26.7986 38.7424 26.9986 38.5424 26.9986 38.7424C27.0986 38.9424 26.9986 39.0424 26.7986 39.1424C26.7986 39.2424 26.6986 39.2424 26.5986 39.2424Z" fill="#5F5F5E"/>
<path id="Vector_24" d="M34.0986 39.2424C33.9986 39.2424 33.8986 39.2424 33.7986 39.1424C33.6986 39.1424 33.5986 39.1424 33.5986 38.9424C33.5986 38.8424 33.6986 38.8424 33.7986 38.8424C33.8986 38.8424 34.0986 38.7424 34.1986 38.7424C34.2986 38.7424 34.3986 38.5424 34.4986 38.7424C34.5986 38.9424 34.4986 39.0424 34.2986 39.1424C34.2986 39.2424 34.1986 39.2424 34.0986 39.2424Z" fill="#5C5C5B"/>
<path id="Vector_25" d="M31.6992 41.5425C31.9992 41.4425 32.2992 41.3425 32.4992 41.2425C32.5992 41.2425 32.5992 41.2425 32.6992 41.3425C32.6992 41.4425 32.6992 41.6425 32.5992 41.7425C32.3992 41.8425 31.9992 41.7425 31.6992 41.5425Z" fill="#5D5D5C"/>
<path id="Vector_26" d="M46.5986 41.8425C46.8986 41.7425 47.1986 41.6424 47.4986 41.5424C47.5986 41.5424 47.5986 41.5424 47.6986 41.6424C47.6986 41.8424 47.6986 41.9424 47.5986 42.0424C47.1986 42.1424 46.8986 42.1425 46.5986 41.8425Z" fill="#5D5D5C"/>
<path id="Vector_27" d="M65.9992 17.8424C66.0992 17.8424 66.0992 17.9424 66.1992 17.9424V18.0424H65.6992C65.7992 17.9424 65.9992 17.9424 65.9992 17.8424Z" fill="#A0A09F"/>
</g>
</svg>
