<svg width="89" height="58" viewBox="0 0 89 58" fill="none" xmlns="http://www.w3.org/2000/svg">
<g id="Client Logo">
<path id="Vector" d="M88.4477 0.254883H0.847656V57.2549H88.4477V0.254883Z" fill="white"/>
<path id="Vector_2" d="M76.6469 16.0549H12.5469V41.3549H76.6469V16.0549Z" fill="white"/>
<path id="Vector_3" d="M25.1469 23.5549C23.7469 22.1549 21.9469 21.3549 19.9469 21.3549C18.0469 21.3549 16.6469 21.7549 15.7469 22.6549V17.6549C15.7469 17.2549 15.5469 16.8549 15.2469 16.5549C14.9469 16.2549 14.5469 16.1549 14.1469 16.1549C13.7469 16.1549 13.3469 16.2549 13.0469 16.5549C12.7469 16.8549 12.5469 17.2549 12.5469 17.6549V28.7549C12.5469 30.7549 13.2469 32.5549 14.7469 33.9549C16.1469 35.3549 17.9469 36.1549 19.9469 36.1549C21.9469 36.1549 23.7469 35.4549 25.1469 33.9549C26.5469 32.5549 27.3469 30.7549 27.3469 28.7549C27.3469 26.6549 26.6469 24.9549 25.1469 23.5549ZM22.9469 31.7549C22.1469 32.5549 21.1469 32.9549 19.9469 32.9549C18.7469 32.9549 17.7469 32.5549 16.9469 31.7549C16.1469 30.9549 15.7469 29.9549 15.7469 28.7549C15.7469 27.5549 16.1469 26.5549 16.9469 25.7549C17.7469 24.9549 18.7469 24.5549 19.9469 24.5549C21.1469 24.5549 22.1469 24.9549 22.9469 25.7549C23.7469 26.5549 24.1469 27.5549 24.1469 28.7549C24.2469 29.9549 23.8469 30.9549 22.9469 31.7549Z" fill="#283990"/>
<path id="Vector_4" d="M41.5473 23.5549C40.1473 22.1549 38.3473 21.3549 36.3473 21.3549C34.3473 21.3549 32.5473 22.0549 31.1473 23.5549C29.7473 24.9549 28.9473 26.7549 28.9473 28.7549C28.9473 30.7549 29.6473 32.5549 31.1473 33.9549C32.5473 35.3549 34.3473 36.1549 36.3473 36.1549C38.2473 36.1549 39.6473 35.6549 40.5473 34.5549C40.5473 34.9549 40.7473 35.3549 41.0473 35.6549C41.3473 35.9549 41.7473 36.1549 42.1473 36.1549C42.5473 36.1549 42.9473 35.9549 43.2473 35.6549C43.5473 35.3549 43.7473 34.9549 43.7473 34.5549V28.7549C43.6473 26.6549 42.9473 24.9549 41.5473 23.5549ZM39.2473 31.7549C38.4473 32.5549 37.4473 32.9549 36.2473 32.9549C35.0473 32.9549 34.0473 32.5549 33.2473 31.7549C32.4473 30.9549 32.0473 29.9549 32.0473 28.7549C32.0473 27.5549 32.4473 26.5549 33.2473 25.7549C34.0473 24.9549 35.0473 24.5549 36.2473 24.5549C37.4473 24.5549 38.4473 24.9549 39.2473 25.7549C40.0473 26.5549 40.4473 27.5549 40.4473 28.7549C40.5473 29.9549 40.1473 30.9549 39.2473 31.7549Z" fill="#283990"/>
<path id="Vector_5" d="M51.9469 21.3549C52.3469 21.3549 52.7469 21.5549 53.0469 21.8549C53.3469 22.1549 53.4469 22.5549 53.4469 22.9549C53.4469 23.3549 53.3469 23.7549 53.0469 24.0549C52.7469 24.3549 52.3469 24.5549 51.9469 24.5549H51.2469C50.5469 24.5549 49.9469 24.7549 49.4469 25.2549C48.9469 25.7549 48.7469 26.3549 48.7469 27.0549V34.6549C48.7469 35.0549 48.5469 35.4549 48.2469 35.7549C47.9469 36.0549 47.5469 36.2549 47.1469 36.2549C46.7469 36.2549 46.3469 36.0549 46.0469 35.7549C45.7469 35.4549 45.5469 35.0549 45.5469 34.6549V27.0549C45.5469 25.4549 46.1469 24.1549 47.2469 23.0549C48.3469 21.9549 49.6469 21.3549 51.2469 21.3549H51.9469Z" fill="#283990"/>
<path id="Vector_6" d="M56.3469 19.6549C55.8469 19.6549 55.4469 19.4549 55.0469 19.1549C54.6469 18.7549 54.5469 18.3549 54.5469 17.8549C54.5469 17.3549 54.7469 16.9549 55.0469 16.5549C55.4469 16.1549 55.8469 16.0549 56.3469 16.0549C56.8469 16.0549 57.2469 16.2549 57.6469 16.5549C58.0469 16.8549 58.1469 17.3549 58.1469 17.8549C58.1469 18.3549 57.9469 18.7549 57.6469 19.1549C57.2469 19.4549 56.8469 19.6549 56.3469 19.6549Z" fill="#283990"/>
<path id="Vector_7" d="M56.3471 21.3549C56.7471 21.3549 57.1471 21.5549 57.4471 21.8549C57.7471 22.1549 57.9471 22.5549 57.9471 22.9549V34.6549C57.9471 35.0549 57.7471 35.4549 57.4471 35.7549C57.1471 36.0549 56.7471 36.2549 56.3471 36.2549C55.9471 36.2549 55.5471 36.0549 55.2471 35.7549C54.9471 35.4549 54.7471 35.0549 54.7471 34.6549V22.9549C54.7471 22.5549 54.9471 22.1549 55.2471 21.8549C55.5471 21.4549 55.9471 21.3549 56.3471 21.3549Z" fill="#283990"/>
<path id="Vector_8" d="M72.5473 23.4549C71.1473 22.0549 69.3473 21.2549 67.3473 21.2549C65.3473 21.2549 63.5473 21.9549 62.1473 23.4549C60.7473 24.8549 59.9473 26.6549 59.9473 28.6549C59.9473 30.6549 60.6473 32.4549 62.1473 33.8549C63.5473 35.2549 65.3473 36.0549 67.3473 36.0549C69.2473 36.0549 70.6473 35.6549 71.5473 34.7549V39.7549C71.5473 40.1549 71.7473 40.5549 72.0473 40.8549C72.3473 41.1549 72.7473 41.3549 73.1473 41.3549C73.5473 41.3549 73.9473 41.1549 74.2473 40.8549C74.5473 40.5549 74.7473 40.1549 74.7473 39.7549V28.6549C74.7473 26.6549 73.9473 24.9549 72.5473 23.4549ZM70.3473 31.7549C69.5473 32.5549 68.5473 32.9549 67.3473 32.9549C66.1473 32.9549 65.1473 32.5549 64.3473 31.7549C63.5473 30.9549 63.1473 29.9549 63.1473 28.7549C63.1473 27.5549 63.5473 26.5549 64.3473 25.7549C65.1473 24.9549 66.1473 24.5549 67.3473 24.5549C68.5473 24.5549 69.5473 24.9549 70.3473 25.7549C71.1473 26.5549 71.5473 27.5549 71.5473 28.7549C71.5473 29.8549 71.1473 30.8549 70.3473 31.7549Z" fill="#ACE405"/>
<path id="Vector_9" d="M76.5465 20.9549C76.4465 20.7549 76.2465 20.5549 76.0465 20.4549C75.8465 20.3549 75.6465 20.2549 75.4465 20.2549C75.2465 20.2549 75.0465 20.3549 74.8465 20.4549C74.6465 20.5549 74.4465 20.7549 74.3465 20.9549C74.2465 21.1549 74.1465 21.3549 74.1465 21.6549C74.1465 21.8549 74.2465 22.0549 74.3465 22.3549C74.4465 22.5549 74.6465 22.7549 74.8465 22.8549C75.0465 22.9549 75.2465 23.0549 75.5465 23.0549C75.8465 23.0549 75.9465 22.9549 76.2465 22.8549C76.4465 22.7549 76.6465 22.5549 76.7465 22.3549C76.8465 22.1549 76.9465 21.9549 76.9465 21.6549C76.6465 21.3549 76.6465 21.1549 76.5465 20.9549ZM76.3465 22.1549C76.2465 22.3549 76.1465 22.4549 75.9465 22.5549C75.7465 22.6549 75.5465 22.6549 75.4465 22.6549C75.2465 22.6549 75.0465 22.6549 74.9465 22.5549C74.7465 22.4549 74.6465 22.3549 74.5465 22.1549C74.4465 21.9549 74.4465 21.7549 74.4465 21.6549C74.4465 21.4549 74.4465 21.2549 74.5465 21.0549C74.6465 20.8549 74.7465 20.7549 74.9465 20.6549C75.1465 20.5549 75.3465 20.5549 75.4465 20.5549C75.5465 20.5549 75.8465 20.5549 75.9465 20.6549C76.1465 20.7549 76.2465 20.8549 76.3465 21.0549C76.4465 21.2549 76.4465 21.4549 76.4465 21.6549C76.4465 21.7549 76.4465 21.9549 76.3465 22.1549Z" fill="#283990"/>
<path id="Vector_10" d="M75.4473 21.7549C75.5473 21.7549 75.7473 21.7549 75.7473 21.6549C75.8473 21.5549 75.9473 21.4549 75.9473 21.3549C75.9473 21.2549 75.9473 21.1549 75.8473 21.0549C75.7473 20.9549 75.6473 20.9549 75.5473 20.9549H74.9473V22.6549H75.1473V21.8549H75.3473L75.8473 22.6549H76.0473L75.4473 21.7549ZM75.1473 21.5549V21.0549H75.5473C75.6473 21.0549 75.6473 21.0549 75.7473 21.1549C75.7473 21.1549 75.8473 21.2549 75.8473 21.3549C75.8473 21.4549 75.8473 21.4549 75.7473 21.5549C75.7473 21.6549 75.6473 21.6549 75.5473 21.6549H75.1473V21.5549Z" fill="#283990"/>
<path id="Vector_11" d="M58.3471 38.0549V38.3549C58.1471 38.2549 58.0471 38.1549 57.8471 38.1549C57.6471 38.1549 57.5471 38.2549 57.3471 38.3549C57.2471 38.4549 57.1471 38.6549 57.1471 38.8549C57.1471 39.0549 57.2471 39.2549 57.3471 39.3549C57.4471 39.4549 57.6471 39.5549 57.8471 39.5549C57.9471 39.5549 58.0471 39.5549 58.0471 39.5549C58.0471 39.5549 58.1471 39.5549 58.1471 39.4549L58.2471 39.3549V39.6549C58.0471 39.7549 57.9471 39.7549 57.7471 39.7549C57.4471 39.7549 57.2471 39.6549 57.0471 39.4549C56.8471 39.2549 56.7471 39.0549 56.7471 38.7549C56.7471 38.5549 56.8471 38.3549 56.9471 38.1549C57.1471 37.9549 57.3471 37.8549 57.6471 37.8549C58.0471 37.9549 58.1471 37.9549 58.3471 38.0549Z" fill="#B3B3B3"/>
<path id="Vector_12" d="M60.1473 38.1549C59.9473 37.9549 59.7473 37.8549 59.4473 37.8549C59.1473 37.8549 58.9473 37.9549 58.7473 38.1549C58.5473 38.3549 58.4473 38.5549 58.4473 38.8549C58.4473 39.1549 58.5473 39.3549 58.7473 39.5549C58.9473 39.7549 59.1473 39.7549 59.3473 39.7549C59.6473 39.7549 59.8473 39.6549 60.0473 39.4549C60.2473 39.2549 60.3473 39.0549 60.3473 38.7549C60.4473 38.5549 60.3473 38.3549 60.1473 38.1549ZM59.9473 39.3549C59.8473 39.4549 59.6473 39.5549 59.4473 39.5549C59.2473 39.5549 59.1473 39.4549 58.9473 39.3549C58.8473 39.2549 58.7473 39.0549 58.7473 38.8549C58.7473 38.6549 58.8473 38.4549 58.9473 38.3549C59.0473 38.2549 59.2473 38.1549 59.4473 38.1549C59.6473 38.1549 59.7473 38.2549 59.9473 38.3549C60.0473 38.4549 60.1473 38.6549 60.1473 38.8549C60.1473 39.0549 60.1473 39.2549 59.9473 39.3549Z" fill="#B3B3B3"/>
<path id="Vector_13" d="M60.7471 39.7549L61.1471 37.8549L61.7471 39.2549L62.3471 37.8549L62.7471 39.7549H62.4471L62.2471 38.6549L61.7471 39.8549L61.2471 38.6549L61.0471 39.7549H60.7471Z" fill="#B3B3B3"/>
<path id="Vector_14" d="M63.9465 38.0549C63.8465 37.9549 63.8465 37.9549 63.7465 37.9549C63.6465 37.9549 63.5465 37.9549 63.4465 37.9549H63.1465V39.7549H63.4465V39.0549H63.5465C63.7465 39.0549 63.8465 39.0549 63.9465 38.9549C64.0465 38.8549 64.1465 38.7549 64.1465 38.5549C64.1465 38.3549 64.0465 38.2549 63.9465 38.0549ZM63.4465 38.7549H63.3465V38.1549H63.4465C63.7465 38.1549 63.8465 38.2549 63.8465 38.4549C63.8465 38.6549 63.7465 38.7549 63.4465 38.7549Z" fill="#B3B3B3"/>
<path id="Vector_15" d="M64.9469 37.8549L64.0469 39.7549H64.3469L64.5469 39.3549H65.3469L65.5469 39.7549H65.8469L64.9469 37.8549ZM64.6469 39.0549L64.9469 38.4549L65.2469 39.0549H64.6469Z" fill="#B3B3B3"/>
<path id="Vector_16" d="M66.0469 39.7549V37.8549L67.3469 39.2549V37.9549H67.6469V39.8549L66.3469 38.4549V39.7549H66.0469Z" fill="#B3B3B3"/>
<path id="Vector_17" d="M68.4467 38.9549L67.8467 37.9549H68.1467L68.5467 38.6549L68.9467 37.9549H69.2467L68.7467 38.9549V39.7549H68.4467V38.9549Z" fill="#B3B3B3"/>
<path id="Vector_18" d="M42.8471 38.9549C42.9471 38.9549 43.0471 38.8549 43.1471 38.7549C43.2471 38.6549 43.2471 38.5549 43.2471 38.4549C43.2471 38.2549 43.1471 38.1549 43.0471 38.0549C42.9471 37.9549 42.7471 37.9549 42.5471 37.9549H42.2471V39.7549H42.5471V39.0549H42.6471L43.1471 39.7549H43.4471L42.8471 38.9549ZM42.5471 38.7549V38.1549H42.6471C42.9471 38.1549 43.0471 38.2549 43.0471 38.4549C43.0471 38.6549 42.9471 38.7549 42.5471 38.7549Z" fill="#B3B3B3"/>
<path id="Vector_19" d="M44.7471 38.2549H44.0471V38.6549H44.7471V38.8549H44.0471V39.5549H44.7471V39.7549H43.7471V37.9549H44.7471V38.2549Z" fill="#B3B3B3"/>
<path id="Vector_20" d="M46.1473 38.2549L45.9473 38.3549C45.9473 38.2549 45.8473 38.2549 45.8473 38.2549C45.8473 38.2549 45.7473 38.2549 45.6473 38.2549C45.5473 38.2549 45.5473 38.2549 45.4473 38.3549C45.4473 38.3549 45.3473 38.4549 45.3473 38.5549C45.3473 38.6549 45.4473 38.7549 45.5473 38.7549L45.7473 38.8549C45.8473 38.9549 46.0473 38.9549 46.0473 39.0549C46.1473 39.1549 46.1473 39.2549 46.1473 39.3549C46.1473 39.5549 46.0473 39.6549 45.9473 39.7549C45.8473 39.8549 45.6473 39.9549 45.5473 39.9549C45.3473 39.9549 45.2473 39.9549 45.1473 39.8549C45.0473 39.7549 44.9473 39.6549 44.9473 39.4549L45.2473 39.3549C45.2473 39.4549 45.2473 39.5549 45.3473 39.5549C45.4473 39.6549 45.4473 39.6549 45.5473 39.6549C45.6473 39.6549 45.7473 39.6549 45.7473 39.5549C45.8473 39.4549 45.8473 39.4549 45.8473 39.3549V39.2549V39.1549C45.8473 39.1549 45.8473 39.1549 45.7473 39.0549C45.7473 39.0549 45.6473 39.0549 45.6473 38.9549L45.4473 38.8549C45.2473 38.7549 45.0473 38.5549 45.0473 38.3549C45.0473 38.2549 45.1473 38.1549 45.2473 38.0549C45.3473 37.9549 45.4473 37.9549 45.6473 37.9549C45.8473 37.9549 45.9473 38.0549 46.1473 38.2549Z" fill="#B3B3B3"/>
<path id="Vector_21" d="M48.0467 38.1549C47.8467 37.9549 47.6467 37.8549 47.3467 37.8549C47.0467 37.8549 46.8467 37.9549 46.6467 38.1549C46.4467 38.3549 46.3467 38.5549 46.3467 38.8549C46.3467 39.1549 46.4467 39.3549 46.6467 39.5549C46.8467 39.7549 47.0467 39.7549 47.2467 39.7549C47.5467 39.7549 47.7467 39.6549 47.9467 39.4549C48.1467 39.2549 48.2467 39.0549 48.2467 38.7549C48.2467 38.5549 48.1467 38.3549 48.0467 38.1549ZM47.8467 39.3549C47.7467 39.4549 47.5467 39.5549 47.3467 39.5549C47.1467 39.5549 47.0467 39.4549 46.8467 39.3549C46.7467 39.2549 46.6467 39.0549 46.6467 38.8549C46.6467 38.6549 46.7467 38.4549 46.8467 38.3549C46.9467 38.2549 47.1467 38.1549 47.3467 38.1549C47.5467 38.1549 47.6467 38.2549 47.8467 38.3549C47.9467 38.4549 48.0467 38.6549 48.0467 38.8549C48.0467 39.0549 47.9467 39.2549 47.8467 39.3549Z" fill="#B3B3B3"/>
<path id="Vector_22" d="M48.9465 37.9549V39.0549C48.9465 39.2549 48.9465 39.3549 49.0465 39.3549C49.1465 39.4549 49.2465 39.5549 49.3465 39.5549C49.4465 39.5549 49.5465 39.4549 49.6465 39.3549C49.7465 39.2549 49.7465 39.1549 49.7465 39.0549V37.9549H50.0465V39.1549C50.0465 39.3549 49.9465 39.4549 49.8465 39.6549C49.7465 39.7549 49.5465 39.8549 49.3465 39.8549C49.1465 39.8549 48.9465 39.7549 48.8465 39.6549C48.7465 39.5549 48.6465 39.3549 48.6465 39.1549V37.9549H48.9465Z" fill="#B3B3B3"/>
<path id="Vector_23" d="M51.0473 38.9549C51.1473 38.9549 51.2473 38.8549 51.3473 38.7549C51.4473 38.6549 51.4473 38.5549 51.4473 38.4549C51.4473 38.2549 51.3473 38.1549 51.2473 38.0549C51.1473 37.9549 50.9473 37.9549 50.7473 37.9549H50.4473V39.7549H50.7473V39.0549L51.2473 39.7549H51.5473L51.0473 38.9549ZM50.6473 38.7549V38.1549H50.7473C51.0473 38.1549 51.1473 38.2549 51.1473 38.4549C51.1473 38.6549 51.0473 38.7549 50.6473 38.7549Z" fill="#B3B3B3"/>
<path id="Vector_24" d="M53.1469 38.0549V38.3549C52.9469 38.2549 52.8469 38.1549 52.6469 38.1549C52.4469 38.1549 52.3469 38.2549 52.1469 38.3549C52.0469 38.4549 51.9469 38.6549 51.9469 38.8549C51.9469 39.0549 52.0469 39.2549 52.1469 39.3549C52.2469 39.4549 52.4469 39.5549 52.6469 39.5549C52.7469 39.5549 52.8469 39.5549 52.8469 39.5549C52.8469 39.5549 52.9469 39.5549 52.9469 39.4549L53.0469 39.3549V39.6549C52.8469 39.7549 52.7469 39.7549 52.5469 39.7549C52.2469 39.7549 52.0469 39.6549 51.8469 39.4549C51.6469 39.2549 51.5469 39.0549 51.5469 38.7549C51.5469 38.5549 51.6469 38.3549 51.7469 38.1549C51.9469 37.9549 52.1469 37.8549 52.4469 37.8549C52.8469 37.9549 52.9469 37.9549 53.1469 38.0549Z" fill="#B3B3B3"/>
<path id="Vector_25" d="M54.4473 38.2549H53.7473V38.6549H54.4473V38.8549H53.7473V39.5549H54.4473V39.7549H53.4473V37.9549H54.4473V38.2549Z" fill="#B3B3B3"/>
<path id="Vector_26" d="M55.8465 38.2549L55.6465 38.3549C55.6465 38.2549 55.5465 38.2549 55.5465 38.2549C55.5465 38.2549 55.4465 38.2549 55.3465 38.2549C55.2465 38.2549 55.2465 38.2549 55.1465 38.3549C55.1465 38.3549 55.0465 38.4549 55.0465 38.5549C55.0465 38.6549 55.1465 38.7549 55.2465 38.7549L55.4465 38.8549C55.5465 38.9549 55.7465 38.9549 55.7465 39.0549C55.8465 39.1549 55.8465 39.2549 55.8465 39.3549C55.8465 39.5549 55.7465 39.6549 55.6465 39.7549C55.5465 39.8549 55.3465 39.9549 55.2465 39.9549C55.0465 39.9549 54.9465 39.9549 54.8465 39.8549C54.7465 39.7549 54.6465 39.6549 54.6465 39.4549L54.9465 39.3549C54.9465 39.4549 54.9465 39.5549 55.0465 39.5549C55.1465 39.6549 55.1465 39.6549 55.2465 39.6549C55.3465 39.6549 55.4465 39.6549 55.4465 39.5549C55.5465 39.4549 55.5465 39.4549 55.5465 39.3549V39.2549V39.1549C55.5465 39.1549 55.5465 39.1549 55.4465 39.0549C55.4465 39.0549 55.3465 39.0549 55.3465 38.9549L55.1465 38.8549C54.9465 38.7549 54.7465 38.5549 54.7465 38.3549C54.7465 38.2549 54.8465 38.1549 54.9465 38.0549C55.0465 37.9549 55.1465 37.9549 55.3465 37.9549C55.5465 37.9549 55.7465 38.0549 55.8465 38.2549Z" fill="#B3B3B3"/>
<path id="Vector_27" d="M26.7469 38.2549L26.5469 38.3549C26.5469 38.2549 26.4469 38.2549 26.4469 38.2549C26.4469 38.2549 26.3469 38.2549 26.2469 38.2549C26.1469 38.2549 26.1469 38.2549 26.0469 38.3549C26.0469 38.3549 25.9469 38.4549 25.9469 38.5549C25.9469 38.6549 26.0469 38.7549 26.1469 38.7549L26.3469 38.8549C26.4469 38.9549 26.6469 38.9549 26.6469 39.0549C26.7469 39.1549 26.7469 39.2549 26.7469 39.3549C26.7469 39.5549 26.6469 39.6549 26.5469 39.7549C26.4469 39.8549 26.2469 39.9549 26.1469 39.9549C25.9469 39.9549 25.8469 39.9549 25.7469 39.8549C25.6469 39.7549 25.5469 39.6549 25.5469 39.4549L25.8469 39.3549C25.8469 39.4549 25.8469 39.5549 25.9469 39.5549C26.0469 39.6549 26.0469 39.6549 26.1469 39.6549C26.2469 39.6549 26.3469 39.6549 26.3469 39.5549C26.4469 39.4549 26.4469 39.4549 26.4469 39.3549V39.2549V39.1549C26.4469 39.1549 26.4469 39.1549 26.3469 39.0549C26.3469 39.0549 26.2469 39.0549 26.2469 38.9549L26.0469 38.8549C25.8469 38.7549 25.6469 38.5549 25.6469 38.3549C25.6469 38.2549 25.7469 38.1549 25.8469 38.0549C25.9469 37.9549 26.0469 37.9549 26.2469 37.9549C26.4469 37.9549 26.6469 38.0549 26.7469 38.2549Z" fill="#B3B3B3"/>
<path id="Vector_28" d="M27.4465 37.9549V39.0549C27.4465 39.2549 27.4465 39.3549 27.5465 39.3549C27.6465 39.4549 27.7465 39.5549 27.8465 39.5549C27.9465 39.5549 28.0465 39.4549 28.1465 39.3549C28.2465 39.2549 28.2465 39.1549 28.2465 39.0549V37.9549H28.5465V39.1549C28.5465 39.3549 28.4465 39.4549 28.3465 39.6549C28.2465 39.7549 28.0465 39.8549 27.8465 39.8549C27.6465 39.8549 27.4465 39.7549 27.3465 39.6549C27.2465 39.5549 27.1465 39.3549 27.1465 39.1549V37.9549H27.4465Z" fill="#B3B3B3"/>
<path id="Vector_29" d="M29.9471 38.2549L29.7471 38.3549C29.7471 38.2549 29.6471 38.2549 29.6471 38.2549C29.6471 38.2549 29.5471 38.2549 29.4471 38.2549C29.3471 38.2549 29.3471 38.2549 29.2471 38.3549C29.2471 38.3549 29.1471 38.4549 29.1471 38.5549C29.1471 38.6549 29.2471 38.7549 29.3471 38.7549L29.5471 38.8549C29.6471 38.9549 29.8471 38.9549 29.8471 39.0549C29.9471 39.1549 29.9471 39.2549 29.9471 39.3549C29.9471 39.5549 29.8471 39.6549 29.7471 39.7549C29.6471 39.8549 29.4471 39.9549 29.3471 39.9549C29.1471 39.9549 29.0471 39.9549 28.9471 39.8549C28.8471 39.7549 28.7471 39.6549 28.7471 39.4549L29.0471 39.3549C29.0471 39.4549 29.0471 39.5549 29.1471 39.5549C29.2471 39.6549 29.2471 39.6549 29.3471 39.6549C29.4471 39.6549 29.5471 39.6549 29.5471 39.5549C29.6471 39.4549 29.6471 39.4549 29.6471 39.3549V39.2549V39.1549C29.6471 39.1549 29.6471 39.1549 29.5471 39.0549C29.5471 39.0549 29.4471 39.0549 29.4471 38.9549L29.2471 38.8549C29.0471 38.7549 28.8471 38.5549 28.8471 38.3549C28.8471 38.2549 28.9471 38.1549 29.0471 38.0549C29.1471 37.9549 29.2471 37.9549 29.4471 37.9549C29.6471 37.9549 29.8471 38.0549 29.9471 38.2549Z" fill="#B3B3B3"/>
<path id="Vector_30" d="M30.8465 38.2549V39.7549H30.5465V38.2549H30.1465V37.9549H31.2465V38.2549H30.8465Z" fill="#B3B3B3"/>
<path id="Vector_31" d="M32.0465 37.8549L31.1465 39.7549H31.4465L31.6465 39.3549H32.4465L32.6465 39.7549H32.9465L32.0465 37.8549ZM31.8465 39.0549L32.1465 38.4549L32.4465 39.0549H31.8465Z" fill="#B3B3B3"/>
<path id="Vector_32" d="M33.4465 37.9549H33.1465V39.7549H33.4465V37.9549Z" fill="#B3B3B3"/>
<path id="Vector_33" d="M33.8467 39.7549V37.8549L35.2467 39.2549V37.9549H35.4467V39.8549L34.1467 38.4549V39.7549H33.8467Z" fill="#B3B3B3"/>
<path id="Vector_34" d="M36.6471 37.8549L35.7471 39.7549H36.0471L36.2471 39.3549H37.0471L37.2471 39.7549H37.5471L36.6471 37.8549ZM36.3471 39.0549L36.6471 38.4549L36.9471 39.0549H36.3471Z" fill="#B3B3B3"/>
<path id="Vector_35" d="M38.6465 38.9549C38.5465 38.8549 38.5465 38.8549 38.4465 38.7549C38.5465 38.6549 38.5465 38.5549 38.5465 38.4549C38.5465 38.3549 38.5465 38.3549 38.5465 38.2549C38.5465 38.1549 38.4465 38.1549 38.4465 38.0549C38.4465 38.0549 38.3465 37.9549 38.2465 37.9549C38.1465 37.9549 38.0465 37.9549 37.9465 37.9549H37.6465V39.7549H38.0465C38.1465 39.7549 38.2465 39.7549 38.3465 39.7549C38.4465 39.7549 38.4465 39.6549 38.5465 39.6549C38.6465 39.5549 38.6465 39.4549 38.6465 39.2549C38.7465 39.1549 38.7465 39.0549 38.6465 38.9549ZM37.9465 38.2549C38.1465 38.2549 38.2465 38.2549 38.2465 38.3549C38.2465 38.3549 38.3465 38.4549 38.3465 38.5549C38.3465 38.6549 38.3465 38.7549 38.2465 38.7549C38.2465 38.7549 38.1465 38.8549 38.0465 38.8549H37.9465V38.2549ZM38.4465 39.4549C38.3465 39.4549 38.3465 39.5549 38.1465 39.5549H37.9465V39.0549H38.0465C38.1465 39.0549 38.2465 39.0549 38.3465 39.1549C38.4465 39.2549 38.4465 39.2549 38.4465 39.3549C38.5465 39.3549 38.4465 39.3549 38.4465 39.4549Z" fill="#B3B3B3"/>
<path id="Vector_36" d="M39.3465 37.9549V39.5549H39.9465V39.7549H39.1465V37.9549H39.3465Z" fill="#B3B3B3"/>
<path id="Vector_37" d="M41.1465 38.2549H40.4465V38.6549H41.1465V38.8549H40.4465V39.5549H41.1465V39.7549H40.1465V37.9549H41.1465V38.2549Z" fill="#B3B3B3"/>
<path id="Vector_38" d="M18.2471 39.7549V37.8549L19.5471 39.2549V37.9549H19.8471V39.8549L18.5471 38.4549V39.7549H18.2471Z" fill="#B3B3B3"/>
<path id="Vector_39" d="M20.7465 38.2549V39.7549H20.5465V38.2549H20.1465V37.9549H21.2465V38.2549H20.7465Z" fill="#B3B3B3"/>
<path id="Vector_40" d="M22.0473 38.9549C22.1473 38.9549 22.2473 38.8549 22.3473 38.7549C22.4473 38.6549 22.4473 38.5549 22.4473 38.4549C22.4473 38.2549 22.3473 38.1549 22.2473 38.0549C22.1473 37.9549 21.9473 37.9549 21.7473 37.9549H21.4473V39.7549H21.7473V39.0549L22.2473 39.7549H22.5473L22.0473 38.9549ZM21.7473 38.7549V38.1549H21.8473C22.1473 38.1549 22.2473 38.2549 22.2473 38.4549C22.2473 38.6549 22.0473 38.7549 21.7473 38.7549Z" fill="#B3B3B3"/>
<path id="Vector_41" d="M24.3465 38.1549C24.1465 37.9549 23.9465 37.8549 23.6465 37.8549C23.3465 37.8549 23.1465 37.9549 22.9465 38.1549C22.7465 38.3549 22.6465 38.5549 22.6465 38.8549C22.6465 39.1549 22.7465 39.3549 22.9465 39.5549C23.1465 39.7549 23.3465 39.7549 23.5465 39.7549C23.8465 39.7549 24.0465 39.6549 24.2465 39.4549C24.4465 39.2549 24.5465 39.0549 24.5465 38.7549C24.6465 38.5549 24.5465 38.3549 24.3465 38.1549ZM24.1465 39.3549C24.0465 39.4549 23.8465 39.5549 23.6465 39.5549C23.4465 39.5549 23.3465 39.4549 23.1465 39.3549C23.0465 39.2549 22.9465 39.0549 22.9465 38.8549C22.9465 38.6549 23.0465 38.4549 23.1465 38.3549C23.2465 38.2549 23.4465 38.1549 23.6465 38.1549C23.8465 38.1549 23.9465 38.2549 24.1465 38.3549C24.2465 38.4549 24.3465 38.6549 24.3465 38.8549C24.3465 39.0549 24.3465 39.2549 24.1465 39.3549Z" fill="#B3B3B3"/>
<path id="Client Logo_2" d="M13.7467 37.8549L12.8467 39.7549H13.1467L13.3467 39.3549H14.1467L14.3467 39.7549H14.6467L13.7467 37.8549ZM13.4467 39.0549L13.7467 38.4549L14.0467 39.0549H13.4467Z" fill="#B3B3B3"/>
<path id="Client Logo_3" d="M14.8467 39.7549V37.8549L16.1467 39.2549V37.9549H16.3467V39.8549L15.0467 38.4549V39.7549H14.8467Z" fill="#B3B3B3"/>
<path id="Client Logo_4" d="M17.8469 37.9549H17.5469V39.7549H17.8469V37.9549Z" fill="#B3B3B3"/>
</g>
</svg>
