<svg width="88" height="58" viewBox="0 0 88 58" fill="none" xmlns="http://www.w3.org/2000/svg">
<g id="Client Logo">
<path id="Vector" d="M87.6469 0.254883H0.046875V57.2549H87.6469V0.254883Z" fill="white"/>
<path id="Vector_2" d="M7.24707 31.0549H10.347C12.447 31.0549 13.8471 30.9549 14.9471 29.9549C15.7471 29.0549 16.1471 27.9549 16.1471 26.7549C16.1471 24.7549 15.047 23.2549 13.347 23.0549C14.747 22.6549 15.5471 21.5549 15.5471 19.9549C15.5471 18.6549 15.0471 17.5549 14.0471 16.7549C13.1471 16.0549 11.947 16.0549 10.347 16.0549H7.24707V31.0549ZM8.94708 23.9549H10.847C11.747 23.9549 12.4471 23.9549 13.0471 24.3549C13.8471 24.8549 14.2471 25.6549 14.2471 26.7549C14.2471 27.6549 13.9471 28.4549 13.2471 28.9549C12.6471 29.4549 11.6471 29.4549 10.2471 29.4549H8.94708V23.9549ZM8.94708 17.4549H10.2471C12.5471 17.4549 13.6471 17.8549 13.6471 20.0549C13.6471 21.8549 12.6471 22.4549 10.2471 22.4549H8.94708V17.4549Z" fill="#004C97"/>
<path id="Vector_3" d="M19.5473 15.8549C20.1473 15.8549 20.7473 16.4549 20.7473 17.0549C20.7473 17.6549 20.2473 18.2549 19.5473 18.2549C18.9473 18.2549 18.3473 17.7549 18.4473 17.0549C18.3473 16.3549 18.8473 15.8549 19.5473 15.8549ZM18.7473 21.5549H20.3473V31.0549H18.7473V21.5549Z" fill="#004C97"/>
<path id="Vector_4" d="M22.9473 26.3549C22.9473 29.1549 25.1473 31.4549 27.9473 31.4549C29.2473 31.4549 30.5473 30.8549 31.4473 29.9549C32.3473 29.0549 32.9473 27.7549 32.9473 26.3549C32.9473 23.5549 30.7473 21.2549 27.9473 21.2549C26.6473 21.2549 25.3473 21.7549 24.4473 22.7549C23.4473 23.6549 22.8473 24.9549 22.9473 26.3549ZM24.5473 26.3549C24.5473 24.3549 26.0473 22.7549 27.8473 22.7549C29.6473 22.7549 31.1474 24.3549 31.1474 26.3549C31.1474 28.2549 29.6473 29.7549 27.8473 29.7549C26.0473 29.7549 24.5473 28.2549 24.5473 26.3549Z" fill="#004C97"/>
<path id="Vector_5" d="M36.9473 15.8549H35.4473V31.0549H36.9473V15.8549Z" fill="#004C97"/>
<path id="Vector_6" d="M39.6465 26.3549C39.6465 29.1549 41.9465 31.4549 44.6465 31.4549C47.4465 31.4549 49.6465 29.1549 49.6465 26.3549C49.6465 23.5549 47.4465 21.2549 44.6465 21.2549C43.3465 21.2549 42.0464 21.7549 41.0464 22.7549C40.1464 23.6549 39.6465 24.9549 39.6465 26.3549ZM41.3464 26.3549C41.2464 24.4549 42.7465 22.8549 44.6465 22.7549C44.6465 22.7549 44.6465 22.7549 44.7465 22.7549C46.5465 22.7549 48.0464 24.3549 48.0464 26.3549C48.0464 28.2549 46.5465 29.7549 44.7465 29.7549C42.9465 29.7549 41.3464 28.2549 41.3464 26.3549Z" fill="#004C97"/>
<path id="Vector_7" d="M60.7473 21.5549H59.1473V23.3549C58.5473 22.0549 57.2473 21.1549 55.7473 21.2549C53.1473 21.2549 51.4473 23.1549 51.4473 26.2549C51.4473 29.3549 53.2472 31.3549 55.8472 31.3549C57.2472 31.3549 58.5473 30.5549 59.1473 29.2549V30.8549C59.1473 31.7549 59.1473 32.4549 58.7473 33.0549C58.2473 33.8549 57.3473 34.3549 56.1473 34.3549C54.3473 34.3549 53.4473 33.5549 53.4473 32.1549V32.0549H51.6473C51.7473 34.4549 53.3473 35.8549 56.1473 35.8549C57.7473 35.8549 59.0472 35.3549 59.8472 34.4549C60.6472 33.5549 60.7473 32.4549 60.7473 31.0549V21.5549ZM59.1473 26.3549C59.1473 28.5549 57.9473 29.8549 56.1473 29.8549C54.1473 29.8549 53.0472 28.5549 53.0472 26.2549C53.0472 24.0549 54.1472 22.8549 56.0472 22.8549C57.8472 22.7549 59.1473 24.1549 59.1473 26.3549Z" fill="#004C97"/>
<path id="Vector_8" d="M64.7467 15.7549C65.3467 15.7549 65.9467 16.3549 65.9467 16.9549C65.9467 17.5549 65.4467 18.1549 64.7467 18.1549C64.1467 18.1549 63.5467 17.6549 63.6467 16.9549C63.6467 16.3549 64.1467 15.8549 64.7467 15.7549ZM63.9467 21.5549H65.5467V31.0549H63.9467V21.5549Z" fill="#004C97"/>
<path id="Vector_9" d="M20.7467 17.0549C20.7467 17.7549 20.1467 18.2549 19.5467 18.2549C18.9467 18.2549 18.3467 17.6549 18.3467 17.0549C18.3467 16.3549 18.8467 15.8549 19.5467 15.8549C20.1467 15.7549 20.7467 16.3549 20.7467 17.0549Z" fill="#004C97"/>
<path id="Vector_10" d="M76.2471 19.8549L76.4471 19.7549C75.0471 20.4549 73.6471 21.2549 72.2471 22.1549C72.5471 22.3549 72.7471 22.5549 72.9471 22.8549C73.9471 21.7549 75.0471 20.7549 76.2471 19.8549Z" fill="#00966C"/>
<path id="Vector_11" d="M63.1465 35.1549C65.7465 34.1549 68.2465 32.9549 70.6465 31.4549C70.3465 31.2549 70.1465 31.0549 69.9465 30.7549C68.5465 32.1549 66.3465 33.6549 63.1465 35.1549Z" fill="#0C4E96"/>
<path id="Vector_12" d="M70.9467 29.3549C74.9467 24.4549 68.7467 19.9549 65.8467 18.5549C72.4467 20.6549 79.4467 24.5549 72.3467 30.2549L71.6467 30.7549C71.4467 30.4549 71.2467 30.1549 71.1467 29.8549" fill="#0C4E96"/>
<path id="Vector_13" d="M71.3467 30.2549C70.3467 28.4549 70.8467 27.0549 71.1467 25.7549C71.2467 25.4549 71.4467 25.0549 71.5467 24.7549C71.6467 24.5549 71.7467 24.4549 71.8467 24.3549L71.6467 23.7549C71.5467 23.4549 71.1467 22.9549 71.1467 22.9549L70.4467 23.4549C60.8467 31.4549 78.5467 35.4549 80.4467 35.7549C75.1467 34.1549 72.4467 32.2549 71.3467 30.2549Z" fill="#00966C"/>
<path id="Vector_14" d="M7.74707 39.6549H7.84705C8.04705 39.6549 8.24708 39.6549 8.44708 39.5549C8.54708 39.4549 8.64706 39.3549 8.54706 39.2549C8.54706 39.1549 8.54705 38.9549 8.34705 38.8549C8.14705 38.7549 7.94707 38.7549 7.74707 38.7549H7.64709V39.6549H7.74707ZM7.74707 40.0549V41.5549H7.24707V38.3549H8.04706C8.24706 38.3549 8.34706 38.3549 8.54706 38.3549C8.64706 38.3549 8.74705 38.4549 8.84705 38.4549C8.94705 38.5549 9.04706 38.6549 9.04706 38.7549C9.14706 38.8549 9.14709 39.0549 9.14709 39.1549C9.14709 39.2549 9.14706 39.4549 9.04706 39.5549C8.94706 39.6549 8.94705 39.7549 8.84705 39.8549C8.74705 39.9549 8.64706 39.9549 8.54706 39.9549C8.34706 39.9549 8.24706 39.9549 8.04706 39.9549H7.74707V40.0549Z" fill="#00966C"/>
<path id="Vector_15" d="M10.1475 38.3549H9.64746V41.6549H10.1475V38.3549Z" fill="#00966C"/>
<path id="Vector_16" d="M13.647 39.9549C13.647 39.6549 13.5469 39.3549 13.3469 39.0549C13.2469 38.9549 13.147 38.8549 12.947 38.7549C12.647 38.6549 12.3469 38.6549 12.0469 38.7549C11.9469 38.8549 11.747 38.9549 11.647 39.0549C11.547 39.1549 11.4469 39.3549 11.3469 39.4549C11.1469 39.9549 11.247 40.4549 11.647 40.7549C11.747 40.8549 11.8469 40.9549 12.0469 41.0549C12.3469 41.1549 12.647 41.1549 12.947 41.0549C13.047 40.9549 13.2469 40.8549 13.3469 40.7549C13.5469 40.5549 13.647 40.2549 13.647 39.9549ZM14.147 39.9549C14.147 40.1549 14.1469 40.3549 14.0469 40.6549C13.9469 40.8549 13.847 41.0549 13.647 41.2549C13.447 41.4549 13.3469 41.5549 13.0469 41.6549C12.6469 41.8549 12.147 41.8549 11.747 41.6549C11.547 41.5549 11.347 41.4549 11.147 41.2549C10.647 40.7549 10.547 40.0549 10.747 39.3549C10.847 39.1549 10.947 38.9549 11.147 38.7549C11.447 38.4549 11.9469 38.2549 12.3469 38.2549C12.5469 38.2549 12.7469 38.2549 13.0469 38.3549C13.2469 38.4549 13.447 38.5549 13.647 38.7549C13.847 38.9549 13.9469 39.0549 14.0469 39.3549C14.1469 39.4549 14.147 39.6549 14.147 39.9549Z" fill="#00966C"/>
<path id="Vector_17" d="M14.7471 41.5549V38.1549L16.7471 40.1549C16.8471 40.2549 16.8471 40.2549 16.9471 40.3549C17.0471 40.4549 17.0471 40.4549 17.1471 40.5549V38.3549H17.6471V41.7549L15.5471 39.7549C15.4471 39.6549 15.447 39.6549 15.347 39.5549C15.247 39.4549 15.2471 39.4549 15.2471 39.3549V41.5549H14.7471Z" fill="#00966C"/>
<path id="Vector_18" d="M18.3467 41.5549V38.2549H20.1467V38.7549H18.8467V39.5549H20.1467V40.0549H18.8467V41.0549H20.1467V41.5549H18.3467Z" fill="#00966C"/>
<path id="Vector_19" d="M20.7471 41.5549V38.2549H22.5471V38.7549H21.2471V39.5549H22.5471V40.0549H21.2471V41.0549H22.5471V41.5549H20.7471Z" fill="#00966C"/>
<path id="Vector_20" d="M23.6465 39.6549C23.9465 39.6549 24.1464 39.6549 24.3464 39.5549C24.4464 39.4549 24.5465 39.3549 24.4465 39.2549C24.4465 39.1549 24.4464 38.9549 24.3464 38.8549C24.1464 38.7549 23.9464 38.7549 23.8464 38.7549H23.7465L23.6465 39.6549ZM23.6465 40.0549V41.5549H23.1465V38.3549H23.8464C24.0464 38.3549 24.1464 38.3549 24.3464 38.3549C24.4464 38.3549 24.5465 38.4549 24.6465 38.4549C24.7465 38.5549 24.8464 38.6549 24.8464 38.7549C24.9464 38.8549 24.9465 39.0549 24.9465 39.1549C24.9465 39.3549 24.8465 39.5549 24.7465 39.7549C24.6465 39.9549 24.4465 40.0549 24.2465 40.0549L25.3464 41.5549H24.7465L23.6465 40.0549Z" fill="#00966C"/>
<path id="Vector_21" d="M26.1475 38.3549H25.6475V41.6549H26.1475V38.3549Z" fill="#00966C"/>
<path id="Vector_22" d="M26.9473 41.5549V38.1549L28.9473 40.1549L29.1473 40.3549L29.3472 40.5549V38.3549H29.8472V41.7549L27.7473 39.7549C27.6473 39.6549 27.6472 39.6549 27.5472 39.5549C27.4472 39.4549 27.4473 39.4549 27.4473 39.3549V41.5549H26.9473Z" fill="#00966C"/>
<path id="Vector_23" d="M32.2467 39.8549H33.5467V39.9549V40.1549C33.5467 40.5549 33.4467 40.9549 33.1467 41.2549C32.8467 41.5549 32.4467 41.6549 32.0467 41.6549C31.8467 41.6549 31.5467 41.6549 31.3467 41.5549C31.1467 41.4549 30.9467 41.3549 30.8467 41.1549C30.6467 40.9549 30.5467 40.8549 30.4467 40.5549C30.3467 40.3549 30.3467 40.1549 30.3467 39.8549C30.3467 39.6549 30.3467 39.3549 30.4467 39.1549C30.5467 38.9549 30.6467 38.7549 30.8467 38.6549C31.0467 38.4549 31.1467 38.3549 31.3467 38.2549C31.5467 38.1549 31.7467 38.1549 32.0467 38.1549C32.2467 38.1549 32.5467 38.1549 32.7467 38.2549C32.9467 38.3549 33.1467 38.5549 33.2467 38.7549L32.8467 39.0549C32.7467 38.9549 32.6467 38.8549 32.4467 38.7549C32.3467 38.6549 32.1467 38.6549 31.9467 38.6549C31.6467 38.6549 31.3467 38.7549 31.1467 38.9549C30.9467 39.1549 30.8467 39.4549 30.8467 39.8549C30.8467 40.1549 30.9467 40.5549 31.1467 40.7549C31.3467 40.9549 31.6467 41.1549 32.0467 41.0549C32.3467 41.0549 32.5467 40.9549 32.7467 40.8549C32.9467 40.7549 33.0467 40.4549 33.0467 40.2549H32.2467V39.8549Z" fill="#00966C"/>
<path id="Vector_24" d="M34.0469 41.3549C34.0469 41.2549 34.0469 41.1549 34.1469 41.1549C34.2469 41.0549 34.4469 41.0549 34.5469 41.1549C34.6469 41.2549 34.6469 41.2549 34.6469 41.3549C34.6469 41.4549 34.6469 41.5549 34.5469 41.5549C34.4469 41.6549 34.2469 41.6549 34.1469 41.5549C34.0469 41.4549 34.0469 41.3549 34.0469 41.3549Z" fill="#00966C"/>
<path id="Vector_25" d="M35.3467 41.5549V38.2549H35.8467V41.0549H37.0467V41.5549H35.3467Z" fill="#00966C"/>
<path id="Vector_26" d="M37.4473 41.5549V38.2549H39.2473V38.7549H37.9473V39.5549H39.2473V40.0549H37.9473V41.0549H39.2473V41.5549H37.4473Z" fill="#00966C"/>
<path id="Vector_27" d="M40.4467 40.2549H41.3467L41.0467 39.5549C41.0467 39.5549 41.0467 39.4549 40.9467 39.3549C40.9467 39.2549 40.9467 39.2549 40.8467 39.1549C40.8467 39.2549 40.8467 39.2549 40.7467 39.3549C40.6467 39.4549 40.7467 39.4549 40.6467 39.5549L40.4467 40.2549ZM41.9467 41.5549L41.5467 40.7549H40.2467L39.8467 41.5549H39.3467L40.8467 38.1549L42.3467 41.5549H41.9467Z" fill="#00966C"/>
<path id="Vector_28" d="M43.2471 41.0549H43.6471C43.8471 41.0549 44.0471 41.0549 44.1471 41.0549C44.2471 41.0549 44.3471 40.9549 44.4471 40.8549C44.5471 40.7549 44.6471 40.6549 44.7471 40.4549C44.8471 40.0549 44.8471 39.7549 44.7471 39.3549C44.6471 39.2549 44.5471 39.0549 44.4471 38.9549C44.3471 38.8549 44.2471 38.8549 44.1471 38.7549C43.9471 38.7549 43.7471 38.6549 43.5471 38.7549H43.1471L43.2471 41.0549ZM42.7471 41.5549V38.3549H43.4471C43.7471 38.3549 44.0471 38.3549 44.4471 38.4549C44.6471 38.4549 44.7471 38.5549 44.9471 38.6549C45.1471 38.8549 45.247 38.9549 45.347 39.2549C45.547 39.7549 45.547 40.2549 45.347 40.7549C45.247 40.9549 45.1471 41.1549 44.9471 41.3549C44.8471 41.4549 44.6471 41.5549 44.4471 41.5549C44.1471 41.6549 43.8471 41.6549 43.6471 41.6549L42.7471 41.5549Z" fill="#00966C"/>
<path id="Vector_29" d="M46.5469 38.3549H46.0469V41.6549H46.5469V38.3549Z" fill="#00966C"/>
<path id="Vector_30" d="M47.3467 41.5549V38.1549L49.3467 40.1549C49.4467 40.2549 49.4467 40.2549 49.5467 40.3549C49.6467 40.4549 49.6467 40.4549 49.7467 40.5549V38.3549H50.2467V41.7549L48.1467 39.7549C48.0467 39.6549 48.0467 39.6549 47.9467 39.5549C47.8467 39.4549 47.8467 39.4549 47.8467 39.3549V41.5549H47.3467Z" fill="#00966C"/>
<path id="Vector_31" d="M52.7467 39.8549H54.0467V39.9549V40.1549C54.0467 40.5549 53.9467 40.9549 53.6467 41.2549C53.3467 41.5549 52.9467 41.6549 52.5467 41.6549C52.3467 41.6549 52.0467 41.6549 51.8467 41.5549C51.6467 41.4549 51.4467 41.3549 51.3467 41.1549C51.1467 40.9549 51.0467 40.8549 50.9467 40.5549C50.8467 40.3549 50.8467 40.1549 50.8467 39.8549C50.8467 39.6549 50.8467 39.3549 50.9467 39.1549C51.0467 38.9549 51.1467 38.7549 51.3467 38.6549C51.5467 38.4549 51.6467 38.3549 51.8467 38.2549C52.0467 38.1549 52.2467 38.1549 52.5467 38.1549C52.7467 38.1549 53.0467 38.1549 53.2467 38.2549C53.4467 38.3549 53.6467 38.5549 53.8467 38.7549L53.4467 39.0549C53.3467 38.9549 53.2467 38.8549 53.0467 38.7549C52.9467 38.6549 52.7467 38.6549 52.5467 38.6549C52.2467 38.6549 51.9467 38.7549 51.7467 38.9549C51.5467 39.1549 51.4467 39.5549 51.4467 39.8549C51.4467 40.1549 51.5467 40.5549 51.7467 40.7549C51.9467 40.9549 52.2467 41.1549 52.6467 41.0549C52.9467 41.0549 53.1467 40.9549 53.3467 40.8549C53.5467 40.7549 53.6467 40.4549 53.6467 40.2549H52.8467V39.8549H52.7467Z" fill="#00966C"/>
<path id="Vector_32" d="M54.4473 41.3549C54.4473 41.2549 54.4472 41.1549 54.5472 41.1549C54.6472 41.0549 54.8473 41.0549 54.9473 41.1549C55.0473 41.2549 55.0472 41.2549 55.0472 41.3549C55.0472 41.4549 55.0473 41.5549 54.9473 41.5549C54.8473 41.6549 54.6472 41.6549 54.5472 41.5549C54.4472 41.4549 54.4473 41.3549 54.4473 41.3549Z" fill="#00966C"/>
<path id="Vector_33" d="M79.9473 41.3549C79.9473 41.2549 79.9472 41.1549 80.0472 41.1549C80.1472 41.0549 80.3473 41.0549 80.4473 41.1549C80.5473 41.2549 80.5472 41.2549 80.5472 41.3549C80.5472 41.4549 80.5473 41.5549 80.4473 41.5549C80.3473 41.6549 80.1472 41.6549 80.0472 41.5549C79.9472 41.4549 79.9473 41.3549 79.9473 41.3549Z" fill="#00966C"/>
<path id="Vector_34" d="M55.7471 41.5549V38.2549H57.5471V38.7549H56.347V39.5549H57.5471V40.0549H56.347V41.0549H57.5471V41.5549H55.7471Z" fill="#00966C"/>
<path id="Vector_35" d="M58.1465 41.5549V38.1549L60.1465 40.1549C60.2465 40.2549 60.2464 40.2549 60.3464 40.3549C60.4464 40.4549 60.4464 40.4549 60.5464 40.5549V38.3549H61.0464V41.7549L58.9465 39.7549C58.8465 39.6549 58.8465 39.6549 58.7465 39.5549C58.6465 39.4549 58.6465 39.4549 58.6465 39.3549V41.5549H58.1465Z" fill="#00966C"/>
<path id="Vector_36" d="M63.5471 39.8549H64.847V39.9549V40.1549C64.847 40.5549 64.7471 40.9549 64.4471 41.2549C64.1471 41.5549 63.747 41.6549 63.347 41.6549C63.147 41.6549 62.8471 41.6549 62.6471 41.5549C62.4471 41.4549 62.2471 41.3549 62.1471 41.1549C61.9471 40.9549 61.847 40.8549 61.847 40.5549C61.747 40.3549 61.7471 40.1549 61.7471 39.8549C61.7471 39.6549 61.747 39.3549 61.847 39.1549C61.947 38.9549 62.0471 38.7549 62.2471 38.6549C62.4471 38.4549 62.5471 38.3549 62.7471 38.2549C62.9471 38.1549 63.1471 38.1549 63.4471 38.1549C63.6471 38.1549 63.9471 38.1549 64.1471 38.2549C64.3471 38.3549 64.5471 38.5549 64.6471 38.7549L64.2471 39.0549C64.1471 38.9549 64.047 38.8549 63.847 38.7549C63.447 38.5549 62.8471 38.6549 62.5471 38.9549C62.3471 39.1549 62.2471 39.5549 62.2471 39.8549C62.2471 40.1549 62.3471 40.5549 62.5471 40.7549C62.7471 40.9549 63.0471 41.1549 63.4471 41.0549C63.7471 41.0549 63.9471 40.9549 64.1471 40.8549C64.3471 40.7549 64.4471 40.4549 64.4471 40.2549H63.6471V39.8549H63.5471Z" fill="#00966C"/>
<path id="Vector_37" d="M66.0467 40.2549H66.9467L66.6467 39.5549C66.6467 39.4549 66.6467 39.4549 66.5467 39.3549C66.5467 39.2549 66.5467 39.2549 66.4467 39.1549C66.4467 39.2549 66.4467 39.2549 66.3467 39.3549C66.3467 39.4549 66.3467 39.4549 66.2467 39.5549L66.0467 40.2549ZM67.4467 41.5549L67.0467 40.7549H65.7467L65.3467 41.5549H64.8467L66.3467 38.1549L67.8467 41.5549H67.4467Z" fill="#00966C"/>
<path id="Vector_38" d="M70.0464 39.8549H71.3464V39.9549V40.1549C71.3464 40.5549 71.2465 40.9549 70.9465 41.2549C70.6465 41.5549 70.2464 41.6549 69.8464 41.6549C69.6464 41.6549 69.3465 41.6549 69.1465 41.5549C68.9465 41.4549 68.7465 41.3549 68.6465 41.1549C68.4465 40.9549 68.3465 40.8549 68.2465 40.5549C68.1465 40.3549 68.1465 40.1549 68.1465 39.8549C68.1465 39.6549 68.1465 39.3549 68.2465 39.1549C68.3465 38.9549 68.4465 38.7549 68.6465 38.6549C68.8465 38.4549 68.9465 38.3549 69.1465 38.2549C69.3465 38.1549 69.5464 38.1549 69.8464 38.1549C70.0464 38.1549 70.3464 38.1549 70.5464 38.2549C70.7464 38.3549 70.9464 38.5549 71.0464 38.7549L70.6465 39.0549C70.5465 38.9549 70.4465 38.8549 70.2465 38.7549C69.8465 38.5549 69.2465 38.6549 68.9465 38.9549C68.7465 39.1549 68.6465 39.5549 68.6465 39.8549C68.6465 40.1549 68.7465 40.5549 68.9465 40.7549C69.1465 40.9549 69.4464 41.1549 69.8464 41.0549C70.1464 41.0549 70.3464 40.9549 70.5464 40.8549C70.7464 40.7549 70.8464 40.4549 70.8464 40.2549H70.0464V39.8549Z" fill="#00966C"/>
<path id="Vector_39" d="M72.3467 38.3549H71.8467V41.6549H72.3467V38.3549Z" fill="#00966C"/>
<path id="Vector_40" d="M73.1465 41.5549V38.1549L75.1465 40.1549C75.2465 40.2549 75.2464 40.2549 75.3464 40.3549C75.4464 40.4549 75.4464 40.4549 75.5464 40.5549V38.3549H76.0464V41.7549L73.9465 39.7549C73.8465 39.6549 73.8465 39.6549 73.7465 39.5549C73.6465 39.4549 73.6465 39.4549 73.6465 39.3549V41.5549H73.1465Z" fill="#00966C"/>
<path id="Vector_41" d="M78.4465 39.8549H79.7465V39.9549V40.1549C79.7465 40.5549 79.6464 40.9549 79.3464 41.2549C79.0464 41.5549 78.6465 41.6549 78.2465 41.6549C78.0465 41.6549 77.7464 41.6549 77.5464 41.5549C77.3464 41.4549 77.1464 41.3549 77.0464 41.1549C76.8464 40.9549 76.7465 40.8549 76.7465 40.5549C76.6465 40.3549 76.6465 40.1549 76.6465 39.8549C76.6465 39.6549 76.6465 39.3549 76.7465 39.1549C76.8465 38.9549 76.9465 38.7549 77.1465 38.6549C77.3465 38.4549 77.4465 38.3549 77.6465 38.2549C77.8465 38.1549 78.0464 38.1549 78.3464 38.1549C78.5464 38.1549 78.8464 38.1549 79.0464 38.2549C79.2464 38.3549 79.4464 38.5549 79.5464 38.7549L79.1465 39.0549C79.0465 38.9549 78.9465 38.8549 78.7465 38.7549C78.6465 38.6549 78.4465 38.6549 78.2465 38.6549C77.9465 38.6549 77.6465 38.7549 77.4465 38.9549C77.2465 39.1549 77.1465 39.5549 77.1465 39.8549C77.1465 40.1549 77.2465 40.5549 77.4465 40.7549C77.6465 40.9549 77.9464 41.1549 78.3464 41.0549C78.6464 41.0549 78.8464 40.9549 79.0464 40.8549C79.2464 40.7549 79.3464 40.4549 79.3464 40.2549H78.5464L78.4465 39.8549Z" fill="#00966C"/>
</g>
</svg>
