<svg width="89" height="58" viewBox="0 0 89 58" fill="none" xmlns="http://www.w3.org/2000/svg">
<g id="Client Logo">
<path id="Vector" d="M88.2475 0.254883H0.647461V57.2549H88.2475V0.254883Z" fill="white"/>
<path id="Vector_2" d="M84.8473 14.7549H3.94727V42.8549H84.8473V14.7549Z" fill="white"/>
<path id="Vector_3" d="M4.64728 15.3549H84.2473V42.2549H4.64728V15.3549ZM3.94727 42.8549H84.8473V14.7549H3.94727V42.8549Z" fill="#B8A265"/>
<path id="Vector_4" d="M82.9476 16.4549H5.84766V41.0549H82.9476V16.4549Z" fill="#777C78"/>
<path id="Vector_5" fill-rule="evenodd" clip-rule="evenodd" d="M54.1476 37.7549C54.7476 37.7549 55.1476 37.7549 55.4476 37.5549C55.4476 37.8549 55.3477 38.1549 55.0477 38.1549H52.5477L52.4476 37.9549C52.6476 37.9549 52.7477 37.7549 52.7477 37.5549V34.2549C52.7477 34.0549 52.6476 33.8549 52.4476 33.8549L52.5477 33.6549C52.6477 33.7549 52.8477 33.7549 53.0477 33.7549C53.1477 33.7549 53.3477 33.7549 53.5477 33.6549V33.8549C53.3477 33.8549 53.2477 34.0549 53.2477 34.2549V37.7549H54.1476ZM43.8477 33.6549H41.0477C40.7477 33.6549 40.6476 33.9549 40.6476 34.1549L40.7477 34.2549C40.8477 34.0549 40.9476 34.0549 41.1476 34.0549H42.1476V37.5549C42.1476 37.7549 42.0477 37.9549 41.8477 37.9549V38.1549C42.0477 38.1549 42.2477 38.0549 42.3477 38.0549C42.5477 38.0549 42.7477 38.1549 42.8477 38.1549L42.9476 37.9549C42.7476 37.9549 42.6476 37.7549 42.6476 37.5549V34.0549H43.5477C43.8477 34.0549 43.9477 34.0549 44.0477 34.2549L44.1476 34.1549C44.1476 33.9549 44.1477 33.6549 43.8477 33.6549ZM49.5477 37.5549C49.3477 37.7549 48.9477 37.7549 48.2477 37.7549H47.4476V35.8549H48.2477C48.4477 35.8549 48.9476 35.8549 49.1476 35.9549V35.5549H47.4476V34.0549H48.5477C48.8477 34.0549 49.0477 34.0549 49.0477 34.2549H49.1476C49.2476 34.1549 49.2477 33.8549 49.2477 33.6549H46.6476L46.5477 33.8549C46.7477 33.8549 46.8477 34.0549 46.8477 34.2549V37.5549C46.8477 37.7549 46.7477 37.9549 46.5477 37.9549L46.6476 38.1549H49.2477C49.4477 38.1549 49.5477 37.8549 49.5477 37.5549ZM31.0477 35.3549C31.0477 35.5549 30.9476 35.5549 30.6476 35.5549H29.7477C29.4477 35.5549 29.1476 35.6549 28.9476 35.7549V34.2549C28.9476 34.0549 29.0477 33.8549 29.2477 33.8549L29.1476 33.6549C29.0476 33.7549 28.8476 33.7549 28.6476 33.7549C28.5476 33.7549 28.3476 33.7549 28.1476 33.6549V33.8549C28.3476 33.8549 28.4476 34.0549 28.4476 34.2549V37.5549C28.4476 37.7549 28.3476 37.9549 28.1476 37.9549V38.1549C28.3476 38.1549 28.5476 38.0549 28.6476 38.0549C28.8476 38.0549 29.0476 38.1549 29.1476 38.1549L29.2477 37.9549C29.0477 37.9549 28.9476 37.7549 28.9476 37.5549V36.2549C28.9476 36.0549 29.0477 36.0549 29.3477 36.0549H30.2477C30.5477 36.0549 30.8477 35.9549 31.0477 35.8549V37.5549C31.0477 37.7549 30.9477 37.9549 30.7477 37.9549L30.8477 38.1549C30.9477 38.1549 31.2477 38.0549 31.3477 38.0549C31.4477 38.0549 31.7477 38.1549 31.8477 38.1549L31.9476 37.9549C31.7476 37.9549 31.5477 37.7549 31.5477 37.5549V34.2549C31.5477 34.0549 31.7476 33.8549 31.9476 33.8549L31.8477 33.6549C31.7477 33.7549 31.4477 33.7549 31.3477 33.7549C31.2477 33.7549 30.9477 33.7549 30.8477 33.6549L30.7477 33.8549C30.9477 33.8549 31.0477 34.0549 31.0477 34.2549V35.3549ZM57.8477 37.2549V37.6549C57.8477 38.0549 58.3477 38.1549 58.8477 38.1549C59.5477 38.1549 60.0477 37.7549 60.0477 37.0549C60.0477 35.8549 58.3477 35.5549 58.3477 34.5549C58.3477 34.1549 58.6477 33.9549 59.0477 33.9549C59.3477 33.9549 59.5477 34.0549 59.7477 34.4549L59.8477 34.3549C59.9477 34.2549 59.9477 33.9549 59.8477 33.8549C59.6477 33.7549 59.3477 33.6549 59.0477 33.6549C58.4477 33.6549 57.9476 34.0549 57.9476 34.7549C57.9476 35.8549 59.6476 36.1549 59.6476 37.1549C59.6476 37.6549 59.2476 37.8549 58.9476 37.8549C58.4476 37.8549 58.0476 37.5549 57.9476 37.2549H57.8477ZM34.4476 35.8549C34.4476 34.6549 35.3477 33.6549 36.5477 33.6549C37.6477 33.6549 38.5477 34.6549 38.5477 35.8549C38.5477 37.0549 37.6477 38.0549 36.5477 38.0549C35.3477 38.1549 34.4476 37.1549 34.4476 35.8549ZM35.0477 35.7549C35.0477 36.5549 35.5476 37.7549 36.6476 37.7549C37.3476 37.7549 38.0477 37.0549 38.0477 35.9549C38.0477 35.1549 37.5476 33.9549 36.4476 33.9549C35.6476 33.9549 35.0477 34.6549 35.0477 35.7549ZM62.6476 28.1549C62.0476 28.1549 60.5476 28.0549 59.9476 28.0549L59.8477 27.8549C60.1477 27.7549 60.3477 27.5549 60.3477 27.1549V21.7549C60.3477 21.4549 60.1477 21.2549 59.8477 21.1549L59.9476 20.8549C60.6476 20.8549 62.0477 20.7549 62.5477 20.7549C64.7477 20.7549 66.2477 21.8549 66.2477 24.5549C66.2477 26.7549 64.6476 28.1549 62.6476 28.1549ZM62.5477 27.6549C64.3477 27.6549 65.3477 26.3549 65.3477 24.4549C65.3477 22.3549 64.3477 21.1549 62.5477 21.1549C62.1477 21.1549 61.6477 21.1549 61.2477 21.2549V27.4549C61.7477 27.6549 62.0477 27.6549 62.5477 27.6549ZM36.8477 28.3549V21.7549C36.8477 21.4549 37.0477 21.2549 37.3477 21.1549L37.2477 20.8549C37.0477 20.8549 36.8476 20.9549 36.6476 20.9549C36.4476 20.9549 36.0477 20.8549 35.8477 20.8549L35.7477 21.1549C36.0477 21.2549 36.2477 21.4549 36.2477 21.7549V26.4549C35.5477 25.6549 32.5476 22.0549 32.1476 21.3549C32.0476 21.2549 31.9477 21.0549 32.0477 20.8549C31.7477 20.8549 31.6476 20.9549 31.4476 20.9549C31.2476 20.9549 30.9476 20.8549 30.6476 20.8549V21.1549C30.9476 21.2549 31.1476 21.4549 31.1476 21.7549V27.1549C31.1476 27.5549 30.9476 27.7549 30.6476 27.8549V28.0549H32.1476L32.2477 27.8549C31.9477 27.7549 31.7477 27.5549 31.7477 27.1549V22.2549L36.7477 28.3549H36.8477ZM72.3477 27.1549C71.9477 27.4549 71.3477 27.5549 70.2477 27.5549H68.9476V24.4549H70.2477C70.5477 24.4549 71.2476 24.4549 71.6476 24.5549V23.9549H68.8477V21.2549H70.5477C71.1477 21.2549 71.4476 21.3549 71.4476 21.6549H71.5477C71.6477 21.4549 71.7477 20.9549 71.8477 20.7549H67.5477L67.4476 21.0549C67.7476 21.1549 67.9476 21.3549 67.9476 21.6549V27.0549C67.9476 27.4549 67.7476 27.6549 67.4476 27.7549L67.5477 27.9549H71.6476C72.0476 27.9549 72.2477 27.4549 72.2477 27.1549H72.3477ZM22.6476 24.4549C22.6476 22.3549 24.1476 20.6549 26.1476 20.6549C28.0476 20.6549 29.6476 22.2549 29.6476 24.4549C29.6476 26.4549 28.1476 28.1549 26.1476 28.1549C24.1476 28.1549 22.6476 26.4549 22.6476 24.4549ZM23.5477 24.2549C23.5477 25.6549 24.4477 27.6549 26.3477 27.6549C27.5477 27.6549 28.7477 26.5549 28.7477 24.5549C28.7477 23.2549 27.8476 21.1549 25.9476 21.1549C24.6476 21.1549 23.5477 22.4549 23.5477 24.2549ZM45.1476 24.4549C45.1476 22.3549 46.6477 20.6549 48.5477 20.6549C50.4477 20.6549 52.0477 22.2549 52.0477 24.4549C52.0477 26.4549 50.5477 28.1549 48.5477 28.1549C46.7477 28.1549 45.1476 26.4549 45.1476 24.4549ZM46.0477 24.2549C46.0477 25.6549 47.0477 27.6549 48.8477 27.6549C50.0477 27.6549 51.3477 26.5549 51.3477 24.5549C51.3477 23.2549 50.3477 21.1549 48.5477 21.1549C47.1477 21.1549 46.0477 22.4549 46.0477 24.2549ZM22.0477 26.3549V26.7549C22.0477 27.5549 21.2476 28.0549 19.6476 28.0549C17.2476 28.0549 15.8477 26.6549 15.8477 24.3549C15.8477 22.0549 17.5477 20.6549 19.5477 20.6549C20.3477 20.6549 21.1476 20.7549 21.6476 21.0549C21.7476 21.2549 21.6476 21.8549 21.6476 22.0549L21.4476 22.1549C21.1476 21.3549 20.2476 21.0549 19.4476 21.0549C17.8476 21.0549 16.6476 22.1549 16.6476 24.0549C16.6476 25.8549 17.7476 27.5549 19.6476 27.5549C20.8476 27.6549 21.6477 27.0549 22.0477 26.3549ZM44.4476 26.3549C44.5476 26.5549 44.5477 26.6549 44.5477 26.7549C44.5477 27.5549 43.6477 28.0549 42.0477 28.0549C39.6477 28.0549 38.2477 26.6549 38.2477 24.3549C38.2477 22.0549 39.9476 20.6549 41.9476 20.6549C42.7476 20.6549 43.5476 20.7549 44.1476 21.0549C44.1476 21.2549 44.1477 21.8549 44.0477 22.0549L43.8477 22.1549C43.5477 21.3549 42.7477 21.0549 41.8477 21.0549C40.3477 21.0549 39.0477 22.1549 39.0477 24.0549C39.0477 25.8549 40.1476 27.5549 42.1476 27.5549C43.2476 27.6549 44.1476 27.0549 44.4476 26.3549ZM56.2477 24.5549C57.2477 24.2549 57.7477 23.4549 57.7477 22.5549C57.7477 21.2549 56.6477 20.7549 55.2477 20.7549C54.7477 20.7549 53.7477 20.8549 53.2477 20.8549L53.1476 21.1549C53.5476 21.2549 53.6476 21.4549 53.6476 21.7549V27.1549C53.6476 27.5549 53.5476 27.7549 53.1476 27.8549L53.2477 28.0549H54.9476L55.0477 27.8549C54.7477 27.7549 54.5477 27.5549 54.5477 27.1549V24.6549H55.0477C56.5477 24.6549 56.8477 28.1549 58.7477 28.1549C58.9477 28.1549 59.2477 28.0549 59.3477 27.9549C57.8477 27.6549 57.4477 24.8549 56.2477 24.5549ZM55.3477 24.1549H54.6476V21.2549C54.7476 21.2549 54.9477 21.1549 55.2477 21.1549C56.2477 21.1549 56.8477 21.4549 56.8477 22.5549C56.8477 23.6549 56.4477 24.1549 55.3477 24.1549Z" fill="white"/>
<path id="Vector_6" fill-rule="evenodd" clip-rule="evenodd" d="M77.4476 30.6549H50.1476V30.5549C50.1476 29.9549 49.1477 29.7549 48.2477 29.7549C45.0477 29.7549 41.9476 31.5549 40.1476 31.5549C39.5476 31.5549 39.1476 31.3549 39.1476 31.1549C39.1476 30.9549 39.4477 30.8549 39.7477 30.8549C40.0477 30.8549 40.4477 30.9549 40.5477 31.0549V30.9549C40.5477 30.7549 40.1477 30.5549 39.7477 30.5549C39.5477 30.5549 39.3476 30.5549 39.1476 30.6549H10.3477V30.8549H38.9476V31.0549C38.9476 31.5549 39.6477 31.7549 40.2477 31.7549C42.9477 31.7549 45.9477 29.9549 48.3477 29.9549C49.2477 29.9549 49.7477 30.2549 49.7477 30.5549C49.7477 30.5549 49.7476 30.6549 49.6476 30.6549H49.3477C48.4477 30.6549 47.7477 30.8549 47.7477 31.1549C47.7477 31.4549 47.9477 31.5549 48.3477 31.5549C49.0477 31.5549 49.7477 31.2549 50.0477 30.8549H77.4476V30.6549ZM48.1476 31.5549C48.0476 31.5549 47.7477 31.4549 47.7477 31.3549C47.7477 31.1549 48.2476 30.9549 49.4476 30.9549C49.1476 31.1549 48.6476 31.5549 48.1476 31.5549Z" fill="#B8A265"/>
</g>
</svg>
