<svg width="89" height="58" viewBox="0 0 89 58" fill="none" xmlns="http://www.w3.org/2000/svg">
<g id="Client Logo">
<path id="Vector" d="M88.353 0.254883H0.75293V57.2549H88.353V0.254883Z" fill="white"/>
<path id="Client Logo_2" d="M64.2525 35.1549C63.7525 35.4549 63.1525 35.2549 62.6525 34.7549C62.0525 34.0549 61.6525 33.2549 61.3525 32.7549C62.0525 33.5549 63.2525 34.6549 64.2525 35.1549Z" fill="#585857"/>
<path id="Client Logo_3" d="M67.2525 34.2549C66.4525 34.8549 65.4525 34.8549 64.4525 34.2549C63.1525 33.4549 62.0525 32.3549 61.3525 31.8549C62.7525 32.6549 65.1525 33.9549 67.2525 34.2549Z" fill="#585857"/>
<path id="Client Logo_4" d="M70.2529 31.6549C69.3529 32.7549 67.853 33.2549 66.353 32.8549C64.253 32.2549 62.4529 31.2549 61.2529 30.8549C63.3529 31.4549 67.1529 32.1549 70.2529 31.6549Z" fill="#585857"/>
<path id="Client Logo_5" d="M61.1533 29.8549C66.4533 28.8549 71.8533 28.5549 75.2533 25.8549C73.8533 31.6549 64.3533 30.5549 61.1533 29.8549Z" fill="#585857"/>
<path id="Client Logo_6" d="M58.1525 34.5549C58.1525 34.8549 58.1525 34.9549 58.1525 35.0549C58.1525 35.2549 58.0525 35.3549 57.8525 35.3549C57.7525 35.3549 57.6525 35.3549 57.3525 35.3549H56.7525V39.2549C56.2525 39.2549 55.9525 39.2549 55.8525 39.1549C55.7525 39.0549 55.7525 38.8549 55.7525 38.5549V35.3549H54.3525C54.3525 34.9549 54.3525 34.6549 54.4525 34.6549C54.5525 34.5549 54.7525 34.5549 55.0525 34.5549H58.1525Z" fill="#585857"/>
<path id="Client Logo_7" d="M61.4533 37.6549L60.6533 35.4549L59.8533 37.6549H61.4533ZM63.2533 39.3549C62.8533 39.3549 62.6533 39.3549 62.5533 39.3549C62.3533 39.3549 62.1533 39.2549 62.0533 39.2549C61.9533 39.1549 61.9533 39.0549 61.8533 38.8549L61.7533 38.5549H59.5533L59.4533 38.8549C59.3533 39.1549 59.2533 39.2549 59.1533 39.3549C59.0533 39.3549 58.6533 39.4549 58.1533 39.4549L59.8533 35.2549C59.9533 34.9549 60.0533 34.7549 60.1533 34.7549C60.2533 34.6549 60.4533 34.6549 60.7533 34.6549H61.3533L63.2533 39.3549Z" fill="#585857"/>
<path id="Vector_2" d="M23.8525 34.9549C24.3525 35.2549 24.9525 35.0549 25.3525 34.5549C25.9525 33.8549 26.2525 33.0549 26.6525 32.5549C26.0525 33.3549 24.9525 34.4549 23.8525 34.9549Z" fill="#585857"/>
<path id="Vector_3" d="M21.0527 34.0549C21.7527 34.6549 22.8527 34.6549 23.7527 34.0549C25.0527 33.2549 26.0527 32.2549 26.7527 31.6549C25.4527 32.4549 23.1527 33.7549 21.0527 34.0549Z" fill="#585857"/>
<path id="Vector_4" d="M18.1533 31.5549C19.0533 32.6549 20.4533 33.0549 21.9533 32.6549C23.9533 32.0549 25.7533 31.1549 26.8533 30.6549C24.8533 31.2549 21.1533 32.0549 18.1533 31.5549Z" fill="#585857"/>
<path id="Vector_5" d="M27.0525 29.7549C26.9525 29.7549 26.9525 29.7549 27.0525 29.7549C21.9525 28.7549 16.5525 28.4549 13.3525 25.8549C14.5525 31.5549 23.8525 30.4549 27.0525 29.7549Z" fill="#585857"/>
<path id="Vector_6" d="M78.3525 18.1549C73.8525 22.1549 54.1525 25.1549 46.9525 33.3549C46.1525 34.2549 45.7525 34.8549 45.3525 36.1549C45.6525 35.3549 46.1525 35.2549 46.8525 34.6549C56.2525 26.5549 75.3525 30.4549 78.3525 18.1549Z" fill="#004381"/>
<path id="Vector_7" d="M30.2531 34.5549C30.2531 34.8549 30.2531 34.9549 30.2531 35.0549C30.2531 35.2549 30.1531 35.3549 29.9531 35.3549C29.8531 35.3549 29.7531 35.3549 29.4531 35.3549H28.8531V39.2549C28.3531 39.2549 28.0531 39.2549 27.9531 39.1549C27.8531 39.0549 27.8531 38.8549 27.8531 38.5549V35.3549H26.4531C26.4531 34.9549 26.4531 34.6549 26.5531 34.6549C26.6531 34.5549 26.8531 34.5549 27.1531 34.5549H30.2531Z" fill="#585857"/>
<path id="Vector_8" d="M35.5525 39.3549H34.7525C34.4525 39.3549 34.2525 39.3549 34.1525 39.2549C34.0525 39.1549 33.8525 39.0549 33.6525 38.8549L32.5525 37.5549C32.4525 37.4549 32.4525 37.3549 32.4525 37.2549C32.4525 37.0549 32.5525 36.8549 32.8525 36.8549H33.1525C33.6525 36.8549 33.9525 36.8549 34.0525 36.7549C34.1525 36.7549 34.1525 36.5549 34.1525 36.1549C34.1525 35.6549 33.8525 35.4549 33.1525 35.4549H32.3525V39.3549C31.8525 39.3549 31.5525 39.3549 31.4525 39.2549C31.3525 39.1549 31.3525 38.9549 31.3525 38.5549V35.2549C31.3525 34.9549 31.3525 34.8549 31.3525 34.7549C31.3525 34.6549 31.5525 34.5549 31.7525 34.5549C31.8525 34.5549 31.9525 34.5549 32.2525 34.5549H33.1525C34.5525 34.5549 35.2525 35.0549 35.2525 36.0549C35.2525 36.5549 35.1525 36.9549 34.8525 37.2549C34.6525 37.4549 34.2525 37.5549 33.8525 37.5549L35.5525 39.3549Z" fill="#585857"/>
<path id="Vector_9" d="M39.9528 37.6549L39.1528 35.4549L38.3528 37.6549H39.9528ZM41.6528 39.3549C41.2528 39.3549 41.0528 39.3549 40.9528 39.3549C40.7528 39.3549 40.5528 39.2549 40.4528 39.2549C40.3528 39.1549 40.3527 39.0549 40.2527 38.8549L40.1528 38.5549H37.9528L37.8528 38.8549C37.7528 39.1549 37.6527 39.2549 37.5527 39.3549C37.4527 39.3549 37.0527 39.4549 36.5527 39.4549L38.2527 35.2549C38.3527 34.9549 38.4527 34.7549 38.5527 34.7549C38.6527 34.6549 38.8528 34.6549 39.1528 34.6549H39.7527L41.6528 39.3549Z" fill="#585857"/>
<path id="Vector_10" d="M43.0527 34.6549C43.1527 34.7549 43.2528 34.9549 43.4528 35.2549L44.5527 38.3549C44.5527 38.3549 45.2527 36.3549 45.7527 35.2549C46.2527 33.8549 47.7528 32.4549 48.6528 31.8549C48.9528 31.6549 51.5528 31.4549 50.9528 31.9549C49.4528 32.9549 48.9527 32.8549 47.2527 34.5549C46.3527 35.4549 45.3528 38.7549 45.3528 38.7549C45.3528 38.8549 45.2527 38.9549 45.2527 39.0549C45.1527 39.1549 45.1527 39.2549 45.0527 39.3549C44.9527 39.4549 44.9527 39.4549 44.5527 39.4549H44.1528" fill="#004381"/>
<path id="Vector_11" d="M49.0531 39.3549C48.5531 39.3549 48.2531 39.3549 48.1531 39.2549C48.0531 39.1549 47.9531 38.9549 47.9531 38.6549V34.5549C48.4531 34.5549 48.7531 34.5549 48.8531 34.6549C48.9531 34.7549 49.0531 34.9549 49.0531 35.2549V39.3549Z" fill="#585857"/>
<path id="Vector_12" d="M53.9528 37.9549C53.9528 38.3549 53.8527 38.6549 53.5527 38.9549C53.1527 39.2549 52.6528 39.4549 51.9528 39.4549H50.2527C50.2527 39.0549 50.2528 38.7549 50.3528 38.6549C50.4528 38.5549 50.6527 38.5549 51.0527 38.5549H51.9528C52.5528 38.5549 52.8528 38.5549 52.8528 38.5549C52.9528 38.5549 52.9528 38.3549 52.9528 38.1549C52.9528 37.8549 52.6527 37.6549 52.0527 37.5549C51.3527 37.4549 50.8527 37.3549 50.7527 37.2549C50.2527 37.0549 50.0527 36.6549 50.0527 36.2549C50.0527 35.2549 50.7527 34.7549 52.0527 34.7549H53.8528C53.8528 35.1549 53.8527 35.4549 53.7527 35.4549C53.6527 35.5549 53.4528 35.5549 53.1528 35.5549H52.1528C51.6528 35.5549 51.3527 35.5549 51.2527 35.6549C51.1527 35.6549 51.1528 35.8549 51.1528 36.1549C51.1528 36.3549 51.2527 36.4549 51.5527 36.5549C51.5527 36.5549 51.9528 36.6549 52.6528 36.7549C53.1528 36.8549 53.4528 36.9549 53.6528 37.1549C53.7528 37.2549 53.9528 37.5549 53.9528 37.9549Z" fill="#585857"/>
<path id="Vector_13" d="M44.153 39.3549C43.953 39.3549 43.8529 39.1549 43.7529 39.0549C43.7529 38.9549 43.653 38.8549 43.653 38.7549C43.653 38.7549 42.6529 35.5549 41.7529 34.5549C40.0529 32.8549 39.6529 33.0549 38.0529 31.9549C37.3529 31.4549 40.053 31.6549 40.353 31.8549C41.253 32.4549 42.853 34.0549 43.453 35.4549C43.853 36.5549 44.453 38.4549 44.453 38.4549" fill="#004381"/>
<path id="Vector_14" d="M10.7529 18.3549C15.2529 22.3549 34.953 25.3549 42.153 33.5549C42.953 34.4549 43.453 35.0549 43.853 36.5549C43.653 35.6549 43.053 35.5549 42.353 34.9549C32.853 26.7549 13.8529 30.6549 10.7529 18.3549Z" fill="#004381"/>
</g>
</svg>
