<svg width="89" height="58" viewBox="0 0 89 58" fill="none" xmlns="http://www.w3.org/2000/svg">
<g id="Client Logo">
<path id="Vector" d="M88.1996 0.04245H0.599609V57.0424H88.1996V0.04245Z" fill="white"/>
<path id="Vector_2" d="M58.8998 24.3424V21.2425L57.5998 23.5424H57.1998L55.9998 21.2425V24.3424H55.2998V20.0424H55.9998L57.3998 22.6425L58.7998 20.0424H59.4998V24.3424H58.8998Z" fill="#011D2D"/>
<path id="Vector_3" d="M60.3994 24.3425H61.0994V21.2425H60.3994V24.3425ZM60.3994 19.9425V20.6425H61.0994V19.9425H60.3994Z" fill="#011D2D"/>
<path id="Vector_4" d="M63.2996 23.8424C63.3996 23.8424 63.4996 23.8425 63.5996 23.7425C63.6996 23.7425 63.7996 23.6425 63.8996 23.6425C63.9996 23.5425 63.9996 23.5424 64.0996 23.4424C64.1996 23.3424 64.1996 23.2425 64.1996 23.2425V22.4424C64.1996 22.3424 64.0996 22.2425 64.0996 22.1425C63.9996 22.0425 63.9996 21.9424 63.8996 21.9424C63.7996 21.8424 63.6996 21.8424 63.5996 21.8424C63.4996 21.8424 63.3996 21.8424 63.2996 21.8424C63.1996 21.8424 62.9996 21.8424 62.8996 21.9424C62.7996 22.0424 62.6996 22.0425 62.5996 22.1425C62.4996 22.2425 62.4996 22.3424 62.3996 22.4424C62.3996 22.5424 62.2996 22.7424 62.2996 22.8424C62.2996 22.9424 62.2996 23.1425 62.3996 23.2425C62.3996 23.3425 62.4996 23.4425 62.5996 23.5424C62.6996 23.6424 62.7996 23.7425 62.8996 23.7425C62.9996 23.7425 63.1996 23.8424 63.2996 23.8424ZM63.0996 24.3424C62.8996 24.3424 62.6996 24.3425 62.4996 24.2425C62.2996 24.1425 62.1996 24.0424 61.9996 23.9424C61.8996 23.7424 61.7996 23.6424 61.6996 23.4424C61.5996 23.2424 61.5996 23.0424 61.5996 22.8424C61.5996 22.6424 61.5996 22.4425 61.6996 22.1425C61.7996 21.9425 61.8996 21.7425 61.9996 21.6425C62.0996 21.5425 62.2996 21.3425 62.3996 21.2425C62.5996 21.1425 62.7996 21.1425 62.9996 21.1425C63.1996 21.1425 63.4996 21.2424 63.6996 21.3424C63.8996 21.4424 63.9996 21.6424 64.1996 21.8424V20.0424H64.8996V23.6425C64.8996 23.7425 64.8996 23.7424 64.8996 23.8424L64.9996 23.9424V24.5424H64.7996H64.6996C64.5996 24.5424 64.4996 24.5424 64.3996 24.4424C64.2996 24.3424 64.2996 24.2425 64.2996 24.1425V23.9424C64.1996 24.1424 63.9996 24.3424 63.7996 24.4424C63.5996 24.3424 63.3996 24.3424 63.0996 24.3424Z" fill="#011D2D"/>
<path id="Vector_5" d="M67.0994 23.8424C67.1994 23.8424 67.2994 23.8425 67.3994 23.7425C67.4994 23.7425 67.5995 23.6425 67.6995 23.6425C67.7995 23.5425 67.7994 23.5424 67.8994 23.4424C67.9994 23.3424 67.9995 23.2425 67.9995 23.2425V22.4424C67.9995 22.3424 67.8994 22.2425 67.7994 22.1425C67.6994 22.0425 67.6994 21.9424 67.5994 21.9424C67.3994 21.8424 67.1995 21.7425 66.9995 21.7425C66.8995 21.7425 66.6994 21.7424 66.5994 21.8424C66.4994 21.9424 66.3994 21.9424 66.2994 22.0424C66.1994 22.1424 66.1994 22.2424 66.0994 22.3424C66.0994 22.4424 65.9995 22.6425 65.9995 22.7425C65.9995 22.8425 65.9994 23.0425 66.0994 23.1425C66.0994 23.2425 66.1994 23.3424 66.2994 23.4424C66.3994 23.5424 66.4994 23.6425 66.5994 23.6425C66.7994 23.7425 66.9994 23.8424 67.0994 23.8424ZM66.8994 24.3424C66.6994 24.3424 66.4994 24.3425 66.2994 24.2425C66.0994 24.1425 65.9994 24.0424 65.7994 23.8424C65.6994 23.7424 65.5995 23.5424 65.4995 23.3424C65.3995 23.1424 65.3994 22.9425 65.3994 22.7425C65.3994 22.5425 65.3995 22.3425 65.4995 22.1425C65.5995 21.9425 65.6994 21.7425 65.7994 21.6425C65.8994 21.5425 66.0995 21.3425 66.1995 21.2425C66.3995 21.1425 66.5994 21.1425 66.7994 21.1425C66.9994 21.1425 67.2995 21.2424 67.4995 21.3424C67.6995 21.4424 67.7995 21.6424 67.9995 21.8424V20.0424H68.6995V23.6425C68.6995 23.7425 68.6995 23.7424 68.6995 23.8424L68.7994 23.9424V24.5424C68.6994 24.5424 68.6994 24.5424 68.5994 24.5424H68.4995C68.3995 24.5424 68.2995 24.5424 68.1995 24.4424C68.0995 24.3424 68.0994 24.2425 68.0994 24.1425V23.9424C67.9994 24.1424 67.7994 24.3424 67.5994 24.4424C67.3994 24.3424 67.1994 24.3424 66.8994 24.3424Z" fill="#011D2D"/>
<path id="Vector_6" d="M69.5 19.9425H70.2V23.4425C70.2 23.5425 70.2 23.6425 70.3 23.7425C70.4 23.8425 70.5 23.8425 70.5 23.8425C70.6 23.8425 70.6 23.8425 70.7 23.8425L70.9 23.7425L71 24.2425C70.9 24.3425 70.8 24.3425 70.7 24.3425C70.6 24.3425 70.5 24.3425 70.3 24.3425C69.9 24.3425 69.6 24.1425 69.6 23.7425C69.6 23.6425 69.6 23.6425 69.6 23.5425V19.9425H69.5Z" fill="#011D2D"/>
<path id="Vector_7" d="M73.5996 22.4424C73.5996 22.3424 73.5996 22.1424 73.4996 22.0424C73.3996 21.9424 73.3996 21.8424 73.2996 21.7424C73.1996 21.6424 73.0996 21.6424 72.9996 21.5424C72.8996 21.5424 72.7996 21.4424 72.5996 21.4424C72.4996 21.4424 72.3996 21.4424 72.2996 21.5424C72.1996 21.5424 72.0996 21.6424 71.9996 21.7424C71.8996 21.8424 71.7996 21.9424 71.7996 22.0424C71.7996 22.1424 71.6996 22.2424 71.6996 22.4424H73.5996ZM72.6996 24.3424C72.4996 24.3424 72.1996 24.3424 71.9996 24.2424C71.7996 24.1424 71.5996 24.0424 71.4996 23.8424C71.3996 23.7424 71.1996 23.5424 71.1996 23.3424C71.0996 23.1424 71.0996 22.9424 71.0996 22.7424C71.0996 22.5424 71.0996 22.3424 71.1996 22.1424C71.2996 21.7424 71.6996 21.4424 71.9996 21.2424C72.1996 21.1424 72.3996 21.1424 72.6996 21.1424C73.0996 21.1424 73.5996 21.3424 73.8996 21.6424C73.9996 21.7424 74.0996 21.9424 74.1996 22.1424C74.2996 22.3424 74.2996 22.5424 74.2996 22.7424V22.8424V22.9424H71.7996C71.7996 23.0424 71.7996 23.2424 71.8996 23.3424C71.9996 23.4424 71.9996 23.5424 72.0996 23.6424C72.1996 23.7424 72.2996 23.7424 72.3996 23.8424C72.4996 23.8424 72.5996 23.9424 72.6996 23.9424C72.7996 23.9424 72.8996 23.9424 72.9996 23.9424C73.0996 23.9424 73.1996 23.8424 73.1996 23.8424C73.2996 23.8424 73.2996 23.7424 73.3996 23.6424C73.4996 23.5424 73.4996 23.5424 73.4996 23.4424L74.0996 23.6424C73.9996 23.8424 73.7996 24.1424 73.5996 24.2424C73.2996 24.2424 72.9996 24.3424 72.6996 24.3424Z" fill="#011D2D"/>
<path id="Vector_8" d="M58.1998 30.1425V30.7425H55.2998V26.4425H58.1998V27.0425H55.9998V28.2425H57.8998V28.8425H55.9998V30.1425H58.1998Z" fill="#011D2D"/>
<path id="Vector_9" d="M59.7992 30.3424C59.9992 30.3424 60.0992 30.3425 60.2992 30.2425C60.3992 30.1425 60.4992 30.1424 60.5992 30.0424C60.6992 29.9425 60.6992 29.9424 60.6992 29.8424V29.4424C60.5992 29.4424 60.4992 29.3424 60.2992 29.3424C60.1992 29.3424 60.0992 29.3424 59.8992 29.3424C59.6992 29.3424 59.4992 29.3424 59.2992 29.5424C59.1992 29.6424 59.0992 29.7424 59.0992 29.9424C59.0992 30.0424 59.1992 30.2424 59.2992 30.3424C59.4992 30.2424 59.6992 30.3424 59.7992 30.3424ZM59.6992 30.7425C59.5992 30.7425 59.3992 30.7425 59.2992 30.6425C59.1992 30.6425 59.0992 30.5424 58.9992 30.4424C58.8992 30.3424 58.7992 30.2425 58.7992 30.1425C58.6992 30.0425 58.6992 29.8425 58.6992 29.7425C58.6992 29.6425 58.6992 29.4424 58.7992 29.3424C58.8992 29.2424 58.9992 29.1424 59.0992 29.0424C59.1992 28.9424 59.3992 28.8424 59.4992 28.8424C59.6992 28.7424 59.8992 28.7425 59.9992 28.7425C60.0992 28.7425 60.2992 28.7425 60.3992 28.7425C60.4992 28.7425 60.6992 28.8424 60.7992 28.8424V28.6425C60.7992 28.4425 60.6992 28.2425 60.5992 28.1425C60.3992 28.0425 60.1992 27.9424 59.9992 27.9424C59.7992 27.9424 59.6992 27.9424 59.4992 28.0424C59.2992 28.1424 59.1992 28.2424 58.9992 28.3424L58.7992 27.9424C59.1992 27.6424 59.5992 27.5424 59.9992 27.5424C60.3992 27.5424 60.6992 27.6424 60.9992 27.8424C61.2992 28.0424 61.3992 28.4425 61.3992 28.7425V29.8424C61.3992 29.9424 61.4992 30.0424 61.5992 30.0424V30.6425H61.3992H61.2992C61.1992 30.6425 61.0992 30.6424 60.9992 30.5424C60.8992 30.4425 60.8992 30.3424 60.8992 30.3424V30.1425C60.7992 30.3425 60.5992 30.4425 60.3992 30.5424C60.0992 30.7424 59.8992 30.7425 59.6992 30.7425Z" fill="#011D2D"/>
<path id="Vector_10" d="M63.2994 30.7425C62.9994 30.7425 62.7995 30.7425 62.4995 30.6425C62.2995 30.5425 61.9994 30.4425 61.8994 30.2425L62.1995 29.8424C62.3995 29.9424 62.5994 30.0425 62.7994 30.1425C62.9994 30.2425 63.1994 30.2425 63.3994 30.2425C63.5994 30.2425 63.6994 30.2425 63.8994 30.1425C63.9994 30.0425 64.0994 29.9424 64.0994 29.8424C64.0994 29.7424 63.9994 29.6424 63.8994 29.5424C63.6994 29.4424 63.4994 29.4424 63.2994 29.3424L62.7994 29.2425C62.6994 29.2425 62.5995 29.1424 62.4995 29.0424C62.3995 28.9424 62.3994 28.9424 62.2994 28.8424C62.2994 28.7424 62.1995 28.6424 62.1995 28.5424C62.1995 28.4424 62.1994 28.2425 62.2994 28.1425C62.3994 28.0425 62.3994 27.9424 62.5994 27.8424C62.6994 27.7424 62.7995 27.6425 62.9995 27.6425C63.1995 27.6425 63.2995 27.5424 63.4995 27.5424C63.6995 27.5424 63.8995 27.5425 64.1995 27.6425C64.3995 27.7425 64.5995 27.8424 64.6995 27.9424L64.3994 28.3424C64.0994 28.1424 63.7995 28.0424 63.4995 28.0424C63.3995 28.0424 63.1994 28.0425 63.0994 28.1425C62.9994 28.2425 62.8994 28.3424 62.8994 28.4424C62.8994 28.5424 62.8994 28.5425 62.8994 28.6425C62.8994 28.7425 62.9995 28.7425 62.9995 28.7425C63.0995 28.7425 63.0995 28.8424 63.1995 28.8424L63.4995 28.9424C63.6995 28.9424 63.8995 29.0425 63.9995 29.1425C64.0995 29.1425 64.2994 29.2424 64.3994 29.3424C64.4994 29.4424 64.5994 29.4424 64.5994 29.5424C64.6994 29.6424 64.6995 29.7424 64.6995 29.8424C64.6995 30.1424 64.5994 30.3424 64.3994 30.5424C63.9994 30.7424 63.6994 30.8425 63.2994 30.7425Z" fill="#011D2D"/>
<path id="Vector_11" d="M66.8994 30.5425C66.7994 30.6425 66.6994 30.6425 66.5994 30.6425C66.3994 30.7425 66.2994 30.7425 66.0994 30.7425C65.9994 30.7425 65.8994 30.7425 65.7994 30.7425C65.6994 30.7425 65.5994 30.6425 65.5994 30.6425C65.4994 30.5425 65.4994 30.5425 65.3994 30.4425C65.3994 30.3425 65.2994 30.2425 65.2994 30.1425V28.2425H64.8994V27.7425H65.2994V26.7425H65.9995V27.7425H66.6995V28.2425H65.9995V29.9425C65.9995 30.1425 66.0994 30.2425 66.2994 30.2425C66.3994 30.2425 66.4994 30.2425 66.5994 30.2425L66.7994 30.1425L66.8994 30.5425Z" fill="#011D2D"/>
<path id="Vector_12" d="M55.9998 32.9425H55.2998V37.1425H55.9998V32.9425Z" fill="#011D2D"/>
<path id="Vector_13" d="M59.6998 37.1425H58.9998V35.3425C58.9998 35.1425 58.9998 34.9425 58.8998 34.7425C58.7998 34.6425 58.6998 34.5425 58.4998 34.5425C58.3998 34.5425 58.2998 34.5425 58.1998 34.6425C58.0998 34.6425 57.9998 34.7425 57.8998 34.8425C57.7998 34.9425 57.6998 35.0425 57.6998 35.0425C57.5998 35.1425 57.5998 35.2425 57.4998 35.3425V37.2425H56.7998V34.0425H57.3998V34.6425C57.4998 34.4425 57.6998 34.2425 57.8998 34.1425C58.0998 34.0425 58.3998 33.9425 58.6998 33.9425C58.8998 33.9425 58.9998 33.9425 59.1998 34.0425C59.2998 34.1425 59.3998 34.2425 59.4998 34.3425C59.5998 34.4425 59.5998 34.6425 59.5998 34.7425C59.5998 34.9425 59.5998 35.0425 59.5998 35.2425L59.6998 37.1425Z" fill="#011D2D"/>
<path id="Vector_14" d="M61.5992 37.2425C61.2992 37.2425 61.0992 37.2424 60.7992 37.1424C60.5992 37.0424 60.2992 36.9425 60.1992 36.7425L60.4992 36.3424C60.6992 36.4424 60.8992 36.5424 61.0992 36.6424C61.2992 36.7424 61.4992 36.7425 61.6992 36.7425C61.8992 36.7425 61.9992 36.7424 62.1992 36.6424C62.2992 36.5424 62.3992 36.4424 62.3992 36.3424C62.3992 36.2424 62.2992 36.1424 62.1992 36.0424C61.9992 35.9424 61.7992 35.9424 61.5992 35.8424L61.0992 35.7425C60.9992 35.7425 60.8992 35.6424 60.7992 35.5424C60.5992 35.4424 60.4992 35.2424 60.5992 35.0424C60.5992 34.9424 60.5992 34.7424 60.6992 34.6424C60.7992 34.5424 60.7992 34.4424 60.9992 34.3424C61.0992 34.2424 61.1992 34.1424 61.3992 34.1424C61.5992 34.1424 61.6992 34.0424 61.8992 34.0424C62.0992 34.0424 62.2992 34.0424 62.5992 34.1424C62.7992 34.2424 62.9992 34.3425 63.0992 34.4425L62.7992 34.8424C62.4992 34.6424 62.1992 34.5424 61.8992 34.5424C61.7992 34.5424 61.5992 34.5424 61.4992 34.6424C61.3992 34.7424 61.2992 34.8425 61.2992 34.9425C61.2992 35.0425 61.2992 35.0424 61.2992 35.1424L61.3992 35.2425C61.4992 35.2425 61.4992 35.3424 61.5992 35.3424C61.6992 35.3424 61.7992 35.4425 61.8992 35.4425C62.0992 35.4425 62.2992 35.5424 62.3992 35.6424C62.4992 35.6424 62.6992 35.7424 62.7992 35.8424C62.8992 35.9424 62.9992 35.9424 62.9992 36.0424C63.0992 36.1424 63.0992 36.2424 63.0992 36.3424C63.0992 36.6424 62.9992 36.8424 62.7992 37.0424C62.1992 37.1424 61.8992 37.2425 61.5992 37.2425Z" fill="#011D2D"/>
<path id="Vector_15" d="M65.0996 36.9425C64.9996 36.9425 64.8996 37.0425 64.7996 37.0425C64.5996 37.1425 64.4996 37.1425 64.2996 37.1425C64.1996 37.1425 64.0996 37.1425 63.9996 37.1425C63.8996 37.1425 63.7996 37.0425 63.7996 37.0425C63.6996 36.9425 63.6996 36.9425 63.5996 36.8425C63.5996 36.7425 63.4996 36.6425 63.4996 36.5425V34.5425H63.0996V34.0425H63.4996V32.9425H64.1996V34.0425H64.8996V34.5425H64.1996V36.2425C64.1996 36.4425 64.2996 36.5425 64.4996 36.5425C64.5996 36.5425 64.6996 36.5425 64.7996 36.5425L64.9996 36.4425L65.0996 36.9425Z" fill="#011D2D"/>
<path id="Vector_16" d="M65.5996 33.9425V37.0425H66.2996V33.9425H65.5996ZM65.5996 32.7425V33.4425H66.2996V32.7425H65.5996Z" fill="#011D2D"/>
<path id="Vector_17" d="M68.7998 36.9425C68.6998 36.9425 68.5998 37.0424 68.4998 37.0424C68.2998 37.1424 68.1998 37.1424 67.9998 37.1424C67.8998 37.1424 67.7998 37.1424 67.6998 37.1424C67.5998 37.1424 67.4998 37.0424 67.4998 37.0424C67.3998 36.9425 67.3998 36.9424 67.2998 36.8424C67.2998 36.7424 67.1998 36.6424 67.1998 36.5424V34.5424H66.7998V34.0424H67.1998V33.0424H67.8998V34.0424H68.5998V34.5424H67.8998V36.3424C67.8998 36.4424 67.8998 36.5424 67.9998 36.5424C68.0998 36.5424 68.0998 36.6424 68.1998 36.6424C68.2998 36.6424 68.3998 36.6424 68.4998 36.6424L68.6998 36.5424L68.7998 36.9425Z" fill="#011D2D"/>
<path id="Vector_18" d="M70.1992 37.1425C69.8992 37.1425 69.5992 37.0425 69.4992 36.8425C69.2992 36.5425 69.1992 36.2425 69.1992 35.8425V33.9425H69.8992V35.7425C69.8992 36.3425 70.0992 36.5425 70.4992 36.5425C70.6992 36.5425 70.8992 36.4425 70.9992 36.3425C71.1992 36.2425 71.2992 36.0425 71.3992 35.8425V33.9425H72.0992V36.3425C72.0992 36.4425 72.0992 36.4425 72.0992 36.5425L72.1992 36.6425V37.2425H71.9992H71.8992C71.7992 37.2425 71.6992 37.2425 71.5992 37.1425C71.4992 37.0425 71.4992 36.9425 71.4992 36.8425V36.5425C71.3992 36.7425 71.1992 36.9425 70.9992 37.0425C70.6992 37.1425 70.3992 37.1425 70.1992 37.1425Z" fill="#011D2D"/>
<path id="Vector_19" d="M74.5996 36.9425C74.4996 37.0425 74.3996 37.0424 74.2996 37.0424C74.0996 37.1424 73.9996 37.1424 73.7996 37.1424C73.6996 37.1424 73.5996 37.1424 73.4996 37.1424C73.3996 37.1424 73.2996 37.0424 73.2996 37.0424C73.1996 36.9425 73.1996 36.9424 73.0996 36.8424C73.0996 36.7424 72.9996 36.6424 72.9996 36.5424V34.5424H72.5996V34.0424H72.9996V33.0424H73.6996V34.0424H74.3996V34.5424H73.6996V36.3424C73.6996 36.4424 73.6996 36.5424 73.7996 36.5424C73.8996 36.6424 73.8996 36.6424 73.9996 36.6424C74.0996 36.6424 74.1996 36.6424 74.2996 36.6424L74.4996 36.5424L74.5996 36.9425Z" fill="#011D2D"/>
<path id="Vector_20" d="M77.3994 35.2425C77.3994 35.1425 77.3994 34.9425 77.2994 34.8425C77.1994 34.7425 77.1994 34.6425 77.0994 34.5425C76.9994 34.4425 76.8994 34.4425 76.7994 34.3425C76.6994 34.3425 76.5994 34.2425 76.3994 34.2425C76.1994 34.2425 75.8994 34.3425 75.7994 34.4425C75.6994 34.5425 75.5994 34.6425 75.5994 34.7425C75.4994 34.8425 75.4995 34.9425 75.4995 35.1425L77.3994 35.2425ZM76.4995 37.1425C76.2995 37.1425 75.9994 37.1425 75.7994 37.0425C75.3994 36.8425 75.0995 36.5425 74.9995 36.1425C74.8995 35.9425 74.8994 35.7425 74.8994 35.5425C74.8994 35.3425 74.8995 35.1425 74.9995 34.9425C75.0995 34.7425 75.1994 34.5425 75.2994 34.4425C75.3994 34.3425 75.5994 34.1425 75.7994 34.0425C75.9994 33.9425 76.1995 33.9425 76.4995 33.9425C76.6995 33.9425 76.9995 33.9425 77.1995 34.0425C77.3995 34.1425 77.5995 34.2425 77.6995 34.4425C77.7995 34.5425 77.9995 34.7425 77.9995 34.9425C78.0995 35.1425 78.0994 35.3425 78.0994 35.5425V35.6425V35.7425H75.5994C75.5994 35.8425 75.5995 36.0425 75.6995 36.1425C75.7995 36.2425 75.7994 36.3425 75.8994 36.4425C75.9994 36.5425 76.0995 36.5425 76.1995 36.6425C76.2995 36.6425 76.3995 36.7425 76.4995 36.7425C76.5995 36.7425 76.6994 36.7425 76.7994 36.7425C76.8994 36.7425 76.9995 36.6425 76.9995 36.6425C77.0995 36.6425 77.0995 36.5425 77.1995 36.4425C77.2995 36.3425 77.2994 36.3425 77.2994 36.2425L77.8994 36.4425C77.7994 36.6425 77.5994 36.9425 77.3994 37.0425C77.0994 37.0425 76.7995 37.1425 76.4995 37.1425Z" fill="#011D2D"/>
<path id="Vector_21" d="M29.8998 34.8424C30.7998 34.0424 31.2998 32.8424 31.3998 31.5424C32.4998 31.5424 33.4998 31.1424 34.1998 30.4424C34.4998 30.2424 34.7998 29.9424 34.9998 29.6424C35.6998 28.9424 36.4998 28.3424 37.3998 27.9424C38.0998 27.6424 38.9998 27.5424 39.7998 27.6424C40.2998 27.7424 40.7998 27.8424 41.2998 28.1424C41.7998 27.8424 42.1998 27.5424 42.5998 27.1424C42.6998 27.1424 42.6998 27.0424 42.6998 26.9424C41.8998 26.4424 40.9998 26.0424 39.9998 25.9424C38.8998 25.7424 37.7998 25.9424 36.7998 26.3424C35.6998 26.8424 34.6998 27.5424 33.8998 28.3424C33.6998 28.5424 33.3998 28.7424 33.1998 29.0424C32.6998 29.5424 31.9998 29.8424 31.2998 29.7424L29.4998 29.6424L29.6998 31.3424C29.6998 32.1424 29.3998 32.9424 28.7998 33.4424L28.8998 33.5424C29.1998 34.0424 29.5998 34.4424 29.8998 34.8424Z" fill="#FFAE00"/>
<path id="Vector_22" d="M44.6995 29.0424L44.4995 29.2425C44.1995 29.5425 43.7995 29.8425 43.4995 30.1425C44.1995 31.2425 44.4995 32.6425 44.2995 33.9425C44.0995 35.4425 43.0995 36.6425 41.6995 37.2425C40.5995 37.8425 39.2995 37.5424 38.4995 36.6424C37.7995 35.9424 37.6995 34.7424 38.3995 34.0424L38.4995 33.9425C38.7995 33.6425 39.1995 33.3424 39.6995 33.3424C39.8995 33.3424 40.0995 33.4425 40.2995 33.5424C40.4995 33.7424 40.4995 33.9424 40.2995 34.1424L41.4995 35.3424C42.2995 34.5424 42.2995 33.2424 41.4995 32.3424C40.9995 31.8424 40.3995 31.6425 39.6995 31.6425C38.7995 31.6425 37.8995 32.0425 37.2995 32.7425C36.2995 33.7425 35.8995 35.2424 36.3995 36.6424C35.0995 36.1424 33.4995 36.4425 32.4995 37.5424C31.7995 38.1425 31.3995 39.0425 31.3995 39.9425C31.3995 40.6425 31.6995 41.2425 32.0995 41.7425C32.8995 42.5425 34.1995 42.5425 35.0995 41.7425L33.8995 40.5424C33.6995 40.7424 33.4995 40.7424 33.2995 40.5424C33.0995 40.3425 33.0995 40.1425 33.0995 39.9425C33.0995 39.4425 33.2995 39.0425 33.6995 38.7425C34.3995 37.9425 35.5995 37.9424 36.2995 38.6424L36.3995 38.7425C37.2995 39.5425 37.4995 40.8425 36.9995 41.9425C36.3995 43.3425 35.0995 44.2424 33.6995 44.5424C32.0995 44.8425 30.3995 44.3424 29.1995 43.1424C28.2995 42.2424 27.6995 41.1425 27.4995 39.9425C27.3995 38.9425 27.5995 37.9424 27.9995 37.1424C27.6995 36.6424 27.2995 36.1425 26.8995 35.7425C25.9995 37.0425 25.5995 38.6425 25.7995 40.2425C26.0995 41.8425 26.7995 43.2424 27.9995 44.3424C29.2995 45.5424 30.9995 46.2425 32.6995 46.2425C33.0995 46.2425 33.4995 46.2424 33.8995 46.1424C35.8995 45.8424 37.5995 44.4424 38.4995 42.5424C39.0995 41.4424 39.0995 40.0424 38.5995 38.8424C39.7995 39.3424 41.0995 39.3425 42.1995 38.7425C44.0995 37.9425 45.3995 36.2424 45.7995 34.1424C46.1995 32.4424 45.7995 30.5424 44.6995 29.0424Z" fill="#FFAE00"/>
<path id="Vector_23" d="M45.7992 22.8424C45.4992 20.8424 44.0992 19.1424 42.1992 18.2424C41.0992 17.6424 39.6992 17.6424 38.5992 18.1424C39.0992 16.9424 39.0992 15.6424 38.4992 14.5424C37.6992 12.6424 35.9992 11.3424 33.8992 10.9424C32.0992 10.6424 30.1992 11.0424 28.6992 12.0424C28.7992 12.1424 28.8992 12.2424 28.9992 12.3424C29.2992 12.6424 29.5992 12.9424 29.7992 13.3424C30.8992 12.6424 32.1992 12.3424 33.4992 12.6424C34.9992 12.8424 36.1992 13.8424 36.7992 15.2424C37.3992 16.3424 37.0992 17.6424 36.1992 18.4424C35.4992 19.1424 34.2992 19.2424 33.5992 18.5424L33.4992 18.4424C33.1992 18.1424 32.8992 17.7424 32.8992 17.2424C32.8992 17.0424 32.9992 16.8424 33.0992 16.6424C33.2992 16.4424 33.4992 16.4424 33.6992 16.6424L34.8992 15.4424C34.0992 14.6424 32.7992 14.6424 31.8992 15.4424C31.3992 15.9424 31.1992 16.5424 31.1992 17.2424C31.1992 18.1424 31.5992 19.0424 32.2992 19.6424C33.2992 20.6424 34.7992 21.0424 36.1992 20.5424C35.6992 21.8424 35.9992 23.4424 37.0992 24.4424C37.6992 25.1424 38.5992 25.5424 39.4992 25.5424C40.1992 25.5424 40.7992 25.2424 41.2992 24.8424C42.0992 24.0424 42.0992 22.7424 41.2992 21.8424L40.0992 23.0424C40.2992 23.2424 40.2992 23.4424 40.0992 23.6424C39.8992 23.8424 39.6992 23.8424 39.4992 23.8424C38.9992 23.8424 38.5992 23.6424 38.2992 23.2424C37.4992 22.5424 37.4992 21.3424 38.1992 20.6424L38.2992 20.5424C39.0992 19.6424 40.3992 19.3424 41.4992 19.9424C42.8992 20.5424 43.7992 21.8424 44.0992 23.2424C44.3992 24.8424 43.8992 26.5424 42.6992 27.7424C41.8992 28.6424 40.7992 29.2424 39.5992 29.4424C38.6992 29.5424 37.6992 29.4424 36.8992 28.9424C36.3992 29.2424 35.8992 29.6424 35.4992 30.0424C36.4992 30.7424 37.7992 31.1424 38.9992 31.1424C39.2992 31.1424 39.5992 31.1424 39.8992 31.0424C41.3992 30.7424 42.8992 30.0424 43.9992 28.8424C45.5992 27.2424 46.1992 25.0424 45.7992 22.8424Z" fill="#365DAD"/>
<path id="Client Logo_2" d="M29.7996 42.9425C30.2996 42.1425 30.6996 41.2425 30.8996 40.2425C31.1996 38.1425 30.3996 36.0424 28.4996 34.1424C27.4996 33.1424 27.0996 32.5424 27.0996 31.5424L27.1996 29.7425L25.4996 29.9424C24.6996 30.0424 24.0996 29.7424 23.2996 29.0424C22.8996 29.4424 22.4996 29.7425 22.0996 30.1425C22.9996 31.0425 24.1996 31.6425 25.3996 31.6425C25.3996 33.2425 26.2996 34.3424 27.2996 35.3424C28.7996 36.8424 29.4996 38.4424 29.2996 40.0424C29.1996 40.6425 28.9996 41.1424 28.7996 41.6424C29.0996 42.0424 29.3996 42.4424 29.6996 42.8424C29.6996 42.7424 29.7996 42.8425 29.7996 42.9425Z" fill="#049892"/>
<path id="Client Logo_3" d="M26.7994 43.6425C25.6994 44.3425 24.3994 44.6425 23.0994 44.3425C21.5994 44.1425 20.2994 43.1425 19.6994 41.7425C19.0994 40.6425 19.3994 39.3425 20.2994 38.5425C20.5994 38.1425 21.0994 37.9425 21.5994 37.9425C22.0994 37.9425 22.5995 38.1425 22.9995 38.5425C23.2995 38.8425 23.5994 39.2425 23.5994 39.7425C23.5994 39.9425 23.4994 40.1425 23.3994 40.3425C23.1994 40.5425 22.9994 40.5425 22.7994 40.3425L21.5994 41.5425C22.3994 42.3425 23.6994 42.3425 24.5994 41.5425C25.0994 41.0425 25.2994 40.4425 25.2994 39.7425C25.2994 38.8425 24.8994 37.9425 24.1994 37.3425C23.1994 36.3425 21.6994 35.9425 20.2994 36.4425C20.7994 35.1425 20.4994 33.5425 19.3994 32.5425C18.7994 31.8425 17.8995 31.4425 16.9995 31.4425C16.2995 31.4425 15.6994 31.7425 15.1994 32.1425C14.3994 32.9425 14.3994 34.2425 15.1994 35.1425L16.3994 33.9425C16.1994 33.7425 16.1994 33.5425 16.3994 33.3425C16.5994 33.1425 16.7995 33.1425 16.9995 33.1425C17.4995 33.1425 17.8994 33.3425 18.1994 33.7425C18.9994 34.4425 18.9994 35.6425 18.2994 36.3425L18.1994 36.4425C17.3994 37.3425 16.0995 37.5425 14.9995 37.0425C13.6995 36.4425 12.6995 35.2425 12.4995 33.7425C12.1995 32.1425 12.6994 30.4425 13.8994 29.2425C14.6994 28.3425 15.7995 27.7425 16.9995 27.5425C17.8995 27.4425 18.8994 27.5425 19.6994 28.0425C20.1994 27.7425 20.6994 27.3425 21.0994 26.9425C19.7994 26.0425 18.1994 25.6425 16.6994 25.9425C15.1994 26.2425 13.6994 26.9425 12.5994 28.1425C11.0994 29.7425 10.3994 31.9425 10.7994 34.1425C11.0994 36.1425 12.4994 37.8425 14.3994 38.7425C15.4994 39.3425 16.8995 39.3425 17.9995 38.8425C17.4995 40.0425 17.4994 41.3425 18.0994 42.4425C18.8994 44.3425 20.5994 45.6425 22.6994 46.0425C23.0994 46.1425 23.4994 46.1425 23.8994 46.1425C25.2994 46.1425 26.6994 45.7425 27.8994 44.9425L27.5994 44.6425C27.2994 44.3425 27.0994 44.0425 26.7994 43.6425Z" fill="#049892"/>
<path id="Client Logo_4" d="M26.8996 22.2425C25.9996 23.0425 25.4996 24.2425 25.3996 25.5425C23.7996 25.5425 22.6996 26.4425 21.6996 27.4425C20.1996 28.9425 18.5996 29.6425 16.9996 29.4425C16.4996 29.3425 15.9996 29.2425 15.4996 28.9425C14.9996 29.2425 14.5996 29.5425 14.1996 29.9425L14.0996 30.1425C14.8996 30.6425 15.7996 31.0425 16.6996 31.1425C16.9996 31.1425 17.2996 31.2425 17.5996 31.2425C19.3996 31.2425 21.1996 30.4425 22.7996 28.7425C23.7996 27.7425 24.3996 27.2425 25.3996 27.3425L27.1996 27.4425L26.9996 25.7425C26.8996 24.9425 27.1996 24.1425 27.7996 23.6425L27.6996 23.5425C27.4996 23.0425 27.1996 22.7425 26.8996 22.2425Z" fill="#FC6F01"/>
<path id="Client Logo_5" d="M30.8995 16.9425C30.5995 15.4425 29.8996 13.9425 28.6996 12.8425C27.0996 11.3425 24.8995 10.6425 22.6995 11.0425C20.6995 11.3425 18.9995 12.7425 18.0995 14.6425C17.4995 15.7425 17.4996 17.1425 17.9996 18.2425C16.7996 17.7425 15.4996 17.7425 14.3996 18.3425C12.4996 19.1425 11.1996 20.9425 10.7996 22.9425C10.4996 24.7425 10.8996 26.6425 11.9996 28.1425C12.0996 28.0425 12.1995 27.9425 12.1995 27.8425C12.4995 27.5425 12.8995 27.2425 13.1995 26.9425C12.4995 25.8425 12.1996 24.4425 12.3996 23.1425C12.5996 21.6425 13.5996 20.4425 14.9996 19.7425C15.3996 19.5425 15.7995 19.4425 16.1995 19.4425C16.8995 19.4425 17.5995 19.7425 18.0995 20.3425C18.7995 21.0425 18.8995 22.2425 18.1995 22.9425L18.0995 23.0425C17.7995 23.3425 17.3996 23.6425 16.8996 23.6425C16.6996 23.6425 16.4996 23.5425 16.2996 23.4425C16.0996 23.2425 16.0996 23.0425 16.2996 22.8425L15.0995 21.6425C14.2995 22.4425 14.2995 23.7425 15.0995 24.6425C15.5995 25.1425 16.1996 25.3425 16.8996 25.3425C17.7996 25.3425 18.6996 24.9425 19.2996 24.2425C20.2996 23.2425 20.6995 21.7425 20.1995 20.3425C21.4995 20.8425 23.0995 20.5425 24.0995 19.4425C24.7995 18.8425 25.1995 17.9425 25.1995 17.0425C25.1995 16.3425 24.8996 15.7425 24.4996 15.2425C23.6996 14.4425 22.3996 14.4425 21.4996 15.2425L22.6995 16.4425C22.8995 16.2425 23.0996 16.2425 23.2996 16.4425C23.4996 16.6425 23.4996 16.8425 23.4996 17.0425C23.4996 17.5425 23.2996 17.9425 22.8996 18.2425C22.1996 19.0425 20.9996 19.0425 20.2996 18.3425L20.1995 18.2425C19.2995 17.4425 19.0995 16.1425 19.5995 15.0425C20.1995 13.7425 21.4996 12.7425 22.8996 12.5425C24.4996 12.2425 26.1995 12.7425 27.3995 13.9425C28.2995 14.7425 28.8995 15.8425 29.0995 17.0425C29.1995 18.0425 28.9995 19.0425 28.5995 19.8425C28.8995 20.3425 29.2996 20.8425 29.6996 21.2425C30.6996 20.1425 31.0995 18.5425 30.8995 16.9425Z" fill="#FC6F01"/>
<path id="Client Logo_6" d="M31.3 25.5424C31.3 23.9424 30.4 22.8424 29.4 21.8424C27.9 20.3424 27.2 18.7424 27.4 17.1424C27.5 16.5424 27.7 16.0424 27.9 15.5424C27.6 15.1424 27.3 14.7424 27 14.3424C26.9 14.2424 26.8 14.1424 26.8 14.1424C26.3 14.9424 25.9 15.8424 25.7 16.8424C25.4 18.9424 26.2 21.0424 28.1 22.9424C29.1 23.9424 29.5 24.5424 29.5 25.5424L29.4 27.3424L31.1 27.1424C31.9 27.0424 32.5 27.3424 33.3 28.0424C33.7 27.6424 34.1 27.3424 34.5 26.9424C33.7 26.0424 32.5 25.4424 31.3 25.4424V25.5424Z" fill="#365DAD"/>
</g>
</svg>
