<svg width="88" height="58" viewBox="0 0 88 58" fill="none" xmlns="http://www.w3.org/2000/svg">
<g id="Client Logo">
<path id="Client Logo_2" d="M88.0004 0.04245H0.400391V57.0424H88.0004V0.04245Z" fill="white"/>
<path id="Client Logo_3" d="M67.4006 5.54245H21.1006V51.6424H67.4006V5.54245Z" fill="white"/>
<path id="Client Logo_4" d="M46.6002 19.3425C46.2002 19.3425 45.9002 19.2425 45.6002 19.2425C45.1002 19.2425 44.6002 19.2425 44.1002 19.2425C43.0002 19.3425 41.9002 19.5425 40.9002 19.8425C39.7002 20.2425 38.6002 20.8425 37.7002 21.7425C36.9002 22.4425 36.3002 23.3425 35.8002 24.2425C35.3002 25.2425 35.0002 26.2425 34.8002 27.3425C34.7002 28.0425 34.6002 28.7425 34.5002 29.4425V29.5425C34.6002 29.5425 34.7002 29.4425 34.7002 29.4425C35.9002 28.8425 37.1002 28.2425 38.4002 27.7425C39.9002 27.0425 41.5002 26.2425 43.0002 25.5425C44.2002 24.9425 45.4002 24.4425 46.5002 23.8425C46.8002 23.7425 47.1002 23.5425 47.4002 23.4425C47.4002 23.4425 47.5002 23.4425 47.6002 23.4425C48.3002 23.8425 49.0002 24.2425 49.7002 24.5425C51.1002 25.3425 52.5002 26.0425 53.9002 26.8425C55.1002 27.5425 56.4002 28.1425 57.6002 28.8425C57.9002 29.0425 58.2002 29.2425 58.6002 29.3425C58.7002 29.3425 58.7002 29.4425 58.7002 29.5425C58.7002 30.4425 58.6002 31.3425 58.4002 32.1425C58.2002 32.9425 58.0002 33.6425 57.7002 34.4425C57.7002 34.5425 57.6002 34.5425 57.5002 34.5425C55.7002 33.5425 54.0002 32.6425 52.2002 31.6425C50.6002 30.8425 49.1002 29.9425 47.5002 29.1425C47.4002 29.1425 47.4002 29.1425 47.3002 29.1425C46.0002 29.7425 44.8002 30.3425 43.5002 31.0425C42.1002 31.7425 40.6002 32.4425 39.2002 33.1425C38.3002 33.5425 37.5002 33.9425 36.6002 34.4425C36.6002 34.4425 36.5002 34.4425 36.5002 34.5425C36.6002 34.7425 36.8002 34.9425 36.9002 35.0425C37.0002 35.2425 37.0002 35.2425 37.2002 35.1425C38.4002 34.6425 39.5002 34.0425 40.7002 33.5425C42.2002 32.8425 43.8002 32.1425 45.3002 31.3425C46.1002 30.9425 46.9002 30.6425 47.6002 30.2425H47.7002C48.5002 30.6425 49.4002 31.1425 50.2002 31.6425C51.3002 32.2425 52.4002 32.7425 53.4002 33.3425C54.7002 34.0425 55.9002 34.6425 57.2002 35.3425C57.2002 35.3425 57.2002 35.3425 57.3002 35.3425C57.3002 35.4425 57.2002 35.5425 57.2002 35.6425C56.6002 36.9425 55.8002 38.0425 54.7002 39.0425C54.6002 39.1425 54.4002 39.2425 54.3002 39.4425H54.2002C53.4002 39.0425 52.5002 38.5425 51.7002 38.1425C50.9002 37.7425 50.0002 37.2425 49.2002 36.8425C48.7002 36.5425 48.1002 36.2425 47.6002 35.9425C47.5002 35.9425 47.5002 35.9425 47.4002 35.9425C46.0002 36.6425 44.6002 37.3425 43.2002 38.0425C42.9002 38.2425 42.6002 38.3425 42.3002 38.5425C42.3002 38.5425 42.2002 38.5425 42.2002 38.6425C42.3002 38.6425 42.3002 38.6425 42.4002 38.6425C42.8002 38.7425 43.1002 38.7425 43.5002 38.8425C43.6002 38.8425 43.6002 38.8425 43.7002 38.8425C44.4002 38.5425 45.2002 38.1425 45.9002 37.8425C46.5002 37.5425 47.1002 37.3425 47.6002 37.0425C47.7002 37.0425 47.7002 37.0425 47.8002 37.0425C49.6002 38.0425 51.4002 39.0425 53.3002 40.1425C53.4002 40.2425 53.6002 40.3425 53.7002 40.3425C53.5002 40.4425 53.4002 40.6425 53.2002 40.7425C52.0002 41.6425 50.6002 42.3425 49.2002 42.8425C48.2002 43.2425 47.2002 43.4425 46.1002 43.6425C45.7002 43.7425 45.2002 43.7425 44.8002 43.7425C44.3002 43.7425 43.9002 43.7425 43.4002 43.7425C42.8002 43.7425 42.3002 43.6425 41.8002 43.5425C40.7002 43.3425 39.7002 42.9425 38.7002 42.5425C37.6002 42.0425 36.5002 41.3425 35.5002 40.5425C34.9002 40.0425 34.3002 39.5425 33.8002 38.9425C33.0002 38.0425 32.3002 37.0425 31.7002 35.9425C31.3002 35.1425 30.9002 34.2425 30.7002 33.3425C30.4002 32.4425 30.2002 31.5425 30.2002 30.6425C30.2002 29.9425 30.2002 29.3425 30.2002 28.6425C30.2002 27.6425 30.3002 26.7425 30.5002 25.8425C30.8002 24.5425 31.2002 23.3425 31.7002 22.2425C32.4002 20.7425 33.3002 19.4425 34.5002 18.3425C35.8002 17.1425 37.3002 16.1425 38.9002 15.5425C40.0002 15.1425 41.1002 14.8425 42.3002 14.7425C43.3002 14.6425 44.3002 14.5425 45.3002 14.6425C45.9002 14.6425 46.4002 14.7425 47.0002 14.7425C47.1002 14.7425 47.1002 14.7425 47.1002 14.8425C47.0002 15.8425 47.0002 16.9425 46.9002 17.9425C46.7002 18.3425 46.7002 18.8425 46.6002 19.3425Z" fill="#241F20"/>
<path id="Client Logo_5" d="M58.6002 27.9424C58.3002 27.7424 58.0002 27.6424 57.7002 27.4424C56.6002 26.8424 55.4002 26.2424 54.3002 25.7424C53.1002 25.1424 52.0002 24.5424 50.8002 23.9424C49.8002 23.4424 48.8002 22.9424 47.8002 22.4424C47.7002 22.4424 47.7002 22.3424 47.7002 22.3424C47.7002 21.4424 47.8002 20.5424 47.8002 19.7424C47.8002 19.2424 47.8002 18.7424 47.9002 18.3424C47.9002 17.7424 48.0002 17.0424 48.0002 16.4424C48.0002 16.0424 48.0002 15.6424 48.0002 15.2424C48.0002 15.1424 48.0002 15.1424 48.1002 15.1424C49.8002 15.6424 51.4002 16.4424 52.8002 17.5424C54.1002 18.5424 55.2002 19.6424 56.1002 21.0424C56.9002 22.2424 57.5002 23.4424 57.9002 24.8424C58.2002 25.7424 58.4002 26.7424 58.5002 27.7424C58.6002 27.6424 58.6002 27.7424 58.6002 27.9424Z" fill="#34803E"/>
<path id="Client Logo_6" d="M54.5008 14.5424C54.7008 14.2424 55.0007 13.8424 55.2007 13.5424C55.4007 13.2424 55.6008 12.9424 55.8008 12.7424C56.0008 12.4424 56.2008 12.1424 56.4008 11.8424C56.6008 11.6424 56.7008 11.3424 56.9008 11.1424C57.0008 11.0424 57.1007 10.8424 57.2007 10.7424C57.3007 10.6424 57.4008 10.5424 57.5008 10.3424C57.6008 10.2424 57.6007 10.1424 57.7007 10.0424C57.7007 9.94243 57.8008 9.94243 57.9008 10.0424C58.1008 10.2424 58.3008 10.3424 58.5008 10.5424V10.6424C58.3008 10.8424 58.1008 11.1424 57.9008 11.3424C57.8008 11.5424 57.7008 11.6424 57.5008 11.8424C57.4008 12.0424 57.2008 12.2424 57.1008 12.3424C57.0008 12.4424 56.9008 12.5424 56.8008 12.7424C56.6008 13.0424 56.4007 13.2424 56.2007 13.5424C56.0007 13.8424 55.8008 14.0424 55.6008 14.3424C55.5008 14.5424 55.3007 14.6424 55.2007 14.8424C55.0007 15.1424 54.8008 15.4424 54.6008 15.6424H54.5008C54.1008 15.3424 53.8008 15.1424 53.4008 14.8424C53.2008 14.7424 53.0008 14.5424 52.8008 14.4424C52.4008 14.1424 52.0008 13.9424 51.5008 13.7424C51.3008 13.6424 51.1008 13.5424 50.9008 13.4424C50.7008 13.3424 50.5008 13.2424 50.3008 13.1424C50.2008 13.0424 50.0008 13.0424 49.9008 12.9424C49.8008 12.9424 49.8007 12.9424 49.7007 13.0424C49.5007 13.2424 49.3008 13.3424 49.1008 13.3424C48.9008 13.3424 48.7008 13.3424 48.6008 13.3424C48.5008 13.3424 48.3007 13.2424 48.2007 13.1424C48.0007 12.9424 47.9008 12.7424 47.8008 12.5424L47.7007 12.4424C47.3007 12.3424 46.9008 12.2424 46.6008 12.2424C46.5008 12.2424 46.3007 12.2424 46.2007 12.2424C45.8007 12.2424 45.4008 12.1424 45.0008 12.2424C45.0008 12.2424 44.9008 12.2424 44.9008 12.1424C44.9008 11.9424 44.9008 11.6424 44.9008 11.4424C44.9008 11.2424 44.9008 11.1424 44.9008 10.9424C44.9008 10.6424 44.9008 10.3424 44.9008 10.0424C44.9008 9.74243 44.9008 9.44243 44.9008 9.14243C44.9008 8.94243 44.9008 8.84243 44.9008 8.64243V8.54243H44.8008C44.5008 8.64243 44.5008 8.84243 44.4008 9.14243C44.3008 9.54243 44.4008 9.94244 44.4008 10.2424C44.4008 10.4424 44.4008 10.6424 44.4008 10.7424C44.4008 11.1424 44.4008 11.5424 44.3008 11.9424C44.3008 12.0424 44.3007 12.0424 44.2007 12.0424C44.1007 12.0424 44.0008 12.0424 43.9008 12.0424C43.9008 12.0424 43.8008 12.0424 43.8008 11.9424C43.8008 11.5424 43.8008 11.0424 43.8008 10.6424C43.8008 10.3424 43.8008 10.0424 43.8008 9.74244C43.8008 9.44244 43.8008 9.04244 43.8008 8.74244C43.8008 8.34244 43.9007 8.04244 44.2007 7.84244C44.4007 7.74244 44.6007 7.64243 44.7007 7.54243C44.9007 7.44243 45.1008 7.34244 45.3008 7.24244C45.4008 7.14244 45.5008 7.04244 45.6008 6.94244C45.6008 6.94244 45.7007 6.94244 45.7007 6.84244C45.7007 6.94244 45.7007 6.94243 45.7007 7.04243C45.7007 7.24243 45.7007 7.34243 45.7007 7.54243V7.64243C45.6007 8.04243 45.7008 8.34244 45.6008 8.74244C45.6008 8.94244 45.6008 9.14244 45.6008 9.34244C45.6008 9.64244 45.6008 10.0424 45.6008 10.3424C45.6008 10.5424 45.6008 10.8424 45.6008 11.0424C45.6008 11.1424 45.7008 11.2424 45.8008 11.2424C46.1008 11.3424 46.3008 11.3424 46.6008 11.3424C46.6008 11.3424 46.6007 11.3424 46.7007 11.2424C46.7007 11.1424 46.7007 11.1424 46.7007 11.0424C46.8007 10.6424 46.8008 10.2424 46.9008 9.94244C46.9008 9.74244 47.0008 9.64244 47.0008 9.44244C47.0008 9.34244 47.0008 9.34244 47.1008 9.34244C47.3008 9.44244 47.5008 9.44243 47.6008 9.54243C47.7008 9.54243 47.7008 9.54243 47.8008 9.64243V9.74244C47.7008 9.94244 47.6008 10.2424 47.6008 10.4424C47.6008 10.5424 47.6008 10.6424 47.5008 10.7424C47.5008 10.8424 47.4008 11.0424 47.4008 11.1424C47.3008 11.3424 47.4008 11.4424 47.6008 11.4424C47.7008 11.4424 47.8008 11.5424 47.9008 11.5424H48.0008C48.2008 11.3424 48.4007 11.1424 48.7007 11.1424C48.9007 11.1424 49.0007 11.1424 49.2007 11.1424C49.4007 11.1424 49.6007 11.3424 49.7007 11.5424C49.8007 11.7424 49.9008 11.9424 50.0008 12.0424C50.1008 12.1424 50.1007 12.2424 50.2007 12.3424C50.4007 12.4424 50.4008 12.4424 50.5008 12.2424C50.6008 12.0424 50.7008 11.7424 50.8008 11.5424C50.9008 11.2424 51.0007 10.9424 51.2007 10.6424C51.3007 10.6424 51.4008 10.7424 51.5008 10.7424C51.6008 10.7424 51.6007 10.8424 51.7007 10.8424C51.9007 10.9424 52.0008 10.9424 51.8008 11.2424C51.7008 11.3424 51.7008 11.5424 51.6008 11.6424C51.5008 11.7424 51.5008 11.9424 51.4008 12.0424C51.3008 12.2424 51.2007 12.4424 51.2007 12.6424C51.2007 12.6424 51.1007 12.7424 51.2007 12.8424C51.2007 12.8424 51.3008 12.9424 51.4008 12.9424C51.5008 13.0424 51.6007 13.0424 51.7007 13.1424C51.8007 13.2424 51.8008 13.2424 51.9008 13.0424C52.1008 12.7424 52.2008 12.4424 52.4008 12.0424C52.5008 11.8424 52.6007 11.7424 52.7007 11.5424C52.7007 11.4424 52.8008 11.4424 52.8008 11.4424C52.9008 11.4424 53.0008 11.5424 53.1008 11.5424C53.2008 11.5424 53.2008 11.6424 53.3008 11.6424C53.4008 11.6424 53.4008 11.7424 53.4008 11.8424C53.2008 12.2424 53.0008 12.5424 52.8008 12.9424C52.7008 13.0424 52.6008 13.2424 52.6008 13.3424C52.6008 13.4424 52.6008 13.4424 52.6008 13.4424C52.8008 13.5424 53.0007 13.6424 53.2007 13.7424C53.3007 13.7424 53.3008 13.8424 53.3008 13.7424C53.4008 13.5424 53.5008 13.3424 53.6008 13.1424C53.7008 13.0424 53.7008 12.9424 53.8008 12.8424C53.8008 12.7424 53.9008 12.7424 53.9008 12.6424C54.0008 12.4424 54.2008 12.1424 54.3008 11.9424C54.4008 11.7424 54.5008 11.5424 54.6008 11.4424C54.8008 11.1424 55.0008 10.8424 55.1008 10.5424C55.3008 10.2424 55.5007 9.84243 55.7007 9.54243C55.8007 9.44243 55.9008 9.24243 56.0008 9.04243C56.1008 8.94243 56.1007 8.94243 56.2007 9.04243C56.4007 9.14243 56.5007 9.34244 56.7007 9.44244C56.8007 9.54244 56.8007 9.54243 56.7007 9.64243C56.6007 9.84243 56.5008 9.94243 56.4008 10.1424C56.3008 10.2424 56.2008 10.4424 56.1008 10.5424C56.0008 10.6424 55.9008 10.7424 55.9008 10.9424C55.8008 11.0424 55.7008 11.2424 55.6008 11.3424C55.5008 11.4424 55.4008 11.6424 55.3008 11.7424C55.2008 11.9424 55.0008 12.1424 54.9008 12.4424C54.7008 12.7424 54.6008 12.9424 54.4008 13.2424C54.3008 13.4424 54.1008 13.6424 54.0008 13.9424C54.0008 14.0424 53.9008 14.0424 53.9008 14.1424C53.9008 14.2424 53.9008 14.2424 53.9008 14.2424C54.2008 14.3424 54.3008 14.4424 54.5008 14.5424ZM48.5008 12.2424C48.5008 12.4424 48.7008 12.6424 48.9008 12.6424C49.1008 12.6424 49.3008 12.4424 49.3008 12.2424C49.3008 12.0424 49.1008 11.8424 48.9008 11.8424C48.6008 11.8424 48.5008 11.9424 48.5008 12.2424Z" fill="#241F20"/>
<path id="Client Logo_7" d="M34.6004 45.8425C34.7004 45.9425 34.7004 45.9425 34.7004 46.0425C35.2004 46.5425 35.3004 47.1425 34.9004 47.8425C34.7004 48.2425 34.4004 48.5425 34.1004 48.7425C33.7004 48.9425 33.2004 48.9425 32.8004 48.7425C31.9004 48.2425 31.0004 47.8425 30.1004 47.3425C29.8004 47.2425 29.5004 47.0425 29.3004 46.8425C29.2004 46.8425 29.1004 46.7425 29.1004 46.6425C29.0004 46.4425 28.9004 46.2425 29.0004 46.0425C29.1004 45.9425 29.1004 45.8425 29.3004 45.9425C29.4004 45.9425 29.5004 45.9425 29.5004 46.0425C29.6004 46.0425 29.7004 46.0425 29.8004 45.9425C30.1004 45.4425 30.4004 44.8425 30.7004 44.3425C31.0004 43.7425 31.3004 43.1425 31.6004 42.6425C31.7004 42.4425 31.7004 42.3425 31.5004 42.2425C31.5004 42.2425 31.5004 42.2425 31.4004 42.1425C31.2004 41.9425 31.2004 41.8425 31.3004 41.6425C31.5004 41.4425 31.6004 41.3425 31.9004 41.4425C32.4004 41.7425 33.0004 42.0425 33.5004 42.3425C34.0004 42.6425 34.6004 42.9425 35.1004 43.2425C35.5004 43.4425 35.9004 43.8425 36.0004 44.2425C36.1004 44.6425 36.0004 45.0425 35.8004 45.3425C35.6004 45.6425 35.3004 45.9425 34.9004 45.9425C34.8004 45.7425 34.7004 45.7425 34.6004 45.8425ZM33.0004 46.1425C33.0004 45.8425 32.7004 45.4425 32.4004 45.3425C32.3004 45.3425 32.3004 45.3425 32.3004 45.4425C32.1004 45.8425 31.8004 46.2425 31.6004 46.7425C31.6004 46.7425 31.6004 46.8425 31.6004 46.9425C31.7004 47.1425 32.0004 47.2425 32.3004 47.2425C32.6004 47.0425 33.0004 46.6425 33.0004 46.1425ZM34.0004 43.7425C34.0004 43.3425 33.8004 43.1425 33.5004 43.0425C33.4004 43.0425 33.4004 43.0425 33.4004 43.1425C33.2004 43.5425 33.0004 43.9425 32.7004 44.3425V44.4425C32.8004 44.6425 33.2004 44.7425 33.4004 44.6425C33.5004 44.5425 33.6004 44.4425 33.7004 44.3425C33.9004 44.2425 34.0004 43.9425 34.0004 43.7425Z" fill="#34803E"/>
<path id="Client Logo_8" d="M42.6008 51.6425C42.5008 51.6425 42.4007 51.5425 42.2007 51.5425C42.1007 51.5425 42.0008 51.3425 42.0008 51.2425C42.0008 51.1425 42.1007 51.0425 42.2007 50.9425C42.3007 50.9425 42.4008 50.8425 42.5008 50.8425C42.7008 50.7425 42.7007 50.6425 42.7007 50.5425C42.6007 49.6425 42.6008 48.6425 42.5008 47.7425C42.5008 47.4425 42.5008 47.2425 42.4008 46.9425C42.4008 46.7425 42.3007 46.6425 42.2007 46.6425C42.1007 46.6425 42.0008 46.5425 42.0008 46.5425C41.8008 46.4425 41.8008 46.3425 41.8008 46.1425C41.9008 45.9425 42.0008 45.7425 42.3008 45.7425C43.2008 45.6425 44.0008 45.6425 44.9008 45.5425C45.3008 45.5425 45.8007 45.4425 46.2007 45.5425C46.7007 45.6425 47.1008 45.7425 47.5008 46.0425C48.0008 46.3425 48.3008 46.8425 48.5008 47.4425C48.7008 48.0425 48.7008 48.7425 48.6008 49.3425C48.4008 50.0425 48.0008 50.6425 47.4008 50.9425C46.9008 51.2425 46.4008 51.3425 45.9008 51.4425C45.3008 51.5425 44.7008 51.5425 44.1008 51.6425C43.5008 51.6425 43.1008 51.6425 42.6008 51.6425ZM46.4008 48.9425C46.4008 48.3425 46.3008 47.8425 46.1008 47.3425C45.8008 46.6425 45.2008 46.2425 44.4008 46.4425C44.3008 46.4425 44.3008 46.4425 44.3008 46.6425C44.4008 47.3425 44.4008 48.0425 44.5008 48.7425C44.5008 49.2425 44.6008 49.8425 44.6008 50.3425C44.6008 50.3425 44.6007 50.4425 44.7007 50.4425C45.0007 50.5425 45.3008 50.6425 45.6008 50.6425C45.9008 50.5425 46.1007 50.3425 46.2007 50.0425C46.4007 49.6425 46.4008 49.3425 46.4008 48.9425Z" fill="#34803E"/>
<path id="Client Logo_9" d="M55.4008 47.9425C55.4008 48.2425 55.4007 48.5425 55.2007 48.8425C55.1007 49.0425 55.0008 49.1425 54.8008 49.2425C53.5008 49.7425 52.3008 50.2425 51.0008 50.7425C50.8008 50.8425 50.7008 50.8425 50.5008 50.8425C50.2008 50.7425 50.1008 50.4425 50.3008 50.1425C50.3008 50.0425 50.4008 50.0425 50.4008 49.9425C50.5008 49.8425 50.5008 49.7425 50.5008 49.6425C50.2008 49.0425 50.0007 48.3425 49.7007 47.7425C49.5007 47.3425 49.4007 46.8425 49.2007 46.4425C49.2007 46.3425 49.1008 46.3425 49.1008 46.2425C49.0008 46.0425 48.9008 45.9425 48.6008 45.9425C48.4008 45.9425 48.3008 45.8425 48.3008 45.6425C48.3008 45.4425 48.4008 45.3425 48.5008 45.2425C49.5008 44.8425 50.4008 44.4425 51.4008 44.1425C51.9008 43.9425 52.3008 43.7425 52.8008 43.6425C53.0008 43.5425 53.1007 43.6425 53.2007 43.7425C53.5007 43.9425 53.7008 44.2425 53.8008 44.6425C53.8008 44.7425 53.8008 44.7425 53.8008 44.8425C53.8008 45.1425 53.5007 45.3425 53.2007 45.1425C53.1007 45.0425 52.9008 45.0425 52.8008 44.9425C52.5008 44.7425 52.2008 44.7425 51.9008 44.8425C51.6008 44.9425 51.3008 45.0425 51.0008 45.2425C51.0008 45.2425 50.9008 45.3425 50.9008 45.4425C50.8008 45.7425 50.9008 46.0425 51.1008 46.2425C51.2008 46.3425 51.3008 46.5425 51.4008 46.6425C51.5008 46.7425 51.7008 46.7425 51.8008 46.7425C52.0008 46.6425 52.1008 46.4425 52.1008 46.1425C52.1008 46.0425 52.1008 45.9425 52.1008 45.8425C52.1008 45.7425 52.1008 45.6425 52.3008 45.5425C52.4008 45.4425 52.5008 45.5425 52.6008 45.5425C52.8008 45.7425 52.9008 45.8425 53.0008 46.0425C53.3008 46.4425 53.4008 46.8425 53.4008 47.3425C53.4008 47.5425 53.3007 47.7425 53.2007 47.8425C53.1007 47.9425 53.0008 47.9425 52.9008 47.8425C52.8008 47.7425 52.8007 47.6425 52.7007 47.5425C52.5007 47.2425 52.3008 47.2425 52.0008 47.4425C51.9008 47.5425 51.9008 47.6425 51.9008 47.7425C52.1008 48.1425 52.2008 48.5425 52.4008 48.9425C52.4008 49.0425 52.5008 49.1425 52.6008 49.0425C52.8008 48.9425 53.1008 48.8425 53.3008 48.8425C53.4008 48.8425 53.5008 48.7425 53.5008 48.7425C53.8008 48.6425 54.0008 48.4425 54.1008 48.1425C54.2008 47.9425 54.2008 47.6425 54.3008 47.4425C54.4008 47.1425 54.5008 47.0425 54.8008 47.0425C54.9008 47.0425 55.0008 47.1425 55.1008 47.2425C55.2008 47.3425 55.2007 47.5425 55.2007 47.6425C55.4007 47.6425 55.4008 47.8425 55.4008 47.9425Z" fill="#34803E"/>
<path id="Client Logo_10" d="M32.7005 15.4425C32.5005 15.1425 32.2005 14.7425 32.0005 14.4425C31.9005 14.2425 31.8005 14.1425 31.6005 13.9425C31.5005 13.8425 31.5005 13.7425 31.6005 13.7425C31.8005 13.6425 31.9005 13.4425 32.1005 13.3425C32.2005 13.5425 32.4005 13.6425 32.5005 13.8425V13.7425C32.5005 13.3425 32.7005 13.0425 33.0005 12.8425C33.1005 12.7425 33.2005 12.6425 33.3005 12.6425C33.4005 12.5425 33.5005 12.4425 33.7005 12.3425H33.8005C34.0005 12.6425 34.2005 12.9425 34.4005 13.2425C34.5005 13.4425 34.6005 13.5425 34.7005 13.7425H34.8005C34.9005 13.6425 35.1005 13.5425 35.2005 13.4425C35.3005 13.3425 35.3005 13.2425 35.3005 13.1425C35.1005 12.8425 35.0005 12.4425 34.8005 12.1425C34.8005 12.0425 34.7005 11.9425 34.7005 11.8425C34.7005 11.7425 34.7005 11.7425 34.7005 11.6425C34.8005 11.5425 35.0005 11.4425 35.1005 11.3425C35.2005 11.2425 35.3005 11.2425 35.3005 11.4425C35.4005 11.6425 35.5005 11.9425 35.6005 12.1425C35.7005 12.3425 35.8005 12.6425 36.0005 12.8425C36.0005 12.9425 36.1004 12.9425 36.2004 12.8425C36.4004 12.7425 36.6005 12.6425 36.8005 12.6425C36.9005 12.6425 37.0005 12.5425 37.1005 12.5425C37.2005 12.4425 37.4005 12.4425 37.5005 12.3425C37.6005 12.2425 37.6005 12.1425 37.6005 11.9425C37.5005 11.7425 37.5005 11.5425 37.4005 11.3425C37.2005 11.4425 37.1005 11.4425 36.9005 11.5425C36.7005 11.6425 36.6005 11.6425 36.4005 11.7425C36.3005 11.7425 36.3005 11.7425 36.3005 11.6425C36.2005 11.3425 36.1005 11.0425 35.9005 10.7425C35.8005 10.5425 35.8005 10.3425 35.8005 10.2425C35.8005 9.94248 35.9005 9.74247 36.0005 9.54247C36.2005 9.34247 36.4005 9.24247 36.6005 9.04247C36.8005 8.84247 37.0005 8.74247 37.1005 8.54247C37.1005 8.54247 37.2004 8.54247 37.2004 8.44247C37.2004 8.54247 37.2005 8.64248 37.3005 8.74248C37.4005 9.04248 37.4005 9.24247 37.5005 9.54247C37.5005 9.64247 37.6005 9.84247 37.6005 9.94247C37.7005 10.1425 37.8005 10.3425 37.9005 10.6425C38.1005 11.0425 38.2005 11.4425 38.4005 11.8425C38.5005 12.0425 38.5005 12.2425 38.6005 12.4425V12.5425C38.7005 12.6425 38.6005 12.7425 38.5005 12.8425C38.2005 12.9425 38.0005 13.0425 37.7004 13.1425C37.5005 13.2425 37.3005 13.3425 37.1005 13.4425C36.8005 13.5425 36.6005 13.7425 36.4005 13.8425C36.2005 13.9425 35.9004 14.1425 35.7004 14.2425C35.6004 14.3425 35.4005 14.4425 35.3005 14.4425C35.1005 14.5425 35.0005 14.6425 34.9005 14.7425C34.6005 14.9425 34.4005 15.1425 34.1005 15.2425C33.8005 15.4425 33.6005 15.6425 33.3005 15.8425C33.1005 15.9425 33.0005 16.1425 32.8005 16.3425C32.7005 16.4425 32.6005 16.5425 32.5005 16.6425C32.3005 16.8425 32.2005 16.9425 32.0005 17.1425C31.9005 17.2425 31.9005 17.2425 31.8005 17.1425C31.5005 16.8425 31.3005 16.6425 31.0005 16.3425C30.9005 16.2425 30.7005 16.0425 30.6005 15.9425C30.4005 15.7425 30.1005 15.4425 29.9005 15.2425C29.7005 15.0425 29.6005 14.8425 29.4005 14.7425C29.2005 14.5425 29.1005 14.3425 28.9005 14.2425C28.8005 14.1425 28.6005 13.9425 28.5005 13.8425C28.3005 13.6425 28.1005 13.4425 28.0005 13.2425C27.8005 13.0425 27.7005 12.9425 27.5005 12.7425C27.5005 12.7425 27.4005 12.6425 27.5005 12.5425C27.6005 12.4425 27.8005 12.3425 27.9005 12.1425C28.0005 12.0425 28.1005 12.0425 28.2005 12.1425C28.4005 12.3425 28.6005 12.5425 28.8005 12.7425C29.0005 12.9425 29.3005 13.2425 29.5005 13.4425C29.7005 13.6425 29.9005 13.8425 30.1005 14.0425C30.2005 14.1425 30.4005 14.3425 30.5005 14.4425C30.7005 14.6425 30.9005 14.9425 31.2005 15.1425C31.4005 15.3425 31.5005 15.4425 31.7005 15.6425C31.8005 15.7425 31.9005 15.8425 32.0005 16.0425H32.1005C32.2005 15.9425 32.3005 15.8425 32.4005 15.7425C32.5005 15.6425 32.6005 15.5425 32.7005 15.4425ZM33.8005 13.3425C33.6005 13.5425 33.3005 13.6425 33.1005 13.8425C32.9005 13.9425 32.9005 14.1425 33.0005 14.3425C33.1005 14.5425 33.2005 14.6425 33.4005 14.8425C33.4005 14.9425 33.5005 14.9425 33.5005 14.8425C33.6005 14.7425 33.6005 14.7425 33.7005 14.6425C33.9005 14.5425 34.0005 14.3425 34.2005 14.2425C34.3005 14.1425 34.4005 14.1425 34.5005 14.0425C34.1005 13.8425 33.9005 13.6425 33.8005 13.3425ZM37.4005 10.7425C37.3005 10.4425 37.2004 10.2425 37.2004 10.0425C37.1004 9.84247 37.1005 9.84247 36.9005 9.94247C36.8005 10.0425 36.7005 10.3425 36.8005 10.5425C36.8005 10.5425 36.8005 10.5425 36.8005 10.6425C36.8005 10.7425 36.9005 10.8425 36.9005 10.9425H37.0005C37.2005 10.8425 37.3005 10.7425 37.4005 10.7425Z" fill="#241F20"/>
<path id="Client Logo_11" d="M36.2004 50.2425C35.8004 50.2425 35.5004 50.0424 35.1004 49.9424C34.9004 49.8424 34.8004 49.7424 34.6004 49.6424C34.5004 49.5424 34.4004 49.3425 34.4004 49.2425C34.4004 49.1425 34.5004 49.0424 34.6004 49.0424C34.7004 49.0424 34.8004 49.0424 34.9004 49.0424C35.0004 49.0424 35.1004 49.0424 35.2004 48.8424C36.0004 48.0424 36.7004 47.1424 37.5004 46.3424C37.7004 46.1424 37.8004 45.8424 37.8004 45.5424C37.9004 45.0424 38.2004 44.9424 38.6004 44.8424C38.9004 44.7424 39.3004 44.9425 39.5004 45.2425C39.7004 45.5425 39.8004 45.9425 39.9004 46.2425C40.0004 46.6425 40.1004 47.0424 40.1004 47.5424C40.2004 48.0424 40.3004 48.5424 40.3004 49.0424C40.3004 49.7424 40.6004 50.3424 40.9004 50.9424C40.9004 51.0424 41.0004 51.0424 41.0004 51.1424C41.1004 51.3424 41.1004 51.5424 40.9004 51.5424C40.7004 51.6424 40.5004 51.6424 40.3004 51.5424C39.6004 51.3424 38.9004 51.0424 38.1004 50.8424C37.9004 50.7424 37.8004 50.6424 37.8004 50.4424C37.8004 50.2424 37.9004 50.1424 38.0004 50.1424C38.1004 50.0424 38.3004 50.0424 38.4004 49.9424C38.6004 49.8424 38.6004 49.6424 38.4004 49.5424C38.3004 49.4424 38.2004 49.4424 38.2004 49.4424C37.7004 49.3424 37.3004 49.1424 36.8004 49.0424C36.6004 48.9424 36.4004 49.1424 36.3004 49.3424C36.3004 49.4424 36.3004 49.4424 36.4004 49.5424C36.5004 49.6424 36.6004 49.7424 36.6004 49.8424C36.7004 49.9424 36.7004 50.1425 36.5004 50.2425C36.5004 50.1425 36.3004 50.1425 36.2004 50.2425ZM37.3004 47.9424C37.4004 47.9424 37.4004 48.0424 37.3004 47.9424C37.7004 48.0424 38.0004 48.1425 38.3004 48.2425H38.4004C38.5004 48.2425 38.5004 48.2424 38.5004 48.1424C38.4004 47.8424 38.3004 47.4424 38.2004 47.1424C38.2004 47.0424 38.1004 46.9424 38.0004 46.9424L37.8004 47.0424C37.7004 47.3424 37.5004 47.6424 37.3004 47.9424Z" fill="#34803E"/>
<path id="Client Logo_12" d="M55.5002 42.1425C55.9002 42.1425 56.3002 42.2425 56.6002 42.3425C57.5002 42.6425 58.5002 42.9425 59.4002 43.2425C59.8002 43.4425 60.3002 43.4425 60.7002 43.3425C60.8002 43.3425 61.0002 43.3425 61.1002 43.3425C61.3002 43.3425 61.4002 43.4425 61.4002 43.5425C61.4002 43.7425 61.3002 44.0425 61.2002 44.1425C60.6002 44.7425 60.1002 45.2425 59.5002 45.8425C59.4002 45.9425 59.2002 45.9425 59.0002 45.9425C58.8002 45.8425 58.8002 45.7425 58.8002 45.5425C58.8002 45.4425 58.8002 45.3425 58.8002 45.2425C58.8002 45.1425 58.8002 45.0425 58.7002 44.9425C58.6002 44.8425 58.5002 44.9425 58.4002 44.9425C58.3002 44.9425 58.3002 45.0425 58.2002 45.0425C57.9002 45.3425 57.5002 45.7425 57.2002 46.0425C57.1002 46.1425 57.0002 46.3425 57.2002 46.5425C57.3002 46.6425 57.3002 46.6425 57.4002 46.6425C57.5002 46.6425 57.7002 46.5425 57.8002 46.5425C57.9002 46.5425 58.0002 46.6425 58.0002 46.7425C58.0002 46.9425 58.0002 47.1425 57.8002 47.2425C57.6002 47.5425 57.4002 47.7425 57.1002 47.9425C57.0002 48.0425 56.8002 48.1425 56.7002 48.2425C56.5002 48.3425 56.3002 48.3425 56.2002 48.2425C56.1002 48.1425 56.1002 48.1425 56.1002 47.9425C56.1002 47.8425 56.2002 47.7425 56.3002 47.6425C56.4002 47.5425 56.4002 47.4425 56.3002 47.3425C55.9002 46.2425 55.5002 45.2425 55.1002 44.1425C55.0002 43.9425 54.9002 43.8425 54.8002 43.6425C54.7002 43.5425 54.7002 43.5425 54.6002 43.4425C54.3002 43.2425 54.2002 42.9425 54.3002 42.5425C54.4002 42.0425 54.7002 41.7425 55.2002 41.7425C55.4002 42.1425 55.5002 42.1425 55.5002 42.1425ZM56.4002 44.1425C56.2002 44.1425 56.1002 44.2425 56.2002 44.3425C56.3002 44.6425 56.5002 44.9425 56.7002 45.2425C56.7002 45.3425 56.8002 45.3425 56.8002 45.2425C56.9002 45.1425 57.0002 45.0425 57.1002 44.9425C57.2002 44.7425 57.4002 44.6425 57.5002 44.4425C57.6002 44.3425 57.5002 44.3425 57.4002 44.2425C57.2002 44.1425 56.9002 44.1425 56.7002 44.0425C56.6002 44.2425 56.5002 44.1425 56.4002 44.1425Z" fill="#34803E"/>
<path id="Client Logo_13" d="M26.7005 36.9425C26.6005 36.8425 26.6005 36.6425 26.5005 36.5425C26.5005 36.4425 26.4005 36.3425 26.5005 36.3425C26.5005 36.2425 26.6005 36.2425 26.7005 36.2425C27.0005 36.0425 27.4005 35.8425 27.7005 35.7425C27.8005 35.7425 27.9005 35.6425 28.0005 35.6425V35.5425C27.9005 35.3425 27.8005 35.0425 27.7005 34.8425H27.6005C27.4005 34.9425 27.2005 35.0425 26.9005 35.0425C26.8005 35.0425 26.7005 35.1425 26.6005 35.1425C26.5005 35.1425 26.5005 35.2425 26.5005 35.3425C26.5005 35.7425 26.3005 36.0425 26.0005 36.2425C25.7005 36.4425 25.3005 36.4425 25.0005 36.3425C24.9005 36.3425 24.7005 36.1425 24.6005 36.0425C24.5005 35.9425 24.4005 35.8425 24.2005 35.8425C24.1005 35.8425 24.1005 35.8425 24.0005 35.7425C24.0005 35.6425 24.1005 35.6425 24.1005 35.5425C24.2005 35.4425 24.3005 35.2425 24.3005 35.1425C24.3005 34.9425 24.4005 34.7425 24.5005 34.5425C24.6005 34.3425 24.8005 34.2425 25.0005 34.2425C25.2005 34.2425 25.3005 34.2425 25.5005 34.1425C25.8005 34.1425 26.0005 34.2425 26.2005 34.4425H26.3005C26.7005 34.3425 27.0005 34.1425 27.4005 34.0425C27.5005 34.0425 27.5005 33.9425 27.5005 33.9425V33.8425C27.4005 33.6425 27.4005 33.3425 27.3005 33.1425L27.2005 33.0425C27.1005 33.0425 27.0005 33.0425 26.9005 33.1425C26.7005 33.1425 26.5005 33.2425 26.2005 33.2425C26.0005 33.2425 25.8005 33.3425 25.6005 33.3425C25.4005 33.3425 25.3005 33.4425 25.1005 33.4425C25.0005 33.4425 25.0005 33.4425 24.9005 33.5425C24.8005 33.5425 24.8005 33.5425 24.7005 33.4425C24.7005 33.2425 24.6005 33.1425 24.6005 32.9425C24.6005 32.7425 24.6005 32.7425 24.8005 32.7425C25.0005 32.7425 25.3005 32.7425 25.5005 32.6425C25.7005 32.6425 25.9005 32.6425 26.1005 32.5425C26.4005 32.4425 26.7005 32.4425 27.0005 32.4425C27.2005 32.4425 27.5005 32.3425 27.7005 32.2425C27.9005 32.2425 28.0005 32.2425 28.0005 32.4425C28.0005 32.4425 28.0005 32.4425 28.0005 32.5425C28.0005 32.7425 28.1005 32.9425 28.1005 33.1425C28.2005 33.3425 28.2005 33.5425 28.3005 33.7425C28.4005 33.9425 28.4005 34.1425 28.5005 34.3425C28.6005 34.5425 28.6005 34.7425 28.7005 34.9425C28.8005 35.1425 28.9005 35.4425 29.0005 35.6425C29.1005 35.9425 29.3005 36.2425 29.4005 36.4425C29.5005 36.6425 29.6005 36.8425 29.7005 37.0425C29.7005 37.1425 29.8005 37.1425 29.8005 37.2425C29.9005 37.3425 29.8005 37.4425 29.8005 37.4425C29.4005 37.7425 28.9005 37.9425 28.5005 38.2425C28.2005 38.4425 27.8005 38.6425 27.5005 38.8425C27.3005 38.9425 27.0005 39.1425 26.8005 39.2425C26.6005 39.3425 26.4005 39.4425 26.2005 39.5425C26.0005 39.6425 25.9005 39.7425 25.7005 39.8425C25.5005 39.9425 25.3005 40.0425 25.0005 40.2425C24.8005 40.3425 24.6005 40.4425 24.4005 40.5425C24.3005 40.5425 24.3005 40.5425 24.3005 40.5425C24.2005 40.3425 24.1005 40.2425 24.0005 40.0425C24.0005 40.0425 24.0005 40.0425 24.0005 39.9425C23.9005 39.8425 24.0005 39.8425 24.0005 39.8425C24.2005 39.7425 24.3005 39.6425 24.5005 39.5425C24.9005 39.3425 25.3005 39.1425 25.7005 38.9425C26.1005 38.7425 26.4005 38.5425 26.8005 38.3425C27.0005 38.2425 27.3005 38.0425 27.5005 37.9425C27.6005 37.9425 27.6005 37.8425 27.7005 37.8425C28.1005 37.6425 28.5005 37.4425 28.8005 37.2425C28.7005 37.1425 28.7005 36.9425 28.6005 36.8425C28.5005 36.7425 28.5005 36.5425 28.4005 36.4425C28.4005 36.3425 28.3005 36.3425 28.2005 36.3425C28.0005 36.4425 27.7005 36.5425 27.5005 36.6425C27.2005 36.6425 26.9005 36.7425 26.7005 36.9425ZM25.7005 35.1425C25.7005 34.9425 25.5005 34.7425 25.3005 34.7425C25.0005 34.7425 24.9005 34.9425 24.9005 35.2425C24.9005 35.4425 25.1005 35.6425 25.3005 35.5425C25.5005 35.5425 25.7005 35.3425 25.7005 35.1425Z" fill="#241F20"/>
<path id="Client Logo_14" d="M62.801 32.3425C62.801 32.5425 62.901 32.6425 62.901 32.7425C62.901 32.8425 62.901 32.9425 62.901 32.9425C62.901 33.0425 62.901 33.1425 62.901 33.2425C62.901 33.3425 62.801 33.5424 62.801 33.6424C62.801 33.7424 62.701 33.9425 62.701 34.0424V34.1424C62.201 34.0424 61.701 33.8425 61.201 33.8425C61.101 34.0425 61.101 34.2425 61.001 34.3425C61.001 34.3425 61.001 34.4425 61.101 34.4425C61.501 34.5425 62.001 34.7425 62.401 34.8425C62.701 34.9425 63.101 35.0425 63.401 35.2425C63.601 35.3425 63.701 35.3425 63.901 35.4425C64.101 35.5425 64.401 35.6425 64.601 35.7425C64.801 35.8425 64.901 35.8425 65.101 35.9425C65.401 36.0425 65.701 36.1425 66.001 36.2425C66.201 36.3425 66.201 36.3425 66.101 36.5424C66.001 36.6425 66.001 36.8425 66.001 36.9425C66.001 37.0425 66.001 37.0424 65.901 37.0424C65.801 36.9424 65.701 36.9425 65.601 36.9425C65.401 36.8425 65.101 36.7424 64.901 36.6424C64.601 36.5424 64.301 36.3425 64.001 36.2425C63.801 36.1425 63.601 36.1424 63.401 36.0424C63.101 35.9425 62.801 35.7424 62.501 35.6424C62.301 35.5424 62.101 35.5425 62.001 35.4425C61.901 35.5425 61.801 35.7425 61.701 35.8425C61.601 35.9425 61.501 36.0424 61.301 36.0424C61.001 36.1424 60.701 36.0425 60.401 35.9425C60.201 35.8425 59.901 35.7424 59.701 35.6424C59.601 35.5424 59.501 35.5425 59.601 35.4425C59.801 35.0425 60.001 34.6424 60.101 34.1424C60.201 33.8424 60.301 33.5425 60.401 33.2425C60.401 33.1425 60.501 32.9425 60.501 32.8425C60.501 32.6425 60.601 32.3424 60.701 32.1424C60.701 32.0424 60.701 31.9425 60.701 31.8425C60.801 31.4425 60.801 31.1425 60.801 30.7425C60.801 30.6425 60.801 30.6424 60.701 30.6424C60.401 30.5424 60.101 30.4424 60.001 30.0424C59.901 29.8424 59.901 29.5425 59.901 29.2425C59.901 29.0425 59.901 28.8424 60.001 28.6424C60.001 28.5424 60.001 28.5424 60.101 28.5424C60.201 28.5424 60.301 28.5424 60.401 28.6424C60.501 28.7424 60.401 28.8425 60.401 28.9425C60.401 29.1425 60.401 29.3424 60.501 29.5424C60.701 29.7424 60.901 29.9425 61.201 29.9425C61.401 30.0425 61.701 30.0424 61.901 30.0424C61.901 30.0424 61.901 30.0424 62.001 30.0424C62.401 30.0424 62.801 30.0424 63.201 30.0424C63.501 30.0424 63.501 30.1425 63.501 30.4425V30.5424C63.501 30.8424 63.501 30.7425 63.301 30.7425C63.001 30.7425 62.701 30.7425 62.401 30.7425C62.201 30.7425 62.101 30.7425 61.901 30.7425C61.801 30.7425 61.801 30.7425 61.801 30.8425C61.801 30.9425 61.801 31.1425 61.901 31.2425C62.001 31.3425 62.101 31.4425 62.201 31.5424C62.301 31.5424 62.401 31.5424 62.601 31.6424C62.801 31.6424 63.001 31.7425 63.201 31.7425C63.201 31.7425 63.201 31.7425 63.301 31.7425C63.401 31.7425 63.501 31.7425 63.501 31.7425C63.501 31.8425 63.501 31.9425 63.501 32.0424V32.1424C63.501 32.2424 63.501 32.2425 63.401 32.2425C63.001 32.3425 62.901 32.3425 62.801 32.3425ZM62.201 33.5424C62.201 33.2424 62.301 32.9425 62.301 32.5424C62.301 32.3424 62.301 32.2424 62.101 32.1424C61.901 32.1424 61.701 32.0424 61.501 32.0424C61.501 32.1424 61.401 32.2425 61.401 32.2425C61.301 32.5425 61.301 32.8424 61.201 33.1424C61.201 33.3424 61.201 33.3425 61.401 33.3425C61.701 33.4425 62.001 33.5424 62.201 33.5424ZM61.001 35.6424C61.201 35.6424 61.401 35.4425 61.401 35.3425V35.2425C61.201 35.1425 61.001 35.0425 60.801 34.9425H60.701C60.601 35.0425 60.601 35.1425 60.501 35.3425V35.4425C60.701 35.5425 60.801 35.7424 61.001 35.6424Z" fill="#241F20"/>
<path id="Client Logo_15" d="M41.9006 12.7425C41.8006 12.8425 41.7006 12.8425 41.6006 12.9425C41.5006 13.0425 41.3006 13.1425 41.2006 13.3425C41.1006 13.4425 41.0006 13.6425 40.9006 13.7425H40.8006C40.6006 13.5425 40.3006 13.4425 40.1006 13.2425C40.0006 13.1425 39.8006 13.0425 39.6006 13.0425C39.6006 13.0425 39.6006 13.0425 39.5006 13.0425C39.6006 12.9425 39.7006 12.8425 39.8006 12.7425C39.9006 12.7425 39.9006 12.6425 39.8006 12.6425C39.5006 12.4425 39.4006 12.2425 39.3006 11.9425C39.2006 11.6425 39.2006 11.4425 39.1006 11.1425C39.0006 10.8425 38.9006 10.4425 38.9006 10.1425C38.8006 9.74246 38.7006 9.34246 38.6006 8.94246C38.5006 8.64246 38.4006 8.34246 38.4006 8.04246C38.3006 7.74246 38.3006 7.44246 38.2006 7.14246C38.2006 6.94246 38.1006 6.74246 38.1006 6.64246C38.1006 6.54246 38.1006 6.54246 38.2006 6.44246C38.4006 6.34246 38.6006 6.24246 38.8006 6.24246C38.9006 6.24246 38.9006 6.24246 39.0006 6.34246C39.0006 6.54246 39.1006 6.74246 39.1006 6.94246C39.2006 7.24246 39.2006 7.54246 39.3006 7.74246C39.3006 7.94246 39.4006 8.14246 39.4006 8.44246C39.5006 8.64246 39.5006 8.94246 39.6006 9.14246C39.6006 9.24246 39.6006 9.34246 39.6006 9.34246C39.6006 9.54246 39.7006 9.74246 39.7006 9.94246C39.7006 10.0425 39.7006 10.0425 39.8006 10.1425C39.9006 10.4425 39.9006 10.6425 40.0006 10.9425C40.0006 11.0425 40.0006 11.1425 40.1006 11.2425C40.2006 11.5425 40.2006 11.8425 40.3006 12.0425C40.3006 12.1425 40.4006 12.2425 40.6006 12.2425C40.7006 12.2425 40.8006 12.2425 40.9006 12.0425C41.0006 11.8425 41.0006 11.6425 41.0006 11.3425C41.0006 11.1425 40.9006 10.9425 40.9006 10.6425C40.9006 10.4425 40.8006 10.1425 40.8006 9.94246C40.8006 9.74246 40.7006 9.54246 40.7006 9.34246C40.7006 9.14246 40.6006 9.04246 40.6006 8.84246C40.6006 8.74246 40.6006 8.64246 40.6006 8.64246C40.5006 8.34246 40.5006 8.04246 40.4006 7.64246C40.4006 7.34246 40.3006 7.14246 40.3006 6.84246C40.3006 6.64246 40.2006 6.34246 40.2006 6.14246C40.2006 6.04246 40.2006 5.94246 40.3006 5.84246C40.4006 5.84246 40.6006 5.74246 40.7006 5.74246C40.8006 5.74246 40.8006 5.74246 40.9006 5.74246C40.9006 5.84246 40.9006 6.04246 41.0006 6.14246C41.0006 6.24246 41.1006 6.44246 41.1006 6.54246C41.1006 6.74246 41.1006 6.84246 41.2006 7.04246C41.2006 7.24246 41.3006 7.34246 41.3006 7.54246C41.3006 7.54246 41.3006 7.54246 41.3006 7.64246C41.3006 7.84246 41.3006 7.94246 41.3006 8.14246C41.3006 8.24246 41.4006 8.44246 41.4006 8.54246V8.64246C41.4006 8.74246 41.4006 8.74246 41.4006 8.84246C41.4006 8.84246 41.4006 8.84246 41.4006 8.94246C41.4006 9.04246 41.4006 9.24246 41.4006 9.34246C41.4006 9.44246 41.5006 9.64246 41.5006 9.74246C41.5006 9.84246 41.5006 9.94246 41.5006 10.0425C41.5006 10.3425 41.6006 10.5425 41.6006 10.8425C41.6006 10.9425 41.7006 11.1425 41.7006 11.2425C41.7006 11.3425 41.7006 11.4425 41.7006 11.5425C41.7006 11.6425 41.7006 11.6425 41.7006 11.7425C41.7006 11.9425 41.6006 12.0425 41.5006 12.2425V12.3425C41.6006 12.5425 41.7006 12.6425 41.9006 12.7425ZM41.1006 12.9425C41.1006 12.7425 40.9006 12.5425 40.8006 12.5425C40.6006 12.5425 40.5006 12.7425 40.5006 12.8425C40.5006 13.0425 40.6006 13.1425 40.8006 13.2425C40.9006 13.2425 41.1006 13.0425 41.1006 12.9425Z" fill="#241F20"/>
<path id="Client Logo_16" d="M56.501 19.2424C56.601 19.1424 56.701 19.0424 56.801 18.9424C56.901 18.8424 56.9009 18.9424 56.9009 18.9424C57.0009 19.0424 57.101 19.2424 57.301 19.3424C57.501 19.5424 57.7009 19.5424 57.9009 19.4424C58.1009 19.3424 58.301 19.2424 58.501 19.0424C58.701 18.9424 58.801 18.7424 59.001 18.6424H59.101C59.301 18.7424 59.5009 18.8424 59.7009 18.9424C59.8009 18.9424 59.8009 19.0424 59.7009 19.1424C59.6009 19.2424 59.5009 19.2424 59.4009 19.3424C59.3009 19.4424 59.2009 19.5424 59.2009 19.6424C59.2009 19.7424 59.201 19.8424 59.301 19.8424C59.401 20.0424 59.501 20.2424 59.601 20.4424C59.701 20.5424 59.701 20.6424 59.801 20.7424C59.901 20.8424 60.001 20.7424 60.001 20.6424C60.101 20.4424 60.201 20.2424 60.301 20.0424C60.301 19.9424 60.401 19.9424 60.501 19.9424C60.601 20.0424 60.8009 20.1424 60.9009 20.1424C61.1009 20.2424 61.3009 20.3424 61.4009 20.3424C61.5009 20.3424 61.601 20.4424 61.801 20.4424C61.601 20.9424 61.4009 21.4424 61.2009 21.9424C61.1009 21.8424 61.0009 21.8424 60.9009 21.7424C60.7009 21.6424 60.6009 21.5424 60.4009 21.4424C60.3009 21.4424 60.2009 21.4424 60.2009 21.5424C60.2009 21.6424 60.3009 21.8424 60.4009 21.9424C60.5009 22.1424 60.6009 22.2424 60.7009 22.4424C60.8009 22.5424 60.8009 22.5424 60.9009 22.5424C61.1009 22.4424 61.2009 22.4424 61.4009 22.4424C61.6009 22.4424 61.7009 22.3424 61.9009 22.2424C62.0009 22.2424 62.1009 22.1424 62.2009 22.1424C62.4009 22.0424 62.601 22.0424 62.801 21.9424C63.001 21.8424 63.101 21.8424 63.301 21.7424C63.601 21.6424 63.9009 21.5424 64.2009 21.4424C64.5009 21.3424 64.801 21.2424 65.101 21.1424C65.301 21.0424 65.401 21.0424 65.601 20.9424C65.701 20.9424 65.8009 20.8424 65.9009 20.8424C66.0009 20.8424 66.001 20.8424 66.101 20.9424C66.101 21.0424 66.1009 21.0424 66.2009 21.1424C66.2009 21.2424 66.301 21.3424 66.301 21.4424C66.401 21.6424 66.4009 21.6424 66.2009 21.6424C65.9009 21.7424 65.7009 21.7424 65.4009 21.8424C65.1009 21.9424 64.801 22.0424 64.501 22.0424C64.201 22.1424 63.901 22.2424 63.601 22.2424C63.101 22.3424 62.601 22.5424 62.101 22.6424C61.701 22.7424 61.401 22.8424 61.001 22.9424C60.701 23.0424 60.5009 23.0424 60.2009 23.1424H60.101C60.001 22.8424 59.901 22.5424 59.801 22.2424C59.701 22.0424 59.601 21.7424 59.501 21.5424C59.401 21.4424 59.501 21.3424 59.501 21.2424C59.601 21.1424 59.601 21.1424 59.601 21.0424C59.701 20.8424 59.6009 20.7424 59.4009 20.6424C59.3009 20.6424 59.201 20.6424 59.101 20.6424C59.001 20.6424 59.001 20.6424 59.001 20.5424C58.901 20.2424 58.801 19.9424 58.501 19.6424C58.401 19.4424 58.301 19.4424 58.101 19.5424C57.901 19.6424 57.801 19.6424 57.601 19.6424C57.401 19.6424 57.201 19.5424 57.101 19.4424C56.901 19.2424 56.701 19.0424 56.501 18.8424C56.601 19.3424 56.501 19.2424 56.501 19.2424ZM61.001 21.2424C61.001 21.1424 60.901 21.0424 60.801 21.0424C60.701 21.0424 60.601 21.1424 60.601 21.3424C60.601 21.4424 60.701 21.5424 60.801 21.5424C60.901 21.4424 61.001 21.3424 61.001 21.2424Z" fill="#241F20"/>
<path id="Client Logo_17" d="M25.0004 30.2424C24.8004 30.2424 24.6004 30.2424 24.4004 30.2424C24.3004 30.2424 24.1004 30.2424 24.0004 30.2424C23.6004 30.2424 23.2004 30.1424 23.0004 29.7424C22.9004 29.5424 22.8004 29.3424 22.7004 29.0424C22.6004 28.8424 22.6004 28.7424 22.6004 28.5424C22.5004 28.3424 22.5004 28.2424 22.4004 28.1424C22.8004 28.1424 23.2004 28.1424 23.7004 28.1424C24.6004 28.2424 25.4004 28.1424 26.3004 28.1424C26.7004 28.1424 27.0004 28.1424 27.4004 28.1424C27.5004 28.1424 27.5004 28.1424 27.5004 28.2424C27.5004 28.5424 27.5004 28.9424 27.5004 29.2424C27.5004 29.5424 27.5004 29.7424 27.5004 30.0424C27.5004 30.1424 27.5004 30.2424 27.5004 30.3424C27.5004 30.4424 27.5004 30.5424 27.7004 30.5424C28.0004 30.5424 28.3004 30.4424 28.7004 30.5424C29.0004 30.5424 29.2004 30.7424 29.2004 31.0424C29.3004 31.2424 29.3004 31.4424 29.3004 31.6424C29.3004 31.7424 29.3004 31.8424 29.4004 31.9424C29.4004 32.0424 29.4004 32.0424 29.3004 32.0424C29.2004 32.0424 29.1004 32.0424 29.0004 32.0424C28.9004 32.0424 28.9004 32.0424 28.9004 31.9424C28.9004 31.7424 28.8004 31.5424 28.7004 31.4424C28.6004 31.2424 28.3004 31.2424 28.1004 31.2424C27.8004 31.2424 27.5004 31.3424 27.2004 31.3424C27.0004 31.3424 26.7004 31.3424 26.5004 31.4424C26.1004 31.4424 25.8004 31.5424 25.4004 31.5424C25.3004 31.5424 25.2004 31.5424 25.2004 31.5424C25.2004 31.5424 25.2004 31.4424 25.2004 31.3424C25.2004 31.1424 25.2004 31.0424 25.2004 30.8424C25.2004 30.7424 25.2004 30.7424 25.3004 30.7424C25.5004 30.7424 25.7004 30.7424 25.9004 30.7424C26.2004 30.7424 26.5004 30.6424 26.8004 30.6424C26.9004 30.6424 26.9004 30.6424 26.9004 30.5424C26.9004 30.1424 26.9004 29.8424 26.9004 29.4424C26.9004 29.1424 26.7004 28.9424 26.5004 28.9424C26.3004 28.8424 26.0004 28.9424 25.8004 28.9424C25.7004 28.9424 25.5004 28.9424 25.4004 28.9424C25.2004 28.9424 25.2004 28.9424 25.2004 29.1424C25.0004 29.5424 25.0004 29.9424 25.0004 30.2424ZM23.9004 29.0424C23.8004 29.0424 23.7004 29.0424 23.5004 29.0424C23.4004 29.0424 23.3004 29.0424 23.4004 29.2424C23.4004 29.3424 23.5004 29.4424 23.5004 29.5424C23.6004 29.6424 23.8004 29.7424 23.9004 29.7424C24.3004 29.6424 24.3004 29.7424 24.3004 29.3424V29.2424C24.3004 29.1424 24.3004 29.1424 24.2004 29.1424C24.1004 29.0424 24.0004 29.0424 23.9004 29.0424Z" fill="#241F20"/>
<path id="Client Logo_18" d="M27.1006 18.1424C27.2006 17.9424 27.4006 17.7424 27.5006 17.5424C27.5006 17.4424 27.6006 17.4424 27.6006 17.5424C27.8006 17.6424 28.0006 17.8424 28.2006 17.9424C28.4006 18.0424 28.5006 18.1424 28.7006 18.2424C28.8006 18.3424 29.0006 18.4424 29.1006 18.5424C29.2006 18.6424 29.4006 18.7424 29.5006 18.8424C29.7006 19.0424 30.0006 19.1424 30.2006 19.3424C30.3006 19.3424 30.2006 19.4424 30.2006 19.4424C30.0006 19.7424 29.8006 20.0424 29.7006 20.3424C29.6006 20.5424 29.4006 20.8424 29.3006 21.0424C29.2006 21.1424 29.2006 21.2424 29.1006 21.4424L29.0006 21.5424C28.9006 21.5424 28.7006 21.4424 28.6006 21.3424C28.4006 21.2424 28.1006 21.1424 27.9006 21.0424C27.7006 20.9424 27.5006 20.8424 27.3006 20.7424C27.2006 20.6424 27.0006 20.6424 26.9006 20.5424C26.7006 20.4424 26.5006 20.3424 26.3006 20.2424C26.1006 20.1424 25.8006 20.0424 25.6006 19.9424C25.5006 19.9424 25.5006 19.9424 25.5006 20.0424C25.4006 20.3424 25.5006 20.5424 25.8006 20.7424C25.9006 20.8424 26.1006 20.8424 26.2006 20.9424C26.4006 21.0424 26.5006 21.1424 26.7006 21.1424C27.0006 21.2424 27.3006 21.4424 27.6006 21.5424C27.9006 21.6424 28.2006 21.8424 28.5006 21.9424C28.6006 21.9424 28.7006 22.0424 28.8006 22.0424C28.9006 22.0424 28.9006 22.1424 28.8006 22.2424C28.8006 22.3424 28.7006 22.3424 28.7006 22.4424H28.6006C28.3006 22.3424 28.1006 22.2424 27.8006 22.1424C27.6006 22.0424 27.3006 21.9424 27.1006 21.8424C26.8006 21.7424 26.5006 21.6424 26.2006 21.4424C25.9006 21.3424 25.5006 21.1424 25.2006 21.0424C25.0006 20.9424 24.8006 20.8424 24.7006 20.6424C24.6006 20.5424 24.6006 20.3424 24.6006 20.2424C24.6006 20.0424 24.6006 19.8424 24.7006 19.6424C24.8006 19.3424 24.8006 19.0424 24.8006 18.7424C24.8006 18.7424 24.8006 18.7424 24.8006 18.6424H24.9006C25.1006 18.7424 25.3006 18.8424 25.5006 18.9424C25.8006 19.0424 26.1006 19.2424 26.4006 19.3424C26.8006 19.5424 27.1006 19.6424 27.5006 19.8424C27.8006 19.9424 28.0006 20.1424 28.3006 20.2424C28.5006 20.3424 28.7006 20.3424 28.8006 20.2424C28.9006 20.2424 28.9006 20.1424 28.9006 20.1424C29.0006 19.9424 29.1006 19.8424 29.2006 19.6424V19.5424C28.9006 19.3424 28.7006 19.1424 28.4006 18.9424C28.1006 18.7424 27.9006 18.5424 27.6006 18.3424C27.3006 18.3424 27.2006 18.2424 27.1006 18.1424Z" fill="#241F20"/>
<path id="Client Logo_19" d="M24.201 23.9424C24.101 23.9424 24.101 23.9424 24.101 23.9424C23.801 23.8424 23.501 23.7424 23.201 23.7424C22.901 23.7424 22.701 23.5424 22.601 23.2424C22.501 22.9424 22.501 22.6424 22.501 22.3424C22.501 22.1424 22.501 21.9424 22.501 21.7424V21.6424C22.601 21.6424 22.701 21.7424 22.801 21.7424C23.101 21.8424 23.401 21.9424 23.801 22.0424C24.001 22.1424 24.201 22.1424 24.501 22.2424C24.801 22.3424 25.201 22.4424 25.401 22.6424C25.501 22.7424 25.501 22.7424 25.601 22.8424H25.701C25.801 22.8424 25.901 22.7424 25.901 22.7424C26.001 22.7424 26.101 22.7424 26.201 22.7424C26.301 22.7424 26.401 22.7424 26.601 22.8424C26.801 22.8424 26.901 22.9424 27.101 22.9424C27.401 23.0424 27.601 23.1424 27.901 23.2424C28.001 23.2424 28.101 23.3424 28.201 23.3424V23.4424C28.201 23.5424 28.201 23.6424 28.201 23.7424C28.101 23.9424 28.201 24.0424 28.101 24.2424C28.101 24.3424 28.101 24.4424 28.101 24.5424C28.101 24.6424 28.101 24.7424 28.101 24.8424C28.101 24.9424 28.001 25.0424 28.001 25.1424C28.001 25.3424 27.901 25.5424 27.901 25.7424C27.901 25.8424 27.901 25.9424 27.901 26.0424C27.901 26.1424 27.801 26.1424 27.701 26.1424C27.601 26.1424 27.501 26.0424 27.301 26.0424C27.101 26.0424 26.901 25.9424 26.701 25.9424C26.401 25.9424 26.201 25.8424 25.901 25.8424C25.701 25.8424 25.501 25.7424 25.401 25.7424C25.201 25.7424 25.101 25.6424 24.901 25.6424C24.801 25.6424 24.701 25.6424 24.601 25.5424L24.501 25.4424C24.501 25.2424 24.601 25.0424 24.601 24.9424C24.601 24.8424 24.701 24.8424 24.801 24.8424C25.101 24.8424 25.301 24.9424 25.601 25.0424C25.701 25.0424 25.801 25.1424 26.001 25.1424C26.201 25.1424 26.301 25.2424 26.501 25.2424C26.701 25.2424 26.801 25.2424 27.001 25.2424L27.101 25.1424C27.201 24.9424 27.201 24.7424 27.301 24.4424C27.301 24.3424 27.401 24.2424 27.401 24.0424C27.401 23.9424 27.401 23.9424 27.301 23.9424C27.101 23.8424 26.901 23.7424 26.701 23.7424C26.601 23.7424 26.401 23.7424 26.301 23.6424C26.101 23.6424 25.901 23.7424 25.701 23.8424C25.701 23.8424 25.601 23.9424 25.501 23.9424C25.401 23.9424 25.201 23.9424 25.101 23.8424L25.001 23.7424C25.001 23.6424 25.001 23.5424 25.001 23.4424C25.001 23.3424 24.901 23.2424 24.901 23.0424C24.801 22.9424 24.701 22.9424 24.601 23.0424C24.401 23.2424 24.401 23.5424 24.401 23.8424C24.201 23.9424 24.201 23.9424 24.201 23.9424ZM23.401 22.6424C23.201 22.6424 23.101 22.7424 23.101 22.9424C23.101 23.0424 23.301 23.2424 23.401 23.2424C23.501 23.2424 23.701 23.1424 23.701 22.9424C23.701 22.7424 23.601 22.6424 23.401 22.6424Z" fill="#241F20"/>
<path id="Client Logo_20" d="M58.001 14.7424C57.801 14.9424 57.601 15.1424 57.401 15.2424C57.201 15.4424 57.001 15.6424 56.801 15.9424C56.701 16.0424 56.701 16.0424 56.601 16.1424C56.501 16.1424 56.501 16.2424 56.601 16.2424C56.701 16.3424 56.801 16.5424 56.901 16.6424C57.101 16.8424 57.201 17.0424 57.401 17.2424C57.501 17.3424 57.601 17.3424 57.601 17.4424C57.701 17.5424 57.701 17.5424 57.801 17.4424C58.101 17.3424 58.201 16.9424 58.201 16.6424C58.201 16.5424 58.101 16.5424 58.101 16.4424C58.101 16.3424 58.101 16.3424 58.101 16.2424C58.101 16.1424 58.201 16.1424 58.301 16.0424H58.401C58.501 16.1424 58.701 16.2424 58.801 16.2424C58.901 16.2424 59.001 16.2424 59.101 16.2424C59.301 16.1424 59.601 15.9424 59.801 15.8424C60.001 15.7424 60.201 15.5424 60.401 15.3424H60.501C60.701 15.4424 60.801 15.6424 61.001 15.7424C61.101 15.8424 61.101 15.8424 61.001 15.9424C60.801 16.1424 60.501 16.2424 60.201 16.4424C60.001 16.5424 59.901 16.6424 59.701 16.7424C59.501 16.8424 59.301 16.9424 59.001 16.8424C58.901 16.8424 58.901 16.8424 58.901 16.9424C58.901 17.0424 58.901 17.2424 58.801 17.3424C58.701 17.4424 58.701 17.5424 58.601 17.6424C58.401 17.9424 58.001 18.1424 57.701 18.3424C57.601 18.4424 57.601 18.4424 57.501 18.4424H57.401C57.201 18.1424 56.901 17.9424 56.701 17.6424C56.501 17.4424 56.301 17.1424 56.101 16.9424C56.001 16.8424 55.801 16.6424 55.701 16.5424C55.601 16.4424 55.401 16.2424 55.301 16.1424C55.301 16.1424 55.301 16.1424 55.201 16.0424C55.101 15.9424 55.101 15.9424 55.201 15.8424C55.301 15.7424 55.501 15.5424 55.601 15.4424C55.801 15.2424 56.001 15.0424 56.301 14.7424C56.601 14.4424 56.901 14.1424 57.201 13.8424C57.301 13.7424 57.301 13.7424 57.401 13.8424C57.601 14.3424 57.801 14.5424 58.001 14.7424Z" fill="#241F20"/>
<path id="Client Logo_21" d="M60.9002 28.7425C60.9002 28.2425 60.8002 27.7424 60.8002 27.1424C60.8002 26.9424 60.8002 26.7424 60.8002 26.6424C60.8002 26.5424 60.8002 26.4425 60.8002 26.2425C60.8002 26.1425 60.8002 26.0424 60.9002 26.0424C61.1002 26.0424 61.4002 26.0424 61.6002 26.0424C61.9002 26.0424 62.2002 26.0424 62.4002 26.0424C62.5002 26.0424 62.5002 26.0424 62.5002 26.1424C62.5002 26.2424 62.5002 26.4424 62.5002 26.5424C62.5002 26.6424 62.5002 26.6424 62.4002 26.6424C62.1002 26.6424 61.9002 26.6424 61.6002 26.6424C61.5002 26.6424 61.4002 26.6425 61.4002 26.8425C61.4002 27.0425 61.4002 27.2425 61.5002 27.4425C61.5002 27.5425 61.5002 27.6425 61.5002 27.7425C61.5002 27.9425 61.5002 28.2425 61.6002 28.4425C61.6002 28.5425 61.7002 28.6424 61.8002 28.6424C61.9002 28.6424 62.1002 28.6424 62.2002 28.6424C62.3002 28.6424 62.3002 28.6424 62.3002 28.5424C62.3002 28.4425 62.3002 28.2424 62.3002 28.1424C62.3002 27.9424 62.3002 27.7424 62.3002 27.6424L62.4002 27.5424C62.6002 27.5424 62.8002 27.5424 63.0002 27.5424C63.4002 27.5424 63.7002 27.6425 63.9002 27.9425C64.1002 28.1425 64.2002 28.3424 64.2002 28.6424C64.3002 28.9424 64.3002 29.2425 64.5002 29.4425V29.5424C64.5002 29.5424 64.5002 29.5424 64.4002 29.5424C64.3002 29.5424 64.1002 29.5425 64.0002 29.4425C63.8002 29.4425 63.6002 29.4425 63.4002 29.3425C63.1002 29.3425 62.9002 29.3425 62.6002 29.2425C62.3002 29.2425 62.1002 29.2425 61.8002 29.2425C61.6002 29.2425 61.4002 29.2425 61.2002 29.2425C61.1002 29.2425 60.9002 29.2425 60.8002 29.2425C60.8002 29.2425 60.7002 29.2424 60.7002 29.1424C61.0002 29.0424 61.0002 28.9425 60.9002 28.7425ZM63.0002 28.1424C63.0002 28.3424 63.0002 28.5425 63.0002 28.7425C63.0002 28.7425 63.0002 28.8425 63.1002 28.8425C63.3002 28.8425 63.6002 28.9425 63.8002 28.9425L63.9002 28.8425C63.9002 28.7425 63.8002 28.6424 63.8002 28.5424C63.6002 28.2424 63.3002 28.0424 63.0002 28.1424Z" fill="#241F20"/>
<path id="Client Logo_22" d="M42.301 5.54245C42.301 5.64245 42.301 5.64245 42.301 5.74245C42.301 5.84245 42.3009 5.94245 42.4009 6.04245C42.4009 6.14245 42.4009 6.24245 42.4009 6.34245C42.4009 6.54245 42.4009 6.74245 42.4009 7.04245C42.4009 7.24245 42.401 7.44245 42.501 7.64245C42.501 8.04245 42.601 8.34245 42.601 8.74245C42.601 8.94245 42.601 9.14245 42.601 9.24245C42.601 9.54245 42.7009 9.74245 42.7009 10.0424C42.7009 10.1424 42.7009 10.3425 42.7009 10.4425C42.7009 10.7425 42.801 10.9425 42.801 11.2425C42.801 11.4425 42.801 11.7425 42.801 11.9425C42.801 12.0425 42.8009 12.0424 42.7009 12.0424C42.5009 12.0424 42.4009 12.0424 42.2009 12.0424C42.1009 12.0424 42.101 12.0425 42.101 11.9425C42.101 11.8425 42.101 11.7424 42.101 11.6424C42.101 11.4424 42.101 11.3424 42.101 11.1424C42.101 10.9424 42.001 10.6425 42.001 10.4425C42.001 10.2425 42.001 10.1425 42.001 9.94245C42.001 9.84245 42.0009 9.74245 41.9009 9.54245C41.9009 9.44245 41.9009 9.44245 41.9009 9.34245C41.9009 8.94245 41.801 8.64245 41.801 8.24245C41.801 8.14245 41.801 7.94245 41.801 7.84245C41.801 7.64245 41.8009 7.54245 41.7009 7.34245C41.7009 7.04245 41.601 6.74245 41.601 6.34245C41.601 6.14245 41.601 5.94245 41.501 5.74245C41.501 5.64245 41.501 5.64245 41.601 5.64245C41.801 5.64245 42.101 5.54245 42.301 5.54245Z" fill="#241F20"/>
<path id="Client Logo_23" d="M21.1006 27.0425V26.2425C21.2006 26.2425 21.3006 26.2425 21.4006 26.2425C21.7006 26.2425 22.1006 26.3425 22.4006 26.3425C22.6006 26.3425 22.7006 26.4425 22.9006 26.4425C23.1006 26.4425 23.3006 26.4425 23.5006 26.4425C23.8006 26.4425 24.1006 26.5425 24.4006 26.5425C24.7006 26.5425 25.0006 26.6425 25.3006 26.6425C25.5006 26.6425 25.7006 26.7425 25.8006 26.7425C25.9006 26.7425 26.0006 26.7425 26.1006 26.7425C26.4006 26.7425 26.8006 26.8425 27.1006 26.8425C27.2006 26.8425 27.3006 26.8425 27.4006 26.8425C27.5006 26.8425 27.5006 26.8425 27.5006 26.9425C27.5006 27.1425 27.4006 27.2425 27.4006 27.4425C27.4006 27.5425 27.4006 27.5425 27.3006 27.5425C27.0006 27.5425 26.6006 27.4425 26.3006 27.4425C26.1006 27.4425 25.9006 27.4425 25.7006 27.4425C25.4006 27.4425 25.1006 27.3425 24.8006 27.3425C24.2006 27.3425 23.7006 27.2425 23.1006 27.2425C22.7006 27.2425 22.3006 27.1425 21.9006 27.1425C21.7006 27.0425 21.4006 27.0425 21.1006 27.0425Z" fill="#241F20"/>
<path id="Client Logo_24" d="M62.3009 18.0424C62.4009 18.1424 62.4009 18.2424 62.3009 18.3424C62.1009 18.5424 61.9008 18.4425 61.7008 18.2424C61.5008 18.0424 61.5009 17.8424 61.6009 17.6424C61.7009 17.5424 61.8008 17.4424 61.9008 17.3424C62.1008 17.1424 62.4008 17.2424 62.7008 17.2424C62.8008 17.2424 62.9009 17.3424 63.0009 17.3424H63.1009C63.1009 17.1424 63.1009 16.9424 63.1009 16.8424C63.1009 16.7424 63.1009 16.6424 63.1009 16.4424C63.1009 16.1424 63.0009 15.8424 62.8009 15.6424C62.7009 15.5424 62.6009 15.4424 62.5009 15.4424C62.3009 15.4424 62.1009 15.4424 62.1009 15.6424C62.0009 15.8424 62.1009 16.1424 62.3009 16.2424H62.5009C62.5009 16.1424 62.6009 16.1424 62.6009 16.0424C62.6009 15.9424 62.6008 15.8424 62.7008 15.8424C62.8008 15.8424 62.9008 15.8424 62.9008 16.0424C62.9008 16.2424 62.9008 16.4424 62.7008 16.5424C62.6008 16.6424 62.4009 16.6424 62.3009 16.5424C61.9009 16.3424 61.8009 15.9424 62.0009 15.5424C62.1009 15.4424 62.2009 15.2424 62.3009 15.2424C62.4009 15.1424 62.6008 15.1424 62.7008 15.2424C62.9008 15.3424 63.1008 15.4424 63.2008 15.5424C63.3008 15.7424 63.4008 15.8424 63.4008 16.0424C63.5008 16.2424 63.5009 16.4425 63.5009 16.7424C63.5009 16.7424 63.6009 16.7424 63.6009 16.6424C63.7009 16.4424 63.9009 16.4424 64.1009 16.5424C64.3009 16.6424 64.4009 16.7424 64.5009 16.9424V17.0424C64.5009 17.0424 64.5008 17.0424 64.4008 17.0424C64.4008 17.0424 64.4008 17.0424 64.4008 16.9424C64.3008 16.8424 64.3008 16.7424 64.2008 16.6424C64.1008 16.5424 63.9009 16.5424 63.8009 16.6424C63.7009 16.7424 63.6009 16.8424 63.6009 17.0424C63.6009 17.2424 63.7009 17.5424 63.8009 17.7424C63.9009 17.8424 63.9009 17.9424 64.0009 18.1424L64.1009 18.2424C64.1009 18.1425 64.1009 18.1424 64.1009 18.0424C64.1009 17.8424 64.2009 17.7424 64.3009 17.6424C64.3009 17.5424 64.4009 17.5424 64.5009 17.5424C64.8009 17.4424 65.1009 17.7424 65.1009 17.9424C65.1009 18.0424 65.0008 18.3424 64.9008 18.4424H64.8009V18.3424C64.8009 18.2424 64.9008 18.1424 64.9008 18.0424C64.9008 17.8424 64.8009 17.6424 64.6009 17.6424C64.6009 17.6424 64.5009 17.6425 64.5009 17.7424C64.3009 17.9425 64.3008 18.1424 64.4008 18.4424C64.4008 18.6424 64.5009 18.7424 64.6009 18.9424L64.7008 19.0424C64.8008 19.2424 65.0009 19.3424 65.1009 19.5424C65.2009 19.6424 65.3008 19.7424 65.4008 19.8424C65.5008 19.9424 65.5009 19.9424 65.6009 19.8424C65.7009 19.7424 65.7009 19.6424 65.6009 19.5424C65.6009 19.4424 65.5008 19.4424 65.4008 19.3424C65.3008 19.3424 65.3008 19.2424 65.4008 19.2424H65.5009C65.7009 19.3424 65.7009 19.4424 65.8009 19.6424C65.9009 19.7424 65.8008 19.9424 65.7008 19.9424C65.5008 20.0424 65.3009 20.0424 65.1009 19.8424C65.0009 19.7424 64.9009 19.6424 64.8009 19.4424C64.7009 19.3424 64.6009 19.1424 64.5009 19.0424C64.5009 19.0424 64.4009 18.9424 64.3009 18.9424C64.0009 18.8424 63.7008 18.8424 63.4008 18.8424C62.9008 18.9424 62.7009 19.2424 62.8009 19.7424C62.9009 19.9424 63.0008 20.1424 63.2008 20.2424C63.4008 20.3424 63.7009 20.2424 63.8009 20.0424C63.9009 19.8424 63.9008 19.6424 63.9008 19.4424V19.3424C64.0008 19.3424 64.1009 19.3424 64.1009 19.3424C64.2009 19.5424 64.3008 19.7424 64.2008 19.9424C64.1008 20.2424 63.8009 20.4424 63.5009 20.4424C63.1009 20.4424 62.8008 20.2424 62.7008 19.8424C62.5008 19.5424 62.5008 19.1424 62.7008 18.8424C62.8008 18.7424 62.9009 18.6424 63.0009 18.5424C63.3009 18.4424 63.6008 18.4424 63.9008 18.4424H64.0009C63.9009 18.3424 63.9009 18.2424 63.8009 18.1424C63.7009 17.9424 63.5008 17.7424 63.4008 17.4424C63.3008 17.2424 63.2008 17.1424 62.9008 17.0424C62.6008 16.9424 62.4009 16.8424 62.1009 16.9424C61.9009 17.0424 61.7009 17.1424 61.8009 17.3424C61.8009 17.4424 61.9009 17.5424 62.0009 17.6424C62.1009 17.6424 62.2009 17.6424 62.3009 17.5424C62.2009 18.1424 62.3009 18.1424 62.3009 18.0424Z" fill="#241F20"/>
<path id="Client Logo_25" d="M66.301 22.9425C66.401 22.9425 66.501 22.9425 66.501 23.0425C66.501 23.1425 66.601 23.2425 66.601 23.3425C66.601 23.5425 66.601 23.5425 66.501 23.5425C66.301 23.6425 66.1009 23.6425 65.9009 23.6425C65.7009 23.7425 65.4009 23.7425 65.2009 23.8425C64.9009 23.9425 64.5009 24.0425 64.2009 24.0425C63.8009 24.1425 63.3009 24.2425 62.9009 24.3425C62.7009 24.4425 62.4009 24.4425 62.2009 24.5425C61.9009 24.6425 61.601 24.7425 61.301 24.7425C61.101 24.7425 60.9009 24.8425 60.7009 24.8425C60.6009 24.8425 60.601 24.8425 60.601 24.7425C60.601 24.6425 60.501 24.4425 60.501 24.3425C60.501 24.2425 60.501 24.2425 60.601 24.2425C60.701 24.2425 60.8009 24.2425 60.9009 24.1425C61.1009 24.0425 61.401 24.0425 61.601 23.9425C61.801 23.8425 62.0009 23.8425 62.2009 23.8425C62.4009 23.8425 62.5009 23.7425 62.7009 23.7425C62.8009 23.7425 63.001 23.6425 63.101 23.6425C63.301 23.6425 63.5009 23.5425 63.7009 23.4425C63.8009 23.4425 64.001 23.3425 64.101 23.3425C64.301 23.3425 64.5009 23.2425 64.7009 23.1425C64.8009 23.1425 65.001 23.0425 65.101 23.0425C65.201 23.0425 65.3009 23.0425 65.4009 22.9425C65.5009 22.9425 65.6009 22.8425 65.7009 22.8425C65.9009 22.8425 66.0009 22.7425 66.2009 22.7425C66.1009 23.0425 66.201 23.0425 66.301 22.9425Z" fill="#241F20"/>
<path id="Client Logo_26" d="M59.4002 36.1424C59.5002 36.1424 59.5002 36.1424 59.5002 36.1424C60.1002 36.4424 60.6002 36.7424 61.2002 37.0424C61.4002 37.1424 61.7002 37.2424 61.9002 37.4424C62.2002 37.5424 62.4002 37.7424 62.7002 37.8424C63.0002 38.0424 63.3002 38.1424 63.6002 38.3424C63.9002 38.4424 64.2002 38.6424 64.4002 38.7424C64.6002 38.8424 64.8002 38.9424 65.0002 39.0424C65.1002 39.0424 65.1002 39.1424 65.0002 39.2424C64.9002 39.3424 64.8002 39.4424 64.8002 39.6424C64.8002 39.7424 64.7002 39.7424 64.7002 39.6424C64.4002 39.4424 64.1002 39.3424 63.7002 39.1424C63.3002 38.9424 62.9002 38.7424 62.5002 38.4424C62.3002 38.3424 62.1002 38.2424 61.9002 38.1424C61.6002 37.9424 61.3002 37.8424 61.0002 37.6424C60.8002 37.5424 60.5002 37.4424 60.3002 37.2424C60.0002 37.0424 59.7002 36.9424 59.4002 36.7424L59.3002 36.6424C59.2002 36.6424 59.2002 36.5424 59.2002 36.4424C59.2002 36.3424 59.3002 36.2424 59.3002 36.2424C59.3002 36.2424 59.4002 36.2424 59.4002 36.1424Z" fill="#241F20"/>
<path id="Client Logo_27" d="M49.5004 6.84245C49.4004 6.84245 49.4004 6.74245 49.3004 6.74245C49.1004 6.64245 48.9004 6.44245 48.7004 6.34245C48.6004 6.34245 48.6004 6.34245 48.5004 6.24245C48.2004 6.14245 47.8004 6.14245 47.5004 6.14245C47.3004 6.14245 47.2004 6.34245 47.1004 6.44245C47.1004 6.54245 47.1004 6.74245 47.2004 6.84245C47.3004 6.94245 47.4004 6.94245 47.5004 6.94245C47.7004 6.94245 47.9004 6.94245 48.0004 6.84245C48.1004 6.74245 48.0004 6.64245 48.0004 6.64245C47.9004 6.64245 47.9004 6.64245 47.8004 6.54245H47.7004C47.7004 6.44245 47.7004 6.44245 47.8004 6.44245C47.9004 6.34245 48.2004 6.54245 48.2004 6.64245C48.3004 6.84245 48.3004 6.94245 48.1004 7.14245C47.9004 7.34245 47.6004 7.34245 47.4004 7.34245C47.1004 7.24245 46.9004 7.04245 46.9004 6.74245C46.9004 6.64245 46.9004 6.44245 47.0004 6.44245C47.1004 6.34245 47.2004 6.24245 47.3004 6.14245C47.5004 6.04245 47.8004 6.04245 48.0004 6.04245C48.3004 6.04245 48.6004 6.24245 48.9004 6.44245C49.1004 6.54245 49.3004 6.64245 49.4004 6.84245C49.5004 6.94245 49.6004 7.04245 49.7004 7.14245C49.8004 7.24245 50.0004 7.34245 50.2004 7.44245C50.2004 7.34245 50.3004 7.14245 50.3004 7.04245C50.4004 6.84245 50.7004 6.74245 50.8004 6.94245C50.8004 6.94245 50.9004 7.04245 50.8004 7.04245L50.7004 7.14245C50.6004 7.04245 50.5004 7.14245 50.5004 7.24245V7.34245C50.4004 7.54245 50.5004 7.64245 50.7004 7.74245C50.9004 7.84245 51.1004 7.94245 51.4004 8.04245C51.6004 8.14245 51.8004 8.14245 52.0004 8.14245C52.1004 8.14245 52.2004 8.04245 52.3004 8.04245C52.4004 7.94245 52.4004 7.64245 52.3004 7.64245C52.2004 7.64245 52.1004 7.54245 52.1004 7.54245C51.9004 7.54245 51.9004 7.64245 51.8004 7.74245C51.8004 7.74245 51.8004 7.74245 51.7004 7.84245C51.7004 7.84245 51.6004 7.84245 51.6004 7.74245C51.5004 7.64245 51.6004 7.54245 51.7004 7.44245C51.9004 7.24245 52.1004 7.24245 52.3004 7.34245C52.5004 7.44245 52.6004 7.54245 52.7004 7.74245C52.8004 8.04245 52.6004 8.34245 52.2004 8.34245C52.0004 8.34245 51.8004 8.34245 51.5004 8.34245C51.3004 8.24245 51.0004 8.24245 50.9004 8.04245C50.9004 8.04245 50.8004 8.04245 50.8004 7.94245C50.6004 7.84245 50.5004 7.74245 50.3004 7.74245C50.2004 7.64245 50.1004 7.54245 50.0004 7.54245L49.9004 7.44245C49.6004 7.44245 49.4004 7.44245 49.2004 7.54245C48.9004 7.64245 48.7004 7.84245 48.6004 8.14245C48.5004 8.34245 48.6004 8.74245 48.8004 8.94245C48.9004 9.04245 48.9004 9.04245 49.0004 9.14245C49.2004 9.24245 49.4004 9.24245 49.6004 9.04245C49.7004 8.94245 49.8004 8.74245 49.7004 8.64245C49.6004 8.44245 49.5004 8.34245 49.3004 8.34245C49.3004 8.34245 49.2004 8.34245 49.2004 8.24245L49.3004 8.14245C49.6004 8.04245 50.0004 8.44245 50.0004 8.84245C49.9004 9.24245 49.7004 9.44245 49.3004 9.44245C48.9004 9.44245 48.7004 9.24245 48.5004 8.94245C48.3004 8.64245 48.4004 8.34245 48.5004 8.04245C48.5004 7.94245 48.7004 7.84245 48.7004 7.74245C48.8004 7.64245 48.8004 7.64245 48.9004 7.54245C49.0004 7.44245 49.1004 7.44245 49.2004 7.34245C49.1004 6.94245 49.3004 6.84245 49.5004 6.84245C49.4004 6.84245 49.4004 6.84245 49.5004 6.84245Z" fill="#241F20"/>
<path id="Client Logo_28" d="M27.1008 15.3425C26.9008 15.3425 26.8008 15.3425 26.6008 15.4425C26.5008 15.4425 26.5008 15.4425 26.4008 15.4425C26.1008 15.3425 25.9007 15.4425 25.7007 15.5425C25.5007 15.6425 25.3007 15.7425 25.2007 15.9425C25.1007 16.0425 25.0008 16.2425 24.9008 16.4425C24.8008 16.7425 25.0008 17.0425 25.4008 16.9425C25.5008 16.9425 25.8008 16.6425 25.8008 16.4425C25.8008 16.3425 25.8007 16.2425 25.7007 16.3425C25.6007 16.3425 25.5008 16.4425 25.4008 16.4425H25.3008V16.3425C25.4008 16.2425 25.6008 16.1425 25.8008 16.1425C26.0008 16.1425 26.1008 16.2425 26.1008 16.4425C26.1008 16.8425 25.8008 16.9425 25.5008 17.1425C25.3008 17.2425 25.1008 17.1425 25.0008 17.0425C24.8008 16.9425 24.8008 16.7425 24.8008 16.5425C24.8008 16.1425 25.0007 15.8425 25.2007 15.6425C25.3007 15.5425 25.4008 15.4425 25.5008 15.3425C25.6008 15.2425 25.8008 15.2425 25.9008 15.1425C26.0008 15.1425 26.2008 15.1425 26.4008 15.0425C26.2008 14.9425 26.1008 14.7425 26.1008 14.5425C26.0008 14.3425 26.1008 14.1425 26.3008 13.9425C26.5008 13.7425 26.6008 13.6425 26.9008 13.5425C27.2008 13.4425 27.5008 13.4425 27.8008 13.6425C28.0008 13.7425 28.1008 14.1425 28.0008 14.3425C27.9008 14.5425 27.8008 14.6425 27.6008 14.6425C27.5008 14.6425 27.3007 14.6425 27.2007 14.6425C27.1007 14.6425 27.1008 14.5425 27.1008 14.4425C27.1008 14.3425 27.2007 14.4425 27.2007 14.4425C27.3007 14.4425 27.5008 14.4425 27.6008 14.4425C27.8008 14.3425 27.8008 14.2425 27.8008 14.0425C27.8008 13.9425 27.6008 13.8425 27.5008 13.8425C27.2008 13.7425 26.9008 13.8425 26.6008 14.0425C26.4008 14.1425 26.3008 14.3425 26.3008 14.5425C26.3008 14.6425 26.4008 14.7425 26.4008 14.8425C26.4008 14.9425 26.5008 14.9425 26.5008 15.0425C26.6008 15.1425 26.6008 15.1425 26.8008 15.1425C27.1008 15.1425 27.4007 15.1425 27.7007 15.0425C27.9007 14.9425 28.1007 14.9425 28.2007 14.9425C28.3007 14.9425 28.3008 14.9425 28.4008 14.9425C28.6008 14.9425 28.9008 14.9425 29.1008 15.0425C29.4008 15.1425 29.5008 15.3425 29.6008 15.6425C29.6008 15.7425 29.7008 15.9425 29.6008 16.0425C29.5008 16.2425 29.4007 16.3425 29.2007 16.3425C29.0007 16.4425 28.8008 16.4425 28.6008 16.4425C28.5008 16.4425 28.5008 16.3425 28.5008 16.2425C28.5008 16.1425 28.5008 16.2425 28.6008 16.1425C28.8008 16.1425 29.1007 16.1425 29.2007 15.9425C29.3007 15.8425 29.3008 15.7425 29.3008 15.6425C29.3008 15.4425 29.1008 15.3425 28.9008 15.2425C28.6008 15.0425 28.2008 15.1425 27.9008 15.1425C27.6008 15.2425 27.4007 15.2425 27.2007 15.4425C27.0007 15.6425 26.8008 15.9425 26.9008 16.2425C26.9008 16.3425 27.1007 16.4425 27.2007 16.4425C27.3007 16.4425 27.3008 16.3425 27.3008 16.2425C27.3008 16.1425 27.3008 16.1425 27.4008 16.0425C27.5008 16.1425 27.5008 16.4425 27.4008 16.6425C27.3008 16.7425 27.0008 16.8425 26.8008 16.7425C26.5008 16.5425 26.5008 16.2425 26.6008 15.9425C26.8008 15.6425 27.0008 15.5425 27.1008 15.3425Z" fill="#241F20"/>
<path id="Client Logo_29" d="M30.1006 18.3425C30.3006 18.1425 30.4006 17.9425 30.6006 17.7425V17.6425C30.5006 17.5425 30.3005 17.4425 30.2005 17.3425C30.1005 17.2425 29.9006 17.3425 29.8006 17.4425C29.7006 17.5425 29.6006 17.6425 29.5006 17.7425C29.4006 17.8425 29.4006 17.8425 29.3006 17.7425C29.1006 17.6425 29.0006 17.5425 28.8006 17.4425C28.7006 17.4425 28.7006 17.3425 28.8006 17.2425C29.0006 16.9425 29.2006 16.7425 29.5006 16.5425C29.9006 16.2425 30.1006 16.2425 30.5006 16.5425C30.6006 16.6425 30.7006 16.7425 30.9006 16.9425C31.2006 17.1425 31.4005 17.4425 31.7005 17.6425C31.8005 17.7425 31.8005 17.7425 31.7005 17.8425C31.5005 18.1425 31.3006 18.3425 31.1006 18.6425C31.0006 18.7425 30.9006 18.8425 30.9006 18.9425H30.8006C30.5006 18.6425 30.3006 18.4425 30.1006 18.3425Z" fill="#241F20"/>
<path id="Client Logo_30" d="M59.901 13.8425L60.001 13.7425H60.101C60.201 13.7425 60.301 13.8425 60.301 13.9425C60.601 14.2425 60.601 14.5425 60.201 14.8425C60.101 14.9425 59.901 15.0425 59.701 15.0425C59.401 15.0425 59.201 14.9425 59.101 14.6425C59.001 14.5425 59.001 14.3425 58.901 14.2425C58.901 14.1425 58.901 14.0425 58.901 13.9425C59.001 13.5425 59.201 13.2425 59.601 13.1425C59.801 13.0425 59.901 13.0425 60.101 13.0425H60.201C60.201 12.9425 60.301 12.9425 60.301 12.8425C60.401 12.6425 60.301 12.4425 60.101 12.2425C59.901 12.1425 59.801 12.0425 59.601 11.9425C59.501 11.8425 59.401 11.8425 59.201 11.9425C59.001 12.0425 59.001 12.2425 59.001 12.4425C59.101 12.5425 59.201 12.7425 59.401 12.6425C59.501 12.6425 59.501 12.5425 59.501 12.5425C59.501 12.4425 59.501 12.4425 59.401 12.3425C59.401 12.3425 59.401 12.3425 59.301 12.2425C59.201 12.2425 59.201 12.1425 59.201 12.1425C59.201 12.0425 59.301 12.0425 59.401 12.1425C59.601 12.2425 59.701 12.3425 59.701 12.5425C59.701 12.6425 59.601 12.8425 59.501 12.8425C59.401 12.8425 59.301 12.8425 59.201 12.9425C59.101 12.9425 59.001 12.9425 58.901 12.8425C58.901 12.7425 58.801 12.7425 58.801 12.6425C58.701 12.4425 58.601 12.1425 58.801 11.9425C58.901 11.8425 59.101 11.7425 59.301 11.7425C59.601 11.7425 59.901 11.8425 60.201 12.0425C60.401 12.1425 60.501 12.3425 60.501 12.5425C60.501 12.6425 60.601 12.7425 60.601 12.7425C60.601 12.8425 60.601 13.0425 60.501 13.1425V13.2425C60.701 13.3425 60.801 13.4425 61.001 13.6425C61.101 13.8425 61.201 13.9425 61.301 14.1425C61.501 14.3425 61.601 14.5425 61.801 14.7425C61.901 14.8425 62.001 14.8425 62.101 14.9425L62.201 15.0425L62.101 15.1425C61.901 15.1425 61.801 15.0425 61.601 14.9425C61.301 14.7425 61.201 14.4425 61.001 14.1425C60.801 13.8425 60.601 13.6425 60.201 13.5425C60.001 13.5425 59.801 13.4425 59.701 13.5425C59.501 13.6425 59.301 13.7425 59.201 14.0425C59.101 14.4425 59.301 14.6425 59.401 14.9425C59.501 15.1425 59.901 15.0425 60.001 14.9425C60.201 14.7425 60.101 14.4425 59.901 14.3425C59.901 13.9425 59.901 13.8425 59.901 13.8425Z" fill="#241F20"/>
<path id="Client Logo_31" d="M66.5004 34.7424H66.6004V34.8424C66.5004 35.1424 66.3004 35.2424 66.1004 35.3424C65.9004 35.3424 65.7004 35.3424 65.6004 35.1424C65.6004 35.1424 65.6004 35.0424 65.6004 34.9424C65.6004 34.5424 65.7004 34.2424 65.9004 33.9424C66.0004 33.7424 66.3004 33.5424 66.4004 33.4424C66.6004 33.1424 66.8004 32.8424 66.7004 32.4424C66.6004 32.0424 66.4004 31.7424 66.1004 31.6424C66.0004 31.5424 65.8004 31.5424 65.7004 31.5424C65.3004 31.4424 64.8004 31.7424 64.7004 32.1424C64.6004 32.3424 64.8004 32.7424 65.0004 32.7424C65.1004 32.7424 65.2004 32.6424 65.2004 32.5424C65.2004 32.4424 65.2004 32.4424 65.2004 32.3424C65.2004 32.2424 65.2004 32.2424 65.3004 32.2424C65.4004 32.3424 65.5004 32.4424 65.4004 32.5424C65.4004 32.6424 65.3004 32.8424 65.2004 32.9424C65.1004 32.9424 65.0004 33.0424 64.9004 33.0424C64.6004 33.0424 64.5004 32.8424 64.4004 32.6424C64.4004 32.5424 64.4004 32.4424 64.4004 32.3424C64.5004 32.0424 64.6004 31.8424 64.9004 31.6424H65.0004C65.2004 31.5424 65.4004 31.5424 65.6004 31.5424C65.8004 31.5424 66.0004 31.6424 66.2004 31.7424H66.3004V31.6424C66.3004 31.4424 66.3004 31.3424 66.3004 31.1424C66.3004 30.8424 66.6004 30.6424 66.9004 30.6424C67.0004 30.6424 67.1004 30.6424 67.1004 30.6424C67.3004 30.7424 67.4004 31.0424 67.3004 31.3424C67.2004 31.4424 67.1004 31.5424 66.9004 31.6424C66.8004 31.6424 66.8004 31.6424 66.8004 31.5424V31.4424C67.0004 31.3424 67.2004 31.2424 67.1004 31.0424C67.1004 30.9424 67.1004 30.8424 67.0004 30.8424C66.9004 30.8424 66.8004 30.8424 66.7004 30.9424C66.5004 31.1424 66.5004 31.4424 66.5004 31.7424C66.5004 31.9424 66.6004 32.0424 66.7004 32.2424C66.8004 32.3424 66.8004 32.5424 66.9004 32.6424C66.9004 32.7424 67.0004 32.8424 67.0004 32.9424C67.0004 33.0424 67.0004 33.0424 67.0004 33.1424C67.0004 33.2424 67.0004 33.3424 66.9004 33.4424C66.8004 33.6424 66.7004 33.7424 66.5004 33.9424C66.3004 34.1424 66.1004 34.3424 66.0004 34.6424C65.9004 34.8424 65.8004 35.0424 65.8004 35.2424C65.8004 35.3424 65.9004 35.4424 65.9004 35.4424C66.0004 35.4424 66.1004 35.5424 66.2004 35.4424C66.3004 34.9424 66.4004 34.8424 66.5004 34.7424Z" fill="#241F20"/>
<path id="Client Logo_32" d="M29.7006 11.6425C29.8006 11.5425 29.8006 11.5425 29.8006 11.4425C29.8006 11.3425 29.8006 11.2425 29.9006 11.2425C30.0006 11.2425 30.0006 11.3425 30.1006 11.3425C30.1006 11.4425 30.2006 11.5425 30.1006 11.6425C30.0006 11.7425 30.0006 11.8425 29.8006 11.8425C29.6006 11.8425 29.3006 11.8425 29.2006 11.6425C29.1006 11.4425 29.1006 11.3425 29.1006 11.1425C29.2006 10.9425 29.2006 10.8425 29.4006 10.7425C29.5006 10.7425 29.5006 10.6425 29.6006 10.6425C29.8006 10.5425 30.0006 10.5425 30.2006 10.6425C30.4006 10.7425 30.5006 10.8425 30.7006 10.9425C30.7006 10.9425 30.8006 10.8425 30.8006 10.7425C31.0006 10.4425 31.1006 10.2425 31.3006 9.94246C31.3006 9.84246 31.4006 9.84246 31.4006 9.74246H31.5006L31.6006 9.84246V9.94246C31.5006 10.1425 31.4006 10.3425 31.3006 10.4425C31.2006 10.6425 31.0006 10.8425 30.9006 11.0425C30.8006 11.3425 30.9006 11.8425 31.1006 12.0425C31.1006 12.0425 31.2006 12.1425 31.3006 12.1425C31.4006 12.1425 31.5006 12.1425 31.5006 12.1425C31.7006 12.2425 32.0006 12.1425 32.2006 12.0425C32.4006 11.9425 32.6006 11.5425 32.5006 11.3425C32.4006 11.1425 32.1006 11.0425 31.9006 11.0425C31.8006 11.0425 31.6006 11.1425 31.5006 11.2425C31.4006 11.3425 31.4006 11.4425 31.4006 11.5425C31.5006 11.5425 31.5006 11.5425 31.6006 11.5425C31.5006 11.6425 31.5006 11.7425 31.4006 11.7425C31.3006 11.7425 31.2006 11.6425 31.1006 11.5425C31.1006 11.3425 31.1006 11.1425 31.3006 10.9425C31.5006 10.7425 31.8006 10.6425 32.1006 10.7425C32.2006 10.7425 32.4006 10.8425 32.5006 10.9425C32.6006 11.0425 32.7006 11.2425 32.7006 11.3425C32.7006 11.4425 32.7006 11.5425 32.6006 11.6425C32.5006 11.9425 32.3006 12.1425 32.0006 12.1425C31.9006 12.1425 31.7006 12.2425 31.6006 12.2425C31.4006 12.2425 31.1006 12.1425 31.0006 12.0425C30.8006 11.8425 30.7006 11.6425 30.7006 11.3425C30.7006 11.2425 30.7006 11.1425 30.7006 11.0425V10.9425C30.5006 10.8425 30.2006 10.6425 29.9006 10.7425C29.7006 10.7425 29.5006 10.8425 29.4006 10.9425C29.3006 11.1425 29.4006 11.4425 29.6006 11.5425C29.6006 11.6425 29.6006 11.6425 29.7006 11.6425Z" fill="#241F20"/>
<path id="Client Logo_33" d="M22.1004 32.6424C22.0004 32.5424 21.9004 32.4425 21.9004 32.3425C21.9004 32.2425 21.8004 32.1424 21.8004 32.0424C21.8004 31.9424 21.8004 31.8425 21.8004 31.7425C21.9004 31.4425 21.8004 31.1425 21.6004 30.8425C21.5004 30.7425 21.5004 30.6424 21.6004 30.5424C21.9004 30.8424 22.1004 31.1424 22.0004 31.5424C22.0004 31.6424 22.0004 31.7425 21.9004 31.8425C21.8004 32.0425 22.0004 32.3425 22.2004 32.4425C22.3004 32.4425 22.5004 32.5425 22.6004 32.4425C22.9004 32.4425 23.2004 32.2425 23.4004 31.9425C23.5004 31.8425 23.5004 31.7424 23.4004 31.5424C23.3004 31.3424 23.2004 31.2425 23.0004 31.2425C22.9004 31.1425 22.7004 31.2425 22.6004 31.4425V31.5424C22.6004 31.5424 22.6004 31.5424 22.5004 31.6424L22.4004 31.5424C22.4004 31.2424 22.6004 31.0424 22.8004 31.0424C23.0004 31.0424 23.2004 31.1425 23.3004 31.3425C23.4004 31.5425 23.5004 31.7425 23.4004 31.9425C23.4004 32.0425 23.3004 32.1425 23.3004 32.2425C23.0004 32.6425 22.6004 32.7425 22.1004 32.7425C22.0004 32.7425 21.9004 32.7425 21.8004 32.7425C21.8004 32.7425 21.7004 32.7425 21.7004 32.8425C21.6004 32.9425 21.5004 33.1425 21.6004 33.3425C21.6004 33.5425 21.7004 33.6425 21.9004 33.7425C22.0004 33.8425 22.2004 33.7424 22.2004 33.6424V33.5424C22.1004 33.4425 22.1004 33.4425 22.1004 33.3425H22.2004C22.3004 33.3425 22.4004 33.4425 22.4004 33.5424C22.5004 33.8424 22.2004 34.0424 21.9004 34.0424C21.7004 34.0424 21.5004 33.8425 21.4004 33.7425C21.5004 33.3425 21.7004 32.7424 22.1004 32.6424C22.0004 32.6424 22.0004 32.6424 22.1004 32.6424Z" fill="#241F20"/>
<path id="Client Logo_34" d="M66.2004 25.2425C66.1004 25.0425 66.0004 25.0425 66.2004 24.9425C66.5004 24.7425 66.8004 24.8425 67.0004 25.0425C67.1004 25.2425 67.1004 25.3425 67.0004 25.5425C66.9004 25.8425 66.5004 26.0425 66.2004 25.9425C66.1004 25.9425 65.9004 25.8425 65.8004 25.7425C65.5004 25.5425 65.3004 25.5425 65.0004 25.6425C64.7004 25.7425 64.5004 25.9425 64.6004 26.2425C64.6004 26.3425 64.6004 26.4425 64.6004 26.4425C64.6004 26.5425 64.8004 26.6425 65.0004 26.6425C65.1004 26.6425 65.1004 26.5425 65.2004 26.5425H65.3004V26.6425C65.2004 26.7425 65.1004 26.8425 64.9004 26.8425C64.6004 26.8425 64.4004 26.5425 64.4004 26.2425C64.4004 25.9425 64.5004 25.7425 64.8004 25.6425L64.9004 25.5425C65.3004 25.3425 65.6004 25.4425 65.9004 25.6425C66.0004 25.7425 66.2004 25.8425 66.3004 25.8425C66.5004 25.8425 66.6004 25.7425 66.7004 25.6425C66.8004 25.5425 66.8004 25.4425 66.8004 25.3425C66.7004 25.2425 66.6004 25.1425 66.5004 25.1425C66.3004 24.9425 66.3004 25.0425 66.2004 25.2425Z" fill="#241F20"/>
<path id="Client Logo_35" d="M65.7002 28.9425C65.7002 28.5425 66.0002 28.4425 66.3002 28.4425C66.6002 28.4425 66.9002 28.7425 66.9002 28.9425C66.9002 29.2425 66.6002 29.5425 66.3002 29.5425C66.0002 29.4425 65.7002 29.2425 65.7002 28.9425Z" fill="#241F20"/>
<path id="Client Logo_36" d="M24.801 36.8424C25.101 36.8424 25.301 37.0424 25.301 37.2424L25.401 37.3424C25.401 37.6424 25.301 37.8424 25.101 37.9424C24.801 38.2424 24.501 38.2424 24.101 38.2424C23.901 38.2424 23.701 38.2424 23.601 38.2424C23.401 38.2424 23.301 38.2424 23.301 38.4424C23.201 38.5424 23.201 38.7424 23.301 38.8424C23.401 38.9424 23.601 38.9424 23.701 38.9424C23.801 38.9424 23.801 38.8424 23.901 38.9424C23.901 39.0424 23.901 39.0424 23.801 39.1424C23.601 39.2424 23.401 39.1424 23.301 39.0424L23.201 38.9424C23.001 38.7424 23.201 38.3424 23.401 38.2424C23.601 38.1424 23.801 38.2424 24.001 38.2424C24.201 38.2424 24.501 38.2424 24.701 38.1424C25.001 38.0424 25.201 37.9424 25.301 37.6424C25.301 37.5424 25.301 37.4424 25.201 37.3424C25.101 37.2424 25.101 37.1424 24.901 37.1424C24.701 37.1424 24.601 37.2424 24.501 37.3424L24.401 37.4424L24.301 37.3424C24.301 37.1424 24.401 37.0424 24.601 36.9424C24.701 36.8424 24.801 36.8424 24.801 36.8424Z" fill="#241F20"/>
<path id="Client Logo_37" d="M45.2002 13.4425C44.9002 13.4425 44.7002 13.2425 44.7002 12.9425C44.7002 12.6425 44.9002 12.4425 45.2002 12.4425C45.3002 12.4425 45.4002 12.4425 45.5002 12.5425C45.6002 12.6425 45.8002 12.7425 45.7002 12.9425C45.7002 13.2425 45.6002 13.4425 45.2002 13.4425Z" fill="#241F20"/>
<path id="Client Logo_38" d="M45.7006 6.14243C45.7006 6.44243 45.4006 6.64243 45.1006 6.64243C44.8006 6.64243 44.6006 6.24243 44.6006 6.14243C44.6006 5.84243 44.9006 5.64243 45.2006 5.64243C45.4006 5.64243 45.7006 5.94243 45.7006 6.14243Z" fill="#241F20"/>
<path id="Client Logo_39" d="M46.4004 12.5424C46.7004 12.5424 47.0004 12.7424 47.0004 13.0424C47.0004 13.3424 46.8004 13.5424 46.5004 13.5424C46.2004 13.5424 46.0004 13.3424 45.9004 13.0424C45.9004 12.8424 46.1004 12.5424 46.4004 12.5424Z" fill="#241F20"/>
<path id="Client Logo_40" d="M53.501 8.54245C53.501 8.24245 53.701 8.04245 54.001 8.04245C54.301 8.04245 54.501 8.24245 54.501 8.44245C54.501 8.84245 54.301 9.04245 54.001 9.04245C53.701 9.04245 53.501 8.74245 53.501 8.54245Z" fill="#241F20"/>
<path id="Client Logo_41" d="M43.8008 5.74243C44.1008 5.74243 44.3008 5.94243 44.3008 6.24243C44.3008 6.54243 44.1008 6.74243 43.9008 6.74243C43.5008 6.74243 43.3008 6.54243 43.3008 6.34243C43.3008 5.94243 43.5008 5.64243 43.8008 5.74243Z" fill="#241F20"/>
<path id="Client Logo_42" d="M30.7002 21.4425C30.7002 21.7425 30.5002 21.9425 30.2002 21.9425C29.9002 21.9425 29.7002 21.7425 29.7002 21.4425C29.7002 21.1425 29.9002 20.9425 30.2002 20.9425C30.4002 20.9425 30.7002 21.2425 30.7002 21.4425Z" fill="#241F20"/>
<path id="Client Logo_43" d="M36.4004 6.94247C36.7004 6.94247 36.9004 7.14248 36.9004 7.34248C36.9004 7.64248 36.7004 7.94247 36.4004 7.94247C36.1004 7.94247 35.9004 7.74247 35.9004 7.54247C35.9004 7.14247 36.1004 6.94247 36.4004 6.94247Z" fill="#241F20"/>
<path id="Client Logo_44" d="M35.7006 7.94247C35.7006 8.24247 35.5006 8.44247 35.1006 8.44247C34.8006 8.44247 34.6006 8.24247 34.6006 7.94247C34.6006 7.64247 34.8006 7.44247 35.1006 7.44247C35.5006 7.44247 35.7006 7.64247 35.7006 7.94247Z" fill="#241F20"/>
<path id="Client Logo_45" d="M23.501 19.5424C23.201 19.5424 23.001 19.3424 23.001 19.0424C23.001 18.8424 23.201 18.5424 23.401 18.5424C23.801 18.5424 24.001 18.7424 24.001 19.0424C24.101 19.3424 23.801 19.5424 23.501 19.5424Z" fill="#241F20"/>
<path id="Client Logo_46" d="M50.7003 8.64243C51.0003 8.64243 51.2003 8.84243 51.2003 9.14243C51.2003 9.44243 51.0003 9.64243 50.7003 9.64243C50.4003 9.64243 50.2003 9.44243 50.2003 9.24243C50.1003 8.94243 50.4003 8.64243 50.7003 8.64243Z" fill="#241F20"/>
<path id="Client Logo_47" d="M32.8008 9.74247C32.5008 9.74247 32.3008 9.54247 32.3008 9.24247C32.3008 9.04247 32.5007 8.74246 32.7007 8.84246C32.8007 8.84246 32.8008 8.84246 32.9008 8.84246C33.0008 8.84246 33.1007 8.94246 33.2007 9.04246C33.3007 9.14246 33.3008 9.24246 33.3008 9.34246C33.3008 9.44246 33.2007 9.54246 33.2007 9.64246C33.2007 9.64246 32.9008 9.74247 32.8008 9.74247Z" fill="#241F20"/>
<path id="Client Logo_48" d="M33.6008 10.0424C33.8008 10.0424 34.0008 10.1425 34.1008 10.3425C34.2008 10.5425 34.1007 10.7425 33.9007 10.9425C33.8007 11.0425 33.4008 11.0425 33.3008 10.9425C33.1008 10.8425 33.0008 10.6425 33.1008 10.4425C33.1008 10.2425 33.4008 10.0424 33.6008 10.0424Z" fill="#241F20"/>
<path id="Client Logo_49" d="M30.9008 19.7425C31.1008 19.7425 31.4008 20.0425 31.4008 20.2425C31.4008 20.4425 31.1008 20.7425 30.9008 20.7425C30.6008 20.7425 30.3008 20.4425 30.3008 20.2425C30.3008 19.9425 30.6008 19.7425 30.9008 19.7425Z" fill="#241F20"/>
<path id="Client Logo_50" d="M53.101 9.24246C53.401 9.24246 53.601 9.44246 53.601 9.74246C53.601 9.94246 53.401 10.2425 53.001 10.1425C52.801 10.1425 52.501 9.94246 52.501 9.64246C52.601 9.44246 52.801 9.24246 53.101 9.24246Z" fill="#241F20"/>
<path id="Client Logo_51" d="M21.9002 25.0424C22.0002 25.1424 21.9002 25.2424 21.7002 25.3424C21.5002 25.3424 21.3002 25.2424 21.3002 25.0424C21.3002 24.9424 21.3002 24.7424 21.3002 24.6424C21.4002 24.4424 21.5002 24.3424 21.8002 24.3424C21.9002 24.3424 22.1002 24.4424 22.1002 24.6424C22.1002 24.8424 22.2002 25.0424 22.3002 25.2424C22.4002 25.4424 22.6002 25.6424 22.8002 25.7424C22.9002 25.7424 23.2002 25.6424 23.2002 25.5424C23.2002 25.4424 23.3002 25.3424 23.3002 25.2424C23.3002 25.1424 23.2002 25.0424 23.0002 25.0424H22.9002C22.9002 25.0424 22.9002 25.0424 22.8002 25.0424C22.8002 25.0424 22.8002 25.0424 22.8002 24.9424C22.9002 24.8424 23.1002 24.8424 23.2002 24.9424C23.4002 25.1424 23.4002 25.4424 23.2002 25.6424C23.0002 25.8424 22.8002 25.9424 22.5002 25.8424C22.4002 25.8424 22.2002 25.7424 22.1002 25.5424C22.0002 25.3424 21.9002 25.1424 21.8002 25.0424C21.8002 24.9424 21.8002 24.8424 21.8002 24.8424C21.8002 24.7424 21.8002 24.6424 21.6002 24.5424C21.5002 24.4424 21.4002 24.5424 21.3002 24.6424C21.2002 24.7424 21.3002 25.0424 21.4002 25.1424C21.6002 25.1424 21.7002 25.1424 21.9002 25.0424C21.8002 25.0424 21.8002 25.0424 21.9002 25.0424Z" fill="#241F20"/>
<path id="Client Logo_52" d="M23.2003 19.8425C23.5003 19.8425 23.7003 20.0425 23.7003 20.2425C23.7003 20.6425 23.5003 20.8425 23.2003 20.8425C23.0003 20.8425 22.7003 20.6425 22.7003 20.4425C22.6003 20.0425 22.9003 19.7425 23.2003 19.8425Z" fill="#241F20"/>
<path id="Client Logo_53" d="M60.1006 17.5424C60.3006 17.5424 60.6006 17.7424 60.6006 18.0424C60.6006 18.3424 60.4006 18.5424 60.1006 18.5424C59.7006 18.5424 59.6006 18.3424 59.6006 18.0424C59.6006 17.7424 59.8006 17.5424 60.1006 17.5424Z" fill="#241F20"/>
<path id="Client Logo_54" d="M29.7003 36.0424C29.7003 35.7424 29.9003 35.5424 30.2003 35.5424C30.4003 35.5424 30.7003 35.7424 30.7003 36.0424C30.7003 36.2424 30.5003 36.4425 30.2003 36.4425C29.9003 36.5425 29.6003 36.2424 29.7003 36.0424Z" fill="#241F20"/>
<path id="Client Logo_55" d="M29.501 35.0424C29.201 35.0424 29.001 34.8424 29.001 34.5424C29.001 34.3424 29.201 34.1424 29.501 34.1424C29.801 34.1424 30.001 34.3424 30.001 34.6424C30.001 34.8424 29.801 35.1424 29.501 35.0424Z" fill="#241F20"/>
<path id="Client Logo_56" d="M29.1006 32.8424C29.4006 32.8424 29.6006 33.0424 29.6006 33.3424C29.6006 33.5424 29.4006 33.7424 29.1006 33.7424C28.8006 33.7424 28.6006 33.5424 28.6006 33.3424C28.6006 33.0424 28.8006 32.8424 29.1006 32.8424Z" fill="#241F20"/>
<path id="Client Logo_57" d="M30.7002 36.7425C31.0002 36.7425 31.2002 36.9425 31.2002 37.2425C31.2002 37.5425 30.9002 37.7425 30.7002 37.7425C30.5002 37.7425 30.2002 37.5425 30.2002 37.2425C30.2002 36.9425 30.4002 36.6425 30.7002 36.7425Z" fill="#241F20"/>
<path id="Client Logo_58" d="M23.501 37.0424C23.501 37.3424 23.301 37.5424 23.001 37.5424C22.701 37.5424 22.501 37.3424 22.501 37.0424C22.501 36.8424 22.801 36.6424 22.901 36.6424C23.301 36.5424 23.501 36.7424 23.501 37.0424Z" fill="#241F20"/>
<path id="Client Logo_59" d="M21.3001 22.8424C21.3001 22.5424 21.5001 22.3424 21.8001 22.3424C22.0001 22.3424 22.2001 22.5424 22.2001 22.8424C22.2001 23.0424 21.9001 23.3424 21.7001 23.3424C21.5001 23.2424 21.2001 23.0424 21.3001 22.8424Z" fill="#241F20"/>
<path id="Client Logo_60" d="M23.1006 35.4425C23.1006 35.6425 22.9006 35.9425 22.6006 35.9425C22.3006 35.9425 22.1006 35.7425 22.1006 35.4425C22.1006 35.2425 22.4006 35.0424 22.6006 35.0424C22.9006 35.0424 23.1006 35.2425 23.1006 35.4425Z" fill="#241F20"/>
<path id="Client Logo_61" d="M22.2002 29.4425C22.2002 29.6425 22.0002 29.9425 21.7002 29.9425C21.5002 29.9425 21.2002 29.7425 21.2002 29.5425C21.2002 29.2425 21.4002 29.0425 21.6002 29.0425C22.0002 28.9425 22.2002 29.1425 22.2002 29.4425Z" fill="#241F20"/>
<path id="Client Logo_62" d="M66.7002 27.5424C66.4002 27.5424 66.2002 27.3424 66.2002 27.0424C66.2002 26.9424 66.2002 26.8424 66.2002 26.8424C66.2002 26.7424 66.3002 26.7424 66.4002 26.7424C66.5002 26.7424 66.5002 26.8424 66.5002 26.9424C66.4002 27.1424 66.5002 27.4424 66.7002 27.4424C66.9002 27.5424 67.0002 27.3424 67.1002 27.1424C67.1002 27.0424 67.1002 26.9424 66.9002 26.8424L66.8002 26.7424C66.8002 26.6424 66.9002 26.6424 67.0002 26.6424C67.3002 26.8424 67.4002 27.1424 67.2002 27.4424C66.9002 27.4424 66.9002 27.5424 66.7002 27.5424Z" fill="#241F20"/>
</g>
</svg>
