<svg width="88" height="58" viewBox="0 0 88 58" fill="none" xmlns="http://www.w3.org/2000/svg">
<g id="Client Logo">
<path id="Vector" d="M87.6 0.04245H0V57.0424H87.6V0.04245Z" fill="white"/>
<path id="Vector_2" d="M69.7998 2.54245H17.7998V54.5424H69.7998V2.54245Z" fill="white"/>
<g id="Group">
<g id="Clip path group">
<g id="Group_2">
<g id="Clip path group_2">
<path id="Vector_3" fill-rule="evenodd" clip-rule="evenodd" d="M42.7002 12.9424L59.4002 32.3425H66.2002C66.4002 31.4425 66.5002 30.4424 66.5002 29.4424H65.5002L42.7002 12.9424Z" fill="black"/>
</g>
<g id="Clip path group_3">
<path id="Vector_4" fill-rule="evenodd" clip-rule="evenodd" d="M66.3994 26.5425L41.8994 12.3425L62.4994 17.2425C62.4994 17.2425 64.8994 19.6425 66.0994 23.9425C66.1994 24.8425 66.2994 25.6425 66.3994 26.5425Z" fill="#CC2229"/>
</g>
<g id="Clip path group_4">
<path id="Vector_5" fill-rule="evenodd" clip-rule="evenodd" d="M33.2998 26.8425L22.4998 20.6425C21.9998 22.0425 21.5998 23.5425 21.2998 25.0425L36.6998 28.6425L33.2998 26.8425Z" fill="black"/>
</g>
<g id="Clip path group_5">
<path id="Vector_6" fill-rule="evenodd" clip-rule="evenodd" d="M21.1996 27.2424L36.7996 28.6424L21.3996 31.8424C21.1996 30.7424 21.1996 29.6424 21.0996 28.5424C21.0996 28.1424 21.0996 27.6424 21.1996 27.2424Z" fill="#CC2229"/>
</g>
<g id="Clip path group_6">
<path id="Vector_7" fill-rule="evenodd" clip-rule="evenodd" d="M33.1996 46.8425L31.5996 45.9424L32.9996 43.4424L34.5996 44.3425L34.2996 44.8425L33.2996 44.2424L32.9996 44.7424L33.9996 45.3425L33.6996 45.8425L32.6996 45.2424L32.3996 45.8425L33.4996 46.4424L33.1996 46.8425ZM55.0996 46.8425L54.4996 47.1424L54.0996 46.7424L53.0996 47.2424L53.1996 47.8425L52.5996 48.1424L52.2996 45.0424L52.9996 44.7424L55.0996 46.8425ZM52.8996 45.3425L52.9996 46.5424L53.6996 46.2424L52.8996 45.3425ZM51.7996 45.6424L50.7996 46.0424L50.9996 46.6424L51.9996 46.3425L52.1996 46.8425L51.1996 47.2424L51.5996 48.3425L50.9996 48.5424L50.0996 45.7424L51.6996 45.1424L51.7996 45.6424ZM49.6996 48.8425L49.1996 48.9424L47.4996 47.3425L47.7996 49.1424L47.1996 49.2424L46.6996 46.3425L47.2996 46.2424L48.8996 47.7424L48.5996 45.9424L49.1996 45.8425L49.6996 48.8425ZM46.9996 49.3425H46.2996L46.0996 48.7424L44.9996 48.8425L44.8996 49.4424H44.1996L44.9996 46.4424H45.6996L46.9996 49.3425ZM45.3996 47.1424L45.0996 48.3425H45.8996L45.3996 47.1424ZM44.0996 46.5424H43.4996V49.4424H44.0996V46.5424ZM43.3996 47.0424L42.4996 46.9424L42.2996 49.3425L41.6996 49.2424L41.8996 46.8425L40.9996 46.7424C40.9996 46.8424 40.9996 46.9425 40.9996 47.0424C40.8996 47.4425 40.5996 47.8424 39.9996 47.7424L39.4996 47.6424L39.2996 48.8425L38.6996 48.7424L39.1996 45.9424L37.8996 47.0424L37.4996 48.3425L36.8996 48.1424L37.2996 46.8425L36.7996 45.0424L37.4996 45.2424L37.6996 46.2424L38.4996 45.5424L39.0996 45.7424L40.1996 45.9424C40.5996 46.0424 40.7996 46.3424 40.7996 46.6424V46.1424L43.1996 46.3425L43.3996 47.0424ZM39.5996 47.2424L39.8996 47.3425C40.1996 47.4425 40.2996 47.3424 40.2996 47.0424C40.2996 46.8424 40.1996 46.6424 39.8996 46.6424H39.6996L39.5996 47.2424ZM36.5996 46.0424C36.3996 45.7424 36.0996 45.5424 35.8996 45.4424C35.2996 45.1424 34.8996 45.5424 34.6996 45.9424C34.4996 46.4424 34.6996 46.8424 35.0996 47.0424C35.1996 47.1424 35.2996 47.1424 35.4996 47.1424L35.5996 46.8425L35.2996 46.7424L35.4996 46.2424L36.3996 46.6424L35.8996 47.7424C35.5996 47.8424 35.1996 47.8424 34.7996 47.6424C33.9996 47.3424 33.6996 46.4424 33.9996 45.6424C34.3996 44.8424 35.1996 44.5425 35.9996 44.8425C36.2996 44.9425 36.5996 45.2424 36.7996 45.4424L36.5996 46.0424Z" fill="black"/>
</g>
<g id="Clip path group_7">
<path id="Vector_8" fill-rule="evenodd" clip-rule="evenodd" d="M30.5 37.8425H27V35.3425H27.7V37.2424H29.9V36.6424H28.5V34.7424H30.5V35.3425H29.1V35.9424H30.5V37.8425ZM58 41.7424H50.7V43.6424H48.7V42.9424H50.1V39.7424H50.8V40.9424H55.4V40.3425H52.2V38.4424H55.4V39.1424H52.9V39.7424H56.1V40.9424H57.6V37.9424H58.3L58 41.7424ZM48 41.7424H46V39.8425H47.4C47.4 39.6425 47.4 39.5425 47.4 39.3425H48.1V41.7424H48ZM47.1 39.0424H46.6V38.5424H47.1V39.0424ZM47.4 40.5424H46.7V41.1424H47.4V40.5424ZM48 39.0424H47.5V38.5424H48V39.0424ZM43.5 41.7424H42.9V38.0424H43.5V41.7424ZM42 41.7424H34.7V41.0424H35.9V40.4424C35.8 40.4424 35.6 40.4424 35.5 40.4424V39.7424H36.5V40.9424H37.8V39.7424H39.8V40.9424H41.3V37.9424H42V41.7424ZM38.6 39.3425H38.1V38.7424H38.6V39.3425ZM39.2 40.5424H38.5V41.0424H39.2V40.5424ZM39.5 39.3425H39V38.7424H39.5V39.3425ZM33.9 41.5424C33.9 41.8425 33.8 42.1425 33.6 42.3425C33.4 42.5425 33.1 42.6424 32.8 42.6424C32.3 42.6424 31.9 42.3424 31.7 41.7424H31.5V44.3425H30.8V41.1424H31.7C31.9 40.6424 32.3 40.3425 32.8 40.3425C33.1 40.3425 33.4 40.4424 33.6 40.6424C33.8 40.8424 33.9 41.1425 33.9 41.5424ZM33.1 41.4424C33.1 41.3424 33.1 41.2424 33 41.1424C32.9 41.0424 32.8 41.0424 32.7 41.0424C32.4 41.0424 32.3 41.1424 32.3 41.4424C32.3 41.6424 32.4 41.8425 32.7 41.8425C33 41.8425 33.1 41.7424 33.1 41.4424ZM61.4 36.9424H60.8V33.2424H61.4V36.9424ZM60 36.9424H57.1V36.3425H57.9V33.3425H58.5V36.3425H59.3V33.3425H60V36.9424ZM56.6 36.9424H50V33.2424H50.7V36.3425H53.5V35.7424H52V35.0424H54.2V36.2424H55.9V35.0424H56.5L56.6 36.9424ZM55.1 34.4424H54.6V33.9424H55.1V34.4424ZM56 34.4424H55.5V33.9424H56V34.4424ZM49.4 36.9424H47.6V36.2424H48.8V35.7424C48.7 35.7424 48.5 35.7424 48.4 35.7424V35.0424H49.4V36.9424ZM44.9 36.9424H44.3V33.2424H44.9V36.9424ZM43.6 36.9424H42C41.9 37.1424 41.8 37.2424 41.8 37.4424C41.6 37.7424 41.3 37.8425 40.9 37.8425C40.5 37.8425 40.3 37.7424 40.1 37.4424C40 37.2424 39.9 37.1424 39.9 36.9424H33.1V38.8425H31.1V38.1424H32.5V34.9424H33.2V36.1424H34.6V34.4424H35.3V34.8425H38.7V36.0424H40C40.1 35.9425 40.2 35.8424 40.3 35.7424C40.4 35.6424 40.5 35.5424 40.6 35.4424C40.7 35.3424 40.9 35.3425 41.1 35.3425C41.4 35.3425 41.6 35.3424 41.7 35.4424C41.8 35.5424 41.9 35.6424 42 35.7424C42.1 35.8424 42.2 35.9425 42.3 36.0424H43.2V33.0424H43.8V36.9424H43.6ZM41.3 36.5424C41.3 36.3424 41.2 36.1424 40.9 36.1424C40.7 36.1424 40.5 36.2424 40.5 36.5424C40.5 36.6424 40.5 36.7425 40.6 36.8425C40.7 36.9425 40.8 36.9424 40.9 36.9424C41 36.9424 41.1 36.9425 41.2 36.8425C41.2 36.8425 41.3 36.7424 41.3 36.5424ZM37.9 35.6424H35.1V36.2424H37.9V35.6424ZM28.7 38.7424H28.2V38.2424H28.7V38.7424ZM29.5 38.7424H29V38.2424H29.5V38.7424Z" fill="#33A457"/>
</g>
<g id="Clip path group_8">
<path id="Vector_9" d="M39.3 29.3425H38.3H37.4L36.5 29.1425H36.4L35.6 28.9425L34.7 28.6425L33.9 28.2425L33.1 27.8425L32.4 27.3425V27.2425L31.8 26.7425L31.7 26.6425L31.2 26.0425H31.1L30.6 25.3425L30.1 24.6425V24.5425L29.8 23.8425H29.7V23.7425L29.4 22.9425L29.2 22.1425V22.0425L29.1 21.2425V21.1425L29 20.2425L29.1 19.3425L29.2 18.4425L29.4 17.5425L29.7 16.7425H29.8L30.1 15.9425L30.6 15.1425L31.1 14.4425H31.2L31.7 13.8425H31.8L32.4 13.2425L33.1 12.7425L33.9 12.2425L34.7 11.8425L35.6 11.5425L36.4 11.3425H36.5L37.4 11.1425H38.3H39.3L40.2 11.3425L41.1 11.5425L41.9 11.8425L42.7 12.2425H42.8L43.5 12.7425L44.2 13.2425L44.9 13.8425L45.5 14.4425L46 15.1425L46.5 15.9425L46.9 16.7425L47.2 17.5425L47.4 18.4425L47.6 19.3425V20.2425V21.1425V21.2425L47.4 22.0425V22.1425L47.2 22.9425L46.9 23.7425V23.8425L46.5 24.5425V24.6425L46 25.3425L45.5 26.0425L44.9 26.6425V26.7425L44.2 27.2425V27.3425L43.5 27.8425L42.8 28.2425H42.7L41.9 28.6425L41.1 28.9425L40.2 29.1425L39.3 29.3425Z" fill="black"/>
</g>
<g id="Clip path group_9">
<path id="Vector_10" fill-rule="evenodd" clip-rule="evenodd" d="M35.5996 11.8425L35.2996 13.8425L32.1996 15.8425L30.7996 15.3425L30.9996 15.0425L31.2996 14.7425L31.5996 14.4425L31.8996 14.1425L32.1996 13.8425L32.4996 13.5425L33.0996 13.1425L33.4996 12.8425L33.8996 12.6425L34.3996 12.3425L34.9996 12.0425L35.5996 11.8425ZM36.0996 24.1425L39.5996 24.2425L41.1996 26.3425L39.8996 28.5425L35.9996 28.3425L34.2996 25.9425L36.0996 24.1425ZM39.9996 23.8425L40.9996 21.3425L43.8996 20.2425L45.1996 22.1425L44.2996 24.5425L41.5996 25.8425L39.9996 23.8425ZM45.5996 22.4425L44.6996 24.7425V24.8425L45.3996 25.6425L45.5996 25.4425L45.6996 25.2425L45.8996 24.9425L46.1996 24.5425L46.3996 24.1425L46.5996 23.6425L46.7996 23.2425L46.9996 22.7425L47.0996 22.4425L47.1996 22.1425L46.0996 22.3425L45.5996 22.4425ZM30.9996 24.7425L30.7996 25.0425L30.3996 24.3425L30.1996 23.9425L29.9996 23.5425L29.8996 23.1425L29.7996 22.8425L29.6996 22.4425L29.5996 22.0425V21.7425L30.3996 21.9425L31.0996 24.6425L30.9996 24.7425ZM34.8996 20.7425L32.2996 19.6425L30.4996 21.6425L31.1996 24.5425L33.8996 25.5425L35.5996 23.6425L34.8996 20.7425ZM38.6996 18.3425L39.0996 15.7425L42.1996 14.8425L44.4996 16.9425L43.6996 19.7425L40.9996 20.7425L38.6996 18.6425V18.3425ZM42.4996 14.4425L44.7996 16.7425L46.3996 16.4425L46.2996 16.2425L46.0996 15.9425L45.5996 15.2425L45.1996 14.7425L44.6996 14.2425L44.1996 13.7425L43.7996 13.4425L42.9996 12.9425L42.3996 12.5425L42.4996 14.4425ZM32.4996 19.0425L32.3996 16.1425L35.3996 14.2425L38.4996 15.7425L37.9996 18.4425L35.0996 20.2425L33.4996 19.5425L32.4996 19.0425Z" fill="white"/>
</g>
<g id="Clip path group_10">
<path id="Vector_11" d="M67.1 28.5424C67.1 34.9424 64.5 40.8424 60.3 45.0424C56.1 49.2424 50.3 51.8424 43.8 51.8424C37.4 51.8424 31.5 49.2424 27.3 45.0424C23.1 40.8424 20.5 35.0424 20.5 28.5424C20.5 22.1424 23.1 16.2424 27.3 12.0424C31.5 7.84243 37.3 5.24243 43.8 5.24243C50.2 5.24243 56.1 7.84243 60.3 12.0424C64.5 16.2424 67.1 22.1424 67.1 28.5424ZM47.6 19.2424L54.9 31.9424H65.7C65.9 30.8424 66 29.6424 66 28.4424C66 22.3424 63.5 16.8424 59.5 12.8424C58.9 12.2424 58.3 11.6424 57.6 11.1424L42.8 12.1424L42 11.7424L41.6 11.5424L56.9 10.5424C55.3 9.34243 53.6 8.44243 51.7 7.74243L40.8 11.3424L40.3 11.2424L39.6 11.1424L50.8 7.44243C49.4 6.94243 47.9 6.64243 46.4 6.44243L39.3 11.0424H38.4H38.2L45.4 6.44243C44.1 6.34243 42.7 6.34243 41.4 6.54243L36.9 11.2424L36.5 11.3424L35.8 11.5424L40.5 6.74243C39.3 6.94243 38 7.24243 36.8 7.64243L35 11.8424L34.8 11.9424L34.2 12.2424L36 8.04243C35.3 8.34243 34.6 8.64243 33.9 9.04243L33.2 12.8424L32.5 13.3424L33.2 9.34244C32.7 9.64244 32.2 9.94243 31.7 10.2424L31.8 13.9424L31.2 14.5424L31.1 10.5424C30.6 10.8424 30.1 11.2424 29.7 11.6424L30.2 16.0424L29.9 16.7424L29.8 17.1424L29.2 12.1424C28.9 12.4424 28.6 12.6424 28.4 12.9424C28.2 13.1424 28 13.3424 27.9 13.5424L29.6 18.0424L29.5 18.5424L29.4 19.1424L27.5 14.0424C27 14.6424 26.5 15.3424 26 15.9424L29.3 20.4424V21.1424L29.4 21.5424L25.6 16.3424C25.1 17.0424 24.7 17.8424 24.3 18.5424L30 23.6424L30.4 24.4424L30.9 25.1424L24 19.0424C22.7 21.8424 22 25.0424 22 28.3424C22 29.5424 22.1 30.6424 22.3 31.8424H33.8L38.7 29.2424H39.5L40.3 29.1424L35.1 31.9424H38.5L40.9 29.0424L41.4 28.9424L41.9 28.7424L39.2 31.9424H41.1L43.2 28.0424L43.7 27.7424L44.2 27.3424L41.7 31.9424H43.2L44.8 26.8424L45 26.6424L45.6 26.0424L45.7 25.8424L43.8 31.9424H45.6L46.6 24.3424L46.9 23.7424L47.2 22.9424L47.4 22.1424L47.5 21.2424V20.3424L47.6 19.2424ZM65.5 32.6424H22.1C22.9 37.1424 25.1 41.1424 28.2 44.1424C32.2 48.1424 37.7 50.6424 43.8 50.6424C49.9 50.6424 55.4 48.1424 59.4 44.1424C62.5 41.0424 64.7 37.0424 65.5 32.6424ZM54.1 32.0424L47.9 21.1424L51.1 32.0424H54.1ZM50.5 32.0424L47.5 21.9424L48.2 32.0424H50.5ZM47.6 32.0424L47.1 25.0424L46.1 32.0424H47.6Z" fill="black"/>
</g>
</g>
</g>
</g>
</g>
</svg>
