<svg width="88" height="58" viewBox="0 0 88 58" fill="none" xmlns="http://www.w3.org/2000/svg">
<g id="Client Logo">
<path id="Vector" d="M87.8002 0.04245H0.200195V57.0424H87.8002V0.04245Z" fill="white"/>
<path id="Vector_2" d="M64.6004 3.44244H23.4004V53.7424H64.6004V3.44244Z" fill="white"/>
<path id="Vector_3" d="M62.5006 31.5425C62.5006 41.2425 54.3006 49.0425 44.3006 49.0425C34.2006 49.0425 26.1006 41.2425 26.1006 31.5425C26.1006 21.8425 34.3006 14.0425 44.3006 14.0425C54.4006 14.0425 62.5006 21.8425 62.5006 31.5425Z" fill="white"/>
<path id="Vector_4" fill-rule="evenodd" clip-rule="evenodd" d="M23.4004 33.8425C23.4004 22.8425 32.6004 13.9425 44.0004 13.9425C55.4004 13.9425 64.6004 22.8425 64.6004 33.8425C64.6004 44.8425 55.4004 53.7425 44.0004 53.7425C32.6004 53.7425 23.4004 44.8425 23.4004 33.8425ZM27.1004 30.4425C27.1004 21.5425 34.6004 14.2425 44.0004 14.2425C53.3004 14.2425 60.9004 21.5425 60.9004 30.4425C60.9004 39.3425 53.4004 46.6425 44.0004 46.6425C34.6004 46.6425 27.1004 39.3425 27.1004 30.4425Z" fill="#EC2227"/>
<path id="Vector_5" fill-rule="evenodd" clip-rule="evenodd" d="M43.0008 25.9425C43.0008 26.7425 42.3008 27.4425 41.4008 27.4425C40.5008 27.4425 39.8008 26.7425 39.8008 25.9425C39.8008 25.1425 40.5008 24.4425 41.4008 24.4425C42.3008 24.4425 43.0008 25.1425 43.0008 25.9425Z" fill="#127DC2"/>
<path id="Vector_6" fill-rule="evenodd" clip-rule="evenodd" d="M48.5008 27.6425C48.5008 28.4425 47.8008 29.1425 46.9008 29.1425C46.0008 29.1425 45.3008 28.4425 45.3008 27.6425C45.3008 26.8425 46.0008 26.1425 46.9008 26.1425C47.8008 26.1425 48.5008 26.8425 48.5008 27.6425Z" fill="#127DC2"/>
<path id="Vector_7" fill-rule="evenodd" clip-rule="evenodd" d="M38.7006 27.6425C38.7006 27.6425 38.1006 27.9425 38.1006 28.2425V33.8425L38.4006 33.9425L38.9006 34.0425L39.4006 33.8425L39.3006 36.9425L39.8006 37.2425L41.1006 37.7425L43.7006 38.1425H44.6006L46.2006 37.8425L47.9006 37.0425L48.9006 36.4425V34.2425C48.9006 34.2425 49.3006 34.2425 49.4006 34.0425C49.5006 33.9425 49.8006 33.6425 49.8006 33.6425C49.8006 33.6425 49.8006 29.9425 49.7006 29.4425C49.6006 29.1425 48.8006 29.2425 48.8006 29.2425H44.6006V28.0425C44.6006 28.0425 44.4006 27.5425 43.9006 27.5425H38.7006V27.6425Z" fill="#127DC2"/>
<path id="Vector_8" d="M40.2007 37.4425C40.2007 37.4425 40.5007 37.6425 41.4007 37.9425C42.4007 38.2425 42.7007 38.2425 42.7007 38.2425H43.4007V35.1425C43.4007 35.1425 43.1007 34.3425 42.6007 34.3425C42.1007 34.3425 40.8007 34.4425 40.8007 34.4425C40.8007 34.4425 40.3007 34.6425 40.2007 34.9425C40.1007 35.1425 40.2007 37.4425 40.2007 37.4425Z" fill="white"/>
<path id="Vector_9" d="M42.5004 33.3425C42.5004 33.7425 42.2004 34.0425 41.7004 34.0425C41.3004 34.0425 40.9004 33.7425 40.9004 33.3425C40.9004 32.9425 41.2004 32.6425 41.7004 32.6425C42.2004 32.5425 42.5004 32.9425 42.5004 33.3425Z" fill="white"/>
<path id="Vector_10" d="M48.5004 37.1425C48.5004 37.1425 48.1004 37.4425 47.0004 37.8425C45.9004 38.2425 45.4004 38.2425 45.4004 38.2425L44.6004 38.3425V33.8425C44.6004 33.8425 44.4004 32.6425 45.6004 32.6425C46.2004 32.6425 47.7004 32.7425 47.7004 32.7425C47.7004 32.7425 48.4004 32.7424 48.4004 33.5424C48.4004 33.8424 48.5004 37.1425 48.5004 37.1425Z" fill="white"/>
<path id="Vector_11" d="M47.3002 31.5424C47.3002 31.9424 47.0002 32.2425 46.5002 32.2425C46.1002 32.2425 45.7002 31.9424 45.7002 31.5424C45.7002 31.1424 46.0002 30.8424 46.5002 30.8424C46.9002 30.7424 47.3002 31.1424 47.3002 31.5424Z" fill="white"/>
<path id="Vector_12" fill-rule="evenodd" clip-rule="evenodd" d="M33 30.7425C33 24.6425 37.9 19.6425 44 19.6425C50.1 19.6425 55 24.6425 55 30.7425C55 36.8425 50.1 41.8425 44 41.8425C37.9 41.8425 33 36.8425 33 30.7425ZM35 28.8425C35 23.8425 39 19.8425 44 19.8425C49 19.8425 53 23.8425 53 28.8425C53 33.8425 49 37.8425 44 37.8425C39 37.8425 35 33.8425 35 28.8425Z" fill="#127DC2"/>
<path id="Vector_13" fill-rule="evenodd" clip-rule="evenodd" d="M40.8002 16.6425L40.2002 18.9425L39.7002 18.8425C39.7002 18.8425 38.6002 18.7425 38.9002 19.9425C38.6002 20.0425 38.5002 20.1425 38.4002 20.3425C38.2002 20.3425 38.0002 20.4425 38.3002 20.7425C38.3002 21.0425 38.5002 21.3425 38.7002 21.4425C38.7002 21.7425 38.5002 22.2425 41.1002 22.4425C43.7002 22.6425 46.6002 22.7425 48.5002 22.2425C49.3002 22.0425 49.5002 21.9425 49.4002 21.5425C49.7002 21.4425 49.7002 21.1425 49.7002 20.9425C49.7002 20.9425 50.2002 20.6425 49.7002 20.5425C49.5002 20.2425 49.4002 20.2425 49.2002 20.1425C49.2002 19.6425 49.2002 18.8425 47.7002 19.1425C47.6002 18.8425 47.1002 16.8425 47.1002 16.8425L50.5002 20.0425C50.5002 20.0425 50.8002 20.2425 50.8002 19.8425C50.8002 19.3425 50.5002 13.1425 50.4002 11.2425C50.3002 9.24246 50.8002 6.34245 48.1002 7.34245C47.7002 7.44245 46.8002 8.24246 45.7002 8.24246C45.7002 8.24246 45.2002 7.64246 45.2002 6.14246C45.2002 4.64246 45.1002 4.24246 44.4002 3.94246C43.8002 3.74246 43.3002 3.64245 43.0002 4.04245C42.0002 3.64245 41.7002 3.94246 41.7002 4.64246C42.3002 4.64246 43.1002 5.04246 42.8002 6.64246C42.7002 7.34246 42.5002 7.74246 42.1002 8.24246C41.3002 8.04246 40.6002 7.74245 39.8002 7.34245C39.0002 6.94245 37.6002 6.94246 37.6002 8.44246C37.5002 9.94246 37.2002 19.6425 37.2002 19.6425C37.2002 19.6425 37.2002 20.3425 37.7002 19.8425C38.2002 19.2425 40.8002 16.6425 40.8002 16.6425Z" fill="#231F20"/>
<path id="Vector_14" fill-rule="evenodd" clip-rule="evenodd" d="M42 4.24248C42 4.24248 42.9 4.04248 43.2 4.74248C43 4.94248 43 4.94247 43 4.94247C43 4.94247 43.5 7.14247 42.1 8.34247C42.4 8.34247 43.1 8.74247 43.2 6.84247C43.2 6.64247 43.4 6.74247 43.3 7.04247C43.3 7.34247 43.1 8.14247 42.7 8.44247C43.2 8.34247 43.7 8.04247 43.6 6.94247C43.7 6.54247 43.8 6.94247 43.8 6.94247C43.8 7.54247 43.8 7.94247 43.6 8.04247C43.7 8.24247 43.8 8.44247 43.8 8.44247L44.2 8.14247C44.2 8.14247 43.8 7.24248 44 6.74248C44.2 7.44248 44.2 8.44247 45.1 8.54247C44.5 7.64247 44.5 7.04248 44.6 6.74248C44.8 7.64248 44.9 8.44247 45.8 8.34247C45.1 7.44247 45.1 6.74248 45.1 5.74248C45.1 4.74248 45.2 4.44247 44.9 4.14247C44.4 3.54247 44.1 4.44247 43.7 4.34247C43.3 4.24247 43.5 4.04247 42.9 3.84247C42.3 3.94247 42.2 3.74248 42 4.24248Z" fill="#E1BB5D"/>
<path id="Vector_15" fill-rule="evenodd" clip-rule="evenodd" d="M43.6002 4.14246C43.6002 4.14246 43.9002 4.14245 43.7002 4.34245C43.6002 4.54245 43.4002 4.24246 43.6002 4.14246Z" fill="#E1BB5D"/>
<path id="Vector_16" fill-rule="evenodd" clip-rule="evenodd" d="M37.4004 19.5425L37.8004 8.14246C37.8004 8.14246 37.9004 6.64247 39.5004 7.24247C41.0004 7.94247 41.7004 8.14246 42.0004 8.14246C41.8004 8.34246 41.7004 8.44247 41.7004 8.44247C41.7004 8.44247 42.0004 8.64247 42.6004 8.44247C42.5004 8.54247 42.4004 8.64246 42.4004 8.64246C42.4004 8.64246 42.8004 8.84247 43.6004 8.24247L44.0004 8.64246L44.4004 8.24247C44.4004 8.24247 44.6004 8.74247 45.5004 8.74247C45.4004 8.64247 45.3004 8.44247 45.3004 8.44247C45.3004 8.44247 45.9004 8.64247 46.2004 8.44247C46.0004 8.34247 45.8004 8.04246 45.8004 8.04246C45.8004 8.04246 47.0004 7.84246 47.7004 7.34246C48.5004 6.84246 50.0004 6.64246 50.1004 8.14246C50.2004 9.64246 50.5004 18.8425 50.6004 19.4425L49.8004 18.7425L49.3004 7.84246C49.3004 7.84246 49.3004 7.54246 49.0004 7.84246C48.7004 8.14246 47.6004 9.24246 46.8004 9.64246C46.2004 9.84246 44.7004 9.44246 44.0004 9.04246C43.4004 9.24246 42.1004 9.94246 41.3004 9.54246C40.5004 9.14246 39.0004 7.84246 38.7004 7.54246C38.6004 8.24246 38.2004 18.7425 38.2004 18.7425L37.4004 19.5425Z" fill="#E1BB5D"/>
<path id="Vector_17" fill-rule="evenodd" clip-rule="evenodd" d="M38.4004 18.6425L38.8004 8.14246L39.6004 8.74246L39.2004 17.8425L38.4004 18.6425Z" fill="#E1BB5D"/>
<path id="Vector_18" fill-rule="evenodd" clip-rule="evenodd" d="M39.5 17.6425L39.8 8.94247L40.4 9.54247L40.1 17.0425L39.5 17.6425Z" fill="#E1BB5D"/>
<path id="Vector_19" fill-rule="evenodd" clip-rule="evenodd" d="M40.4004 16.6425L40.6004 9.64246L41.0004 9.84245L40.8004 16.1425L40.4004 16.6425Z" fill="#E1BB5D"/>
<path id="Vector_20" fill-rule="evenodd" clip-rule="evenodd" d="M41.2 11.7425L41 15.7425L41.6 13.3425C41.7 13.3425 41.4 12.6425 41.2 11.7425Z" fill="#E1BB5D"/>
<path id="Vector_21" fill-rule="evenodd" clip-rule="evenodd" d="M49.1004 8.14246L49.6004 18.6425L48.7004 17.8425L48.4004 8.74246L49.1004 8.14246Z" fill="#E1BB5D"/>
<path id="Vector_22" fill-rule="evenodd" clip-rule="evenodd" d="M48.2 8.94247L48.5 17.7425L47.8 17.0425L47.5 9.44247L48.2 8.94247Z" fill="#E1BB5D"/>
<path id="Vector_23" fill-rule="evenodd" clip-rule="evenodd" d="M47.3004 9.64246L46.9004 9.94246L47.1004 16.2425L47.6004 16.7425L47.3004 9.64246Z" fill="#E1BB5D"/>
<path id="Vector_24" fill-rule="evenodd" clip-rule="evenodd" d="M46.7008 11.6425C46.7008 11.6425 46.5008 12.9425 46.3008 13.3425C46.5008 13.8425 46.9008 15.7425 46.9008 15.7425L46.7008 11.6425Z" fill="#E1BB5D"/>
<path id="Vector_25" fill-rule="evenodd" clip-rule="evenodd" d="M41.9 13.7425L42.1 13.9425V14.8425L41.7 15.3425L41.5 15.0425" fill="#E1BB5D"/>
<path id="Vector_26" fill-rule="evenodd" clip-rule="evenodd" d="M41.4006 15.4425L41.6006 15.7425L42.1006 15.2425L42.3006 16.1425L41.9006 16.7425L41.6006 16.0425L41.1006 16.4425" fill="#E1BB5D"/>
<path id="Vector_27" fill-rule="evenodd" clip-rule="evenodd" d="M41.0004 16.9425L41.5004 16.4425L41.8004 17.2425L42.3004 16.7425L42.5004 17.6425L42.1004 18.2425L41.7004 17.4425L41.2004 18.0425L40.9004 17.2425" fill="#E1BB5D"/>
<path id="Vector_28" fill-rule="evenodd" clip-rule="evenodd" d="M40.8004 17.7425L40.4004 19.0425L41.0004 18.2425" fill="#E1BB5D"/>
<path id="Vector_29" fill-rule="evenodd" clip-rule="evenodd" d="M40.9004 19.0425L41.1004 18.7425L41.2004 19.2425C41.3004 19.1425 41.0004 19.2425 40.9004 19.0425Z" fill="#E1BB5D"/>
<path id="Vector_30" fill-rule="evenodd" clip-rule="evenodd" d="M41.8008 19.2425L42.0008 18.9425L42.1008 19.2425C42.1008 19.2425 41.9008 19.3425 41.8008 19.2425Z" fill="#E1BB5D"/>
<path id="Vector_31" fill-rule="evenodd" clip-rule="evenodd" d="M42.2002 18.5424L42.4002 19.2425H42.6002L42.7002 18.8425L42.5002 18.1425" fill="#E1BB5D"/>
<path id="Vector_32" fill-rule="evenodd" clip-rule="evenodd" d="M42.7002 17.6425L43.0002 17.2425L42.8002 18.1425" fill="#E1BB5D"/>
<path id="Vector_33" fill-rule="evenodd" clip-rule="evenodd" d="M42.4004 16.2425L42.8004 15.7425L43.2004 16.7425L42.7004 17.2425L42.4004 16.2425Z" fill="#E1BB5D"/>
<path id="Vector_34" fill-rule="evenodd" clip-rule="evenodd" d="M42.4004 14.5425L42.9004 15.1425L42.5004 15.6425" fill="#E1BB5D"/>
<path id="Vector_35" fill-rule="evenodd" clip-rule="evenodd" d="M43.1 15.4425L43.4 15.7425L43.2 16.2425L43 15.6425L43.1 15.4425Z" fill="#E1BB5D"/>
<path id="Vector_36" fill-rule="evenodd" clip-rule="evenodd" d="M43.5004 15.7425L42.9004 18.9425L43.9004 19.9425H44.1004L45.1004 18.9425L44.4004 15.7425L44.0004 16.0425" fill="#E1BB5D"/>
<path id="Vector_37" fill-rule="evenodd" clip-rule="evenodd" d="M43.6006 16.0425L43.8006 16.2425L43.5006 18.9425L43.3006 19.0425L43.1006 18.9425" fill="#231F20"/>
<path id="Vector_38" fill-rule="evenodd" clip-rule="evenodd" d="M44.0002 16.2425L43.7002 18.8425L44.0002 19.2425L44.2002 18.9425L44.0002 16.2425Z" fill="#231F20"/>
<path id="Vector_39" fill-rule="evenodd" clip-rule="evenodd" d="M44.2002 16.2425L44.3002 16.0425L44.9002 18.8425L44.7002 19.0425L44.5002 18.9425" fill="#231F20"/>
<path id="Vector_40" fill-rule="evenodd" clip-rule="evenodd" d="M44.6006 15.6425L44.7006 16.2425L44.9006 15.6425L44.8006 15.4425L44.6006 15.6425Z" fill="#E1BB5D"/>
<path id="Vector_41" fill-rule="evenodd" clip-rule="evenodd" d="M45.1006 15.1425L45.6006 14.5425L45.5006 15.6425" fill="#E1BB5D"/>
<path id="Vector_42" fill-rule="evenodd" clip-rule="evenodd" d="M45.9008 14.0425L46.1008 13.5425L46.5008 14.9425L46.3008 15.3425L45.8008 14.7425" fill="#E1BB5D"/>
<path id="Vector_43" fill-rule="evenodd" clip-rule="evenodd" d="M45.8002 15.1425L45.7002 16.1425L46.1002 16.7425L46.4002 16.0424L46.8002 16.4425L46.6002 15.4425L46.4002 15.7425" fill="#E1BB5D"/>
<path id="Vector_44" fill-rule="evenodd" clip-rule="evenodd" d="M47 16.8425L47.1 17.2425L46.7 18.1425L46.3 17.4425L45.9 18.3425L45.5 17.7425L45.7 16.7425L46.1 17.2425L46.5 16.4425" fill="#E1BB5D"/>
<path id="Vector_45" fill-rule="evenodd" clip-rule="evenodd" d="M47.2004 17.7425L47.5004 18.9425L46.9004 18.3425" fill="#E1BB5D"/>
<path id="Vector_46" fill-rule="evenodd" clip-rule="evenodd" d="M46.9002 18.7425L47.2002 19.1425L46.7002 19.2425" fill="#E1BB5D"/>
<path id="Vector_47" fill-rule="evenodd" clip-rule="evenodd" d="M46.0008 18.9425L46.2008 19.2425L45.8008 19.3425" fill="#E1BB5D"/>
<path id="Vector_48" fill-rule="evenodd" clip-rule="evenodd" d="M45.4008 18.2425L45.3008 19.0425L45.6008 19.2425L45.8008 18.6425L45.4008 18.2425Z" fill="#E1BB5D"/>
<path id="Vector_49" fill-rule="evenodd" clip-rule="evenodd" d="M45 17.3425L45.2 18.2425L45.3 17.6425" fill="#E1BB5D"/>
<path id="Vector_50" fill-rule="evenodd" clip-rule="evenodd" d="M44.8008 16.6425C44.8008 16.5425 45.1008 15.7425 45.1008 15.7425L45.5008 16.2425L45.3008 17.1425C45.3008 17.1425 44.8008 16.7425 44.8008 16.6425Z" fill="#E1BB5D"/>
<path id="Vector_51" fill-rule="evenodd" clip-rule="evenodd" d="M41.3008 10.1425C41.3008 10.1425 42.5008 10.0425 42.9008 9.84247V14.7425C42.9008 14.7425 41.4008 13.2425 41.3008 10.1425Z" fill="#EC2227"/>
<path id="Vector_52" fill-rule="evenodd" clip-rule="evenodd" d="M43.2008 9.74248C43.2008 9.74248 43.9008 9.54247 44.0008 9.44247C44.3008 9.54247 44.6008 9.74248 44.9008 9.74248C44.9008 10.1425 44.9008 14.9425 44.9008 14.9425C44.9008 14.9425 44.5008 15.5425 44.1008 15.6425C43.7008 15.3425 43.4008 15.1425 43.3008 14.9425C43.1008 14.4425 43.2008 9.74248 43.2008 9.74248Z" fill="white"/>
<path id="Vector_53" fill-rule="evenodd" clip-rule="evenodd" d="M39.0003 19.7425C39.0003 19.7425 39.1003 19.5424 39.4003 19.5424C39.3003 19.4424 39.3003 19.3425 39.4003 19.2425C39.2003 19.1425 38.9003 19.4425 39.0003 19.7425Z" fill="#E1BB5D"/>
<path id="Vector_54" fill-rule="evenodd" clip-rule="evenodd" d="M41.1008 19.9425L39.6008 19.5425C39.6008 19.5425 39.4008 19.0425 39.8008 19.0425C40.3008 19.1425 41.6008 19.5425 43.2008 19.5425C43.5008 19.5425 43.6008 19.9425 43.2008 20.0425C42.8008 20.0425 41.8008 19.9425 41.8008 19.9425C41.8008 19.9425 41.7008 19.4425 41.4008 19.4425C41.1008 19.5425 41.1008 19.9425 41.1008 19.9425Z" fill="#E1BB5D"/>
<path id="Vector_55" fill-rule="evenodd" clip-rule="evenodd" d="M41.3008 19.9425C41.3008 19.9425 41.3008 19.5425 41.5008 19.6425C41.7008 19.7425 41.6008 20.0424 41.4008 20.0424C41.3008 20.0424 41.3008 19.9425 41.3008 19.9425Z" fill="#E1BB5D"/>
<path id="Vector_56" fill-rule="evenodd" clip-rule="evenodd" d="M43.5004 19.8425C43.5004 19.8425 43.7004 19.9425 43.7004 20.2425C43.6004 20.2425 43.4004 20.0425 43.4004 20.0425L43.5004 19.8425Z" fill="#E1BB5D"/>
<path id="Vector_57" fill-rule="evenodd" clip-rule="evenodd" d="M44.4005 19.8425C44.4005 19.8425 44.2005 20.0425 44.3005 20.3425C44.4005 20.2425 44.7005 20.1425 44.4005 19.8425Z" fill="#E1BB5D"/>
<path id="Vector_58" fill-rule="evenodd" clip-rule="evenodd" d="M44.7002 20.0425C44.7002 20.0425 44.5002 19.8425 44.7002 19.5425C45.2002 19.5425 46.2002 19.6425 48.3002 19.0425C48.4002 19.1425 48.5002 19.3425 48.4002 19.5425C48.1002 19.6425 47.0002 19.9425 47.0002 19.9425C47.0002 19.9425 46.9002 19.4425 46.6002 19.5425C46.3002 19.6425 46.3002 20.0425 46.3002 20.0425C45.8002 20.0425 44.7002 20.0425 44.7002 20.0425Z" fill="#E1BB5D"/>
<path id="Vector_59" fill-rule="evenodd" clip-rule="evenodd" d="M46.3006 18.0425L46.1006 18.5425L46.4006 19.1425L46.7006 18.4425L46.3006 18.0425Z" fill="#E1BB5D"/>
<path id="Vector_60" fill-rule="evenodd" clip-rule="evenodd" d="M48.6006 19.1425V19.5424C48.6006 19.5424 48.9006 19.5425 49.0006 19.7425C49.0006 19.5425 48.9006 19.2425 48.6006 19.1425Z" fill="#E1BB5D"/>
<path id="Vector_61" fill-rule="evenodd" clip-rule="evenodd" d="M46.9002 20.0425L48.1002 19.7425C48.1002 19.7425 48.8002 19.5425 49.0002 20.0425C49.2002 20.0425 49.3002 20.1425 49.3002 20.3425C49.4002 20.4425 49.6002 20.4425 49.4002 20.6425C49.4002 20.8425 49.4002 21.1425 49.1002 21.2425C49.1002 21.5425 49.1002 21.6425 48.8002 21.7425C48.4002 21.8425 47.0002 22.2425 43.9002 22.2425C42.9002 22.2425 40.3002 22.1425 39.2002 21.7425C39.2002 21.7425 38.7002 21.6425 38.8002 21.1425C38.5002 20.9425 38.5002 20.9425 38.5002 20.7425C38.4002 20.6425 38.2002 20.4425 38.5002 20.3425C38.6002 20.1425 38.7002 19.9425 39.0002 19.9425C39.1002 19.7425 39.3002 19.5425 39.6002 19.6425C40.0002 19.7425 41.0002 19.9425 41.0002 19.9425C41.0002 19.9425 41.2002 19.9425 41.2002 20.1425C41.4002 20.0425 41.5002 19.9425 41.7002 20.0425C41.9002 20.0425 43.0002 20.1425 43.0002 20.1425C43.0002 20.1425 43.4002 20.1425 43.6002 20.4425C43.7002 20.3425 43.8002 20.1425 43.8002 19.9425C43.9002 19.9425 44.0002 19.9425 44.0002 19.9425C44.0002 19.9425 43.9002 20.2425 44.2002 20.4425C44.4002 20.2425 44.4002 20.1425 44.6002 20.0425C45.0002 20.0425 45.9002 20.0425 46.1002 19.9425C46.3002 19.9425 46.4002 20.0425 46.5002 20.2425C46.7002 20.2425 46.9002 20.0425 46.9002 20.0425Z" fill="white"/>
<path id="Vector_62" fill-rule="evenodd" clip-rule="evenodd" d="M46.4004 19.9425C46.4004 19.9425 46.6004 19.3425 46.8004 19.9425C46.7004 20.0425 46.7004 20.0425 46.6004 20.1425C46.6004 20.0425 46.4004 19.9425 46.4004 19.9425Z" fill="#E1BB5D"/>
<path id="Vector_63" fill-rule="evenodd" clip-rule="evenodd" d="M39.6006 19.3425C39.6006 19.3425 40.0006 19.3425 40.1006 19.6425C40.3006 19.7425 40.2006 19.4425 40.0006 19.3425C39.9006 19.2425 39.6006 19.1425 39.6006 19.3425Z" fill="#231F20"/>
<path id="Vector_64" fill-rule="evenodd" clip-rule="evenodd" d="M40.4008 19.5425C40.4008 19.5425 40.9008 19.4425 41.0008 19.7425C41.1008 19.7425 41.2008 19.5425 41.0008 19.5425C40.8008 19.4425 40.3008 19.3425 40.4008 19.5425Z" fill="#231F20"/>
<path id="Vector_65" fill-rule="evenodd" clip-rule="evenodd" d="M41.8002 19.8425C41.8002 19.8425 41.7002 19.6425 42.0002 19.7425C42.3002 19.7425 42.5002 19.8425 42.3002 19.9425C42.3002 19.8425 42.1002 19.7425 41.8002 19.8425Z" fill="#231F20"/>
<path id="Vector_66" fill-rule="evenodd" clip-rule="evenodd" d="M42.6 19.9425C42.6 19.9425 42.5 19.7425 42.8 19.7425C43.1 19.7425 43.3 19.8425 43.2 19.9425C43 19.8425 42.8 19.8425 42.6 19.9425Z" fill="#231F20"/>
<path id="Vector_67" fill-rule="evenodd" clip-rule="evenodd" d="M44.8007 19.9425C44.8007 19.9425 44.6007 19.8425 44.9007 19.7425C45.2007 19.6425 45.4007 19.7425 45.4007 19.8425C45.4007 19.9425 45.3007 19.9425 45.3007 19.9425C45.3007 19.9425 45.2007 19.7425 44.8007 19.9425Z" fill="#231F20"/>
<path id="Vector_68" fill-rule="evenodd" clip-rule="evenodd" d="M45.6 19.9425C45.6 19.9425 45.5 19.7425 45.9 19.7425C46.3 19.6425 46.2 19.9425 46.2 19.9425C46.2 19.9425 45.9 19.7425 45.6 19.9425Z" fill="#231F20"/>
<path id="Vector_69" fill-rule="evenodd" clip-rule="evenodd" d="M47.0004 19.7425C47.0004 19.7425 46.8004 19.5425 47.3004 19.4425C47.8004 19.3425 47.6004 19.5425 47.6004 19.5425C47.6004 19.5425 47.2004 19.4425 47.0004 19.7425Z" fill="#231F20"/>
<path id="Vector_70" fill-rule="evenodd" clip-rule="evenodd" d="M47.9 19.5425C47.9 19.5425 47.6 19.5425 48 19.2425C48.4 19.0425 48.4 19.2425 48.3 19.2425C48.2 19.2425 47.9 19.3425 47.9 19.5425Z" fill="#231F20"/>
<path id="Vector_71" d="M41.7008 17.8425L41.3008 18.3425L41.5008 19.1425L41.9008 18.6425L41.7008 17.8425Z" fill="#E1BB5D"/>
<path id="Vector_72" d="M45.8002 22.0425C45.8002 21.9425 45.8002 21.9425 45.8002 22.0425C45.9002 21.9425 45.9002 21.9425 45.9002 21.9425V21.8425C45.9002 21.8425 45.9002 21.8425 45.8002 21.8425C45.8002 21.8425 45.8002 21.8425 45.7002 21.8425V21.9425C45.7002 21.9425 45.7002 21.9425 45.8002 22.0425Z" fill="#231F20"/>
<path id="Vector_73" d="M40.6 21.6425C40.5 21.6425 40.5 21.7425 40.5 21.7425V21.8425C40.5 21.8425 40.5 21.8425 40.6 21.8425C40.6 21.8425 40.6 21.8425 40.6 21.7425C40.7 21.7425 40.7 21.7425 40.6 21.6425Z" fill="#231F20"/>
<path id="Vector_74" d="M40.0004 21.5425C39.9004 21.5425 39.9004 21.6425 39.9004 21.6425V21.7425C39.9004 21.7425 39.9004 21.7425 40.0004 21.7425C40.0004 21.7425 40.0004 21.7425 40.1004 21.7425C40.1004 21.7425 40.1004 21.7425 40.1004 21.6425C40.1004 21.6425 40.1004 21.6425 40.0004 21.5425Z" fill="#231F20"/>
<path id="Vector_75" d="M39.4008 21.1425C39.3008 21.1425 39.3008 21.1425 39.3008 21.0425C39.3008 21.0425 39.3008 21.0425 39.4008 21.1425C39.3008 21.0425 39.3008 21.0425 39.4008 21.0425C39.4008 21.0425 39.4008 21.0425 39.5008 21.0425L39.4008 21.1425ZM40.7008 21.5425L40.8008 21.0425H40.6008H40.5008V21.1425H40.6008V21.2425H40.4008H40.2008H40.1008V20.9425H40.0008H39.9008V21.0425H40.0008V21.2425H39.9008H39.7008H39.6008L39.7008 20.8425V20.7425H39.5008V20.8425H39.6008V20.9425H39.5008C39.4008 20.9425 39.4008 20.9425 39.4008 21.0425C39.3008 21.0425 39.3008 21.1425 39.3008 21.2425V21.3425L39.4008 21.4425H39.5008L39.8008 21.5425H40.0008H40.2008H40.4008H40.6008H40.7008Z" fill="#231F20"/>
<path id="Vector_76" d="M46.3006 21.9425H46.4006H46.5006C46.5006 21.9425 46.5006 21.9425 46.6006 21.8425C46.6006 21.7425 46.7006 21.6424 46.6006 21.5424C46.6006 21.4424 46.5006 21.3425 46.5006 21.2425L46.4006 21.1425L46.3006 21.4425C46.3006 21.4425 46.4006 21.4424 46.4006 21.5424V21.6425C46.4006 21.6425 46.4006 21.6425 46.4006 21.7425C46.4006 21.8425 46.3006 21.8425 46.3006 21.9425C46.3006 21.8425 46.2006 21.8425 46.3006 21.9425C46.2006 21.8425 46.2006 21.8425 46.3006 21.9425C46.2006 21.9425 46.2006 21.8425 46.3006 21.9425Z" fill="#231F20"/>
<path id="Vector_77" d="M42.3008 21.7425H42.4008H42.5008V21.2425V20.8425H42.4008H42.3008V20.9425" fill="#231F20"/>
<path id="Vector_78" d="M45.1008 21.5425C45.2008 21.4425 45.2008 21.5425 45.1008 21.5425C45.2008 21.4425 45.2008 21.4425 45.1008 21.5425ZM45.0008 21.7425H45.1008H45.2008H45.5008H45.9008H46.1008H46.2008L46.1008 21.2425L45.9008 21.3425V21.4425V21.5425H45.5008V21.0425L45.3008 21.1425V21.2425V21.3425C45.2008 21.3425 45.1008 21.4425 45.1008 21.4425C45.0008 21.5425 45.0008 21.5425 45.0008 21.6425C44.9008 21.7425 44.9008 21.7425 45.0008 21.7425Z" fill="#231F20"/>
<path id="Vector_79" d="M45.0004 20.9425C45.1004 20.9425 45.1004 20.9425 45.0004 20.9425C45.0004 20.9425 45.0004 20.9425 44.9004 20.9425C45.0004 20.8425 45.0004 20.8425 45.0004 20.9425Z" fill="#231F20"/>
<path id="Vector_80" d="M43.7 21.4425C43.8 21.4425 43.8 21.4425 43.8 21.5425H43.7H43.6C43.6 21.4425 43.6 21.4425 43.7 21.4425ZM44.3 21.5425C44.4 21.4425 44.4 21.5425 44.3 21.5425C44.4 21.5425 44.4 21.5425 44.4 21.6425C44.4 21.6425 44.4 21.6425 44.4 21.7425C44.3 21.6425 44.3 21.6425 44.3 21.5425ZM42.5 21.9425C42.6 22.0425 42.7 22.0425 42.7 22.0425C42.8 22.0425 42.8 22.0425 42.9 21.9425C43 21.9425 43 21.8425 43 21.7425H43.1H43.3H43.5H43.7H43.9H44H44.1C44.1 21.8425 44.2 21.8425 44.3 21.8425C44.3 21.8425 44.3 21.8425 44.4 21.8425C44.5 21.8425 44.5 21.8425 44.6 21.8425C44.6 21.8425 44.7 21.8425 44.7 21.7425V21.6425V21.5425C44.7 21.5425 44.7 21.4425 44.6 21.4425C44.5 21.4425 44.5 21.3425 44.4 21.3425C44.4 21.3425 44.4 21.3425 44.3 21.3425C44.3 21.3425 44.2 21.3425 44.2 21.4425C44.1 21.4425 44.1 21.5425 44.1 21.6425H44C44 21.5425 44 21.5425 44 21.4425C44 21.4425 44 21.3425 43.9 21.3425H43.8H43.7H43.6C43.6 21.3425 43.5 21.3425 43.5 21.4425C43.5 21.4425 43.5 21.4425 43.4 21.5425V21.3425H43.3L43.1 21.4425V21.5425H43.2V21.7425H43.1H43C43 21.6425 42.9 21.5425 42.9 21.5425L42.7 21.7425C42.7 21.7425 42.8 21.7425 42.8 21.8425C42.8 21.9425 42.8 21.9425 42.7 22.0425C42.7 22.0425 42.6 22.1425 42.5 22.1425C42.6 21.9425 42.5 21.9425 42.5 21.9425Z" fill="#231F20"/>
<path id="Vector_81" d="M41.6002 21.0425C41.5002 21.0425 41.5002 21.0425 41.6002 21.0425C41.5002 21.1425 41.4002 21.2425 41.3002 21.2425L41.4002 21.3425H41.3002H41.2002C41.2002 21.2425 41.2002 21.1425 41.1002 21.0425L40.9002 21.2425V21.3425C40.9002 21.4425 40.9002 21.4425 40.8002 21.5425C40.8002 21.5425 40.8002 21.5425 40.7002 21.5425C40.7002 21.5425 40.7002 21.5425 40.7002 21.6425C40.7002 21.6425 40.8002 21.6425 40.8002 21.7425C40.9002 21.7425 40.9002 21.7425 41.0002 21.6425C41.0002 21.6425 41.1002 21.5425 41.1002 21.4425H41.2002H41.4002L41.5002 21.3425V21.4425H41.8002H42.0002L42.1002 20.4425L41.9002 20.5425V20.6425H42.0002V21.3425H41.9002H41.8002H41.7002L41.8002 21.2425C41.7002 21.2425 41.6002 21.1425 41.6002 21.0425Z" fill="#231F20"/>
<path id="Vector_82" d="M45.4008 20.9425C45.5008 20.9425 45.5008 20.9425 45.4008 20.9425C45.5008 20.8425 45.5008 20.8425 45.5008 20.8425V20.7425C45.5008 20.7425 45.5008 20.7425 45.4008 20.7425C45.4008 20.7425 45.4008 20.7425 45.3008 20.7425C45.3008 20.7425 45.3008 20.7425 45.3008 20.8425C45.3008 20.8425 45.3008 20.9425 45.4008 20.9425Z" fill="#231F20"/>
<path id="Vector_83" d="M39.8002 21.5425C39.7002 21.5425 39.7002 21.5425 39.7002 21.5425C39.7002 21.5425 39.7002 21.5425 39.7002 21.6425V21.7425C39.7002 21.7425 39.7002 21.7425 39.8002 21.7425C39.8002 21.7425 39.8002 21.7425 39.9002 21.7425C39.9002 21.7425 39.9002 21.7425 39.9002 21.6425C39.8002 21.6425 39.8002 21.5425 39.8002 21.5425Z" fill="#231F20"/>
<path id="Vector_84" d="M46.0004 21.7425C45.9004 21.8425 45.9004 21.8425 45.9004 21.8425V21.9425C45.9004 21.9425 45.9004 21.9425 46.0004 21.9425C46.0004 21.9425 46.0004 21.9425 46.1004 21.9425C46.1004 21.9425 46.1004 21.8425 46.0004 21.7425C46.1004 21.8425 46.1004 21.8425 46.0004 21.7425Z" fill="#231F20"/>
<path id="Vector_85" d="M39.6 20.6425C39.7 20.6425 39.7 20.5425 39.7 20.5425V20.4425C39.7 20.4425 39.7 20.4425 39.6 20.4425C39.6 20.4425 39.6 20.4425 39.5 20.4425C39.5 20.4425 39.5 20.4425 39.5 20.5425C39.5 20.5425 39.5 20.6425 39.6 20.6425C39.5 20.6425 39.5 20.6425 39.6 20.6425Z" fill="#231F20"/>
<path id="Vector_86" d="M39.3003 20.6425C39.4003 20.6425 39.4003 20.6425 39.3003 20.6425C39.4003 20.6425 39.4003 20.5425 39.4003 20.5425V20.4425C39.4003 20.4425 39.4003 20.4425 39.3003 20.4425C39.3003 20.4425 39.3003 20.4425 39.3003 20.5425C39.2003 20.5425 39.3003 20.5425 39.3003 20.6425Z" fill="#231F20"/>
<path id="Vector_87" d="M47.0008 21.2425C46.9008 21.2425 46.9008 21.3425 47.0008 21.2425V21.2425ZM47.4008 21.1425C47.5008 21.1425 47.5008 21.1425 47.4008 21.1425C47.4008 21.2425 47.4008 21.2425 47.4008 21.1425ZM47.7008 21.0425C47.6008 21.0425 47.6008 21.0425 47.7008 21.0425V21.0425ZM48.1008 21.0425C48.2008 21.0425 48.2008 21.0425 48.2008 21.0425C48.2008 21.0425 48.2008 21.0425 48.2008 21.1425C48.2008 21.2425 48.1008 21.1425 48.1008 21.0425C48.1008 21.1425 48.1008 21.1425 48.1008 21.0425ZM46.8008 21.5425H47.0008H47.1008C47.1008 21.6425 47.1008 21.6425 47.1008 21.6425C47.1008 21.6425 47.1008 21.6425 47.0008 21.6425C47.0008 21.6425 47.0008 21.6425 46.9008 21.6425C46.9008 21.6425 46.9008 21.6425 47.0008 21.6425H47.1008C47.2008 21.6425 47.2008 21.5425 47.3008 21.5425C47.3008 21.4425 47.3008 21.4425 47.3008 21.3425H47.5008H47.7008L48.1008 21.2425C48.1008 21.3425 48.2008 21.3425 48.3008 21.3425H48.4008C48.4008 21.3425 48.5008 21.3425 48.5008 21.2425L48.6008 21.1425L48.9008 21.0425L49.1008 20.9425V21.0425C49.1008 20.9425 49.0008 20.8425 49.0008 20.7425H48.9008C48.8008 20.6425 48.8008 20.5425 48.7008 20.5425C48.6008 20.5425 48.6008 20.5425 48.5008 20.5425C48.4008 20.5425 48.4008 20.6425 48.4008 20.7425L48.5008 20.8425C48.5008 20.7425 48.5008 20.7425 48.5008 20.7425C48.5008 20.7425 48.5008 20.7425 48.6008 20.7425C48.6008 20.7425 48.6008 20.7425 48.7008 20.8425H48.6008L48.3008 20.9425L48.2008 20.8425C48.2008 20.8425 48.1008 20.8425 48.1008 20.7425C48.1008 20.7425 48.1008 20.7425 48.0008 20.7425C48.0008 20.7425 47.9008 20.7425 47.9008 20.8425C47.9008 20.9425 47.8008 20.9425 47.8008 21.0425H47.7008C47.7008 20.9425 47.7008 20.9425 47.6008 20.8425L47.5008 20.7425C47.5008 20.7425 47.5008 20.7425 47.4008 20.7425V20.6425L47.3008 20.7425V20.8425C47.2008 20.9425 47.1008 21.0425 47.1008 21.1425V21.0425C47.1008 21.0425 47.0008 20.9425 46.9008 20.9425C46.8008 21.0425 46.8008 21.0425 46.8008 21.1425C46.8008 21.3425 46.8008 21.4425 46.8008 21.5425Z" fill="#231F20"/>
<path id="Vector_88" d="M32.3008 45.1425C32.3008 45.1425 32.2008 45.2425 32.0008 45.2425C31.8008 45.2425 31.7008 45.2425 31.7008 45.2425C31.7008 45.2425 31.7008 45.1425 31.6008 45.0425C31.6008 44.9425 31.6008 44.8425 31.6008 44.8425C31.6008 44.8425 31.7008 44.7425 31.9008 44.7425C32.1008 44.7425 32.2008 44.7425 32.2008 44.7425C32.2008 44.7425 32.2008 44.8425 32.2008 45.0425C32.3008 45.0425 32.3008 45.1425 32.3008 45.1425ZM31.5008 46.5425C31.3008 46.8425 31.0008 46.9425 30.7008 47.0425C30.4008 47.1425 30.1008 47.0425 29.9008 46.8425C29.5008 46.5425 29.5008 46.2425 29.8008 45.9425C30.1008 45.6425 30.5008 45.3425 31.0008 45.2425H31.1008C30.8008 45.4425 30.5008 45.5425 30.4008 45.6425C30.3008 45.7425 30.3008 45.8425 30.3008 46.0425C30.3008 46.1425 30.4008 46.2425 30.5008 46.3425C30.5008 46.3425 30.6008 46.4425 30.8008 46.5425C31.0008 46.6425 31.1008 46.6425 31.1008 46.6425C31.2008 46.5425 31.3008 46.2425 31.4008 45.8425C31.5008 45.8425 31.7008 45.7425 32.0008 45.6425C31.9008 46.0425 31.7008 46.3425 31.5008 46.5425Z" fill="white"/>
<path id="Vector_89" d="M32.3008 47.6425L31.8008 47.3425L33.0008 45.5425C33.0008 45.5425 33.1008 45.4425 33.3008 45.4425C33.4008 45.4425 33.5008 45.3425 33.6008 45.3425C33.6008 45.3425 33.2008 45.9425 32.6008 46.9425L32.8008 47.1425" fill="white"/>
<path id="Vector_90" d="M33.7008 48.5424L33.4008 48.3425V47.7425L33.0008 48.0424L32.3008 47.6425L32.7008 46.9425L33.4008 47.3425C33.4008 47.1425 33.3008 46.7425 33.2008 46.2425L33.8008 45.6425L35.1008 46.0424C35.0008 46.1424 34.9008 46.2425 34.7008 46.4425L33.7008 46.2425L33.8008 46.9425C33.8008 47.2425 33.9008 47.5425 34.0008 47.6425L34.2008 47.7425" fill="white"/>
<path id="Vector_91" d="M34.4006 48.9425L34.1006 48.7425V48.6425C34.0006 48.6425 33.9006 48.7425 33.9006 48.7425L33.6006 48.5424L34.0006 47.8425L34.3006 48.0424C34.4006 48.0424 34.4006 47.9425 34.5006 47.8425C34.5006 47.8425 34.7006 47.7425 35.0006 47.6425V47.7425C35.0006 47.8425 34.9006 47.9424 34.8006 48.0424C34.7006 48.1424 34.6006 48.2425 34.5006 48.3425L34.7006 48.4425" fill="white"/>
<path id="Vector_92" d="M35.8 49.6425L35.5 49.5425C35.5 49.5425 35.5 49.4425 35.5 49.3425L35.4 49.4425L34.9 49.2425V49.1425H34.8L34.5 48.9425L34.8 48.2425L35.1 48.4425L35.2 48.3425C35.2 48.2425 35.3 48.2425 35.4 48.1425C35.5 48.0425 35.6 48.0425 35.7 48.0425L35.6 48.2425C35.6 48.2425 35.5 48.4425 35.3 48.6425C35.3 48.6425 35.4 48.7425 35.6 48.7425C35.6 48.7425 35.7 48.7425 35.7 48.6425C35.7 48.5425 35.8 48.5425 35.9 48.4425C36 48.3425 36.1 48.3425 36.2 48.3425C36.1 48.4425 36.1 48.5425 36.1 48.6425C36 48.8425 36 48.9425 36 48.9425L36.2 49.0425" fill="white"/>
<path id="Vector_93" d="M37.5008 48.0425L37.0008 48.4425L36.8008 49.1425C36.8008 49.1425 36.7008 49.2425 36.6008 49.4425C36.5008 49.6425 36.4008 49.7425 36.4008 49.7425H36.3008L35.8008 49.5425L36.1008 48.8425L36.5008 49.0425C36.6008 48.8425 36.7008 48.6425 36.7008 48.4425C36.8008 48.1425 36.8008 47.9425 36.7008 47.8425C36.8008 47.7425 36.9008 47.6425 37.0008 47.5425C37.1008 47.4425 37.2008 47.3425 37.3008 47.3425V47.4425C37.3008 47.5425 37.3008 47.6425 37.4008 47.8425C37.4008 47.8425 37.4008 47.9425 37.5008 48.0425Z" fill="white"/>
<path id="Vector_94" d="M37.9004 49.4425C37.8004 49.8425 37.6004 50.1425 37.4004 50.3425L37.8004 48.5425C37.8004 48.5425 38.0004 48.3425 38.3004 47.9425C38.1004 48.6425 38.0004 49.1425 37.9004 49.4425Z" fill="white"/>
<path id="Vector_95" d="M39.4008 49.8425C39.4008 49.8425 39.4008 49.7425 39.4008 49.6425C39.4008 49.5425 39.4008 49.5425 39.3008 49.5425H39.2008C39.1008 49.5425 39.1008 49.6425 39.1008 49.6425C39.1008 49.6425 39.1008 49.7425 39.2008 49.7425L39.3008 49.8425C39.3008 49.9425 39.3008 49.9425 39.4008 49.8425ZM39.7008 50.0425C39.6008 50.3425 39.5008 50.6425 39.3008 50.9425C39.0008 51.3425 38.8008 51.5425 38.6008 51.4425C38.4008 51.3425 38.1008 51.2425 37.9008 51.0425H37.8008C37.8008 51.0425 37.8008 51.0425 37.8008 50.9425H38.2008C39.0008 50.7425 39.5008 50.5425 39.6008 50.1425C39.5008 50.3425 39.4008 50.3425 39.4008 50.3425C39.3008 50.4425 39.2008 50.4425 39.1008 50.4425C38.9008 50.3425 38.8008 50.2425 38.9008 49.9425C38.9008 49.7425 39.1008 49.5425 39.2008 49.3425C39.4008 49.0425 39.6008 48.9425 39.7008 48.9425C39.8008 49.2425 39.8008 49.5425 39.7008 50.0425Z" fill="white"/>
<path id="Vector_96" d="M41.1004 48.8425C41.2004 48.7425 41.2004 48.7425 41.3004 48.6425L41.5004 48.8425C41.6004 48.9425 41.6004 48.9425 41.7004 48.9425C41.8004 48.8425 41.9004 48.7425 42.0004 48.6425L41.7004 48.3425C41.6004 48.4425 41.6004 48.4425 41.6004 48.4425C41.5004 48.5425 41.5004 48.5425 41.5004 48.5425C41.5004 48.5425 41.4004 48.4425 41.2004 48.2425L40.9004 48.5425C40.9004 48.6425 41.0004 48.7425 41.1004 48.8425Z" fill="white"/>
<path id="Vector_97" d="M45.7006 50.4425C45.9006 50.2425 45.9006 50.2425 46.0006 50.2425C46.1006 50.1425 46.2006 50.1425 46.3006 50.0425C46.5006 50.0425 46.6006 50.1425 46.7006 50.3425L45.7006 50.4425ZM41.6006 50.3425C41.6006 50.3425 41.4006 50.3425 41.3006 50.2425C41.3006 50.2425 41.4006 50.2425 41.4006 50.1425C41.5006 50.0425 41.5006 50.0425 41.6006 50.0425C41.6006 49.9425 41.7006 49.9425 41.7006 49.9425L41.6006 50.3425ZM48.0006 50.4425C48.0006 50.2425 48.0006 50.1425 48.0006 50.0425L47.8006 49.2425L48.0006 48.6425C47.9006 48.6425 47.8006 48.5425 47.6006 48.4425C47.4006 48.3425 47.4006 48.2425 47.3006 48.1425C47.3006 48.0425 47.3006 48.0425 47.3006 48.0425C47.3006 48.0425 47.2006 48.2425 47.2006 48.3425C47.2006 48.4425 47.2006 48.5425 47.1006 48.7425C47.2006 48.8425 47.3006 49.0425 47.4006 49.2425C47.5006 49.4425 47.5006 49.6425 47.6006 49.8425L47.2006 49.9425H47.0006C47.0006 49.8425 47.0006 49.7425 47.0006 49.7425C47.0006 49.6425 46.9006 49.4425 46.8006 49.3425C46.7006 49.2425 46.6006 49.1425 46.4006 49.1425C46.3006 49.1425 46.1006 49.2425 46.0006 49.3425C45.9006 49.4425 45.8006 49.5425 45.6006 49.7425C45.4006 49.9425 45.3006 50.0425 45.2006 50.1425H45.1006H44.9006C44.9006 50.1425 44.9006 49.9425 45.0006 49.7425C45.0006 49.6425 45.0006 49.4425 45.0006 49.4425V49.3425C44.8006 49.6425 44.7006 49.7425 44.7006 49.8425C44.7006 50.0425 44.7006 50.0425 44.7006 50.1425H44.3006H43.6006C43.7006 50.1425 43.7006 50.0425 43.8006 50.0425C43.9006 50.0425 44.0006 50.0425 44.0006 49.9425C44.1006 49.7425 44.1006 49.5425 44.2006 49.4425C44.0006 49.4425 43.8006 49.4425 43.6006 49.3425C43.6006 49.3425 43.4006 49.2425 43.2006 49.1425C43.1006 49.0425 43.0006 49.0425 42.9006 49.0425C42.7006 49.0425 42.6006 49.1425 42.5006 49.3425C42.4006 49.5425 42.4006 49.7425 42.4006 49.8425C42.5006 49.7425 42.6006 49.7425 42.8006 49.7425C42.9006 49.7425 42.9006 49.7425 43.0006 49.7425C43.1006 49.7425 43.2006 49.7425 43.2006 49.8425C43.1006 49.9425 43.0006 50.0425 42.9006 50.0425C42.9006 50.0425 42.7006 50.0425 42.5006 50.0425H42.2006H42.0006C41.9006 50.0425 41.9006 49.9425 41.9006 49.9425C41.9006 49.7425 41.9006 49.5425 41.9006 49.2425C41.9006 48.7425 41.9006 48.5425 41.9006 48.5425L41.6006 49.0425V49.2425C41.6006 49.2425 41.5006 49.3425 41.3006 49.4425C41.1006 49.5425 41.0006 49.6425 40.9006 49.6425C40.8006 49.7425 40.8006 49.8425 40.7006 50.0425C40.7006 50.0425 40.6006 50.2425 40.6006 50.4425C40.7006 50.4425 40.8006 50.5425 41.0006 50.5425C41.1006 50.5425 41.2006 50.6425 41.4006 50.7425C41.5006 50.7425 41.5006 50.6425 41.6006 50.5425C41.7006 50.4425 41.7006 50.3425 41.7006 50.3425C41.7006 50.5425 41.7006 50.6425 41.7006 50.6425C41.7006 50.8425 41.8006 50.9425 41.9006 50.9425L42.2006 51.0425H42.9006C43.0006 51.0425 43.0006 50.9425 43.2006 50.7425C43.3006 50.5425 43.4006 50.4425 43.4006 50.3425C43.4006 50.6425 43.4006 50.8425 43.4006 51.0425H44.4006H44.7006C44.7006 51.0425 44.8006 50.9425 44.8006 50.8425C44.8006 50.9425 44.8006 50.9425 44.8006 50.9425H45.2006L47.2006 50.6425L47.7006 50.5425L47.8006 50.4425C48.0006 50.7425 48.0006 50.6425 48.0006 50.4425Z" fill="white"/>
<path id="Vector_98" d="M49.0008 49.6425C49.1008 50.0425 49.1008 50.3425 49.0008 50.6425L48.3008 48.9425C48.3008 48.9425 48.3008 48.6425 48.4008 48.1425C48.7008 48.8425 48.9008 49.3425 49.0008 49.6425Z" fill="white"/>
<path id="Vector_99" d="M51.1008 49.0424C51.1008 49.0424 51.0008 48.9425 50.9008 48.9425C50.8008 48.9425 50.7008 48.8425 50.6008 48.8425C50.6008 49.0425 50.6008 49.1425 50.6008 49.1425C50.6008 49.2425 50.7008 49.3425 50.9008 49.2425C50.9008 49.2425 51.0008 49.2425 51.0008 49.1425C51.1008 49.0425 51.1008 49.0424 51.1008 49.0424ZM51.3008 48.6425C51.4008 48.8425 51.4008 49.1425 51.4008 49.3425C51.4008 49.6425 51.3008 49.8425 51.1008 49.9425C51.0008 50.0425 50.9008 50.0424 50.8008 50.0424C50.7008 50.0424 50.6008 49.9425 50.6008 49.8425C50.5008 49.6425 50.5008 49.3425 50.5008 48.9425C50.5008 48.6425 50.5008 48.3424 50.6008 48.0424L51.1008 48.2425C51.1008 48.3425 51.2008 48.5425 51.3008 48.6425ZM50.8008 47.2425C50.8008 47.5425 50.7008 47.6425 50.7008 47.6425C50.7008 47.6425 50.5008 47.6424 50.3008 47.5424C50.3008 47.5424 50.2008 47.6425 50.2008 47.8425C50.1008 47.8425 49.9008 47.8425 49.8008 47.7425L49.9008 47.3425C50.1008 47.4425 50.3008 47.4425 50.3008 47.4425C50.3008 47.4425 50.3008 47.3425 50.4008 47.1425" fill="white"/>
<path id="Vector_100" d="M53 48.4425C53.1 48.6425 53.2 48.9425 53.2 49.2425C53.2 49.6425 53.1 49.8425 53 49.9425C52.9 50.0425 52.7 50.0425 52.5 50.0425C52.3 50.0425 52.1 49.9425 52 49.9425C52.1 49.9425 52.2 49.9425 52.4 49.8425C52.5 49.7425 52.7 49.6425 52.8 49.3425C52.9 49.0425 53 48.9425 52.9 48.7425C52.9 48.6425 52.7 48.5425 52.3 48.3425C52.3 48.2425 52.2 48.0425 52.2 47.7425C52.6 47.8425 52.9 48.1425 53 48.4425Z" fill="white"/>
<path id="Vector_101" d="M53.6002 47.5425C53.8002 47.9425 53.9002 48.2425 53.9002 48.5425L52.8002 47.0425C52.8002 47.0425 52.7002 46.7425 52.7002 46.2425C53.1002 46.8425 53.4002 47.3425 53.6002 47.5425Z" fill="white"/>
<path id="Vector_102" d="M55.3004 46.9425C55.4004 47.1425 55.5004 47.3425 55.6004 47.7425C55.7004 48.1425 55.6004 48.3425 55.5004 48.4425C55.4004 48.5425 55.2004 48.5425 55.0004 48.5425C54.7004 48.5425 54.6004 48.5425 54.5004 48.4425C54.5004 48.4425 54.6004 48.4425 54.7004 48.3425C54.8004 48.3425 54.9004 48.2425 54.9004 48.2425C55.0004 48.1425 55.1004 47.9425 55.2004 47.7425C55.3004 47.4425 55.3004 47.2425 55.2004 47.1425C55.1004 47.0425 54.9004 46.9425 54.6004 46.8425C54.5004 46.7425 54.5004 46.5425 54.4004 46.2425C54.6004 46.2425 54.8004 46.3425 55.0004 46.4425C55.0004 46.6425 55.2004 46.7425 55.3004 46.9425ZM53.9004 45.5425C53.9004 45.5425 53.9004 45.6425 53.9004 45.7425C53.9004 45.8425 53.9004 45.9425 53.8004 45.9425C53.8004 45.9425 53.7004 45.9425 53.6004 45.9425C53.5004 45.9425 53.4004 45.9425 53.4004 45.8425C53.4004 45.8425 53.4004 45.7425 53.4004 45.6425C53.4004 45.5425 53.4004 45.4425 53.4004 45.3425C53.4004 45.3425 53.5004 45.3425 53.7004 45.3425C53.8004 45.4425 53.9004 45.5425 53.9004 45.5425Z" fill="white"/>
<path id="Vector_103" d="M56.1008 45.7425L56.0008 45.6425C55.9008 45.6425 55.9008 45.6425 55.9008 45.6425V45.7425C55.9008 45.8425 55.9008 45.8425 55.9008 45.8425H56.0008C56.1008 45.8425 56.1008 45.8425 56.1008 45.8425C56.1008 45.8425 56.1008 45.8425 56.1008 45.7425ZM56.4008 45.5425C56.6008 45.7425 56.8008 46.0425 56.9008 46.4425C57.1008 46.8425 57.1008 47.1425 56.9008 47.3425C56.7008 47.5425 56.5008 47.6425 56.2008 47.7425H56.1008H56.0008L56.3008 47.4425C56.6008 46.6425 56.7008 46.1425 56.4008 45.8425C56.5008 46.0425 56.5008 46.1425 56.5008 46.1425C56.5008 46.2425 56.5008 46.3425 56.4008 46.4425C56.2008 46.6425 56.0008 46.5425 55.8008 46.3425C55.7008 46.2425 55.6008 45.9425 55.5008 45.7425C55.4008 45.4425 55.4008 45.1425 55.5008 45.1425C55.8008 45.0425 56.1008 45.2425 56.4008 45.5425Z" fill="white"/>
<path id="Vector_104" d="M30.8008 39.1425L31.6008 38.2425L31.9008 38.5425L31.5008 39.3425L32.2008 38.8425L32.5008 39.1425L31.6008 40.0425L31.5008 39.8425L32.1008 39.1425L31.3008 39.6425L31.1008 39.5425L31.6008 38.6425L30.9008 39.3425" fill="#231F20"/>
<path id="Vector_105" d="M32.5004 39.4425L32.6004 39.2425L32.8004 39.4425L32.7004 39.6425L32.5004 39.4425ZM31.9004 40.1425L32.5004 39.4425L32.7004 39.6425L32.1004 40.3425" fill="#231F20"/>
<path id="Vector_106" d="M32.9008 40.9425L32.7008 40.8425L33.0008 40.4425C33.1008 40.3425 33.1008 40.3425 33.1008 40.2425V40.1425C33.1008 40.1425 33.1008 40.1425 33.0008 40.0425H32.9008H32.8008C32.8008 40.0425 32.7008 40.1425 32.7008 40.2425L32.5008 40.5425L32.3008 40.4425L32.8008 39.7425L33.0008 39.8425L32.9008 39.9425C33.0008 39.9425 33.1008 39.9425 33.2008 40.0425L33.3008 40.1425V40.2425V40.3425C33.3008 40.3425 33.3008 40.4425 33.2008 40.4425" fill="#231F20"/>
<path id="Vector_107" d="M33.7006 40.3425L33.8006 40.1425L34.0006 40.2425L33.9006 40.4425L33.7006 40.3425ZM33.1006 41.1425L33.6006 40.4425L33.8006 40.5424L33.3006 41.2425" fill="#231F20"/>
<path id="Vector_108" d="M34.4008 40.9425C34.5008 40.9425 34.5008 40.9425 34.4008 40.9425C34.5008 40.8425 34.5008 40.7425 34.5008 40.7425H34.6008H34.7008C34.7008 40.7425 34.8008 40.7425 34.8008 40.8425L34.9008 40.9425L35.0008 41.0425C35.0008 41.0425 35.0008 41.1425 35.1008 41.1425L34.9008 41.4425L35.0008 41.5425L34.9008 41.7425L34.8008 41.6425L34.6008 41.9425V42.0425C34.6008 42.0425 34.6008 42.0425 34.7008 42.0425L34.6008 42.2425C34.5008 42.2425 34.5008 42.2425 34.4008 42.1425L34.3008 42.0425V41.9425V41.8425C34.3008 41.8425 34.3008 41.7425 34.4008 41.7425L34.6008 41.4425L34.5008 41.3425L34.6008 41.1425L34.7008 41.2425L34.8008 41.0425C34.8008 41.0425 34.8008 41.0425 34.7008 41.0425C34.7008 41.0425 34.7008 41.0425 34.6008 41.0425C34.6008 41.0425 34.6008 41.0425 34.6008 41.1425C34.6008 41.1425 34.6008 41.1425 34.6008 41.2425C34.6008 41.2425 34.6008 41.2425 34.6008 41.3425C34.6008 41.3425 34.6008 41.3425 34.6008 41.4425C34.6008 41.4425 34.6008 41.4425 34.6008 41.5425L34.4008 41.4425V41.3425C34.4008 41.3425 34.4008 41.2425 34.3008 41.2425C34.2008 41.2425 34.2008 41.2425 34.2008 41.2425C34.2008 41.2425 34.3008 41.3425 34.3008 41.4425C34.4008 41.5425 34.4008 41.6425 34.5008 41.6425C34.5008 41.7425 34.5008 41.7425 34.5008 41.8425C34.5008 41.9425 34.4008 41.9425 34.3008 41.9425C34.2008 41.9425 34.1008 41.9425 34.0008 41.8425C33.9008 41.8425 33.9008 41.7425 33.9008 41.7425L33.8008 41.6425V41.5425V41.4425L34.0008 41.5425V41.6425C34.0008 41.6425 34.0008 41.7425 34.1008 41.7425C34.2008 41.7425 34.2008 41.7425 34.2008 41.7425C34.2008 41.7425 34.2008 41.7425 34.3008 41.7425C34.3008 41.7425 34.3008 41.7425 34.3008 41.6425C34.2008 41.5425 34.1008 41.4425 34.1008 41.3425C34.1008 41.2425 34.1008 41.1425 34.1008 41.1425C34.1008 41.0425 34.2008 41.0425 34.3008 41.0425C34.4008 41.0425 34.5008 41.0425 34.6008 41.1425C34.3008 40.8425 34.3008 40.9425 34.4008 40.9425Z" fill="#231F20"/>
<path id="Vector_109" d="M35.0008 42.3425L34.8008 42.2425L35.2008 41.4425L35.4008 41.5425L35.3008 41.6425C35.4008 41.6425 35.4008 41.5425 35.4008 41.5425H35.5008L35.6008 41.6425L35.4008 41.7425C35.4008 41.7425 35.4008 41.6425 35.3008 41.6425H35.2008C35.2008 41.6425 35.1008 41.6425 35.1008 41.7425C35.1008 41.7425 35.0008 41.8425 34.9008 42.0425" fill="#231F20"/>
<path id="Vector_110" d="M35.7002 41.7425L35.9002 41.8425L35.8002 42.5425L36.3002 42.0425L36.5002 42.1425L35.8002 42.7425L35.7002 42.8425L35.6002 42.9425H35.5002H35.4002H35.3002C35.3002 42.9425 35.2002 42.9425 35.2002 42.8425L35.3002 42.6425C35.3002 42.6425 35.4002 42.6425 35.4002 42.7425H35.5002C35.5002 42.7425 35.6002 42.7425 35.6002 42.6425" fill="#231F20"/>
<path id="Vector_111" d="M37.1008 42.8425C37.1008 42.9425 37.1008 43.0425 37.1008 43.0425C37.1008 43.1425 37.2008 43.1425 37.2008 43.1425C37.3008 43.1425 37.3008 43.1425 37.4008 43.1425C37.5008 43.1425 37.5008 43.0425 37.5008 42.9425C37.5008 42.8425 37.5008 42.7425 37.5008 42.7425C37.5008 42.6425 37.4008 42.6425 37.4008 42.6425C37.3008 42.6425 37.3008 42.6425 37.2008 42.6425C37.1008 42.6425 37.2008 42.8425 37.1008 42.8425ZM36.9008 42.7425C36.9008 42.6425 37.0008 42.6425 37.0008 42.5425C37.1008 42.4425 37.1008 42.4425 37.2008 42.4425C37.3008 42.4425 37.4008 42.4425 37.4008 42.4425C37.5008 42.5425 37.6008 42.5425 37.7008 42.6425C37.7008 42.7425 37.7008 42.8425 37.7008 43.0425C37.6008 43.1425 37.6008 43.2425 37.5008 43.3425C37.4008 43.4425 37.3008 43.4425 37.1008 43.3425C37.0008 43.3425 37.0008 43.2425 36.9008 43.2425C36.8008 43.1425 36.8008 43.1425 36.8008 43.0425C36.8008 42.9425 36.9008 42.8425 36.9008 42.7425Z" fill="#231F20"/>
<path id="Vector_112" d="M38.0008 42.7425H38.1008V42.6425C38.1008 42.5425 38.1008 42.5425 38.2008 42.4425C38.2008 42.4425 38.3008 42.4425 38.3008 42.3425C38.3008 42.3425 38.4008 42.3425 38.5008 42.3425C38.6008 42.3425 38.6008 42.4425 38.7008 42.4425L38.6008 42.5425H38.5008H38.4008C38.4008 42.5425 38.4008 42.5425 38.3008 42.6425V42.7425L38.5008 42.8425L38.4008 43.0425L38.2008 42.9425L38.0008 43.6425L37.8008 43.5425L38.0008 42.8425H37.9008" fill="#231F20"/>
<path id="Vector_113" d="M38.8008 43.9425L39.2008 42.7425L39.4008 42.8425L39.3008 43.3425L39.7008 43.4425L39.9008 42.9425L40.1008 43.0425L39.8008 44.2425L39.5008 44.1425L39.7008 43.6425L39.2008 43.5425L39.1008 44.0425" fill="#231F20"/>
<path id="Vector_114" d="M40.7 43.8425C40.7 43.7425 40.7 43.7425 40.7 43.6425L40.6 43.5425H40.5L40.4 43.6425L40.7 43.8425ZM40.6 44.1425L40.8 44.2425C40.8 44.3425 40.7 44.3425 40.6 44.4425C40.5 44.4425 40.4 44.4425 40.3 44.4425C40.1 44.4425 40 44.3425 40 44.2425C40 44.1425 40 44.0425 40 43.9425C40 43.8425 40.1 43.7425 40.2 43.6425C40.3 43.5425 40.4 43.5425 40.5 43.5425C40.6 43.5425 40.7 43.6425 40.8 43.7425C40.9 43.8425 40.9 43.9425 40.8 44.1425L40.2 44.0425C40.2 44.1425 40.2 44.1425 40.2 44.2425L40.3 44.3425C40.5 44.2425 40.5 44.2425 40.6 44.1425Z" fill="#231F20"/>
<path id="Vector_115" d="M41.6006 44.1425H41.5006C41.4006 44.1425 41.4006 44.1425 41.4006 44.1425C41.4006 44.1425 41.3006 44.1425 41.3006 44.2425V44.3425C41.3006 44.3425 41.3006 44.3425 41.4006 44.3425H41.5006C41.5006 44.3425 41.6006 44.3425 41.6006 44.2425C41.6006 44.2425 41.6006 44.2425 41.6006 44.1425ZM41.3006 43.8425L41.1006 43.7425C41.1006 43.6425 41.2006 43.6425 41.3006 43.5425C41.4006 43.5425 41.5006 43.5425 41.6006 43.5425C41.7006 43.5425 41.8006 43.5425 41.8006 43.6425L41.9006 43.7425C41.9006 43.7425 41.9006 43.8425 41.9006 43.9425V44.2425C41.9006 44.3425 41.9006 44.3425 41.9006 44.4425V44.5425H41.7006C41.7006 44.5425 41.7006 44.5425 41.7006 44.4425L41.6006 44.5425H41.5006C41.4006 44.5425 41.3006 44.5425 41.3006 44.4425C41.3006 44.3425 41.2006 44.3425 41.3006 44.2425C41.3006 44.1425 41.3006 44.1425 41.4006 44.1425L41.5006 44.0425C41.5006 44.0425 41.6006 44.0425 41.7006 44.0425C41.8006 44.0425 41.9006 44.0425 41.9006 44.0425V43.9425H41.8006C41.4006 43.7425 41.4006 43.8425 41.3006 43.8425Z" fill="#231F20"/>
<path id="Vector_116" d="M42 44.6425L42.2 43.3425L42.4 43.4425L42.3 44.6425H42Z" fill="#231F20"/>
<path id="Vector_117" d="M43.0004 43.8425V44.0425H42.8004V44.4425C42.8004 44.5425 42.8004 44.5425 42.8004 44.5425H42.9004V44.7425C42.8004 44.7425 42.8004 44.7425 42.7004 44.7425H42.6004C42.6004 44.7425 42.5004 44.7425 42.5004 44.6425V44.5425C42.5004 44.5425 42.5004 44.4425 42.5004 44.3425V43.9425H42.4004V43.7425H42.5004V43.5425L42.7004 43.4425V43.7425" fill="#231F20"/>
<path id="Vector_118" d="M43.4002 43.4425V43.9425C43.5002 43.8425 43.6002 43.8425 43.7002 43.8425C43.8002 43.8425 43.8002 43.8425 43.8002 43.8425C43.8002 43.8425 43.9002 43.8425 43.9002 43.9425C43.9002 44.0425 43.9002 44.0425 43.9002 44.0425C43.9002 44.0425 43.9002 44.1425 43.9002 44.2425V44.7425H43.7002V44.2425C43.7002 44.1425 43.7002 44.0425 43.7002 44.0425C43.7002 44.0425 43.7002 44.0425 43.7002 43.9425C43.7002 43.9425 43.7002 43.9425 43.6002 43.9425H43.5002C43.5002 43.9425 43.4002 43.9425 43.4002 44.0425C43.4002 44.0425 43.4002 44.1425 43.4002 44.2425V44.6425H43.2002V43.4425" fill="#231F20"/>
<path id="Vector_119" d="M45.2002 44.2425H45.1002C45.0002 44.2425 45.0002 44.2425 45.0002 44.2425V44.3425V44.4425H45.1002H45.2002C45.2002 44.4425 45.2002 44.3425 45.3002 44.3425C45.2002 44.4425 45.2002 44.3425 45.2002 44.2425ZM44.9002 44.1425H44.7002C44.7002 44.0425 44.8002 43.9425 44.8002 43.9425C44.9002 43.9425 44.9002 43.8425 45.1002 43.8425C45.2002 43.8425 45.3002 43.8425 45.3002 43.8425C45.4002 43.8425 45.4002 43.9425 45.4002 43.9425C45.4002 43.9425 45.4002 44.0425 45.4002 44.1425V44.4425C45.4002 44.5425 45.4002 44.5425 45.4002 44.6425V44.7425H45.2002C45.2002 44.7425 45.2002 44.7425 45.2002 44.6425L45.1002 44.7425H45.0002C44.9002 44.7425 44.8002 44.7425 44.8002 44.6425C44.7002 44.6425 44.7002 44.5425 44.7002 44.4425C44.7002 44.3425 44.7002 44.3425 44.7002 44.3425L44.8002 44.2425C44.8002 44.2425 44.9002 44.2425 44.9002 44.1425C45.1002 44.2425 45.2002 44.1425 45.2002 44.1425V44.0425H45.1002C45.0002 43.9425 44.9002 43.9425 44.9002 44.1425C44.9002 44.0425 44.9002 44.0425 44.9002 44.1425Z" fill="#231F20"/>
<path id="Vector_120" d="M46.5006 44.5425H46.3006V44.0425C46.3006 43.9425 46.3006 43.8425 46.3006 43.8425C46.3006 43.8425 46.3006 43.8425 46.2006 43.7425H46.1006H46.0006C46.0006 43.7425 46.0006 43.8425 45.9006 43.8425C45.9006 43.8425 45.9006 43.9425 45.9006 44.0425V44.4425H45.7006L45.6006 43.5425H45.8006V43.6425C45.9006 43.5425 46.0006 43.4425 46.1006 43.4425C46.2006 43.4425 46.2006 43.4425 46.2006 43.4425C46.2006 43.4425 46.3006 43.4425 46.3006 43.5425C46.3006 43.5425 46.3006 43.6425 46.4006 43.6425C46.4006 43.6425 46.4006 43.7425 46.4006 43.8425" fill="#231F20"/>
<path id="Vector_121" d="M46.9002 44.0425C46.9002 44.1425 46.9002 44.2425 47.0002 44.2425C47.0002 44.3425 47.1002 44.3425 47.2002 44.3425C47.3002 44.3425 47.3002 44.3425 47.3002 44.2425C47.3002 44.1425 47.3002 44.1425 47.3002 44.0425C47.3002 43.9425 47.3002 43.8425 47.2002 43.8425C47.2002 43.8425 47.1002 43.7425 47.0002 43.8425C46.9002 43.8425 46.9002 43.8425 46.9002 43.9425C46.9002 43.9425 46.9002 43.9425 46.9002 44.0425ZM47.6002 44.4425H47.4002V44.3425C47.4002 44.4425 47.3002 44.4425 47.3002 44.4425L47.2002 44.5425C47.1002 44.5425 47.0002 44.5425 46.9002 44.4425C46.8002 44.3425 46.8002 44.2425 46.7002 44.1425C46.7002 44.0425 46.7002 43.8425 46.8002 43.7425C46.9002 43.6425 46.9002 43.6425 47.0002 43.5425C47.1002 43.5425 47.2002 43.5425 47.3002 43.6425L47.2002 43.2425H47.4002" fill="#231F20"/>
<path id="Vector_122" d="M48.3 43.2425L48.4 43.5425H48.5C48.6 43.5425 48.7 43.5425 48.7 43.4425C48.7 43.4425 48.7 43.4425 48.8 43.3425V43.2425C48.8 43.2425 48.8 43.1425 48.7 43.1425H48.6C48.6 43.1425 48.5 43.1425 48.4 43.1425L48.3 43.2425ZM48.3 44.2425L48 43.0425L48.4 42.9425C48.5 42.9425 48.6 42.8425 48.7 42.8425C48.8 42.8425 48.8 42.8425 48.9 42.9425C49 42.9425 49 43.0425 49 43.1425C49 43.2425 49 43.2425 49 43.3425C49 43.4425 49 43.4425 48.9 43.4425L48.8 43.5425C48.7 43.5425 48.7 43.6425 48.6 43.6425H48.4L48.5 44.0425" fill="#231F20"/>
<path id="Vector_123" d="M49.5008 43.5425C49.5008 43.6425 49.6008 43.6425 49.6008 43.7425C49.7008 43.7425 49.7008 43.7425 49.8008 43.7425C49.9008 43.7425 49.9008 43.6425 49.9008 43.6425C49.9008 43.5425 49.9008 43.5425 49.9008 43.4425C49.9008 43.3425 49.8008 43.3425 49.8008 43.2425C49.7008 43.2425 49.7008 43.2425 49.6008 43.2425C49.5008 43.2425 49.5008 43.3425 49.5008 43.3425C49.5008 43.3425 49.5008 43.4425 49.5008 43.5425ZM49.3008 43.5425C49.3008 43.4425 49.3008 43.3425 49.3008 43.3425C49.3008 43.2425 49.3008 43.1425 49.4008 43.1425C49.5008 43.0425 49.5008 43.0425 49.6008 43.0425C49.7008 43.0425 49.8008 43.0425 50.0008 43.0425C50.1008 43.1425 50.2008 43.1425 50.2008 43.3425C50.2008 43.4425 50.2008 43.5425 50.2008 43.7425C50.1008 43.8425 50.1008 43.9425 49.9008 43.9425C49.8008 43.9425 49.7008 43.9425 49.7008 43.9425C49.6008 43.9425 49.5008 43.9425 49.5008 43.8425C49.4008 43.7425 49.3008 43.6425 49.3008 43.5425Z" fill="#231F20"/>
<path id="Vector_124" d="M50.6002 43.1425C50.6002 43.2425 50.7002 43.3425 50.7002 43.3425C50.8002 43.3425 50.8002 43.3425 50.9002 43.3425C51.0002 43.3425 51.0002 43.2425 51.0002 43.2425C51.0002 43.1425 51.0002 43.1424 51.0002 43.0424C51.0002 42.9424 50.9002 42.9425 50.9002 42.8425C50.8002 42.8425 50.8002 42.8425 50.7002 42.8425C50.6002 42.8425 50.6002 42.9425 50.6002 42.9425C50.5002 42.9425 50.5002 43.0425 50.6002 43.1425ZM50.2002 42.8425L50.4002 42.7425V42.8425C50.4002 42.7425 50.4002 42.7425 50.5002 42.7425L50.6002 42.6425C50.7002 42.6425 50.8002 42.6425 50.9002 42.6425C51.0002 42.6425 51.1002 42.7425 51.1002 42.9425C51.2002 43.0425 51.2002 43.2425 51.1002 43.3425C51.1002 43.4425 51.0002 43.5424 50.9002 43.5424H50.8002C50.8002 43.5424 50.7002 43.5424 50.6002 43.5424L50.8002 43.9425L50.6002 44.0424" fill="#231F20"/>
<path id="Vector_125" d="M52.1002 43.0424L52.0002 42.9425C52.0002 43.0425 52.0002 43.0425 51.9002 43.1425L51.8002 43.2425C51.8002 43.2425 51.7002 43.2425 51.6002 43.2425C51.5002 43.2425 51.5002 43.2425 51.5002 43.1425C51.5002 43.1425 51.4002 43.0425 51.4002 42.9425L51.2002 42.4425L51.4002 42.3425L51.6002 42.7425C51.7002 42.8425 51.7002 42.9425 51.7002 42.9425C51.7002 42.9425 51.7002 42.9425 51.8002 42.9425H51.9002C51.9002 42.9425 52.0002 42.9425 52.0002 42.8425V42.7425C52.0002 42.7425 52.0002 42.6424 51.9002 42.5424L51.7002 42.2425L51.9002 42.1425L52.3002 42.9425" fill="#231F20"/>
<path id="Vector_126" d="M52.1008 41.5874L51.9219 41.6768L52.4585 42.7501L52.6374 42.6607L52.1008 41.5874Z" fill="#231F20"/>
<path id="Vector_127" d="M53.2006 41.9425L53.1006 42.0425C53.0006 42.0425 53.0006 42.1425 53.0006 42.1425V42.2425C53.0006 42.2425 53.0006 42.2425 53.1006 42.3425H53.2006L53.3006 42.2425V42.1425C53.3006 42.0425 53.3006 42.0425 53.2006 41.9425ZM52.8006 41.9425L52.6006 42.0425C52.6006 41.9425 52.6006 41.8425 52.6006 41.8425C52.6006 41.7425 52.7006 41.7425 52.8006 41.6425C52.9006 41.5425 53.0006 41.5425 53.0006 41.5425C53.1006 41.5425 53.1006 41.5425 53.1006 41.5425C53.1006 41.5425 53.2006 41.6425 53.2006 41.7425L53.3006 41.9425C53.3006 42.0425 53.4006 42.0425 53.4006 42.0425L53.5006 42.1425L53.3006 42.2425C53.3006 42.2425 53.3006 42.2425 53.2006 42.1425C53.2006 42.2425 53.2006 42.2425 53.1006 42.2425L53.0006 42.3425C52.9006 42.3425 52.8006 42.4425 52.8006 42.3425C52.7006 42.3425 52.7006 42.2425 52.6006 42.2425V42.1425V42.0425L52.7006 41.9425C52.8006 41.8425 52.8006 41.8425 52.9006 41.7425C52.9006 41.7425 52.9006 41.6425 52.8006 41.6425H52.7006C52.7006 41.6425 52.6006 41.6425 52.6006 41.7425C52.8006 41.8425 52.8006 41.9425 52.8006 41.9425Z" fill="#231F20"/>
<path id="Vector_128" d="M53.7008 41.1425L53.8008 41.3425L53.7008 41.4425L53.9008 41.7425C53.9008 41.8425 54.0008 41.8425 54.0008 41.8425C54.0008 41.8425 54.0008 41.8425 54.1008 41.7425L54.2008 41.8425L54.1008 41.9425H54.0008H53.9008C53.9008 41.9425 53.8008 41.9425 53.8008 41.8425C53.8008 41.8425 53.8008 41.7425 53.7008 41.7425L53.5008 41.4425L53.4008 41.5425L53.3008 41.3425L53.4008 41.2425L53.3008 41.0425L53.4008 40.8425L53.6008 41.1425" fill="#231F20"/>
<path id="Vector_129" d="M54.3002 41.7425L53.8002 41.0424L54.0002 40.9425L54.5002 41.6425L54.3002 41.7425ZM53.8002 40.9425L53.7002 40.7425L53.9002 40.6425L54.0002 40.8425" fill="#231F20"/>
<path id="Vector_130" d="M54.7004 41.0425C54.8004 41.1425 54.8004 41.1425 54.9004 41.1425C55.0004 41.1425 55.0004 41.1425 55.1004 41.1425L55.2004 41.0425C55.2004 40.9425 55.2004 40.9425 55.1004 40.8425C55.1004 40.7425 55.0004 40.7425 54.9004 40.7425C54.8004 40.7425 54.8004 40.7425 54.7004 40.7425C54.6004 40.7425 54.6004 40.8425 54.6004 40.8425C54.6004 40.8425 54.6004 40.9425 54.7004 41.0425ZM54.5004 41.1425C54.5004 41.0425 54.4004 41.0425 54.4004 40.9425C54.4004 40.8425 54.4004 40.7425 54.4004 40.7425C54.4004 40.6425 54.5004 40.6425 54.6004 40.5425C54.7004 40.4425 54.8004 40.4425 54.9004 40.4425C55.0004 40.4425 55.1004 40.5425 55.2004 40.6425C55.3004 40.7425 55.3004 40.8425 55.3004 40.9425C55.3004 41.0425 55.2004 41.1425 55.1004 41.2425C55.0004 41.2425 55.0004 41.3425 54.9004 41.3425C54.8004 41.3425 54.7004 41.3425 54.7004 41.3425C54.6004 41.3425 54.5004 41.2425 54.5004 41.1425Z" fill="#231F20"/>
<path id="Vector_131" d="M56.3004 40.3425L56.1004 40.4425L55.8004 40.0424C55.7004 39.9424 55.7004 39.9425 55.7004 39.9425H55.6004H55.5004L55.4004 40.0424V40.1425C55.4004 40.1425 55.5004 40.2425 55.5004 40.3425L55.7004 40.6425L55.5004 40.7425L54.9004 40.0424L55.1004 39.9425L55.2004 40.0424C55.2004 39.9424 55.2004 39.8425 55.3004 39.7425L55.4004 39.6425H55.5004H55.6004L55.7004 39.7425" fill="#231F20"/>
</g>
</svg>
