<svg width="89" height="58" viewBox="0 0 89 58" fill="none" xmlns="http://www.w3.org/2000/svg">
<g id="Client Logo">
<path id="Vector" d="M88.4477 0.254883H0.847656V57.2549H88.4477V0.254883Z" fill="white"/>
<path id="Vector_2" d="M71.2482 2.4549H17.9482V54.9549H71.2482V2.4549Z" fill="white"/>
<path id="Vector_3" d="M52.8478 26.7549C52.5478 26.1549 52.2479 26.1549 52.0479 26.2549H51.9479V26.1549C52.0479 26.0549 51.9479 25.9549 51.9479 25.8549C51.7479 25.5549 50.9478 25.6549 50.6478 25.6549C47.9478 25.9549 45.6478 26.0549 43.8478 26.0549C40.5478 26.0549 38.7479 25.7549 38.4479 25.6549C38.1479 25.6549 37.3478 25.5549 37.1478 25.8549C37.0478 25.9549 37.0478 26.0549 37.1478 26.1549V26.2549H37.0479C36.9479 26.1549 36.5479 26.1549 36.2479 26.7549C36.2479 26.7549 36.2479 26.7549 36.2479 26.8549C36.2479 26.8549 36.1479 26.9549 36.0479 26.9549H36.1478C36.2478 26.9549 36.2479 27.0549 36.2479 27.0549C36.2479 27.1549 36.2479 27.4549 36.7479 27.8549C36.8479 27.8549 36.8478 27.9549 36.8478 28.0549C36.7478 28.1549 36.7478 28.2549 36.8478 28.4549C36.9478 28.5549 37.0479 28.6549 37.2479 28.7549C37.3479 28.7549 37.3479 28.7549 37.4479 28.7549C38.2479 28.9549 39.7479 29.4549 44.7479 29.4549C49.7479 29.4549 51.2479 29.0549 52.0479 28.7549C52.1479 28.7549 52.1479 28.7549 52.2479 28.7549C52.4479 28.7549 52.5478 28.6549 52.6478 28.4549C52.6478 28.3549 52.6478 28.2549 52.6478 28.0549C52.6478 27.9549 52.6478 27.9549 52.6478 27.8549C53.1478 27.5549 53.1478 27.1549 53.1478 27.0549C53.1478 26.9549 53.1479 26.9549 53.2479 26.9549H53.3478C53.0478 26.8549 52.9478 26.8549 52.8478 26.7549Z" fill="white"/>
<path id="Vector_4" d="M53.3482 26.7549C53.2482 26.7549 53.1482 26.7549 53.0482 26.6549C52.7482 26.0549 52.3482 25.9549 52.1482 25.9549C52.1482 25.8549 52.1482 25.6549 52.0482 25.5549C51.6482 25.1549 50.6482 25.2549 50.5482 25.2549C42.4482 26.0549 38.4482 25.2549 38.3482 25.2549C38.1482 25.2549 37.1482 25.1549 36.8482 25.5549C36.7482 25.6549 36.7482 25.7549 36.7482 25.9549C36.5482 25.9549 36.1482 25.9549 35.8482 26.6549C35.7482 26.7549 35.6482 26.7549 35.5482 26.7549C35.4482 26.7549 35.4482 26.8549 35.4482 26.9549C35.4482 26.9549 35.4482 27.0549 35.5482 27.0549L35.7482 27.1549C35.7482 27.5549 36.0482 27.8549 36.3482 28.0549C36.2482 28.2549 36.3482 28.3549 36.3482 28.5549C36.4482 28.7549 36.6482 28.8549 36.8482 28.9549C36.9482 28.9549 36.9482 28.9549 37.0482 28.9549C37.8482 29.1549 39.4482 29.6549 44.4482 29.6549C49.4482 29.6549 51.0482 29.2549 51.8482 28.9549C51.9482 28.9549 51.9482 28.9549 52.0482 28.9549C52.2482 28.9549 52.4482 28.7549 52.5482 28.5549C52.6482 28.3549 52.6482 28.2549 52.5482 28.0549C52.8482 27.8549 53.0482 27.5549 53.1482 27.1549L53.3482 27.0549C53.4482 26.9549 53.4482 26.8549 53.3482 26.7549ZM53.0482 26.8549C52.9482 26.8549 52.9482 26.9549 52.9482 26.9549C52.9482 27.0549 52.9482 27.3549 52.4482 27.7549C52.3482 27.7549 52.3482 27.8549 52.3482 27.9549C52.4482 28.0549 52.4482 28.1549 52.3482 28.3549C52.2482 28.4549 52.1482 28.5549 51.9482 28.6549C51.8482 28.6549 51.8482 28.6549 51.7482 28.6549C50.9482 28.8549 49.4482 29.3549 44.4482 29.3549C39.4482 29.3549 37.9482 28.9549 37.1482 28.6549C37.0482 28.6549 37.0482 28.6549 36.9482 28.6549C36.7482 28.6549 36.6482 28.5549 36.5482 28.3549C36.5482 28.2549 36.5482 28.1549 36.5482 27.9549C36.5482 27.8549 36.5482 27.8549 36.4482 27.7549C35.9482 27.4549 35.9482 27.0549 35.9482 26.9549C35.9482 26.8549 35.9482 26.8549 35.8482 26.8549H35.7482C35.8482 26.8549 35.8482 26.8549 35.9482 26.7549C35.9482 26.7549 35.9482 26.7549 35.9482 26.6549C36.2482 26.0549 36.5482 26.0549 36.7482 26.1549H36.8482C36.8482 26.1549 36.9482 26.0549 36.8482 26.0549C36.7482 25.9549 36.8482 25.8549 36.8482 25.7549C37.0482 25.4549 37.8482 25.5549 38.1482 25.5549C38.4482 25.6549 40.2482 25.9549 43.5482 25.9549C45.3482 25.9549 47.6482 25.8549 50.3482 25.5549C50.6482 25.5549 51.4482 25.4549 51.6482 25.7549C51.7482 25.8549 51.7482 25.9549 51.6482 26.0549V26.1549H51.7482C51.8482 26.0549 52.2482 26.0549 52.5482 26.6549C52.5482 26.6549 52.5482 26.6549 52.5482 26.7549C52.9482 26.8549 53.0482 26.8549 53.0482 26.8549Z" fill="#C5923A"/>
<path id="Vector_5" d="M44.248 6.35492V7.75493H43.648L43.4481 8.05493C43.4481 8.05493 42.148 9.25492 40.048 8.35492C39.748 8.25492 39.348 8.05492 39.048 7.85492C39.048 7.85492 37.2481 6.75492 35.9481 7.15492C35.4481 7.35492 35.148 7.85492 35.048 8.35492C35.048 8.35492 34.9481 8.95492 34.9481 9.65492L34.248 24.8549V25.3549C34.248 25.3549 34.248 25.5549 34.548 25.2549L39.648 20.7549L38.648 24.5549L38.348 25.4549L43.748 26.0549H45.048L50.4481 25.4549L50.148 24.5549L49.148 20.7549L54.248 25.2549C54.548 25.5549 54.548 25.3549 54.548 25.3549V24.8549L53.848 9.65492C53.848 8.95492 53.748 8.35492 53.748 8.35492C53.648 7.85492 53.348 7.35492 52.848 7.15492C51.548 6.75492 49.748 7.85492 49.748 7.85492C49.448 8.05492 49.148 8.25492 48.748 8.35492C46.648 9.15492 45.348 8.05493 45.348 8.05493L45.148 7.75493H44.548V6.35492" fill="#C5923A"/>
<path id="Vector_6" d="M43.648 19.3549C43.648 19.3549 43.448 19.1549 43.148 18.8549L42.748 19.3549L43.248 20.9549L43.648 19.3549Z" fill="white"/>
<path id="Vector_7" d="M41.9487 18.3549L42.3486 17.9549C42.1486 17.7549 42.0486 17.5549 41.8486 17.2549L41.9487 18.3549Z" fill="white"/>
<path id="Vector_8" d="M41.9482 18.5549L42.0482 20.1549L43.0482 18.9549C42.8482 18.7549 42.6482 18.4549 42.3482 18.1549L41.9482 18.5549Z" fill="white"/>
<path id="Vector_9" d="M41.7479 18.4549L41.6478 17.0549C41.4478 16.8549 41.3479 16.5549 41.2479 16.2549L40.5479 18.7549L40.8478 19.4549L41.7479 18.4549Z" fill="white"/>
<path id="Vector_10" d="M42.6486 23.8549L43.2487 21.3549L42.3486 22.5549L42.6486 23.8549Z" fill="white"/>
<path id="Vector_11" d="M40.1484 23.5549L41.0485 22.2549L41.4485 23.6549L42.2485 22.5549L41.8484 20.9549L41.0485 21.9549L40.7485 20.6549L39.6484 21.6549L40.1484 23.5549Z" fill="white"/>
<path id="Vector_12" d="M39.6484 21.4549L40.7485 20.3549L41.0485 21.6549L41.9485 20.5549L42.3484 22.3549L43.2485 21.1549L42.6484 19.5549L41.9485 20.4549L41.7485 18.6549L40.6484 19.6549L40.4485 18.9549L39.6484 21.4549Z" fill="white"/>
<path id="Vector_13" d="M45.248 19.3549L45.548 20.9549L46.048 19.3549L45.648 18.8549C45.448 19.2549 45.248 19.3549 45.248 19.3549Z" fill="white"/>
<path id="Vector_14" d="M47.0485 18.3549L47.1484 17.3549C46.9484 17.5549 46.8484 17.8549 46.6484 18.0549L47.0485 18.3549Z" fill="white"/>
<path id="Vector_15" d="M45.8486 18.8549L46.8486 20.0549L46.9487 18.4549L46.4487 18.0549C46.2487 18.3549 46.0486 18.6549 45.8486 18.8549Z" fill="white"/>
<path id="Vector_16" d="M47.748 16.2549C47.648 16.5549 47.448 16.7549 47.348 17.0549L47.248 18.4549L48.248 19.3549L48.548 18.6549L47.748 16.2549Z" fill="white"/>
<path id="Vector_17" d="M46.2485 23.8549L46.5485 22.5549L45.6484 21.3549L46.2485 23.8549Z" fill="white"/>
<path id="Vector_18" d="M47.0485 20.9549L46.6484 22.5549L47.4485 23.6549L47.8484 22.2549L48.7485 23.5549L49.2485 21.6549L48.2485 20.6549L47.8484 21.9549L47.0485 20.9549Z" fill="white"/>
<path id="Vector_19" d="M49.348 21.9549L48.848 23.7549L49.648 24.9549L49.548 25.0549L48.748 23.9549L48.4481 25.1549L48.248 25.5549L47.548 24.5549L47.248 25.3549H47.148L47.548 24.1549L48.248 25.2549V25.1549L48.648 23.7549L47.9481 22.6549L47.4481 23.9549L46.648 22.7549L46.348 24.2549L46.548 25.1549V25.4549H46.348V25.2549L46.148 24.6549L45.848 24.9549L45.348 24.5549L44.848 21.0549L44.9481 24.5549L44.4481 25.2549L43.9481 24.5549L44.048 21.0549L43.548 24.5549L43.048 24.9549L42.748 24.6549L42.548 25.2549V25.4549H42.348L42.4481 25.1549L42.648 24.2549L42.248 22.7549L41.4481 23.9549L41.048 22.6549L40.248 23.7549L40.648 25.1549V25.2549L41.348 24.1549L41.848 25.3549H41.648L41.348 24.5549L40.648 25.5549L40.4481 25.1549L40.148 23.9549L39.348 25.0549L39.248 24.9549L40.048 23.7549L39.548 21.9549L38.748 24.6549V25.3549L43.548 25.8549H45.348L50.148 25.3549V24.6549L49.348 21.9549Z" fill="white"/>
<path id="Vector_20" d="M46.9481 20.4549L46.248 19.5549L45.748 21.1549L46.548 22.3549L46.9481 20.5549L47.848 21.6549L48.148 20.3549L49.248 21.4549L48.4481 18.9549L48.248 19.6549L47.148 18.6549L46.9481 20.4549Z" fill="white"/>
<path id="Vector_21" d="M39.8486 20.2549L40.3486 18.6549L40.4487 14.3549C40.3487 13.8549 40.2486 13.3549 40.1486 12.8549L39.8486 20.2549Z" fill="white"/>
<path id="Vector_22" d="M48.5482 18.6549L49.0482 20.2549L48.7482 12.8549C48.6482 13.3549 48.5482 13.8549 48.4482 14.3549L48.5482 18.6549Z" fill="white"/>
<path id="Vector_23" d="M53.7482 8.95489C53.6482 7.75489 53.0482 7.55489 52.9482 7.45489C51.6482 7.15489 50.0482 8.15488 50.0482 8.15488C49.7482 8.35488 49.4482 8.45488 49.1482 8.65488C47.1482 9.45488 45.8482 8.35488 45.8482 8.35488L45.6482 8.05489H43.5482L43.3482 8.35488C43.3482 8.35488 42.0482 9.45488 40.0482 8.65488C39.7482 8.55488 39.4482 8.35488 39.1482 8.15488C39.1482 8.15488 37.5482 7.15489 36.2482 7.45489C36.1482 7.45489 35.4482 7.75489 35.4482 8.95489L36.4482 8.45489L35.8482 24.2549L36.2482 23.9549L36.8482 8.75489L37.8482 9.65488L37.3482 22.9549L37.7482 22.5549L38.3482 10.0549L39.1482 10.6549L38.7482 21.6549L39.2482 21.1549L39.6482 10.7549L40.3482 11.0549C40.3482 10.9549 40.3482 10.9549 40.3482 10.9549C43.6482 11.0549 44.7482 9.75489 44.7482 9.75489C44.7482 9.75489 45.8482 11.0549 49.1482 10.9549V11.0549L49.8482 10.7549L50.2482 21.1549L50.7482 21.6549L50.3482 10.6549L51.1482 10.0549L51.7482 22.5549L52.1482 22.9549L51.6482 9.65488L52.6482 8.75489L53.2482 23.9549L53.6482 24.2549L53.0482 8.45489L53.7482 8.95489Z" fill="white"/>
<path id="Vector_24" d="M48.6483 11.2549C45.5483 11.3549 44.4483 10.1549 44.4483 10.1549C44.4483 10.1549 43.4483 11.4549 40.2483 11.2549C40.2483 11.2549 39.9483 16.5549 44.4483 19.6549C48.9483 16.5549 48.6483 11.2549 48.6483 11.2549Z" fill="white"/>
<path id="Vector_25" d="M48.4479 11.4549C45.4479 11.5549 44.4479 10.3549 44.4479 10.3549C44.4479 10.3549 43.4479 11.5549 40.4479 11.4549C40.4479 11.4549 40.1479 16.4549 44.4479 19.5549C48.7479 16.4549 48.4479 11.4549 48.4479 11.4549Z" fill="#C5923A"/>
<path id="Vector_26" d="M48.2485 11.5549C45.4485 11.6549 44.4485 10.5549 44.4485 10.5549C44.4485 10.5549 43.5484 11.6549 40.6484 11.5549C40.6484 11.5549 40.3485 16.3549 44.4485 19.1549C48.5485 16.3549 48.2485 11.5549 48.2485 11.5549Z" fill="#020100"/>
<path id="Vector_27" d="M40.6484 11.5549C40.6484 13.8549 41.3484 15.9549 42.8484 17.7549V11.3549C42.1484 11.5549 41.4484 11.6549 40.6484 11.5549Z" fill="#D6212A"/>
<path id="Vector_28" d="M44.4487 19.2549C45.0487 18.8549 45.5486 18.3549 46.0486 17.8549V11.4549C44.8486 11.1549 44.4487 10.6549 44.4487 10.6549C44.4487 10.6549 44.0486 11.1549 42.8486 11.4549V17.8549C43.3486 18.3549 43.8487 18.8549 44.4487 19.2549Z" fill="white"/>
<path id="Vector_29" d="M37.5481 24.5549C37.5481 24.5549 36.4481 24.5549 36.7481 25.8549C36.9481 25.6549 37.2481 25.5549 37.5481 25.5549C37.5481 25.5549 38.8481 25.8549 39.9481 26.0549C39.9481 26.1549 40.0481 26.2549 40.1481 26.3549C40.3481 26.4549 40.4481 26.6549 40.4481 26.8549C40.4481 26.6549 40.5481 26.4549 40.7481 26.4549C40.8481 26.4549 40.8481 26.3549 40.9481 26.2549C41.7481 26.3549 42.6481 26.3549 43.4481 26.2549C43.4481 26.3549 43.5481 26.3549 43.6481 26.4549C43.6481 26.4549 44.0481 26.6549 44.0481 26.9549C44.0481 26.9549 44.4481 26.7549 44.4481 26.0549C44.4481 26.0549 44.3481 25.4549 43.9481 25.4549C43.8481 25.3549 43.6481 25.2549 43.5481 25.2549C43.5481 25.2549 43.1481 25.3549 40.7481 25.1549C39.9481 25.0549 39.0481 24.8549 38.2481 24.5549C37.8481 24.3549 37.6481 24.4549 37.5481 24.5549Z" fill="#C5923A"/>
<path id="Vector_30" d="M40.448 26.4549C40.448 26.3549 40.548 26.2549 40.648 26.2549C40.748 26.1549 40.848 25.9549 40.848 25.8549C40.848 25.6549 40.748 25.4549 40.548 25.3549C40.348 25.3549 40.248 25.4549 40.148 25.6549C40.148 25.7549 40.048 25.8549 40.148 25.9549C40.148 26.0549 40.248 26.1549 40.248 26.2549C40.348 26.2549 40.348 26.3549 40.448 26.4549Z" fill="white"/>
<path id="Vector_31" d="M43.8485 25.5549C43.8485 25.5549 43.8485 25.7549 43.6485 25.8549C43.6485 25.8549 43.4485 26.0549 43.6485 26.2549C43.8485 26.3549 43.9485 26.5549 44.0485 26.6549C44.0485 26.6549 44.4485 26.0549 44.1485 25.6549C44.0485 25.6549 43.8485 25.4549 43.8485 25.5549Z" fill="white"/>
<path id="Vector_32" d="M37.448 24.7549C37.448 24.8549 37.448 24.8549 37.448 24.9549C37.448 25.0549 37.448 25.1549 37.448 25.1549C37.448 25.2549 37.448 25.3549 37.348 25.3549C37.148 25.4549 37.048 25.4549 36.848 25.5549C36.848 25.5549 36.748 24.8549 37.248 24.6549C37.248 24.7549 37.448 24.6549 37.448 24.7549Z" fill="white"/>
<path id="Vector_33" d="M43.6482 25.4549C43.5482 25.4549 43.5483 25.3549 43.4483 25.3549C43.4483 25.3549 43.4482 25.2549 43.1482 25.3549C43.1482 25.3549 40.4483 25.4549 38.0483 24.6549C37.9483 24.5549 37.7482 24.6549 37.6482 24.7549C37.5482 24.9549 37.5482 25.1549 37.6482 25.3549C37.7482 25.4549 37.7483 25.4549 37.8483 25.4549C38.5483 25.6549 39.2483 25.8549 39.9483 25.9549C39.9483 25.9549 39.9483 25.3549 40.5483 25.3549C40.5483 25.3549 41.0483 25.3549 40.9483 26.1549C40.9483 26.1549 41.9483 26.2549 43.2483 26.1549C43.3483 26.1549 43.4483 26.0549 43.4483 25.9549C43.5483 25.8549 43.6483 25.7549 43.7483 25.6549C43.6483 25.6549 43.7482 25.5549 43.6482 25.4549ZM38.3483 25.0549C38.2483 24.9549 38.0483 24.9549 37.9483 24.9549H37.8483C37.7483 24.8549 37.8483 24.8549 37.8483 24.8549C38.4483 24.9549 38.6482 25.1549 38.6482 25.1549L38.3483 25.0549ZM39.8483 25.4549C39.7483 25.4549 39.7482 25.4549 39.6482 25.4549C39.4482 25.4549 39.2483 25.3549 39.2483 25.3549C39.1483 25.3549 39.1483 25.3549 39.0483 25.3549C38.9483 25.2549 38.9483 25.2549 38.9483 25.2549C39.1483 25.2549 39.4482 25.2549 39.6482 25.3549C39.9482 25.3549 39.8483 25.4549 39.8483 25.4549ZM41.9483 25.7549H41.0483C41.0483 25.5549 41.5483 25.5549 41.5483 25.5549C41.7483 25.4549 41.8483 25.5549 41.9483 25.7549ZM43.1482 25.7549C42.9482 25.7549 42.7483 25.7549 42.5483 25.8549C42.5483 25.8549 42.3483 25.9549 42.3483 25.7549C42.4483 25.6549 42.5482 25.6549 42.6482 25.6549C42.8482 25.6549 43.0483 25.6549 43.2483 25.6549C43.2483 25.6549 43.3482 25.7549 43.1482 25.7549Z" fill="white"/>
<path id="Vector_34" d="M51.3482 24.5549C51.3482 24.5549 52.4482 24.5549 52.1482 25.8549C51.9482 25.6549 51.6482 25.5549 51.3482 25.5549C51.3482 25.5549 50.0482 25.8549 48.9482 26.0549C48.9482 26.1549 48.8482 26.2549 48.7482 26.3549C48.5482 26.4549 48.4482 26.6549 48.4482 26.8549C48.4482 26.6549 48.3482 26.4549 48.1482 26.4549C48.0482 26.4549 48.0482 26.3549 47.9482 26.2549C47.1482 26.3549 46.2482 26.3549 45.4482 26.2549C45.4482 26.3549 45.3482 26.3549 45.2482 26.4549C45.2482 26.4549 44.8482 26.6549 44.8482 26.9549C44.8482 26.9549 44.4482 26.7549 44.4482 26.0549C44.4482 26.0549 44.4482 25.4549 44.9482 25.4549C45.0482 25.3549 45.2482 25.2549 45.3482 25.2549C45.3482 25.2549 45.7482 25.3549 48.1482 25.1549C48.9482 25.0549 49.8482 24.8549 50.6482 24.5549C51.0482 24.3549 51.2482 24.4549 51.3482 24.5549Z" fill="#C5923A"/>
<path id="Vector_35" d="M48.4479 26.4549C48.4479 26.3549 48.3479 26.2549 48.2479 26.2549C48.1479 26.1549 48.0479 25.9549 48.0479 25.8549C48.0479 25.6549 48.1478 25.4549 48.3478 25.3549C48.5478 25.3549 48.6479 25.4549 48.7479 25.6549C48.7479 25.7549 48.8479 25.8549 48.7479 25.9549C48.7479 26.0549 48.6478 26.1549 48.6478 26.2549C48.6478 26.2549 48.5479 26.3549 48.4479 26.4549Z" fill="white"/>
<path id="Vector_36" d="M45.0483 25.5549C45.0483 25.5549 45.0483 25.7549 45.2483 25.8549C45.2483 25.8549 45.4483 26.0549 45.2483 26.2549C45.0483 26.3549 44.9483 26.5549 44.8483 26.6549C44.8483 26.6549 44.4483 26.0549 44.7483 25.6549C44.8483 25.6549 45.0483 25.4549 45.0483 25.5549Z" fill="white"/>
<path id="Vector_37" d="M51.4482 24.7549C51.4482 24.8549 51.4482 24.8549 51.4482 24.9549C51.4482 25.0549 51.4482 25.1549 51.4482 25.1549C51.4482 25.2549 51.4482 25.3549 51.5482 25.3549C51.7482 25.4549 51.8482 25.4549 52.0482 25.5549C52.0482 25.5549 52.1482 24.8549 51.6482 24.6549C51.6482 24.7549 51.4482 24.6549 51.4482 24.7549Z" fill="white"/>
<path id="Vector_38" d="M45.2486 25.6549C45.3486 25.7549 45.4486 25.8549 45.5486 25.9549C45.5486 26.0549 45.6486 26.0549 45.7486 26.1549C47.0486 26.1549 48.0486 26.1549 48.0486 26.1549C48.0486 25.4549 48.4487 25.3549 48.4487 25.3549C48.9487 25.3549 49.0486 25.9549 49.0486 25.9549C49.7486 25.8549 50.4486 25.6549 51.1486 25.4549C51.2486 25.4549 51.2486 25.3549 51.3486 25.3549C51.4486 25.1549 51.4486 24.9549 51.3486 24.7549C51.2486 24.6549 51.0487 24.5549 50.9487 24.6549C48.5487 25.4549 45.8486 25.3549 45.8486 25.3549C45.5486 25.3549 45.5486 25.3549 45.5486 25.3549C45.4486 25.3549 45.4486 25.4549 45.3486 25.4549C45.1486 25.5549 45.2486 25.6549 45.2486 25.6549ZM50.3486 25.0549C50.3486 25.0549 50.4486 24.8549 51.1486 24.7549C51.1486 24.7549 51.2486 24.7549 51.1486 24.8549H51.0486C50.9486 24.8549 50.7486 24.9549 50.6486 24.9549C50.5486 25.0549 50.2486 25.1549 50.3486 25.0549ZM49.2486 25.2549C49.4486 25.1549 49.6487 25.1549 49.9487 25.1549C49.9487 25.1549 49.9486 25.1549 49.8486 25.2549C49.7486 25.2549 49.7486 25.2549 49.6486 25.2549C49.6486 25.2549 49.4486 25.3549 49.2486 25.3549C49.1486 25.3549 49.1486 25.3549 49.0486 25.3549C49.0486 25.5549 48.9486 25.3549 49.2486 25.2549ZM46.9487 25.7549C47.0487 25.6549 47.1486 25.5549 47.3486 25.5549C47.3486 25.5549 47.7486 25.5549 47.8486 25.7549H46.9487ZM45.7486 25.6549C45.9486 25.6549 46.1486 25.6549 46.3486 25.6549C46.4486 25.6549 46.6486 25.6549 46.6486 25.7549C46.6486 25.8549 46.4487 25.8549 46.4487 25.8549C46.2487 25.8549 46.0486 25.7549 45.8486 25.7549C45.5486 25.7549 45.7486 25.6549 45.7486 25.6549Z" fill="white"/>
<path id="Vector_39" d="M43.0482 4.25493C43.0482 4.25493 43.6482 5.25493 42.5482 7.65493C42.2482 8.25493 41.8482 8.85493 41.4482 9.45493C41.9482 9.45493 42.4482 9.35494 42.8482 9.05494L42.7482 9.85492C42.7482 9.85492 43.0482 9.85493 43.9482 9.15493L44.5482 9.75493L45.1482 9.15493C45.5482 9.45493 45.9482 9.65493 46.4482 9.75493C46.4482 9.65493 46.4482 9.45492 46.4482 9.35492C46.8482 9.55492 47.2482 9.65494 47.6482 9.55494C47.6482 9.55494 47.2482 9.35493 46.8482 8.25493C46.6482 7.85493 46.5482 7.35493 46.5482 6.95493C46.5482 6.45493 46.5482 5.95493 46.5482 5.45493C46.5482 5.45493 46.6482 3.75492 45.8482 3.35492C45.3482 3.15492 44.8482 2.95492 44.2482 2.85492C44.2482 2.85492 43.8482 2.75494 43.7482 3.05494C43.3482 2.95494 42.9482 2.95493 42.6482 2.95493C42.6482 2.95493 41.9482 2.85493 41.8482 3.75493C41.8482 3.75493 41.8482 4.05493 41.9482 4.15493C41.9482 4.15493 42.0482 4.25494 42.1482 4.05494C42.1482 4.05494 42.1482 3.95493 42.4482 3.95493C42.4482 3.65493 42.7482 3.65493 43.0482 4.25493Z" fill="#C5923A"/>
<path id="Vector_40" d="M44.4479 3.3549C44.4479 3.4549 44.3479 3.55492 44.2479 3.55492C44.1479 3.55492 44.0479 3.4549 44.0479 3.3549C44.0479 3.2549 44.1479 3.15491 44.2479 3.15491C44.3479 3.15491 44.4479 3.2549 44.4479 3.3549Z" fill="white"/>
<path id="Vector_41" d="M45.9487 8.75493C45.7487 8.25493 45.5486 7.85492 45.5486 7.35492L45.3486 5.85492H45.5486L45.7487 7.35492C45.7487 7.85492 45.9486 8.35493 46.1486 8.75493C46.2486 8.85493 46.5486 9.05492 47.1486 9.15492C46.7486 8.55492 46.4486 7.85493 46.3486 7.05493C46.2486 6.65493 46.2487 6.25492 46.2487 5.85492C46.2487 5.85492 46.3486 4.55493 46.1486 3.95493C46.1486 3.95493 46.0486 3.45492 45.6486 3.35492C45.5486 3.35492 45.4487 3.35492 45.2487 3.35492C45.0487 3.35492 44.9487 3.45493 44.7487 3.45493C44.6487 3.45493 44.6486 3.55493 44.5486 3.55493V3.65492C44.5486 3.65492 44.5487 3.75493 44.4487 3.75493C44.3487 3.75493 44.2487 3.75492 44.2487 3.65492C44.2487 3.55492 44.1487 3.45493 43.9487 3.45493C43.9487 3.45493 43.8486 3.45493 43.5486 3.25493C43.3486 3.05493 43.0487 2.85492 42.7487 2.85492C42.5487 2.85492 42.3487 2.85493 42.2487 2.95493C42.1487 3.05493 42.0486 3.15493 42.0486 3.25493C42.0486 3.35493 42.0486 3.45493 42.0486 3.55493C42.0486 3.55493 42.0486 3.65493 42.1486 3.55493C42.1486 3.55493 42.3487 3.15492 42.4487 3.15492C42.6487 3.15492 42.7487 3.15492 42.9487 3.15492C42.9487 3.15492 43.0487 3.15493 43.7487 3.75493C43.8487 3.85493 43.9486 4.05492 44.0486 4.15492C44.0486 4.15492 44.1487 4.25493 43.9487 4.25493C43.9487 4.25493 43.4487 4.15493 43.4487 4.25493C43.4487 4.25493 43.7486 5.25493 43.1486 6.75493C43.1486 6.75493 42.9486 7.65493 41.8486 8.95493C42.2486 8.85493 42.6487 8.75493 42.9487 8.55493C42.9487 8.55493 43.1487 8.45493 43.4487 7.55493C43.6487 6.95493 43.7486 6.25493 43.8486 5.55493H44.0486C43.9486 6.25493 43.8486 6.95493 43.6486 7.55493C43.4486 8.25493 43.1486 8.45493 43.0486 8.55493L42.9487 9.15492C43.3487 8.95492 43.6487 8.75493 43.9487 8.45493C44.1487 8.05493 44.2487 7.65493 44.2487 7.25493L44.4487 5.35492H44.5486L44.3486 7.25493C44.3486 7.65493 44.2486 8.05493 44.0486 8.45493L44.5486 8.95493L44.9487 8.45493L44.8486 5.45493H45.0486L45.1486 8.45493C45.4486 8.75493 45.8487 8.95493 46.2487 9.05493C46.1487 9.35493 46.1487 9.25493 45.9487 8.75493C45.9487 8.85493 45.9487 8.85493 45.9487 8.75493Z" fill="white"/>
<path id="Vector_42" d="M39.1478 27.6549C39.2478 27.4549 39.2478 27.2549 39.3478 27.0549V26.9549C39.3478 26.8549 39.3479 26.8549 39.2479 26.8549C39.1479 26.9549 39.1479 26.9549 39.0479 26.9549C38.9479 26.9549 38.9479 27.0549 39.0479 27.0549C39.1479 27.1549 39.1479 27.2549 39.0479 27.2549C39.0479 27.3549 38.9478 27.3549 38.8478 27.3549C38.7478 27.3549 38.6478 27.3549 38.6478 27.2549C38.6478 27.2549 38.5478 27.2549 38.6478 27.1549C38.6478 27.0549 38.6479 26.9549 38.7479 26.8549C38.7479 26.7549 38.7478 26.7549 38.8478 26.6549V26.5549C38.8478 26.5549 38.8479 26.5549 38.7479 26.5549C38.6479 26.6549 38.5479 26.6549 38.5479 26.6549C38.4479 26.6549 38.4479 26.7549 38.5479 26.7549C38.5479 26.7549 38.6479 26.8549 38.5479 26.9549V27.0549C38.5479 27.1549 38.4478 27.1549 38.3478 27.1549C38.2478 27.1549 38.2478 27.1549 38.1478 27.1549V27.0549C38.1478 26.9549 38.1479 26.9549 38.2479 26.8549C38.2479 26.6549 38.3479 26.4549 38.4479 26.2549C38.4479 26.2549 38.4479 26.2549 38.4479 26.1549V26.0549V25.9549C38.4479 25.8549 38.4479 25.8549 38.4479 25.8549C38.3479 25.8549 38.3479 25.9549 38.2479 25.9549C38.1479 25.9549 38.1479 25.9549 38.2479 26.0549C38.2479 26.1549 38.2479 26.1549 38.2479 26.2549C38.2479 26.3549 38.1478 26.4549 38.1478 26.5549L38.0479 26.6549C37.9479 26.6549 37.8479 26.6549 37.7479 26.7549C37.7479 26.7549 37.6478 26.7549 37.6478 26.8549C37.5478 26.9549 37.5479 26.9549 37.5479 27.0549C37.5479 27.1549 37.5479 27.1549 37.5479 27.2549H37.6478H37.7479H37.8478C37.8478 27.2549 37.9479 27.2549 38.0479 27.2549C38.2479 27.3549 38.3479 27.3549 38.5479 27.3549C38.7479 27.4549 38.9478 27.4549 39.1478 27.4549C39.1478 27.7549 39.1478 27.7549 39.1478 27.6549ZM37.7479 27.1549C37.6479 27.0549 37.6479 27.0549 37.7479 27.1549V27.1549Z" fill="#C5923A"/>
<path id="Vector_43" d="M51.5484 27.2549C51.3484 27.0549 51.3483 27.0549 51.3483 27.1549L51.2484 27.2549C51.1484 27.2549 51.0484 27.2549 50.9484 27.1549C50.8484 27.0549 50.8483 26.8549 50.8483 26.6549C50.8483 26.5549 50.8484 26.4549 50.7484 26.3549C50.7484 26.2549 50.6484 26.1549 50.5484 26.1549C50.4484 26.1549 50.2483 26.0549 50.1483 26.1549C50.0483 26.1549 49.9484 26.1549 49.9484 26.2549C49.8484 26.2549 49.8484 26.3549 49.9484 26.3549L50.0484 26.4549C50.1484 26.5549 50.1484 26.5549 50.2484 26.4549C50.3484 26.4549 50.3484 26.3549 50.4484 26.3549C50.5484 26.3549 50.6483 26.4549 50.6483 26.5549C50.6483 26.7549 50.6484 26.8549 50.7484 27.0549C50.7484 27.1549 50.7483 27.2549 50.8483 27.3549C50.8483 27.4549 50.8483 27.4549 50.8483 27.4549C50.7483 27.4549 50.6483 27.4549 50.6483 27.3549C50.5483 27.2549 50.4484 27.2549 50.4484 27.2549C50.3484 27.3549 50.2484 27.3549 50.2484 27.5549C50.2484 27.5549 50.2483 27.6549 50.1483 27.6549C50.0483 27.6549 49.9484 27.6549 49.9484 27.5549C49.8484 27.3549 49.7484 27.2549 49.5484 27.2549C49.4484 27.2549 49.4484 27.2549 49.4484 27.1549C49.4484 27.0549 49.4483 26.9549 49.3483 26.8549C49.3483 26.7549 49.2484 26.7549 49.2484 26.8549L49.1483 26.9549C49.1483 27.0549 49.1483 27.0549 49.1483 27.0549L49.2484 27.1549C49.2484 27.2549 49.2484 27.2549 49.2484 27.2549C49.0484 27.3549 48.9484 27.5549 48.9484 27.7549C48.9484 27.8549 48.9483 27.8549 48.8483 27.8549C48.8483 27.8549 48.7484 27.8549 48.7484 27.7549C48.7484 27.6549 48.7483 27.6549 48.6483 27.5549C48.6483 27.4549 48.5484 27.4549 48.5484 27.4549C48.4484 27.4549 48.3484 27.5549 48.2484 27.6549C48.1484 27.7549 48.0484 27.8549 48.0484 27.9549V28.0549C48.0484 28.1549 48.1483 28.1549 48.1483 28.1549C48.2483 28.1549 48.2483 28.1549 48.3483 28.1549C48.4483 28.1549 48.4484 28.1549 48.4484 28.2549C48.4484 28.2549 48.4483 28.3549 48.3483 28.3549L48.2484 28.4549C48.1484 28.4549 48.1483 28.4549 48.1483 28.5549C48.1483 28.5549 48.1483 28.5549 48.1483 28.6549C48.2483 28.6549 48.2483 28.6549 48.3483 28.6549C48.5483 28.6549 48.6484 28.4549 48.7484 28.2549C48.7484 28.2549 48.7483 28.1549 48.8483 28.1549C49.0483 28.0549 49.1483 28.0549 49.3483 28.0549C49.3483 28.0549 49.4484 28.0549 49.4484 28.1549C49.4484 28.2549 49.5484 28.3549 49.7484 28.3549H49.8483C49.9483 28.2549 50.0484 28.1549 50.0484 27.9549C50.1484 27.9549 50.2484 27.9549 50.2484 27.9549C50.2484 27.9549 50.3483 28.0549 50.3483 27.9549H50.4484C50.6484 27.9549 50.7483 27.8549 50.8483 27.7549C50.8483 27.7549 50.8484 27.7549 50.9484 27.6549C51.0484 27.6549 51.2483 27.5549 51.3483 27.5549C51.5483 27.5549 51.6483 27.4549 51.8483 27.4549C51.5483 27.4549 51.5484 27.4549 51.5484 27.2549C51.6484 27.3549 51.5484 27.3549 51.5484 27.2549ZM48.0484 27.9549C47.9484 27.8549 48.0484 27.7549 48.0484 27.7549C48.0484 27.7549 48.1483 27.7549 48.1483 27.8549C48.1483 27.8549 48.1484 27.9549 48.0484 27.9549ZM48.9484 27.7549C48.8484 27.7549 48.8483 27.7549 48.8483 27.6549C48.8483 27.5549 48.8484 27.5549 48.9484 27.5549C49.0484 27.5549 49.0484 27.6549 48.9484 27.7549ZM49.2484 27.7549C49.2484 27.7549 49.1483 27.6549 49.1483 27.5549C49.1483 27.5549 49.1484 27.4549 49.2484 27.4549C49.3484 27.4549 49.4484 27.5549 49.4484 27.6549C49.4484 27.7549 49.3484 27.7549 49.2484 27.7549ZM49.4484 28.0549C49.3484 28.0549 49.3483 28.0549 49.3483 28.0549C49.3483 27.9549 49.3484 27.9549 49.4484 27.9549C49.5484 27.9549 49.5484 27.9549 49.4484 28.0549ZM50.3483 27.6549C50.3483 27.6549 50.2484 27.7549 50.2484 27.6549L50.1483 27.5549L50.2484 27.4549C50.2484 27.5549 50.2483 27.5549 50.3483 27.6549Z" fill="#C5923A"/>
<path id="Vector_44" d="M45.1482 27.6549C45.0482 27.6549 45.0482 27.6549 44.9482 27.7549C44.7482 27.7549 44.6482 27.9549 44.6482 28.0549C44.6482 28.0549 44.6482 28.1549 44.5482 28.1549C44.4482 28.1549 44.4482 28.1549 44.4482 28.0549C44.4482 27.9549 44.4482 27.9549 44.4482 27.8549C44.4482 27.7549 44.4482 27.7549 44.3482 27.7549C44.0482 27.7549 43.7482 27.7549 43.5482 27.7549H43.4482C43.3482 27.7549 43.2482 27.6549 43.2482 27.5549C43.2482 27.4549 43.2482 27.4549 43.1482 27.4549C43.0482 27.4549 42.9482 27.5549 42.9482 27.5549V27.6549C43.0482 27.7549 43.0482 27.9549 42.9482 28.0549C42.9482 28.0549 42.9482 28.0549 42.9482 28.1549C42.8482 28.1549 42.7482 28.1549 42.7482 28.0549V27.9549C42.7482 27.8549 42.6482 27.7549 42.6482 27.7549C42.6482 27.7549 42.5482 27.6549 42.5482 27.7549C42.4482 27.8549 42.4482 27.8549 42.3482 27.9549V28.0549C42.4482 28.1549 42.4482 28.2549 42.4482 28.2549C42.4482 28.3549 42.4482 28.5549 42.3482 28.5549C42.2482 28.6549 42.1482 28.6549 42.0482 28.6549H41.9482C41.9482 28.6549 41.9482 28.6549 41.9482 28.7549H42.0482C42.2482 28.7549 42.4482 28.7549 42.5482 28.6549C42.6482 28.6549 42.6482 28.5549 42.6482 28.4549C42.6482 28.3549 42.7482 28.3549 42.8482 28.3549C42.9482 28.3549 43.0482 28.3549 43.0482 28.3549C43.2482 28.3549 43.5482 28.3549 43.7482 28.4549C43.8482 28.4549 43.8482 28.4549 43.8482 28.5549C43.8482 28.5549 43.8482 28.5549 43.8482 28.6549C43.8482 28.7549 43.9482 28.8549 44.0482 28.8549C44.1482 28.8549 44.1482 28.8549 44.2482 28.7549C44.3482 28.7549 44.4482 28.6549 44.4482 28.5549C44.4482 28.5549 44.4482 28.4549 44.5482 28.4549H44.6482C44.8482 28.4549 45.0482 28.4549 45.2482 28.4549C45.3482 28.4549 45.3482 28.4549 45.3482 28.3549V28.2549C45.3482 28.1549 45.3482 27.9549 45.2482 27.8549C45.2482 27.6549 45.2482 27.6549 45.1482 27.6549ZM44.2482 28.3549C44.2482 28.4549 44.2482 28.4549 44.2482 28.3549C44.1482 28.4549 44.0482 28.3549 44.0482 28.3549V28.2549V28.1549C43.9482 28.1549 43.9482 28.1549 43.8482 28.1549C43.7482 28.1549 43.5482 28.1549 43.4482 28.1549H43.3482C43.3482 28.1549 43.2482 28.1549 43.2482 28.0549V27.9549C43.2482 27.9549 43.3482 27.9549 43.4482 27.9549C43.6482 27.9549 43.8482 27.9549 44.0482 27.9549C44.1482 27.9549 44.1482 27.9549 44.2482 27.9549C44.3482 27.9549 44.3482 27.9549 44.3482 28.0549V28.1549L44.2482 28.3549ZM45.0482 28.1549H44.9482H44.8482V28.0549H44.9482C45.0482 28.0549 45.0482 28.0549 45.0482 28.1549Z" fill="#C5923A"/>
<path id="Vector_45" d="M41.6482 26.6549C41.5482 26.7549 41.4482 26.7549 41.4482 26.7549C41.4482 26.7549 41.4482 26.7549 41.4482 26.8549C41.5482 26.8549 41.5482 26.9549 41.5482 27.0549V27.1549C41.5482 27.2549 41.5482 27.2549 41.5482 27.3549V27.4549C41.5482 27.6549 41.5482 27.7549 41.4482 27.9549C41.4482 28.0549 41.4482 28.0549 41.4482 28.1549C41.4482 28.1549 41.4482 28.2549 41.3482 28.2549C41.3482 28.2549 41.2482 28.2549 41.2482 28.1549C41.2482 28.0549 41.2482 28.0549 41.2482 27.9549C41.2482 27.8549 41.2482 27.8549 41.1482 27.8549C41.0482 27.8549 41.0482 27.8549 41.0482 27.8549C40.9482 27.8549 40.9482 27.8549 40.9482 27.7549C40.9482 27.6549 40.9482 27.6549 41.0482 27.6549C41.0482 27.6549 41.1482 27.6549 41.2482 27.6549C41.3482 27.6549 41.3482 27.6549 41.3482 27.5549V27.4549C41.3482 27.3549 41.2482 27.3549 41.1482 27.2549L41.0482 27.1549C41.0482 27.0549 41.0482 26.9549 40.9482 26.9549C40.9482 26.8549 40.8482 26.8549 40.7482 26.9549C40.6482 26.9549 40.5482 27.0549 40.5482 27.1549L40.4482 27.2549H40.3482C40.2482 27.2549 40.2482 27.3549 40.2482 27.3549C40.1482 27.4549 40.2482 27.4549 40.3482 27.5549C40.4482 27.5549 40.4482 27.5549 40.5482 27.6549C40.6482 27.6549 40.6482 27.7549 40.5482 27.7549C40.5482 27.8549 40.4482 27.8549 40.3482 27.8549H40.2482C40.1482 27.8549 40.1482 27.7549 40.1482 27.7549C40.1482 27.6549 40.1482 27.5549 40.1482 27.5549C40.1482 27.4549 40.1482 27.4549 40.0482 27.3549C40.0482 27.2549 39.9482 27.2549 39.9482 27.3549C39.9482 27.4549 39.8482 27.4549 39.8482 27.5549V27.6549C39.9482 27.7549 39.9482 27.8549 39.8482 27.9549C39.8482 28.0549 39.7482 28.2549 39.6482 28.2549H39.5482H39.4482C39.4482 28.2549 39.4482 28.3549 39.5482 28.3549H39.6482C39.8482 28.3549 39.9482 28.3549 40.0482 28.1549L40.1482 28.0549C40.2482 28.0549 40.3482 28.0549 40.4482 28.0549C40.5482 28.0549 40.6482 28.1549 40.7482 27.9549C40.7482 27.9549 40.8482 27.8549 40.8482 27.9549C40.8482 27.9549 40.8482 28.0549 40.9482 28.0549C40.9482 28.1549 41.0482 28.1549 41.0482 28.1549H41.1482C41.2482 28.1549 41.2482 28.1549 41.1482 28.2549C41.1482 28.4549 41.2482 28.5549 41.3482 28.5549C41.4482 28.5549 41.6482 28.4549 41.6482 28.3549C41.6482 28.2549 41.6482 28.2549 41.7482 28.1549C41.8482 27.8549 41.8482 27.6549 41.8482 27.3549C41.8482 27.2549 41.8482 27.1549 41.8482 27.0549C41.8482 26.9549 41.8482 26.8549 41.8482 26.7549C41.7482 26.7549 41.7482 26.6549 41.6482 26.6549ZM40.7482 27.4549C40.6482 27.4549 40.5482 27.4549 40.4482 27.3549C40.5482 27.3549 40.5482 27.2549 40.5482 27.2549C40.6482 27.2549 40.6482 27.2549 40.6482 27.2549C40.7482 27.3549 40.7482 27.3549 40.7482 27.4549Z" fill="#C5923A"/>
<path id="Vector_46" d="M46.9481 27.8549C46.9481 27.7549 46.9481 27.6549 46.9481 27.5549V27.4549C46.9481 27.4549 46.848 27.3549 46.848 27.4549C46.748 27.4549 46.748 27.5549 46.648 27.5549C46.548 27.5549 46.548 27.6549 46.648 27.6549L46.748 27.7549C46.748 27.8549 46.748 27.8549 46.748 27.9549C46.748 27.9549 46.748 28.0549 46.648 28.0549C46.548 28.0549 46.5481 28.0549 46.4481 28.0549C46.3481 28.0549 46.348 28.0549 46.348 27.9549V27.8549C46.348 27.6549 46.348 27.5549 46.348 27.3549C46.348 27.1549 46.348 26.9549 46.248 26.7549V26.6549H46.148L46.048 26.7549C45.948 26.8549 45.948 26.8549 46.048 26.8549L46.148 26.9549V27.0549C46.148 27.1549 46.148 27.2549 46.148 27.2549C46.148 27.3549 46.148 27.3549 46.048 27.3549C45.848 27.4549 45.748 27.5549 45.748 27.7549V27.8549C45.748 27.9549 45.748 27.9549 45.848 27.9549C45.948 27.9549 46.048 27.9549 46.148 27.9549C46.448 27.9549 46.6481 27.9549 46.9481 27.8549C47.0481 27.8549 47.048 27.7549 47.048 27.7549C46.948 28.0549 46.9481 27.9549 46.9481 27.8549ZM45.9481 28.1549C45.8481 28.0549 45.9481 28.0549 45.9481 28.0549C45.9481 28.0549 46.0481 28.0549 45.9481 28.1549C46.0481 28.1549 46.0481 28.1549 45.9481 28.1549Z" fill="#C5923A"/>
<path id="Vector_47" d="M41.9479 28.1549C41.9479 28.0549 41.9479 27.9549 41.9479 27.8549C41.9479 27.6549 41.9479 27.3549 42.0479 27.1549C42.0479 27.0549 42.0478 27.0549 42.1478 26.9549C42.2478 26.9549 42.2478 26.8549 42.1478 26.8549C42.0478 26.7549 42.0479 26.7549 41.9479 26.6549C41.9479 26.5549 41.8478 26.6549 41.8478 26.6549C41.8478 26.6549 41.8478 26.6549 41.8478 26.7549C41.8478 26.8549 41.8479 27.0549 41.7479 27.1549C41.7479 27.3549 41.7478 27.5549 41.6478 27.6549C41.6478 27.7549 41.6479 27.8549 41.5479 27.9549V28.0549C41.7479 28.2549 41.8479 28.2549 41.9479 28.1549C41.9479 28.2549 41.9479 28.2549 41.9479 28.1549Z" fill="#C5923A"/>
<path id="Vector_48" d="M47.3482 27.5549C47.2482 27.4549 47.2482 27.4549 47.2482 27.5549C47.2482 27.6549 47.1482 27.7549 47.1482 27.7549V27.8549C47.1482 27.8549 47.2482 27.8549 47.2482 27.9549C47.3482 28.0549 47.3482 28.1549 47.3482 28.3549C47.2482 28.4549 47.2482 28.5549 47.0482 28.6549C47.0482 28.6549 47.0482 28.6549 46.9482 28.6549H47.0482C47.1482 28.6549 47.2482 28.6549 47.3482 28.5549C47.4482 28.5549 47.5482 28.4549 47.5482 28.3549C47.5482 28.1549 47.5482 28.0549 47.5482 27.8549C47.4482 27.7549 47.4482 27.6549 47.3482 27.5549Z" fill="#C5923A"/>
<path id="Vector_49" d="M51.0482 27.6549C50.9482 27.6549 50.9482 27.7549 50.9482 27.7549C50.9482 27.8549 51.0482 27.8549 51.0482 27.8549C51.1482 27.8549 51.1482 27.7549 51.1482 27.7549C51.1482 27.7549 51.1482 27.6549 51.0482 27.6549Z" fill="#C5923A"/>
<path id="Vector_50" d="M45.6478 27.2549C45.7478 27.2549 45.7479 27.1549 45.7479 27.1549C45.7479 27.0549 45.6478 27.0549 45.6478 27.0549C45.5478 27.0549 45.5479 27.1549 45.5479 27.1549C45.5479 27.1549 45.5478 27.2549 45.6478 27.2549Z" fill="#C5923A"/>
<path id="Vector_51" d="M45.7479 27.4549C45.7479 27.3549 45.6478 27.3549 45.6478 27.3549C45.5478 27.3549 45.5479 27.4549 45.5479 27.4549C45.5479 27.5549 45.6478 27.5549 45.6478 27.5549C45.7478 27.5549 45.7479 27.5549 45.7479 27.4549Z" fill="#C5923A"/>
<path id="Vector_52" d="M46.4487 28.4549C46.3487 28.4549 46.3486 28.5549 46.3486 28.5549C46.3486 28.6549 46.4487 28.6549 46.4487 28.6549C46.5487 28.6549 46.5486 28.5549 46.5486 28.5549C46.5486 28.5549 46.5487 28.4549 46.4487 28.4549Z" fill="#C5923A"/>
<path id="Vector_53" d="M46.0482 28.4549C45.9482 28.4549 45.9482 28.5549 45.9482 28.5549C45.9482 28.6549 46.0482 28.6549 46.0482 28.6549C46.1482 28.6549 46.1482 28.5549 46.1482 28.5549C46.2482 28.5549 46.1482 28.4549 46.0482 28.4549Z" fill="#C5923A"/>
<path id="Vector_54" d="M37.6478 26.2549C37.7478 26.2549 37.7478 26.2549 37.8478 26.1549C37.8478 26.0549 37.8479 26.0549 37.7479 25.9549C37.6479 25.9549 37.6479 25.9549 37.5479 26.0549C37.5479 26.1549 37.6478 26.2549 37.6478 26.2549Z" fill="#C5923A"/>
<path id="Vector_55" d="M37.5482 26.6549C37.6482 26.6549 37.6482 26.6549 37.7482 26.5549C37.7482 26.4549 37.7482 26.4549 37.6482 26.3549C37.5482 26.3549 37.5482 26.3549 37.4482 26.4549C37.4482 26.4549 37.5482 26.5549 37.5482 26.6549Z" fill="#C5923A"/>
<path id="Vector_56" d="M37.7479 27.5549C37.6479 27.5549 37.6479 27.5549 37.5479 27.6549C37.5479 27.7549 37.5478 27.7549 37.6478 27.8549C37.7478 27.8549 37.7478 27.8549 37.8478 27.7549C37.8478 27.6549 37.7479 27.5549 37.7479 27.5549Z" fill="#C5923A"/>
<path id="Vector_57" d="M38.0486 27.6549C37.9486 27.6549 37.9486 27.6549 37.8486 27.7549C37.8486 27.8549 37.8487 27.8549 37.9487 27.9549C38.0487 27.9549 38.0486 27.9549 38.1486 27.8549C38.1486 27.7549 38.1486 27.6549 38.0486 27.6549Z" fill="#C5923A"/>
<path id="Vector_58" d="M38.7479 27.8549C38.6479 27.8549 38.6479 27.8549 38.5479 27.9549C38.5479 28.0549 38.5478 28.0549 38.6478 28.1549C38.7478 28.1549 38.7478 28.1549 38.8478 28.0549C38.8478 27.9549 38.7479 27.8549 38.7479 27.8549Z" fill="#C5923A"/>
<path id="Vector_59" d="M19.0486 31.8549L19.4487 32.0549C19.5487 32.0549 19.5486 31.9549 19.5486 31.9549C19.5486 31.8549 19.6486 31.8549 19.6486 31.7549L19.2487 31.5549C19.1487 31.5549 19.1486 31.6549 19.0486 31.7549C18.9486 31.7549 18.9486 31.7549 18.8486 31.6549C18.7486 31.6549 18.7486 31.5549 18.6486 31.5549C18.5486 31.6549 18.4486 31.7549 18.3486 31.8549C18.4486 31.9549 18.5487 32.0549 18.7487 32.0549L19.0486 31.8549Z" fill="black"/>
<path id="Vector_60" d="M31.1478 34.0549L31.0479 34.1549C30.9479 34.1549 30.8479 34.0549 30.7479 33.9549C30.6479 34.0549 30.5479 34.1549 30.5479 34.2549C30.6479 34.3549 30.7478 34.3549 30.8478 34.4549C30.9478 34.3549 30.9479 34.2549 31.0479 34.2549L31.3478 34.4549C31.4478 34.3549 31.5478 34.2549 31.6478 34.1549L31.3478 33.9549C31.2478 33.9549 31.2478 34.0549 31.1478 34.0549Z" fill="black"/>
<path id="Vector_61" d="M32.8478 33.0549C32.8478 32.9549 32.8479 32.7549 32.7479 32.6549C32.7479 32.5549 32.6479 32.4549 32.5479 32.3549L32.2479 32.7549C32.3479 32.8549 32.4479 33.0549 32.5479 33.2549H31.5479C31.4479 33.2549 31.3478 33.1549 31.3478 33.0549V32.7549V32.5549C31.2478 32.6549 31.1478 32.7549 31.1478 32.7549C31.0478 32.8549 31.0479 32.9549 31.0479 33.0549C31.0479 33.1549 31.0479 33.1549 31.0479 33.2549H20.2479C20.1479 33.2549 20.0479 33.2549 20.0479 33.1549C20.0479 33.0549 19.9479 32.7549 19.9479 32.4549C19.8479 32.1549 19.8478 31.9549 19.8478 31.7549L19.5479 32.2549C19.5479 32.3549 19.5479 32.3549 19.5479 32.3549L19.0479 32.6549C18.9479 32.7549 18.8479 32.8549 18.7479 32.9549C18.6479 33.1549 18.6479 33.2549 18.5479 33.4549C18.6479 33.4549 18.8479 33.4549 18.9479 33.5549C19.0479 33.5549 19.2478 33.6549 19.3478 33.6549C19.4478 33.6549 19.4479 33.5549 19.5479 33.4549C19.5479 33.3549 19.6478 33.3549 19.6478 33.2549C19.6478 33.3549 19.7479 33.4549 19.7479 33.5549C19.7479 33.6549 19.8479 33.7549 19.9479 33.7549H30.8478L31.0479 33.4549C31.0479 33.6549 31.1478 33.7549 31.3478 33.7549H32.6478C32.8478 33.5549 32.8478 33.3549 32.8478 33.0549ZM19.2479 33.0549C19.3479 32.9549 19.3479 32.9549 19.4479 32.9549L19.5479 32.8549L19.6478 32.7549L19.7479 33.1549L19.2479 33.0549Z" fill="black"/>
<path id="Vector_62" d="M32.3486 34.1549C32.2486 34.0549 32.2486 34.0549 32.1486 34.0549C32.1486 34.0549 32.0487 34.0549 31.9487 34.1549C31.8487 34.2549 31.8486 34.3549 31.8486 34.3549C31.8486 34.3549 31.8487 34.4549 31.9487 34.4549C32.0487 34.5549 32.0486 34.5549 32.1486 34.5549C32.2486 34.5549 32.2486 34.4549 32.3486 34.4549C32.4486 34.3549 32.5486 34.3549 32.5486 34.3549C32.4486 34.2549 32.4486 34.1549 32.3486 34.1549Z" fill="black"/>
<path id="Vector_63" d="M36.5482 31.6549C36.4482 31.6549 36.4482 31.7549 36.3482 31.8549C36.2482 31.9549 36.2482 32.0549 36.2482 32.1549L36.3482 32.2549C36.3482 32.4549 36.4482 32.5549 36.4482 32.7549C36.4482 32.9549 36.5482 33.0549 36.5482 33.2549C36.5482 33.2549 36.5482 33.2549 36.5482 33.3549H35.8482C35.8482 33.2549 35.9482 33.2549 35.9482 33.1549C35.9482 33.1549 36.0482 33.0549 36.0482 32.9549C36.0482 32.8549 35.9482 32.6549 35.8482 32.6549C35.7482 32.5549 35.6482 32.5549 35.4482 32.5549C35.2482 32.5549 35.1482 32.5549 35.0482 32.7549C34.9482 32.8549 34.8482 33.0549 34.8482 33.1549C34.9482 33.1549 34.9482 33.1549 35.0482 33.1549C35.1482 33.1549 35.3482 33.2549 35.3482 33.3549H34.8482H34.5482C34.4482 33.3549 34.2482 33.2549 34.1482 33.1549C34.1482 33.1549 34.0482 33.0549 33.9482 32.7549C33.8482 32.9549 33.7482 33.0549 33.6482 33.1549C33.8482 33.3549 33.9482 33.4549 33.9482 33.5549C33.9482 33.6549 33.9482 33.6549 33.8482 33.7549C33.7482 33.8549 33.7482 33.8549 33.6482 33.9549C33.5482 34.0549 33.4482 34.1549 33.2482 34.1549C33.1482 34.1549 33.0482 34.2549 32.9482 34.2549C32.8482 34.2549 32.7482 34.2549 32.6482 34.1549C32.5482 34.1549 32.5482 34.0549 32.4482 34.0549C32.4482 34.1549 32.6482 34.2549 32.8482 34.3549C33.0482 34.4549 33.1482 34.4549 33.3482 34.5549C33.5482 34.5549 33.7482 34.4549 33.8482 34.2549C33.9482 34.1549 34.0482 33.9549 34.1482 33.7549C34.2482 33.7549 34.2482 33.8549 34.3482 33.8549H35.1482C35.2482 33.7549 35.2482 33.7549 35.2482 33.6549L35.3482 33.8549H36.4482C36.5482 33.8549 36.5482 33.7549 36.5482 33.5549C36.5482 33.4549 36.5482 33.3549 36.5482 33.2549V32.6549C36.6482 32.5549 36.6482 32.5549 36.7482 32.4549C36.8482 32.3549 36.8482 32.3549 36.9482 32.2549C36.7482 32.1549 36.6482 32.0549 36.6482 32.0549C36.6482 31.8549 36.5482 31.7549 36.5482 31.6549Z" fill="black"/>
<path id="Vector_64" d="M37.7487 32.4549C37.7487 32.2549 37.7486 31.9549 37.6486 31.7549C37.5486 31.8549 37.5487 31.9549 37.4487 32.0549C37.3487 32.1549 37.3486 32.2549 37.3486 32.3549L37.5486 33.8549C37.7486 33.6549 37.8486 33.3549 37.8486 33.0549C37.7486 32.8549 37.7487 32.6549 37.7487 32.4549Z" fill="black"/>
<path id="Vector_65" d="M51.0482 32.6549C50.9482 32.5549 50.9482 32.5549 50.9482 32.5549C50.7482 32.5549 50.5482 32.6549 50.4482 32.7549C50.3482 32.8549 50.2482 33.0549 50.1482 33.2549V33.3549H49.8482C49.8482 33.2549 49.8482 33.2549 49.8482 33.1549C49.8482 33.0549 49.7482 32.9549 49.6482 32.8549C49.5482 32.7549 49.4482 32.6549 49.3482 32.6549C49.2482 32.6549 49.0482 32.6549 48.9482 32.7549C48.8482 32.8549 48.6482 32.8549 48.5482 32.9549L48.1482 33.1549C48.0482 33.2549 47.9482 33.2549 47.8482 33.2549C47.7482 33.2549 47.6482 33.2549 47.6482 33.1549V33.0549C47.6482 32.9549 47.6482 32.9549 47.6482 32.8549V32.7549C47.5482 32.8549 47.4482 32.9549 47.3482 33.0549C47.3482 33.2549 47.3482 33.2549 47.2482 33.2549H46.9482H39.6482H39.5482C39.4482 33.2549 39.2482 33.1549 39.1482 33.0549C39.1482 33.0549 39.0482 32.9549 38.9482 32.6549C38.8482 32.8549 38.7482 32.9549 38.6482 33.0549C38.8482 33.2549 38.9482 33.3549 38.9482 33.4549C38.9482 33.5549 38.9482 33.5549 38.8482 33.6549C38.7482 33.7549 38.7482 33.7549 38.6482 33.8549C38.5482 33.9549 38.4482 34.0549 38.2482 34.0549C38.1482 34.0549 38.0482 34.1549 37.9482 34.1549C37.8482 34.1549 37.7482 34.1549 37.6482 34.0549C37.5482 34.0549 37.5482 33.9549 37.4482 33.9549C37.4482 34.0549 37.6482 34.1549 37.8482 34.2549C38.0482 34.3549 38.1482 34.3549 38.3482 34.4549C38.5482 34.4549 38.7482 34.3549 38.8482 34.1549C38.9482 34.0549 39.0482 33.8549 39.1482 33.6549C39.2482 33.6549 39.2482 33.7549 39.3482 33.7549H47.0482C47.0482 33.7549 47.0482 33.7549 47.1482 33.6549L47.2482 33.5549L47.3482 33.7549L47.4482 33.8549H49.8482L49.9482 33.7549L50.0482 33.5549L50.7482 33.8549C50.8482 33.7549 50.8482 33.7549 50.9482 33.6549C51.0482 33.5549 51.0482 33.4549 51.0482 33.4549C51.0482 33.3549 51.0482 33.2549 50.9482 33.1549C51.1482 32.8549 51.1482 32.7549 51.0482 32.6549ZM48.3482 33.2549C48.5482 33.1549 48.6482 33.0549 48.6482 33.0549C48.7482 32.9549 48.8482 32.9549 48.9482 32.9549C49.1482 32.9549 49.3482 33.0549 49.3482 33.2549H48.3482ZM50.5482 33.0549C50.6482 33.0549 50.6482 32.9549 50.7482 32.9549C50.7482 32.9549 50.8482 32.9549 50.8482 33.0549C50.8482 33.0549 50.8482 33.0549 50.8482 33.1549L50.5482 33.0549Z" fill="black"/>
<path id="Vector_66" d="M52.5486 31.8549L52.9487 32.0549C53.0487 32.0549 53.0486 31.9549 53.0486 31.9549C53.0486 31.8549 53.1486 31.8549 53.1486 31.7549L52.7487 31.5549C52.6487 31.5549 52.6486 31.6549 52.5486 31.7549C52.4486 31.7549 52.4486 31.7549 52.3486 31.6549C52.2486 31.6549 52.2486 31.5549 52.1486 31.5549C52.0486 31.6549 51.9486 31.7549 51.8486 31.8549C51.9486 31.9549 52.0487 32.0549 52.2487 32.0549L52.5486 31.8549Z" fill="black"/>
<path id="Vector_67" d="M54.4482 34.1549C54.3482 34.2549 54.3482 34.2549 54.3482 34.2549C54.2482 34.2549 54.1482 34.1549 54.1482 34.1549C54.0482 34.2549 53.9482 34.3549 53.9482 34.4549L54.0482 34.5549L54.1482 34.6549L54.3482 34.4549L54.6482 34.6549L54.7482 34.5549L54.8482 34.4549L54.5482 34.2549C54.5482 34.1549 54.4482 34.1549 54.4482 34.1549Z" fill="black"/>
<path id="Vector_68" d="M55.0485 33.7549C55.0485 33.5549 55.1484 33.3549 55.1484 33.1549C55.1484 32.8549 55.0484 32.6549 54.8484 32.4549L54.5485 32.8549C54.6485 32.9549 54.7484 33.1549 54.8484 33.3549H53.8484C53.7484 33.3549 53.6484 33.3549 53.6484 33.2549C53.6484 33.1549 53.5485 32.8549 53.5485 32.5549C53.4485 32.2549 53.4485 32.0549 53.4485 31.8549L53.1484 32.3549C53.1484 32.4549 53.1484 32.4549 53.1484 32.4549L52.6484 32.7549C52.5484 32.8549 52.4484 32.9549 52.3484 33.0549C52.2484 33.2549 52.2484 33.3549 52.1484 33.5549C52.2484 33.5549 52.4485 33.5549 52.5485 33.6549C52.6485 33.6549 52.8485 33.7549 52.9485 33.7549C53.0485 33.7549 53.0484 33.6549 53.1484 33.5549C53.1484 33.4549 53.2485 33.4549 53.2485 33.3549C53.2485 33.4549 53.3484 33.5549 53.3484 33.6549C53.3484 33.7549 53.4485 33.8549 53.5485 33.8549L55.0485 33.7549ZM52.7485 33.0549C52.8485 32.9549 52.8485 32.9549 52.9485 32.9549L53.0485 32.8549L53.1484 32.7549L53.2485 33.1549L52.7485 33.0549Z" fill="black"/>
<path id="Vector_69" d="M56.248 32.9549C56.148 32.8549 56.0481 32.7549 55.9481 32.6549C55.8481 32.8549 55.848 32.9549 55.748 33.0549L55.9481 33.2549C56.0481 33.3549 56.048 33.3549 56.148 33.4549C56.048 33.7549 55.748 33.9549 55.548 34.0549C55.348 34.0549 55.248 34.1549 55.048 34.1549C54.948 34.1549 54.848 34.1549 54.748 34.1549C54.848 34.1549 54.848 34.2549 54.848 34.2549C55.148 34.3549 55.448 34.4549 55.748 34.5549C55.848 34.5549 55.9481 34.4549 55.9481 34.4549C56.2481 34.1549 56.348 33.8549 56.348 33.4549C56.348 33.1549 56.348 33.0549 56.248 32.9549Z" fill="black"/>
<path id="Vector_70" d="M69.4481 33.9549C69.3481 34.0549 69.248 34.1549 69.248 34.1549C69.248 34.1549 69.3481 34.2549 69.4481 34.3549C69.5481 34.4549 69.548 34.4549 69.648 34.4549C69.648 34.4549 69.748 34.3549 69.848 34.2549C69.948 34.1549 69.948 34.1549 70.048 34.0549L69.548 33.8549C69.548 33.8549 69.5481 33.9549 69.4481 33.9549Z" fill="black"/>
<path id="Vector_71" d="M70.0486 32.8549C69.8486 32.7549 69.5486 32.6549 69.3486 32.5549C69.1486 32.5549 68.9487 32.7549 68.7487 33.1549C68.8487 33.1549 68.8486 33.0549 68.8486 33.0549C68.9486 33.0549 68.9486 33.0549 69.0486 33.0549C69.1486 33.0549 69.2486 33.0549 69.3486 33.1549L69.6486 33.2549C69.5486 33.2549 69.3487 33.3549 69.2487 33.3549H69.1486C69.0486 33.3549 68.9486 33.3549 68.8486 33.3549H68.6486C68.6486 33.3549 68.5487 33.2549 68.4487 33.1549C68.4487 33.0549 68.3486 33.0549 68.3486 32.9549C68.3486 32.8549 68.3486 32.8549 68.3486 32.7549H68.2487C68.0487 32.7549 67.9487 32.8549 67.7487 32.9549C67.6487 33.0549 67.5487 33.1549 67.4487 33.3549H67.3486H66.5486C66.5486 33.2549 66.6487 33.1549 66.7487 32.9549C66.8487 32.8549 66.8486 32.7549 66.8486 32.5549V32.3549C66.5486 32.3549 66.2487 32.6549 65.9487 33.2549H58.2487H58.0486C58.0486 33.0549 57.9487 32.9549 57.9487 32.7549C57.8487 32.5549 57.7486 32.4549 57.6486 32.4549C57.5486 32.4549 57.4486 32.5549 57.3486 32.6549C57.2486 32.7549 57.2486 32.8549 57.1486 33.0549C57.0486 33.1549 57.0486 33.2549 57.0486 33.4549C57.0486 33.6549 57.2486 33.7549 57.6486 33.7549C57.3486 34.0549 57.0486 34.1549 56.6486 34.2549C56.5486 34.2549 56.4486 34.2549 56.3486 34.2549C56.4486 34.3549 56.6486 34.3549 56.8486 34.3549C57.0486 34.3549 57.1486 34.3549 57.3486 34.4549C57.6486 34.4549 57.8487 34.2549 57.9487 33.7549H65.8486C65.8486 33.9549 65.9486 34.0549 66.0486 34.1549C66.1486 34.2549 66.2487 34.3549 66.4487 34.3549C66.6487 34.3549 66.7486 34.2549 66.8486 34.1549C66.9486 34.0549 67.0486 33.8549 67.0486 33.7549H67.3486C67.4486 33.7549 67.4487 33.7549 67.4487 33.6549V33.5549C67.4487 33.5549 67.4486 33.4549 67.5486 33.4549L68.3486 33.9549C68.3486 33.9549 68.4487 33.9549 68.4487 33.8549C68.4487 33.8549 68.4486 33.7549 68.5486 33.7549H69.4487C69.5487 33.7549 69.6487 33.6549 69.7487 33.6549C69.8487 33.5549 70.0486 33.5549 70.1486 33.5549H70.8486C70.9486 33.4549 71.0486 33.2549 71.1486 33.1549C70.6486 33.0549 70.3486 32.9549 70.0486 32.8549ZM57.4487 33.2549C57.3487 33.2549 57.3487 33.2549 57.2487 33.2549C57.1487 33.2549 57.1486 33.1549 57.1486 33.1549C57.2486 33.0549 57.2486 32.9549 57.3486 32.9549C57.3486 32.9549 57.4487 33.0549 57.4487 33.2549ZM66.3486 33.9549C66.1486 33.9549 66.0487 33.8549 65.9487 33.6549H66.0486C66.1486 33.6549 66.1487 33.6549 66.2487 33.6549C66.3487 33.6549 66.3486 33.6549 66.3486 33.7549C66.3486 33.8549 66.4486 33.8549 66.3486 33.9549ZM66.4487 33.0549C66.3487 33.1549 66.1486 33.2549 66.0486 33.2549C66.1486 33.0549 66.3487 32.9549 66.4487 32.7549V32.8549C66.4487 32.9549 66.4487 32.9549 66.4487 33.0549ZM67.9487 33.3549C67.8487 33.3549 67.7486 33.2549 67.6486 33.1549C67.7486 33.1549 67.7486 33.1549 67.8486 33.1549C67.9486 33.0549 67.9487 33.1549 67.9487 33.3549C67.9487 33.2549 67.9487 33.2549 67.9487 33.3549Z" fill="black"/>
<path id="Vector_72" d="M70.7479 49.2549H18.7479C18.6479 49.2549 18.5479 49.3549 18.5479 49.4549C18.5479 49.5549 18.6479 49.6549 18.7479 49.6549H70.7479C70.8479 49.6549 70.9479 49.5549 70.9479 49.4549C70.9479 49.3549 70.8479 49.2549 70.7479 49.2549Z" fill="black"/>
<path id="Vector_73" d="M20.4482 53.9549V53.7549C20.7482 53.7549 20.8482 53.6549 20.7482 53.2549V51.6549L19.7482 53.8549H19.6482L18.7482 51.6549L18.6482 52.7549C18.6482 52.9549 18.6482 53.2549 18.6482 53.4549C18.6482 53.6549 18.7482 53.6549 19.0482 53.7549V53.9549H17.9482V53.7549C18.1482 53.7549 18.2482 53.6549 18.3482 53.4549C18.3482 53.1549 18.4482 52.9549 18.4482 52.6549L18.5482 51.8549C18.5482 51.3549 18.5482 51.2549 18.1482 51.2549V51.0549H19.0482L19.9482 52.9549L20.8482 51.0549H21.7482V51.2549C21.3482 51.2549 21.3482 51.3549 21.3482 51.6549V53.2549C21.3482 53.6549 21.3482 53.6549 21.7482 53.7549V53.9549H20.4482Z" fill="black"/>
<path id="Vector_74" d="M22.0479 53.9549V53.8549C22.3479 53.8549 22.3478 53.8549 22.3478 53.4549V52.6549C22.3478 52.3549 22.3478 52.3549 22.1478 52.3549V52.2549C22.4478 52.2549 22.6479 52.1549 22.9479 52.0549V53.4549C22.9479 53.7549 22.9479 53.7549 23.2479 53.8549V53.9549H22.0479ZM22.2479 51.4549C22.2479 51.2549 22.3479 51.1549 22.5479 51.1549C22.7479 51.1549 22.8478 51.2549 22.8478 51.4549C22.8478 51.6549 22.7479 51.7549 22.5479 51.7549C22.4479 51.7549 22.2479 51.5549 22.2479 51.4549Z" fill="black"/>
<path id="Vector_75" d="M24.7482 53.9549V53.8549C24.9482 53.8549 24.9482 53.8549 24.9482 53.4549V52.7549C24.9482 52.4549 24.7482 52.3549 24.6482 52.3549C24.5482 52.3549 24.4482 52.4549 24.3482 52.4549V53.4549C24.3482 53.7549 24.3482 53.7549 24.5482 53.7549V53.8549H23.4482V53.7549C23.7482 53.7549 23.7482 53.7549 23.7482 53.4549V52.5549C23.7482 52.2549 23.7482 52.2549 23.5482 52.2549V52.1549C23.8482 52.1549 24.0482 52.0549 24.3482 51.9549V52.2549C24.4482 52.1549 24.5482 52.1549 24.6482 52.0549C24.7482 51.9549 24.8482 51.9549 24.9482 51.9549C25.3482 51.9549 25.5482 52.2549 25.5482 52.6549V53.4549C25.5482 53.7549 25.5482 53.7549 25.8482 53.7549V53.8549L24.7482 53.9549Z" fill="black"/>
<path id="Vector_76" d="M26.0479 53.9549V53.8549C26.3479 53.8549 26.3478 53.8549 26.3478 53.4549V52.6549C26.3478 52.3549 26.3478 52.3549 26.1478 52.3549V52.2549C26.4478 52.2549 26.6479 52.1549 26.9479 52.0549V53.4549C26.9479 53.7549 26.9479 53.7549 27.2479 53.8549V53.9549H26.0479ZM26.3478 51.4549C26.3478 51.2549 26.4478 51.1549 26.6478 51.1549C26.8478 51.1549 26.9479 51.2549 26.9479 51.4549C26.9479 51.6549 26.8478 51.7549 26.6478 51.7549C26.4478 51.7549 26.3478 51.5549 26.3478 51.4549Z" fill="black"/>
<path id="Vector_77" d="M28.7479 52.6549C28.6479 52.3549 28.4479 52.2549 28.2479 52.2549C28.1479 52.2549 28.0479 52.3549 28.0479 52.4549C28.0479 52.5549 28.1478 52.6549 28.3478 52.7549C28.7478 52.8549 28.9479 53.0549 28.9479 53.3549C28.9479 53.7549 28.5478 53.9549 28.1478 53.9549C27.9478 53.9549 27.7478 53.9549 27.6478 53.8549C27.6478 53.6549 27.5479 53.4549 27.5479 53.2549H27.6478C27.7478 53.5549 27.9479 53.8549 28.2479 53.8549C28.3479 53.8549 28.4479 53.7549 28.4479 53.6549C28.4479 53.5549 28.3478 53.4549 28.1478 53.3549C27.9478 53.2549 27.5479 53.0549 27.5479 52.7549C27.5479 52.4549 27.8479 52.1549 28.2479 52.1549C28.3479 52.1549 28.5478 52.1549 28.6478 52.2549C28.7478 52.4549 28.7479 52.5549 28.7479 52.7549V52.6549Z" fill="black"/>
<path id="Vector_78" d="M30.248 53.9549C30.148 53.9549 30.148 53.9549 30.048 53.9549C29.748 53.9549 29.548 53.8549 29.548 53.5549V53.4549V52.2549H29.248V52.1549L29.348 51.9549H29.548V51.6549L30.048 51.3549H30.148V51.9549H30.548C30.648 52.0549 30.548 52.1549 30.548 52.1549H30.148V53.1549C30.148 53.4549 30.348 53.5549 30.348 53.5549C30.448 53.5549 30.548 53.5549 30.548 53.4549V53.6549L30.248 53.9549Z" fill="black"/>
<path id="Vector_79" d="M31.7479 52.4549C31.9479 52.1549 32.0479 51.9549 32.2479 51.9549C32.4479 51.9549 32.5479 52.0549 32.5479 52.1549C32.5479 52.2549 32.4478 52.4549 32.3478 52.4549H32.2479C32.1479 52.3549 32.1479 52.3549 32.0479 52.3549C31.9479 52.3549 31.8478 52.4549 31.8478 52.5549V53.3549C31.8478 53.6549 31.8479 53.6549 32.2479 53.6549V53.7549H31.0479V53.6549C31.2479 53.6549 31.3478 53.6549 31.3478 53.3549V52.4549C31.3478 52.2549 31.3478 52.2549 31.1478 52.1549V52.0549C31.4478 52.0549 31.6479 51.9549 31.9479 51.8549L31.7479 52.4549Z" fill="black"/>
<path id="Vector_80" d="M34.848 52.1549C34.648 52.1549 34.5481 52.2549 34.4481 52.4549C34.3481 52.6549 34.1481 53.0549 33.9481 53.6549C33.7481 54.0549 33.6481 54.4549 33.4481 54.8549C33.4481 54.9549 33.348 54.9549 33.248 54.9549C33.048 54.9549 32.9481 54.8549 32.9481 54.6549C32.9481 54.5549 32.948 54.5549 33.048 54.4549C33.248 54.3549 33.3481 54.2549 33.4481 54.1549C33.4481 54.0549 33.548 54.0549 33.548 53.9549C33.548 53.8549 33.548 53.8549 33.548 53.7549C33.348 53.1549 33.048 52.5549 33.048 52.3549C33.048 52.1549 32.848 52.0549 32.748 52.0549V51.9549H33.848V52.0549C33.648 52.0549 33.648 52.1549 33.648 52.2549L33.9481 53.2549C34.0481 53.0549 34.248 52.5549 34.248 52.3549C34.248 52.2549 34.248 52.1549 34.048 52.1549V52.0549H34.848V52.1549Z" fill="black"/>
<path id="Vector_81" d="M37.3486 51.9549C37.8486 51.9549 38.3486 52.3549 38.3486 52.8549C38.3486 53.3549 37.9487 53.8549 37.4487 53.8549H37.3486C36.8486 53.8549 36.3486 53.5549 36.3486 52.9549V52.8549C36.3486 52.4549 36.7486 51.9549 37.3486 51.9549ZM37.3486 52.1549C37.1486 52.1549 36.9487 52.3549 36.9487 52.8549C36.9487 53.3549 37.1487 53.7549 37.4487 53.7549C37.6487 53.7549 37.7487 53.6549 37.7487 53.0549C37.7487 52.4549 37.6486 52.1549 37.3486 52.1549Z" fill="black"/>
<path id="Vector_82" d="M39.048 52.0549V51.9549C39.048 51.8549 39.048 51.7549 39.148 51.6549C39.248 51.4549 39.348 51.2549 39.548 51.1549C39.648 51.0549 39.848 50.9549 40.048 50.9549C40.148 50.9549 40.3481 50.9549 40.4481 51.0549C40.5481 51.1549 40.5481 51.1549 40.4481 51.2549C40.4481 51.3549 40.348 51.3549 40.348 51.3549C40.248 51.3549 40.248 51.3549 40.248 51.3549C40.148 51.2549 40.048 51.1549 39.848 51.1549C39.748 51.1549 39.748 51.1549 39.748 51.2549C39.748 51.4549 39.748 51.6549 39.748 51.8549V52.0549H40.248C40.248 52.0549 40.248 52.2549 40.148 52.2549H39.548V53.4549C39.548 53.7549 39.5481 53.7549 39.9481 53.7549V53.8549H38.748V53.7549C39.048 53.7549 39.048 53.6549 39.048 53.4549V52.2549H38.748V52.1549L38.848 51.9549L39.048 52.0549Z" fill="black"/>
<path id="Vector_83" d="M43.6478 51.8549C43.6478 51.7549 43.5479 51.5549 43.4479 51.4549C43.3479 51.3549 43.2479 51.3549 42.9479 51.3549H42.7479C42.5479 51.3549 42.5479 51.3549 42.5479 51.5549V52.4549H42.9479C43.3479 52.4549 43.3479 52.4549 43.4479 52.1549H43.6478V53.0549H43.4479C43.4479 52.7549 43.3479 52.7549 42.9479 52.7549H42.5479V53.4549C42.5479 53.8549 42.5479 53.8549 42.9479 53.9549V54.1549H41.5479V53.9549C41.8479 53.9549 41.9479 53.8549 41.9479 53.4549V51.8549C41.9479 51.4549 41.9479 51.4549 41.5479 51.4549V51.2549H43.6478C43.6478 51.3549 43.6478 51.6549 43.6478 51.9549V51.8549Z" fill="black"/>
<path id="Vector_84" d="M45.1485 51.9549C45.6485 51.9549 46.1485 52.3549 46.1485 52.8549C46.1485 53.3549 45.7486 53.8549 45.2486 53.8549H45.1485C44.6485 53.8549 44.1485 53.5549 44.1485 52.9549V52.8549C44.0485 52.4549 44.5485 51.9549 45.1485 51.9549ZM45.0486 52.1549C44.8486 52.1549 44.6485 52.3549 44.6485 52.8549C44.6485 53.3549 44.8485 53.7549 45.1485 53.7549C45.3485 53.7549 45.4486 53.6549 45.4486 53.0549C45.5486 52.4549 45.3486 52.1549 45.0486 52.1549Z" fill="black"/>
<path id="Vector_85" d="M47.3484 52.4549C47.5484 52.1549 47.6484 51.9549 47.8484 51.9549C48.0484 51.9549 48.1484 52.0549 48.1484 52.1549C48.1484 52.2549 48.0485 52.4549 47.9485 52.4549H47.8484C47.7484 52.3549 47.7484 52.3549 47.6484 52.3549C47.5484 52.3549 47.4485 52.4549 47.4485 52.5549V53.3549C47.4485 53.6549 47.4484 53.6549 47.8484 53.6549V53.7549H46.6484V53.6549C46.8484 53.6549 46.9485 53.6549 46.9485 53.3549V52.4549C46.9485 52.2549 46.9485 52.2549 46.7485 52.1549V52.0549C47.0485 52.0549 47.2485 51.9549 47.5485 51.8549L47.3484 52.4549Z" fill="black"/>
<path id="Vector_86" d="M50.0486 53.5549C49.8486 53.8549 49.5487 54.0549 49.2487 54.0549C48.7487 54.0549 48.3486 53.6549 48.3486 53.2549V53.1549C48.3486 52.8549 48.4486 52.5549 48.6486 52.3549C48.8486 52.1549 49.0486 52.0549 49.3486 52.0549C49.7486 52.0549 50.0486 52.3549 50.0486 52.7549C50.0486 52.8549 50.0487 52.8549 49.9487 52.9549C49.8487 52.9549 49.3487 53.0549 48.9487 53.0549C48.9487 53.5549 49.2486 53.7549 49.5486 53.7549C49.7486 53.7549 49.9486 53.6549 50.0486 53.5549ZM49.2487 52.1549C49.0487 52.1549 48.9487 52.3549 48.9487 52.6549C49.1487 52.6549 49.2487 52.6549 49.4487 52.6549C49.5487 52.6549 49.5486 52.6549 49.5486 52.5549C49.4486 52.3549 49.3487 52.1549 49.2487 52.1549Z" fill="black"/>
<path id="Vector_87" d="M50.3486 53.9549V53.8549C50.6486 53.8549 50.6486 53.8549 50.6486 53.4549V52.6549C50.6486 52.3549 50.6487 52.3549 50.4487 52.3549V52.2549C50.7487 52.2549 50.9487 52.1549 51.2487 52.0549V53.4549C51.2487 53.7549 51.2486 53.7549 51.5486 53.8549V53.9549H50.3486ZM50.5486 51.4549C50.5486 51.2549 50.6486 51.1549 50.8486 51.1549C51.0486 51.1549 51.1486 51.2549 51.1486 51.4549C51.1486 51.6549 51.0486 51.7549 50.8486 51.7549C50.6486 51.7549 50.5486 51.5549 50.5486 51.4549Z" fill="black"/>
<path id="Vector_88" d="M53.8486 52.0549C53.8486 52.1549 53.7486 52.2549 53.6486 52.3549H53.4487C53.5487 52.4549 53.5486 52.5549 53.5486 52.6549C53.5486 53.0549 53.1487 53.3549 52.7487 53.3549C52.6487 53.3549 52.6486 53.3549 52.5486 53.3549L52.4487 53.4549C52.4487 53.5549 52.5487 53.6549 52.7487 53.6549C52.8487 53.6549 53.0486 53.6549 53.1486 53.6549C53.4486 53.6549 53.8486 53.7549 53.8486 54.1549C53.8486 54.6549 53.2486 55.0549 52.6486 55.0549C52.0486 55.0549 51.8486 54.7549 51.8486 54.5549C51.8486 54.4549 51.9487 54.3549 51.9487 54.3549C52.0487 54.2549 52.1487 54.2549 52.2487 54.1549C52.1487 54.1549 51.9487 54.0549 51.9487 53.9549C51.9487 53.8549 51.8486 53.7549 51.8486 53.7549C52.0486 53.6549 52.1487 53.5549 52.2487 53.4549C51.9487 53.3549 51.8486 53.1549 51.8486 52.8549C51.8486 52.3549 52.3486 52.1549 52.6486 52.1549C52.8486 52.1549 52.9486 52.1549 53.1486 52.2549C53.3486 52.0549 53.6486 52.0549 53.8486 52.0549ZM52.6486 54.0549C52.4486 54.0549 52.3487 54.0549 52.2487 54.1549C52.1487 54.2549 52.1486 54.2549 52.1486 54.3549C52.1486 54.5549 52.3487 54.7549 52.7487 54.7549C53.0487 54.7549 53.2487 54.5549 53.2487 54.3549C53.2487 54.2549 53.1486 54.0549 53.0486 54.0549C52.9486 54.0549 52.8486 54.0549 52.6486 54.0549ZM52.6486 52.1549C52.5486 52.1549 52.3486 52.3549 52.3486 52.6549C52.3486 52.9549 52.4486 53.1549 52.6486 53.1549C52.8486 53.1549 52.9487 52.9549 52.9487 52.6549C52.9487 52.4549 52.8486 52.1549 52.6486 52.1549Z" fill="black"/>
<path id="Vector_89" d="M55.3478 53.9549V53.8549C55.5478 53.8549 55.5479 53.8549 55.5479 53.4549V52.7549C55.5479 52.4549 55.3479 52.3549 55.2479 52.3549C55.1479 52.3549 55.0479 52.4549 54.9479 52.4549V53.4549C54.9479 53.7549 54.9478 53.7549 55.1478 53.7549V53.8549H54.0479V53.7549C54.3479 53.7549 54.3478 53.7549 54.3478 53.4549V52.5549C54.3478 52.2549 54.3478 52.2549 54.1478 52.2549V52.1549C54.4478 52.1549 54.6479 52.0549 54.9479 51.9549V52.2549C55.0479 52.1549 55.1479 52.1549 55.2479 52.0549C55.3479 51.9549 55.4479 51.9549 55.5479 51.9549C55.9479 51.9549 56.1478 52.2549 56.1478 52.6549V53.4549C56.1478 53.7549 56.1479 53.7549 56.4479 53.7549V53.8549L55.3478 53.9549Z" fill="black"/>
<path id="Vector_90" d="M59.6486 53.9549V53.7549C59.9486 53.7549 59.9486 53.6549 59.8486 53.4549C59.8486 53.3549 59.7486 53.1549 59.6486 52.9549H58.7487C58.6487 53.0549 58.6486 53.2549 58.5486 53.4549C58.4486 53.6549 58.4486 53.7549 58.8486 53.7549V53.9549H57.8486V53.7549C58.1486 53.7549 58.1486 53.6549 58.3486 53.2549L59.2487 51.0549L59.4487 50.9549C59.7487 51.6549 60.0487 52.4549 60.2487 53.1549C60.3487 53.5549 60.4487 53.5549 60.7487 53.6549V53.8549L59.6486 53.9549ZM59.2487 51.8549C59.1487 52.1549 58.9486 52.4549 58.8486 52.7549H59.5486L59.2487 51.8549Z" fill="black"/>
<path id="Vector_91" d="M61.4481 52.0549V51.9549C61.4481 51.8549 61.448 51.7549 61.548 51.6549C61.648 51.4549 61.7481 51.2549 61.9481 51.1549C62.0481 51.0549 62.2481 50.9549 62.4481 50.9549C62.5481 50.9549 62.748 50.9549 62.848 51.0549C62.948 51.1549 62.948 51.1549 62.848 51.2549C62.848 51.3549 62.748 51.3549 62.748 51.3549C62.648 51.3549 62.648 51.3549 62.548 51.3549C62.448 51.2549 62.348 51.1549 62.148 51.1549C62.048 51.1549 62.048 51.1549 62.048 51.2549C62.048 51.4549 62.048 51.6549 62.048 51.8549V52.0549H62.548C62.548 52.0549 62.5481 52.2549 62.4481 52.2549H62.048V53.4549C62.048 53.7549 62.0481 53.7549 62.4481 53.7549V53.8549H61.248V53.7549C61.548 53.7549 61.548 53.6549 61.548 53.4549V52.2549H61.248V52.1549L61.348 51.9549L61.4481 52.0549Z" fill="black"/>
<path id="Vector_92" d="M63.0486 52.0549V51.9549C63.0486 51.8549 63.0486 51.7549 63.1486 51.6549C63.2486 51.4549 63.3486 51.2549 63.5486 51.1549C63.6486 51.0549 63.8486 50.9549 64.0486 50.9549C64.1486 50.9549 64.3487 50.9549 64.4487 51.0549C64.5487 51.1549 64.5487 51.1549 64.4487 51.2549C64.4487 51.3549 64.3486 51.3549 64.3486 51.3549C64.2486 51.3549 64.2486 51.3549 64.1486 51.3549C64.0486 51.2549 63.9487 51.1549 63.7487 51.1549C63.6487 51.1549 63.6486 51.1549 63.6486 51.2549C63.6486 51.4549 63.6486 51.6549 63.6486 51.8549V52.0549H64.1486C64.1486 52.0549 64.1486 52.2549 64.0486 52.2549H63.6486V53.4549C63.6486 53.7549 63.6486 53.7549 64.0486 53.7549V53.8549H62.8486V53.7549C63.1486 53.7549 63.1486 53.6549 63.1486 53.4549V52.2549H62.8486V52.1549L62.9487 51.9549L63.0486 52.0549Z" fill="black"/>
<path id="Vector_93" d="M65.8486 53.9549C65.7486 53.9549 65.6486 53.9549 65.5486 53.8549C65.5486 53.8549 65.4487 53.7549 65.4487 53.6549C65.3487 53.7549 65.1487 53.8549 64.9487 53.8549C64.6487 53.8549 64.3486 53.6549 64.3486 53.3549C64.3486 53.1549 64.4486 53.0549 64.6486 52.9549C64.8486 52.8549 65.1486 52.7549 65.3486 52.6549V52.5549C65.3486 52.2549 65.2486 52.1549 65.0486 52.1549C64.9486 52.1549 64.9487 52.1549 64.9487 52.2549C64.8487 52.3549 64.8486 52.4549 64.8486 52.5549C64.8486 52.6549 64.7486 52.7549 64.6486 52.6549C64.5486 52.6549 64.3486 52.5549 64.3486 52.4549C64.3486 52.3549 64.4486 52.3549 64.5486 52.2549C64.7486 52.1549 65.0487 52.0549 65.2487 51.9549C65.3487 51.9549 65.5486 51.9549 65.6486 52.0549C65.8486 52.1549 65.9486 52.4549 65.8486 52.6549V53.3549C65.8486 53.5549 65.9487 53.6549 65.9487 53.6549C66.0487 53.6549 66.0486 53.6549 66.1486 53.6549V53.7549L65.8486 53.9549ZM65.4487 52.9549C65.3487 52.9549 65.2487 53.0549 65.2487 53.0549C65.1487 53.0549 65.0486 53.2549 65.0486 53.3549C65.0486 53.5549 65.2486 53.6549 65.3486 53.6549C65.4486 53.6549 65.4486 53.6549 65.5486 53.5549V52.9549H65.4487Z" fill="black"/>
<path id="Vector_94" d="M66.5479 53.9549V53.8549C66.8479 53.8549 66.8478 53.8549 66.8478 53.4549V52.6549C66.8478 52.3549 66.8478 52.3549 66.6478 52.3549V52.2549C66.9478 52.2549 67.1479 52.1549 67.4479 52.0549V53.4549C67.4479 53.7549 67.4479 53.7549 67.7479 53.8549V53.9549H66.5479ZM66.7479 51.4549C66.7479 51.2549 66.8479 51.1549 67.0479 51.1549C67.2479 51.1549 67.3478 51.2549 67.3478 51.4549C67.3478 51.6549 67.2479 51.7549 67.0479 51.7549C66.8479 51.7549 66.7479 51.5549 66.7479 51.4549Z" fill="black"/>
<path id="Vector_95" d="M68.7479 52.4549C68.9479 52.1549 69.0479 51.9549 69.2479 51.9549C69.4479 51.9549 69.5479 52.0549 69.5479 52.1549C69.5479 52.2549 69.4478 52.4549 69.3478 52.4549H69.2479C69.1479 52.3549 69.1479 52.3549 69.0479 52.3549C68.9479 52.3549 68.8478 52.4549 68.8478 52.5549V53.3549C68.8478 53.6549 68.8479 53.6549 69.2479 53.6549V53.7549H68.0479V53.6549C68.2479 53.6549 68.3478 53.6549 68.3478 53.3549V52.4549C68.3478 52.2549 68.3478 52.2549 68.1478 52.1549V52.0549C68.4478 52.0549 68.6479 51.9549 68.9479 51.8549L68.7479 52.4549Z" fill="black"/>
<path id="Vector_96" d="M71.0486 52.6549C70.9486 52.3549 70.7486 52.2549 70.5486 52.2549C70.4486 52.2549 70.3486 52.3549 70.3486 52.4549C70.3486 52.5549 70.4486 52.6549 70.6486 52.7549C71.0486 52.8549 71.2487 53.0549 71.2487 53.3549C71.2487 53.7549 70.8487 53.9549 70.4487 53.9549C70.2487 53.9549 70.0487 53.9549 69.9487 53.8549C69.9487 53.6549 69.8486 53.4549 69.8486 53.2549H69.9487C70.0487 53.5549 70.2486 53.8549 70.5486 53.8549C70.6486 53.8549 70.7487 53.7549 70.7487 53.6549C70.7487 53.5549 70.6487 53.4549 70.4487 53.3549C70.2487 53.2549 69.8486 53.0549 69.8486 52.7549C69.8486 52.4549 70.1486 52.1549 70.5486 52.1549C70.6486 52.1549 70.8487 52.1549 70.9487 52.2549C71.0487 52.4549 71.0486 52.5549 71.0486 52.7549V52.6549Z" fill="black"/>
<path id="Vector_97" d="M69.2485 42.6549C69.1485 42.4549 68.8484 42.2549 68.6484 42.2549C68.3484 42.2549 68.2485 42.3549 68.2485 42.4549C68.2485 42.6549 68.4484 42.7549 68.8484 42.6549C68.9484 42.7549 69.1485 42.7549 69.2485 42.6549ZM70.1484 43.3549C70.1484 43.9549 69.9484 44.6549 69.6484 45.1549C69.2484 45.6549 68.5485 46.1549 67.4485 46.7549C66.5485 47.2549 66.0484 47.5549 65.8484 47.5549C65.6484 47.5549 62.2484 48.4549 62.1484 48.3549C62.3484 48.2549 62.4484 48.1549 62.6484 48.0549C64.1484 47.3549 67.3485 46.1549 69.2485 44.6549C69.6485 44.3549 69.7485 44.1549 69.7485 44.0549C69.6485 43.9549 69.6485 43.8549 69.5485 43.7549C69.3485 43.6549 69.0484 43.6549 68.8484 43.6549C68.0484 43.6549 67.7485 43.4549 67.7485 42.8549C67.7485 42.4549 67.8484 42.0549 68.1484 41.7549C68.7484 41.0549 69.3484 41.2549 69.8484 42.0549C70.0484 42.5549 70.1484 42.9549 70.1484 43.3549Z" fill="black"/>
<path id="Vector_98" d="M64.6484 42.2549C64.5484 42.0549 64.5485 41.9549 64.4485 41.7549C64.4485 41.4549 64.4485 41.2549 64.5485 40.9549C64.5485 40.8549 64.5484 40.8549 64.6484 40.8549C64.7484 40.8549 64.8485 41.0549 65.4485 41.6549C65.5485 41.7549 65.6485 41.9549 65.5485 41.8549C65.4485 41.8549 65.3484 41.8549 65.1484 41.7549C65.5484 42.7549 65.9484 43.2549 65.6484 44.2549C65.5484 44.4549 65.4484 44.6549 65.3484 44.8549C64.6484 45.5549 63.8485 46.1549 63.0485 46.5549C62.1485 47.0549 61.5484 47.3549 61.3484 47.3549C61.3484 47.3549 60.8485 47.4549 59.9485 47.6549C59.4485 47.7549 58.1484 48.1549 57.6484 48.1549C57.8484 48.0549 57.9484 47.9549 58.1484 47.8549C59.4484 47.2549 61.1484 46.6549 62.6484 45.8549C63.3484 45.4549 64.0485 45.0549 64.7485 44.5549C65.1485 44.2549 65.3484 44.0549 65.3484 43.9549C65.4484 43.8549 64.8484 42.9549 64.6484 42.2549Z" fill="black"/>
<path id="Vector_99" d="M61.3482 37.0549C61.3482 36.7549 61.3482 36.5549 61.2482 36.2549C61.3482 35.9549 61.3482 35.7549 61.5482 35.4549C61.5482 35.4549 61.5482 35.3549 61.6482 35.3549C61.6482 35.3549 61.6482 35.3549 61.7482 35.4549C61.8482 35.5549 61.9482 35.8549 62.1482 36.3549C62.5482 37.2549 62.7482 38.0549 62.1482 37.2549C62.1482 37.2549 62.1482 37.2549 62.1482 37.3549C62.1482 37.3549 62.5482 43.1549 62.5482 43.5549C62.5482 44.2549 62.4482 44.8549 62.2482 45.5549C62.0482 45.9549 62.0482 45.9549 62.0482 45.4549C62.1482 44.6549 62.0482 43.7549 61.8482 40.7549C61.3482 38.5549 61.3482 37.3549 61.3482 37.0549ZM59.3482 42.2549C59.1482 41.6549 59.0482 42.0549 59.1482 41.3549C59.1482 41.1549 59.2482 41.0549 59.2482 40.9549C59.2482 40.8549 59.2482 40.8549 59.3482 40.8549C59.3482 40.8549 59.4482 40.8549 59.4482 40.9549C60.0482 41.7549 60.7482 42.1549 59.9482 41.8549C60.3482 42.8549 60.7482 43.3549 60.4482 44.3549C60.3482 44.5549 60.2482 44.7549 60.1482 44.9549C59.4482 45.6549 58.6482 46.2549 57.8482 46.6549C56.9482 47.1549 56.3482 47.4549 56.1482 47.4549C56.1482 47.4549 55.6482 47.5549 54.7482 47.7549C54.2482 47.8549 52.9482 48.2549 52.4482 48.2549C52.4482 48.1549 53.1482 47.8549 55.1482 47.0549C57.9482 45.8549 60.1482 44.4549 60.1482 44.0549C60.0482 43.8549 59.5482 42.9549 59.3482 42.2549Z" fill="black"/>
<path id="Vector_100" d="M57.348 43.9549C57.148 43.5549 56.8481 43.1549 56.4481 42.8549C56.1481 43.1549 55.548 44.1549 55.548 44.4549C55.548 44.6549 55.6481 44.7549 55.9481 44.7549C56.5481 44.8549 57.348 44.1549 57.348 43.9549ZM57.9481 40.0549C57.9481 40.4549 57.748 40.7549 57.548 41.0549C57.348 41.3549 57.148 41.6549 56.848 42.1549C57.548 42.9549 57.548 43.2549 57.548 43.9549C57.548 44.2549 57.448 44.5549 57.248 44.8549C57.048 45.0549 56.848 45.2549 56.648 45.4549C56.448 45.6549 56.148 45.7549 55.848 45.7549C55.448 45.7549 55.248 45.4549 55.248 44.9549C55.248 44.0549 55.548 43.4549 56.048 42.6549C55.748 42.3549 55.448 41.9549 55.148 41.5549C55.148 41.5549 55.0481 41.4549 54.9481 41.2549C54.8481 41.1549 54.848 41.1549 54.848 41.0549C54.848 40.8549 54.948 40.3549 55.048 40.2549C55.448 40.4549 55.848 40.7549 56.148 41.0549C56.148 41.0549 56.1481 41.0549 55.9481 41.0549C55.8481 41.0549 55.748 41.0549 55.648 41.0549C55.648 41.0549 55.648 41.1549 55.748 41.1549C55.948 41.4549 56.248 41.6549 56.548 41.8549C56.948 41.2549 57.348 40.6549 57.748 39.9549C57.848 39.7549 57.848 39.6549 57.848 39.6549C57.948 39.7549 57.9481 39.8549 57.9481 40.0549ZM52.248 37.6549C52.248 37.3549 52.248 37.1549 52.148 36.8549C52.248 36.5549 52.2481 36.3549 52.4481 36.0549C52.4481 36.0549 52.448 35.9549 52.548 35.9549C52.548 35.9549 52.548 35.9549 52.648 36.0549C52.648 36.1549 53.348 37.8549 53.348 38.1549C53.348 38.2549 53.2481 38.2549 52.9481 37.8549C52.8481 37.7549 52.948 37.9549 53.148 40.8549C53.248 42.7549 53.348 43.8549 53.348 44.1549C53.348 44.8549 53.248 45.4549 53.048 46.1549C53.048 46.2549 52.848 46.5549 52.848 46.4549C52.848 46.2549 52.9481 46.0549 52.9481 45.1549C52.6481 44.4549 52.248 38.3549 52.248 37.6549ZM47.9481 43.2549L46.248 42.8549C46.448 42.7549 46.6481 42.6549 46.9481 42.6549C47.4481 42.5549 47.848 42.3549 48.348 42.2549C48.548 42.1549 48.548 42.0549 48.548 41.9549C48.648 41.6549 48.348 38.3549 48.348 37.9549C48.348 37.6549 48.348 37.4549 48.148 37.1549C48.248 36.8549 48.2481 36.6549 48.4481 36.3549C48.4481 36.3549 48.448 36.2549 48.548 36.2549C48.548 36.2549 48.548 36.2549 48.648 36.3549C48.748 36.4549 48.848 36.7549 49.048 37.2549C49.248 37.7549 49.3481 38.0549 49.4481 38.2549C49.4481 38.3549 49.4481 38.3549 49.4481 38.4549C49.4481 38.5549 49.348 38.5549 49.048 38.1549C49.048 38.1549 49.048 38.1549 49.048 38.2549C49.048 38.2549 49.048 38.7549 49.148 39.9549C49.248 41.2549 49.248 41.6549 49.148 42.0549C48.748 42.4549 48.3481 42.9549 47.9481 43.2549Z" fill="black"/>
<path id="Vector_101" d="M53.8484 44.0549C53.4485 44.7549 53.4485 44.8549 53.3484 44.8549C52.7484 44.8549 51.3484 44.7549 50.1484 45.0549C47.2484 45.9549 44.7484 46.3549 42.6484 46.3549C40.9484 46.3549 39.6484 46.1549 38.6484 45.7549V44.7549C39.4484 45.1549 40.9485 45.3549 42.9485 45.3549C45.2485 45.3549 47.6484 44.9549 49.8484 44.2549C49.5484 44.2549 46.8485 43.4549 46.2485 43.4549C45.9485 43.4549 45.8484 43.4549 45.8484 43.3549V43.2549C45.9484 43.1549 46.0484 42.9549 46.1484 42.6549H47.8484C52.3484 44.0549 53.8484 43.7549 53.8484 44.0549Z" fill="black"/>
<path id="Vector_102" d="M37.9479 44.2549C38.1479 44.4549 38.4479 44.6549 38.7479 44.8549V45.8549C38.0479 45.5549 37.5479 45.2549 37.2479 44.5549C36.7479 43.4549 37.0478 39.0549 36.3478 37.3549C36.3478 37.0549 36.4479 36.8549 36.5479 36.5549C36.5479 36.4549 36.6478 36.4549 36.6478 36.4549C36.6478 36.4549 36.6479 36.4549 36.7479 36.5549C37.6479 38.1549 36.9479 43.2549 37.9479 44.2549ZM35.4479 42.2549C35.3479 42.0549 35.3479 41.9549 35.2479 41.7549C35.2479 41.4549 35.2478 41.2549 35.3478 40.9549C35.3478 40.8549 35.3479 40.8549 35.4479 40.8549C35.4479 40.8549 35.5479 40.8549 35.5479 40.9549C36.1479 41.7549 36.8479 42.1549 36.0479 41.8549C36.3479 42.5549 36.6478 43.1549 36.6478 43.7549C36.6478 44.1549 36.5479 44.5549 36.2479 44.9549C35.5479 45.6549 34.7479 46.2549 33.9479 46.6549C33.0479 47.1549 32.4479 47.4549 32.2479 47.4549C32.0479 47.4549 29.2479 48.2549 28.5479 48.2549C28.5479 48.1549 29.5479 47.7549 31.2479 47.0549C34.1479 45.8549 36.2479 44.4549 36.2479 44.0549C36.1479 43.8549 36.0479 43.5549 35.9479 43.3549C35.6479 43.0549 35.5479 42.6549 35.4479 42.2549Z" fill="black"/>
<path id="Vector_103" d="M28.1479 45.9549V44.9549C28.9479 44.9549 30.348 44.3549 31.248 43.9549L29.448 43.4549C29.348 43.4549 29.348 43.4549 29.248 43.5549C29.148 43.6549 29.1479 43.6549 29.0479 43.6549C27.5479 43.5549 27.548 43.6549 27.748 43.3549C28.048 42.8549 28.048 42.6549 28.248 42.6549C28.648 42.5549 29.1479 42.5549 29.5479 42.5549C29.5479 42.5549 29.9479 42.6549 30.6479 42.9549C31.6479 43.3549 32.648 43.5549 33.748 43.7549C34.748 43.9549 34.7479 43.8549 34.8479 43.9549V44.0549L34.5479 44.6549C34.3479 44.9549 33.648 44.2549 31.448 45.0549C30.848 45.2549 30.348 45.5549 29.748 45.7549C29.148 45.8549 28.6479 45.9549 28.1479 45.9549Z" fill="black"/>
<path id="Vector_104" d="M28.1486 45.9549C27.5486 45.9549 27.0486 45.5549 27.0486 44.9549C26.9486 45.2549 26.7486 45.4549 26.5486 45.6549C26.2486 45.9549 25.7486 46.1549 25.3486 46.1549V45.1549C25.8486 45.1549 26.3487 45.0549 26.7487 44.7549C26.8487 44.7549 27.5486 43.9549 27.5486 43.8549C27.5486 43.8549 27.6486 43.8549 27.6486 43.9549V44.0549C27.4486 44.6549 27.7486 44.9549 28.3486 44.9549L28.1486 45.9549Z" fill="black"/>
<path id="Vector_105" d="M25.3484 46.1549C25.1484 46.1549 24.8484 46.1549 24.6484 46.0549C24.3484 45.9549 24.0484 45.7549 23.8484 45.4549C23.7484 45.2549 23.5485 45.0549 23.4485 44.7549C23.3485 44.5549 23.2484 44.4549 23.1484 44.4549C22.7484 44.4549 22.4485 44.7549 22.0485 45.3549C21.9485 45.4549 21.8484 45.7549 21.6484 46.2549C21.5484 46.5549 21.3484 46.9549 21.1484 47.2549C21.0484 47.5549 20.7485 47.6549 20.4485 47.7549C20.0485 47.7549 19.7485 47.4549 19.5485 46.9549C19.3485 46.4549 19.2485 45.9549 19.2485 45.4549C19.2485 44.4549 19.4485 43.7549 19.5485 43.7549C19.6485 43.7549 19.4485 44.3549 19.4485 45.0549C19.4485 46.3549 19.7484 47.0549 20.3484 47.0549C20.6484 47.0549 20.8485 46.8549 21.0485 46.4549C21.2485 45.9549 21.4484 45.5549 21.6484 45.0549C21.9484 44.5549 22.5484 43.6549 23.1484 43.6549C23.3484 43.6549 23.5484 43.8549 23.6484 43.9549C24.1484 44.7549 24.3485 45.1549 25.2485 45.1549V46.1549H25.3484ZM27.2485 47.5549C27.5485 46.9549 27.5484 46.8549 27.6484 46.8549C27.9484 46.9549 28.1485 47.1549 28.4485 47.3549C28.3485 47.5549 28.2484 47.8549 28.1484 48.0549C28.0484 48.1549 28.0485 48.0549 27.2485 47.5549ZM24.7485 47.3549C25.0485 46.8549 25.0485 46.7549 25.0485 46.7549C25.3485 46.8549 25.5484 47.0549 25.8484 47.2549C25.7484 47.4549 25.6485 47.7549 25.5485 47.9549C25.5485 47.9549 25.4485 48.0549 25.4485 47.9549C25.2485 47.7549 25.0485 47.6549 24.7485 47.4549C24.6485 47.6549 24.5485 47.7549 24.4485 47.9549C24.4485 47.9549 24.4484 48.0549 24.3484 47.9549C24.1484 47.7549 23.8484 47.6549 23.6484 47.4549C23.6484 47.4549 23.6484 47.4549 23.6484 47.3549C23.9484 46.8549 23.9485 46.6549 24.0485 46.6549C24.1485 46.7549 24.2485 46.7549 24.4485 46.8549C24.4485 47.1549 24.6485 47.2549 24.7485 47.3549ZM22.2485 40.5549C22.5485 40.0549 22.5485 39.9549 22.5485 39.9549C22.8485 40.0549 23.0484 40.2549 23.3484 40.4549C23.2484 40.6549 23.1485 40.9549 23.0485 41.1549C23.0485 41.1549 22.9485 41.2549 22.9485 41.1549C22.7485 40.9549 22.5485 40.8549 22.2485 40.6549C22.1485 40.8549 22.0485 40.9549 21.9485 41.1549C21.9485 41.1549 21.9484 41.2549 21.8484 41.1549C21.6484 40.9549 21.3484 40.8549 21.1484 40.6549C21.1484 40.6549 21.1484 40.6549 21.1484 40.5549C21.4484 40.0549 21.4485 39.8549 21.5485 39.8549C21.7485 40.2549 22.0485 40.3549 22.2485 40.5549ZM45.5485 40.2549C45.8485 39.6549 45.8485 39.5549 45.9485 39.5549C46.2485 39.6549 46.4485 39.8549 46.7485 40.0549C46.6485 40.2549 46.5485 40.5549 46.4485 40.7549C46.3485 40.8549 46.3485 40.7549 45.5485 40.2549ZM63.7485 39.1549C63.8485 39.1549 63.8485 39.1549 63.7485 39.1549C64.0485 38.5549 64.0484 38.4549 64.1484 38.4549C64.4484 38.5549 64.6485 38.7549 64.9485 38.9549C64.8485 39.1549 64.7484 39.4549 64.6484 39.6549C64.5484 39.7549 64.5485 39.6549 63.7485 39.1549ZM56.0485 38.6549C56.3485 38.0549 56.3484 38.0549 56.3484 38.0549C56.6484 38.1549 56.8484 38.3549 57.1484 38.5549C57.0484 38.7549 56.9484 39.0549 56.8484 39.2549C56.8484 39.2549 56.7485 39.3549 56.7485 39.2549C56.5485 39.0549 56.3485 38.9549 56.0485 38.7549C55.9485 38.9549 55.8485 39.0549 55.7485 39.2549C55.7485 39.2549 55.7484 39.3549 55.6484 39.2549C55.4484 39.0549 55.1485 38.9549 54.9485 38.7549C54.9485 38.7549 54.9485 38.7549 54.9485 38.6549C55.2485 38.1549 55.2485 37.9549 55.3484 37.9549C55.4484 38.0549 55.5485 38.0549 55.7485 38.1549C55.8485 38.3549 55.9485 38.4549 56.0485 38.6549ZM63.2485 37.1549C66.1485 36.1549 66.6485 35.8549 66.7485 35.8549C66.7485 35.8549 66.7485 35.8549 66.7485 35.9549C66.7485 36.0549 66.6484 36.1549 66.6484 36.1549C65.6484 36.5549 64.5484 36.9549 63.1484 37.4549C63.1484 37.3549 63.2485 37.2549 63.2485 37.1549ZM34.2485 47.6549C36.9485 46.6549 37.6485 46.3549 37.7485 46.3549C37.7485 46.3549 37.7485 46.3549 37.7485 46.4549C37.7485 46.5549 37.6484 46.6549 37.6484 46.6549C36.6484 47.0549 35.5484 47.4549 34.1484 47.9549C34.1484 47.8549 34.1485 47.7549 34.2485 47.6549ZM65.8484 37.3549C66.9484 36.9549 68.2485 36.5549 69.4485 36.1549H69.5485C69.5485 36.1549 69.5485 36.1549 69.5485 36.2549C69.5485 36.3549 69.4485 36.4549 69.4485 36.4549C68.4485 36.8549 67.0485 37.2549 65.7485 37.7549C65.7485 37.6549 65.8484 37.5549 65.8484 37.3549ZM38.5485 39.6549C40.7485 38.8549 46.5485 36.7549 46.5485 36.7549C46.5485 36.7549 46.5485 36.7549 46.5485 36.8549C46.5485 36.9549 46.4485 37.0549 46.4485 37.0549C45.4485 37.4549 39.7485 39.5549 38.4485 40.0549C38.4485 39.9549 38.4485 39.8549 38.5485 39.6549ZM24.2485 39.6549C25.9485 39.0549 32.2485 36.7549 32.2485 36.7549C32.2485 36.7549 32.2485 36.7549 32.2485 36.8549C32.2485 36.9549 32.1484 37.0549 32.1484 37.0549C31.1484 37.4549 25.4484 39.5549 24.1484 40.0549C24.1484 39.8549 24.1485 39.7549 24.2485 39.6549ZM57.3484 37.3549C59.9484 36.3549 60.7485 36.0549 60.8484 36.0549C60.8484 36.0549 60.8484 36.0549 60.8484 36.1549C60.8484 36.2549 60.7485 36.3549 60.7485 36.3549C59.7485 36.7549 58.6485 37.1549 57.2485 37.6549C57.2485 37.6549 57.2485 37.5549 57.3484 37.3549ZM28.0485 37.2549C28.0485 37.6549 27.8485 37.8549 27.7485 37.8549C27.5485 37.8549 27.4485 37.6549 27.4485 37.3549C27.4485 36.9549 27.5485 36.5549 27.7485 36.1549C27.7485 36.0549 27.8484 36.0549 27.8484 35.9549C27.7484 36.2549 27.6485 36.6549 27.5485 37.0549C27.5485 37.2549 27.6485 37.3549 27.7485 37.3549C27.9485 37.4549 28.0485 37.3549 28.0485 37.2549ZM39.4485 42.7549C39.4485 43.1549 39.2484 43.3549 39.1484 43.3549C39.0484 43.3549 38.8484 43.1549 38.8484 42.8549C38.8484 42.4549 38.9484 42.0549 39.1484 41.6549C39.1484 41.5549 39.2485 41.5549 39.2485 41.4549C39.1485 41.7549 39.0485 42.1549 38.9485 42.5549C38.9485 42.7549 39.0484 42.8549 39.1484 42.8549C39.2484 43.0549 39.3485 42.9549 39.4485 42.7549ZM51.0485 40.4549C51.0485 40.8549 50.8485 41.0549 50.7485 41.0549C50.6485 41.0549 50.4485 40.9549 50.4485 40.5549C50.4485 40.1549 50.5485 39.7549 50.7485 39.3549C50.7485 39.2549 50.8484 39.2549 50.8484 39.1549C50.7484 39.4549 50.6485 39.8549 50.5485 40.2549C50.5485 40.4549 50.6485 40.5549 50.7485 40.5549C50.9485 40.6549 50.9485 40.5549 51.0485 40.4549ZM69.5485 39.4549C69.5485 39.8549 69.3485 40.0549 69.2485 40.0549C69.0485 40.0549 68.9485 39.8549 68.9485 39.5549C68.9485 39.1549 69.0485 38.7549 69.2485 38.3549C69.2485 38.2549 69.3484 38.2549 69.3484 38.1549C69.2485 38.4549 69.1485 38.8549 69.0485 39.2549C69.0485 39.4549 69.1485 39.5549 69.2485 39.5549C69.3485 39.6549 69.4485 39.6549 69.5485 39.4549ZM23.5485 36.6549C23.9485 36.6549 24.1485 37.2549 24.2485 37.6549C24.2485 37.6549 24.2485 37.6549 24.2485 37.7549C24.2485 37.7549 24.2485 37.7549 24.2485 37.6549C24.2485 37.3549 24.3485 37.0549 24.4485 36.8549C24.5485 36.5549 24.6484 36.4549 24.8484 36.4549C24.9484 36.4549 25.1484 36.6549 25.1484 36.7549V36.8549C25.1484 36.9549 25.0485 36.9549 25.0485 36.9549C25.0485 36.9549 25.0485 36.9549 24.9485 36.8549C24.9485 36.7549 24.8485 36.7549 24.7485 36.7549C24.4485 36.7549 24.4484 38.2549 24.1484 38.2549C24.1484 38.2549 24.1484 38.2549 24.1484 38.1549C24.1484 37.9549 24.0485 37.7549 23.9485 37.5549C23.8485 37.2549 23.7485 37.1549 23.7485 37.1549H23.6484C23.6484 37.1549 23.6485 37.1549 23.5485 37.1549C23.4485 37.1549 23.2485 37.0549 23.2485 36.8549C23.2485 36.7549 23.3484 36.7549 23.3484 36.6549C23.4484 36.7549 23.5485 36.6549 23.5485 36.6549ZM33.2485 37.5549C33.6485 37.5549 33.8485 38.1549 33.9485 38.5549C33.9485 38.5549 33.9485 38.5549 33.9485 38.6549C33.9485 38.6549 33.9485 38.6549 33.9485 38.5549C33.9485 38.2549 34.0484 37.9549 34.1484 37.7549C34.2484 37.4549 34.3485 37.3549 34.5485 37.3549C34.6485 37.3549 34.7485 37.4549 34.7485 37.4549C34.8485 37.5549 34.8484 37.6549 34.8484 37.7549C34.7484 38.0549 34.6485 37.6549 34.5485 37.6549C34.2485 37.6549 34.2485 39.1549 33.9485 39.1549C33.9485 39.1549 33.9485 39.1549 33.9485 39.0549C33.9485 38.8549 33.8485 38.6549 33.7485 38.4549C33.6485 38.1549 33.5485 38.0549 33.5485 38.0549H33.4485C33.4485 38.0549 33.4485 38.0549 33.3484 38.0549C33.2484 38.0549 33.0485 37.9549 33.0485 37.7549C33.0485 37.6549 33.1484 37.6549 33.1484 37.5549C33.1484 37.6549 33.2485 37.5549 33.2485 37.5549ZM49.3484 46.4549C49.7484 46.4549 49.9485 47.0549 50.0485 47.4549C50.0485 47.4549 50.0485 47.4549 50.0485 47.5549C50.0485 47.5549 50.0485 47.5549 50.0485 47.4549C50.0485 47.2549 50.1485 46.9549 50.2485 46.6549C50.3485 46.3549 50.4484 46.2549 50.6484 46.2549C50.7484 46.2549 50.9485 46.4549 50.9485 46.5549V46.6549C50.8485 46.8549 50.8485 46.7549 50.7485 46.6549C50.7485 46.5549 50.6485 46.5549 50.5485 46.5549C50.2485 46.5549 50.2485 48.0549 49.9485 48.0549C49.9485 48.0549 49.9485 48.0549 49.9485 47.9549C49.9485 47.7549 49.8485 47.5549 49.7485 47.3549C49.6485 47.0549 49.5485 46.9549 49.5485 46.9549H49.4485C49.4485 46.9549 49.4485 46.9549 49.3484 46.9549C49.2484 46.9549 49.0485 46.8549 49.0485 46.6549C49.1485 46.6549 49.2484 46.5549 49.3484 46.4549ZM43.2485 41.8549C43.1485 42.1549 42.9484 42.3549 42.6484 42.5549C42.2484 42.8549 41.7484 43.1549 41.1484 43.2549H41.0485C41.0485 43.1549 41.2485 43.1549 42.7485 42.1549C42.8485 42.0549 43.0485 41.9549 43.2485 41.8549C43.2485 41.7549 43.2484 41.6549 43.3484 41.5549C43.2484 41.7549 43.2485 41.7549 43.2485 41.8549ZM44.1484 40.2549C44.1484 40.3549 44.1485 40.5549 44.0485 40.5549C43.9485 40.5549 43.7485 39.7549 43.4485 41.1549C43.4485 41.3549 43.3484 41.4549 43.3484 41.6549C43.2484 41.7549 43.2485 41.7549 43.2485 41.6549C43.2485 41.4549 43.1485 41.2549 43.0485 41.1549C42.9485 40.8549 42.8484 40.7549 42.8484 40.7549H42.7485C42.7485 40.7549 42.7484 40.7549 42.6484 40.7549C42.5484 40.7549 42.3484 40.6549 42.3484 40.4549C42.4485 40.3549 42.4485 40.2549 42.5485 40.0549C42.9485 40.0549 43.1485 40.6549 43.2485 41.0549V41.1549C43.2485 41.1549 43.2485 41.1549 43.4485 40.2549C43.5485 39.9549 43.7485 39.7549 44.0485 39.9549C44.1485 40.0549 44.1484 40.1549 44.1484 40.2549ZM27.2485 40.9549C27.2485 41.1549 27.1485 41.5549 26.9485 41.5549C26.7485 41.5549 26.6485 41.4549 26.5485 41.1549C26.4485 41.4549 26.3484 41.5549 26.1484 41.5549C26.0484 41.5549 25.9485 41.5549 25.9485 41.4549C25.8485 41.3549 25.8484 41.2549 25.8484 41.0549C25.8484 40.6549 25.8485 40.6549 25.7485 40.6549C25.7485 40.6549 25.6484 40.6549 25.6484 40.5549C25.6484 40.4549 25.6485 40.3549 25.7485 40.3549L25.8484 40.2549C25.8484 40.2549 25.9485 40.3549 25.9485 40.4549C25.9485 40.5549 25.9485 40.7549 25.9485 40.7549C25.9485 40.9549 26.0484 41.1549 26.1484 41.1549C26.2484 41.1549 26.3484 41.1549 26.3484 41.0549C26.5484 40.8549 26.3484 40.5549 26.3484 40.3549V40.2549C26.3484 40.2549 26.3485 40.1549 26.4485 40.1549C26.5485 40.1549 26.6484 40.7549 26.6484 40.8549C26.6484 41.0549 26.7485 41.2549 26.9485 41.2549C27.0485 41.2549 27.0484 41.2549 27.1484 41.1549C27.0484 40.9549 26.9485 40.7549 26.9485 40.5549C26.9485 40.4549 27.0485 40.3549 27.0485 40.2549C27.0485 40.2549 27.0484 40.4549 27.1484 40.5549C27.1484 40.5549 27.2485 40.6549 27.2485 40.8549C27.2485 40.7549 27.2485 40.8549 27.2485 40.9549ZM39.4485 38.2549C39.4485 38.3549 39.4485 38.3549 39.3484 38.3549C39.3484 38.3549 39.3485 38.3549 39.4485 38.2549C39.4485 37.5549 39.1485 37.1549 38.7485 36.7549V36.6549L38.8484 36.4549H38.9485C39.3485 36.7549 39.6484 37.2549 39.6484 37.7549C39.5484 37.9549 39.5485 38.0549 39.4485 38.2549ZM42.2485 36.9549C42.2485 37.1549 42.1485 37.3549 42.0485 37.4549C41.9485 37.6549 41.7485 37.8549 41.5485 37.9549L41.4485 38.0549C41.4485 37.9549 42.0485 37.4549 42.0485 37.2549C42.0485 37.1549 42.0485 37.0549 41.8484 37.0549C41.7484 37.0549 41.6484 37.1549 41.6484 37.1549C41.6484 37.1549 41.6485 36.7549 42.0485 36.7549C42.2485 36.6549 42.2485 36.7549 42.2485 36.9549ZM31.5485 39.8549C31.5485 40.0549 31.4485 40.2549 31.3484 40.4549C31.2484 40.6549 31.0485 40.8549 30.7485 41.0549C30.7485 41.0549 30.6485 41.1549 30.5485 41.1549C30.5485 41.0549 31.2485 40.4549 31.2485 40.1549C31.2485 40.0549 31.1485 39.9549 31.0485 39.9549C30.9485 39.9549 30.9485 39.9549 30.8484 40.0549H30.7485C30.7485 40.0549 30.7485 39.5549 31.2485 39.5549C31.4485 39.4549 31.4485 39.5549 31.5485 39.8549ZM46.8484 47.1549C46.7484 47.3549 46.6485 47.4549 46.5485 47.5549C46.3485 47.7549 46.1485 47.8549 45.9485 47.8549C45.9485 47.8549 45.8485 47.8549 45.7485 47.8549C45.7485 47.7549 46.5485 47.4549 46.5485 47.2549C46.5485 47.1549 46.5485 47.0549 46.4485 47.0549C46.3485 47.0549 46.2485 47.0549 46.2485 47.0549C46.2485 47.0549 46.2485 47.0549 46.2485 46.9549C46.3485 46.7549 46.5485 46.6549 46.7485 46.7549C46.8485 46.8549 46.9485 47.0549 46.8484 47.1549ZM21.0485 37.2549C20.9485 37.1549 21.0485 36.9549 21.0485 36.8549C21.1485 36.7549 21.1485 36.7549 21.2485 36.7549C21.6485 36.8549 22.0484 37.1549 22.1484 37.4549V37.5549C22.1484 37.6549 22.1485 37.7549 22.0485 37.8549C21.9485 37.9549 21.9484 38.0549 21.8484 38.0549C21.8484 38.0549 21.6484 38.0549 21.3484 38.0549C21.0484 38.4549 20.5485 38.8549 20.0485 39.0549C19.7485 39.1549 19.4484 39.2549 19.1484 39.3549C19.1484 39.2549 20.6484 38.5549 21.1484 38.0549C20.8484 37.9549 20.7485 37.8549 20.7485 37.6549C20.9485 37.4549 20.9485 37.3549 21.0485 37.2549ZM21.5485 37.6549C21.5485 37.5549 21.5485 37.2549 21.4485 37.2549C21.3485 37.2549 21.3485 37.2549 21.2485 37.3549C21.1485 37.4549 21.1484 37.4549 21.1484 37.4549C21.1484 37.5549 21.2485 37.6549 21.5485 37.6549ZM22.0485 37.6549C21.9485 37.4549 21.8484 37.3549 21.6484 37.2549C21.6484 37.3549 21.6485 37.5549 21.5485 37.6549C21.7485 37.7549 21.9485 37.7549 22.0485 37.6549ZM55.3484 36.8549C55.0485 36.7549 54.9485 36.5549 54.9485 36.4549C54.9485 36.2549 55.0485 36.0549 55.2485 35.9549C55.4485 35.8549 55.5484 35.7549 55.6484 35.7549C55.7484 35.7549 55.7485 35.8549 55.7485 36.0549C55.7485 36.2549 55.7484 36.3549 55.6484 36.5549C55.7484 36.5549 55.8485 36.6549 55.9485 36.7549C55.9485 36.8549 55.8485 37.0549 55.7485 37.1549C55.6485 37.0549 55.5485 37.0549 55.5485 36.9549C55.3485 37.1549 55.2485 37.3549 54.9485 37.5549C54.5485 37.8549 54.0485 38.1549 53.4485 38.2549H53.3484C53.3484 38.0549 54.8484 37.3549 55.3484 36.8549ZM55.5485 36.4549C55.5485 36.3549 55.5485 36.0549 55.4485 36.0549C55.3485 36.0549 55.2485 36.1549 55.2485 36.1549C55.2485 36.2549 55.3485 36.3549 55.5485 36.4549Z" fill="black"/>
</g>
</svg>
