<svg width="89" height="58" viewBox="0 0 89 58" fill="none" xmlns="http://www.w3.org/2000/svg">
<g id="Client Logo">
<path id="Vector" d="M88.2475 0.254883H0.647461V57.2549H88.2475V0.254883Z" fill="white"/>
<path id="Vector_2" d="M81.5473 16.4549H7.44727V41.0549H81.5473V16.4549Z" fill="white"/>
<path id="Vector_3" d="M16.4473 21.0549C16.4473 23.6549 14.5473 25.5549 11.9473 25.5549C9.34727 25.5549 7.44727 23.6549 7.44727 21.0549C7.44727 18.4549 9.44727 16.5549 12.0473 16.5549C14.5473 16.5549 16.4473 18.4549 16.4473 21.0549Z" fill="#3F93D3"/>
<path id="Vector_4" d="M14.9473 41.0549L10.8473 39.7549C9.84727 39.3549 9.04727 38.3549 9.04727 37.5549C8.94727 36.6549 8.94727 25.1549 8.94727 24.8549C9.74727 25.5549 10.8473 25.9549 12.0473 25.9549C13.2473 25.9549 14.2473 25.5549 15.0473 24.8549C14.9473 28.1549 14.9473 41.0549 14.9473 41.0549Z" fill="#195787"/>
<path id="Vector_5" d="M37.9469 34.4549C37.1469 34.1549 36.5469 33.6549 35.9469 33.1549C35.3469 32.5549 34.9469 31.9549 34.5469 31.1549C34.2469 30.3549 34.0469 29.6549 34.0469 28.7549C34.0469 27.8549 34.2469 27.0549 34.5469 26.3549C34.8469 25.5549 35.3469 24.9549 35.9469 24.3549C36.5469 23.7549 37.2469 23.3549 37.9469 23.0549C38.7469 22.7549 39.5469 22.5549 40.4469 22.5549C41.2469 22.5549 42.0469 22.6549 42.8469 22.9549C43.5469 23.2549 44.2469 23.6549 44.7469 24.1549C45.0469 24.4549 45.2469 24.8549 45.2469 25.3549C45.2469 25.7549 45.0469 26.1549 44.7469 26.3549C44.6469 26.4549 44.4469 26.5549 44.2469 26.6549C44.0469 26.7549 43.9469 26.7549 43.7469 26.7549C43.4469 26.7549 43.2469 26.6549 42.9469 26.4549C42.8469 26.3549 42.5469 26.2549 42.2469 25.9549C41.9469 25.7549 41.5469 25.5549 41.2469 25.4549C40.9469 25.3549 40.5469 25.3549 40.1469 25.3549C39.7469 25.3549 39.2469 25.4549 38.9469 25.6549C38.5469 25.8549 38.2469 26.0549 37.9469 26.4549C37.6469 26.7549 37.4469 27.1549 37.2469 27.5549C37.0469 27.9549 37.0469 28.3549 37.0469 28.7549C37.0469 29.1549 37.1469 29.5549 37.2469 29.9549C37.4469 30.3549 37.6469 30.7549 37.9469 31.0549C38.2469 31.3549 38.5469 31.6549 39.0469 31.8549C39.4469 32.0549 39.8469 32.1549 40.3469 32.1549C40.7469 32.1549 41.0469 32.1549 41.4469 32.0549C41.7469 31.9549 42.0469 31.7549 42.4469 31.5549C42.5469 31.4549 42.6469 31.4549 42.8469 31.2549C43.0469 31.1549 43.2469 30.9549 43.4469 30.9549C43.6469 30.9549 43.8469 30.8549 44.0469 30.8549C44.1469 30.8549 44.3469 30.8549 44.5469 30.9549C44.7469 31.0549 44.8469 31.1549 45.0469 31.2549C45.3469 31.5549 45.5469 31.8549 45.5469 32.2549C45.5469 32.4549 45.5469 32.6549 45.4469 32.8549C45.3469 33.0549 45.2469 33.2549 45.0469 33.4549C44.5469 33.9549 43.8469 34.4549 43.1469 34.6549C42.4469 34.9549 41.6469 35.0549 40.7469 35.0549C39.5469 34.9549 38.7469 34.7549 37.9469 34.4549Z" fill="#195787"/>
<path id="Vector_6" d="M58.4473 26.3549C58.1473 25.5549 57.6473 24.9549 57.1473 24.3549C56.5473 23.7549 55.9473 23.3549 55.1473 23.0549C54.3473 22.7549 53.5473 22.5549 52.7473 22.5549C51.9473 22.5549 51.1473 22.7549 50.3473 23.0549C49.5473 23.3549 48.9473 23.8549 48.3473 24.3549C47.7473 24.9549 47.3473 25.5549 46.9473 26.3549C46.6473 27.1549 46.4473 27.9549 46.4473 28.7549C46.4473 29.5549 46.6473 30.3549 46.9473 31.1549C47.2473 31.9549 47.7473 32.5549 48.3473 33.1549C48.9473 33.7549 49.5473 34.1549 50.3473 34.4549C51.1473 34.7549 51.9473 34.9549 52.7473 34.9549C53.5473 34.9549 54.3473 34.7549 55.1473 34.4549C55.9473 34.1549 56.5473 33.6549 57.1473 33.1549C57.7473 32.5549 58.1473 31.9549 58.4473 31.1549C58.7473 30.3549 58.9473 29.5549 58.9473 28.7549C58.9473 27.8549 58.7473 27.0549 58.4473 26.3549ZM55.8473 30.0549C55.6473 30.4549 55.4473 30.8549 55.1473 31.1549C54.8473 31.4549 54.4473 31.7549 54.0473 31.8549C53.6473 32.0549 53.1473 32.1549 52.7473 32.1549C52.2473 32.1549 51.8473 32.0549 51.4473 31.8549C51.0473 31.6549 50.6473 31.4549 50.3473 31.1549C50.0473 30.8549 49.7473 30.4549 49.6473 30.0549C49.4473 29.6549 49.3473 29.2549 49.3473 28.7549C49.3473 28.2549 49.4473 27.8549 49.6473 27.4549C49.8473 27.0549 50.0473 26.6549 50.3473 26.3549C50.6473 26.0549 51.0473 25.8549 51.4473 25.6549C51.8473 25.4549 52.3473 25.3549 52.7473 25.3549C53.2473 25.3549 53.6473 25.4549 54.0473 25.6549C54.4473 25.8549 54.8473 26.0549 55.1473 26.3549C55.4473 26.6549 55.7473 27.0549 55.8473 27.4549C56.0473 27.8549 56.1473 28.2549 56.1473 28.7549C56.0473 29.1549 56.0473 29.6549 55.8473 30.0549Z" fill="#195787"/>
<path id="Vector_7" d="M61.0475 34.3549C60.7475 34.0549 60.6475 33.7549 60.6475 33.3549V28.9549C60.6475 28.0549 60.8475 27.2549 61.1475 26.4549C61.4475 25.6549 61.9475 24.9549 62.5475 24.3549C63.1475 23.7549 63.8475 23.2549 64.6475 22.9549C65.4475 22.6549 66.2475 22.4549 67.1475 22.4549C67.6475 22.4549 67.9475 22.5549 68.2475 22.8549C68.5475 23.1549 68.6475 23.4549 68.6475 23.8549C68.6475 24.0549 68.6475 24.2549 68.5475 24.4549C68.4475 24.6549 68.3475 24.7549 68.2475 24.9549C67.9475 25.2549 67.6475 25.3549 67.2475 25.3549H67.1475C66.6475 25.3549 66.2475 25.4549 65.7475 25.6549C65.3475 25.8549 64.9475 26.0549 64.5475 26.4549C64.2475 26.7549 63.9475 27.1549 63.7475 27.6549C63.5475 28.0549 63.4475 28.5549 63.4475 29.0549V33.5549C63.4475 33.9549 63.3475 34.2549 63.0475 34.5549C62.9475 34.6549 62.7475 34.7549 62.6475 34.8549C62.4475 34.9549 62.3475 34.9549 62.1475 34.9549C61.6475 34.8549 61.3475 34.6549 61.0475 34.3549Z" fill="#195787"/>
<path id="Vector_8" d="M81.0472 26.2549C80.7472 25.4549 80.2472 24.8549 79.6472 24.2549C79.0472 23.6549 78.4472 23.2549 77.6472 22.9549C76.8472 22.6549 76.0473 22.4549 75.2473 22.4549C74.4473 22.4549 73.6473 22.6549 72.8473 22.9549C72.0473 23.2549 71.4473 23.7549 70.8473 24.2549C70.2473 24.8549 69.8473 25.4549 69.4473 26.2549C69.1473 27.0549 68.9473 27.8549 68.9473 28.6549C68.9473 29.4549 69.1473 30.2549 69.4473 31.0549C69.7473 31.8549 70.2473 32.4549 70.8473 33.0549C71.4473 33.6549 72.1473 34.0549 72.8473 34.3549C73.6473 34.6549 74.4473 34.8549 75.2473 34.8549C75.8473 34.8549 76.3473 34.8549 76.8473 34.7549C77.3473 34.6549 77.7472 34.5549 78.0472 34.3549C78.3472 34.1549 78.6473 33.9549 78.8473 33.7549C79.0473 33.5549 79.1472 33.2549 79.1472 32.9549C79.1472 32.7549 79.1472 32.5549 79.0472 32.4549C78.9472 32.2549 78.8473 32.1549 78.7473 31.9549C78.4473 31.6549 78.1473 31.5549 77.7473 31.5549C77.5473 31.5549 77.2473 31.6549 76.9473 31.8549C76.7473 31.9549 76.4473 32.0549 76.2473 32.1549C76.0473 32.2549 75.6473 32.2549 75.3473 32.2549C74.6473 32.2549 73.9473 32.0549 73.4473 31.6549C72.8473 31.2549 72.4473 30.6549 72.2473 30.0549H80.2473C80.6473 30.0549 80.9473 29.9549 81.2473 29.6549C81.5473 29.4549 81.6472 29.0549 81.6472 28.6549C81.5472 27.8549 81.3472 27.0549 81.0472 26.2549ZM72.0472 27.6549C72.1472 27.3549 72.2473 26.9549 72.4473 26.6549C72.6473 26.3549 72.8472 26.0549 73.1472 25.8549C73.7472 25.3549 74.4473 25.1549 75.2473 25.1549C76.0473 25.1549 76.7473 25.3549 77.3473 25.8549C77.6473 26.0549 77.8472 26.3549 78.0472 26.6549C78.2472 26.9549 78.4472 27.2549 78.5472 27.6549H72.0472Z" fill="#195787"/>
<path id="Vector_9" d="M17.6475 30.7549V30.5549H20.9475V30.7549C20.9475 31.9549 22.0475 32.5549 25.0475 32.5549C28.1475 32.5549 29.2475 32.1549 29.2475 31.0549V30.9549C29.2475 30.1549 28.6475 29.7549 27.3475 29.6549L22.5475 29.3549C19.5475 29.1549 17.7475 28.1549 17.7475 25.5549C17.7475 23.0549 19.4475 21.5549 24.8475 21.5549C30.4475 21.5549 32.0475 23.2549 32.0475 25.7549V25.9549H28.7475V25.7549C28.7475 24.6549 27.7475 24.0549 24.7475 24.0549C21.8475 24.0549 21.0475 24.5549 21.0475 25.3549V25.4549C21.0475 26.3549 21.6475 26.6549 23.1475 26.7549L28.0475 27.0549C31.1475 27.2549 32.5475 28.3549 32.5475 30.6549V30.7549C32.5475 33.5549 30.6475 35.0549 25.0475 35.0549C19.1475 35.0549 17.6475 33.2549 17.6475 30.7549Z" fill="#195787"/>
<path id="Vector_10" d="M21.2473 39.3549L22.2473 37.8549C22.2473 37.7549 22.3473 37.7549 22.3473 37.7549H22.4473L22.5473 37.8549V37.9549L21.4473 39.6549V40.7549C21.4473 40.8549 21.4473 40.8549 21.3473 40.9549L21.2473 41.0549C21.1473 41.0549 21.1473 41.0549 21.0473 40.9549C21.0473 40.9549 20.9473 40.8549 20.9473 40.7549V39.6549L19.9473 38.0549V37.9549C19.9473 37.8549 19.9473 37.8549 20.0473 37.8549H20.1473C20.2473 37.8549 20.2473 37.8549 20.2473 37.9549L21.2473 39.3549Z" fill="#195787"/>
<path id="Vector_11" d="M25.7477 38.4549C25.5477 38.1549 25.3477 37.9549 25.0477 37.9549C24.5477 37.8549 24.1477 37.8549 23.7477 37.9549C23.3477 38.1549 23.0476 38.4548 22.9476 38.8548C22.8476 39.0548 22.8477 39.2549 22.8477 39.5549C22.8477 39.7549 22.8476 40.0549 22.9476 40.2549C23.0476 40.5549 23.2477 40.7549 23.5477 40.9549C23.8477 41.1549 24.1476 41.2549 24.4476 41.2549C24.6476 41.2549 24.9476 41.2549 25.1476 41.1549C25.3476 41.0549 25.5477 40.9549 25.7477 40.6549C25.9477 40.4549 26.0477 40.0549 26.0477 39.5549C26.0477 39.0549 25.9477 38.7549 25.7477 38.4549ZM25.3477 40.3548C25.1477 40.6548 24.8476 40.8548 24.4476 40.8548C24.1476 40.8548 23.8476 40.7549 23.6476 40.5549C23.4476 40.3549 23.2477 39.9549 23.2477 39.5549C23.2477 39.1549 23.3476 38.8549 23.4476 38.6549C23.5476 38.4549 23.7477 38.3549 23.8477 38.2549C23.9477 38.1549 24.1477 38.1549 24.3477 38.1549C24.6477 38.1549 24.8476 38.2549 25.1476 38.4549C25.3476 38.6549 25.5477 38.9548 25.5477 39.3548C25.6477 39.6548 25.5477 40.0548 25.3477 40.3548Z" fill="#195787"/>
<path id="Vector_12" d="M29.3471 37.9549V39.9549C29.3471 40.7549 28.9471 41.1549 28.0471 41.1549C27.8471 41.1549 27.7471 41.1549 27.5471 41.0549C27.4471 41.0549 27.2471 40.9549 27.1471 40.8549C27.0471 40.7549 26.9471 40.6549 26.8471 40.4549C26.7471 40.2549 26.7471 40.1549 26.7471 39.9549V37.9549C26.7471 37.8549 26.7471 37.8549 26.8471 37.8549L26.9471 37.7549C27.0471 37.7549 27.0471 37.7549 27.1471 37.8549L27.2471 37.9549V39.8549C27.2471 40.1549 27.3471 40.3549 27.4471 40.5549C27.5471 40.7549 27.8471 40.7549 28.0471 40.7549C28.3471 40.7549 28.5471 40.6549 28.6471 40.5549C28.7471 40.3549 28.8471 40.1549 28.8471 39.8549V37.9549C28.8471 37.8549 28.8471 37.8549 28.9471 37.8549L29.0471 37.7549C29.0471 37.7549 29.1471 37.7549 29.1471 37.8549C29.3471 37.8549 29.3471 37.9549 29.3471 37.9549Z" fill="#195787"/>
<path id="Vector_13" d="M32.3477 40.3549C32.2477 40.0549 32.0477 39.7549 31.7477 39.5549C31.9477 39.5549 32.1477 39.4549 32.2477 39.2549C32.3477 39.0549 32.4476 38.9549 32.4476 38.6549C32.4476 38.4549 32.3477 38.2549 32.2477 38.0549C32.0477 37.8549 31.8476 37.8549 31.4476 37.8549H30.6476C30.5476 37.8549 30.5476 37.8549 30.4476 37.9549C30.4476 37.9549 30.3477 38.0549 30.3477 38.1549V40.9549C30.3477 41.0549 30.3476 41.0549 30.4476 41.0549L30.5477 41.1549C30.6477 41.1549 30.6477 41.1549 30.7477 41.0549L30.8477 40.9549V39.5549H31.1476C31.2476 39.5549 31.3476 39.5549 31.4476 39.5549C31.7476 39.8549 31.9476 40.3549 32.1476 40.8549C32.1476 40.9549 32.2477 40.9549 32.2477 41.0549C32.3477 41.0549 32.3476 41.1549 32.4476 41.1549C32.5476 41.1549 32.5477 41.1549 32.5477 41.1549V41.0549C32.5477 40.8549 32.4477 40.6549 32.3477 40.3549ZM30.7477 39.3549V38.1549H31.2477C31.3477 38.1549 31.4476 38.1549 31.6476 38.2549C31.8476 38.3549 31.9476 38.4549 31.9476 38.7549C31.9476 38.9549 31.9477 39.0549 31.8477 39.1549C31.7477 39.2549 31.6476 39.3549 31.4476 39.3549C31.3476 39.3549 31.0477 39.3549 30.7477 39.3549Z" fill="#195787"/>
<path id="Vector_14" d="M35.0475 37.9549V40.8549C35.0475 40.9549 35.0475 40.9549 34.9475 40.9549L34.8475 41.0549C34.7475 41.0549 34.7475 41.0549 34.7475 40.9549L34.6475 40.8549V37.9549C34.6475 37.8549 34.6475 37.8549 34.7475 37.8549L34.8475 37.7549C34.9475 37.7549 34.9475 37.7549 34.9475 37.8549C35.0475 37.8549 35.0475 37.9549 35.0475 37.9549Z" fill="#195787"/>
<path id="Vector_15" d="M36.0469 40.9549V38.0549C36.0469 37.9549 36.0469 37.9549 36.1469 37.9549L36.2469 37.8549C36.3469 37.8549 36.4469 37.9549 36.5469 38.0549L38.3469 40.4549V38.0549C38.3469 37.9549 38.3469 37.9549 38.4469 37.9549H38.5469C38.6469 37.9549 38.6469 37.9549 38.6469 37.9549V38.0549V41.0549V41.1549H38.5469C38.4469 41.1549 38.3469 41.1549 38.3469 41.0549L36.3469 38.4549V40.9549C36.3469 41.0549 36.3469 41.0549 36.3469 41.0549L36.2469 41.1549C36.1469 41.1549 36.1469 41.1549 36.1469 41.0549C36.1469 40.9549 36.0469 40.9549 36.0469 40.9549Z" fill="#195787"/>
<path id="Vector_16" d="M41.4469 39.5549H40.1469V40.8549C40.1469 40.9549 40.1469 40.9549 40.0469 41.0549C40.0469 41.0549 39.9469 41.1549 39.8469 41.1549C39.7469 41.1549 39.7469 41.1549 39.6469 41.0549C39.6469 41.0549 39.5469 40.9549 39.5469 40.8549V38.0549C39.5469 37.9549 39.5469 37.9549 39.6469 37.8549C39.6469 37.8549 39.7469 37.7549 39.8469 37.7549H41.4469H41.5469V37.8549V37.9549H41.4469H40.0469V39.0549H41.3469H41.4469V39.1549V39.2549C41.5469 39.5549 41.5469 39.5549 41.4469 39.5549Z" fill="#195787"/>
<path id="Vector_17" d="M45.1471 38.4549C44.9471 38.1549 44.7471 37.9549 44.4471 37.9549C43.9471 37.8549 43.5471 37.8549 43.1471 37.9549C42.7471 38.1549 42.4471 38.4548 42.3471 38.8548C42.2471 39.0548 42.2471 39.2549 42.2471 39.5549C42.2471 39.7549 42.2471 40.0549 42.3471 40.2549C42.4471 40.5549 42.6471 40.7549 42.9471 40.9549C43.2471 41.1549 43.5471 41.2549 43.8471 41.2549C44.0471 41.2549 44.3471 41.2549 44.5471 41.1549C44.7471 41.0549 44.9471 40.9549 45.1471 40.6549C45.3471 40.4549 45.4471 40.0549 45.4471 39.5549C45.4471 39.0549 45.3471 38.7549 45.1471 38.4549ZM44.7471 40.3548C44.5471 40.6548 44.2471 40.8548 43.8471 40.8548C43.5471 40.8548 43.2471 40.7549 43.0471 40.5549C42.8471 40.3549 42.6471 39.9549 42.6471 39.5549C42.6471 39.1549 42.7471 38.8549 42.8471 38.6549C42.9471 38.4549 43.1471 38.3549 43.2471 38.2549C43.3471 38.1549 43.5471 38.1549 43.7471 38.1549C44.0471 38.1549 44.2471 38.2549 44.5471 38.4549C44.7471 38.6549 44.9471 38.9548 44.9471 39.3548C44.9471 39.6548 44.8471 40.0548 44.7471 40.3548Z" fill="#195787"/>
<path id="Vector_18" d="M48.1475 40.3549C48.0475 40.0549 47.8475 39.7549 47.5475 39.5549C47.7475 39.5549 47.9475 39.4549 48.0475 39.2549C48.1475 39.0549 48.2475 38.9549 48.2475 38.6549C48.2475 38.4549 48.1475 38.2549 48.0475 38.0549C47.8475 37.8549 47.6475 37.8549 47.2475 37.8549H46.4475C46.3475 37.8549 46.3475 37.8549 46.2475 37.9549C46.2475 37.9549 46.1475 38.0549 46.1475 38.1549V40.9549C46.1475 41.0549 46.1475 41.0549 46.2475 41.0549L46.3475 41.1549C46.4475 41.1549 46.4475 41.1549 46.5475 41.0549L46.6475 40.9549V39.5549H46.9475C47.0475 39.5549 47.1475 39.5549 47.2475 39.5549C47.5475 39.8549 47.7475 40.3549 47.9475 40.8549C47.9475 40.9549 48.0475 40.9549 48.0475 41.0549C48.1475 41.0549 48.1475 41.1549 48.2475 41.1549C48.3475 41.1549 48.3475 41.1549 48.3475 41.1549V41.0549C48.4475 40.8549 48.3475 40.6549 48.1475 40.3549ZM46.6475 39.3549V38.1549H47.1475C47.2475 38.1549 47.3475 38.1549 47.5475 38.2549C47.7475 38.3549 47.8475 38.4549 47.8475 38.7549C47.8475 38.9549 47.8475 39.0549 47.7475 39.1549C47.6475 39.2549 47.5475 39.3549 47.3475 39.3549C47.1475 39.3549 46.9475 39.3549 46.6475 39.3549Z" fill="#195787"/>
<path id="Vector_19" d="M49.5471 37.7549C49.6471 37.7549 49.7471 37.8549 49.8471 37.9549L50.8471 40.3549L51.8471 37.9549C51.8471 37.8549 51.9471 37.7549 52.1471 37.7549C52.2471 37.7549 52.2471 37.7549 52.2471 37.7549L52.3471 37.8549L52.5471 40.7549C52.5471 40.8549 52.5471 40.8549 52.5471 40.9549L52.4471 41.0549C52.3471 41.0549 52.3471 41.0549 52.2471 41.0549L52.1471 40.9549L51.9471 38.5549L50.9471 41.0549C50.9471 41.1549 50.8471 41.1549 50.8471 41.1549C50.7471 41.1549 50.7471 41.1549 50.7471 41.0549L49.7471 38.5549L49.5471 40.9549C49.5471 41.0549 49.5471 41.0549 49.4471 41.0549H49.3471C49.2471 41.0549 49.2471 41.0549 49.2471 40.9549V40.8549L49.4471 37.9549C49.4471 37.8549 49.4471 37.8549 49.5471 37.8549C49.4471 37.7549 49.4471 37.7549 49.5471 37.7549Z" fill="#195787"/>
<path id="Vector_20" d="M55.9475 40.7549L54.6475 37.8549C54.6475 37.7549 54.5475 37.7549 54.5475 37.7549C54.4475 37.7549 54.4475 37.7549 54.4475 37.8549L53.1475 40.8549C53.1475 40.9549 53.1475 40.9549 53.1475 41.0549L53.2475 41.1549C53.3475 41.1549 53.3475 41.1549 53.4475 41.0549L53.8475 40.2549H55.3475L55.6475 41.0549C55.6475 41.1549 55.7475 41.1549 55.8475 41.1549H55.9475C56.0475 41.1549 56.0475 41.0549 56.0475 40.9549C55.9475 40.8549 55.9475 40.8549 55.9475 40.7549ZM53.8475 39.8549L54.4475 38.4549L55.0475 39.8549H53.8475Z" fill="#195787"/>
<path id="Vector_21" d="M58.6475 38.1549H57.7475V40.8549C57.7475 40.9549 57.7475 40.9549 57.6475 41.0549C57.6475 41.0549 57.5475 41.1549 57.4475 41.1549C57.3475 41.1549 57.3475 41.1549 57.2475 41.0549C57.2475 41.0549 57.1475 40.9549 57.1475 40.8549V38.1549H56.2475H56.1475V38.0549V37.9549H56.2475H58.4475H58.5475V38.0549V38.1549C58.7475 38.1549 58.6475 38.1549 58.6475 38.1549Z" fill="#195787"/>
<path id="Vector_22" d="M59.8477 37.9549V40.8549C59.8477 40.9549 59.8477 40.9549 59.7477 40.9549C59.7477 40.9549 59.6477 41.0549 59.5477 41.0549C59.4477 41.0549 59.4476 41.0549 59.4476 40.9549L59.3477 40.8549V37.9549C59.3477 37.8549 59.3476 37.8549 59.4476 37.8549L59.5477 37.7549C59.6477 37.7549 59.6477 37.7549 59.7477 37.8549C59.8477 37.8549 59.8477 37.9549 59.8477 37.9549Z" fill="#195787"/>
<path id="Vector_23" d="M63.5475 38.4549C63.3475 38.1549 63.1475 37.9549 62.8475 37.9549C62.3475 37.8549 61.9475 37.8549 61.5475 37.9549C61.1475 38.1549 60.8475 38.4548 60.7475 38.8548C60.6475 39.0548 60.6475 39.2549 60.6475 39.5549C60.6475 39.7549 60.6475 40.0549 60.7475 40.2549C60.8475 40.5549 61.0475 40.7549 61.3475 40.9549C61.6475 41.1549 61.9475 41.2549 62.2475 41.2549C62.4475 41.2549 62.7475 41.2549 62.9475 41.1549C63.1475 41.0549 63.3475 40.9549 63.5475 40.6549C63.7475 40.4549 63.8475 40.0549 63.8475 39.5549C63.8475 39.0549 63.7475 38.7549 63.5475 38.4549ZM63.1475 40.3548C62.9475 40.6548 62.6475 40.8548 62.2475 40.8548C61.9475 40.8548 61.6475 40.7549 61.4475 40.5549C61.2475 40.3549 61.0475 39.9549 61.0475 39.5549C61.0475 39.1549 61.1475 38.8549 61.2475 38.6549C61.4475 38.4549 61.5475 38.3549 61.6475 38.2549C61.7475 38.1549 61.9475 38.1549 62.1475 38.1549C62.4475 38.1549 62.6475 38.2549 62.9475 38.4549C63.1475 38.6549 63.3475 38.9548 63.3475 39.3548C63.3475 39.6548 63.2475 40.0548 63.1475 40.3548Z" fill="#195787"/>
<path id="Vector_24" d="M64.6475 40.9549V38.0549C64.6475 37.9549 64.6475 37.9549 64.7475 37.9549L64.8475 37.8549C64.9475 37.8549 65.0475 37.9549 65.1475 38.0549L66.9475 40.4549V38.0549C66.9475 37.9549 66.9475 37.9549 67.0475 37.9549H67.1475C67.2475 37.9549 67.2475 37.9549 67.2475 37.9549V38.0549V41.0549V41.1549H67.1475C67.0475 41.1549 66.9475 41.1549 66.9475 41.0549L64.9475 38.4549V40.9549C64.9475 41.0549 64.9475 41.0549 64.9475 41.0549L64.8475 41.1549C64.7475 41.1549 64.7475 41.1549 64.7475 41.0549C64.6475 40.9549 64.6475 40.9549 64.6475 40.9549Z" fill="#195787"/>
<path id="Vector_25" d="M70.0469 37.9549V39.1549H71.7469V37.9549C71.7469 37.8549 71.7469 37.8549 71.8469 37.7549C71.9469 37.6549 71.9469 37.6549 71.9469 37.6549C72.0469 37.6549 72.0469 37.6549 72.1469 37.7549C72.1469 37.7549 72.2469 37.8549 72.2469 37.9549V40.8549C72.2469 40.9549 72.2469 40.9549 72.1469 40.9549C72.0469 40.9549 72.0469 41.0549 71.9469 41.0549C71.8469 41.0549 71.8469 41.0549 71.8469 40.9549C71.8469 40.8549 71.7469 40.8549 71.7469 40.8549V39.5549H70.0469V40.9549C70.0469 41.0549 70.0469 41.0549 69.9469 41.0549C69.8469 41.0549 69.8469 41.1549 69.7469 41.1549C69.6469 41.1549 69.6469 41.1549 69.6469 41.0549C69.6469 40.9549 69.5469 40.9549 69.5469 40.9549V38.0549C69.5469 37.9549 69.5469 37.9549 69.6469 37.9549C69.7469 37.9549 69.7469 37.8549 69.7469 37.8549C69.8469 37.8549 69.8469 37.8549 69.9469 37.9549C70.0469 37.8549 70.0469 37.9549 70.0469 37.9549Z" fill="#195787"/>
<path id="Vector_26" d="M75.6469 37.9549V39.9549C75.6469 40.7549 75.2469 41.1549 74.3469 41.1549C74.1469 41.1549 74.0469 41.1549 73.8469 41.0549C73.7469 41.0549 73.5469 40.9549 73.4469 40.8549C73.3469 40.7549 73.2469 40.6549 73.1469 40.4549C73.0469 40.3549 73.0469 40.1549 73.0469 39.9549V37.9549C73.0469 37.8549 73.0469 37.8549 73.1469 37.8549L73.2469 37.7549C73.2469 37.7549 73.3469 37.7549 73.3469 37.8549L73.4469 37.9549V39.8549C73.4469 40.1549 73.5469 40.3549 73.6469 40.5549C73.7469 40.7549 74.0469 40.7549 74.2469 40.7549C74.5469 40.7549 74.7469 40.6549 74.8469 40.5549C74.9469 40.3549 75.0469 40.1549 75.0469 39.8549V37.9549C75.0469 37.8549 75.0469 37.8549 75.1469 37.8549L75.2469 37.7549C75.3469 37.7549 75.3469 37.7549 75.3469 37.8549C75.6469 37.8549 75.6469 37.9549 75.6469 37.9549Z" fill="#195787"/>
<path id="Vector_27" d="M78.6475 39.5549C78.4475 39.4549 78.2475 39.3549 78.0475 39.3549C78.2475 39.3549 78.3475 39.2549 78.5475 39.0549C78.6475 38.8549 78.7475 38.7549 78.7475 38.5549C78.7475 38.3549 78.6475 38.1549 78.4475 38.0549C78.2475 37.8549 78.0475 37.8549 77.7475 37.8549H76.8475C76.7475 37.8549 76.7475 37.8549 76.7475 37.9549C76.7475 37.9549 76.6475 38.0549 76.6475 38.1549V40.9549C76.6475 41.0549 76.6475 41.0549 76.7475 41.1549L76.8475 41.2549H77.7475C77.9475 41.2549 78.2475 41.1549 78.4475 41.0549C78.6475 40.9549 78.8475 40.6549 78.8475 40.3549C78.8475 39.8549 78.8475 39.6549 78.6475 39.5549ZM77.1475 38.1549H77.6475C78.1475 38.1549 78.3475 38.3549 78.3475 38.6549C78.3475 38.7549 78.3475 38.8549 78.2475 39.0549C78.1475 39.1549 77.9475 39.2549 77.5475 39.2549H77.1475V38.1549ZM78.2475 40.5549C78.1475 40.6549 77.9475 40.7549 77.6475 40.7549H77.0475V39.4549H77.4475C77.5475 39.4549 77.7475 39.4549 77.9475 39.4549C78.2475 39.4549 78.3475 39.6549 78.3475 40.0549C78.4475 40.2549 78.3475 40.4549 78.2475 40.5549Z" fill="#195787"/>
</g>
</svg>
