<svg width="88" height="58" viewBox="0 0 88 58" fill="none" xmlns="http://www.w3.org/2000/svg">
<g id="Client Logo">
<g id="Group 39912">
<path id="Vector" d="M87.7523 0.254883H0.152344V57.2549H87.7523V0.254883Z" fill="white"/>
<path id="Vector_2" d="M74.2523 20.7549H13.6523V36.7549H74.2523V20.7549Z" fill="white"/>
<path id="Vector_3" d="M50.7523 32.9549C48.9524 28.9549 47.2524 24.8549 45.4524 20.8549H38.4524C36.3524 25.4549 34.2523 30.0549 32.2523 34.6549C31.9524 32.5549 31.9524 30.2549 29.3524 29.4549C29.9524 29.2549 30.5523 28.8549 31.0523 28.3549C32.9523 26.1549 31.7523 22.4549 28.7523 21.2549C28.0524 20.9549 27.2523 20.8549 26.5523 20.8549C22.2523 20.8549 17.9523 20.8549 13.6523 20.8549V36.8549H19.6523V31.7549C21.3523 31.8549 22.9523 31.3549 24.5523 31.9549C25.6523 32.3549 25.6523 33.5549 25.7523 34.4549C25.7523 34.8549 25.7523 35.2549 25.7523 35.6549C25.7523 36.3549 25.9523 36.8549 26.6523 36.8549H37.7523C38.9524 33.3549 40.2523 29.7549 41.5523 26.1549C42.8523 29.7549 44.2523 33.3549 45.5523 36.8549H47.2523C46.9524 35.8549 46.5523 34.7549 46.2523 33.7549C46.2523 33.6549 46.1523 33.5549 46.1523 33.4549C47.0523 33.4549 49.8524 33.4549 50.4524 33.4549C50.7524 33.3549 50.8523 33.1549 50.7523 32.9549ZM25.3524 26.5549C25.3524 27.3549 24.8523 27.8549 24.1523 27.9549C22.6523 28.2549 21.0523 27.9549 19.5523 28.0549V24.8549C21.1523 24.9549 22.7524 24.6549 24.3524 25.0549C24.9524 25.2549 25.4524 25.7549 25.3524 26.5549Z" fill="#006CB7"/>
<path id="Vector_4" d="M52.6523 36.7549C53.3523 36.7549 53.5524 36.2549 53.8524 35.7549C56.0524 31.5549 60.0524 21.4549 60.2523 20.7549H66.4524C67.1524 22.2549 67.9523 23.7549 68.6523 25.3549C70.4523 29.1549 74.1523 36.7549 74.1523 36.7549H67.5523C66.1523 33.1549 64.7524 29.4549 63.3524 25.7549C63.1524 26.3549 62.9523 26.9549 62.7523 27.5549C61.6523 30.6549 60.5524 33.6549 59.4524 36.7549H52.6523Z" fill="#006CB7"/>
<path id="Vector_5" d="M55.9525 20.7549C54.8525 22.9549 53.7525 25.1549 52.5525 27.4549C51.4525 25.2549 50.3525 23.0549 49.3525 20.7549H55.9525Z" fill="#006CB7"/>
</g>
</g>
</svg>
