<svg width="88" height="58" viewBox="0 0 88 58" fill="none" xmlns="http://www.w3.org/2000/svg">
<g id="Client Logo">
<path id="Vector" d="M87.6 0.04245H0V57.0424H87.6V0.04245Z" fill="white"/>
<path id="Vector_2" d="M37.0996 13.8424C37.0996 13.8424 35.4996 12.0424 32.0996 13.3424C32.0996 13.3424 33.9996 15.1424 36.8996 13.9424L37.0996 13.8424Z" fill="#008641"/>
<path id="Vector_3" d="M37.0996 13.8424C37.0996 13.8424 35.4996 12.0424 32.0996 13.3424C32.0996 13.3424 33.9996 15.1424 36.8996 13.9424L37.0996 13.8424Z" stroke="#008641" stroke-width="0.178" stroke-linejoin="round"/>
<path id="Vector_4" d="M32.8 11.9425C32.8 11.9425 29.4 10.8425 26.5 13.7425C26.5 13.7425 28.4 15.3425 32.7 14.7425C32.7 14.7425 31.7 13.7425 30.4 13.6425C30.4 13.6425 31.9 13.1425 32.7 12.1425L32.8 11.9425Z" fill="#008641"/>
<path id="Vector_5" d="M32.8 11.9425C32.8 11.9425 29.4 10.8425 26.5 13.7425C26.5 13.7425 28.4 15.3425 32.7 14.7425C32.7 14.7425 31.7 13.7425 30.4 13.6425C30.4 13.6425 31.9 13.1425 32.7 12.1425L32.8 11.9425Z" stroke="#008641" stroke-width="0.178" stroke-linecap="round" stroke-linejoin="round"/>
<path id="Vector_6" d="M26.7998 12.1424C26.7998 12.1424 23.0998 12.3424 21.2998 16.1424C21.2998 16.1424 23.7998 17.0424 27.6998 14.9424C27.6998 14.9424 26.3998 14.2424 25.0998 14.6424C25.0998 14.6424 26.3998 13.5424 26.7998 12.3424V12.1424Z" fill="#008641"/>
<path id="Vector_7" d="M26.7998 12.1424C26.7998 12.1424 23.0998 12.3424 21.2998 16.1424C21.2998 16.1424 23.7998 17.0424 27.6998 14.9424C27.6998 14.9424 26.3998 14.2424 25.0998 14.6424C25.0998 14.6424 26.3998 13.5424 26.7998 12.3424V12.1424Z" stroke="#008641" stroke-width="0.186" stroke-linecap="round" stroke-linejoin="round"/>
<path id="Vector_8" d="M20.9002 14.3424C20.9002 14.3424 17.4002 15.5424 17.2002 20.1424C17.2002 20.1424 20.0002 20.4424 22.9002 16.9424C22.9002 16.9424 21.3002 16.6424 20.2002 17.3424C20.2002 17.3424 21.0002 15.8424 20.8002 14.3424H20.9002Z" fill="#008641"/>
<path id="Vector_9" d="M20.9002 14.3424C20.9002 14.3424 17.4002 15.5424 17.2002 20.1424C17.2002 20.1424 20.0002 20.4424 22.9002 16.9424C22.9002 16.9424 21.3002 16.6424 20.2002 17.3424C20.2002 17.3424 21.0002 15.8424 20.8002 14.3424H20.9002Z" stroke="#008641" stroke-width="0.2" stroke-linecap="round" stroke-linejoin="round"/>
<path id="Vector_10" d="M13.3001 23.9424C13.3001 23.9424 12.5001 29.8424 15.8001 32.5424C15.8001 32.5424 16.0001 30.8424 16.7001 29.8424C17.4001 28.8424 17.9001 26.2424 17.9001 25.2424C17.9001 25.2424 16.0001 26.4424 15.5001 28.2424C15.5001 28.2424 14.8001 25.3424 13.5001 24.2424L13.3001 23.9424Z" fill="#008641"/>
<path id="Vector_11" d="M13.3001 23.9424C13.3001 23.9424 12.5001 29.8424 15.8001 32.5424C15.8001 32.5424 16.0001 30.8424 16.7001 29.8424C17.4001 28.8424 17.9001 26.2424 17.9001 25.2424C17.9001 25.2424 16.0001 26.4424 15.5001 28.2424C15.5001 28.2424 14.8001 25.3424 13.5001 24.2424L13.3001 23.9424Z" stroke="#008641" stroke-width="0.178" stroke-linecap="round" stroke-linejoin="round"/>
<path id="Vector_12" d="M15.8001 18.4424C15.8001 18.4424 13.4001 23.2424 15.5001 26.4424C15.5001 26.4424 16.1001 25.0424 17.1001 24.4424C18.0001 23.8424 19.1001 21.7424 19.4001 20.8424C19.4001 20.8424 17.5001 21.3424 16.5001 22.6424C16.5001 22.6424 16.7001 20.0424 16.0001 18.6424L15.8001 18.4424Z" fill="#008641"/>
<path id="Vector_13" d="M15.8001 18.4424C15.8001 18.4424 13.4001 23.2424 15.5001 26.4424C15.5001 26.4424 16.1001 25.0424 17.1001 24.4424C18.0001 23.8424 19.1001 21.7424 19.4001 20.8424C19.4001 20.8424 17.5001 21.3424 16.5001 22.6424C16.5001 22.6424 16.7001 20.0424 16.0001 18.6424L15.8001 18.4424Z" stroke="#008641" stroke-width="0.159" stroke-linecap="round" stroke-linejoin="round"/>
<path id="Vector_14" d="M13.8 32.4424C13.8 32.4424 13.7 36.1424 18 37.9424C18 37.9424 19.2 35.4424 17.1 31.4424C17.1 31.4424 16.2 32.8424 16.5 34.1424C16.5 34.1424 15.4 32.8424 13.9 32.5424L13.8 32.4424Z" fill="#008641"/>
<path id="Vector_15" d="M13.8 32.4424C13.8 32.4424 13.7 36.1424 18 37.9424C18 37.9424 19.2 35.4424 17.1 31.4424C17.1 31.4424 16.2 32.8424 16.5 34.1424C16.5 34.1424 15.4 32.8424 14 32.5424L13.8 32.4424Z" stroke="#008641" stroke-width="0.2" stroke-linecap="round" stroke-linejoin="round"/>
<path id="Vector_16" d="M15.5 37.9424C15.5 37.9424 17.3 41.1424 21.6 40.9424C21.6 40.9424 21.5 37.8424 19.2 36.1424C19.2 36.1424 18.8 37.9424 19.5 39.2424C19.5 39.2424 18.5 38.2424 15.8 38.0424H15.5V37.9424Z" fill="#008641"/>
<path id="Vector_17" d="M15.5 37.9424C15.5 37.9424 17.3 41.1424 21.6 40.9424C21.6 40.9424 21.5 37.8424 19.2 36.1424C19.2 36.1424 18.8 37.9424 19.5 39.2424C19.5 39.2424 18.5 38.2424 15.8 38.0424H15.5V37.9424Z" stroke="#008641" stroke-width="0.178" stroke-linecap="round" stroke-linejoin="round"/>
<path id="Vector_18" d="M19.5996 42.4424C19.5996 42.4424 22.1996 44.8424 26.0996 43.4424C26.0996 43.4424 25.0996 40.5424 22.3996 39.6424C22.3996 39.6424 22.4996 41.4424 23.4996 42.4424C23.4996 42.4424 22.2996 41.8424 19.6996 42.4424H19.5996Z" fill="#008641"/>
<path id="Vector_19" d="M19.5996 42.4424C19.5996 42.4424 22.1996 44.8424 26.0996 43.4424C26.0996 43.4424 25.0996 40.5424 22.3996 39.6424C22.3996 39.6424 22.4996 41.4424 23.4996 42.4424C23.4996 42.4424 22.2996 41.8424 19.6996 42.4424H19.5996Z" stroke="#008641" stroke-width="0.173" stroke-linecap="round" stroke-linejoin="round"/>
<path id="Vector_20" d="M25.2998 44.9424C25.2998 44.9424 28.0998 46.3424 30.9998 44.1424C30.9998 44.1424 29.3998 41.9424 26.8998 41.8424C26.8998 41.8424 27.4998 43.3424 28.5998 43.9424C28.5998 43.9424 27.3998 43.7424 25.3998 44.8424L25.2998 44.9424Z" fill="#008641"/>
<path id="Vector_21" d="M25.2998 44.9424C25.2998 44.9424 28.0998 46.3424 30.9998 44.1424C30.9998 44.1424 29.3998 41.9424 26.8998 41.8424C26.8998 41.8424 27.4998 43.3424 28.5998 43.9424C28.5998 43.9424 27.3998 43.7424 25.3998 44.8424L25.2998 44.9424Z" stroke="#008641" stroke-width="0.173" stroke-linecap="round" stroke-linejoin="round"/>
<path id="Vector_22" d="M31.7998 43.6424C31.7998 43.6424 33.2998 45.2424 35.6998 43.8424C35.6998 43.8424 36.3998 43.3424 36.5998 42.2424C36.5998 42.2424 35.4998 43.8424 31.8998 43.5424L31.7998 43.6424Z" fill="#008641"/>
<path id="Vector_23" d="M31.7998 43.6424C31.7998 43.6424 33.2998 45.2424 35.6998 43.8424C35.6998 43.8424 36.3998 43.3424 36.5998 42.2424C36.5998 42.2424 35.4998 43.8424 31.8998 43.5424L31.7998 43.6424Z" stroke="#008641" stroke-width="0.178" stroke-linecap="round" stroke-linejoin="round"/>
<path id="Vector_24" d="M28.2002 35.3424H46.6002L37.3002 25.3424L28.2002 35.3424Z" fill="#FFE3A6"/>
<path id="Vector_25" d="M28.2002 35.3424H46.6002L37.3002 25.3424L28.2002 35.3424Z" stroke="#582A24" stroke-width="0.178" stroke-linecap="round" stroke-linejoin="round"/>
<path id="Vector_26" d="M42.3998 35.3424H46.5998L37.2998 25.3424L42.3998 35.3424Z" fill="#582A24"/>
<path id="Vector_27" d="M42.3998 35.3424H46.5998L37.2998 25.3424L42.3998 35.3424Z" stroke="#582A24" stroke-width="0.178" stroke-linecap="round" stroke-linejoin="round"/>
<path id="Vector_28" d="M35.5996 35.3424H58.0996L46.6996 23.0424L35.5996 35.3424Z" fill="#FFE3A6"/>
<path id="Vector_29" d="M35.5996 35.3424H58.0996L46.6996 23.0424L35.5996 35.3424Z" stroke="#582A24" stroke-width="0.178" stroke-linecap="round" stroke-linejoin="round"/>
<path id="Vector_30" d="M52.9002 35.3424H58.1002L46.7002 23.0424L52.9002 35.3424Z" fill="#582A24"/>
<path id="Vector_31" d="M52.9002 35.3424H58.1002L46.7002 23.0424L52.9002 35.3424Z" stroke="#582A24" stroke-width="0.178" stroke-linecap="round" stroke-linejoin="round"/>
<path id="Vector_32" d="M44 35.3424H72.6L58.2 19.7424L44 35.3424Z" fill="#FFE3A6"/>
<path id="Vector_33" d="M44 35.3424H72.6L58.2 19.7424L44 35.3424Z" stroke="#582A24" stroke-width="0.178" stroke-linecap="round" stroke-linejoin="round"/>
<path id="Vector_34" d="M66.0002 35.3424H72.6002L58.2002 19.7424L66.0002 35.3424Z" fill="#582A24"/>
<path id="Vector_35" d="M66.0002 35.3424H72.6002L58.2002 19.7424L66.0002 35.3424Z" stroke="#582A24" stroke-width="0.178" stroke-linecap="round" stroke-linejoin="round"/>
<path id="Vector_36" d="M27.3001 37.5424C28.3001 38.5424 32.8001 35.7424 37.3001 31.2424C41.8001 26.7424 44.6001 22.2424 43.6001 21.2424C42.6001 20.2424 38.1001 23.0424 33.6001 27.5424C29.1001 32.0424 26.3001 36.5424 27.3001 37.5424Z" stroke="#A70E13" stroke-width="0.533"/>
<path id="Vector_37" d="M37.9994 25.7424C37.6994 20.9424 36.6994 17.8424 35.4994 17.8424C33.9994 17.8424 32.8994 23.0424 32.8994 29.4424C32.8994 35.8424 34.0994 41.0424 35.4994 41.0424C36.4994 41.0424 37.2994 38.6424 37.7994 35.1424" stroke="#A70E13" stroke-width="0.533"/>
<path id="Vector_38" d="M36.1995 26.4424C31.8995 22.2424 27.9995 20.3424 27.1995 21.2424C26.1995 22.2424 28.9995 26.7424 33.4995 31.2424C37.9995 35.7424 42.4995 38.5424 43.4995 37.5424C43.8995 37.2424 43.7995 36.4424 43.2995 35.4424" stroke="#A70E13" stroke-width="0.533"/>
<path id="Vector_39" d="M35.8998 26.7424C28.6998 26.5424 23.7998 28.2424 23.7998 29.3424C23.7998 30.8424 28.9998 31.9424 35.3998 31.9424C41.7998 31.9424 45.4998 30.6424 45.4998 30.6424" stroke="#A70E13" stroke-width="0.533"/>
<path id="Vector_40" d="M34 20.8424C34.5 20.8424 35 20.4424 35 19.8424C35 19.3424 34.6 18.8424 34 18.8424C33.5 18.8424 33 19.2424 33 19.8424C33 20.3424 33.4 20.8424 34 20.8424Z" fill="#A70E13"/>
<path id="Vector_41" d="M25.3994 29.1424C25.8994 29.1424 26.3994 28.7424 26.3994 28.1424C26.3994 27.6424 25.9994 27.1424 25.3994 27.1424C24.8994 27.1424 24.3994 27.5424 24.3994 28.1424C24.3994 28.7424 24.8994 29.1424 25.3994 29.1424Z" fill="#A70E13"/>
<path id="Vector_42" d="M43.7002 23.5424C44.2002 23.5424 44.7002 23.1424 44.7002 22.5424C44.7002 22.0424 44.3002 21.5424 43.7002 21.5424C43.2002 21.5424 42.7002 21.9424 42.7002 22.5424C42.7002 23.1424 43.2002 23.5424 43.7002 23.5424Z" fill="#A70E13"/>
<path id="Vector_43" d="M35.5 30.5424C36.3 30.5424 37 29.8424 37 29.0424C37 28.2424 36.3 27.5424 35.5 27.5424C34.7 27.5424 34 28.2424 34 29.0424C34 29.8424 34.6 30.5424 35.5 30.5424Z" fill="#A70E13"/>
<path id="Vector_44" d="M73.0998 43.5424C72.9998 43.5424 72.8998 43.5424 72.8998 43.4424C72.7998 43.3424 72.7998 43.3424 72.7998 43.2424C72.7998 43.1424 72.8998 43.0424 72.9998 43.0424C73.0998 43.0424 73.1998 43.1424 73.2998 43.3424L73.3998 43.5424H73.0998ZM73.8998 43.5424L73.6998 43.0424C73.5998 42.9424 73.5998 42.8424 73.5998 42.7424C73.6998 42.6424 73.6998 42.5424 73.7998 42.5424C73.8998 42.5424 73.9998 42.6424 73.9998 42.7424L74.2998 43.4424H73.8998V43.5424ZM74.2998 42.3424C74.1998 42.0424 74.0998 41.8424 74.0998 41.7424C74.0998 41.6424 74.0998 41.4424 74.1998 41.3424L73.1998 42.5424H73.0998H72.9998C72.7998 42.5424 72.6998 42.6424 72.5998 42.7424C72.4998 42.8424 72.3998 43.0424 72.3998 43.2424C72.3998 43.3424 72.3998 43.4424 72.4998 43.5424H72.0998V44.1424H74.9998L74.2998 42.3424ZM70.8998 45.1424C70.7998 45.0424 70.7998 44.9424 70.7998 44.8424C70.5998 45.0424 70.3998 45.2424 70.3998 45.2424C70.3998 45.3424 70.3998 45.3424 70.4998 45.4424C70.5998 45.5424 70.6998 45.6424 70.7998 45.7424C70.8998 45.5424 70.9998 45.4424 70.9998 45.3424C71.0998 45.3424 70.9998 45.2424 70.8998 45.1424ZM71.6998 45.1424C71.5998 45.0424 71.5998 44.9424 71.5998 44.8424C71.3998 45.0424 71.1998 45.2424 71.1998 45.2424C71.1998 45.3424 71.1998 45.3424 71.2998 45.4424C71.3998 45.5424 71.4998 45.6424 71.5998 45.7424C71.6998 45.5424 71.7998 45.4424 71.7998 45.3424C71.7998 45.3424 71.6998 45.2424 71.6998 45.1424ZM72.2998 43.5424H71.7998C71.7998 43.4424 71.6998 43.4424 71.6998 43.2424L71.4998 42.7424C71.3998 42.5424 71.3998 42.3424 71.3998 42.2424C71.3998 42.1424 71.3998 42.0424 71.3998 41.9424C71.2998 42.0424 71.0998 42.2424 70.9998 42.3424C70.8998 42.4424 70.7998 42.6424 70.7998 42.7424C70.7998 42.8424 70.8998 43.0424 70.9998 43.2424L71.0998 43.5424C71.1998 43.7424 71.1998 43.8424 71.1998 43.8424C71.1998 43.9424 71.1998 43.9424 71.0998 44.0424C70.9998 43.8424 70.7998 43.7424 70.7998 43.6424C70.5998 43.4424 70.4998 43.3424 70.3998 43.3424H70.1998V43.9424H70.3998C70.4998 43.9424 70.5998 44.0424 70.7998 44.2424C70.8998 44.4424 70.9998 44.6424 70.9998 44.7424L71.4998 44.1424C71.5998 44.0424 71.5998 43.9424 71.6998 43.9424H72.1998V43.5424H72.2998ZM69.4998 40.6424C69.3998 40.6424 69.2998 40.6424 69.1998 40.7424L68.9998 40.9424C68.8998 41.0424 68.8998 41.0424 68.8998 41.1424C68.8998 41.2424 68.8998 41.2424 68.9998 41.3424L69.0998 41.4424L69.1998 41.5424C69.1998 41.5424 69.1998 41.6424 69.0998 41.6424L68.9998 41.7424C68.9998 41.8424 68.8998 41.8424 68.7998 41.8424H68.8998C68.9998 41.8424 69.0998 41.8424 69.1998 41.7424L69.3998 41.4424C69.3998 41.4424 69.3998 41.3424 69.3998 41.2424C69.3998 41.1424 69.3998 41.1424 69.2998 41.0424L69.1998 40.8424V40.7424C69.1998 40.7424 69.1998 40.7424 69.1998 40.6424L69.2998 40.5424C69.3998 40.4424 69.3998 40.4424 69.4998 40.3424C69.5998 40.6424 69.4998 40.6424 69.4998 40.6424ZM70.5998 43.5424H70.0998C70.0998 43.4424 70.0998 43.4424 69.9998 43.2424L69.7998 42.7424C69.6998 42.5424 69.6998 42.3424 69.6998 42.2424C69.6998 42.1424 69.6998 42.0424 69.6998 41.9424C69.5998 42.0424 69.3998 42.2424 69.2998 42.3424C69.1998 42.4424 69.0998 42.6424 69.0998 42.7424C69.0998 42.8424 69.1998 43.0424 69.2998 43.2424L69.3998 43.5424C69.4998 43.7424 69.4998 43.8424 69.4998 43.8424C69.4998 43.9424 69.4998 43.9424 69.3998 44.0424C69.2998 43.8424 69.0998 43.7424 69.0998 43.6424C68.8998 43.4424 68.7998 43.3424 68.6998 43.3424H68.4998V43.9424H68.6998C68.7998 43.9424 68.8998 44.0424 69.0998 44.2424C69.1998 44.4424 69.2998 44.6424 69.2998 44.7424L69.7998 44.1424C69.8998 44.0424 69.8998 43.9424 69.9998 43.9424H70.4998V43.5424H70.5998ZM67.0998 40.6424C66.9998 40.5424 66.9998 40.4424 66.9998 40.3424C66.7998 40.5424 66.5998 40.7424 66.5998 40.7424C66.5998 40.8424 66.5998 40.8424 66.6998 40.9424C66.7998 41.0424 66.8998 41.1424 66.9998 41.2424C67.0998 41.0424 67.1998 40.9424 67.1998 40.8424C67.2998 40.7424 67.1998 40.7424 67.0998 40.6424ZM67.8998 40.6424C67.7998 40.5424 67.7998 40.4424 67.7998 40.3424C67.5998 40.5424 67.3998 40.7424 67.3998 40.7424C67.3998 40.8424 67.3998 40.8424 67.4998 40.9424C67.5998 41.0424 67.6998 41.1424 67.7998 41.2424C67.8998 41.0424 67.9998 40.9424 67.9998 40.8424C67.9998 40.7424 67.9998 40.7424 67.8998 40.6424ZM67.3998 43.5424L67.1998 43.2424C67.1998 43.1424 67.0998 43.0424 67.0998 43.0424C67.0998 43.0424 67.0998 42.9424 67.1998 42.9424C67.2998 42.8424 67.2998 42.7424 67.2998 42.7424C67.2998 42.8424 67.2998 42.9424 67.3998 43.1424L67.5998 43.6424C67.5998 43.5424 67.4998 43.5424 67.3998 43.5424ZM68.7998 43.5424H68.2998L67.8998 42.5424C67.7998 42.2424 67.6998 41.9424 67.6998 41.8424C67.6998 41.7424 67.6998 41.5424 67.7998 41.4424L67.5998 41.7424L67.3998 41.3424L66.9998 41.8424L67.1998 42.2424L66.6998 42.8424C66.5998 42.9424 66.4998 43.1424 66.4998 43.3424C66.4998 43.4424 66.4998 43.5424 66.5998 43.6424C66.5998 43.7424 66.6998 43.8424 66.6998 43.8424C66.6998 43.8424 66.6998 43.9424 66.5998 44.1424H68.9998V43.5424H68.7998ZM64.2998 43.9424C64.0998 43.8424 63.8998 43.7424 63.8998 43.6424C63.7998 43.5424 63.6998 43.2424 63.6998 43.0424V39.4424C63.3998 39.8424 63.1998 40.1424 62.9998 40.1424C63.1998 40.6424 63.3998 41.0424 63.3998 41.1424V43.5424C63.3998 43.8424 63.4998 44.0424 63.5998 44.1424C63.6998 44.2424 63.8998 44.2424 64.1998 44.2424C64.4998 44.2424 64.5998 44.2424 64.6998 44.1424C64.3998 43.9424 64.2998 43.9424 64.2998 43.9424ZM62.2998 43.7424C62.2998 43.6424 62.2998 43.5424 62.2998 43.3424V39.3424C61.9998 39.7424 61.6998 40.0424 61.5998 40.0424C61.7998 40.5424 61.9998 40.9424 61.9998 41.0424V43.3424C61.9998 43.4424 61.9998 43.4424 61.8998 43.5424L61.7998 43.6424H61.3998V44.2424H62.2998C62.4998 44.2424 62.5998 44.1424 62.6998 44.0424C62.4998 43.8424 62.3998 43.7424 62.2998 43.7424ZM59.3998 43.5424L59.2998 43.2424H60.4998L60.5998 43.5424H59.3998ZM61.5998 43.5424H61.1998L60.9998 42.9424C60.8998 42.7424 60.8998 42.7424 60.7998 42.7424H58.9998V39.4424C58.6998 39.8424 58.4998 40.1424 58.2998 40.1424C58.4998 40.6424 58.6998 41.0424 58.6998 41.1424V43.6424H58.4998V44.2424H61.6998V43.5424H61.5998ZM58.5998 43.5424H58.2998C58.2998 43.5424 58.1998 43.4424 58.0998 43.3424C57.9998 43.2424 57.9998 43.1424 57.9998 43.0424V39.2424C57.6998 39.6424 57.4998 39.9424 57.2998 39.9424C57.4998 40.4424 57.6998 40.8424 57.6998 40.9424V44.0424H58.6998V43.5424H58.5998ZM55.2998 40.5424C55.1998 40.4424 55.1998 40.3424 55.1998 40.2424C54.9998 40.4424 54.7998 40.6424 54.7998 40.6424C54.7998 40.7424 54.7998 40.7424 54.8998 40.8424C54.9998 40.9424 55.0998 41.0424 55.1998 41.1424C55.2998 40.9424 55.3998 40.8424 55.3998 40.7424C55.3998 40.7424 55.3998 40.6424 55.2998 40.5424ZM56.0998 40.5424C55.9998 40.4424 55.9998 40.3424 55.9998 40.2424C55.7998 40.4424 55.5998 40.6424 55.5998 40.6424C55.5998 40.7424 55.5998 40.7424 55.6998 40.8424C55.7998 40.9424 55.8998 41.0424 55.9998 41.1424C56.0998 40.9424 56.1998 40.8424 56.1998 40.7424C56.1998 40.7424 56.0998 40.6424 56.0998 40.5424ZM56.2998 43.7424C56.2998 43.5424 56.2998 43.5424 56.1998 43.4424L55.9998 42.9424C55.8998 42.8424 55.8998 42.7424 55.8998 42.6424C55.8998 42.5424 55.9998 42.4424 56.0998 42.2424C56.0998 42.2424 56.0998 42.3424 56.0998 42.4424C56.0998 42.4424 56.0998 42.5424 56.0998 42.6424L56.3998 43.2424C56.3998 43.3424 56.4998 43.4424 56.4998 43.4424C56.4998 43.5424 56.3998 43.6424 56.2998 43.7424ZM56.7998 42.6424L56.4998 41.9424C56.3998 41.7424 56.3998 41.5424 56.3998 41.4424C56.3998 41.3424 56.3998 41.2424 56.3998 41.1424L55.2998 42.4424C55.1998 42.5424 55.0998 42.7424 55.0998 42.8424C55.0998 42.9424 55.1998 43.1424 55.2998 43.2424L55.6998 43.7424C55.7998 43.8424 55.8998 44.0424 55.8998 44.0424C55.8998 44.1424 55.8998 44.1424 55.7998 44.1424C55.7998 44.1424 55.6998 44.0424 55.4998 43.8424C55.2998 43.6424 55.1998 43.5424 54.9998 43.5424H54.7998V44.1424H54.9998C55.0998 44.1424 55.2998 44.2424 55.3998 44.4424C55.5998 44.6424 55.6998 44.8424 55.6998 44.9424L56.6998 43.8424C56.8998 43.6424 56.8998 43.4424 56.8998 43.2424C56.8998 43.0424 56.8998 42.8424 56.7998 42.6424ZM53.3998 40.6424C53.2998 40.5424 53.2998 40.4424 53.2998 40.3424C53.0998 40.5424 52.8998 40.7424 52.8998 40.7424C52.8998 40.8424 52.8998 40.8424 52.9998 40.9424C53.0998 41.0424 53.1998 41.1424 53.2998 41.2424C53.3998 41.0424 53.4998 40.9424 53.4998 40.8424C53.4998 40.7424 53.4998 40.7424 53.3998 40.6424ZM54.0998 40.6424C53.9998 40.5424 53.9998 40.4424 53.9998 40.3424C53.7998 40.5424 53.5998 40.7424 53.5998 40.7424C53.5998 40.8424 53.5998 40.8424 53.6998 40.9424C53.7998 41.0424 53.8998 41.1424 53.9998 41.2424C54.0998 41.0424 54.1998 40.9424 54.1998 40.8424C54.1998 40.7424 54.1998 40.7424 54.0998 40.6424ZM53.5998 43.5424L53.3998 43.2424C53.3998 43.1424 53.2998 43.0424 53.2998 43.0424C53.2998 43.0424 53.2998 42.9424 53.3998 42.9424C53.4998 42.8424 53.4998 42.7424 53.4998 42.7424C53.4998 42.8424 53.4998 42.9424 53.5998 43.1424L53.7998 43.6424C53.8998 43.5424 53.7998 43.5424 53.5998 43.5424ZM55.0998 43.5424H54.5998L54.1998 42.5424C54.0998 42.2424 53.9998 41.9424 53.9998 41.8424C53.9998 41.7424 53.9998 41.5424 54.0998 41.4424L53.8998 41.7424L53.6998 41.3424L53.2998 41.8424L53.4998 42.2424L52.9998 42.8424C52.8998 42.9424 52.7998 43.1424 52.7998 43.3424C52.7998 43.4424 52.7998 43.5424 52.8998 43.6424C52.8998 43.7424 52.9998 43.8424 52.9998 43.8424C52.9998 43.8424 52.9998 43.9424 52.8998 44.1424H55.2998V43.5424H55.0998ZM50.4998 43.9424C50.2998 43.8424 50.0998 43.7424 50.0998 43.6424C49.9998 43.5424 49.8998 43.2424 49.8998 43.0424V39.4424C49.5998 39.8424 49.3998 40.1424 49.1998 40.1424C49.3998 40.6424 49.5998 41.0424 49.5998 41.1424V43.5424C49.5998 43.8424 49.6998 44.0424 49.7998 44.1424C49.8998 44.2424 50.0998 44.2424 50.3998 44.2424C50.6998 44.2424 50.7998 44.2424 50.8998 44.1424C50.6998 43.9424 50.5998 43.9424 50.4998 43.9424ZM48.5998 43.7424C48.5998 43.6424 48.5998 43.5424 48.5998 43.3424V39.3424C48.2998 39.7424 48.0998 40.0424 47.8998 40.0424C48.0998 40.5424 48.2998 40.9424 48.2998 41.0424V43.3424C48.2998 43.4424 48.2998 43.4424 48.1998 43.5424L48.0998 43.6424H47.6998V44.2424H48.5998C48.7998 44.2424 48.8998 44.1424 48.9998 44.0424C48.6998 43.8424 48.5998 43.7424 48.5998 43.7424ZM44.9998 40.6424C44.8998 40.5424 44.8998 40.4424 44.8998 40.3424C44.6998 40.5424 44.4998 40.7424 44.4998 40.7424C44.4998 40.8424 44.4998 40.8424 44.5998 40.9424C44.6998 41.0424 44.7998 41.1424 44.8998 41.2424C44.9998 41.0424 45.0998 40.9424 45.0998 40.8424C45.0998 40.8424 45.0998 40.7424 44.9998 40.6424ZM47.7998 43.5424H47.3998L47.1998 42.9424C47.0998 42.7424 47.0998 42.6424 46.9998 42.6424H45.6998C45.5998 42.6424 45.4998 42.5424 45.3998 42.3424L44.9998 41.3424L44.5998 41.8424C44.6998 41.9424 44.7998 41.9424 44.7998 42.0424L45.0998 42.6424C45.1998 42.9424 45.3998 43.1424 45.5998 43.1424H46.7998L46.8998 43.4424H45.4998C45.1998 43.4424 44.8998 43.3424 44.6998 43.0424V43.9424H47.9998V43.5424H47.7998ZM43.9998 42.8424L43.7998 42.3424C43.6998 42.1424 43.6998 41.9424 43.6998 41.8424C43.6998 41.7424 43.6998 41.6424 43.6998 41.5424C43.5998 41.6424 43.3998 41.8424 43.2998 42.0424C43.1998 42.1424 43.0998 42.3424 43.0998 42.4424C43.0998 42.5424 43.1998 42.7424 43.2998 42.9424L43.3998 43.2424C43.4998 43.4424 43.5998 43.6424 43.5998 43.6424C43.5998 43.7424 43.4998 43.9424 43.3998 44.1424L42.3998 45.2424C42.1998 45.4424 41.9998 45.6424 41.8998 45.7424C41.7998 45.7424 41.6998 45.8424 41.6998 45.8424C41.7998 45.8424 41.7998 45.8424 41.8998 45.8424C42.1998 45.8424 42.3998 45.7424 42.5998 45.5424L43.8998 44.0424C44.0998 43.8424 44.0998 43.6424 44.0998 43.4424C44.1998 43.3424 44.0998 43.1424 43.9998 42.8424ZM40.4998 45.1424C40.3998 45.0424 40.3998 44.9424 40.3998 44.8424C40.1998 45.0424 39.9998 45.2424 39.9998 45.2424C39.9998 45.3424 39.9998 45.3424 40.0998 45.4424C40.1998 45.5424 40.2998 45.6424 40.3998 45.7424C40.4998 45.5424 40.5998 45.4424 40.5998 45.3424C40.5998 45.3424 40.5998 45.2424 40.4998 45.1424ZM41.1998 45.1424C41.0998 45.0424 41.0998 44.9424 41.0998 44.8424C40.8998 45.0424 40.6998 45.2424 40.6998 45.2424C40.6998 45.3424 40.6998 45.3424 40.7998 45.4424C40.8998 45.5424 40.9998 45.6424 41.0998 45.7424C41.1998 45.5424 41.2998 45.4424 41.2998 45.3424C41.2998 45.3424 41.2998 45.2424 41.1998 45.1424ZM41.2998 43.2424L41.0998 42.7424C40.9998 42.5424 40.9998 42.3424 40.9998 42.2424C40.9998 42.1424 40.9998 42.0424 40.9998 41.9424C40.8998 42.0424 40.6998 42.2424 40.5998 42.3424C40.4998 42.4424 40.3998 42.6424 40.3998 42.7424C40.3998 42.8424 40.4998 43.0424 40.5998 43.2424L40.6998 43.5424C40.7998 43.7424 40.7998 43.8424 40.7998 43.8424C40.7998 43.9424 40.7998 43.9424 40.6998 44.0424C40.5998 43.8424 40.3998 43.7424 40.3998 43.6424C40.1998 43.4424 40.0998 43.3424 39.9998 43.3424H39.7998V43.9424H39.9998C40.0998 43.9424 40.1998 44.0424 40.3998 44.2424C40.4998 44.4424 40.5998 44.6424 40.5998 44.7424L41.0998 44.1424C41.1998 44.0424 41.2998 43.9424 41.2998 43.9424C41.2998 43.8424 41.3998 43.7424 41.3998 43.6424C41.4998 43.6424 41.3998 43.5424 41.2998 43.2424ZM38.4998 40.6424C38.3998 40.5424 38.3998 40.4424 38.3998 40.3424C38.1998 40.5424 37.9998 40.7424 37.9998 40.7424C37.9998 40.8424 37.9998 40.8424 38.0998 40.9424C38.1998 41.0424 38.2998 41.1424 38.3998 41.2424C38.4998 41.0424 38.5998 40.9424 38.5998 40.8424C38.5998 40.7424 38.4998 40.7424 38.4998 40.6424ZM39.1998 40.6424C39.0998 40.5424 39.0998 40.4424 39.0998 40.3424C38.8998 40.5424 38.6998 40.7424 38.6998 40.7424C38.6998 40.8424 38.6998 40.8424 38.7998 40.9424C38.8998 41.0424 38.9998 41.1424 39.0998 41.2424C39.1998 41.0424 39.2998 40.9424 39.2998 40.8424C39.2998 40.7424 39.2998 40.7424 39.1998 40.6424ZM38.6998 43.5424L38.4998 43.2424C38.4998 43.1424 38.3998 43.0424 38.3998 43.0424C38.3998 43.0424 38.3998 42.9424 38.4998 42.9424C38.5998 42.8424 38.5998 42.7424 38.5998 42.7424C38.5998 42.8424 38.5998 42.9424 38.6998 43.1424L38.8998 43.6424C38.8998 43.5424 38.7998 43.5424 38.6998 43.5424ZM40.0998 43.5424H39.5998L39.1998 42.5424C39.0998 42.2424 38.9998 41.9424 38.9998 41.8424C38.9998 41.7424 38.9998 41.5424 39.0998 41.4424L38.8998 41.7424L38.6998 41.3424L38.2998 41.8424L38.4998 42.2424L37.9998 42.8424C37.8998 42.9424 37.7998 43.1424 37.7998 43.3424C37.7998 43.4424 37.7998 43.5424 37.8998 43.6424C37.8998 43.7424 37.9998 43.8424 37.9998 43.8424C37.9998 43.8424 37.9998 43.9424 37.8998 44.1424H40.2998V43.5424H40.0998Z" fill="#A70E13"/>
<path id="Vector_45" d="M69.1998 40.7424C69.2998 40.6424 69.3998 40.6424 69.4998 40.6424C69.4998 40.6424 69.5998 40.6424 69.4998 40.3424C69.3998 40.4424 69.3998 40.4424 69.2998 40.5424L69.1998 40.6424C69.1998 40.7424 69.1998 40.7424 69.1998 40.7424ZM69.1998 40.7424L68.9998 40.9424C68.8998 41.0424 68.8998 41.0424 68.8998 41.1424C68.8998 41.2424 68.8998 41.2424 68.9998 41.3424L69.0998 41.4424L69.1998 41.5424C69.1998 41.5424 69.1998 41.6424 69.0998 41.6424L68.9998 41.7424C68.9998 41.8424 68.8998 41.8424 68.7998 41.8424H68.8998C68.9998 41.8424 69.0998 41.8424 69.1998 41.7424L69.3998 41.4424C69.3998 41.4424 69.3998 41.3424 69.3998 41.2424C69.3998 41.1424 69.3998 41.1424 69.2998 41.0424L69.1998 40.8424V40.7424ZM73.0998 43.5424C72.9998 43.5424 72.8998 43.5424 72.8998 43.4424C72.7998 43.3424 72.7998 43.3424 72.7998 43.2424C72.7998 43.1424 72.8998 43.0424 72.9998 43.0424C73.0998 43.0424 73.1998 43.1424 73.2998 43.3424L73.3998 43.5424H73.0998ZM73.8998 43.5424L73.6998 43.0424C73.5998 42.9424 73.5998 42.8424 73.5998 42.7424C73.6998 42.6424 73.6998 42.5424 73.7998 42.5424C73.8998 42.5424 73.9998 42.6424 73.9998 42.7424L74.2998 43.4424H73.8998V43.5424ZM74.2998 42.3424C74.1998 42.0424 74.0998 41.8424 74.0998 41.7424C74.0998 41.6424 74.0998 41.4424 74.1998 41.3424L73.1998 42.5424H73.0998H72.9998C72.7998 42.5424 72.6998 42.6424 72.5998 42.7424C72.4998 42.8424 72.3998 43.0424 72.3998 43.2424C72.3998 43.3424 72.3998 43.4424 72.4998 43.5424H72.0998V44.1424H74.9998L74.2998 42.3424ZM70.8998 45.1424C70.7998 45.0424 70.7998 44.9424 70.7998 44.8424C70.5998 45.0424 70.3998 45.2424 70.3998 45.2424C70.3998 45.3424 70.3998 45.3424 70.4998 45.4424C70.5998 45.5424 70.6998 45.6424 70.7998 45.7424C70.8998 45.5424 70.9998 45.4424 70.9998 45.3424C71.0998 45.3424 70.9998 45.2424 70.8998 45.1424ZM71.6998 45.1424C71.5998 45.0424 71.5998 44.9424 71.5998 44.8424C71.3998 45.0424 71.1998 45.2424 71.1998 45.2424C71.1998 45.3424 71.1998 45.3424 71.2998 45.4424C71.3998 45.5424 71.4998 45.6424 71.5998 45.7424C71.6998 45.5424 71.7998 45.4424 71.7998 45.3424C71.7998 45.3424 71.6998 45.2424 71.6998 45.1424ZM72.2998 43.5424H71.7998C71.7998 43.4424 71.6998 43.4424 71.6998 43.2424L71.4998 42.7424C71.3998 42.5424 71.3998 42.3424 71.3998 42.2424C71.3998 42.1424 71.3998 42.0424 71.3998 41.9424C71.2998 42.0424 71.0998 42.2424 70.9998 42.3424C70.8998 42.4424 70.7998 42.6424 70.7998 42.7424C70.7998 42.8424 70.8998 43.0424 70.9998 43.2424L71.0998 43.5424C71.1998 43.7424 71.1998 43.8424 71.1998 43.8424C71.1998 43.9424 71.1998 43.9424 71.0998 44.0424C70.9998 43.8424 70.7998 43.7424 70.7998 43.6424C70.5998 43.4424 70.4998 43.3424 70.3998 43.3424H70.1998V43.9424H70.3998C70.4998 43.9424 70.5998 44.0424 70.7998 44.2424C70.8998 44.4424 70.9998 44.6424 70.9998 44.7424L71.4998 44.1424C71.5998 44.0424 71.5998 43.9424 71.6998 43.9424H72.1998V43.5424H72.2998ZM70.5998 43.5424H70.0998C70.0998 43.4424 70.0998 43.4424 69.9998 43.2424L69.7998 42.7424C69.6998 42.5424 69.6998 42.3424 69.6998 42.2424C69.6998 42.1424 69.6998 42.0424 69.6998 41.9424C69.5998 42.0424 69.3998 42.2424 69.2998 42.3424C69.1998 42.4424 69.0998 42.6424 69.0998 42.7424C69.0998 42.8424 69.1998 43.0424 69.2998 43.2424L69.3998 43.5424C69.4998 43.7424 69.4998 43.8424 69.4998 43.8424C69.4998 43.9424 69.4998 43.9424 69.3998 44.0424C69.2998 43.8424 69.0998 43.7424 69.0998 43.6424C68.8998 43.4424 68.7998 43.3424 68.6998 43.3424H68.4998V43.9424H68.6998C68.7998 43.9424 68.8998 44.0424 69.0998 44.2424C69.1998 44.4424 69.2998 44.6424 69.2998 44.7424L69.7998 44.1424C69.8998 44.0424 69.8998 43.9424 69.9998 43.9424H70.4998V43.5424H70.5998ZM67.0998 40.6424C66.9998 40.5424 66.9998 40.4424 66.9998 40.3424C66.7998 40.5424 66.5998 40.7424 66.5998 40.7424C66.5998 40.8424 66.5998 40.8424 66.6998 40.9424C66.7998 41.0424 66.8998 41.1424 66.9998 41.2424C67.0998 41.0424 67.1998 40.9424 67.1998 40.8424C67.2998 40.7424 67.1998 40.7424 67.0998 40.6424ZM67.8998 40.6424C67.7998 40.5424 67.7998 40.4424 67.7998 40.3424C67.5998 40.5424 67.3998 40.7424 67.3998 40.7424C67.3998 40.8424 67.3998 40.8424 67.4998 40.9424C67.5998 41.0424 67.6998 41.1424 67.7998 41.2424C67.8998 41.0424 67.9998 40.9424 67.9998 40.8424C67.9998 40.7424 67.9998 40.7424 67.8998 40.6424ZM67.3998 43.5424L67.1998 43.2424C67.1998 43.1424 67.0998 43.0424 67.0998 43.0424C67.0998 43.0424 67.0998 42.9424 67.1998 42.9424C67.2998 42.8424 67.2998 42.7424 67.2998 42.7424C67.2998 42.8424 67.2998 42.9424 67.3998 43.1424L67.5998 43.6424C67.5998 43.5424 67.4998 43.5424 67.3998 43.5424ZM68.7998 43.5424H68.2998L67.8998 42.5424C67.7998 42.2424 67.6998 41.9424 67.6998 41.8424C67.6998 41.7424 67.6998 41.5424 67.7998 41.4424L67.5998 41.7424L67.3998 41.3424L66.9998 41.8424L67.1998 42.2424L66.6998 42.8424C66.5998 42.9424 66.4998 43.1424 66.4998 43.3424C66.4998 43.4424 66.4998 43.5424 66.5998 43.6424C66.5998 43.7424 66.6998 43.8424 66.6998 43.8424C66.6998 43.8424 66.6998 43.9424 66.5998 44.1424H68.9998V43.5424H68.7998ZM64.2998 43.9424C64.0998 43.8424 63.8998 43.7424 63.8998 43.6424C63.7998 43.5424 63.6998 43.2424 63.6998 43.0424V39.4424C63.3998 39.8424 63.1998 40.1424 62.9998 40.1424C63.1998 40.6424 63.3998 41.0424 63.3998 41.1424V43.5424C63.3998 43.8424 63.4998 44.0424 63.5998 44.1424C63.6998 44.2424 63.8998 44.2424 64.1998 44.2424C64.4998 44.2424 64.5998 44.2424 64.6998 44.1424C64.3998 43.9424 64.2998 43.9424 64.2998 43.9424ZM62.2998 43.7424C62.2998 43.6424 62.2998 43.5424 62.2998 43.3424V39.3424C61.9998 39.7424 61.6998 40.0424 61.5998 40.0424C61.7998 40.5424 61.9998 40.9424 61.9998 41.0424V43.3424C61.9998 43.4424 61.9998 43.4424 61.8998 43.5424L61.7998 43.6424H61.3998V44.2424H62.2998C62.4998 44.2424 62.5998 44.1424 62.6998 44.0424C62.4998 43.8424 62.3998 43.7424 62.2998 43.7424ZM59.3998 43.5424L59.2998 43.2424H60.4998L60.5998 43.5424H59.3998ZM61.5998 43.5424H61.1998L60.9998 42.9424C60.8998 42.7424 60.8998 42.7424 60.7998 42.7424H58.9998V39.4424C58.6998 39.8424 58.4998 40.1424 58.2998 40.1424C58.4998 40.6424 58.6998 41.0424 58.6998 41.1424V43.6424H58.4998V44.2424H61.6998V43.5424H61.5998ZM58.5998 43.5424H58.2998C58.2998 43.5424 58.1998 43.4424 58.0998 43.3424C57.9998 43.2424 57.9998 43.1424 57.9998 43.0424V39.2424C57.6998 39.6424 57.4998 39.9424 57.2998 39.9424C57.4998 40.4424 57.6998 40.8424 57.6998 40.9424V44.0424H58.6998V43.5424H58.5998ZM55.2998 40.5424C55.1998 40.4424 55.1998 40.3424 55.1998 40.2424C54.9998 40.4424 54.7998 40.6424 54.7998 40.6424C54.7998 40.7424 54.7998 40.7424 54.8998 40.8424C54.9998 40.9424 55.0998 41.0424 55.1998 41.1424C55.2998 40.9424 55.3998 40.8424 55.3998 40.7424C55.3998 40.7424 55.3998 40.6424 55.2998 40.5424ZM56.0998 40.5424C55.9998 40.4424 55.9998 40.3424 55.9998 40.2424C55.7998 40.4424 55.5998 40.6424 55.5998 40.6424C55.5998 40.7424 55.5998 40.7424 55.6998 40.8424C55.7998 40.9424 55.8998 41.0424 55.9998 41.1424C56.0998 40.9424 56.1998 40.8424 56.1998 40.7424C56.1998 40.7424 56.0998 40.6424 56.0998 40.5424ZM56.2998 43.7424C56.2998 43.5424 56.2998 43.5424 56.1998 43.4424L55.9998 42.9424C55.8998 42.8424 55.8998 42.7424 55.8998 42.6424C55.8998 42.5424 55.9998 42.4424 56.0998 42.2424C56.0998 42.2424 56.0998 42.3424 56.0998 42.4424C56.0998 42.4424 56.0998 42.5424 56.0998 42.6424L56.3998 43.2424C56.3998 43.3424 56.4998 43.4424 56.4998 43.4424C56.4998 43.5424 56.3998 43.6424 56.2998 43.7424ZM56.7998 42.6424L56.4998 41.9424C56.3998 41.7424 56.3998 41.5424 56.3998 41.4424C56.3998 41.3424 56.3998 41.2424 56.3998 41.1424L55.2998 42.4424C55.1998 42.5424 55.0998 42.7424 55.0998 42.8424C55.0998 42.9424 55.1998 43.1424 55.2998 43.2424L55.6998 43.7424C55.7998 43.8424 55.8998 44.0424 55.8998 44.0424C55.8998 44.1424 55.8998 44.1424 55.7998 44.1424C55.7998 44.1424 55.6998 44.0424 55.4998 43.8424C55.2998 43.6424 55.1998 43.5424 54.9998 43.5424H54.7998V44.1424H54.9998C55.0998 44.1424 55.2998 44.2424 55.3998 44.4424C55.5998 44.6424 55.6998 44.8424 55.6998 44.9424L56.6998 43.8424C56.8998 43.6424 56.8998 43.4424 56.8998 43.2424C56.8998 43.0424 56.8998 42.8424 56.7998 42.6424ZM53.3998 40.6424C53.2998 40.5424 53.2998 40.4424 53.2998 40.3424C53.0998 40.5424 52.8998 40.7424 52.8998 40.7424C52.8998 40.8424 52.8998 40.8424 52.9998 40.9424C53.0998 41.0424 53.1998 41.1424 53.2998 41.2424C53.3998 41.0424 53.4998 40.9424 53.4998 40.8424C53.4998 40.7424 53.4998 40.7424 53.3998 40.6424ZM54.0998 40.6424C53.9998 40.5424 53.9998 40.4424 53.9998 40.3424C53.7998 40.5424 53.5998 40.7424 53.5998 40.7424C53.5998 40.8424 53.5998 40.8424 53.6998 40.9424C53.7998 41.0424 53.8998 41.1424 53.9998 41.2424C54.0998 41.0424 54.1998 40.9424 54.1998 40.8424C54.1998 40.7424 54.1998 40.7424 54.0998 40.6424ZM53.5998 43.5424L53.3998 43.2424C53.3998 43.1424 53.2998 43.0424 53.2998 43.0424C53.2998 43.0424 53.2998 42.9424 53.3998 42.9424C53.4998 42.8424 53.4998 42.7424 53.4998 42.7424C53.4998 42.8424 53.4998 42.9424 53.5998 43.1424L53.7998 43.6424C53.8998 43.5424 53.7998 43.5424 53.5998 43.5424ZM55.0998 43.5424H54.5998L54.1998 42.5424C54.0998 42.2424 53.9998 41.9424 53.9998 41.8424C53.9998 41.7424 53.9998 41.5424 54.0998 41.4424L53.8998 41.7424L53.6998 41.3424L53.2998 41.8424L53.4998 42.2424L52.9998 42.8424C52.8998 42.9424 52.7998 43.1424 52.7998 43.3424C52.7998 43.4424 52.7998 43.5424 52.8998 43.6424C52.8998 43.7424 52.9998 43.8424 52.9998 43.8424C52.9998 43.8424 52.9998 43.9424 52.8998 44.1424H55.2998V43.5424H55.0998ZM50.4998 43.9424C50.2998 43.8424 50.0998 43.7424 50.0998 43.6424C49.9998 43.5424 49.8998 43.2424 49.8998 43.0424V39.4424C49.5998 39.8424 49.3998 40.1424 49.1998 40.1424C49.3998 40.6424 49.5998 41.0424 49.5998 41.1424V43.5424C49.5998 43.8424 49.6998 44.0424 49.7998 44.1424C49.8998 44.2424 50.0998 44.2424 50.3998 44.2424C50.6998 44.2424 50.7998 44.2424 50.8998 44.1424C50.6998 43.9424 50.5998 43.9424 50.4998 43.9424ZM48.5998 43.7424C48.5998 43.6424 48.5998 43.5424 48.5998 43.3424V39.3424C48.2998 39.7424 48.0998 40.0424 47.8998 40.0424C48.0998 40.5424 48.2998 40.9424 48.2998 41.0424V43.3424C48.2998 43.4424 48.2998 43.4424 48.1998 43.5424L48.0998 43.6424H47.6998V44.2424H48.5998C48.7998 44.2424 48.8998 44.1424 48.9998 44.0424C48.6998 43.8424 48.5998 43.7424 48.5998 43.7424ZM44.9998 40.6424C44.8998 40.5424 44.8998 40.4424 44.8998 40.3424C44.6998 40.5424 44.4998 40.7424 44.4998 40.7424C44.4998 40.8424 44.4998 40.8424 44.5998 40.9424C44.6998 41.0424 44.7998 41.1424 44.8998 41.2424C44.9998 41.0424 45.0998 40.9424 45.0998 40.8424C45.0998 40.8424 45.0998 40.7424 44.9998 40.6424ZM47.7998 43.5424H47.3998L47.1998 42.9424C47.0998 42.7424 47.0998 42.6424 46.9998 42.6424H45.6998C45.5998 42.6424 45.4998 42.5424 45.3998 42.3424L44.9998 41.3424L44.5998 41.8424C44.6998 41.9424 44.7998 41.9424 44.7998 42.0424L45.0998 42.6424C45.1998 42.9424 45.3998 43.1424 45.5998 43.1424H46.7998L46.8998 43.4424H45.4998C45.1998 43.4424 44.8998 43.3424 44.6998 43.0424V43.9424H47.9998V43.5424H47.7998ZM43.9998 42.8424L43.7998 42.3424C43.6998 42.1424 43.6998 41.9424 43.6998 41.8424C43.6998 41.7424 43.6998 41.6424 43.6998 41.5424C43.5998 41.6424 43.3998 41.8424 43.2998 42.0424C43.1998 42.1424 43.0998 42.3424 43.0998 42.4424C43.0998 42.5424 43.1998 42.7424 43.2998 42.9424L43.3998 43.2424C43.4998 43.4424 43.5998 43.6424 43.5998 43.6424C43.5998 43.7424 43.4998 43.9424 43.3998 44.1424L42.3998 45.2424C42.1998 45.4424 41.9998 45.6424 41.8998 45.7424C41.7998 45.7424 41.6998 45.8424 41.6998 45.8424C41.7998 45.8424 41.7998 45.8424 41.8998 45.8424C42.1998 45.8424 42.3998 45.7424 42.5998 45.5424L43.8998 44.0424C44.0998 43.8424 44.0998 43.6424 44.0998 43.4424C44.1998 43.3424 44.0998 43.1424 43.9998 42.8424ZM40.4998 45.1424C40.3998 45.0424 40.3998 44.9424 40.3998 44.8424C40.1998 45.0424 39.9998 45.2424 39.9998 45.2424C39.9998 45.3424 39.9998 45.3424 40.0998 45.4424C40.1998 45.5424 40.2998 45.6424 40.3998 45.7424C40.4998 45.5424 40.5998 45.4424 40.5998 45.3424C40.5998 45.3424 40.5998 45.2424 40.4998 45.1424ZM41.1998 45.1424C41.0998 45.0424 41.0998 44.9424 41.0998 44.8424C40.8998 45.0424 40.6998 45.2424 40.6998 45.2424C40.6998 45.3424 40.6998 45.3424 40.7998 45.4424C40.8998 45.5424 40.9998 45.6424 41.0998 45.7424C41.1998 45.5424 41.2998 45.4424 41.2998 45.3424C41.2998 45.3424 41.2998 45.2424 41.1998 45.1424ZM41.2998 43.2424L41.0998 42.7424C40.9998 42.5424 40.9998 42.3424 40.9998 42.2424C40.9998 42.1424 40.9998 42.0424 40.9998 41.9424C40.8998 42.0424 40.6998 42.2424 40.5998 42.3424C40.4998 42.4424 40.3998 42.6424 40.3998 42.7424C40.3998 42.8424 40.4998 43.0424 40.5998 43.2424L40.6998 43.5424C40.7998 43.7424 40.7998 43.8424 40.7998 43.8424C40.7998 43.9424 40.7998 43.9424 40.6998 44.0424C40.5998 43.8424 40.3998 43.7424 40.3998 43.6424C40.1998 43.4424 40.0998 43.3424 39.9998 43.3424H39.7998V43.9424H39.9998C40.0998 43.9424 40.1998 44.0424 40.3998 44.2424C40.4998 44.4424 40.5998 44.6424 40.5998 44.7424L41.0998 44.1424C41.1998 44.0424 41.2998 43.9424 41.2998 43.9424C41.2998 43.8424 41.3998 43.7424 41.3998 43.6424C41.4998 43.6424 41.3998 43.5424 41.2998 43.2424ZM38.4998 40.6424C38.3998 40.5424 38.3998 40.4424 38.3998 40.3424C38.1998 40.5424 37.9998 40.7424 37.9998 40.7424C37.9998 40.8424 37.9998 40.8424 38.0998 40.9424C38.1998 41.0424 38.2998 41.1424 38.3998 41.2424C38.4998 41.0424 38.5998 40.9424 38.5998 40.8424C38.5998 40.7424 38.4998 40.7424 38.4998 40.6424ZM39.1998 40.6424C39.0998 40.5424 39.0998 40.4424 39.0998 40.3424C38.8998 40.5424 38.6998 40.7424 38.6998 40.7424C38.6998 40.8424 38.6998 40.8424 38.7998 40.9424C38.8998 41.0424 38.9998 41.1424 39.0998 41.2424C39.1998 41.0424 39.2998 40.9424 39.2998 40.8424C39.2998 40.7424 39.2998 40.7424 39.1998 40.6424ZM38.6998 43.5424L38.4998 43.2424C38.4998 43.1424 38.3998 43.0424 38.3998 43.0424C38.3998 43.0424 38.3998 42.9424 38.4998 42.9424C38.5998 42.8424 38.5998 42.7424 38.5998 42.7424C38.5998 42.8424 38.5998 42.9424 38.6998 43.1424L38.8998 43.6424C38.8998 43.5424 38.7998 43.5424 38.6998 43.5424ZM40.0998 43.5424H39.5998L39.1998 42.5424C39.0998 42.2424 38.9998 41.9424 38.9998 41.8424C38.9998 41.7424 38.9998 41.5424 39.0998 41.4424L38.8998 41.7424L38.6998 41.3424L38.2998 41.8424L38.4998 42.2424L37.9998 42.8424C37.8998 42.9424 37.7998 43.1424 37.7998 43.3424C37.7998 43.4424 37.7998 43.5424 37.8998 43.6424C37.8998 43.7424 37.9998 43.8424 37.9998 43.8424C37.9998 43.8424 37.9998 43.9424 37.8998 44.1424H40.2998V43.5424H40.0998Z" stroke="#A70E13" stroke-width="0.072" stroke-miterlimit="4.099"/>
</g>
</svg>
