<svg width="88" height="58" viewBox="0 0 88 58" fill="none" xmlns="http://www.w3.org/2000/svg">
<g id="Client Logo">
<path id="Vector" d="M87.6 0.04245H0V57.0424H87.6V0.04245Z" fill="white"/>
<path id="Vector_2" d="M82.6 22.0424H5V35.1424H82.6V22.0424Z" fill="white"/>
<path id="Vector_3" d="M33.5996 28.0424H33.2996L30.3996 23.6424C30.3996 24.1424 30.3996 24.5424 30.3996 24.8424V28.0424H30.0996V23.1424H30.3996L33.2996 27.5424C33.2996 27.1424 33.2996 26.7424 33.2996 26.3424V23.1424H33.5996V28.0424Z" fill="#231F20"/>
<path id="Vector_4" d="M37.9002 26.1425C37.9002 26.7425 37.8002 27.2425 37.5002 27.5425C37.2002 27.8425 36.8002 28.0425 36.3002 28.0425C36.0002 28.0425 35.7002 27.9425 35.5002 27.8425C35.3002 27.6425 35.1002 27.4425 34.9002 27.1425C34.8002 26.8425 34.7002 26.5425 34.7002 26.1425C34.7002 25.5425 34.8002 25.0425 35.1002 24.7425C35.4002 24.4425 35.8002 24.2425 36.3002 24.2425C36.8002 24.2425 37.2002 24.4425 37.5002 24.7425C37.8002 25.1425 37.9002 25.5425 37.9002 26.1425ZM35.0002 26.1425C35.0002 26.6425 35.1002 27.0425 35.3002 27.3425C35.5002 27.6425 35.8002 27.7425 36.2002 27.7425C36.6002 27.7425 36.9002 27.6425 37.1002 27.3425C37.3002 27.0425 37.4002 26.6425 37.4002 26.1425C37.4002 25.6425 37.3002 25.2425 37.1002 24.9425C36.9002 24.6425 36.6002 24.5425 36.2002 24.5425C35.8002 24.5425 35.5002 24.6425 35.3002 24.9425C35.1002 25.2425 35.0002 25.6425 35.0002 26.1425Z" fill="#231F20"/>
<path id="Vector_5" d="M40.4004 24.2424C40.6004 24.2424 40.7004 24.2424 40.9004 24.2424L40.8004 24.5424C40.6004 24.5424 40.5004 24.4424 40.3004 24.4424C40.0004 24.4424 39.7004 24.5424 39.5004 24.8424C39.3004 25.1424 39.2004 25.4424 39.2004 25.8424V27.8424H38.9004V24.1424H39.2004V24.8424C39.3004 24.5424 39.5004 24.3424 39.7004 24.2424C39.9004 24.3424 40.1004 24.2424 40.4004 24.2424Z" fill="#231F20"/>
<path id="Vector_6" d="M44.4996 28.0425L43.6996 25.5425C43.5996 25.3425 43.5996 25.1425 43.4996 24.8425L43.3996 25.0425L43.1996 25.5425L42.3996 27.9425H42.0996L41.0996 24.2425H41.4996L42.0996 26.3425C42.1996 26.8425 42.2996 27.2425 42.3996 27.5425C42.4996 27.0425 42.5996 26.6425 42.6996 26.5425L43.4996 24.3425H43.7996L44.4996 26.5425C44.6996 27.0425 44.7996 27.4425 44.7996 27.5425C44.7996 27.4425 44.8996 27.0425 45.0996 26.3425L45.6996 24.2425H45.9996L44.9996 27.9425H44.4996V28.0425Z" fill="#231F20"/>
<path id="Vector_7" d="M48.7998 28.0425L48.6998 27.4425C48.4998 27.6425 48.2998 27.8425 48.0998 27.9425C47.8998 28.0425 47.6998 28.0425 47.3998 28.0425C46.9998 28.0425 46.7998 27.9425 46.5998 27.7425C46.3998 27.5425 46.2998 27.3425 46.2998 26.9425C46.2998 26.5425 46.3998 26.3425 46.6998 26.1425C46.9998 25.9425 47.3998 25.8425 47.9998 25.8425H48.6998V25.6425C48.6998 25.3425 48.5998 25.0425 48.4998 24.8425C48.3998 24.6425 48.0998 24.5425 47.7998 24.5425C47.4998 24.5425 47.0998 24.6425 46.6998 24.8425L46.5998 24.5425C46.9998 24.3425 47.3998 24.2425 47.7998 24.2425C48.1998 24.2425 48.4998 24.3425 48.6998 24.5425C48.8998 24.7425 48.9998 25.0425 48.9998 25.5425V27.9425H48.7998V28.0425ZM47.4998 27.7425C47.8998 27.7425 48.1998 27.6425 48.3998 27.4425C48.5998 27.2425 48.6998 26.9425 48.6998 26.5425V26.1425H48.0998C47.5998 26.1425 47.1998 26.2425 46.9998 26.3425C46.7998 26.4425 46.6998 26.6425 46.6998 26.9425C46.6998 27.1425 46.7998 27.3425 46.8998 27.4425C46.9998 27.7425 47.1998 27.7425 47.4998 27.7425Z" fill="#231F20"/>
<path id="Vector_8" d="M49.7002 24.3424H50.0002L50.8002 26.4424C51.0002 27.0424 51.2002 27.5424 51.2002 27.7424C51.3002 27.4424 51.4002 27.0424 51.7002 26.4424L52.5002 24.4424H52.8002L51.2002 28.7424C51.1002 29.0424 51.0002 29.3424 50.9002 29.4424C50.8002 29.5424 50.7002 29.6424 50.6002 29.7424C50.5002 29.8424 50.3002 29.8424 50.2002 29.8424C50.1002 29.8424 49.9002 29.8424 49.8002 29.7424V29.4424C49.9002 29.4424 50.1002 29.5424 50.2002 29.5424C50.3002 29.5424 50.4002 29.5424 50.5002 29.4424C50.6002 29.3424 50.7002 29.3424 50.7002 29.1424C50.7002 28.9424 50.9002 28.8424 50.9002 28.6424C51.0002 28.4424 51.1002 28.2424 51.1002 28.1424L49.7002 24.3424Z" fill="#231F20"/>
<path id="Vector_9" d="M55.5998 23.0424H55.2998V27.9425H55.5998V23.0424Z" fill="#231F20"/>
<path id="Vector_10" d="M59.5 28.0424V25.6424C59.5 25.2424 59.4 25.0424 59.3 24.8424C59.1 24.6424 58.9 24.5424 58.6 24.5424C58.2 24.5424 57.8 24.6424 57.6 24.8424C57.4 25.0424 57.3 25.4424 57.3 25.9424V27.9424H57V24.2424H57.3L57.4 24.7424C57.6 24.3424 58.1 24.1424 58.7 24.1424C59.5 24.1424 59.9 24.5424 59.9 25.4424V27.8424H59.5V28.0424Z" fill="#231F20"/>
<path id="Vector_11" d="M65.6004 28.0424H62.9004V23.0424H65.6004V23.3425H63.3004V25.2425H65.5004V25.5424H63.3004V27.6424H65.6004V28.0424Z" fill="#231F20"/>
<path id="Vector_12" d="M69.5004 24.3424V24.5424H68.7004C68.9004 24.8424 69.0004 25.0424 69.0004 25.3424C69.0004 25.7424 68.9004 25.9424 68.6004 26.2424C68.4004 26.4424 68.0004 26.5424 67.7004 26.5424C67.5004 26.5424 67.4004 26.5424 67.3004 26.5424C67.2004 26.6424 67.1004 26.7424 67.0004 26.7424C66.9004 26.8424 66.9004 26.9424 66.9004 27.0424C66.9004 27.1424 66.9004 27.2424 67.0004 27.3424C67.1004 27.4424 67.2004 27.4424 67.4004 27.4424H68.0004C68.4004 27.4424 68.7004 27.5424 68.9004 27.6424C69.1004 27.7424 69.2004 28.0424 69.2004 28.3424C69.2004 28.7424 69.0004 29.0424 68.7004 29.2424C68.4004 29.4424 67.9004 29.5424 67.4004 29.5424C66.9004 29.5424 66.6004 29.4424 66.3004 29.2424C66.0004 29.0424 65.9004 28.8424 65.9004 28.5424C65.9004 28.2424 66.0004 28.0424 66.1004 27.9424C66.3004 27.7424 66.5004 27.6424 66.7004 27.6424C66.6004 27.6424 66.5004 27.5424 66.4004 27.4424C66.3004 27.3424 66.3004 27.2424 66.3004 27.1424C66.3004 26.9424 66.5004 26.6424 66.8004 26.5424C66.6004 26.4424 66.4004 26.3424 66.3004 26.1424C66.2004 25.9424 66.1004 25.7424 66.1004 25.5424C66.1004 25.1424 66.2004 24.8424 66.4004 24.6424C66.6004 24.4424 66.9004 24.3424 67.3004 24.3424C67.5004 24.3424 67.7004 24.3424 67.9004 24.4424H69.5004V24.3424ZM66.5004 28.6424C66.5004 29.1424 66.9004 29.4424 67.6004 29.4424C68.6004 29.4424 69.0004 29.1424 69.0004 28.5424C69.0004 28.3424 68.9004 28.1424 68.8004 28.0424C68.6004 27.9424 68.4004 27.9424 68.1004 27.9424H67.5004C66.9004 27.8424 66.5004 28.1424 66.5004 28.6424ZM66.8004 25.4424C66.8004 25.7424 66.9004 25.9424 67.1004 26.1424C67.3004 26.3424 67.5004 26.3424 67.8004 26.3424C68.1004 26.3424 68.3004 26.2424 68.5004 26.1424C68.7004 26.0424 68.7004 25.7424 68.7004 25.4424C68.7004 25.1424 68.6004 24.9424 68.4004 24.7424C68.2004 24.5424 68.0004 24.5424 67.7004 24.5424C67.4004 24.5424 67.2004 24.6424 67.0004 24.8424C66.9004 24.9424 66.8004 25.1424 66.8004 25.4424Z" fill="#231F20"/>
<path id="Vector_13" d="M69.5996 24.3424H69.8996L70.6996 26.4424C70.8996 27.0424 71.0996 27.5424 71.0996 27.7424C71.1996 27.4424 71.2996 27.0424 71.5996 26.4424L72.3996 24.4424H72.6996L71.0996 28.7424C70.9996 29.0424 70.8996 29.3424 70.7996 29.4424C70.6996 29.5424 70.5996 29.6424 70.4996 29.7424C70.3996 29.8424 70.1996 29.8424 70.0996 29.8424C69.9996 29.8424 69.7996 29.8424 69.6996 29.7424V29.4424C69.7996 29.4424 69.9996 29.5424 70.0996 29.5424C70.1996 29.5424 70.2996 29.5424 70.3996 29.4424C70.4996 29.3424 70.5996 29.3424 70.5996 29.1424C70.5996 28.9424 70.7996 28.8424 70.7996 28.6424C70.8996 28.4424 70.9996 28.2424 70.9996 28.1424L69.5996 24.3424Z" fill="#231F20"/>
<path id="Vector_14" d="M75 28.0425C74.4 28.0425 74 27.8425 73.8 27.4425V27.7425C73.8 27.9425 73.8 28.0425 73.8 28.2425V29.6425H73.5V24.3425H73.8L73.9 24.8425C74.2 24.4425 74.6 24.2425 75.1 24.2425C75.6 24.2425 76 24.4425 76.2 24.7425C76.5 25.0425 76.6 25.5425 76.6 26.1425C76.6 26.7425 76.5 27.2425 76.2 27.5425C75.8 27.9425 75.5 28.0425 75 28.0425ZM75 27.7425C75.4 27.7425 75.7 27.6425 75.9 27.3425C76.1 27.0425 76.2 26.6425 76.2 26.1425C76.2 25.0425 75.8 24.5425 75 24.5425C74.6 24.5425 74.3 24.6425 74.1 24.9425C73.9 25.1425 73.8 25.5425 73.8 26.0425V26.1425C73.8 26.7425 73.9 27.1425 74.1 27.3425C74.2 27.6425 74.5 27.7425 75 27.7425Z" fill="#231F20"/>
<path id="Vector_15" d="M78.4996 27.7424C78.6996 27.7424 78.8996 27.7424 79.0996 27.6424V27.9424C78.8996 28.0424 78.7996 28.0424 78.4996 28.0424C78.1996 28.0424 77.8996 27.9424 77.7996 27.7424C77.6996 27.5424 77.5996 27.3424 77.5996 26.9424V24.5424H77.0996V24.3424L77.5996 24.1424L77.7996 23.3424H77.9996V24.2424H79.0996V24.5424H77.9996V26.9424C77.9996 27.2424 77.9996 27.4424 78.0996 27.5424C78.0996 27.7424 78.2996 27.7424 78.4996 27.7424Z" fill="#231F20"/>
<path id="Vector_16" d="M30.2 32.2424V33.3424H30V30.8424H30.6C30.9 30.8424 31.1 30.9424 31.3 31.0424C31.4 31.1424 31.5 31.3424 31.5 31.5424C31.5 31.7424 31.5 31.8424 31.4 31.9424C31.3 32.0424 31.2 32.1424 31 32.1424L31.7 33.2424H31.5L30.9 32.1424H30.2V32.2424ZM30.2 32.1424H30.7C30.9 32.1424 31.1 32.1424 31.2 32.0424C31.3 31.9424 31.4 31.8424 31.4 31.6424C31.4 31.4424 31.3 31.3424 31.2 31.2424C31.1 31.1424 30.9 31.1424 30.7 31.1424H30.3V32.1424H30.2Z" fill="#231F20"/>
<path id="Vector_17" d="M33.5004 32.4424C33.5004 32.7424 33.4004 32.9424 33.3004 33.1424C33.2004 33.3424 33.0004 33.4424 32.7004 33.4424C32.5004 33.4424 32.4004 33.4424 32.3004 33.3424C32.2004 33.2424 32.1004 33.1424 32.0004 33.0424C31.9004 32.9424 31.9004 32.7424 31.9004 32.5424C31.9004 32.2424 32.0004 32.0424 32.1004 31.8424C32.2004 31.6424 32.4004 31.6424 32.7004 31.6424C33.0004 31.6424 33.1004 31.7424 33.3004 31.9424C33.4004 31.9424 33.5004 32.1424 33.5004 32.4424ZM32.1004 32.4424C32.1004 32.7424 32.2004 32.8424 32.3004 33.0424C32.4004 33.1424 32.6004 33.2424 32.8004 33.2424C33.0004 33.2424 33.2004 33.1424 33.3004 33.0424C33.4004 32.9424 33.5004 32.7424 33.5004 32.4424C33.5004 32.1424 33.4004 32.0424 33.3004 31.8424C33.2004 31.7424 33.0004 31.6424 32.8004 31.6424C32.6004 31.6424 32.4004 31.7424 32.3004 31.8424C32.1004 31.9424 32.1004 32.1424 32.1004 32.4424Z" fill="#231F20"/>
<path id="Vector_18" d="M33.7002 31.5424H33.9002L34.3002 32.5424C34.4002 32.8424 34.5002 33.0424 34.5002 33.1424C34.5002 33.0424 34.6002 32.7424 34.7002 32.5424L35.1002 31.5424H35.3002L34.5002 33.6424C34.4002 33.8424 34.4002 33.9425 34.3002 33.9425C34.3002 34.0425 34.2002 34.0424 34.1002 34.0424C34.0002 34.0424 34.0002 34.0424 33.9002 34.0424C33.8002 34.0424 33.8002 34.0424 33.7002 34.0424V33.9425C33.8002 33.9425 33.8002 33.9425 33.9002 33.9425C34.0002 33.9425 34.0002 33.9425 34.1002 33.9425L34.2002 33.8425C34.2002 33.8425 34.3002 33.7424 34.3002 33.5424C34.3002 33.4424 34.4002 33.3425 34.4002 33.3425L33.7002 31.5424Z" fill="#231F20"/>
<path id="Vector_19" d="M36.6996 33.3425V33.0424C36.5996 33.1424 36.4996 33.2425 36.3996 33.2425C36.2996 33.2425 36.1996 33.3425 36.0996 33.3425C35.8996 33.3425 35.7996 33.3425 35.6996 33.2425C35.5996 33.1425 35.5996 33.0425 35.5996 32.8425C35.5996 32.6425 35.6996 32.5425 35.7996 32.4425C35.8996 32.3425 36.1996 32.2425 36.3996 32.2425H36.6996V32.1424C36.6996 31.9424 36.6996 31.8425 36.5996 31.7425C36.4996 31.6425 36.3996 31.6424 36.2996 31.6424C36.0996 31.6424 35.9996 31.6425 35.7996 31.7425L35.6996 31.6424C35.8996 31.5424 36.0996 31.5424 36.2996 31.5424C36.4996 31.5424 36.6996 31.6425 36.7996 31.7425C36.8996 31.8425 36.8996 32.0425 36.8996 32.2425V33.4425H36.6996V33.3425ZM35.9996 33.2425C36.1996 33.2425 36.2996 33.1424 36.4996 33.0424C36.5996 32.9424 36.6996 32.7424 36.6996 32.5424V32.3425H36.3996C36.0996 32.3425 35.9996 32.4425 35.7996 32.4425C35.6996 32.5425 35.5996 32.6425 35.5996 32.7425C35.5996 32.8425 35.5996 32.9424 35.6996 33.0424C35.7996 33.1424 35.8996 33.2425 35.9996 33.2425Z" fill="#231F20"/>
<path id="Vector_20" d="M37.6004 30.7425H37.4004V33.3425H37.6004V30.7425Z" fill="#231F20"/>
<path id="Vector_21" d="M40.9 33.3424H40.7L39.2 31.1424C39.2 31.4424 39.2 31.6424 39.2 31.7424V33.3424H39V30.8424H39.2L40.7 33.0424C40.7 32.8424 40.7 32.6424 40.7 32.4424V30.8424H40.9V33.3424Z" fill="#231F20"/>
<path id="Vector_22" d="M43.1 32.4424C43.1 32.7424 43 32.9424 42.9 33.1424C42.8 33.3424 42.6 33.4424 42.3 33.4424C42.1 33.4424 42 33.4424 41.9 33.3424C41.8 33.2424 41.7 33.1424 41.6 33.0424C41.5 32.9424 41.5 32.7424 41.5 32.5424C41.5 32.2424 41.6 32.0424 41.7 31.8424C41.8 31.6424 42 31.6424 42.3 31.6424C42.6 31.6424 42.7 31.7424 42.9 31.9424C43 31.9424 43.1 32.1424 43.1 32.4424ZM41.7 32.4424C41.7 32.7424 41.8 32.8424 41.9 33.0424C42 33.1424 42.2 33.2424 42.4 33.2424C42.6 33.2424 42.8 33.1424 42.9 33.0424C43 32.9424 43.1 32.7424 43.1 32.4424C43.1 32.1424 43 32.0424 42.9 31.8424C42.8 31.7424 42.6 31.6424 42.4 31.6424C42.2 31.6424 42 31.7424 41.9 31.8424C41.7 31.9424 41.7 32.1424 41.7 32.4424Z" fill="#231F20"/>
<path id="Vector_23" d="M44.2996 31.4425C44.3996 31.4425 44.4996 31.4425 44.4996 31.4425V31.6425C44.3996 31.6425 44.2996 31.6425 44.2996 31.6425C44.0996 31.6425 43.9996 31.7425 43.8996 31.8425C43.7996 31.9425 43.7996 32.1425 43.7996 32.3425V33.3425H43.5996V31.5425H43.6996V31.8425C43.7996 31.7425 43.8996 31.6425 43.8996 31.5425C44.0996 31.5425 44.1996 31.4425 44.2996 31.4425Z" fill="#231F20"/>
<path id="Vector_24" d="M46.4002 33.3425L46.0002 32.1425C46.0002 32.0425 45.9002 31.9425 45.9002 31.7425V31.8425L45.8002 32.0425L45.4002 33.2425H45.2002L44.7002 31.4425H44.9002L45.2002 32.5425C45.3002 32.8425 45.3002 33.0425 45.3002 33.1425C45.4002 32.8425 45.4002 32.7425 45.4002 32.6425L45.8002 31.5425H46.0002L46.4002 32.6425C46.5002 32.9425 46.5002 33.0425 46.5002 33.1425C46.5002 33.0425 46.6002 32.8425 46.6002 32.5425L46.9002 31.4425H47.1002L46.6002 33.2425H46.4002V33.3425Z" fill="#231F20"/>
<path id="Vector_25" d="M48.2004 33.3425C47.9004 33.3425 47.7004 33.2425 47.6004 33.1425C47.5004 33.0425 47.4004 32.7425 47.4004 32.4425C47.4004 32.1425 47.5004 31.9425 47.6004 31.7425C47.7004 31.5425 47.9004 31.4425 48.2004 31.4425C48.4004 31.4425 48.6004 31.5425 48.7004 31.6425C48.8004 31.8425 48.9004 32.0425 48.9004 32.2425V32.3425H47.5004C47.5004 32.6425 47.6004 32.7425 47.7004 32.9425C47.8004 33.0425 48.0004 33.1425 48.2004 33.1425C48.3004 33.1425 48.4004 33.1425 48.5004 33.1425C48.6004 33.1425 48.7004 33.1425 48.8004 33.0425V33.2425C48.7004 33.2425 48.6004 33.3425 48.5004 33.3425C48.4004 33.3425 48.3004 33.3425 48.2004 33.3425ZM48.2004 31.6425C48.0004 31.6425 47.9004 31.7425 47.8004 31.8425C47.7004 31.9425 47.6004 32.1425 47.6004 32.3425H48.7004C48.7004 32.1425 48.7004 31.9425 48.6004 31.8425C48.4004 31.6425 48.3004 31.6425 48.2004 31.6425Z" fill="#231F20"/>
<path id="Vector_26" d="M50.7996 31.5425V31.6425H50.3996C50.4996 31.7425 50.5996 31.9425 50.5996 32.0425C50.5996 32.2425 50.4996 32.3425 50.3996 32.4425C50.2996 32.5425 50.0996 32.6425 49.8996 32.6425C49.7996 32.6425 49.7996 32.6425 49.6996 32.6425C49.5996 32.6425 49.5996 32.7425 49.4996 32.7425L49.3996 32.8425C49.3996 32.9425 49.3996 32.9425 49.4996 32.9425C49.4996 32.9425 49.5996 32.9425 49.6996 32.9425H49.9996C50.1996 32.9425 50.3996 32.9425 50.4996 33.0425C50.5996 33.1425 50.6996 33.2425 50.6996 33.4425C50.6996 33.6425 50.5996 33.7425 50.4996 33.8425C50.2996 33.9425 50.0996 34.0425 49.7996 34.0425C49.5996 34.0425 49.3996 34.0425 49.2996 33.9425C49.1996 33.8425 49.0996 33.7425 49.0996 33.5425C49.0996 33.4425 49.0996 33.3425 49.1996 33.2425C49.2996 33.1425 49.3996 33.1425 49.4996 33.0425C49.3996 33.0425 49.3996 32.9425 49.3996 32.9425L49.2996 32.8425C49.2996 32.7425 49.3996 32.6425 49.4996 32.5425C49.3996 32.5425 49.2996 32.4425 49.2996 32.3425C49.1996 32.2425 49.1996 32.1425 49.1996 32.0425C49.1996 31.8425 49.2996 31.7425 49.3996 31.6425C49.4996 31.5425 49.6996 31.4425 49.8996 31.4425C49.9996 31.4425 50.0996 31.4425 50.1996 31.4425H50.7996V31.5425ZM49.2996 33.6425C49.2996 33.9425 49.4996 34.0425 49.8996 34.0425C50.3996 34.0425 50.5996 33.8425 50.5996 33.5425C50.5996 33.4425 50.5996 33.3425 50.4996 33.3425C50.3996 33.3425 50.2996 33.2425 50.0996 33.2425H49.7996C49.4996 33.2425 49.2996 33.3425 49.2996 33.6425ZM49.3996 32.0425C49.3996 32.1425 49.3996 32.3425 49.4996 32.3425C49.5996 32.4425 49.6996 32.4425 49.7996 32.4425C49.9996 32.4425 50.0996 32.4425 50.1996 32.3425C50.2996 32.2425 50.2996 32.1425 50.2996 32.0425C50.2996 31.8425 50.2996 31.7425 50.1996 31.6425C50.0996 31.5425 49.9996 31.5425 49.7996 31.5425C49.6996 31.5425 49.4996 31.5425 49.4996 31.6425C49.4996 31.8425 49.3996 31.9425 49.3996 32.0425Z" fill="#231F20"/>
<path id="Vector_27" d="M51.0996 31.0424C51.0996 30.9424 51.0996 30.8424 51.1996 30.8424H51.2996V30.9424C51.2996 31.0424 51.2996 31.0424 51.2996 31.0424C51.2996 31.0424 51.2996 31.0424 51.1996 31.0424C51.1996 31.1424 51.0996 31.1424 51.0996 31.0424ZM51.2996 33.3424H51.0996V31.5424H51.2996V33.3424Z" fill="#231F20"/>
<path id="Vector_28" d="M53.1 33.3425V33.0424C53 33.1424 52.9 33.2425 52.8 33.2425C52.7 33.2425 52.6 33.3425 52.5 33.3425C52.3 33.3425 52.2 33.3425 52.1 33.2425C52 33.1425 52 33.0425 52 32.8425C52 32.6425 52.1 32.5425 52.2 32.4425C52.3 32.3425 52.6 32.2425 52.8 32.2425H53.1V32.1424C53.1 31.9424 53.1 31.8425 53 31.7425C52.9 31.6425 52.8 31.6424 52.7 31.6424C52.5 31.6424 52.4 31.6425 52.2 31.7425L52.1 31.6424C52.3 31.5424 52.5 31.5424 52.7 31.5424C52.9 31.5424 53.1 31.6425 53.2 31.7425C53.3 31.8425 53.3 32.0425 53.3 32.2425V33.4425H53.1V33.3425ZM52.4 33.2425C52.6 33.2425 52.7 33.1424 52.9 33.0424C53 32.9424 53.1 32.7424 53.1 32.5424V32.3425H52.8C52.5 32.3425 52.4 32.4425 52.2 32.4425C52.1 32.5425 52 32.6425 52 32.7425C52 32.8425 52 32.9424 52.1 33.0424C52.2 33.1424 52.3 33.2425 52.4 33.2425Z" fill="#231F20"/>
<path id="Vector_29" d="M54.9996 33.3425V32.1424C54.9996 31.9424 54.9996 31.8425 54.8996 31.7425C54.7996 31.6425 54.6996 31.6424 54.4996 31.6424C54.2996 31.6424 54.0996 31.7425 53.9996 31.8425C53.8996 31.9425 53.7996 32.1425 53.7996 32.3425V33.3425H53.5996V31.5424H53.6996V31.8425C53.7996 31.6425 53.9996 31.5424 54.2996 31.5424C54.6996 31.5424 54.8996 31.7425 54.8996 32.2425V33.4425H54.9996V33.3425Z" fill="#231F20"/>
<path id="Vector_30" d="M58.1002 33.3424H56.7002V30.8424H58.1002V31.0424H56.9002V31.9424H58.0002V32.1424H56.9002V33.1424H58.1002V33.3424Z" fill="#231F20"/>
<path id="Vector_31" d="M60.9002 33.3425V32.1424C60.9002 31.9424 60.9002 31.8425 60.8002 31.7425C60.7002 31.6425 60.6002 31.6424 60.5002 31.6424C60.3002 31.6424 60.2002 31.7425 60.1002 31.8425C60.0002 31.9425 60.0002 32.1425 60.0002 32.3425V33.4425H59.8002V32.1424C59.8002 31.8424 59.7002 31.6424 59.4002 31.6424C59.2002 31.6424 59.1002 31.7425 59.0002 31.8425C58.9002 31.9425 58.9002 32.1425 58.9002 32.3425V33.3425H58.7002V31.5424H58.8002V31.8425C58.9002 31.7425 58.9002 31.6424 59.0002 31.6424C59.1002 31.6424 59.2002 31.5424 59.3002 31.5424C59.6002 31.5424 59.8002 31.6425 59.9002 31.8425C60.0002 31.7425 60.0002 31.6424 60.1002 31.6424C60.2002 31.5424 60.3002 31.5424 60.4002 31.5424C60.6002 31.5424 60.8002 31.6425 60.9002 31.7425C61.0002 31.8425 61.0002 32.0425 61.0002 32.2425V33.4425H60.9002V33.3425Z" fill="#231F20"/>
<path id="Vector_32" d="M62.4002 31.4424C62.7002 31.4424 62.8002 31.5424 63.0002 31.6424C63.1002 31.8424 63.2002 32.0424 63.2002 32.3424C63.2002 32.6424 63.1002 32.8424 63.0002 33.0424C62.9002 33.2424 62.7002 33.2424 62.4002 33.2424C62.3002 33.2424 62.2002 33.2424 62.0002 33.1424C61.9002 33.0424 61.8002 33.0424 61.8002 32.9424V33.2424H61.7002V30.6424H61.9002V31.3424C61.9002 31.4424 61.9002 31.5424 61.9002 31.6424V31.7424C62.0002 31.6424 62.1002 31.5424 62.2002 31.5424C62.2002 31.5424 62.3002 31.4424 62.4002 31.4424ZM62.4002 31.6424C62.2002 31.6424 62.0002 31.7424 61.9002 31.8424C61.8002 31.9424 61.8002 32.1424 61.8002 32.4424C61.8002 32.7424 61.8002 32.9424 61.9002 33.0424C62.0002 33.1424 62.1002 33.2424 62.4002 33.2424C62.6002 33.2424 62.7002 33.1424 62.9002 33.0424C63.0002 32.9424 63.1002 32.7424 63.1002 32.4424C63.0002 31.8424 62.8002 31.6424 62.4002 31.6424Z" fill="#231F20"/>
<path id="Vector_33" d="M64.8002 33.3425V33.0424C64.7002 33.1424 64.6002 33.2425 64.5002 33.2425C64.4002 33.2425 64.3002 33.3425 64.2002 33.3425C64.0002 33.3425 63.9002 33.3425 63.8002 33.2425C63.7002 33.1425 63.7002 33.0425 63.7002 32.8425C63.7002 32.6425 63.8002 32.5425 63.9002 32.4425C64.0002 32.3425 64.3002 32.2425 64.5002 32.2425H64.8002V32.1424C64.8002 31.9424 64.8002 31.8425 64.7002 31.7425C64.6002 31.6425 64.5002 31.6424 64.4002 31.6424C64.2002 31.6424 64.1002 31.6425 63.9002 31.7425L63.8002 31.6424C64.0002 31.5424 64.2002 31.5424 64.4002 31.5424C64.6002 31.5424 64.8002 31.6425 64.9002 31.7425C65.0002 31.8425 65.0002 32.0425 65.0002 32.2425V33.4425H64.8002V33.3425ZM64.1002 33.2425C64.3002 33.2425 64.4002 33.1424 64.6002 33.0424C64.7002 32.9424 64.8002 32.7424 64.8002 32.5424V32.3425H64.5002C64.2002 32.3425 64.1002 32.4425 63.9002 32.4425C63.8002 32.5425 63.7002 32.6425 63.7002 32.7425C63.7002 32.8425 63.7002 32.9424 63.8002 33.0424C63.9002 33.1424 64.0002 33.2425 64.1002 33.2425Z" fill="#231F20"/>
<path id="Vector_34" d="M66.6998 32.8425C66.6998 33.0425 66.5998 33.1425 66.4998 33.2425C66.3998 33.3425 66.1998 33.3425 65.9998 33.3425C65.7998 33.3425 65.5998 33.3425 65.3998 33.2425V33.0425C65.5998 33.1425 65.7998 33.1425 65.9998 33.1425C66.1998 33.1425 66.2998 33.1425 66.3998 33.0425C66.4998 32.9425 66.4998 32.9425 66.4998 32.8425C66.4998 32.7425 66.4998 32.6425 66.3998 32.6425C66.2998 32.5425 66.1998 32.5425 65.9998 32.4425C65.7998 32.3425 65.6998 32.3425 65.5998 32.2425C65.4998 32.2425 65.4998 32.1425 65.3998 32.0425C65.3998 31.9425 65.2998 31.9425 65.2998 31.8425C65.2998 31.7425 65.3998 31.6425 65.4998 31.5425C65.5998 31.4425 65.7998 31.4425 65.9998 31.4425C66.1998 31.4425 66.3998 31.4425 66.5998 31.5425L66.4998 31.7425C66.2998 31.6425 66.1998 31.6425 65.9998 31.6425C65.8998 31.6425 65.6998 31.6425 65.5998 31.7425C65.4998 31.7425 65.4998 31.8425 65.4998 31.9425C65.4998 32.0425 65.4998 32.1425 65.5998 32.1425C65.6998 32.2425 65.7998 32.2425 65.9998 32.3425C66.1998 32.4425 66.2998 32.4425 66.3998 32.5425C66.4998 32.5425 66.4998 32.6425 66.5998 32.7425C66.6998 32.7425 66.6998 32.7425 66.6998 32.8425Z" fill="#231F20"/>
<path id="Vector_35" d="M68.3004 32.8425C68.3004 33.0425 68.2004 33.1425 68.1004 33.2425C68.0004 33.3425 67.8004 33.3425 67.6004 33.3425C67.4004 33.3425 67.2004 33.3425 67.0004 33.2425V33.0425C67.2004 33.1425 67.4004 33.1425 67.6004 33.1425C67.8004 33.1425 67.9004 33.1425 68.0004 33.0425C68.1004 32.9425 68.1004 32.9425 68.1004 32.8425C68.1004 32.7425 68.1004 32.6425 68.0004 32.6425C67.9004 32.5425 67.8004 32.5425 67.6004 32.4425C67.4004 32.3425 67.3004 32.3425 67.2004 32.2425C67.1004 32.2425 67.1004 32.1425 67.0004 32.0425C67.0004 31.9425 66.9004 31.9425 66.9004 31.8425C66.9004 31.7425 67.0004 31.6425 67.1004 31.5425C67.2004 31.4425 67.4004 31.4425 67.6004 31.4425C67.8004 31.4425 68.0004 31.4425 68.2004 31.5425L68.1004 31.7425C67.9004 31.6425 67.8004 31.6425 67.6004 31.6425C67.5004 31.6425 67.3004 31.6425 67.2004 31.7425C67.1004 31.7425 67.1004 31.8425 67.1004 31.9425C67.1004 32.0425 67.1004 32.1425 67.2004 32.1425C67.3004 32.2425 67.4004 32.2425 67.6004 32.3425C67.8004 32.4425 67.9004 32.4425 68.0004 32.5425C68.1004 32.5425 68.1004 32.6425 68.2004 32.7425C68.3004 32.7425 68.3004 32.7425 68.3004 32.8425Z" fill="#231F20"/>
<path id="Vector_36" d="M68.4004 31.5424H68.6004L69.0004 32.5424C69.1004 32.8424 69.2004 33.0424 69.2004 33.1424C69.2004 33.0424 69.3004 32.7424 69.4004 32.5424L69.8004 31.5424H70.0004L69.2004 33.6424C69.1004 33.8424 69.1004 33.9425 69.0004 33.9425C69.0004 34.0425 68.9004 34.0424 68.8004 34.0424C68.7004 34.0424 68.7004 34.0424 68.6004 34.0424C68.5004 34.0424 68.5004 34.0424 68.4004 34.0424V33.9425C68.5004 33.9425 68.5004 33.9425 68.6004 33.9425C68.7004 33.9425 68.7004 33.9425 68.8004 33.9425L68.9004 33.8425C68.9004 33.8425 69.0004 33.7424 69.0004 33.5424C69.0004 33.4424 69.1004 33.3425 69.1004 33.3425L68.4004 31.5424Z" fill="#231F20"/>
<path id="Vector_37" d="M71.2002 31.0424C71.2002 30.9424 71.2002 30.8424 71.3002 30.8424H71.4002V30.9424C71.4002 31.0424 71.4002 31.0424 71.4002 31.0424C71.4002 31.0424 71.4002 31.0424 71.3002 31.0424C71.2002 31.1424 71.2002 31.1424 71.2002 31.0424ZM71.4002 33.3424H71.2002V31.5424H71.4002V33.3424Z" fill="#231F20"/>
<path id="Vector_38" d="M73.3004 33.3425V32.1424C73.3004 31.9424 73.3004 31.8425 73.2004 31.7425C73.1004 31.6425 73.0004 31.6424 72.8004 31.6424C72.6004 31.6424 72.4004 31.7425 72.3004 31.8425C72.2004 31.9425 72.1004 32.1425 72.1004 32.3425V33.3425H71.9004V31.5424H72.0004V31.8425C72.1004 31.6425 72.3004 31.5424 72.6004 31.5424C73.0004 31.5424 73.2004 31.7425 73.2004 32.2425V33.4425H73.3004V33.3425Z" fill="#231F20"/>
<path id="Vector_39" d="M76.0004 31.0425C75.7004 31.0425 75.4004 31.1425 75.3004 31.3425C75.1004 31.5425 75.0004 31.8425 75.0004 32.1425C75.0004 32.5425 75.1004 32.7425 75.3004 32.9425C75.5004 33.1425 75.7004 33.2425 76.0004 33.2425C76.2004 33.2425 76.4004 33.2425 76.6004 33.1425V33.3425C76.4004 33.4425 76.2004 33.4425 76.0004 33.4425C75.7004 33.4425 75.4004 33.3425 75.2004 33.1425C75.0004 32.9425 74.9004 32.6425 74.9004 32.2425C74.9004 31.9425 74.9004 31.7425 75.0004 31.5425C75.1004 31.3425 75.2004 31.2425 75.4004 31.1425C75.6004 31.0425 75.8004 30.9425 76.0004 30.9425C76.2004 30.9425 76.5004 30.9425 76.6004 31.0425L76.5004 31.2425C76.4004 31.0425 76.2004 31.0425 76.0004 31.0425Z" fill="#231F20"/>
<path id="Vector_40" d="M78.1996 33.3425V33.0424C78.0996 33.1424 77.9996 33.2425 77.8996 33.2425C77.7996 33.2425 77.6996 33.3425 77.5996 33.3425C77.3996 33.3425 77.2996 33.3425 77.1996 33.2425C77.0996 33.1425 77.0996 33.0425 77.0996 32.8425C77.0996 32.6425 77.1996 32.5425 77.2996 32.4425C77.3996 32.3425 77.6996 32.2425 77.8996 32.2425H78.1996V32.1424C78.1996 31.9424 78.1996 31.8425 78.0996 31.7425C77.9996 31.6425 77.8996 31.6424 77.7996 31.6424C77.5996 31.6424 77.4996 31.6425 77.2996 31.7425L77.1996 31.6424C77.3996 31.5424 77.5996 31.5424 77.7996 31.5424C77.9996 31.5424 78.1996 31.6425 78.2996 31.7425C78.3996 31.8425 78.3996 32.0425 78.3996 32.2425V33.4425H78.1996V33.3425ZM77.4996 33.2425C77.6996 33.2425 77.7996 33.1424 77.9996 33.0424C78.0996 32.9424 78.1996 32.7424 78.1996 32.5424V32.3425H77.8996C77.5996 32.3425 77.4996 32.4425 77.2996 32.4425C77.1996 32.5425 77.0996 32.6425 77.0996 32.7425C77.0996 32.8425 77.0996 32.9424 77.1996 33.0424C77.2996 33.1424 77.3996 33.2425 77.4996 33.2425Z" fill="#231F20"/>
<path id="Vector_41" d="M78.9004 31.0424C78.9004 30.9424 78.9004 30.8424 79.0004 30.8424H79.1004V30.9424C79.1004 31.0424 79.1004 31.0424 79.1004 31.0424C79.1004 31.0424 79.1004 31.0424 79.0004 31.0424C78.9004 31.1424 78.9004 31.1424 78.9004 31.0424ZM79.1004 33.3424H78.9004V31.5424H79.1004V33.3424Z" fill="#231F20"/>
<path id="Vector_42" d="M80.4002 31.4425C80.5002 31.4425 80.6002 31.4425 80.6002 31.4425V31.6425C80.5002 31.6425 80.4002 31.6425 80.4002 31.6425C80.2002 31.6425 80.1002 31.7425 80.0002 31.8425C79.9002 31.9425 79.9002 32.1425 79.9002 32.3425V33.3425H79.7002V31.5425H79.8002V31.8425C79.9002 31.7425 80.0002 31.6425 80.0002 31.5425C80.2002 31.5425 80.3002 31.4425 80.4002 31.4425Z" fill="#231F20"/>
<path id="Vector_43" d="M82.6 32.4424C82.6 32.7424 82.5 32.9424 82.4 33.1424C82.3 33.3424 82.1 33.4424 81.8 33.4424C81.6 33.4424 81.5 33.4424 81.4 33.3424C81.3 33.2424 81.2 33.1424 81.1 33.0424C81 32.9424 81 32.7424 81 32.5424C81 32.2424 81.1 32.0424 81.2 31.8424C81.3 31.6424 81.5 31.6424 81.8 31.6424C82.1 31.6424 82.2 31.7424 82.4 31.9424C82.5 31.9424 82.6 32.1424 82.6 32.4424ZM81.1 32.4424C81.1 32.7424 81.2 32.8424 81.3 33.0424C81.4 33.1424 81.6 33.2424 81.8 33.2424C82 33.2424 82.2 33.1424 82.3 33.0424C82.4 32.9424 82.5 32.7424 82.5 32.4424C82.5 32.1424 82.4 32.0424 82.3 31.8424C82.2 31.7424 82 31.6424 81.8 31.6424C81.6 31.6424 81.4 31.7424 81.3 31.8424C81.2 31.9424 81.1 32.1424 81.1 32.4424Z" fill="#231F20"/>
<path id="Vector_44" d="M9.99961 24.0425C9.99961 24.0425 9.49961 24.0425 9.39961 23.9425C9.29961 23.9425 9.09961 23.8425 9.09961 23.7425C9.09961 23.7425 9.09961 23.5425 9.19961 23.6425C9.29961 23.6425 9.29961 23.7425 9.59961 23.7425C9.69961 23.7425 9.79961 23.7425 9.89961 23.7425L9.99961 24.0425Z" fill="#010101"/>
<path id="Vector_45" d="M14.7 26.3424H14.4C14.4 26.2424 14.9 25.6424 14.9 25.6424C15.1 25.4424 15.4 25.0424 15.4 24.9424C15.9 24.0424 15.6 23.5424 15.5 23.4424C15.1 22.7424 14.3 22.8424 14.2 22.9424C13.5 23.1424 13.5 23.9424 13.5 23.9424C13.5 23.9424 13.5 24.0424 13.4 24.1424C13.2 24.3424 12.9 24.9424 12.9 24.9424H13L13.3 24.6424V24.7424C13.3 25.0424 13.1 25.3424 13 25.4424C12.8 25.7424 12.4 26.5424 12.4 26.5424H12.5C12.8 26.1424 13.7 25.5424 13.7 25.5424C13.9 25.3424 13.7 24.7424 13.7 24.7424L13.8 24.8424C13.8 24.8424 13.9 25.0424 13.9 25.2424C13.9 25.3424 13.9 25.6424 13.9 25.6424L14 25.5424C14 25.4424 14.3 24.7424 14.1 24.3424C14.1 24.2424 13.6 24.0424 13.6 24.0424C13.6 23.8424 13.7 23.6424 13.8 23.5424C14.4 23.1424 14.9 23.5424 15 23.8424C15.3 24.5424 14.7 25.2424 14.5 25.3424C14.1 25.7424 13.2 26.5424 13.1 26.7424C12.4 27.5424 12.7 27.9424 12.8 28.1424C12.9 28.4424 13.8 29.1424 14 29.3424C14.3 29.5424 14.5 29.8424 14.5 30.0424C14.7 30.8424 13.9 30.9424 13.6 30.8424C13 30.7424 12 29.8424 11.8 29.7424C11.2 29.3424 11 29.4424 11 29.3424C10.9 28.8424 10.9 27.2424 10.9 27.2424H11C11.1 27.2424 11.1 27.2424 11.1 27.2424V26.8424C11.2 26.7424 11.3 26.4424 11.3 26.3424C11.6 25.7424 11.8 25.2424 11.8 25.0424C11.8 24.7424 11.8 24.2424 11.8 24.2424C11.8 24.1424 11.9 24.0424 12 23.9424C12 24.0424 11.9 24.0424 11.9 24.0424C11.8 23.8424 11.8 23.8424 11.7 23.8424C11.7 23.8424 11.8 23.7424 11.9 23.7424H12V23.8424C12 23.8424 12 23.8424 12 23.9424C12 23.8424 12 23.6424 12 23.6424L11.8 23.5424L12.2 22.8424H12.1C12 22.8424 11.9 22.9424 11.9 22.9424C11.8 22.8424 11.7 22.8424 11.7 22.8424C11.5 22.8424 11.5 23.0424 11.5 23.0424C11.6 23.2424 11.7 23.1424 11.8 23.1424L11.7 23.2424L11.5 22.9424C11.5 22.9424 11.5 22.8424 11.5 22.7424H11.6C11.7 22.7424 11.8 22.6424 11.8 22.6424C11.8 22.4424 11.6 22.4424 11.6 22.4424C11.6 22.3424 11.5 22.2424 11.5 22.2424C11.4 22.2424 11.3 22.3424 11.3 22.3424C11.2 22.3424 11.2 22.3424 11.2 22.3424C11 22.3424 11 22.4424 11 22.4424C11 22.6424 11.3 22.6424 11.3 22.6424L11.2 22.7424L10.6 22.6424L10.5 22.4424C10.5 22.4424 10.5 22.4424 10.6 22.4424C10.8 22.4424 10.8 22.3424 10.8 22.3424C10.8 22.0424 10.5 22.1424 10.5 22.1424C10.4 21.9424 10.3 22.0424 10.3 22.0424L10.5 22.8424C10.5 22.8424 10.1 23.3424 10 23.3424L10.1 23.6424L10.3 23.9424L10.2 24.1424L11 24.2424L10.9 24.5424C10.9 24.5424 9.9 24.7424 9.7 24.8424C9.4 25.0424 9.2 25.3424 9 25.5424C8.9 25.6424 8.7 26.6424 8.4 27.1424H8.9L8 29.0424H7.9C7.9 29.0424 7.9 28.6424 7.9 28.5424L7.8 28.2424C7.8 28.1424 7.5 27.9424 7.5 27.9424H7.4C7.5 28.0424 7.5 28.1424 7.5 28.2424C7.5 28.3424 7.5 28.3424 7.4 28.4424C7.4 28.5424 7.4 28.5424 7.4 28.5424L7.5 28.9424H7.4C7.3 28.8424 7.3 28.8424 7.3 28.8424V25.6424L7.5 25.7424L7.4 25.9424L7.7 26.0424L8.4 26.7424L8.7 25.9424L7.9 25.5424L7.8 25.3424H7.6L7.5 25.2424C7.6 25.1424 7.8 24.9424 7.8 24.8424C7.8 24.7424 7.8 24.7424 7.8 24.5424C7.8 24.4424 7.8 24.2424 7.7 24.2424C7.7 24.2424 7.6 24.0424 7.6 24.1424C7.6 24.3424 7.5 24.5424 7.5 24.5424C7.5 24.5424 7.5 24.5424 7.4 24.5424C7.3 24.5424 7.3 24.5424 7.3 24.5424L7.2 24.9424L7.1 24.8424V23.8424H7.3V23.1424H7.1V22.8424H6.8V23.1424H6.5C5.9 23.0424 5.2 22.3424 5 22.2424C5 23.7424 5.7 24.8424 5.7 24.8424C5.8 24.7424 6.4 24.0424 6.6 23.8424C6.7 23.7424 7 23.8424 7 23.8424V24.6424C7 24.6424 6.9 24.6424 6.7 24.6424C6.6 24.6424 6.2 24.6424 6.2 24.6424L6.1 24.7424C6.4 24.7424 6.5 24.8424 6.5 24.8424C6.5 24.8424 6.6 25.0424 6.6 25.1424H6.9V25.2424C6.7 25.2424 6.5 25.3424 6.4 25.4424C6.3 25.5424 6.2 25.7424 6.2 25.7424V25.9424C6.2 25.9424 6.3 25.8424 6.4 25.7424C6.5 25.6424 6.6 25.7424 6.7 25.8424C6.7 25.8424 6.8 25.7424 6.9 25.7424H7V28.5424C6.8 28.5424 6.5 28.5424 6.5 28.6424C6.4 28.6424 6.4 28.8424 6.4 28.8424H6.7C6.7 28.8424 6.8 29.1424 6.9 29.1424H7.1V29.4424L7 29.5424C6.9 29.6424 6.8 30.0424 6.8 30.0424L6.9 30.1424C6.9 30.1424 6.9 30.0424 7 30.0424C7 29.9424 7.1 29.9424 7.1 29.9424V30.9424H7.4V30.0424H7.5C7.5 30.0424 7.7 29.5424 7.8 29.5424H8L8.1 29.9424H8.2L10.2 27.0424L10.3 27.1424L9.5 28.3424C9.6 28.5424 9.7 28.6424 9.8 28.7424C9.9 29.0424 10 29.3424 10 29.4424C9.8 29.5424 9.1 30.1424 9 30.1424C8.9 30.1424 8.7 30.3424 8.6 30.4424C8.5 30.8424 8.4 32.0424 8.5 32.1424C8.5 32.2424 8.7 32.4424 8.7 32.4424C8.7 32.4424 8.7 32.4424 8.6 32.4424C8.5 32.4424 8.3 32.7424 8.3 32.7424C8.1 32.9424 7.6 33.5424 7.5 33.5424C7.3 33.5424 7.2 33.5424 7.2 33.5424V33.2424V33.0424C7.1 32.9424 7.1 32.8424 7 32.7424L6.7 32.5424H6.5C6.5 32.5424 6.6 32.6424 6.7 32.7424C6.7 32.8424 6.7 32.9424 6.7 32.9424C6.6 32.9424 6.6 33.1424 6.6 33.1424L6.9 33.4424C6.9 33.4424 6.9 33.4424 6.8 33.5424C6.8 33.5424 6.6 33.4424 6.5 33.4424C6.4 33.4424 6.4 33.4424 6.4 33.4424C6.4 33.4424 6.1 33.4424 6.1 33.5424L5.8 33.7424V33.8424C5.8 33.8424 5.9 33.8424 5.9 33.7424C5.9 33.7424 6 33.7424 6.1 33.7424C6.2 33.7424 6.1 33.7424 6.2 33.8424C6.2 33.9424 6.3 34.0424 6.4 34.0424H6.8V34.1424C6.6 34.2424 6.5 34.3424 6.5 34.4424C6.5 34.5424 6.6 34.6424 6.6 34.6424C6.6 34.7424 6.4 34.8424 6.4 34.8424H6.5C6.6 34.8424 6.7 34.7424 6.8 34.7424C6.9 34.6424 7 34.5424 7 34.5424V34.3424C7 34.2424 7.1 34.2424 7.3 34.3424C7.4 34.3424 7.4 34.3424 7.4 34.4424V34.5424C7.4 34.6424 7.4 34.7424 7.4 34.7424H7.5C7.5 34.7424 7.8 34.3424 7.9 34.3424C8 34.3424 9.2 33.3424 9.2 33.3424C9.3 33.3424 9.4 33.3424 9.5 33.3424C9.7 33.2424 9.8 33.0424 9.8 33.0424C9.8 33.0424 9.8 32.8424 9.8 32.7424C9.8 32.5424 9.8 32.4424 9.9 32.3424C10 32.2424 10.1 32.0424 10.2 31.9424H10.3C10.3 31.9424 10 31.5424 9.9 31.4424C9.8 31.3424 9.8 31.1424 9.8 31.0424C10.1 30.1424 10.2 29.5424 10.2 29.4424V28.9424L10.4 29.0424V29.3424C10.4 29.4424 10.2 30.1424 10.2 30.2424C10.1 30.6424 10 31.0424 10 31.1424C10.1 31.3424 10.6 31.8424 10.8 31.9424C11 32.0424 12.1 31.9424 12.1 31.9424C12.8 32.0424 12.8 32.0424 12.9 32.1424C12.9 32.2424 13.4 32.7424 13.5 32.8424C13.7 33.0424 14.1 33.6424 14.1 33.6424L13.8 33.7424C13.6 33.5424 13.4 33.4424 13.3 33.3424C13.1 33.2424 12.8 33.3424 12.8 33.3424C12.7 33.3424 12.6 33.4424 12.6 33.4424C12.7 33.4424 12.9 33.4424 12.9 33.5424C13 33.5424 13 33.7424 13 33.7424H13.3V33.8424C13.3 33.8424 13 33.8424 12.9 33.9424C12.8 33.9424 12.8 34.0424 12.7 34.0424C12.6 34.1424 12.5 34.4424 12.5 34.4424V34.5424C12.5 34.4424 12.8 34.3424 12.8 34.3424C12.9 34.4424 13 34.4424 13 34.4424C13.2 34.4424 13.4 34.1424 13.4 34.1424H13.5C13.5 34.1424 13.4 34.2424 13.4 34.3424C13.2 34.5424 13.4 34.9424 13.4 34.9424H13.5C13.4 34.8424 13.6 34.6424 13.6 34.6424C13.7 34.7424 13.8 34.6424 13.9 34.6424C14 34.5424 14 34.1424 14 34.1424L14.5 34.0424L15.1 34.1424V34.0424L15 33.9424C14.8 33.7424 14.8 33.6424 14.8 33.5424C14.6 33.1424 14 32.1424 14 32.0424C14 32.0424 14 31.9424 14 31.8424C14 31.7424 13.8 31.4424 13.7 31.4424C13.6 31.3424 13.4 31.3424 13.4 31.3424C13.1 31.1424 12.8 30.9424 12.7 30.8424C12.6 30.6424 12.1 30.1424 12 30.0424C11.9 29.9424 11.4 29.5424 11.4 29.5424L11.6 29.4424C11.6 29.4424 12 29.8424 12.1 29.8424C12.3 29.9424 12.6 30.1424 12.7 30.2424C13.6 30.8424 14.1 30.8424 14.1 30.8424C14.8 30.9424 15.1 30.5424 15.1 30.4424C15.3 30.2424 15.5 29.7424 15.1 29.1424C15 29.0424 14.6 28.3424 14.6 28.3424L15.5 27.8424V27.9424L15.1 28.0424C15.1 28.0424 14.8 28.0424 14.7 28.0424C14.6 28.0424 14.6 28.0424 14.6 28.0424L14.4 28.1424V28.0424L15.6 27.3424V27.2424L15.2 27.3424C15.2 27.3424 14.9 27.3424 14.7 27.2424C14.6 27.2424 14.5 27.2424 14.5 27.2424L14.2 27.3424V27.2424L15.6 26.5424L15.7 26.4424L15.3 26.5424C15.1 26.3424 14.7 26.3424 14.7 26.3424ZM7.2 29.4424V29.2424H7.3V29.3424L7.2 29.4424ZM10.1 25.6424C10.1 25.6424 9.7 25.7424 9.6 25.8424C9.5 25.9424 9.3 26.4424 9.3 26.5424H9.1C9.1 26.5424 9.4 25.7424 9.6 25.7424C9.8 25.7424 9.9 25.6424 10.2 25.5424L10.1 25.6424ZM10.4 24.1424V23.9424L11.1 24.0424V24.2424L10.4 24.1424ZM11 23.3424C11 23.3424 11.1 23.5424 10.8 23.6424C10.8 23.6424 10.5 23.7424 10.5 23.5424L10.4 23.6424V23.4424L10.7 23.1424L12.3 23.4424L12 23.6424C12 23.6424 11.4 23.2424 11 23.3424Z" fill="#010101"/>
<path id="Vector_46" d="M23.4996 22.1424H23.0996V35.1424H23.4996V22.1424Z" fill="#231F20"/>
</g>
</svg>
