<svg width="88" height="58" viewBox="0 0 88 58" fill="none" xmlns="http://www.w3.org/2000/svg">
<g id="Client Logo">
<path id="Vector" d="M87.8002 0.04245H0.200195V57.0424H87.8002V0.04245Z" fill="white"/>
<path id="Vector_2" d="M79.6994 15.6425H8.39941V41.5425H79.6994V15.6425Z" fill="white"/>
<path id="Vector_3" d="M8.39941 33.7425C8.39941 33.6425 8.39942 33.5425 8.49942 33.4425C8.59942 32.0425 8.89941 30.7425 9.29941 29.4425C9.99941 27.4425 10.9994 25.7425 12.1994 24.0425C13.7994 22.0425 15.5994 20.2425 17.7994 18.8425C19.4994 17.7425 21.2994 16.7425 23.1994 16.0425H23.2994C23.2994 16.0425 23.1994 16.0425 23.1994 16.1425C20.8994 17.3425 18.6994 18.6425 16.6994 20.2425C15.2994 21.3425 13.8994 22.6425 12.7994 24.0425C11.8994 25.1425 11.1994 26.3425 10.5994 27.6425C10.1994 28.5425 9.99941 29.4425 9.79941 30.4425C9.69941 31.2425 9.69941 32.0425 9.79941 32.8425C9.89941 33.6425 9.99941 34.3425 10.2994 35.0425C10.9994 36.7425 12.1994 37.8425 13.8994 38.4425C14.4994 38.6425 15.0994 38.7425 15.6994 38.8425C16.9994 38.9425 18.2994 38.8425 19.5994 38.5425C22.4994 37.8425 24.9994 36.4425 27.0994 34.3425C28.3994 33.0425 29.3994 31.5425 29.9994 29.7425C30.1994 29.1425 30.3994 28.5425 30.3994 27.9425C30.3994 27.2425 30.3994 26.5425 29.9994 25.9425C29.6994 25.4425 29.2994 25.1425 28.7994 24.8425C28.7994 24.8425 28.6994 24.8425 28.5994 24.7425C28.5994 24.8425 28.4994 24.8425 28.4994 24.8425C28.0994 25.6425 27.7994 26.4425 27.3994 27.2425C27.2994 27.3425 27.2994 27.4425 27.1994 27.3425C26.5994 27.3425 25.9994 27.1425 25.3994 26.8425C24.5994 26.4425 23.8994 25.8425 23.2994 25.1425C23.1994 25.0425 23.0994 24.8425 22.8994 24.7425C23.6994 24.2425 24.4994 23.7425 25.2994 23.1425C25.1994 23.1425 25.1994 23.1425 25.0994 23.1425C24.4994 23.0425 23.8994 23.0425 23.2994 23.0425C22.7994 23.0425 22.3994 23.1425 21.8994 23.2425C20.6994 23.4425 19.4994 23.8425 18.3994 24.3425C16.6994 25.1425 15.1994 26.2425 13.8994 27.5425C13.2994 28.1425 12.7994 28.7425 12.3994 29.3425L12.2994 29.4425C12.2994 29.4425 12.2994 29.3425 12.3994 29.3425C12.7994 28.5425 13.2994 27.7425 13.7994 27.0425C14.9994 25.3425 16.4994 23.8425 18.0994 22.4425C20.3994 20.5425 22.8994 19.0425 25.5994 17.8425C26.6994 17.3425 27.7994 17.0425 28.9994 16.7425C29.7994 16.5425 30.5994 16.5425 31.3994 16.5425C31.8994 16.5425 32.3994 16.6425 32.8994 16.8425L32.9994 16.7425C33.4994 16.2425 34.0994 15.8425 34.8994 15.7425C35.3994 15.6425 35.8994 15.6425 36.3994 15.7425H36.4994C36.3994 16.1425 36.2994 16.6425 36.0994 17.0425C35.8994 17.4425 35.6994 17.8425 35.3994 18.1425C35.7994 18.6425 35.9994 19.1425 36.0994 19.7425C36.1994 20.4425 36.1994 21.1425 36.0994 21.8425C35.8994 23.1425 35.4994 24.3425 34.9994 25.5425C34.3994 26.8425 33.6994 28.1425 32.8994 29.3425C31.9994 30.7425 31.0994 32.0425 29.9994 33.3425C28.7994 34.7425 27.4994 35.9425 26.1994 37.0425C25.2994 37.7425 24.3994 38.5425 23.3994 39.1425C21.9994 39.9425 20.5994 40.6425 18.9994 41.0425C18.1994 41.2425 17.3994 41.4425 16.4994 41.4425H16.3994H15.2994H15.1994C14.8994 41.4425 14.6994 41.3425 14.3994 41.3425C13.4994 41.2425 12.5994 40.9425 11.7994 40.4425C10.6994 39.8425 9.79941 38.9425 9.29941 37.6425C8.89941 36.7425 8.6994 35.8425 8.5994 34.8425C8.5994 34.7425 8.59942 34.5425 8.49942 34.4425V33.7425H8.39941Z" fill="#00732C"/>
<path id="Vector_4" d="M39.999 31.9425V31.2425C40.099 31.2425 79.499 31.2425 79.699 31.2425V31.9425C79.499 32.0425 40.299 32.0425 39.999 31.9425Z" fill="#00732C"/>
<path id="Vector_5" d="M57.6992 25.1425C57.5992 25.1425 57.5992 25.1425 57.5992 25.2425C56.6992 25.6425 55.7992 25.9425 54.7992 26.3425C54.5992 26.4425 54.3992 26.4425 54.1992 26.4425C53.8992 26.4425 53.6992 26.4425 53.3992 26.4425C53.2992 26.4425 53.2992 26.4425 53.1992 26.4425C53.1992 26.6425 53.0992 26.7425 53.0992 26.9425C52.9992 26.7425 53.0992 26.6425 53.0992 26.4425C53.0992 26.3425 53.0992 26.3425 53.0992 26.2425C52.8992 26.0425 52.6992 25.8425 52.6992 25.5425C52.5992 25.5425 52.4992 25.5425 52.4992 25.6425C51.8992 26.0425 51.1992 26.2425 50.4992 26.4425C49.7992 26.5425 49.0992 26.5425 48.3992 26.4425C48.0992 26.3425 47.7992 26.2425 47.5992 26.0425C47.4992 25.9425 47.4992 25.9425 47.3992 25.8425C47.3992 25.9425 47.3992 26.1425 47.3992 26.2425C47.2992 26.8425 46.9992 27.3425 46.5992 27.6425C46.3992 27.8425 46.1992 27.9425 45.9992 28.1425C45.2992 28.6425 44.4992 28.9425 43.5992 29.1425C43.4992 29.1425 43.2992 29.1425 43.1992 29.2425C42.6992 29.2425 42.2992 29.3425 41.7992 29.3425H41.6992C41.7992 29.3425 41.9992 29.2425 42.0992 29.2425C43.0992 28.8425 44.0992 28.4425 44.9992 27.9425C45.3992 27.7425 45.7992 27.4425 46.1992 27.1425C46.3992 26.9425 46.5992 26.8425 46.6992 26.6425C46.7992 26.4425 46.8992 26.3425 46.8992 26.0425C46.8992 25.7425 46.8992 25.3425 46.6992 25.0425C46.5992 24.7425 46.4992 24.4425 46.2992 24.1425C46.3992 23.9425 46.4992 23.8425 46.5992 23.6425C46.5992 23.7425 46.5992 23.8425 46.6992 23.9425C46.8992 24.7425 47.3992 25.3425 48.1992 25.5425C48.4992 25.6425 48.8992 25.7425 49.1992 25.7425C49.7992 25.8425 50.3992 25.7425 50.9992 25.6425C51.3992 25.5425 51.7992 25.4425 52.0992 25.2425C52.3992 25.1425 52.5992 24.9425 52.7992 24.6425C52.7992 24.7425 52.7992 24.7425 52.7992 24.8425C52.7992 24.9425 52.7992 24.9425 52.7992 25.0425C52.7992 25.1425 52.7992 25.3425 52.7992 25.4425C52.7992 25.5425 52.8992 25.6425 52.9992 25.6425C53.0992 25.7425 53.1992 25.7425 53.2992 25.5425C53.4992 25.0425 53.6992 24.4425 53.9992 24.0425C54.0992 23.8425 54.2992 23.6425 54.4992 23.4425C54.6992 23.1425 54.9992 22.9425 55.3992 22.9425C55.8992 22.8425 56.2992 23.1425 56.4992 23.6425C56.5992 24.0425 56.5992 24.5425 56.5992 25.0425C56.5992 25.0425 56.5992 25.0425 56.5992 25.1425C56.6992 25.1425 56.6992 25.1425 56.7992 25.1425C56.9992 25.0425 57.1992 25.0425 57.4992 24.9425H57.5992C57.6992 24.8425 57.7992 24.8425 57.7992 24.6425C57.7992 24.2425 57.7992 23.9425 57.6992 23.5425C57.6992 23.1425 57.6992 22.8425 57.5992 22.4425C57.4992 21.7425 57.4992 21.0425 57.3992 20.3425C57.3992 19.9425 57.2992 19.5425 57.1992 19.1425C57.1992 19.0425 57.1992 18.9425 57.2992 18.8425C57.3992 18.7425 57.4992 18.6425 57.5992 18.5425C57.6992 18.6425 58.1992 20.3425 58.3992 21.0425C58.1992 21.0425 58.0992 20.8425 57.9992 20.8425C57.9992 20.9425 58.0992 24.4425 58.1992 24.7425C58.2992 24.7425 58.3992 24.7425 58.4992 24.7425C58.6992 24.7425 58.7992 24.8425 58.9992 24.8425C59.0992 24.8425 59.1992 24.9425 59.1992 25.0425C59.2992 25.4425 59.2992 25.8425 59.0992 26.2425C58.8992 26.5425 58.5992 26.6425 58.2992 26.5425C58.1992 26.5425 58.0992 26.4425 57.9992 26.2425C57.8992 26.0425 57.7992 25.9425 57.7992 25.7425C57.6992 25.2425 57.6992 25.2425 57.6992 25.1425ZM55.2992 23.5425C55.1992 23.5425 55.0992 23.5425 54.9992 23.6425C54.7992 23.7425 54.5992 23.8425 54.3992 24.0425C54.1992 24.2425 54.0992 24.4425 53.9992 24.6425C53.7992 24.9425 53.5992 25.2425 53.4992 25.5425C53.3992 25.6425 53.4992 25.7425 53.5992 25.7425C53.6992 25.7425 53.7992 25.7425 53.8992 25.7425C54.6992 25.5425 55.3992 25.2425 56.0992 24.9425L56.1992 24.8425C56.2992 24.4425 56.1992 24.1425 55.8992 23.8425C55.6992 23.6425 55.5992 23.6425 55.2992 23.5425ZM58.7992 25.0425C58.5992 25.0425 58.4992 25.0425 58.2992 25.0425C58.2992 25.1425 58.2992 25.2425 58.3992 25.3425C58.4992 25.4425 58.6992 25.4425 58.6992 25.2425C58.7992 25.2425 58.7992 25.2425 58.7992 25.0425Z" fill="#00732C"/>
<path id="Vector_6" d="M53.2998 33.9425H53.3998C53.8998 33.9425 54.2998 33.9425 54.7998 33.9425C54.9998 33.9425 55.2998 33.9425 55.4998 34.0425C55.7998 34.1425 56.0998 34.2425 56.2998 34.4425L56.3998 34.5425C56.4998 34.2425 56.4998 34.0425 56.5998 33.7425C56.6998 33.7425 56.8998 33.7425 56.9998 33.7425C57.8998 33.7425 58.7998 33.7425 59.7998 33.7425C59.8998 33.7425 59.9998 33.7425 60.0998 33.7425C60.1998 33.7425 60.2998 33.7425 60.3998 33.7425C60.2998 34.0425 60.1998 34.3425 60.0998 34.7425C59.8998 34.5425 59.5998 34.4425 59.3998 34.4425C59.1998 34.4425 59.0998 34.4425 58.8998 34.4425H58.7998C58.7998 34.5425 58.7998 34.5425 58.7998 34.6425C58.7998 36.0425 58.7998 37.3425 58.7998 38.7425C58.7998 39.0425 58.8998 39.2425 59.0998 39.3425C59.0998 39.3425 59.0998 39.3425 59.1998 39.3425H57.8998C58.0998 39.2425 58.1998 39.0425 58.1998 38.7425C58.1998 38.4425 58.1998 38.1425 58.1998 37.8425V34.7425V34.5425C57.6998 34.5425 57.1998 34.5425 56.7998 34.7425C56.7998 34.8425 56.8998 35.0425 56.8998 35.1425C56.9998 35.6425 56.8998 36.1425 56.4998 36.5425C56.1998 36.8425 55.9998 37.0425 55.5998 37.0425C55.3998 37.0425 55.0998 37.0425 54.8998 37.0425C54.7998 37.0425 54.7998 36.9425 54.6998 36.9425C54.7998 36.9425 54.8998 36.9425 54.9998 36.9425C55.6998 36.7425 56.0998 36.1425 55.9998 35.5425V35.4425C55.9998 35.1425 55.7998 34.9425 55.5998 34.8425C55.2998 34.6425 54.8998 34.6425 54.4998 34.7425C54.4998 34.8425 54.4998 34.8425 54.4998 34.9425C54.4998 36.2425 54.4998 37.5425 54.4998 38.9425C54.4998 39.2425 54.5998 39.5425 54.8998 39.6425H53.4998L53.5998 39.5425C53.6998 39.4425 53.7998 39.2425 53.7998 39.0425C53.7998 38.9425 53.7998 38.8425 53.7998 38.7425C53.7998 37.5425 53.7998 36.2425 53.7998 35.0425C53.7998 34.9425 53.7998 34.8425 53.7998 34.7425C53.5998 34.3425 53.4998 34.1425 53.2998 33.9425Z" fill="#00732C"/>
<path id="Vector_7" d="M71.799 36.6425C71.799 37.7425 71.399 38.5425 70.799 39.1425C70.499 39.4425 70.099 39.6425 69.699 39.6425C69.199 39.7425 68.599 39.6425 68.099 39.4425C67.699 39.3425 67.399 39.0425 67.199 38.7425C66.799 38.2425 66.599 37.7425 66.499 37.0425C66.399 35.9425 66.699 35.0425 67.499 34.2425C67.799 34.0425 68.099 33.8425 68.399 33.7425C68.999 33.6425 69.499 33.6425 69.999 33.8425C70.899 34.1425 71.499 34.8425 71.699 35.7425C71.699 36.2425 71.699 36.4425 71.799 36.6425ZM67.199 36.7425C67.199 36.8425 67.199 36.9425 67.199 37.1425C67.299 37.9425 67.699 38.4425 68.299 38.8425C68.899 39.2425 69.899 39.1425 70.399 38.3425C70.799 37.7425 70.899 37.0425 70.799 36.2425C70.699 35.7425 70.499 35.2425 70.099 34.8425C69.699 34.4425 69.199 34.2425 68.699 34.3425C67.999 34.4425 67.599 34.9425 67.299 35.5425C67.199 36.0425 67.199 36.3425 67.199 36.7425Z" fill="#00732C"/>
<path id="Vector_8" d="M74.5992 24.5425C74.5992 24.5425 74.5992 24.6425 74.4992 24.6425C74.3992 24.7425 74.2992 24.9425 74.1992 25.0425C74.0992 25.1425 73.9992 25.2425 73.7992 25.2425C73.6992 25.2425 73.5992 25.3425 73.5992 25.4425C73.5992 26.3425 73.1992 27.0425 72.4992 27.6425C72.0992 27.9425 71.6992 28.2425 71.2992 28.5425C70.9992 28.8425 70.5992 29.0425 70.1992 29.1425C70.0992 29.1425 69.9992 29.2425 69.9992 29.2425C69.4992 29.4425 68.8992 29.6425 68.3992 29.7425C68.2992 29.7425 68.2992 29.7425 68.1992 29.7425C68.1992 29.6425 68.2992 29.6425 68.2992 29.6425C69.6992 28.8425 70.9992 28.0425 72.2992 27.0425C72.4992 26.8425 72.7992 26.6425 72.9992 26.4425C73.2992 26.1425 73.2992 26.1425 73.1992 25.7425C73.0992 25.3425 72.8992 24.9425 72.6992 24.5425C72.6992 24.4425 72.5992 24.3425 72.6992 24.2425C72.7992 24.0425 72.7992 23.8425 72.8992 23.5425C72.8992 23.6425 72.9992 23.7425 72.9992 23.8425C72.9992 23.9425 73.0992 24.0425 73.0992 24.1425C73.1992 24.3425 73.3992 24.4425 73.6992 24.3425C73.7992 24.3425 73.9992 24.2425 74.0992 24.1425C74.1992 24.0425 74.2992 23.9425 74.3992 23.7425C74.4992 23.5425 74.5992 23.4425 74.6992 23.2425C74.6992 23.2425 74.6992 23.1425 74.7992 23.1425C74.8992 23.2425 74.8992 23.2425 74.8992 23.3425C74.8992 23.7425 74.8992 24.1425 74.9992 24.4425C74.9992 24.7425 75.0992 25.0425 75.1992 25.3425C75.2992 25.5425 75.3992 25.6425 75.5992 25.7425C75.9992 25.7425 76.2992 25.8425 76.6992 25.6425C76.9992 25.5425 77.1992 25.3425 77.1992 24.8425C77.1992 24.1425 77.0992 23.4425 77.0992 22.7425C77.0992 22.2425 76.9992 21.7425 76.9992 21.2425C76.9992 20.6425 76.8992 19.9425 76.8992 19.3425C76.8992 19.0425 76.8992 18.7425 76.7992 18.4425V18.3425C76.8992 18.1425 76.9992 18.0425 77.0992 17.8425C77.3992 18.6425 77.5992 19.4425 77.8992 20.2425C77.7992 20.2425 77.6992 20.2425 77.5992 20.2425C77.5992 20.3425 77.5992 20.3425 77.5992 20.4425C77.5992 20.9425 77.5992 21.5425 77.6992 22.0425C77.6992 22.7425 77.6992 23.5425 77.7992 24.2425C77.7992 24.5425 77.7992 24.8425 77.7992 25.2425C77.7992 25.3425 77.7992 25.4425 77.7992 25.5425C77.6992 26.0425 77.2992 26.3425 76.7992 26.5425C76.4992 26.6425 76.0992 26.6425 75.6992 26.6425C75.5992 26.6425 75.4992 26.6425 75.3992 26.5425C75.1992 26.4425 75.0992 26.3425 75.0992 26.2425C74.9992 26.0425 74.9992 25.7425 74.9992 25.5425C74.6992 25.2425 74.6992 24.9425 74.5992 24.5425C74.5992 24.6425 74.5992 24.6425 74.5992 24.5425Z" fill="#00732C"/>
<path id="Vector_9" d="M60.0992 24.4425C60.1992 24.5425 60.1993 24.5425 60.1993 24.6425C60.0993 24.8425 59.9993 25.1425 59.9993 25.3425C59.8993 25.7425 59.8993 26.0425 59.8993 26.4425C59.8993 26.6425 59.9993 26.7425 59.9993 26.9425C60.0993 27.1425 60.1993 27.2425 60.4993 27.2425C60.5993 27.2425 60.7993 27.2425 60.8993 27.1425C61.0993 27.0425 61.1993 27.0425 61.3993 26.9425C61.8993 26.6425 62.4993 26.3425 62.8993 25.8425C62.9993 25.7425 63.0993 25.6425 63.1993 25.5425C63.4993 25.1425 63.6993 24.7425 63.6993 24.2425C63.6993 23.7425 63.5993 23.3425 63.4993 22.8425C63.3993 22.2425 63.0993 21.6425 62.7993 21.0425V20.9425C62.7993 20.5425 62.8993 20.2425 62.8993 19.8425C62.8993 19.8425 62.8993 19.8425 62.8993 19.7425C62.8993 19.8425 62.9993 19.8425 62.9993 19.8425C63.4993 20.7425 63.7993 21.7425 63.9993 22.7425C64.0993 23.1425 64.0992 23.4425 64.0992 23.8425C64.0992 24.1425 64.0993 24.3425 64.1993 24.6425C64.2993 25.1425 64.4993 25.5425 64.8993 25.7425C65.1993 25.9425 65.4993 26.0425 65.7993 26.0425C66.0993 26.0425 66.3993 26.1425 66.7993 26.1425C67.4993 26.1425 68.1993 26.1425 68.7993 26.0425C69.5993 25.9425 70.2993 25.7425 70.8993 25.3425C71.0993 25.2425 71.2993 25.0425 71.4993 24.8425C71.5993 24.7425 71.5992 24.5425 71.5992 24.4425C71.4992 24.2425 71.3993 24.0425 71.2993 23.9425L71.1993 23.8425C71.2993 23.6425 71.3993 23.3425 71.4993 23.1425C71.4993 23.2425 71.4992 23.2425 71.5992 23.2425C71.6992 23.5425 71.7993 23.8425 71.8993 24.1425C71.9993 24.4425 71.9993 24.7425 71.8993 25.0425C71.8993 25.1425 71.7993 25.2425 71.7993 25.3425C71.5993 25.7425 71.1993 25.9425 70.8993 26.1425C70.4993 26.3425 69.9993 26.5425 69.4993 26.6425C69.0993 26.7425 68.5993 26.7425 68.1993 26.7425C67.5993 26.7425 67.0993 26.7425 66.4993 26.7425C66.2993 26.7425 65.9993 26.7425 65.7993 26.6425C65.3993 26.5425 64.9993 26.3425 64.6993 26.0425C64.4993 25.8425 64.2993 25.5425 64.1993 25.3425L64.0992 25.2425C64.0992 25.3425 63.9993 25.3425 63.9993 25.3425C63.5993 25.9425 63.1992 26.5425 62.5992 27.0425C62.2992 27.3425 61.9992 27.5425 61.5992 27.7425C61.2992 27.8425 60.9993 27.9425 60.6993 27.9425C60.5993 27.9425 60.4993 27.9425 60.3993 27.9425C60.0993 27.8425 59.8993 27.6425 59.7993 27.2425C59.6993 26.9425 59.7993 26.6425 59.7993 26.3425C59.5993 25.7425 59.7992 25.1425 60.0992 24.4425C59.9992 24.5425 59.9992 24.5425 60.0992 24.4425Z" fill="#00732C"/>
<path id="Vector_10" d="M48.1996 34.0425V34.9425C48.0996 34.9425 48.0996 34.8425 48.0996 34.8425C47.3996 34.3425 46.6996 34.3425 45.9996 34.7425C45.1996 35.1425 44.8996 35.8425 44.8996 36.7425C44.8996 36.9425 44.8996 37.1425 44.9996 37.4425C45.1996 38.2425 45.5996 38.6425 46.2996 38.9425C46.7996 39.1425 47.2996 39.1425 47.7996 38.9425C47.8996 38.9425 47.8996 38.9425 47.8996 38.7425C47.8996 38.3425 47.8996 37.8425 47.8996 37.4425C47.8996 37.1425 47.7996 36.9425 47.5996 36.7425C47.6996 36.7425 48.4996 36.7425 48.6996 36.7425C48.6996 37.5425 48.6996 38.3425 48.6996 39.1425C48.6996 39.2425 48.6996 39.3425 48.6996 39.4425C48.6996 39.4425 48.6996 39.4425 48.5996 39.4425C48.0996 39.5425 47.4996 39.6425 46.9996 39.6425C46.2996 39.6425 45.5996 39.4425 44.9996 39.0425C44.4996 38.7425 44.1996 38.3425 43.9996 37.7425C43.6996 36.8425 43.7996 36.0425 44.1996 35.2425C44.3996 34.9425 44.5996 34.6425 44.8996 34.4425C45.5996 33.9425 46.3996 33.7425 47.2996 33.8425C47.4996 33.8425 47.6996 33.9425 47.8996 33.9425C48.0996 34.0425 48.1996 34.0425 48.1996 34.0425Z" fill="#00732C"/>
<path id="Vector_11" d="M72.099 38.4425C72.699 38.9425 73.199 39.1425 73.799 39.0425C73.999 39.0425 74.099 38.9425 74.299 38.8425C74.799 38.5425 74.899 37.8425 74.399 37.5425C74.199 37.4425 74.099 37.2425 73.899 37.1425C73.699 36.9425 73.399 36.8425 73.199 36.7425C72.999 36.6425 72.899 36.5425 72.699 36.4425C72.399 36.2425 72.199 35.9425 72.099 35.6425C71.999 35.2425 72.099 34.8425 72.299 34.5425C72.399 34.4425 72.499 34.3425 72.599 34.2425C72.999 33.9425 73.499 33.7425 73.999 33.8425C74.299 33.8425 74.599 33.8425 74.899 33.9425C74.999 33.9425 74.999 33.9425 75.099 34.0425V34.9425C74.999 34.9425 74.999 34.8425 74.999 34.8425C74.699 34.6425 74.399 34.5425 73.999 34.4425C73.599 34.3425 73.199 34.5425 72.999 34.9425C72.899 35.1425 72.899 35.3425 72.999 35.5425C72.999 35.6425 73.099 35.6425 73.099 35.7425C73.199 35.9425 73.399 36.0425 73.599 36.1425C73.899 36.3425 74.199 36.4425 74.399 36.6425C74.699 36.8425 74.999 37.0425 75.199 37.3425C75.399 37.6425 75.499 37.9425 75.499 38.3425C75.399 39.0425 74.999 39.4425 74.399 39.6425C73.899 39.8425 73.399 39.8425 72.899 39.7425C72.699 39.7425 72.499 39.6425 72.299 39.6425C72.199 39.6425 72.199 39.5425 72.099 39.4425C72.099 39.1425 71.999 38.9425 71.999 38.6425C72.099 38.5425 72.099 38.5425 72.099 38.4425Z" fill="#00732C"/>
<path id="Vector_12" d="M39.7992 24.0425C39.7992 24.2425 39.7992 24.3425 39.7992 24.4425C39.7992 24.9425 39.7992 25.3425 39.8992 25.8425C39.9992 26.5425 40.3992 26.8425 41.0992 27.0425C41.5992 27.1425 42.0992 27.1425 42.5992 26.9425C42.7992 26.8425 42.9992 26.8425 43.1992 26.7425C43.5992 26.5425 43.9992 26.3425 44.3992 26.0425C44.5992 25.9425 44.7992 25.8425 44.8992 25.6425C44.8992 25.6425 44.9992 25.5425 44.9992 25.4425C44.7992 25.3425 44.5992 25.2425 44.3992 25.2425C44.2992 25.2425 44.0992 25.2425 43.9992 25.1425C43.6992 25.0425 43.4992 24.9425 43.2992 24.5425C43.1992 24.3425 43.1992 24.0425 43.1992 23.7425C43.1992 22.9425 43.5992 22.3425 44.2992 21.7425C44.3992 21.6425 44.5992 21.5425 44.7992 21.4425C44.8992 21.4425 44.8992 21.4425 44.9992 21.4425C45.0992 21.4425 45.1992 21.5425 45.2992 21.6425C45.3992 21.8425 45.3992 22.1425 45.3992 22.3425C45.2992 22.3425 45.1992 22.3425 45.1992 22.3425C44.6992 22.2425 44.2992 22.4425 43.9992 22.9425C43.8992 23.1425 43.7992 23.3425 43.7992 23.5425C43.7992 23.8425 43.8992 24.0425 44.2992 24.1425C44.4992 24.1425 44.6992 24.2425 44.7992 24.2425C44.8992 24.2425 44.9992 24.2425 45.0992 24.3425C45.2992 24.4425 45.4992 24.5425 45.4992 24.8425C45.4992 25.3425 45.3992 25.8425 44.9992 26.1425C44.7992 26.3425 44.4992 26.5425 44.2992 26.7425C43.6992 27.0425 42.9992 27.3425 42.3992 27.5425C42.0992 27.6425 41.7992 27.7425 41.4992 27.7425C40.7992 27.7425 40.2992 27.4425 39.8992 26.7425C39.6992 26.3425 39.5992 25.9425 39.5992 25.4425C39.3992 25.0425 39.4992 24.5425 39.7992 24.0425C39.6992 24.0425 39.6992 24.0425 39.7992 24.0425Z" fill="#00732C"/>
<path id="Vector_13" d="M63.6996 34.6425C63.6996 34.7425 63.6996 34.7425 63.6996 34.8425C63.6996 36.1425 63.6996 37.4425 63.6996 38.7425C63.6996 38.8425 63.6996 39.0425 63.6996 39.1425C63.6996 39.3425 63.7996 39.4425 63.9996 39.5425H62.5996C62.7996 39.3425 62.8996 39.1425 62.8996 38.9425C62.8996 38.8425 62.8996 38.8425 62.8996 38.7425C62.8996 37.4425 62.8996 36.2425 62.8996 34.9425C62.8996 34.8425 62.8996 34.7425 62.8996 34.7425C62.8996 34.4425 62.8996 34.2425 62.5996 34.0425C62.6996 34.0425 62.6996 34.0425 62.6996 34.0425C63.1996 34.0425 63.6996 34.0425 64.1996 34.0425C64.4996 34.0425 64.6996 34.0425 64.9996 34.1425C65.3996 34.2425 65.6996 34.5425 65.8996 34.8425C65.9996 35.0425 65.9996 35.1425 66.0996 35.3425C66.1996 35.8425 66.0996 36.2425 65.6996 36.5425C65.3996 36.8425 65.0996 37.0425 64.7996 37.1425C64.5996 37.1425 64.2996 37.1425 64.0996 37.1425C63.9996 37.1425 63.9996 37.0425 63.8996 37.0425H63.9996C64.6996 37.0425 65.2996 36.3425 65.1996 35.6425C65.1996 35.5425 65.1996 35.5425 65.1996 35.4425C65.0996 35.0425 64.8996 34.8425 64.5996 34.7425C64.2996 34.5425 63.9996 34.5425 63.6996 34.6425Z" fill="#00732C"/>
<path id="Vector_14" d="M43.6998 38.5425C43.5998 38.8425 43.4998 39.2425 43.2998 39.5425H40.2998V39.4425C40.4998 39.2425 40.4998 39.0425 40.4998 38.7425C40.4998 38.5425 40.4998 38.3425 40.4998 38.0425C40.4998 37.0425 40.4998 36.0425 40.4998 35.0425C40.4998 34.8425 40.4998 34.7425 40.4998 34.5425C40.4998 34.3425 40.3998 34.1425 40.2998 34.0425H40.3998C41.0998 34.0425 41.8998 34.0425 42.5998 34.0425C42.6998 34.0425 42.7998 34.0425 42.9998 34.0425V34.9425C42.7998 34.7425 42.4998 34.6425 42.2998 34.6425C41.9998 34.6425 41.7998 34.6425 41.4998 34.6425H41.3998V36.1425C41.7998 36.1425 42.0998 36.1425 42.4998 36.1425H42.5998V36.9425C42.5998 36.9425 42.4998 36.9425 42.4998 36.8425C42.3998 36.7425 42.1998 36.7425 42.0998 36.7425C41.8998 36.7425 41.5998 36.7425 41.3998 36.7425C41.3998 36.8425 41.3998 36.8425 41.3998 36.8425C41.3998 37.4425 41.3998 38.0425 41.3998 38.6425C41.3998 38.7425 41.3998 38.7425 41.4998 38.8425C41.8998 38.9425 42.1998 38.9425 42.5998 38.9425C42.9998 38.9425 43.2998 38.7425 43.6998 38.5425C43.6998 38.4425 43.6998 38.4425 43.6998 38.5425Z" fill="#00732C"/>
<path id="Vector_15" d="M50.9996 36.3425C50.9996 36.2425 51.0996 36.2425 51.0996 36.1425C51.3996 35.6425 51.6996 35.1425 51.9996 34.6425C52.1996 34.4425 52.0996 34.0425 51.8996 33.9425H51.7996H53.0996C53.0996 34.0425 52.9996 34.0425 52.9996 34.1425C52.3996 35.1425 51.7996 36.0425 51.2996 37.0425C51.1996 37.1425 51.1996 37.2425 51.1996 37.3425C51.1996 37.8425 51.1996 38.2425 51.1996 38.7425C51.1996 39.0425 51.1996 39.4425 51.4996 39.6425C51.3996 39.6425 50.4996 39.7425 50.0996 39.6425C50.0996 39.6425 50.0996 39.5425 50.1996 39.5425C50.2996 39.4425 50.3996 39.2425 50.3996 39.0425C50.3996 38.4425 50.3996 37.8425 50.3996 37.2425C50.3996 37.1425 50.3996 37.1425 50.3996 37.1425C49.9996 36.3425 49.4996 35.5425 49.0996 34.6425C48.9996 34.4425 48.7996 34.2425 48.6996 34.1425L48.5996 34.0425H48.6996C48.8996 34.0425 48.9996 34.0425 49.1996 34.0425C49.2996 34.0425 49.3996 34.0425 49.5996 34.1425C49.7996 34.2425 49.8996 34.3425 49.9996 34.5425C50.2996 35.1425 50.6996 35.7425 50.9996 36.4425C50.9996 36.2425 50.9996 36.2425 50.9996 36.3425Z" fill="#00732C"/>
<path id="Vector_16" d="M77.0996 34.5425C76.5996 34.5425 75.9996 34.5425 75.5996 34.8425C75.6996 34.4425 75.6996 34.1425 75.7996 33.8425C75.9996 33.9425 76.1996 33.8425 76.3996 33.8425C77.2996 33.8425 78.0996 33.8425 78.9996 33.8425C79.0996 33.8425 79.0996 33.8425 79.1996 33.8425C79.2996 33.8425 79.3996 33.8425 79.5996 33.8425C79.4996 34.1425 79.3996 34.4425 79.2996 34.7425L79.1996 34.6425C79.0996 34.5425 78.8996 34.4425 78.6996 34.4425C78.4996 34.4425 78.1996 34.4425 77.9996 34.4425C77.9996 34.4425 77.9996 34.4425 77.8996 34.4425V34.5425C77.8996 35.9425 77.8996 37.3425 77.8996 38.7425C77.8996 38.9425 77.9996 39.1425 78.0996 39.2425C78.0996 39.2425 78.1996 39.2425 78.1996 39.3425C78.0996 39.3425 77.2996 39.3425 76.7996 39.3425L76.8996 39.2425C76.9996 39.1425 77.0996 38.9425 77.0996 38.7425V38.6425C77.0996 37.2425 77.0996 35.8425 77.0996 34.5425Z" fill="#00732C"/>
<path id="Vector_17" d="M78.999 27.8425C78.999 27.7425 78.999 27.7425 78.999 27.8425C78.999 26.7425 78.999 25.7425 78.899 24.6425C78.899 24.2425 78.899 23.8425 78.799 23.3425C78.799 22.5425 78.699 21.8425 78.699 21.0425C78.699 20.5425 78.599 20.1425 78.599 19.6425C78.599 19.3425 78.599 18.9425 78.499 18.6425V18.5425C78.599 18.4425 78.699 18.2425 78.899 18.0425C79.199 18.8425 79.399 19.6425 79.599 20.5425C79.399 20.5425 79.299 20.4425 79.199 20.4425C79.199 20.5425 79.199 20.5425 79.199 20.6425C79.199 21.5425 79.299 22.3425 79.299 23.2425C79.299 23.8425 79.399 24.4425 79.399 25.0425C79.399 25.4425 79.399 25.9425 79.399 26.3425C79.399 26.6425 79.399 26.9425 79.299 27.2425C79.299 27.4425 79.199 27.5425 79.099 27.7425C79.099 27.7425 79.099 27.8425 78.999 27.8425Z" fill="#00732C"/>
<path id="Vector_18" d="M60.799 26.4425C60.799 26.3425 60.799 26.2425 60.799 26.1425C60.799 25.5425 60.799 25.0425 60.799 24.4425C60.799 24.1425 60.799 23.8425 60.799 23.5425C60.799 22.6425 60.699 21.7425 60.599 20.8425C60.599 20.1425 60.499 19.5425 60.499 18.8425C60.499 18.7425 60.499 18.6425 60.599 18.5425C60.699 18.4425 60.699 18.3425 60.799 18.2425C60.899 18.3425 61.399 20.1425 61.399 20.2425C61.299 20.2425 61.199 20.1425 61.099 20.1425V20.2425C61.099 20.6425 61.099 21.1425 61.099 21.5425C61.099 21.7425 61.099 22.0425 61.099 22.2425C61.099 22.9425 61.199 23.6425 61.199 24.3425C61.199 24.8425 61.199 25.2425 61.099 25.7425C61.099 25.8425 60.999 25.9425 60.999 26.1425C60.899 26.3425 60.899 26.4425 60.799 26.4425Z" fill="#00732C"/>
<path id="Vector_19" d="M66.999 22.3425C67.099 22.1425 67.199 21.9425 67.199 21.8425C67.199 21.7425 67.299 21.7425 67.299 21.7425C67.699 21.5425 68.199 21.4425 68.599 21.2425C70.099 20.6425 71.699 20.1425 73.199 19.5425C73.199 19.5425 73.299 19.5425 73.399 19.4425C73.299 19.6425 73.299 19.7425 73.199 19.8425L73.099 19.9425C72.499 20.1425 71.999 20.3425 71.399 20.6425C69.999 21.2425 68.599 21.7425 67.199 22.3425C67.099 22.3425 67.099 22.3425 66.999 22.3425Z" fill="#00732C"/>
<path id="Vector_20" d="M52.3994 21.7425C52.7994 21.4425 53.0994 21.1425 53.2994 20.8425L53.3994 20.7425C53.5994 20.5425 53.6994 20.5425 53.8994 20.6425H53.9994L54.0994 20.5425C54.1994 20.4425 54.2994 20.2425 54.3994 20.1425C54.5994 19.9425 54.6994 20.0425 54.7994 20.2425C54.7994 20.3425 54.7994 20.5425 54.6994 20.6425C54.5994 20.8425 54.3994 20.9425 54.1994 20.9425C54.0994 20.9425 54.0994 20.9425 53.9994 20.9425C53.8994 20.9425 53.8994 20.9425 53.8994 20.8425C53.8994 20.7425 53.7994 20.6425 53.6994 20.7425C53.5994 20.7425 53.5994 20.8425 53.5994 20.8425C53.3994 21.0425 53.1994 21.2425 52.8994 21.4425C52.7994 21.5425 52.6994 21.5425 52.5994 21.6425C52.4994 21.7425 52.4994 21.7425 52.3994 21.7425ZM54.5994 20.5425C54.5994 20.4425 54.5994 20.4425 54.4994 20.4425C54.3994 20.4425 54.1994 20.5425 54.2994 20.7425C54.2994 20.8425 54.3994 20.8425 54.4994 20.8425C54.5994 20.7425 54.5994 20.6425 54.5994 20.5425Z" fill="#00732C"/>
<path id="Vector_21" d="M55.3994 28.7425C55.4994 28.6425 55.4994 28.5425 55.5994 28.4425C55.5994 28.4425 55.6994 28.4425 55.6994 28.3425C56.3994 28.0425 57.0994 27.7425 57.7994 27.5425C57.7994 27.6425 57.6994 27.7425 57.5994 27.8425C57.5994 27.8425 57.4994 27.8425 57.4994 27.9425C56.7994 28.1425 56.1994 28.4425 55.3994 28.7425C55.4994 28.7425 55.4994 28.6425 55.3994 28.7425Z" fill="#00732C"/>
<path id="Vector_22" d="M66.1995 19.3425C66.0995 19.3425 66.0995 19.3425 66.1995 19.3425C65.9995 19.2425 65.9995 19.2425 65.8995 19.3425C65.7995 19.5425 65.7995 19.7425 65.6995 19.9425C65.6995 19.9425 65.6995 20.0425 65.5995 20.1425C65.5995 20.1425 65.5995 20.1425 65.4995 20.1425C65.2995 19.9425 65.1995 19.8425 64.9995 19.6425C64.9995 19.6425 64.8995 19.5425 64.9995 19.4425C64.9995 19.3425 64.9995 19.2425 64.9995 19.0425C65.1995 19.2425 65.3995 19.4425 65.5995 19.6425C65.5995 19.5425 65.5995 19.4425 65.5995 19.3425C65.5995 19.2425 65.6995 19.1425 65.6995 18.9425C65.7995 18.8425 65.8995 18.8425 65.9995 18.8425C66.2995 19.1425 66.2995 19.2425 66.1995 19.3425Z" fill="#00732C"/>
<path id="Vector_23" d="M46.9998 20.3425C46.8998 20.2425 46.8998 20.2425 46.7998 20.1425C46.6998 20.0425 46.5998 19.9425 46.3998 19.7425L46.2998 19.6425C46.2998 19.5425 46.2998 19.3425 46.2998 19.2425C46.4998 19.4425 46.6998 19.6425 46.8998 19.8425C46.8998 19.7425 46.8998 19.6425 46.8998 19.5425C46.8998 19.4425 46.9998 19.3425 46.9998 19.2425C47.0998 19.1425 47.1998 19.1425 47.2998 19.1425C47.3998 19.1425 47.4998 19.3425 47.3998 19.4425C47.3998 19.5425 47.2998 19.5425 47.2998 19.4425C47.1998 19.3425 47.1998 19.3425 47.0998 19.4425V19.5425C47.1998 19.8425 47.0998 20.0425 46.9998 20.3425C47.0998 20.3425 47.0998 20.2425 46.9998 20.3425Z" fill="#00732C"/>
<path id="Vector_24" d="M74.8994 28.0425C74.6994 28.2425 74.5994 28.4425 74.3994 28.5425C74.1994 28.3425 74.0994 28.2425 73.8994 28.0425C74.0994 27.8425 74.1994 27.6425 74.3994 27.5425C74.5994 27.7425 74.7994 27.9425 74.8994 28.0425Z" fill="#00732C"/>
<path id="Vector_25" d="M40.6996 19.6425C40.5996 20.0425 40.4996 20.4425 40.3996 20.9425C40.2996 21.2425 40.2996 21.4425 40.2996 21.7425C40.2996 21.8425 40.2996 21.9425 40.3996 22.0425C40.4996 22.2425 40.5996 22.2425 40.6996 22.1425C40.7996 22.0425 40.7996 21.9425 40.8996 21.9425C40.8996 21.9425 40.8996 21.8425 40.9996 21.8425C40.9996 22.0425 40.8996 22.2425 40.7996 22.4425C40.6996 22.5425 40.6996 22.5425 40.5996 22.6425C40.3996 22.6425 40.2996 22.6425 40.1996 22.4425C40.1996 22.3425 40.0996 22.2425 40.0996 22.1425C40.0996 21.8425 40.0996 21.4425 40.1996 21.1425C40.3996 20.6425 40.4996 20.1425 40.6996 19.6425C40.6996 19.7425 40.6996 19.7425 40.6996 19.6425Z" fill="#00732C"/>
<path id="Vector_26" d="M65.899 28.3425C65.699 28.5425 65.599 28.6425 65.499 28.8425C65.299 28.6425 65.199 28.5425 64.999 28.3425C65.099 28.1425 65.299 28.0425 65.499 27.8425C65.599 28.0425 65.799 28.1425 65.899 28.3425Z" fill="#00732C"/>
<path id="Vector_27" d="M66.3994 27.8425C66.5994 28.0425 66.6994 28.1425 66.7994 28.3425C66.5994 28.5425 66.4994 28.6425 66.2994 28.8425C66.1994 28.7425 66.0994 28.6425 66.0994 28.6425C65.9994 28.5425 65.8994 28.4425 65.8994 28.4425C66.0994 28.2425 66.2994 28.0425 66.3994 27.8425Z" fill="#00732C"/>
<path id="Vector_28" d="M48.2992 29.1425C48.2992 29.0425 48.2992 29.0425 48.2992 28.9425C48.2992 28.7425 48.1992 28.5425 48.1992 28.2425C48.1992 28.0425 48.1992 27.8425 48.1992 27.5425C48.1992 27.4425 48.1992 27.4425 48.1992 27.3425C48.1992 27.2425 48.1992 27.2425 48.2992 27.1425C48.3992 27.0425 48.4992 27.0425 48.5992 27.0425C48.7992 27.1425 48.8992 27.3425 48.6992 27.5425C48.5992 27.5425 48.4992 27.5425 48.4992 27.5425C48.2992 27.5425 48.2992 27.6425 48.2992 27.8425C48.2992 28.1425 48.3992 28.4425 48.3992 28.6425C48.3992 28.9425 48.3992 29.0425 48.2992 29.1425C48.3992 29.1425 48.3992 29.1425 48.2992 29.1425ZM48.5992 27.5425C48.5992 27.4425 48.4992 27.4425 48.4992 27.4425C48.3992 27.4425 48.3992 27.5425 48.3992 27.6425C48.3992 27.5425 48.4992 27.5425 48.5992 27.5425Z" fill="#00732C"/>
<path id="Vector_29" d="M75.0996 20.7425C74.9996 20.9425 74.9996 21.2425 74.8996 21.4425C74.7996 21.6425 74.7996 21.9425 74.7996 22.1425C74.7996 22.2425 74.7996 22.3425 74.7996 22.3425C74.7996 22.4425 74.8996 22.4425 74.9996 22.4425L75.0996 22.3425L75.1996 22.2425C75.1996 22.3425 75.0996 22.6425 74.9996 22.6425C74.8996 22.7425 74.6996 22.7425 74.5996 22.5425C74.5996 22.4425 74.5996 22.3425 74.5996 22.2425C74.5996 21.9425 74.6996 21.5425 74.6996 21.2425C74.6996 21.1425 74.7996 20.9425 74.7996 20.8425C74.9996 20.8425 75.0996 20.7425 75.0996 20.7425Z" fill="#00732C"/>
</g>
</svg>
