<svg width="89" height="58" viewBox="0 0 89 58" fill="none" xmlns="http://www.w3.org/2000/svg">
<g id="Client Logo">
<rect width="87.6" height="57" transform="translate(0.599609 0.04245)" fill="white"/>
<g id="Group 39911">
<path id="Vector" d="M28.4004 31.5425V34.1425H30.2004V33.7425H28.8004V33.0425H30.0004V32.5425H28.8004V31.9425H30.1004V31.5425H28.4004Z" fill="#77787B"/>
<path id="Vector_2" d="M30.9994 33.1425C30.9994 33.3425 30.9994 33.5425 31.0994 33.5425C31.1994 33.6425 31.2994 33.6425 31.3994 33.6425C31.4994 33.6425 31.5994 33.6425 31.6994 33.5425C31.7994 33.4425 31.7994 33.3425 31.7994 33.1425C31.7994 32.9425 31.7994 32.8425 31.6994 32.7425C31.5994 32.6425 31.4994 32.6425 31.3994 32.6425C31.2994 32.6425 31.1994 32.6425 31.0994 32.7425C30.9994 32.8425 30.9994 33.0425 30.9994 33.1425ZM30.4994 34.3425L30.9994 34.4425C30.9994 34.5425 30.9994 34.5425 31.0994 34.5425C31.0994 34.5425 31.1994 34.6425 31.2994 34.6425C31.3994 34.6425 31.4994 34.6425 31.5994 34.5425L31.6994 34.4425C31.6994 34.4425 31.6994 34.3425 31.6994 34.2425V33.9425C31.5994 34.1425 31.3994 34.2425 31.1994 34.2425C30.9994 34.2425 30.7994 34.1425 30.5994 33.9425C30.4994 33.7425 30.3994 33.5425 30.3994 33.3425C30.3994 33.0425 30.4994 32.7425 30.5994 32.6425C30.6994 32.4425 30.8994 32.3425 31.0994 32.3425C31.2994 32.3425 31.4994 32.4425 31.5994 32.6425V32.3425H31.9994V34.0425C31.9994 34.2425 31.9994 34.4425 31.9994 34.5425C31.9994 34.6425 31.8994 34.7425 31.8994 34.8425C31.7994 34.9425 31.7994 34.9425 31.6994 35.0425C31.5994 35.0425 31.4994 35.1425 31.2994 35.1425C30.9994 35.1425 30.7994 35.0425 30.6994 34.9425C30.5994 34.6425 30.4994 34.5425 30.4994 34.3425Z" fill="#77787B"/>
<path id="Vector_3" d="M32.3994 32.2425H32.8994L33.2994 33.6425L33.6994 32.2425H34.1994L33.5994 34.0425L33.4994 34.3425C33.4994 34.4425 33.3994 34.5425 33.3994 34.6425C33.3994 34.7425 33.2994 34.7425 33.2994 34.7425C33.2994 34.7425 33.1994 34.8425 33.0994 34.8425C32.9994 34.8425 32.9994 34.8425 32.8994 34.8425C32.7994 34.8425 32.6994 34.8425 32.5994 34.8425V34.4425C32.6994 34.4425 32.6994 34.4425 32.7994 34.4425C32.8994 34.4425 32.9994 34.4425 32.9994 34.3425C33.0994 34.2425 33.0994 34.1425 33.0994 34.0425L32.3994 32.2425Z" fill="#77787B"/>
<path id="Vector_4" d="M34.8994 33.2425C34.8994 33.4425 34.8994 33.6425 34.9994 33.7425C35.0994 33.8425 35.1994 33.9425 35.2994 33.9425C35.3994 33.9425 35.4994 33.9425 35.5994 33.8425C35.6994 33.7425 35.6994 33.6425 35.6994 33.3425C35.6994 33.1425 35.6994 33.0425 35.5994 32.9425C35.4994 32.8425 35.3994 32.8425 35.2994 32.8425C35.1994 32.8425 35.0994 32.8425 34.9994 32.9425C34.9994 32.8425 34.8994 33.0425 34.8994 33.2425ZM34.4994 32.2425H34.8994V32.5425C34.9994 32.4425 34.9994 32.3425 35.0994 32.3425C35.1994 32.2425 35.2994 32.2425 35.3994 32.2425C35.5994 32.2425 35.7994 32.3425 35.8994 32.5425C35.9994 32.7425 36.0994 32.9425 36.0994 33.2425C36.0994 33.5425 35.9994 33.8425 35.8994 33.9425C35.7994 34.0425 35.5994 34.2425 35.3994 34.2425C35.2994 34.2425 35.1994 34.2425 35.0994 34.1425C34.9994 34.1425 34.8994 34.0425 34.8994 33.9425V34.9425H34.3994V32.2425H34.4994Z" fill="#77787B"/>
<path id="Vector_5" d="M37.2998 32.2425V32.6425H36.9998V33.4425C36.9998 33.6425 36.9998 33.6425 36.9998 33.7425C36.9998 33.7425 36.9998 33.7425 36.9998 33.8425C36.9998 33.8425 36.9999 33.8425 37.0999 33.8425C37.0999 33.8425 37.1998 33.8425 37.2998 33.8425V34.2425C37.1998 34.2425 37.0998 34.3425 36.8998 34.3425C36.7998 34.3425 36.6998 34.3425 36.6998 34.3425C36.5998 34.3425 36.5999 34.2425 36.5999 34.2425C36.5999 34.2425 36.4998 34.1424 36.4998 34.0424C36.4998 33.9425 36.4998 33.8425 36.4998 33.6425V32.8425H36.2998V32.4425H36.4998V31.8425L36.9998 31.5424V32.2425H37.2998Z" fill="#77787B"/>
<path id="Vector_6" d="M37.6006 34.1425H38.1006V32.2425H37.6006V34.1425ZM37.6006 32.0425H38.1006V31.5425H37.6006V32.0425Z" fill="#77787B"/>
<path id="Vector_7" d="M39.5 33.2425C39.4 33.2425 39.3 33.2425 39.2 33.3425C39.1 33.3425 39 33.4425 39 33.4425C38.9 33.4425 38.9 33.5425 38.9 33.6425C38.9 33.7425 38.9 33.7425 39 33.8425C39 33.9425 39.1 33.9425 39.2 33.9425C39.3 33.9425 39.4 33.9425 39.4 33.8425C39.5 33.8425 39.5 33.7425 39.5 33.6425C39.5 33.6425 39.5 33.5425 39.5 33.4425V33.2425ZM38.9 32.8425L38.5 32.7425C38.5 32.5425 38.6 32.4425 38.7 32.3425C38.8 32.2425 39 32.2425 39.2 32.2425C39.4 32.2425 39.6 32.2425 39.7 32.3425C39.8 32.4425 39.9 32.4425 39.9 32.5425C39.9 32.6425 40 32.7425 40 33.0425V33.6425C40 33.8425 40 33.9425 40 34.0425C40 34.1425 40 34.2425 40.1 34.3425H39.6V34.2425C39.6 34.2425 39.6 34.2425 39.6 34.1425C39.5 34.2425 39.4 34.2425 39.4 34.3425C39.3 34.3425 39.2 34.4425 39.1 34.4425C38.9 34.4425 38.8 34.3425 38.7 34.2425C38.6 34.1425 38.5 34.0425 38.5 33.8425C38.5 33.7425 38.5 33.6425 38.6 33.5425C38.6 33.4425 38.7 33.4425 38.8 33.3425C38.9 33.3425 39 33.2425 39.2 33.2425C39.4 33.2425 39.6 33.1425 39.6 33.1425V32.8425C39.6 32.7425 39.6 32.6425 39.5 32.6425C39.5 32.6425 39.4 32.5425 39.3 32.5425C39.2 32.5425 39.2 32.5425 39.1 32.6425C39 32.7425 38.9 32.7425 38.9 32.8425Z" fill="#77787B"/>
<path id="Vector_8" d="M41.9994 34.1425H41.4994V33.1425C41.4994 32.9425 41.4994 32.8425 41.4994 32.7425C41.4994 32.6425 41.3994 32.6425 41.3994 32.6425C41.3994 32.6425 41.2994 32.5425 41.1994 32.5425C41.0994 32.5425 40.9994 32.5425 40.9994 32.6425C40.8994 32.6425 40.8994 32.7425 40.8994 32.8425C40.8994 32.9425 40.8994 33.0425 40.8994 33.2425V34.1425H40.3994V32.2425H40.7994V32.5425C40.9994 32.3425 41.0994 32.2425 41.3994 32.2425C41.4994 32.2425 41.5994 32.2425 41.6994 32.3425C41.7994 32.3425 41.7994 32.4425 41.8994 32.5425C41.8994 32.6425 41.9994 32.6425 41.9994 32.7425C41.9994 32.8425 41.9994 32.9425 41.9994 33.0425V34.1425Z" fill="#77787B"/>
<path id="Vector_9" d="M44.8998 33.2425L45.3998 33.4425C45.2998 33.7425 45.1998 33.9425 44.9998 34.0425C44.7998 34.1425 44.5998 34.2425 44.3998 34.2425C44.0998 34.2425 43.7999 34.1425 43.5999 33.8425C43.3999 33.6425 43.2998 33.2425 43.2998 32.8425C43.2998 32.4425 43.3999 32.0425 43.5999 31.8425C43.7999 31.6425 44.0998 31.4425 44.3998 31.4425C44.6998 31.4425 44.8999 31.5425 45.0999 31.7425C45.1999 31.8425 45.2998 32.0425 45.2998 32.2425L44.7998 32.3425C44.7998 32.2425 44.6999 32.1425 44.5999 32.0425C44.4999 31.9425 44.3998 31.9425 44.2998 31.9425C44.0998 31.9425 43.9998 32.0425 43.8998 32.1425C43.7998 32.2425 43.6998 32.5425 43.6998 32.8425C43.6998 33.1425 43.7998 33.4425 43.8998 33.5425C43.9998 33.6425 44.0998 33.7425 44.2998 33.7425C44.3998 33.7425 44.4999 33.7425 44.5999 33.6425C44.7999 33.5425 44.8998 33.4425 44.8998 33.2425Z" fill="#77787B"/>
<path id="Vector_10" d="M45.7998 34.1425H46.2998V32.2425H45.7998V34.1425ZM45.7998 32.0425H46.2998V31.5425H45.7998V32.0425Z" fill="#77787B"/>
<path id="Vector_11" d="M47.2 34.1425L46.5 32.2425H47L47.3 33.2425L47.4 33.5425C47.4 33.4425 47.4 33.4425 47.4 33.3425C47.4 33.2425 47.4 33.2425 47.4 33.1425L47.7 32.1425H48.2L47.5 34.0425H47.2V34.1425Z" fill="#77787B"/>
<path id="Vector_12" d="M48.6006 34.1425H49.1006V32.2425H48.6006V34.1425ZM48.6006 32.0425H49.1006V31.5425H48.6006V32.0425Z" fill="#77787B"/>
<path id="Vector_13" d="M50 31.5425H49.5V34.1425H50V31.5425Z" fill="#77787B"/>
<path id="Vector_14" d="M50.4004 34.1425H50.9004V32.2425H50.4004V34.1425ZM50.4004 32.0425H50.9004V31.5425H50.4004V32.0425Z" fill="#77787B"/>
<path id="Vector_15" d="M51.2002 34.1425V33.7425L51.8002 32.9425C51.9002 32.8425 52.0002 32.7425 52.0002 32.6425C51.9002 32.6425 51.9002 32.6425 51.8002 32.6425H51.2002V32.2425H52.6002V32.6425L51.9002 33.4425L51.7002 33.7425C51.8002 33.7425 51.9002 33.7425 51.9002 33.7425H52.6002V34.1425H51.2002Z" fill="#77787B"/>
<path id="Vector_16" d="M54 33.2425C53.9 33.2425 53.8 33.2425 53.7 33.3425C53.6 33.3425 53.5 33.4425 53.5 33.4425C53.4 33.4425 53.4 33.5425 53.4 33.6425C53.4 33.7425 53.4 33.7425 53.5 33.8425C53.5 33.9425 53.6 33.9425 53.7 33.9425C53.8 33.9425 53.9 33.9425 53.9 33.8425C54 33.8425 54 33.7425 54 33.6425C54 33.6425 54 33.5425 54 33.4425V33.2425ZM53.4 32.8425L53 32.7425C53 32.5425 53.1 32.4425 53.2 32.3425C53.3 32.2425 53.5 32.2425 53.7 32.2425C53.9 32.2425 54.1 32.2425 54.2 32.3425C54.3 32.4425 54.4 32.4425 54.4 32.5425C54.4 32.6425 54.5 32.7425 54.5 33.0425V33.6425C54.5 33.8425 54.5 33.9425 54.5 34.0425C54.5 34.1425 54.5 34.2425 54.6 34.3425H54.1V34.2425C54.1 34.2425 54.1 34.2425 54.1 34.1425C54 34.2425 53.9 34.2425 53.9 34.3425C53.8 34.3425 53.7 34.4425 53.6 34.4425C53.4 34.4425 53.3 34.3425 53.2 34.2425C53.1 34.1425 53 34.0425 53 33.8425C53 33.7425 53 33.6425 53.1 33.5425C53.1 33.4425 53.2 33.4425 53.3 33.3425C53.4 33.3425 53.5 33.2425 53.7 33.2425C53.9 33.2425 54.1 33.1425 54.1 33.1425V32.8425C54.1 32.7425 54.1 32.6425 54 32.6425C54 32.6425 53.9 32.5425 53.8 32.5425C53.7 32.5425 53.7 32.5425 53.6 32.6425C53.4 32.7425 53.4 32.7425 53.4 32.8425Z" fill="#77787B"/>
<path id="Vector_17" d="M55.7002 32.2425V32.6425H55.4002V33.4425C55.4002 33.6425 55.4002 33.6425 55.4002 33.7425C55.4002 33.7425 55.4002 33.7425 55.4002 33.8425C55.4002 33.8425 55.4002 33.8425 55.5002 33.8425C55.5002 33.8425 55.6002 33.8425 55.7002 33.8425V34.2425C55.6002 34.2425 55.5002 34.3425 55.3002 34.3425C55.2002 34.3425 55.1002 34.3425 55.1002 34.3425C55.0002 34.3425 55.0002 34.2425 55.0002 34.2425C55.0002 34.2425 54.9002 34.1424 54.9002 34.0424C54.9002 33.9425 54.9002 33.8425 54.9002 33.6425V32.8425H54.7002V32.4425H54.9002V31.8425L55.4002 31.5424V32.2425H55.7002Z" fill="#77787B"/>
<path id="Vector_18" d="M56 34.1425H56.5V32.2425H56V34.1425ZM56 32.0425H56.5V31.5425H56V32.0425Z" fill="#77787B"/>
<path id="Vector_19" d="M57.2998 33.2425C57.2998 33.4425 57.2998 33.5425 57.3998 33.6425C57.4998 33.7425 57.5998 33.8425 57.6998 33.8425C57.7998 33.8425 57.8998 33.7425 57.9998 33.6425C58.0998 33.5425 58.0999 33.4425 58.0999 33.2425C58.0999 33.0425 58.0998 32.9425 57.9998 32.8425C57.8998 32.7425 57.7998 32.6425 57.6998 32.6425C57.5998 32.6425 57.4998 32.7425 57.3998 32.8425C57.2998 32.9425 57.2998 33.0425 57.2998 33.2425ZM56.7998 33.2425C56.7998 33.0425 56.7998 32.9425 56.8998 32.7425C56.9998 32.5425 57.0998 32.4425 57.1998 32.3425C57.2998 32.2425 57.4998 32.2425 57.6998 32.2425C57.9998 32.2425 58.1998 32.3425 58.2998 32.5425C58.4998 32.7425 58.5999 32.9425 58.5999 33.2425C58.5999 33.5425 58.4998 33.7425 58.2998 33.9425C58.0998 34.1425 57.8998 34.2425 57.6998 34.2425C57.4998 34.2425 57.3998 34.2425 57.1998 34.1425C57.0998 34.0425 56.8998 33.9425 56.8998 33.8425C56.8998 33.6425 56.7998 33.4425 56.7998 33.2425Z" fill="#77787B"/>
<path id="Vector_20" d="M60.4994 34.1425H59.9994V33.1425C59.9994 32.9425 59.9994 32.8425 59.9994 32.7425C59.9994 32.6425 59.8994 32.6425 59.8994 32.6425C59.8994 32.6425 59.7994 32.5425 59.6994 32.5425C59.5994 32.5425 59.4994 32.5425 59.4994 32.6425C59.3994 32.6425 59.3994 32.7425 59.3994 32.8425C59.3994 32.9425 59.3994 33.0425 59.3994 33.2425V34.1425H58.8994V32.2425H59.2994V32.5425C59.4994 32.3425 59.5994 32.2425 59.8994 32.2425C59.9994 32.2425 60.0994 32.2425 60.1994 32.3425C60.2994 32.3425 60.2994 32.4425 60.3994 32.5425C60.3994 32.6425 60.4994 32.6425 60.4994 32.7425C60.4994 32.8425 60.4994 32.9425 60.4994 33.0425V34.1425Z" fill="#77787B"/>
<path id="Vector_21" d="M29.8004 27.8425V29.6425L28.8004 27.8425H28.4004V30.5425H28.8004V28.7425L29.8004 30.5425H30.3004V27.8425H29.8004Z" fill="#77787B"/>
<path id="Vector_22" d="M31.8002 29.5424C31.7002 29.5424 31.6002 29.5425 31.5002 29.6425C31.4002 29.6425 31.3002 29.7425 31.2002 29.7425C31.1002 29.7425 31.1002 29.8425 31.1002 29.9425C31.1002 30.0425 31.1002 30.0425 31.2002 30.1425C31.2002 30.2425 31.3002 30.2425 31.4002 30.2425C31.5002 30.2425 31.6002 30.2425 31.6002 30.1425C31.7002 30.1425 31.7002 30.0425 31.7002 29.9425C31.7002 29.9425 31.7002 29.8425 31.7002 29.7425V29.5424H31.8002ZM31.2002 29.1425L30.8002 29.0424C30.8002 28.8424 30.9002 28.7425 31.0002 28.6425C31.1002 28.5425 31.3002 28.5424 31.5002 28.5424C31.7002 28.5424 31.9002 28.5425 32.0002 28.6425C32.1002 28.7425 32.2002 28.7425 32.2002 28.8425C32.2002 28.9425 32.3002 29.0425 32.3002 29.3425V29.9425C32.3002 30.1425 32.3002 30.2425 32.3002 30.3425C32.3002 30.4425 32.3002 30.5425 32.4002 30.6425H31.9002V30.5424V30.4425C31.8002 30.5425 31.7002 30.5425 31.6002 30.6425C31.5002 30.6425 31.4002 30.7425 31.3002 30.7425C31.1002 30.7425 31.0002 30.6424 30.9002 30.5424C30.8002 30.4424 30.7002 30.3425 30.7002 30.1425C30.7002 30.0425 30.7002 29.9425 30.8002 29.8425C30.8002 29.7425 30.9002 29.7425 31.0002 29.6425C31.1002 29.6425 31.2002 29.5424 31.4002 29.5424C31.6002 29.5424 31.8002 29.4425 31.9002 29.4425V29.3425C31.9002 29.2425 31.9002 29.1425 31.8002 29.1425C31.8002 29.1425 31.7002 29.0424 31.5002 29.0424C31.4002 29.0424 31.4002 29.0425 31.3002 29.1425C31.2002 29.0425 31.2002 29.0425 31.2002 29.1425Z" fill="#77787B"/>
<path id="Vector_23" d="M33.5 28.5424V28.9425H33.2V29.7425C33.2 29.9425 33.2 29.9424 33.2 30.0424C33.2 30.0424 33.2 30.0425 33.2 30.1425C33.2 30.1425 33.2 30.1425 33.3 30.1425C33.3 30.1425 33.4 30.1425 33.5 30.1425V30.5424C33.4 30.6424 33.3 30.6425 33.1 30.6425C33 30.6425 32.9 30.6425 32.9 30.6425C32.8 30.6425 32.8 30.5424 32.8 30.5424C32.8 30.5424 32.7 30.4425 32.7 30.3425C32.7 30.2425 32.7 30.1425 32.7 29.9425V29.1425H32.5V28.7425H32.7V28.3425L33.2 28.0424V28.7425H33.5V28.5424Z" fill="#77787B"/>
<path id="Vector_24" d="M33.7998 30.5425H34.2998V28.6425H33.7998V30.5425ZM33.7998 28.3425H34.2998V27.8425H33.7998V28.3425Z" fill="#77787B"/>
<path id="Vector_25" d="M35.2002 29.5424C35.2002 29.7424 35.2002 29.8425 35.3002 29.9425C35.4002 30.0425 35.5002 30.1425 35.6002 30.1425C35.7002 30.1425 35.8002 30.0425 35.9002 29.9425C36.0002 29.8425 36.0002 29.7424 36.0002 29.5424C36.0002 29.3424 36.0002 29.2425 35.9002 29.1425C35.8002 29.0425 35.7002 28.9425 35.6002 28.9425C35.5002 28.9425 35.4002 29.0425 35.3002 29.1425C35.2002 29.2425 35.2002 29.3424 35.2002 29.5424ZM34.7002 29.5424C34.7002 29.3424 34.7002 29.2424 34.8002 29.0424C34.9002 28.8424 35.0002 28.7425 35.1002 28.6425C35.2002 28.5425 35.4002 28.5424 35.6002 28.5424C35.9002 28.5424 36.1002 28.6425 36.3002 28.8425C36.5002 29.0425 36.6002 29.2424 36.6002 29.5424C36.6002 29.8424 36.5002 30.0425 36.3002 30.2425C36.1002 30.4425 35.9002 30.5424 35.7002 30.5424C35.5002 30.5424 35.4002 30.5425 35.2002 30.4425C35.1002 30.3425 34.9002 30.2425 34.9002 30.1425C34.7002 29.9425 34.7002 29.7424 34.7002 29.5424Z" fill="#77787B"/>
<path id="Vector_26" d="M38.4994 30.5424H37.9994V29.5424C37.9994 29.3424 37.9994 29.2425 37.9994 29.1425C37.9994 29.0425 37.8994 29.0424 37.8994 29.0424C37.8994 29.0424 37.7994 29.0424 37.6994 29.0424C37.5994 29.0424 37.4994 29.0425 37.4994 29.1425C37.3994 29.1425 37.3994 29.2425 37.3994 29.3425C37.3994 29.4425 37.3994 29.5425 37.3994 29.7425V30.6425H36.8994V28.7425H37.2994V28.8425C37.4994 28.6425 37.5994 28.5424 37.8994 28.5424C37.9994 28.5424 38.0994 28.5425 38.1994 28.6425C38.2994 28.6425 38.3994 28.7425 38.3994 28.8425C38.3994 28.9425 38.4994 28.9424 38.4994 29.0424C38.4994 29.1424 38.4994 29.2425 38.4994 29.3425V30.5424Z" fill="#77787B"/>
<path id="Vector_27" d="M39.8998 29.5424C39.7998 29.5424 39.6999 29.5425 39.5999 29.6425C39.4999 29.6425 39.3998 29.7425 39.2998 29.7425C39.1998 29.7425 39.1998 29.8425 39.1998 29.9425C39.1998 30.0425 39.1998 30.0425 39.2998 30.1425C39.2998 30.2425 39.3998 30.2425 39.4998 30.2425C39.5998 30.2425 39.6998 30.2425 39.6998 30.1425C39.7998 30.1425 39.7998 30.0425 39.7998 29.9425C39.7998 29.9425 39.7998 29.8425 39.7998 29.7425V29.5424H39.8998ZM39.2998 29.1425L38.8998 29.0424C38.8998 28.8424 38.9999 28.7425 39.0999 28.6425C39.1999 28.5425 39.3999 28.5424 39.5999 28.5424C39.7999 28.5424 39.9999 28.5425 40.0999 28.6425C40.1999 28.7425 40.2998 28.7425 40.2998 28.8425C40.2998 28.9425 40.3998 29.0425 40.3998 29.3425V29.9425C40.3998 30.1425 40.3998 30.2425 40.3998 30.3425C40.3998 30.4425 40.3998 30.5425 40.4998 30.6425H39.9998V30.5424V30.4425C39.8998 30.5425 39.7998 30.5425 39.6998 30.6425C39.5998 30.6425 39.4998 30.7425 39.3998 30.7425C39.1998 30.7425 39.0998 30.6424 38.9998 30.5424C38.8998 30.4424 38.7998 30.3425 38.7998 30.1425C38.7998 30.0425 38.7998 29.9425 38.8998 29.8425C38.8998 29.7425 38.9999 29.7425 39.0999 29.6425C39.1999 29.6425 39.2998 29.5424 39.4998 29.5424C39.6998 29.5424 39.8998 29.4425 39.9998 29.4425V29.3425C39.9998 29.2425 39.9998 29.1425 39.8998 29.1425C39.8998 29.1425 39.7999 29.0424 39.5999 29.0424C39.4999 29.0424 39.4998 29.0425 39.3998 29.1425C39.3998 29.0425 39.2998 29.0425 39.2998 29.1425Z" fill="#77787B"/>
<path id="Vector_28" d="M41.2998 27.8425H40.7998V30.4425H41.2998V27.8425Z" fill="#77787B"/>
<path id="Vector_29" d="M42.7002 30.5425V27.8425H43.5002L43.9002 29.6425L44.3002 27.8425H45.1002V30.5425H44.6002V28.4425L44.1002 30.5425H43.7002L43.2002 28.4425V30.5425H42.7002Z" fill="#77787B"/>
<path id="Vector_30" d="M46.7 30.5425V30.2425C46.6 30.3425 46.6 30.4425 46.4 30.4425C46.3 30.5425 46.2 30.5425 46.1 30.5425C46 30.5425 45.9 30.5425 45.8 30.4425C45.7 30.3425 45.6 30.3425 45.6 30.2425C45.6 30.1425 45.5 30.0425 45.5 29.8425V28.6425H46V29.5425C46 29.8425 46 29.9425 46 30.0425C46 30.1425 46 30.1425 46.1 30.1425C46.1 30.1425 46.2 30.2425 46.3 30.2425C46.4 30.2425 46.5 30.2425 46.5 30.1425C46.6 30.1425 46.6 30.0425 46.6 29.9425C46.6 29.8425 46.6 29.7425 46.6 29.4425V28.6425H47.1V30.5425H46.7Z" fill="#77787B"/>
<path id="Vector_31" d="M47.5 29.9425L48 29.8425C48 29.9425 48.1 30.0424 48.1 30.0424C48.2 30.1424 48.2 30.1425 48.4 30.1425C48.5 30.1425 48.6 30.1424 48.7 30.0424L48.8 29.9425V29.8425C48.8 29.8425 48.7 29.8425 48.6 29.7425C48.2 29.6425 48 29.5424 47.9 29.5424C47.8 29.4424 47.7 29.3425 47.7 29.1425C47.7 28.9425 47.8 28.8425 47.9 28.7425C48 28.6425 48.2 28.5424 48.5 28.5424C48.7 28.5424 48.9 28.5425 49 28.6425C49.1 28.7425 49.2 28.8424 49.2 29.0424L48.8 29.1425C48.8 29.0425 48.7 29.0425 48.7 28.9425C48.6 28.9425 48.6 28.8425 48.5 28.8425C48.4 28.8425 48.3 28.8425 48.2 28.9425L48.1 29.0424V29.1425C48.1 29.1425 48.3 29.2425 48.5 29.2425C48.7 29.3425 48.9 29.3425 49 29.4425C49.1 29.5425 49.1 29.6425 49.1 29.8425C49.1 30.0425 49 30.1425 48.9 30.3425C48.8 30.4425 48.6 30.5424 48.3 30.5424C48.1 30.5424 47.9 30.4425 47.7 30.3425C47.6 30.2425 47.5 30.1425 47.5 29.9425Z" fill="#77787B"/>
<path id="Vector_32" d="M50.5994 29.3425C50.5994 29.2425 50.5994 29.0424 50.4994 29.0424C50.3994 28.9424 50.3994 28.9425 50.2994 28.9425C50.1994 28.9425 50.0994 28.9424 49.9994 29.0424C49.8994 29.1424 49.8994 29.2425 49.8994 29.3425H50.5994ZM50.5994 29.9425L51.0994 30.0424C50.9994 30.2424 50.8994 30.3425 50.7994 30.4425C50.6994 30.5425 50.4994 30.5424 50.2994 30.5424C49.9994 30.5424 49.7994 30.4425 49.5994 30.2425C49.4994 30.0425 49.3994 29.8424 49.3994 29.5424C49.3994 29.2424 49.4994 28.9425 49.5994 28.8425C49.7994 28.6425 49.8994 28.5424 50.1994 28.5424C50.4994 28.5424 50.6994 28.6425 50.7994 28.8425C50.9994 29.0425 50.9994 29.3425 50.9994 29.7425H49.7994C49.7994 29.8425 49.7994 30.0425 49.8994 30.1425C49.9994 30.2425 50.0994 30.2425 50.1994 30.2425C50.2994 30.2425 50.2994 30.2425 50.3994 30.1425C50.4994 30.0425 50.4994 29.9425 50.5994 29.9425Z" fill="#77787B"/>
<path id="Vector_33" d="M52.5994 30.5425V30.2425C52.4994 30.3425 52.4994 30.4425 52.2994 30.4425C52.1994 30.5425 52.0994 30.5425 51.9994 30.5425C51.8994 30.5425 51.7994 30.5425 51.6994 30.4425C51.5994 30.3425 51.4994 30.3425 51.4994 30.2425C51.4994 30.1425 51.3994 30.0425 51.3994 29.8425V28.6425H51.8994V29.5425C51.8994 29.8425 51.8994 29.9425 51.8994 30.0425C51.8994 30.1425 51.8994 30.1425 51.9994 30.1425C51.9994 30.1425 52.0994 30.2425 52.1994 30.2425C52.2994 30.2425 52.3994 30.2425 52.3994 30.1425C52.4994 30.1425 52.4994 30.0425 52.4994 29.9425C52.4994 29.8425 52.4994 29.7425 52.4994 29.4425V28.6425H52.9994V30.5425H52.5994Z" fill="#77787B"/>
<path id="Vector_34" d="M53.4994 28.5424H53.8994V28.8425C54.0994 28.6425 54.1994 28.5424 54.3994 28.5424C54.4994 28.5424 54.5994 28.5425 54.6994 28.6425C54.7994 28.7425 54.8994 28.7425 54.8994 28.8425C54.9994 28.7425 55.0994 28.6425 55.0994 28.6425C55.1994 28.5425 55.2994 28.5424 55.3994 28.5424C55.4994 28.5424 55.5994 28.5425 55.6994 28.6425C55.7994 28.7425 55.8994 28.7425 55.8994 28.9425C55.8994 29.0425 55.8994 29.1425 55.8994 29.3425V30.5424H55.3994V29.4425C55.3994 29.2425 55.3994 29.1424 55.3994 29.0424C55.3994 28.9424 55.2994 28.9425 55.1994 28.9425C55.0994 28.9425 55.0994 28.9424 54.9994 29.0424C54.8994 29.0424 54.8994 29.1425 54.8994 29.2425C54.8994 29.3425 54.8994 29.4425 54.8994 29.6425V30.5424H54.3994V29.5424C54.3994 29.3424 54.3994 29.2425 54.3994 29.1425C54.3994 29.0425 54.3994 29.0424 54.2994 29.0424H54.1994C54.0994 29.0424 54.0994 29.0425 53.9994 29.1425C53.8994 29.1425 53.8994 29.2425 53.8994 29.3425C53.8994 29.4425 53.8994 29.5425 53.8994 29.7425V30.6425H53.3994V28.5424H53.4994Z" fill="#77787B"/>
<path id="Vector_35" d="M57.7994 29.5424C57.7994 29.7424 57.7994 29.8425 57.8994 29.9425C57.9994 30.0425 58.0994 30.1425 58.1994 30.1425C58.2994 30.1425 58.3994 30.0425 58.4994 29.9425C58.5994 29.8425 58.5994 29.7424 58.5994 29.5424C58.5994 29.3424 58.5994 29.2425 58.4994 29.1425C58.3994 29.0425 58.2994 28.9425 58.1994 28.9425C58.0994 28.9425 57.9994 29.0425 57.8994 29.1425C57.8994 29.2425 57.7994 29.3424 57.7994 29.5424ZM57.3994 29.5424C57.3994 29.3424 57.3994 29.2424 57.4994 29.0424C57.5994 28.8424 57.6994 28.7425 57.7994 28.6425C57.8994 28.5425 58.0994 28.5424 58.2994 28.5424C58.5994 28.5424 58.7994 28.6425 58.9994 28.8425C59.1994 29.0425 59.2994 29.2424 59.2994 29.5424C59.2994 29.8424 59.1994 30.0425 58.9994 30.2425C58.7994 30.4425 58.5994 30.5424 58.2994 30.5424C58.0994 30.5424 57.9994 30.5425 57.7994 30.4425C57.6994 30.3425 57.4994 30.2425 57.4994 30.1425C57.3994 29.9425 57.3994 29.7424 57.3994 29.5424Z" fill="#77787B"/>
<path id="Vector_36" d="M59.3994 28.5425H59.6994V28.4425C59.6994 28.2425 59.6994 28.1425 59.6994 28.0425C59.6994 27.9425 59.7994 27.9425 59.8994 27.8425C59.9994 27.8425 60.0994 27.7425 60.1994 27.7425C60.2994 27.7425 60.4994 27.7425 60.5994 27.8425L60.4994 28.2425C60.3994 28.2425 60.3994 28.2425 60.2994 28.2425C60.1994 28.2425 60.1994 28.2425 60.1994 28.3425C60.1994 28.3425 60.1994 28.4425 60.1994 28.5425V28.6425H60.5994V29.0425H60.1994V30.5425H59.6994V29.0425H59.3994V28.5425Z" fill="#77787B"/>
<path id="Vector_37" d="M59.7998 13.9425V19.0425H60.4998V13.9425H59.7998Z" fill="#14245D"/>
<path id="Vector_38" d="M58.5999 13.9425V18.3425H58.2998V19.0425H59.2998V13.9425H58.5999Z" fill="#14245D"/>
<path id="Vector_39" d="M56.0996 19.0425H58.4996V18.3425C58.2996 18.3425 58.1996 18.3425 58.1996 18.1425V16.3425C58.1996 16.1425 58.0996 15.9425 57.9996 15.8425C57.8996 15.6425 57.6996 15.6425 57.4996 15.6425H56.3996V18.3425H56.0996V19.0425ZM57.0996 18.1425V16.3425H57.1996C57.3996 16.3425 57.3996 16.4425 57.3996 16.5425V18.1425C57.3996 18.2425 57.3996 18.3425 57.4996 18.3425C57.1996 18.3425 57.0996 18.3425 57.0996 18.1425Z" fill="#14245D"/>
<path id="Vector_40" d="M54.8994 18.3425V19.0425H56.2994V18.3425H55.9994V15.6425H55.2994V18.3425H54.8994ZM55.1994 14.8425C55.0994 14.8425 55.0994 14.8425 54.9994 14.9425C54.8994 15.0425 54.8994 15.0425 54.8994 15.1425C54.8994 15.2425 54.8994 15.2425 54.9994 15.3425C55.0994 15.4425 55.0994 15.4425 55.1994 15.4425C55.2994 15.4425 55.2994 15.4425 55.3994 15.3425C55.4994 15.2425 55.4994 15.2425 55.4994 15.1425C55.4994 15.0425 55.4994 15.0425 55.3994 14.9425C55.3994 14.8425 55.2994 14.8425 55.1994 14.8425ZM55.7994 14.8425C55.6994 14.8425 55.6994 14.8425 55.5994 14.9425C55.4994 15.0425 55.4994 15.0425 55.4994 15.1425C55.4994 15.2425 55.4994 15.2425 55.5994 15.3425C55.6994 15.4425 55.6994 15.4425 55.7994 15.4425C55.8994 15.4425 55.8994 15.4425 55.9994 15.3425C56.0994 15.2425 56.0994 15.2425 56.0994 15.1425C56.0994 15.0425 56.0994 15.0425 55.9994 14.9425C55.8994 14.8425 55.8994 14.8425 55.7994 14.8425Z" fill="#14245D"/>
<path id="Vector_41" d="M49.5996 19.0425H54.1996C54.2996 19.3425 54.5996 19.5425 54.9996 19.5425C55.0996 19.5425 55.0996 19.5425 55.0996 19.5425C54.8996 19.5425 54.6996 19.3425 54.7996 19.0425H54.9996V18.3425H54.6996V16.2425C54.6996 16.0425 54.5996 15.8425 54.4996 15.6425C54.2996 15.4425 54.1996 15.3425 53.9996 15.3425H53.6996C53.5996 15.3425 53.5996 15.3425 53.5996 15.3425C53.8996 15.4425 53.9996 15.6425 54.0996 16.0425C54.0996 16.2425 54.1996 16.7425 54.0996 17.2425C54.0996 17.7425 54.0996 18.1425 54.0996 18.2425H49.6996V19.0425H49.5996Z" fill="#14245D"/>
<path id="Vector_42" d="M48.4 18.3425V16.4425C48.4 16.3425 48.5 16.2425 48.6 16.2425C48.7 16.2425 48.7 16.2425 48.7 16.3425V18.2425H48.4V18.3425ZM53.4 18.3425H49.4V16.5425C49.4 16.3425 49.3 16.1425 49.1 15.9425C48.9 15.7425 48.7 15.6425 48.5 15.6425C48.3 15.6425 48.1 15.7425 47.9 15.9425C47.7 16.1425 47.6 16.3425 47.6 16.5425V18.3425H46.7V15.6425C46.5 15.6425 46.3 15.7425 46.2 15.9425C46 16.1425 46 16.3425 46 16.5425V19.0425H53.4V18.3425ZM48.5 14.8425C48.4 14.8425 48.4 14.8425 48.3 14.9425C48.2 15.0425 48.2 15.0425 48.2 15.1425C48.2 15.2425 48.2 15.2425 48.3 15.3425C48.4 15.4425 48.4 15.4425 48.5 15.4425C48.6 15.4425 48.6 15.4425 48.7 15.3425C48.8 15.2425 48.8 15.2425 48.8 15.1425C48.8 15.0425 48.8 15.0425 48.7 14.9425C48.7 14.8425 48.6 14.8425 48.5 14.8425Z" fill="#14245D"/>
<path id="Vector_43" d="M43.2998 13.9425V19.0425H44.0999V13.9425H43.2998Z" fill="#14245D"/>
<path id="Vector_44" d="M42.0999 13.9425V18.3425H41.7998V19.0425H42.8998V13.9425H42.0999Z" fill="#14245D"/>
<path id="Vector_45" d="M36.5 19.0425H42V18.3425H41.7V16.5425C41.7 16.3425 41.6 16.1425 41.4 15.9425C41.2 15.7425 41 15.6425 40.8 15.6425C40.6 15.6425 40.4 15.7425 40.2 15.9425C40 16.1425 39.9 16.3425 39.9 16.5425V18.3425H36.5V19.0425ZM40.6 18.3425V16.4425C40.6 16.3425 40.7 16.2425 40.8 16.2425C40.9 16.2425 40.9 16.2425 40.9 16.3425V18.2425H40.6V18.3425ZM40.5 14.8425C40.4 14.8425 40.4 14.8425 40.3 14.9425C40.2 15.0425 40.2 15.0425 40.2 15.1425C40.2 15.2425 40.2 15.2425 40.3 15.3425C40.4 15.4425 40.4 15.4425 40.5 15.4425C40.6 15.4425 40.6 15.4425 40.7 15.3425C40.8 15.2425 40.8 15.2425 40.8 15.1425C40.8 15.0425 40.8 15.0425 40.7 14.9425C40.6 14.8425 40.6 14.8425 40.5 14.8425ZM41.1 14.8425C41 14.8425 41 14.8425 40.9 14.9425C40.8 15.0425 40.8 15.0425 40.8 15.1425C40.8 15.2425 40.8 15.2425 40.9 15.3425C41 15.4425 41 15.4425 41.1 15.4425C41.2 15.4425 41.2 15.4425 41.3 15.3425C41.4 15.2425 41.4 15.2425 41.4 15.1425C41.4 15.0425 41.4 15.0425 41.3 14.9425C41.2 14.8425 41.1 14.8425 41.1 14.8425Z" fill="#14245D"/>
<path id="Vector_46" d="M35.2996 18.3425V16.6425C35.2996 16.4425 35.3996 16.3425 35.5996 16.3425V18.3425H35.2996ZM39.7996 18.3425H36.3996V15.6425H35.3996C35.0996 15.6425 34.7996 15.7425 34.6996 15.9425C34.5996 16.0425 34.5996 16.3425 34.5996 16.6425C34.5996 16.7425 34.5996 16.7425 34.5996 16.9425C34.5996 17.0425 34.5996 17.1425 34.5996 17.1425V19.0425H35.5996C35.5996 19.2425 35.4996 19.3425 35.2996 19.4425C35.1996 19.4425 34.9996 19.4425 34.7996 19.4425C34.7996 19.6425 34.7996 19.7425 34.7996 19.9425H35.0996C35.4996 19.9425 35.7996 19.9425 35.8996 19.7425C36.0996 19.5425 36.1996 19.3425 36.1996 18.9425H39.5996V18.3425H39.7996Z" fill="#14245D"/>
<path id="Vector_47" d="M31.8998 19.0425H34.0999V18.3425C33.9999 18.3425 33.8998 18.2425 33.8998 17.9425C33.8998 17.8425 33.8998 17.6425 33.8998 17.4425C33.8998 17.2425 33.8998 17.0425 33.8998 16.8425C33.8998 16.0425 33.6998 15.6425 33.1998 15.6425H32.0999V18.3425H31.7998L31.8998 19.0425ZM32.8998 18.1425V16.3425H32.9998C33.1998 16.3425 33.1998 16.4425 33.1998 16.5425V18.1425C33.1998 18.2425 33.1998 18.3425 33.2998 18.3425C33.0998 18.3425 32.8998 18.3425 32.8998 18.1425Z" fill="#14245D"/>
<path id="Vector_48" d="M29.1994 18.0425C29.1994 17.8425 29.2994 17.7425 29.4994 17.5425C29.6994 17.7425 29.7994 17.9425 29.7994 18.0425C29.7994 18.2425 29.6994 18.3425 29.4994 18.3425C29.2994 18.3425 29.1994 18.2425 29.1994 18.0425ZM29.5994 16.6425C29.3994 16.4425 29.2994 16.3425 29.2994 16.2425C29.2994 16.1425 29.2994 16.1425 29.3994 16.1425C29.3994 16.1425 29.5994 16.2425 29.7994 16.5425C29.6994 16.5425 29.6994 16.6425 29.5994 16.6425ZM32.0994 18.3425L30.7994 16.6425C30.9994 16.4425 31.1994 16.2425 31.2994 16.1425C31.3994 15.9425 31.4994 15.7425 31.4994 15.4425V15.3425H30.7994V15.4425C30.7994 15.6425 30.6994 15.9425 30.3994 16.1425C30.1994 15.8425 29.9994 15.6425 29.9994 15.6425C29.7994 15.4425 29.5994 15.4425 29.3994 15.4425C29.1994 15.4425 28.9994 15.5425 28.7994 15.6425C28.6994 15.7425 28.5994 15.9425 28.5994 16.2425C28.5994 16.5425 28.6994 16.8425 28.9994 17.1425C28.5994 17.4425 28.3994 17.7425 28.3994 18.1425C28.3994 18.4425 28.4994 18.7425 28.6994 18.9425C28.8994 19.1425 29.0994 19.2425 29.3994 19.2425C29.6994 19.2425 29.8994 19.1425 30.0994 19.0425C30.2994 18.8425 30.3994 18.6425 30.3994 18.4425C30.3994 18.1425 30.1994 17.8425 29.8994 17.4425L30.0994 17.3425C30.3994 17.7425 30.6994 18.1425 30.8994 18.5425C31.3994 19.1425 31.6994 19.3425 31.8994 19.3425V18.3425H32.0994Z" fill="#14245D"/>
<path id="Vector_49" d="M59.5 25.7425H60.5V20.6425H59.8V25.0425H59.5V25.7425Z" fill="#14245D"/>
<path id="Vector_50" d="M58.2998 25.7425H59.6998V25.0425H59.2998V20.6425H58.5999V25.0425H58.2998V25.7425Z" fill="#14245D"/>
<path id="Vector_51" d="M56.7002 25.7425H57.6002C57.7002 26.0425 58.0002 26.2425 58.4002 26.2425C58.5002 26.2425 58.5002 26.2425 58.5002 26.2425C58.3002 26.2425 58.1002 26.0425 58.2002 25.7425H58.4002V25.0424H58.1002V22.9425C58.1002 22.7425 58.0002 22.5425 57.9002 22.3425C57.7002 22.1425 57.6002 22.0424 57.4002 22.0424H57.1002C57.0002 22.0424 57.0002 22.0424 57.0002 22.0424C57.3002 22.1424 57.4002 22.3425 57.5002 22.7425C57.5002 22.9425 57.6002 23.4425 57.5002 23.9425C57.5002 24.4425 57.5002 24.8425 57.5002 24.9425H56.7002V25.7425Z" fill="#14245D"/>
<path id="Vector_52" d="M54.3994 25.7425H54.7994C54.7994 25.8425 54.7994 25.9425 54.6994 26.0424C54.6994 26.0424 54.5994 26.1425 54.4994 26.1425C54.3994 26.1425 54.3994 26.1425 54.3994 26.2425H54.4994C54.6994 26.2425 54.7994 26.2425 54.9994 26.1425C55.1994 26.0425 55.2994 25.9425 55.2994 25.7425H56.6994V25.0424H56.3994V22.3425H55.7994C55.6994 22.3425 55.5994 22.3425 55.4994 22.4425C55.3994 22.5425 55.2994 22.5425 55.2994 22.6425V22.3425H54.6994V25.0424H54.3994V25.7425ZM55.7994 25.0424H55.3994V23.5424C55.3994 23.2424 55.4994 23.0424 55.7994 23.0424V25.0424ZM55.6994 21.5424C55.5994 21.5424 55.5994 21.5425 55.4994 21.6425C55.3994 21.7425 55.3994 21.7425 55.3994 21.8425C55.3994 21.9425 55.3994 21.9424 55.4994 22.0424C55.5994 22.1424 55.5994 22.1425 55.6994 22.1425C55.7994 22.1425 55.7994 22.1424 55.8994 22.0424C55.9994 21.9424 55.9994 21.9425 55.9994 21.8425C55.9994 21.7425 55.9994 21.7425 55.8994 21.6425C55.7994 21.5425 55.7994 21.5424 55.6994 21.5424Z" fill="#14245D"/>
<path id="Vector_53" d="M54.6 25.0425H50.2V20.6425H49.5V25.7425H54.6V25.0425Z" fill="#14245D"/>
<path id="Vector_54" d="M49.0002 22.3425H48.3002V25.6425C48.3002 25.8425 48.2002 25.9425 48.1002 25.9425C48.0002 25.9425 47.9002 25.9425 47.7002 25.9425V26.4425C48.3002 26.4425 48.7002 26.3425 48.8002 26.1425C48.9002 25.9425 49.0002 25.6425 49.0002 25.0425V22.3425Z" fill="#14245D"/>
<path id="Vector_55" d="M46.5002 25.0424V23.1425C46.5002 23.0425 46.6002 23.0424 46.7002 23.0424C46.8002 23.0424 46.8002 23.1425 46.8002 23.2425V25.1425H46.5002V25.0424ZM47.5002 23.1425C47.5002 22.9425 47.4002 22.7425 47.3002 22.6425C47.2002 22.4425 47.0002 22.4425 46.8002 22.4425H46.4002C46.2002 22.4425 46.0002 22.5425 45.9002 22.6425C45.8002 22.8425 45.7002 22.9425 45.7002 23.1425V25.7425H47.5002V23.1425ZM46.3002 21.5424C46.2002 21.5424 46.2002 21.5425 46.1002 21.6425C46.0002 21.7425 46.0002 21.7425 46.0002 21.8425C46.0002 21.9425 46.0002 21.9424 46.1002 22.0424C46.2002 22.1424 46.2002 22.1425 46.3002 22.1425C46.4002 22.1425 46.4002 22.1424 46.5002 22.0424C46.6002 21.9424 46.6002 21.9425 46.6002 21.8425C46.6002 21.7425 46.6002 21.7425 46.5002 21.6425C46.5002 21.5425 46.4002 21.5424 46.3002 21.5424ZM46.9002 21.5424C46.8002 21.5424 46.8002 21.5425 46.7002 21.6425C46.6002 21.7425 46.6002 21.7425 46.6002 21.8425C46.6002 21.9425 46.6002 21.9424 46.7002 22.0424C46.8002 22.1424 46.8002 22.1425 46.9002 22.1425C47.0002 22.1425 47.0002 22.1424 47.1002 22.0424C47.2002 21.9424 47.2002 21.9425 47.2002 21.8425C47.2002 21.7425 47.2002 21.7425 47.1002 21.6425C47.0002 21.5425 47.0002 21.5424 46.9002 21.5424Z" fill="#14245D"/>
<path id="Vector_56" d="M43.1006 20.6425V25.7425H43.8005V20.6425H43.1006Z" fill="#14245D"/>
<path id="Vector_57" d="M41.6006 25.7425H42.6006V20.6425H41.9006V25.0425H41.6006V25.7425Z" fill="#14245D"/>
<path id="Vector_58" d="M39.2998 25.7425H41.6998V25.0425C41.4998 25.0425 41.3998 25.0425 41.3998 24.8425V23.0425C41.3998 22.8425 41.2998 22.6425 41.1998 22.5425C41.0998 22.3425 40.8998 22.3425 40.6998 22.3425H39.5999V25.0425H39.2998V25.7425ZM40.3998 24.8425V23.0425H40.4998C40.6998 23.0425 40.6998 23.1425 40.6998 23.2425V24.8425C40.6998 24.9425 40.6998 25.0425 40.7998 25.0425C40.4998 25.0425 40.3998 25.0425 40.3998 24.8425Z" fill="#14245D"/>
<path id="Vector_59" d="M36.9994 25.7425H37.3994C37.3994 25.8425 37.3994 25.9425 37.2994 26.0425C37.2994 26.0425 37.1994 26.1425 37.0994 26.1425C36.9994 26.1425 36.9994 26.1425 36.9994 26.2425H37.0994C37.2994 26.2425 37.3994 26.2425 37.5994 26.1425C37.7994 26.0425 37.8994 25.9425 37.8994 25.7425H39.2994V25.0425H38.9994V22.3425H38.3994C38.2994 22.3425 38.1994 22.3425 38.0994 22.4425C37.9994 22.5425 37.8994 22.5425 37.8994 22.6425V22.3425H37.1994V25.0425H36.8994V25.7425H36.9994ZM38.3994 25.0425H37.9994V23.5425C37.9994 23.2425 38.0994 23.0425 38.3994 23.0425V25.0425Z" fill="#14245D"/>
<path id="Vector_60" d="M37.1996 25.0425H35.8996V22.3425H35.1996V25.6425C35.1996 25.8425 35.0996 25.9425 34.9996 25.9425C34.8996 25.9425 34.7996 25.9425 34.5996 25.9425V26.4425C34.9996 26.4425 35.2996 26.4425 35.4996 26.3425C35.7996 26.2425 35.8996 25.9425 35.8996 25.5425H37.1996V25.0425Z" fill="#14245D"/>
<path id="Vector_61" d="M30.2998 25.0425H33.6998V22.3425H34.3998V25.6425H30.2998V25.0425ZM33.6998 26.1425C33.5998 26.1425 33.5998 26.1425 33.4998 26.2425C33.3998 26.3425 33.3998 26.3425 33.3998 26.4425C33.3998 26.5425 33.3998 26.5425 33.4998 26.6425C33.5998 26.7425 33.5998 26.7425 33.6998 26.7425C33.7998 26.7425 33.7998 26.7425 33.8998 26.6425C33.9998 26.5425 33.9998 26.5425 33.9998 26.4425C33.9998 26.3425 33.9998 26.3425 33.8998 26.2425C33.7998 26.1425 33.7998 26.1425 33.6998 26.1425ZM34.1998 26.1425C34.0998 26.1425 34.0998 26.1425 33.9998 26.2425C33.8998 26.3425 33.8998 26.3425 33.8998 26.4425C33.8998 26.5425 33.8998 26.5425 33.9998 26.6425C34.0998 26.7425 34.0998 26.7425 34.1998 26.7425C34.2998 26.7425 34.2998 26.7425 34.3998 26.6425C34.4998 26.5425 34.4998 26.5425 34.4998 26.4425C34.4998 26.3425 34.4998 26.3425 34.3998 26.2425C34.3998 26.1425 34.2998 26.1425 34.1998 26.1425Z" fill="#14245D"/>
<path id="Vector_62" d="M29.0999 25.0424V23.2425C29.0999 23.1425 29.1998 23.0424 29.2998 23.0424H29.3998V25.0424H29.0999ZM33.4998 25.0424H30.0999V22.3425H28.9998C28.7998 22.3425 28.5998 22.4424 28.4998 22.5424C28.3998 22.7424 28.2998 22.8424 28.2998 23.0424V25.6425H33.4998V25.0424ZM28.9998 21.5424C28.8998 21.5424 28.8998 21.5425 28.7998 21.6425C28.6998 21.7425 28.6998 21.7425 28.6998 21.8425C28.6998 21.9425 28.6998 21.9424 28.7998 22.0424C28.8998 22.1424 28.8998 22.1425 28.9998 22.1425C29.0998 22.1425 29.0998 22.1424 29.1998 22.0424C29.2998 21.9424 29.2998 21.9425 29.2998 21.8425C29.2998 21.7425 29.2998 21.7425 29.1998 21.6425C29.1998 21.5425 29.0998 21.5424 28.9998 21.5424ZM29.5999 21.5424C29.4999 21.5424 29.4998 21.5425 29.3998 21.6425C29.2998 21.7425 29.2998 21.7425 29.2998 21.8425C29.2998 21.9425 29.2998 21.9424 29.3998 22.0424C29.4998 22.1424 29.4999 22.1425 29.5999 22.1425C29.6999 22.1425 29.6998 22.1424 29.7998 22.0424C29.8998 21.9424 29.8998 21.9425 29.8998 21.8425C29.8998 21.7425 29.8998 21.7425 29.7998 21.6425C29.6998 21.5425 29.6999 21.5424 29.5999 21.5424Z" fill="#14245D"/>
<path id="Vector_63" d="M46 35.6425V43.0425H52.3V41.3425H48.7V40.0425H51.9V38.6425H48.8V37.3425H52.3V35.6425H46Z" fill="#BB8D3C"/>
<path id="Vector_64" d="M46 35.6425V35.7425V43.0425H46.1H52.3V41.3425H48.7V40.0425H51.9V38.6425H48.8V37.3425H52.3V35.6425H46Z" fill="black"/>
<path id="Vector_65" d="M41.8 35.6425L40.7 40.0425L39.8 35.6425H36.5V43.0425H38.6V37.6425L39.9 43.0425H41.5L42.8 37.7425V43.0425H44.9V35.6425H41.8Z" fill="#BB8D3C"/>
<path id="Vector_66" d="M41.8 35.6425L40.7 40.0425L39.8 35.6425H36.5V43.0425H38.6V37.6425L39.9 43.0425H41.5L42.8 37.7425V43.0425H44.9V35.6425H41.8Z" fill="black"/>
<path id="Vector_67" d="M32.9998 35.6425V40.0425L31.1998 35.6425H28.2998V43.0425H30.7998V38.6425L32.5999 43.0425H35.3998V35.6425H32.9998Z" fill="#BB8D3C"/>
<path id="Vector_68" d="M32.9998 35.6425V40.0425L31.1998 35.6425H28.2998V42.9425H30.7998V38.6425L32.5999 43.0425H34.4998H35.3998V35.6425H32.9998Z" fill="black"/>
<path id="Vector_69" d="M55.7004 35.6425C54.2004 35.6425 52.9004 36.8425 52.9004 38.4425V40.2425C52.9004 41.7425 54.1004 43.0425 55.7004 43.0425H57.6004C59.1004 43.0425 60.4004 41.8425 60.4004 40.2425V40.0425H57.6004V40.7425C57.6004 41.2425 57.2004 41.7425 56.7004 41.7425C56.2004 41.7425 55.8004 41.3425 55.8004 40.7425V37.9425C55.8004 37.3425 56.2004 36.9425 56.7004 36.9425C57.2004 36.9425 57.6004 37.3425 57.6004 37.9425V38.1425H60.4004C60.3004 36.6425 59.1004 35.4425 57.6004 35.4425H55.7004V35.6425Z" fill="black"/>
</g>
</g>
</svg>
