<svg width="369" height="596" viewBox="0 0 369 596" fill="none" xmlns="http://www.w3.org/2000/svg">
<g clip-path="url(#clip0_466_98604)">
<path d="M312.592 402.442V402.686L312.4 402.836L261.146 442.955L312.4 482.922L312.592 483.072V483.316V537.825L378.293 486.538V267.075H312.592V402.442ZM311.592 402.199V266.575V266.075H312.092H378.793H379.293V266.575V486.782V487.026L379.101 487.176L312.4 539.243L311.592 539.874V538.849V483.56L260.026 443.35L259.521 442.957L260.025 442.562L311.592 402.199Z" stroke="url(#paint0_linear_466_98604)"/>
<path d="M287.444 495.092L287.637 495.242V495.486V558.336V558.58L287.444 558.73L240.307 595.547L239.999 595.787L239.692 595.547L192.554 558.73L192.362 558.58V558.336V495.486V495.242L192.554 495.092L239.692 458.275L239.999 458.035L240.307 458.275L287.444 495.092ZM286.637 558.092V495.73L239.999 459.303L193.362 495.73V558.092L239.999 594.518L286.637 558.092Z" stroke="url(#paint1_linear_466_98604)"/>
<path d="M167.601 402.836L167.408 402.686V402.442V267.075H101.708V486.538L167.408 537.825V483.316V483.072L167.601 482.921L218.931 442.955L167.601 402.836ZM168.408 266.575V402.199L220.052 442.562L220.557 442.957L220.051 443.351L168.408 483.56V538.849V539.874L167.601 539.243L100.9 487.176L100.708 487.026V486.782V266.575V266.075H101.208H167.908H168.408V266.575Z" stroke="url(#paint2_linear_466_98604)"/>
<path d="M287.637 383.88V384.38H287.137H192.862H192.362V383.88V245.595L101.042 213.825L100.706 213.708V213.352V155.74V155.24H101.206H378.793H379.293V155.74V213.352V213.708L378.957 213.825L287.637 245.595V383.88ZM193.362 383.38H286.637V245.24V244.884L286.973 244.767L378.293 212.997V156.24H101.706V212.997L193.027 244.767L193.362 244.884V245.24V383.38Z" stroke="url(#paint3_linear_466_98604)"/>
<path d="M-0.114532 0.38501V-0.11499H0.385468H76.329H76.829V0.38501V54.3399H201.529V0.38501V-0.11499H202.029H277.972H278.472V0.38501V54.3399H403.249V0.38501V-0.11499H403.749H479.615H480.115V0.38501V130.784V131.284H479.615H0.385468H-0.114532V130.784V0.38501ZM75.829 0.88501H0.885468V130.284H479.115V0.88501H404.249V54.8399V55.3399H403.749H277.972H277.472V54.8399V0.88501H202.529V54.8399V55.3399H202.029H76.329H75.829V54.8399V0.88501Z" stroke="url(#paint4_linear_466_98604)"/>
</g>
<defs>
<linearGradient id="paint0_linear_466_98604" x1="379.176" y1="402.692" x2="259.685" y2="402.692" gradientUnits="userSpaceOnUse">
<stop stop-color="white"/>
<stop offset="0.085261" stop-color="#E2E1E1"/>
<stop offset="0.2676" stop-color="#A8A7A7"/>
<stop offset="0.4438" stop-color="#797677"/>
<stop offset="0.6095" stop-color="#535051"/>
<stop offset="0.7621" stop-color="#393536"/>
<stop offset="0.897" stop-color="#292526"/>
<stop offset="1" stop-color="#231F20"/>
</linearGradient>
<linearGradient id="paint1_linear_466_98604" x1="287.534" y1="526.93" x2="192.504" y2="526.93" gradientUnits="userSpaceOnUse">
<stop stop-color="white"/>
<stop offset="0.085261" stop-color="#E2E1E1"/>
<stop offset="0.2676" stop-color="#A8A7A7"/>
<stop offset="0.4438" stop-color="#797677"/>
<stop offset="0.6095" stop-color="#535051"/>
<stop offset="0.7621" stop-color="#393536"/>
<stop offset="0.897" stop-color="#292526"/>
<stop offset="1" stop-color="#231F20"/>
</linearGradient>
<linearGradient id="paint2_linear_466_98604" x1="220.34" y1="402.692" x2="100.85" y2="402.692" gradientUnits="userSpaceOnUse">
<stop stop-color="white"/>
<stop offset="0.085261" stop-color="#E2E1E1"/>
<stop offset="0.2676" stop-color="#A8A7A7"/>
<stop offset="0.4438" stop-color="#797677"/>
<stop offset="0.6095" stop-color="#535051"/>
<stop offset="0.7621" stop-color="#393536"/>
<stop offset="0.897" stop-color="#292526"/>
<stop offset="1" stop-color="#231F20"/>
</linearGradient>
<linearGradient id="paint3_linear_466_98604" x1="379.188" y1="269.788" x2="100.86" y2="269.788" gradientUnits="userSpaceOnUse">
<stop stop-color="white"/>
<stop offset="0.085261" stop-color="#E2E1E1"/>
<stop offset="0.2676" stop-color="#A8A7A7"/>
<stop offset="0.4438" stop-color="#797677"/>
<stop offset="0.6095" stop-color="#535051"/>
<stop offset="0.7621" stop-color="#393536"/>
<stop offset="0.897" stop-color="#292526"/>
<stop offset="1" stop-color="#231F20"/>
</linearGradient>
<linearGradient id="paint4_linear_466_98604" x1="479.637" y1="65.619" x2="-0.328975" y2="65.619" gradientUnits="userSpaceOnUse">
<stop stop-color="white"/>
<stop offset="0.085261" stop-color="#E2E1E1"/>
<stop offset="0.2676" stop-color="#A8A7A7"/>
<stop offset="0.4438" stop-color="#797677"/>
<stop offset="0.6095" stop-color="#535051"/>
<stop offset="0.7621" stop-color="#393536"/>
<stop offset="0.897" stop-color="#292526"/>
<stop offset="1" stop-color="#231F20"/>
</linearGradient>
<clipPath id="clip0_466_98604">
<rect width="480" height="596" fill="white" transform="matrix(-1 0 0 1 480 0)"/>
</clipPath>
</defs>
</svg>
