<svg width="104" height="105" viewBox="0 0 104 105" fill="none" xmlns="http://www.w3.org/2000/svg">
<g clip-path="url(#clip0_749_40674)">
<mask id="mask0_749_40674" style="mask-type:luminance" maskUnits="userSpaceOnUse" x="36" y="11" width="32" height="30">
<path d="M36.0098 27.0113C36.0098 32.5058 38.8274 37.5776 43.4766 40.3952C43.7583 40.5361 44.0401 40.677 44.4628 40.677C45.0263 40.677 45.5898 40.3952 46.0125 39.8317C46.576 38.9864 46.2942 38.0002 45.4489 37.4367C41.786 35.1826 39.5318 31.2378 39.5318 27.0113C39.5318 20.2489 45.1672 14.6136 52.0705 14.6136C58.9737 14.6136 64.6091 20.1081 64.6091 27.0113C64.6091 31.2378 62.3549 35.1826 58.692 37.4367C57.8467 38.0002 57.5649 38.9864 58.1284 39.8317C58.692 40.677 59.6781 40.9588 60.5234 40.3952C65.1726 37.4367 67.9903 32.5058 67.9903 27.0113C67.9903 18.2766 60.8052 11.2324 51.9296 11.2324C43.1948 11.2324 36.0098 18.2766 36.0098 27.0113Z" fill="white"/>
</mask>
<g mask="url(#mask0_749_40674)">
<path d="M82.6416 23.0662L55.1694 56.5965L21.3574 28.9833L48.8296 -4.54688L82.6416 23.0662Z" fill="#35C5E8"/>
</g>
<mask id="mask1_749_40674" style="mask-type:luminance" maskUnits="userSpaceOnUse" x="42" y="42" width="20" height="13">
<path d="M50.5201 51.2421C48.2659 50.5376 46.5753 48.5653 46.2936 46.3111H57.846C57.5642 48.5653 55.8736 50.6785 53.6195 51.2421C53.056 51.3829 52.6333 51.3829 52.0698 51.3829C51.5062 51.3829 50.9427 51.3829 50.5201 51.2421ZM44.4621 42.7891C43.4759 42.7891 42.7715 43.6344 42.7715 44.4797V45.4658C42.7715 49.5515 45.5891 53.3553 49.6748 54.4824C50.5201 54.7641 51.3654 54.7641 52.2107 54.7641C53.056 54.7641 53.9013 54.6233 54.7466 54.4824C58.8322 53.3553 61.6498 49.6923 61.6498 45.4658V44.4797C61.6498 43.4935 60.8045 42.7891 59.9592 42.7891H44.4621Z" fill="white"/>
</mask>
<g mask="url(#mask1_749_40674)">
<path d="M67.2845 47.5783L53.9006 64.0616L36.7129 50.1142L50.0968 33.6309L67.2845 47.5783Z" fill="#35C5E8"/>
</g>
<mask id="mask2_749_40674" style="mask-type:luminance" maskUnits="userSpaceOnUse" x="50" y="0" width="4" height="9">
<path d="M52.0695 0.947266C51.0833 0.947266 50.3789 1.79256 50.3789 2.63786V7.00524C50.3789 7.99143 51.2242 8.69584 52.0695 8.69584C53.0557 8.69584 53.7601 7.85054 53.7601 7.00524V2.77875C53.7601 1.79256 52.9148 0.947266 52.0695 0.947266Z" fill="white"/>
</mask>
<g mask="url(#mask2_749_40674)">
<path d="M57.5634 4.04589L52.3507 10.5265L46.4336 5.73649L51.6463 -0.744141L57.5634 4.04589Z" fill="#35C5E8"/>
</g>
<mask id="mask3_749_40674" style="mask-type:luminance" maskUnits="userSpaceOnUse" x="37" y="4" width="7" height="8">
<path d="M38.8283 4.46927C37.983 4.89192 37.7012 6.01898 38.1239 6.86428L40.378 10.6681C40.6598 11.2317 41.3642 11.5134 41.9277 11.5134C42.2095 11.5134 42.4913 11.3725 42.773 11.2317C43.6183 10.809 43.9001 9.68195 43.4774 8.83665L41.2233 5.0328C40.9415 4.46927 40.2371 4.1875 39.6736 4.1875C39.5327 4.1875 39.11 4.32838 38.8283 4.46927Z" fill="white"/>
</mask>
<g mask="url(#mask3_749_40674)">
<path d="M47.5636 7.14561L41.5056 14.4715L34.1797 8.55444L40.2377 1.22852L47.5636 7.14561Z" fill="#35C5E8"/>
</g>
<mask id="mask4_749_40674" style="mask-type:luminance" maskUnits="userSpaceOnUse" x="29" y="13" width="8" height="6">
<path d="M29.2469 13.9078C28.8243 14.7531 29.106 15.7393 29.9513 16.3028L33.7552 18.4161C34.0369 18.5569 34.3187 18.6978 34.6005 18.6978C35.164 18.6978 35.8684 18.4161 36.1502 17.8525C36.5728 17.0072 36.2911 16.021 35.4458 15.4575L31.6419 13.3443C31.3602 13.2034 31.0784 13.0625 30.7966 13.0625C30.2331 13.0625 29.6696 13.3443 29.2469 13.9078Z" fill="white"/>
</mask>
<g mask="url(#mask4_749_40674)">
<path d="M39.3917 15.3177L33.4746 22.5028L26.0078 16.4448L31.9249 9.25977L39.3917 15.3177Z" fill="#35C5E8"/>
</g>
<mask id="mask5_749_40674" style="mask-type:luminance" maskUnits="userSpaceOnUse" x="25" y="25" width="9" height="4">
<path d="M27.5558 25.1797C26.5697 25.1797 25.8652 26.025 25.8652 26.8703C25.8652 27.7156 26.7105 28.5609 27.5558 28.5609H31.9232C32.9094 28.5609 33.6138 27.7156 33.6138 26.8703C33.6138 26.025 32.7685 25.1797 31.9232 25.1797H27.5558Z" fill="white"/>
</mask>
<g mask="url(#mask5_749_40674)">
<path d="M35.4447 26.5879L30.5138 32.505L24.0332 27.1515L28.9641 21.2344L35.4447 26.5879Z" fill="#35C5E8"/>
</g>
<mask id="mask6_749_40674" style="mask-type:luminance" maskUnits="userSpaceOnUse" x="29" y="35" width="8" height="6">
<path d="M33.7552 35.3228L29.9513 37.436C29.106 37.8587 28.8243 38.9857 29.2469 39.831C29.5287 40.3946 30.2331 40.6763 30.7966 40.6763C31.0784 40.6763 31.3602 40.5355 31.6419 40.3946L35.4458 38.2813C36.2911 37.8587 36.5728 36.7316 36.1502 35.8863C35.8684 35.3228 35.164 35.041 34.6005 35.041C34.3187 35.041 34.0369 35.041 33.7552 35.3228Z" fill="white"/>
</mask>
<g mask="url(#mask6_749_40674)">
<path d="M39.3917 37.2943L33.4746 44.4794L26.0078 38.4214L31.9249 31.2363L39.3917 37.2943Z" fill="#35C5E8"/>
</g>
<mask id="mask7_749_40674" style="mask-type:luminance" maskUnits="userSpaceOnUse" x="67" y="35" width="8" height="6">
<path d="M67.8485 35.8863C67.4258 36.7316 67.7076 37.7178 68.5529 38.2813L72.3567 40.3946C72.6385 40.5355 72.9203 40.6763 73.202 40.6763C73.7656 40.6763 74.47 40.3946 74.7517 39.831C75.1744 38.9857 74.8926 37.9996 74.0473 37.436L70.2435 35.3228C69.9617 35.1819 69.68 35.041 69.3982 35.041C68.8347 35.041 68.1302 35.3228 67.8485 35.8863Z" fill="white"/>
</mask>
<g mask="url(#mask7_749_40674)">
<path d="M77.9933 37.2943L72.0762 44.4794L64.6094 38.4214L70.5265 31.2363L77.9933 37.2943Z" fill="#35C5E8"/>
</g>
<mask id="mask8_749_40674" style="mask-type:luminance" maskUnits="userSpaceOnUse" x="70" y="25" width="9" height="4">
<path d="M72.0754 25.1797C71.0892 25.1797 70.3848 26.025 70.3848 26.8703C70.3848 27.7156 71.2301 28.5609 72.0754 28.5609H76.4427C77.4289 28.5609 78.1333 27.7156 78.1333 26.8703C78.1333 26.025 77.288 25.1797 76.4427 25.1797H72.0754Z" fill="white"/>
</mask>
<g mask="url(#mask8_749_40674)">
<path d="M79.9662 26.5879L75.0353 32.505L68.5547 27.1515L73.4856 21.2344L79.9662 26.5879Z" fill="#35C5E8"/>
</g>
<mask id="mask9_749_40674" style="mask-type:luminance" maskUnits="userSpaceOnUse" x="67" y="13" width="8" height="6">
<path d="M72.3567 13.3443L68.5529 15.4575C67.7076 15.8802 67.4258 17.0072 67.8485 17.8525C68.1302 18.4161 68.8347 18.6978 69.3982 18.6978C69.68 18.6978 69.9617 18.5569 70.2435 18.4161L74.0473 16.3028C74.8926 15.8802 75.1744 14.7531 74.7517 13.9078C74.47 13.3443 73.7656 13.0625 73.202 13.0625C72.9203 13.0625 72.6385 13.2034 72.3567 13.3443Z" fill="white"/>
</mask>
<g mask="url(#mask9_749_40674)">
<path d="M77.9933 15.3177L72.0762 22.5028L64.6094 16.4448L70.5265 9.25977L77.9933 15.3177Z" fill="#35C5E8"/>
</g>
<mask id="mask10_749_40674" style="mask-type:luminance" maskUnits="userSpaceOnUse" x="60" y="4" width="7" height="8">
<path d="M62.7764 5.0328L60.5223 8.83665C60.0997 9.68195 60.3814 10.6681 61.2267 11.2317C61.5085 11.3725 61.7903 11.5134 62.072 11.5134C62.6355 11.5134 63.34 11.2317 63.6217 10.6681L65.8759 6.86428C66.2985 6.01898 66.0167 5.0328 65.1714 4.46927C64.8897 4.32838 64.6079 4.1875 64.3262 4.1875C63.6217 4.1875 63.0582 4.46927 62.7764 5.0328Z" fill="white"/>
</mask>
<g mask="url(#mask10_749_40674)">
<path d="M69.8214 7.14561L63.7634 14.4715L56.4375 8.55444L62.4955 1.22852L69.8214 7.14561Z" fill="#35C5E8"/>
</g>
<mask id="mask11_749_40674" style="mask-type:luminance" maskUnits="userSpaceOnUse" x="45" y="23" width="14" height="23">
<path d="M48.2658 23.6289C47.2796 23.6289 46.2934 24.1924 45.8707 25.1786C45.4481 26.1648 45.589 27.151 46.1525 27.9963L50.2381 33.0681V43.7752C50.2381 44.7614 51.0834 45.4658 51.9287 45.4658C52.9149 45.4658 53.6193 44.6205 53.6193 43.7752V32.5045C53.6193 32.0819 53.4784 31.8001 53.1967 31.3775L49.8155 27.151H54.6055C54.6055 27.5736 54.8873 27.9963 55.3099 28.2781C56.0143 28.8416 57.1414 28.7007 57.8458 27.9963C58.5502 27.151 58.5502 26.1648 58.1276 25.1786C57.7049 24.1924 56.7188 23.6289 55.7326 23.6289H48.2658Z" fill="white"/>
</mask>
<g mask="url(#mask11_749_40674)">
<path d="M69.3997 32.3638L53.339 52.0875L34.6016 36.7312L50.6623 17.1484L69.3997 32.3638Z" fill="#35C5E8"/>
</g>
<mask id="mask12_749_40674" style="mask-type:luminance" maskUnits="userSpaceOnUse" x="29" y="80" width="46" height="25">
<path d="M33.1916 100.552C32.769 99.9888 32.4872 99.2843 32.6281 98.5799L33.0507 96.044C34.1778 89.1408 40.2358 84.069 47.4208 84.069H56.5782C63.7633 84.069 69.8213 89.1408 70.9483 96.044L71.371 98.5799C71.5119 99.2843 71.2301 99.9888 70.8074 100.552C70.3848 101.116 69.6804 101.398 68.976 101.398H35.0231C34.3187 101.398 33.6143 101.116 33.1916 100.552ZM47.4208 80.6878C38.5452 80.6878 31.0784 86.8866 29.5287 95.6214L29.106 98.1573C28.8242 99.8479 29.2469 101.538 30.374 102.806C31.501 104.074 33.1916 104.92 34.8822 104.92H68.976C70.6666 104.92 72.3572 104.215 73.4842 102.806C74.6113 101.538 75.0339 99.8479 74.7522 98.1573L74.4704 95.4805C73.0616 86.8866 65.4539 80.5469 56.5782 80.5469H47.4208V80.6878Z" fill="white"/>
</mask>
<g mask="url(#mask12_749_40674)">
<path d="M87.0072 90.2681L56.7173 127.461L16.9883 95.199L47.4191 58.0059L87.0072 90.2681Z" fill="#35C5E8"/>
</g>
<mask id="mask13_749_40674" style="mask-type:luminance" maskUnits="userSpaceOnUse" x="40" y="61" width="24" height="24">
<path d="M44.1803 72.9384C44.1803 68.7119 47.7024 65.3307 51.9289 65.3307C56.1554 65.3307 59.6774 68.7119 59.6774 72.9384C59.6774 77.1649 56.1554 80.5461 51.9289 80.5461C47.7024 80.687 44.1803 77.1649 44.1803 72.9384ZM40.6582 72.9384C40.6582 79.1372 45.73 84.0681 51.9289 84.0681C58.1277 84.0681 63.1995 79.1372 63.1995 72.9384C63.1995 66.7395 58.1277 61.8086 51.9289 61.8086C45.73 61.8086 40.6582 66.8804 40.6582 72.9384Z" fill="white"/>
</mask>
<g mask="url(#mask13_749_40674)">
<path d="M74.1868 70.6848L54.3223 95.1985L29.8086 75.1931L49.6731 50.8203L74.1868 70.6848Z" fill="#35C5E8"/>
</g>
<mask id="mask14_749_40674" style="mask-type:luminance" maskUnits="userSpaceOnUse" x="0" y="75" width="37" height="25">
<path d="M18.3993 75.6152C9.52371 75.6152 2.05689 81.955 0.507179 90.5489L0.08453 93.0848C-0.197236 94.7754 0.225413 96.4659 1.35248 97.7339C2.47954 99.0018 4.17014 99.8471 5.86074 99.8471H24.0347C25.0209 99.8471 25.7253 99.0018 25.7253 98.1565C25.7253 97.1704 24.88 96.4659 24.0347 96.4659H5.86074C5.15632 96.4659 4.45191 96.1842 4.02926 95.6206C3.60661 95.0571 3.32484 94.3527 3.46573 93.7892L3.88838 91.2533C5.01544 84.35 11.0734 79.2782 18.2585 79.2782H27.4159C29.5291 79.2782 31.6424 79.7008 33.6147 80.687C34.46 81.1097 35.5871 80.687 36.0097 79.8417C36.4324 78.9964 36.0098 77.8694 35.1645 77.5876C32.7694 76.4605 30.0927 75.897 27.4159 75.897H18.3993V75.6152Z" fill="white"/>
</mask>
<g mask="url(#mask14_749_40674)">
<path d="M48.4077 85.1951L21.7807 117.739L-12.0312 90.1261L14.4548 57.582L48.4077 85.1951Z" fill="#35C5E8"/>
</g>
<mask id="mask15_749_40674" style="mask-type:luminance" maskUnits="userSpaceOnUse" x="11" y="56" width="24" height="23">
<path d="M15.1588 67.8661C15.1588 63.6396 18.6809 60.2584 22.9074 60.2584C27.1339 60.2584 30.656 63.6396 30.656 67.8661C30.656 72.0926 27.1339 75.4738 22.9074 75.4738C18.6809 75.4738 15.1588 72.0926 15.1588 67.8661ZM11.6367 67.8661C11.6367 74.065 16.7085 78.9959 22.9074 78.9959C29.1062 78.9959 34.178 74.065 34.178 67.8661C34.178 61.6672 29.1062 56.7363 22.9074 56.7363C16.7085 56.7363 11.6367 61.8081 11.6367 67.8661Z" fill="white"/>
</mask>
<g mask="url(#mask15_749_40674)">
<path d="M45.1673 65.7535L25.1619 90.1263L0.789062 70.1208L20.6536 45.748L45.1673 65.7535Z" fill="#35C5E8"/>
</g>
<mask id="mask16_749_40674" style="mask-type:luminance" maskUnits="userSpaceOnUse" x="67" y="75" width="37" height="25">
<path d="M76.4433 75.6152C73.7665 75.6152 71.0897 76.1788 68.6947 77.3058C67.8494 77.7285 67.4268 78.7147 67.8494 79.56C68.2721 80.4053 69.2582 80.8279 70.2444 80.4053C72.2168 79.56 74.33 78.9964 76.4433 78.9964H85.6007C92.7857 78.9964 98.8437 84.0682 99.9708 90.9715L100.393 93.5074C100.534 94.2118 100.253 94.9162 99.8299 95.3389C99.4072 95.9024 98.7028 96.1842 97.9984 96.1842H79.9654C78.9792 96.1842 78.2748 97.0295 78.2748 97.8748C78.2748 98.861 79.1201 99.5654 79.9654 99.5654H98.1393C99.8299 99.5654 101.52 98.861 102.648 97.4521C103.775 96.1842 104.197 94.4936 103.916 92.803L103.493 90.5489C102.084 81.955 94.4763 75.6152 85.6007 75.6152H76.4433Z" fill="white"/>
</mask>
<g mask="url(#mask16_749_40674)">
<path d="M116.032 85.1951L89.5463 117.739L55.7344 90.1261L82.2204 57.582L116.032 85.1951Z" fill="#35C5E8"/>
</g>
<mask id="mask17_749_40674" style="mask-type:luminance" maskUnits="userSpaceOnUse" x="69" y="56" width="24" height="23">
<path d="M73.3443 67.8661C73.3443 63.6396 76.8664 60.2584 81.0929 60.2584C85.3194 60.2584 88.8415 63.6396 88.8415 67.8661C88.8415 72.0926 85.3194 75.4738 81.0929 75.4738C76.8664 75.4738 73.3443 72.0926 73.3443 67.8661ZM69.8223 67.8661C69.8223 74.065 74.8941 78.9959 81.0929 78.9959C87.2918 78.9959 92.3636 74.065 92.3636 67.8661C92.3636 61.6672 87.2918 56.7363 81.0929 56.7363C74.8941 56.7363 69.8223 61.8081 69.8223 67.8661Z" fill="white"/>
</mask>
<g mask="url(#mask17_749_40674)">
<path d="M103.212 65.7535L83.3477 90.1263L58.834 70.1208L78.8394 45.748L103.212 65.7535Z" fill="#35C5E8"/>
</g>
</g>
<defs>
<clipPath id="clip0_749_40674">
<rect width="104" height="104" fill="white" transform="translate(0 0.933594)"/>
</clipPath>
</defs>
</svg>
