<svg width="104" height="104" viewBox="0 0 104 104" fill="none" xmlns="http://www.w3.org/2000/svg">
<g id="Audio Visual Solutions" clip-path="url(#clip0_76_687)">
<g id="Group">
<g id="Group_2">
<g id="Clip path group">
<mask id="mask0_76_687" style="mask-type:luminance" maskUnits="userSpaceOnUse" x="36" y="10" width="32" height="30">
<g id="SVGID_2_">
<path id="Vector" d="M36.0103 26.0776C36.0103 31.5721 38.8279 36.6439 43.4771 39.4615C43.7588 39.6024 44.0406 39.7433 44.4632 39.7433C45.0268 39.7433 45.5903 39.4615 46.013 38.898C46.5765 38.0527 46.2947 37.0665 45.4494 36.503C41.7865 34.2489 39.5323 30.3041 39.5323 26.0776C39.5323 19.3152 45.1677 13.6799 52.0709 13.6799C58.9742 13.6799 64.6095 19.1743 64.6095 26.0776C64.6095 30.3041 62.3554 34.2489 58.6925 36.503C57.8472 37.0665 57.5654 38.0527 58.1289 38.898C58.6925 39.7433 59.6786 40.0251 60.5239 39.4615C65.1731 36.503 67.9907 31.5721 67.9907 26.0776C67.9907 17.3429 60.8057 10.2987 51.9301 10.2987C43.1953 10.2987 36.0103 17.3429 36.0103 26.0776Z" fill="white"/>
</g>
</mask>
<g mask="url(#mask0_76_687)">
<path id="Vector_2" d="M82.6421 22.1329L55.1699 55.6631L21.3579 28.05L48.8301 -5.48022L82.6421 22.1329Z" fill="url(#paint0_linear_76_687)"/>
</g>
</g>
</g>
<g id="Group_3">
<g id="Clip path group_2">
<mask id="mask1_76_687" style="mask-type:luminance" maskUnits="userSpaceOnUse" x="42" y="41" width="20" height="13">
<g id="SVGID_5_">
<path id="Vector_3" d="M50.5201 50.3092C48.2659 49.6048 46.5753 47.6324 46.2936 45.3783H57.846C57.5642 47.6324 55.8736 49.7457 53.6195 50.3092C53.056 50.4501 52.6333 50.4501 52.0698 50.4501C51.5062 50.4501 50.9427 50.4501 50.5201 50.3092ZM44.4621 41.8562C43.4759 41.8562 42.7715 42.7015 42.7715 43.5468V44.533C42.7715 48.6186 45.5891 52.4224 49.6748 53.5495C50.5201 53.8313 51.3654 53.8313 52.2107 53.8313C53.056 53.8313 53.9013 53.6904 54.7466 53.5495C58.8322 52.4224 61.6498 48.7595 61.6498 44.533V43.5468C61.6498 42.5606 60.8045 41.8562 59.9592 41.8562H44.4621Z" fill="white"/>
</g>
</mask>
<g mask="url(#mask1_76_687)">
<path id="Vector_4" d="M67.2855 46.6464L53.9016 63.1298L36.7139 49.1823L50.0978 32.699L67.2855 46.6464Z" fill="url(#paint1_linear_76_687)"/>
</g>
</g>
</g>
<g id="Group_4">
<g id="Clip path group_3">
<mask id="mask2_76_687" style="mask-type:luminance" maskUnits="userSpaceOnUse" x="50" y="0" width="4" height="8">
<g id="SVGID_8_">
<path id="Vector_5" d="M52.07 0.0141602C51.0838 0.0141602 50.3794 0.859459 50.3794 1.70476V6.07214C50.3794 7.05832 51.2247 7.76274 52.07 7.76274C53.0562 7.76274 53.7606 6.91744 53.7606 6.07214V1.84564C53.7606 0.859459 52.9153 0.0141602 52.07 0.0141602Z" fill="white"/>
</g>
</mask>
<g mask="url(#mask2_76_687)">
<path id="Vector_6" d="M57.5648 3.11364L52.3522 9.59427L46.4351 4.80424L51.6477 -1.67639L57.5648 3.11364Z" fill="url(#paint2_linear_76_687)"/>
</g>
</g>
</g>
<g id="Group_5">
<g id="Clip path group_4">
<mask id="mask3_76_687" style="mask-type:luminance" maskUnits="userSpaceOnUse" x="37" y="3" width="7" height="8">
<g id="SVGID_11_">
<path id="Vector_7" d="M38.8278 3.53641C37.9825 3.95906 37.7007 5.08612 38.1234 5.93142L40.3775 9.73527C40.6593 10.2988 41.3637 10.5806 41.9272 10.5806C42.209 10.5806 42.4908 10.4397 42.7725 10.2988C43.6178 9.87615 43.8996 8.74908 43.4769 7.90378L41.2228 4.09994C40.941 3.53641 40.2366 3.25464 39.6731 3.25464C39.5322 3.25464 39.1096 3.39552 38.8278 3.53641Z" fill="white"/>
</g>
</mask>
<g mask="url(#mask3_76_687)">
<path id="Vector_8" d="M47.5626 6.21324L41.5046 13.5392L34.1787 7.62207L40.2367 0.296143L47.5626 6.21324Z" fill="url(#paint3_linear_76_687)"/>
</g>
</g>
</g>
<g id="Group_6">
<g id="Clip path group_5">
<mask id="mask4_76_687" style="mask-type:luminance" maskUnits="userSpaceOnUse" x="29" y="12" width="8" height="6">
<g id="SVGID_14_">
<path id="Vector_9" d="M29.2474 12.9753C28.8248 13.8206 29.1065 14.8068 29.9518 15.3703L33.7557 17.4836C34.0374 17.6244 34.3192 17.7653 34.601 17.7653C35.1645 17.7653 35.8689 17.4836 36.1507 16.92C36.5733 16.0747 36.2916 15.0886 35.4463 14.525L31.6424 12.4118C31.3607 12.2709 31.0789 12.13 30.7971 12.13C30.2336 12.13 29.6701 12.4118 29.2474 12.9753Z" fill="white"/>
</g>
</mask>
<g mask="url(#mask4_76_687)">
<path id="Vector_10" d="M39.3912 14.3844L33.4741 21.5694L26.0073 15.5115L31.9244 8.32642L39.3912 14.3844Z" fill="url(#paint4_linear_76_687)"/>
</g>
</g>
</g>
<g id="Group_7">
<g id="Clip path group_6">
<mask id="mask5_76_687" style="mask-type:luminance" maskUnits="userSpaceOnUse" x="25" y="24" width="9" height="4">
<g id="SVGID_17_">
<path id="Vector_11" d="M27.5563 24.2461C26.5701 24.2461 25.8657 25.0914 25.8657 25.9367C25.8657 26.782 26.711 27.6273 27.5563 27.6273H31.9237C32.9099 27.6273 33.6143 26.782 33.6143 25.9367C33.6143 25.0914 32.769 24.2461 31.9237 24.2461H27.5563Z" fill="white"/>
</g>
</mask>
<g mask="url(#mask5_76_687)">
<path id="Vector_12" d="M35.4457 25.6547L30.5148 31.5718L24.0342 26.2182L28.9651 20.3011L35.4457 25.6547Z" fill="url(#paint5_linear_76_687)"/>
</g>
</g>
</g>
<g id="Group_8">
<g id="Clip path group_7">
<mask id="mask6_76_687" style="mask-type:luminance" maskUnits="userSpaceOnUse" x="29" y="34" width="8" height="6">
<g id="SVGID_20_">
<path id="Vector_13" d="M33.7557 34.3897L29.9518 36.5029C29.1065 36.9256 28.8248 38.0526 29.2474 38.8979C29.5292 39.4615 30.2336 39.7432 30.7971 39.7432C31.0789 39.7432 31.3607 39.6024 31.6424 39.4615L35.4463 37.3482C36.2916 36.9256 36.5733 35.7985 36.1507 34.9532C35.8689 34.3897 35.1645 34.1079 34.601 34.1079C34.3192 34.1079 34.0374 34.1079 33.7557 34.3897Z" fill="white"/>
</g>
</mask>
<g mask="url(#mask6_76_687)">
<path id="Vector_14" d="M39.3912 36.3621L33.4741 43.5471L26.0073 37.4891L31.9244 30.3041L39.3912 36.3621Z" fill="url(#paint6_linear_76_687)"/>
</g>
</g>
</g>
<g id="Group_9">
<g id="Clip path group_8">
<mask id="mask7_76_687" style="mask-type:luminance" maskUnits="userSpaceOnUse" x="67" y="34" width="8" height="6">
<g id="SVGID_23_">
<path id="Vector_15" d="M67.848 34.9531C67.4253 35.7984 67.7071 36.7846 68.5524 37.3481L72.3563 39.4613C72.638 39.6022 72.9198 39.7431 73.2015 39.7431C73.7651 39.7431 74.4695 39.4614 74.7513 38.8978C75.1739 38.0525 74.8921 37.0663 74.0468 36.5028L70.243 34.3896C69.9612 34.2487 69.6795 34.1078 69.3977 34.1078C68.8342 34.1078 68.1298 34.3896 67.848 34.9531Z" fill="white"/>
</g>
</mask>
<g mask="url(#mask7_76_687)">
<path id="Vector_16" d="M77.9918 36.3619L72.0747 43.547L64.6079 37.489L70.525 30.304L77.9918 36.3619Z" fill="url(#paint7_linear_76_687)"/>
</g>
</g>
</g>
<g id="Group_10">
<g id="Clip path group_9">
<mask id="mask8_76_687" style="mask-type:luminance" maskUnits="userSpaceOnUse" x="70" y="24" width="9" height="4">
<g id="SVGID_26_">
<path id="Vector_17" d="M72.0749 24.246C71.0887 24.246 70.3843 25.0913 70.3843 25.9366C70.3843 26.7819 71.2296 27.6272 72.0749 27.6272H76.4423C77.4284 27.6272 78.1329 26.7819 78.1329 25.9366C78.1329 25.0913 77.2876 24.246 76.4423 24.246H72.0749Z" fill="white"/>
</g>
</mask>
<g mask="url(#mask8_76_687)">
<path id="Vector_18" d="M79.9648 25.6547L75.0338 31.5718L68.5532 26.2182L73.4841 20.3011L79.9648 25.6547Z" fill="url(#paint8_linear_76_687)"/>
</g>
</g>
</g>
<g id="Group_11">
<g id="Clip path group_10">
<mask id="mask9_76_687" style="mask-type:luminance" maskUnits="userSpaceOnUse" x="67" y="12" width="8" height="6">
<g id="SVGID_29_">
<path id="Vector_19" d="M72.3563 12.4118L68.5524 14.525C67.7071 14.9477 67.4253 16.0747 67.848 16.92C68.1298 17.4836 68.8342 17.7653 69.3977 17.7653C69.6795 17.7653 69.9612 17.6244 70.243 17.4836L74.0468 15.3703C74.8921 14.9477 75.1739 13.8206 74.7513 12.9753C74.4695 12.4118 73.7651 12.13 73.2015 12.13C72.9198 12.13 72.638 12.2709 72.3563 12.4118Z" fill="white"/>
</g>
</mask>
<g mask="url(#mask9_76_687)">
<path id="Vector_20" d="M77.9918 14.3844L72.0747 21.5694L64.6079 15.5115L70.525 8.32642L77.9918 14.3844Z" fill="url(#paint9_linear_76_687)"/>
</g>
</g>
</g>
<g id="Group_12">
<g id="Clip path group_11">
<mask id="mask10_76_687" style="mask-type:luminance" maskUnits="userSpaceOnUse" x="60" y="3" width="7" height="8">
<g id="SVGID_32_">
<path id="Vector_21" d="M62.7769 4.09994L60.5228 7.90378C60.1001 8.74908 60.3819 9.73527 61.2272 10.2988C61.509 10.4397 61.7907 10.5806 62.0725 10.5806C62.636 10.5806 63.3405 10.2988 63.6222 9.73527L65.8764 5.93142C66.299 5.08612 66.0172 4.09994 65.1719 3.53641C64.8902 3.39552 64.6084 3.25464 64.3266 3.25464C63.6222 3.25464 63.0587 3.53641 62.7769 4.09994Z" fill="white"/>
</g>
</mask>
<g mask="url(#mask10_76_687)">
<path id="Vector_22" d="M69.8214 6.21324L63.7634 13.5392L56.4375 7.62207L62.4955 0.296143L69.8214 6.21324Z" fill="url(#paint10_linear_76_687)"/>
</g>
</g>
</g>
<g id="Group_13">
<g id="Clip path group_12">
<mask id="mask11_76_687" style="mask-type:luminance" maskUnits="userSpaceOnUse" x="45" y="22" width="14" height="23">
<g id="SVGID_35_">
<path id="Vector_23" d="M48.2667 22.6964C47.2806 22.6964 46.2944 23.2599 45.8717 24.2461C45.4491 25.2323 45.59 26.2185 46.1535 27.0638L50.2391 32.1356V42.8427C50.2391 43.8289 51.0844 44.5333 51.9297 44.5333C52.9159 44.5333 53.6203 43.688 53.6203 42.8427V31.5721C53.6203 31.1494 53.4794 30.8676 53.1977 30.445L49.8165 26.2185H54.6065C54.6065 26.6411 54.8883 27.0638 55.3109 27.3456C56.0153 27.9091 57.1424 27.7682 57.8468 27.0638C58.5512 26.2185 58.5512 25.2323 58.1286 24.2461C57.7059 23.2599 56.7197 22.6964 55.7335 22.6964H48.2667Z" fill="white"/>
</g>
</mask>
<g mask="url(#mask11_76_687)">
<path id="Vector_24" d="M69.3992 31.4312L53.3385 51.1549L34.6011 35.7986L50.6618 16.2158L69.3992 31.4312Z" fill="url(#paint11_linear_76_687)"/>
</g>
</g>
</g>
<g id="Group_14">
<g id="Clip path group_13">
<mask id="mask12_76_687" style="mask-type:luminance" maskUnits="userSpaceOnUse" x="29" y="79" width="46" height="25">
<g id="SVGID_38_">
<path id="Vector_25" d="M33.1926 99.6183C32.77 99.0548 32.4882 98.3504 32.6291 97.646L33.0517 95.1101C34.1788 88.2068 40.2368 83.135 47.4218 83.135H56.5792C63.7643 83.135 69.8222 88.2068 70.9493 95.1101L71.372 97.646C71.5128 98.3504 71.2311 99.0548 70.8084 99.6183C70.3858 100.182 69.6814 100.464 68.9769 100.464H35.0241C34.3197 100.464 33.6153 100.182 33.1926 99.6183ZM47.4218 79.7538C38.5462 79.7538 31.0794 85.9527 29.5296 94.6874L29.107 97.2233C28.8252 98.9139 29.2479 100.605 30.3749 101.872C31.502 103.14 33.1926 103.986 34.8832 103.986H68.9769C70.6675 103.986 72.3581 103.281 73.4852 101.872C74.6123 100.605 75.0349 98.9139 74.7531 97.2233L74.4714 94.5465C73.0626 85.9527 65.4549 79.6129 56.5792 79.6129H47.4218V79.7538Z" fill="white"/>
</g>
</mask>
<g mask="url(#mask12_76_687)">
<path id="Vector_26" d="M87.0097 89.3338L56.7198 126.527L16.9907 94.2647L47.4215 57.0715L87.0097 89.3338Z" fill="url(#paint12_linear_76_687)"/>
</g>
</g>
</g>
<g id="Group_15">
<g id="Clip path group_14">
<mask id="mask13_76_687" style="mask-type:luminance" maskUnits="userSpaceOnUse" x="40" y="60" width="24" height="24">
<g id="SVGID_41_">
<path id="Vector_27" d="M44.1808 72.0053C44.1808 67.7788 47.7029 64.3976 51.9293 64.3976C56.1558 64.3976 59.6779 67.7788 59.6779 72.0053C59.6779 76.2318 56.1558 79.613 51.9293 79.613C47.7029 79.7538 44.1808 76.2318 44.1808 72.0053ZM40.6587 72.0053C40.6587 78.2041 45.7305 83.135 51.9293 83.135C58.1282 83.135 63.2 78.2041 63.2 72.0053C63.2 65.8064 58.1282 60.8755 51.9293 60.8755C45.7305 60.8755 40.6587 65.9473 40.6587 72.0053Z" fill="white"/>
</g>
</mask>
<g mask="url(#mask13_76_687)">
<path id="Vector_28" d="M74.1888 69.7509L54.3242 94.2646L29.8105 74.2591L49.6751 49.8864L74.1888 69.7509Z" fill="url(#paint13_linear_76_687)"/>
</g>
</g>
</g>
<g id="Group_16">
<g id="Clip path group_15">
<mask id="mask14_76_687" style="mask-type:luminance" maskUnits="userSpaceOnUse" x="0" y="74" width="37" height="25">
<g id="SVGID_44_">
<path id="Vector_29" d="M18.3993 74.6818C9.52371 74.6818 2.05689 81.0215 0.507179 89.6154L0.08453 92.1513C-0.197236 93.8419 0.225413 95.5325 1.35248 96.8004C2.47954 98.0684 4.17014 98.9137 5.86074 98.9137H24.0347C25.0209 98.9137 25.7253 98.0684 25.7253 97.2231C25.7253 96.2369 24.88 95.5325 24.0347 95.5325H5.86074C5.15632 95.5325 4.45191 95.2507 4.02926 94.6872C3.60661 94.1236 3.32484 93.4192 3.46573 92.8557L3.88838 90.3198C5.01544 83.4165 11.0734 78.3447 18.2585 78.3447H27.4159C29.5291 78.3447 31.6424 78.7674 33.6147 79.7536C34.46 80.1762 35.5871 79.7536 36.0097 78.9083C36.4324 78.063 36.0098 76.9359 35.1645 76.6541C32.7694 75.5271 30.0927 74.9635 27.4159 74.9635H18.3993V74.6818Z" fill="white"/>
</g>
</mask>
<g mask="url(#mask14_76_687)">
<path id="Vector_30" d="M48.4067 84.262L21.7797 116.806L-12.0322 89.1929L14.4538 56.6489L48.4067 84.262Z" fill="url(#paint14_linear_76_687)"/>
</g>
</g>
</g>
<g id="Group_17">
<g id="Clip path group_16">
<mask id="mask15_76_687" style="mask-type:luminance" maskUnits="userSpaceOnUse" x="11" y="55" width="24" height="24">
<g id="SVGID_47_">
<path id="Vector_31" d="M15.1583 66.9335C15.1583 62.707 18.6804 59.3258 22.9069 59.3258C27.1334 59.3258 30.6555 62.707 30.6555 66.9335C30.6555 71.16 27.1334 74.5412 22.9069 74.5412C18.6804 74.5412 15.1583 71.16 15.1583 66.9335ZM11.6362 66.9335C11.6362 73.1323 16.708 78.0633 22.9069 78.0633C29.1057 78.0633 34.1775 73.1323 34.1775 66.9335C34.1775 60.7346 29.1057 55.8037 22.9069 55.8037C16.708 55.8037 11.6362 60.8755 11.6362 66.9335Z" fill="white"/>
</g>
</mask>
<g mask="url(#mask15_76_687)">
<path id="Vector_32" d="M45.1663 64.82L25.1609 89.1928L0.788086 69.1874L20.6526 44.8146L45.1663 64.82Z" fill="url(#paint15_linear_76_687)"/>
</g>
</g>
</g>
<g id="Group_18">
<g id="Clip path group_17">
<mask id="mask16_76_687" style="mask-type:luminance" maskUnits="userSpaceOnUse" x="67" y="74" width="37" height="25">
<g id="SVGID_50_">
<path id="Vector_33" d="M76.4433 74.6818C73.7665 74.6818 71.0897 75.2453 68.6947 76.3724C67.8494 76.795 67.4268 77.7812 67.8494 78.6265C68.2721 79.4718 69.2582 79.8944 70.2444 79.4718C72.2168 78.6265 74.33 78.063 76.4433 78.063H85.6007C92.7857 78.063 98.8437 83.1348 99.9708 90.038L100.393 92.5739C100.534 93.2783 100.253 93.9828 99.8299 94.4054C99.4072 94.9689 98.7028 95.2507 97.9984 95.2507H79.9654C78.9792 95.2507 78.2748 96.096 78.2748 96.9413C78.2748 97.9275 79.1201 98.6319 79.9654 98.6319H98.1393C99.8299 98.6319 101.52 97.9275 102.648 96.5187C103.775 95.2507 104.197 93.5601 103.916 91.8695L103.493 89.6154C102.084 81.0215 94.4763 74.6818 85.6007 74.6818H76.4433Z" fill="white"/>
</g>
</mask>
<g mask="url(#mask16_76_687)">
<path id="Vector_34" d="M116.031 84.262L89.5449 116.806L55.7329 89.1929L82.219 56.6489L116.031 84.262Z" fill="url(#paint16_linear_76_687)"/>
</g>
</g>
</g>
<g id="Group_19">
<g id="Clip path group_18">
<mask id="mask17_76_687" style="mask-type:luminance" maskUnits="userSpaceOnUse" x="69" y="55" width="24" height="24">
<g id="SVGID_53_">
<path id="Vector_35" d="M73.3439 66.9335C73.3439 62.707 76.8659 59.3258 81.0924 59.3258C85.3189 59.3258 88.841 62.707 88.841 66.9335C88.841 71.16 85.3189 74.5412 81.0924 74.5412C76.8659 74.5412 73.3439 71.16 73.3439 66.9335ZM69.8218 66.9335C69.8218 73.1323 74.8936 78.0633 81.0924 78.0633C87.2913 78.0633 92.3631 73.1323 92.3631 66.9335C92.3631 60.7346 87.2913 55.8037 81.0924 55.8037C74.8936 55.8037 69.8218 60.8755 69.8218 66.9335Z" fill="white"/>
</g>
</mask>
<g mask="url(#mask17_76_687)">
<path id="Vector_36" d="M103.211 64.82L83.3467 89.1928L58.833 69.1874L78.8384 44.8146L103.211 64.82Z" fill="url(#paint17_linear_76_687)"/>
</g>
</g>
</g>
</g>
</g>
<defs>
<linearGradient id="paint0_linear_76_687" x1="79.641" y1="-8.58048" x2="3.70019" y2="84.5322" gradientUnits="userSpaceOnUse">
<stop stop-color="white"/>
<stop offset="1" stop-color="#231F20"/>
</linearGradient>
<linearGradient id="paint1_linear_76_687" x1="90.8584" y1="0.52128" x2="14.9175" y2="93.634" gradientUnits="userSpaceOnUse">
<stop stop-color="white"/>
<stop offset="1" stop-color="#231F20"/>
</linearGradient>
<linearGradient id="paint2_linear_76_687" x1="69.331" y1="-17.0361" x2="-6.60989" y2="76.0766" gradientUnits="userSpaceOnUse">
<stop stop-color="white"/>
<stop offset="1" stop-color="#231F20"/>
</linearGradient>
<linearGradient id="paint3_linear_76_687" x1="63.8377" y1="-21.2309" x2="-12.1031" y2="71.8817" gradientUnits="userSpaceOnUse">
<stop stop-color="white"/>
<stop offset="1" stop-color="#231F20"/>
</linearGradient>
<linearGradient id="paint4_linear_76_687" x1="62.8785" y1="-22.0132" x2="-13.0624" y2="71.0995" gradientUnits="userSpaceOnUse">
<stop stop-color="white"/>
<stop offset="1" stop-color="#231F20"/>
</linearGradient>
<linearGradient id="paint5_linear_76_687" x1="66.714" y1="-19.1703" x2="-9.2268" y2="73.9424" gradientUnits="userSpaceOnUse">
<stop stop-color="white"/>
<stop offset="1" stop-color="#231F20"/>
</linearGradient>
<linearGradient id="paint6_linear_76_687" x1="73.6423" y1="-13.2346" x2="-2.29852" y2="79.8781" gradientUnits="userSpaceOnUse">
<stop stop-color="white"/>
<stop offset="1" stop-color="#231F20"/>
</linearGradient>
<linearGradient id="paint7_linear_76_687" x1="96.8073" y1="5.6594" x2="20.8665" y2="98.7721" gradientUnits="userSpaceOnUse">
<stop stop-color="white"/>
<stop offset="1" stop-color="#231F20"/>
</linearGradient>
<linearGradient id="paint8_linear_76_687" x1="93.456" y1="2.63992" x2="17.5151" y2="95.7526" gradientUnits="userSpaceOnUse">
<stop stop-color="white"/>
<stop offset="1" stop-color="#231F20"/>
</linearGradient>
<linearGradient id="paint9_linear_76_687" x1="86.0435" y1="-3.11912" x2="10.1027" y2="89.9936" gradientUnits="userSpaceOnUse">
<stop stop-color="white"/>
<stop offset="1" stop-color="#231F20"/>
</linearGradient>
<linearGradient id="paint10_linear_76_687" x1="77.2079" y1="-10.3258" x2="1.2671" y2="82.7868" gradientUnits="userSpaceOnUse">
<stop stop-color="white"/>
<stop offset="1" stop-color="#231F20"/>
</linearGradient>
<linearGradient id="paint11_linear_76_687" x1="83.816" y1="-5.21547" x2="7.87515" y2="87.8972" gradientUnits="userSpaceOnUse">
<stop stop-color="white"/>
<stop offset="1" stop-color="#231F20"/>
</linearGradient>
<linearGradient id="paint12_linear_76_687" x1="112.305" y1="18.0592" x2="36.3643" y2="111.172" gradientUnits="userSpaceOnUse">
<stop stop-color="white"/>
<stop offset="1" stop-color="#231F20"/>
</linearGradient>
<linearGradient id="paint13_linear_76_687" x1="102.674" y1="10.1578" x2="26.7335" y2="103.27" gradientUnits="userSpaceOnUse">
<stop stop-color="white"/>
<stop offset="1" stop-color="#231F20"/>
</linearGradient>
<linearGradient id="paint14_linear_76_687" x1="89.5135" y1="-0.568271" x2="13.5727" y2="92.5444" gradientUnits="userSpaceOnUse">
<stop stop-color="white"/>
<stop offset="1" stop-color="#231F20"/>
</linearGradient>
<linearGradient id="paint15_linear_76_687" x1="82.729" y1="-6.1087" x2="6.78821" y2="87.004" gradientUnits="userSpaceOnUse">
<stop stop-color="white"/>
<stop offset="1" stop-color="#231F20"/>
</linearGradient>
<linearGradient id="paint16_linear_76_687" x1="130.167" y1="32.5875" x2="54.226" y2="125.7" gradientUnits="userSpaceOnUse">
<stop stop-color="white"/>
<stop offset="1" stop-color="#231F20"/>
</linearGradient>
<linearGradient id="paint17_linear_76_687" x1="117.657" y1="22.3767" x2="41.7158" y2="115.489" gradientUnits="userSpaceOnUse">
<stop stop-color="white"/>
<stop offset="1" stop-color="#231F20"/>
</linearGradient>
<clipPath id="clip0_76_687">
<rect width="104" height="104" fill="white"/>
</clipPath>
</defs>
</svg>
