<svg width="104" height="105" viewBox="0 0 104 105" fill="none" xmlns="http://www.w3.org/2000/svg">
<mask id="mask0_749_41070" style="mask-type:luminance" maskUnits="userSpaceOnUse" x="40" y="34" width="40" height="30">
<path d="M56.5916 34.3945C53.6109 34.3945 50.9878 36.6599 50.6301 39.6406C50.6301 39.879 50.6301 40.1175 50.6301 40.2367V45.7212L50.5109 45.8404C50.5109 45.8404 50.3917 45.8404 50.3917 45.9597C50.034 46.0789 49.5571 45.602 49.5571 45.602C49.5571 45.602 49.5571 45.4828 49.4379 45.4828C48.484 44.5289 47.1725 43.9328 45.861 43.9328C45.3841 43.9328 44.9072 44.052 44.4303 44.1712H44.3111C44.1918 44.1712 44.0726 44.2905 43.9534 44.2905C43.8341 44.2905 43.7149 44.4097 43.7149 44.4097C42.0457 45.2443 40.9727 47.0327 40.9727 48.9404C40.9727 50.9673 42.1649 52.7557 43.9534 53.5903C44.0726 53.5903 44.311 53.7095 44.4303 53.8287C44.9072 53.948 45.3841 54.0672 45.861 54.0672C47.2918 54.0672 48.484 53.4711 49.4379 52.5172C49.4379 52.5172 49.4379 52.5172 49.5571 52.398C49.5571 52.398 49.5571 52.398 49.6763 52.2788C49.7956 52.1595 50.1532 51.9211 50.3917 51.9211H50.5109C50.5109 51.9211 50.6301 52.0403 50.7494 52.0403V57.5248C50.7494 57.7633 50.7494 58.0017 50.7494 58.2402C51.1071 61.2209 53.6109 63.6055 56.7108 63.6055H62.6722C62.9107 63.6055 63.1491 63.4862 63.3876 63.367C64.4606 62.5324 64.6991 61.5786 64.8183 60.9824C64.9375 59.7902 64.1029 58.8363 63.7453 58.3594C63.626 58.2402 63.626 58.2402 63.5068 58.2402C62.9107 57.644 62.6722 56.8094 62.6722 55.9748C62.7914 54.7826 63.8645 53.7095 65.0568 53.5903C65.4145 53.5903 65.7721 53.5903 66.1298 53.7095H66.2491C66.3683 53.7095 66.3683 53.8287 66.4875 53.8287C66.4875 53.8287 66.6067 53.8287 66.6067 53.948C67.4413 54.4249 68.0375 55.2595 68.0375 56.3325C68.0375 57.0479 67.799 57.7633 67.2029 58.2402C67.2029 58.2402 67.0837 58.3594 66.9644 58.4786C66.9644 58.4786 66.9644 58.4786 66.8452 58.5979C66.1298 59.4325 65.7721 60.2671 65.7721 61.1017C65.7721 61.6978 66.1298 62.5324 67.0836 63.367C67.3221 63.4862 67.5606 63.6055 67.799 63.6055H73.6412C76.9796 63.6055 79.6026 60.8632 79.6026 57.644C79.6026 57.0479 79.1257 56.4518 78.4103 56.4518C77.8142 56.4518 77.2181 56.9287 77.2181 57.644C77.2181 59.6709 75.5489 61.3401 73.522 61.3401H68.0375C67.9183 61.2209 67.9182 61.1017 67.799 60.9824C67.799 60.744 67.9182 60.5055 68.1567 60.2671C68.2759 60.2671 68.2759 60.1478 68.2759 60.1478C68.2759 60.1478 68.3952 60.1478 68.3952 60.0286C69.349 59.0748 69.9451 57.7633 69.9451 56.4518C69.9451 54.5441 68.8721 52.8749 67.3221 52.0403C67.2029 51.9211 66.9644 51.9211 66.8452 51.8019C66.726 51.8019 66.6067 51.6826 66.4875 51.6826C65.8914 51.4442 65.176 51.4442 64.4606 51.4442C62.0761 51.6826 60.1684 53.5903 59.93 55.8556C59.8107 57.4056 60.2876 58.9556 61.4799 60.0286C61.4799 60.0286 61.4799 60.0286 61.5991 60.1478C61.8376 60.3863 62.0761 60.744 62.0761 60.9824C62.0761 61.1017 61.9568 61.2209 61.8376 61.3401H56.3531C54.4455 61.3401 52.8955 59.9094 52.7763 58.121C52.7763 58.0017 52.7763 57.8825 52.7763 57.7633V51.8019C52.7763 51.5634 52.657 51.3249 52.5378 51.0865C52.1801 50.6096 51.8224 50.2519 51.4647 50.1327C51.3455 50.0134 51.2263 50.0134 51.1071 49.8942C51.1071 49.8942 51.1071 49.8942 50.9878 49.8942C49.9148 49.5365 48.7225 49.8942 47.8879 50.848C47.7687 50.9673 47.7687 51.0865 47.6494 51.0865C46.9341 51.8019 45.9802 52.0403 44.9072 51.8019C44.9072 51.8019 44.788 51.8019 44.788 51.6826C43.8341 51.2057 43.1188 50.2519 43.1188 49.1788C43.1188 48.1058 43.7149 47.152 44.6687 46.7943C44.6687 46.7943 44.6687 46.7943 44.788 46.7943C44.788 46.7943 44.788 46.7943 44.9072 46.7943C45.0264 46.7943 45.0264 46.7943 45.1456 46.675C46.0995 46.4366 47.1725 46.675 47.8879 47.3904C47.8879 47.5096 48.0071 47.5096 48.1264 47.6289C49.0802 48.5827 50.3917 48.9404 51.4647 48.4635C51.4647 48.4635 51.584 48.3442 51.7032 48.3442C51.8224 48.3442 51.9417 48.225 52.0609 48.1058C52.2993 47.8673 52.5378 47.6289 52.8955 47.2712C53.0147 47.0327 53.1339 46.7943 53.1339 46.5558V40.5944C53.1339 40.4752 53.1339 40.3559 53.1339 40.1175C53.3724 38.3291 54.9224 36.8983 56.7108 36.8983H73.8797C75.9065 36.8983 77.5757 38.5675 77.5757 40.5944C77.5757 41.1905 78.0527 41.7867 78.768 41.7867C79.3642 41.7867 79.9603 41.3098 79.9603 40.5944C79.9603 37.256 77.3373 34.633 73.9989 34.633H56.5916V34.3945Z" fill="white"/>
</mask>
<g mask="url(#mask0_749_41070)">
<path d="M93.9108 52.9943L54.9231 82.4437L26.666 45.006L65.5344 15.5566L93.9108 52.9943Z" fill="#35C5E8"/>
</g>
<mask id="mask1_749_41070" style="mask-type:luminance" maskUnits="userSpaceOnUse" x="23" y="24" width="30" height="40">
<path d="M33.3411 29.5057C33.3411 30.9365 33.9372 32.1287 34.8911 33.0826C34.8911 33.0826 34.8911 33.0826 35.0103 33.2018C35.2487 33.4403 35.368 33.6787 35.368 33.9172C35.368 34.0364 35.2487 34.1556 35.1295 34.2749H29.645C26.3066 34.2749 23.6836 37.0171 23.6836 40.2363C23.6836 40.8324 24.1605 41.4285 24.8759 41.4285C25.472 41.4285 26.0682 40.9516 26.0682 40.2363C26.0682 38.2094 27.7374 36.5402 29.7642 36.5402H35.7257C35.9641 36.5402 36.2026 36.421 36.441 36.3017C37.5141 35.4671 37.7525 34.5133 37.8718 33.9172C37.991 32.7249 37.1564 31.7711 36.7987 31.4134C36.6795 31.2941 36.5603 31.1749 36.5603 31.1749C36.0833 30.698 35.7257 29.9826 35.7257 29.2673C35.7257 27.8365 36.9179 26.6442 38.4679 26.6442C39.8986 26.6442 41.2101 27.8365 41.2101 29.2673C41.2101 29.9826 40.9717 30.698 40.3756 31.1749C40.3756 31.1749 40.2563 31.2941 40.1371 31.4134C39.4217 32.1287 39.064 33.0826 39.064 33.9172C39.064 34.5133 39.4217 35.3479 40.4948 36.1825C40.7332 36.3017 40.9717 36.421 41.2101 36.421H47.1716C48.96 36.421 50.51 37.8517 50.7484 39.6401C50.7484 39.7594 50.7484 39.8786 50.7484 40.117V45.6015C50.6292 45.7208 50.6292 45.7208 50.51 45.7208H50.3907C50.033 45.84 49.6754 45.3631 49.5561 45.3631C49.4369 45.2439 49.4369 45.2439 49.4369 45.2439C48.3638 44.1708 46.8139 43.5747 45.2639 43.6939C44.9062 43.6939 44.5485 43.8131 44.3101 43.9323C44.1909 43.9323 43.9524 44.0516 43.8332 44.1708C43.7139 44.1708 43.7139 44.29 43.5947 44.29C42.0447 45.1246 41.0909 46.5554 40.8525 48.2246C40.7332 48.9399 40.8525 49.6553 41.0909 50.3707C41.0909 50.4899 41.0909 50.4899 41.2101 50.6091C41.2101 50.6091 41.2101 50.6091 41.2101 50.7284C41.2101 50.8476 41.3294 50.9668 41.4486 51.2053C41.9255 52.1591 42.7601 52.9937 43.8332 53.4706C43.9524 53.4706 44.0716 53.5898 44.3101 53.7091C44.787 53.8283 45.3831 53.9475 45.8601 53.9475C47.2908 53.9475 48.4831 53.3514 49.4369 52.3975C49.4369 52.3975 49.4369 52.3975 49.5561 52.2783C49.5561 52.2783 49.5561 52.1591 49.6754 52.1591C49.7946 52.0399 50.1523 51.8014 50.3907 51.8014C50.3907 51.8014 50.3907 51.8014 50.51 51.8014C50.6292 51.8014 50.6292 51.9206 50.7484 51.9206V57.2859C50.7484 57.5244 50.7484 57.6436 50.7484 57.7628C50.51 59.5512 48.96 60.982 47.1716 60.982H29.7642C27.7374 60.982 26.0682 59.3128 26.0682 57.2859C26.0682 56.6898 25.5912 56.0936 24.8759 56.0936C24.2797 56.0936 23.6836 56.5705 23.6836 57.2859C23.6836 60.6243 26.4258 63.2473 29.645 63.2473H46.9331C49.9138 63.2473 52.5368 60.982 52.8945 58.1205C52.8945 57.882 52.8945 57.6436 52.8945 57.2859V51.4437C52.8945 51.2053 52.7753 50.9668 52.6561 50.7284C52.1792 50.1322 51.7022 49.7745 51.1061 49.5361C51.1061 49.5361 51.1061 49.5361 50.9869 49.5361H50.8676C49.9138 49.2976 48.8408 49.6553 47.8869 50.4899C47.7677 50.6091 47.6485 50.7284 47.6485 50.7284C47.1716 51.2053 46.4562 51.563 45.7408 51.563C45.5024 51.563 45.1447 51.563 44.9062 51.4437H44.787C44.787 51.4437 44.6678 51.4437 44.6678 51.3245C44.0716 51.086 43.7139 50.6091 43.3563 50.1322C43.3563 50.1322 43.3563 50.013 43.237 50.013C43.237 49.8938 43.237 49.8938 43.1178 49.7745V49.6553C42.9986 49.2976 42.9986 48.9399 42.9986 48.5822C43.1178 47.6284 43.5947 46.913 44.4293 46.4361C44.4293 46.4361 44.5485 46.4361 44.5485 46.3169C44.5485 46.3169 44.5485 46.3169 44.6678 46.3169H44.787C44.9062 46.1977 45.1447 46.1977 45.2639 46.1977C46.0985 46.0784 46.9331 46.4361 47.5292 47.0323C47.5292 47.0323 47.5292 47.0323 47.6485 47.1515C48.6023 48.2246 49.9138 48.5822 51.1061 48.1053C51.2253 48.1053 51.2253 47.9861 51.3446 47.9861C51.8215 47.7476 52.1792 47.39 52.5368 46.9131C52.6561 46.6746 52.7753 46.4361 52.7753 46.1977V40.2363C52.7753 39.9978 52.7753 39.6401 52.7753 39.5209C52.4176 36.5402 49.7946 34.2749 46.8139 34.2749H41.3294C41.2102 34.1556 41.0909 34.0364 41.0909 33.9172C41.0909 33.6787 41.2102 33.4403 41.4486 33.2018C41.5678 33.0826 41.5678 33.0826 41.5678 33.0826C41.5678 33.0826 41.6871 33.0826 41.6871 32.9633C42.6409 32.0095 43.237 30.698 43.237 29.3865C43.237 26.6442 40.9717 24.3789 38.2294 24.3789C35.6064 24.4981 33.3411 26.7635 33.3411 29.5057Z" fill="white"/>
</mask>
<g mask="url(#mask1_749_41070)">
<path d="M71.8519 49.2981L34.4142 77.6744L4.96484 38.6868L42.4025 10.4297L71.8519 49.2981Z" fill="#35C5E8"/>
</g>
<mask id="mask2_749_41070" style="mask-type:luminance" maskUnits="userSpaceOnUse" x="4" y="19" width="16" height="15">
<path d="M7.23027 26.4058C7.23027 23.6636 9.49561 21.3982 12.2379 21.3982C14.9801 21.3982 17.2454 23.6636 17.2454 26.4058C17.2454 29.1481 14.9801 31.4134 12.2379 31.4134C9.49561 31.4134 7.23027 29.1481 7.23027 26.4058ZM4.8457 26.4058C4.8457 30.4596 8.1841 33.798 12.2379 33.798C16.2916 33.798 19.63 30.4596 19.63 26.4058C19.63 22.3521 16.2916 19.0137 12.2379 19.0137C8.1841 19.1329 4.8457 22.3521 4.8457 26.4058Z" fill="white"/>
</mask>
<g mask="url(#mask2_749_41070)">
<path d="M26.6657 28.432L10.2122 40.8318L-2.1875 24.3783L14.266 11.9785L26.6657 28.432Z" fill="#35C5E8"/>
</g>
<mask id="mask3_749_41070" style="mask-type:luminance" maskUnits="userSpaceOnUse" x="0" y="34" width="35" height="53">
<path d="M3.29525 84.1126L3.17602 83.9934C2.57988 83.7549 2.46065 83.3973 2.46065 83.278C2.34142 82.9203 2.46065 82.205 2.81834 81.4896L7.58747 71.9513C7.94515 71.236 8.18361 70.5206 8.18361 69.8052L8.42206 66.2284C8.54129 64.6784 8.54129 63.0092 8.42206 60.9823C8.42206 60.7439 8.42206 60.6247 8.42206 60.267V40.2366C8.42206 38.329 9.97203 36.8982 11.7605 36.8982H11.8797C12.9527 36.8982 13.9066 37.3751 14.5027 38.2097L14.7412 38.5674C16.1719 40.4751 17.7219 42.3827 19.5103 44.0519L21.5372 46.0788C21.7756 46.3173 22.0141 46.4365 22.3718 46.4365H31.0754C31.91 46.4365 32.5062 47.0326 32.5062 47.8672C32.5062 48.7018 31.91 49.298 31.0754 49.298H20.7026L17.245 45.8404C16.8873 45.4827 16.4104 45.3634 15.9334 45.6019C15.4565 45.8404 15.2181 46.198 15.2181 46.675V56.8094C15.2181 57.2863 15.0988 57.644 14.9796 58.0016C14.8604 58.3593 14.8604 58.717 15.0989 59.0747L21.4179 70.1629C21.5372 70.5206 21.5372 70.8783 21.5372 71.236L17.9603 82.3242C17.3642 83.7549 16.5296 84.7088 15.9334 84.7088C15.8142 84.7088 15.695 84.7088 15.695 84.7088C15.695 84.7088 15.695 84.7088 15.5758 84.5895C14.7412 84.2319 14.6219 84.1126 15.3373 81.9665L18.5565 72.6667C18.5565 72.5475 18.5565 72.4283 18.6757 72.4283C18.7949 71.7129 18.6757 70.8783 18.4372 70.1629C18.4372 70.0437 18.318 69.9245 18.318 69.9245L14.3835 63.8438C14.145 63.3669 13.6681 63.1285 13.072 63.1285C12.2374 63.1285 11.6412 63.7246 11.522 64.5592L10.9259 71.3552C10.9259 71.8321 10.8066 72.1898 10.5682 72.6667L5.56059 83.0396C5.2029 83.6357 4.60676 84.7088 3.77216 84.7088C3.53371 84.2319 3.29525 84.1126 3.29525 84.1126ZM11.7605 34.5137C8.66052 34.5137 6.0375 37.1367 6.0375 40.2366V60.267C6.0375 60.6247 6.0375 60.8631 6.0375 61.1016C6.15673 63.0092 6.15673 64.6784 6.0375 66.1092L5.79904 69.686C5.79904 70.1629 5.67981 70.5206 5.44136 70.9975L0.672228 80.5358C-0.0431419 81.9665 -0.16237 83.1588 0.195315 84.1126C0.553 84.9472 1.14914 85.6626 2.10297 86.1395C2.34142 86.2587 2.93757 86.6164 3.77216 86.6164C4.84522 86.6164 6.39519 86.1395 7.7067 83.6357L12.7143 73.2629C13.072 72.5475 13.1912 71.9513 13.3104 71.236L13.6681 66.8245L16.2911 70.7591C16.4104 71.1167 16.4104 71.4744 16.4104 71.8321L13.3104 80.655C13.3104 80.655 13.3104 80.655 13.3104 80.7742L13.1912 81.1319C12.5951 83.1588 11.9989 85.1857 14.6219 86.4972C14.8604 86.6164 15.3373 86.8549 16.0527 86.8549C17.245 86.8549 18.9142 86.1395 20.2257 83.0396V82.9203L23.8025 71.7129C23.8025 71.5937 23.8025 71.5937 23.8025 71.4744C23.9217 70.7591 23.8025 70.0437 23.5641 69.3283C23.5641 69.2091 23.5641 69.2091 23.4448 69.0899L17.3642 58.1209C17.4834 57.644 17.6026 57.0478 17.6026 56.5709V49.298L19.3911 51.0864C19.6295 51.3249 19.868 51.4441 20.2257 51.4441H31.0754C33.1023 51.4441 34.7715 49.7749 34.7715 47.748C34.7715 45.7211 33.1023 44.0519 31.0754 44.0519H22.8487L21.1795 42.3827C19.5103 40.7135 18.0796 38.9251 16.5296 37.0175L16.2911 36.6598C15.2181 35.229 13.5489 34.5137 11.7605 34.5137Z" fill="white"/>
</mask>
<g mask="url(#mask3_749_41070)">
<path d="M59.9279 67.779L12.5943 103.547L-25.3203 53.4716L22.0133 17.7031L59.9279 67.779Z" fill="#35C5E8"/>
</g>
<mask id="mask4_749_41070" style="mask-type:luminance" maskUnits="userSpaceOnUse" x="84" y="19" width="16" height="15">
<path d="M86.5153 26.4058C86.5153 23.6636 88.7807 21.3982 91.5229 21.3982C94.2652 21.3982 96.5305 23.6636 96.5305 26.4058C96.5305 29.1481 94.2652 31.4134 91.5229 31.4134C88.7807 31.4134 86.5153 29.1481 86.5153 26.4058ZM84.25 26.4058C84.25 30.4596 87.5884 33.798 91.6421 33.798C95.6959 33.798 99.0343 30.4596 99.0343 26.4058C99.0343 22.3521 95.6959 19.0137 91.6421 19.0137C87.4692 19.1329 84.25 22.3521 84.25 26.4058Z" fill="white"/>
</mask>
<g mask="url(#mask4_749_41070)">
<path d="M105.949 28.432L89.4954 40.8318L77.0957 24.3783L93.5492 11.9785L105.949 28.432Z" fill="#35C5E8"/>
</g>
<mask id="mask5_749_41070" style="mask-type:luminance" maskUnits="userSpaceOnUse" x="68" y="34" width="36" height="53">
<path d="M71.2556 47.748C71.2556 46.9134 71.8517 46.3173 72.6863 46.3173H81.39C81.7477 46.3173 81.9861 46.198 82.2246 45.9596L84.2515 43.9327C86.0399 42.1443 87.4706 40.2366 89.0206 38.4482L89.259 38.0905C89.8552 37.2559 90.809 36.779 91.8821 36.779H92.0013C93.9089 36.779 95.4589 38.329 95.4589 40.1174V60.1477C95.4589 60.3862 95.4589 60.6247 95.4589 60.8631C95.3397 62.89 95.3397 64.5592 95.4589 66.1092L95.6974 69.686C95.8166 70.4014 95.9358 71.1167 96.2935 71.8321L101.063 81.3704C101.42 82.0858 101.54 82.8011 101.42 83.1588C101.42 83.278 101.301 83.5165 100.705 83.8742C100.705 83.8742 100.586 83.8742 100.586 83.9934C100.586 83.9934 100.347 84.1126 100.109 84.1126C99.2742 84.1126 98.6781 83.0396 98.3204 82.4434L93.3128 72.0706C93.0743 71.7129 92.9551 71.236 92.9551 70.7591L92.359 63.9631C92.2397 63.1285 91.6436 62.5323 90.809 62.5323C90.3321 62.5323 89.8552 62.7708 89.4975 63.2477L85.563 69.5668C85.4437 69.686 85.4437 69.8052 85.4437 69.8052C85.2053 70.5206 85.2053 71.236 85.2053 72.0706C85.2053 72.1898 85.2053 72.309 85.3245 72.309L88.5437 81.2512L88.6629 81.6088C89.259 83.7549 89.1398 83.8742 88.4244 84.2319C88.4244 84.2319 88.3052 84.2319 88.3052 84.3511C88.3052 84.3511 88.186 84.3511 88.0668 84.3511C87.4706 84.3511 86.636 83.5165 86.0399 81.9665L82.463 70.8783C82.463 70.5206 82.463 70.1629 82.5823 69.8052L88.9014 58.717C89.0206 58.3593 89.1398 58.0016 89.0206 57.644C88.9014 57.2863 88.7821 56.8094 88.7821 56.4517V46.3173C88.7821 45.8404 88.5437 45.3634 88.0668 45.2442C87.5898 45.0058 87.1129 45.125 86.7552 45.4827L83.2976 48.9403H72.9248C71.9709 49.1787 71.2556 48.4634 71.2556 47.748ZM91.8821 34.5137C90.0936 34.5137 88.5437 35.3483 87.4706 36.6598L87.2322 37.0175C85.8014 38.8059 84.2515 40.7135 82.5823 42.3827L80.9131 44.0519H72.6863C70.6594 44.0519 68.9902 45.7211 68.9902 47.748C68.9902 49.7749 70.6594 51.4441 72.6863 51.4441H83.5361C83.8938 51.4441 84.1322 51.3249 84.3707 51.0864L86.1591 49.298V56.5709C86.1591 57.0478 86.2783 57.644 86.3976 58.1209L80.1977 68.9706C80.1977 69.0899 80.0785 69.0899 80.0785 69.2091C79.84 69.9245 79.7208 70.6398 79.84 71.3552C79.84 71.4744 79.84 71.4744 79.84 71.5937L83.4169 82.8011V82.9203C84.7284 86.1395 86.3976 86.7357 87.5898 86.7357C88.3052 86.7357 88.7821 86.4972 89.0206 86.378C91.6436 85.0665 91.0475 83.0396 90.4513 81.0127L90.6898 80.7742C90.6898 80.7742 90.6898 80.7742 90.6898 80.655L87.5898 71.8321C87.5898 71.4744 87.5898 71.1167 87.7091 70.7591L90.3321 66.8245L90.6898 71.236C90.809 71.9513 90.9282 72.6667 91.2859 73.3821L96.2935 83.7549C97.605 86.1395 99.0358 86.7357 100.228 86.7357C101.063 86.7357 101.659 86.378 101.897 86.2587C102.851 85.7818 103.447 85.1857 103.805 84.2319C104.163 83.1588 104.043 81.9665 103.328 80.655L98.5588 71.1168C98.3204 70.7591 98.2012 70.2822 98.2012 69.9245L97.9627 66.3476C97.8435 64.9169 97.8435 63.2477 97.9627 61.34C97.9627 61.1016 97.9627 60.8631 97.9627 60.5054V40.2366C97.7242 37.0175 95.2205 34.5137 91.8821 34.5137Z" fill="white"/>
</mask>
<g mask="url(#mask5_749_41070)">
<path d="M129.082 67.779L81.6293 103.547L43.834 53.4716L91.1676 17.7031L129.082 67.779Z" fill="#35C5E8"/>
</g>
</svg>
