<svg width="104" height="104" viewBox="0 0 104 104" fill="none" xmlns="http://www.w3.org/2000/svg">
<g id="Branding, Production, and Printing">
<g id="Group">
<g id="Group_2">
<g id="Clip path group">
<mask id="mask0_78_1133" style="mask-type:luminance" maskUnits="userSpaceOnUse" x="40" y="33" width="40" height="30">
<g id="SVGID_2_">
<path id="Vector" d="M56.5906 33.46C53.6099 33.46 50.9869 35.7253 50.6292 38.706C50.6292 38.9445 50.6292 39.1829 50.6292 39.3021V44.7866L50.5099 44.9059C50.5099 44.9059 50.3907 44.9059 50.3907 45.0251C50.033 45.1443 49.5561 44.6674 49.5561 44.6674C49.5561 44.6674 49.5561 44.5482 49.4369 44.5482C48.4831 43.5944 47.1716 42.9982 45.86 42.9982C45.3831 42.9982 44.9062 43.1174 44.4293 43.2367H44.3101C44.1908 43.2367 44.0716 43.3559 43.9524 43.3559C43.8332 43.3559 43.7139 43.4751 43.7139 43.4751C42.0447 44.3097 40.9717 46.0982 40.9717 48.0058C40.9717 50.0327 42.164 51.8211 43.9524 52.6557C44.0716 52.6557 44.3101 52.7749 44.4293 52.8942C44.9062 53.0134 45.3831 53.1326 45.86 53.1326C47.2908 53.1326 48.4831 52.5365 49.4369 51.5827C49.4369 51.5827 49.4369 51.5827 49.5561 51.4634C49.5561 51.4634 49.5561 51.4634 49.6753 51.3442C49.7946 51.225 50.1523 50.9865 50.3907 50.9865H50.5099C50.5099 50.9865 50.6292 51.1057 50.7484 51.1057V56.5902C50.7484 56.8287 50.7484 57.0672 50.7484 57.3056C51.1061 60.2863 53.6099 62.6709 56.7098 62.6709H62.6712C62.9097 62.6709 63.1481 62.5517 63.3866 62.4324C64.4597 61.5978 64.6981 60.644 64.8173 60.0479C64.9366 58.8556 64.102 57.9018 63.7443 57.4248C63.625 57.3056 63.6251 57.3056 63.5058 57.3056C62.9097 56.7095 62.6712 55.8749 62.6712 55.0403C62.7905 53.848 63.8635 52.7749 65.0558 52.6557C65.4135 52.6557 65.7712 52.6557 66.1288 52.7749H66.2481C66.3673 52.7749 66.3673 52.8942 66.4865 52.8942C66.4865 52.8942 66.6058 52.8942 66.6058 53.0134C67.4404 53.4903 68.0365 54.3249 68.0365 55.398C68.0365 56.1133 67.798 56.8287 67.2019 57.3056C67.2019 57.3056 67.0827 57.4248 66.9634 57.5441C66.9634 57.5441 66.9634 57.5441 66.8442 57.6633C66.1288 58.4979 65.7712 59.3325 65.7712 60.1671C65.7712 60.7632 66.1288 61.5978 67.0827 62.4324C67.3211 62.5517 67.5596 62.6709 67.798 62.6709H73.6402C76.9786 62.6709 79.6016 59.9286 79.6016 56.7095C79.6016 56.1133 79.1247 55.5172 78.4094 55.5172C77.8132 55.5172 77.2171 55.9941 77.2171 56.7095C77.2171 58.7364 75.5479 60.4056 73.521 60.4056H68.0365C67.9173 60.2863 67.9173 60.1671 67.798 60.0479C67.798 59.8094 67.9173 59.5709 68.1557 59.3325C68.275 59.3325 68.275 59.2133 68.275 59.2133C68.275 59.2133 68.3942 59.2133 68.3942 59.094C69.348 58.1402 69.9442 56.8287 69.9442 55.5172C69.9442 53.6095 68.8711 51.9403 67.3211 51.1057C67.2019 50.9865 66.9634 50.9865 66.8442 50.8673C66.725 50.8673 66.6058 50.7481 66.4865 50.7481C65.8904 50.5096 65.175 50.5096 64.4597 50.5096C62.0751 50.7481 60.1674 52.6557 59.929 54.921C59.8097 56.471 60.2867 58.021 61.4789 59.094C61.4789 59.094 61.4789 59.094 61.5982 59.2133C61.8366 59.4517 62.0751 59.8094 62.0751 60.0479C62.0751 60.1671 61.9559 60.2863 61.8366 60.4056H56.3521C54.4445 60.4056 52.8945 58.9748 52.7753 57.1864C52.7753 57.0672 52.7753 56.9479 52.7753 56.8287V50.8673C52.7753 50.6288 52.6561 50.3904 52.5368 50.1519C52.1791 49.675 51.8215 49.3173 51.4638 49.1981C51.3445 49.0789 51.2253 49.0789 51.1061 48.9596C51.1061 48.9596 51.1061 48.9596 50.9869 48.9596C49.9138 48.6019 48.7215 48.9596 47.8869 49.9135C47.7677 50.0327 47.7677 50.1519 47.6485 50.1519C46.9331 50.8673 45.9793 51.1057 44.9062 50.8673C44.9062 50.8673 44.787 50.8673 44.787 50.7481C43.8332 50.2711 43.1178 49.3173 43.1178 48.2443C43.1178 47.1712 43.7139 46.2174 44.6678 45.8597C44.6678 45.8597 44.6678 45.8597 44.787 45.8597C44.787 45.8597 44.787 45.8597 44.9062 45.8597C45.0254 45.8597 45.0254 45.8597 45.1447 45.7405C46.0985 45.502 47.1716 45.7405 47.8869 46.4558C47.8869 46.5751 48.0061 46.5751 48.1254 46.6943C49.0792 47.6481 50.3907 48.0058 51.4638 47.5289C51.4638 47.5289 51.583 47.4097 51.7022 47.4097C51.8215 47.4097 51.9407 47.2904 52.0599 47.1712C52.2984 46.9328 52.5368 46.6943 52.8945 46.3366C53.0137 46.0982 53.133 45.8597 53.133 45.6212V39.6598C53.133 39.5406 53.133 39.4214 53.133 39.1829C53.3714 37.3945 54.9214 35.9638 56.7098 35.9638H73.8787C75.9056 35.9638 77.5748 37.6329 77.5748 39.6598C77.5748 40.256 78.0517 40.8521 78.767 40.8521C79.3632 40.8521 79.9593 40.3752 79.9593 39.6598C79.9593 36.3214 77.3363 33.6984 73.9979 33.6984H56.5906V33.46Z" fill="white"/>
</g>
</mask>
<g mask="url(#mask0_78_1133)">
<path id="Vector_2" d="M93.9098 52.0593L54.9221 81.5086L26.665 44.071L65.5335 14.6216L93.9098 52.0593Z" fill="url(#paint0_linear_78_1133)"/>
</g>
</g>
</g>
<g id="Group_3">
<g id="Clip path group_2">
<mask id="mask1_78_1133" style="mask-type:luminance" maskUnits="userSpaceOnUse" x="23" y="23" width="30" height="40">
<g id="SVGID_5_">
<path id="Vector_3" d="M33.3406 28.5716C33.3406 30.0024 33.9367 31.1947 34.8906 32.1485C34.8906 32.1485 34.8906 32.1485 35.0098 32.2677C35.2482 32.5062 35.3675 32.7446 35.3675 32.9831C35.3675 33.1023 35.2483 33.2215 35.129 33.3408H29.6445C26.3061 33.3408 23.6831 36.083 23.6831 39.3022C23.6831 39.8983 24.16 40.4945 24.8754 40.4945C25.4715 40.4945 26.0677 40.0176 26.0677 39.3022C26.0677 37.2753 27.7369 35.6061 29.7638 35.6061H35.7252C35.9636 35.6061 36.2021 35.4869 36.4405 35.3677C37.5136 34.5331 37.752 33.5792 37.8713 32.9831C37.9905 31.7908 37.1559 30.837 36.7982 30.4793C36.679 30.3601 36.5598 30.2408 36.5598 30.2408C36.0828 29.7639 35.7252 29.0486 35.7252 28.3332C35.7252 26.9024 36.9174 25.7102 38.4674 25.7102C39.8982 25.7102 41.2097 26.9024 41.2097 28.3332C41.2097 29.0486 40.9712 29.7639 40.3751 30.2408C40.3751 30.2408 40.2558 30.3601 40.1366 30.4793C39.4212 31.1947 39.0636 32.1485 39.0636 32.9831C39.0636 33.5792 39.4212 34.4138 40.4943 35.2484C40.7327 35.3677 40.9712 35.4869 41.2097 35.4869H47.1711C48.9595 35.4869 50.5095 36.9176 50.7479 38.706C50.7479 38.8253 50.7479 38.9445 50.7479 39.183V44.6675C50.6287 44.7867 50.6287 44.7867 50.5095 44.7867H50.3902C50.0326 44.9059 49.6749 44.429 49.5556 44.429C49.4364 44.3098 49.4364 44.3098 49.4364 44.3098C48.3634 43.2367 46.8134 42.6406 45.2634 42.7598C44.9057 42.7598 44.5481 42.879 44.3096 42.9983C44.1904 42.9983 43.9519 43.1175 43.8327 43.2367C43.7135 43.2367 43.7135 43.3559 43.5942 43.3559C42.0443 44.1905 41.0904 45.6213 40.852 47.2905C40.7327 48.0058 40.852 48.7212 41.0904 49.4366C41.0904 49.5558 41.0904 49.5558 41.2097 49.675C41.2097 49.675 41.2097 49.675 41.2097 49.7943C41.2097 49.9135 41.3289 50.0327 41.4481 50.2712C41.925 51.225 42.7596 52.0596 43.8327 52.5365C43.9519 52.5365 44.0711 52.6557 44.3096 52.775C44.7865 52.8942 45.3827 53.0134 45.8596 53.0134C47.2903 53.0134 48.4826 52.4173 49.4364 51.4635C49.4364 51.4635 49.4364 51.4635 49.5556 51.3442C49.5556 51.3442 49.5556 51.225 49.6749 51.225C49.7941 51.1058 50.1518 50.8673 50.3902 50.8673C50.3902 50.8673 50.3902 50.8673 50.5095 50.8673C50.6287 50.8673 50.6287 50.9866 50.7479 50.9866V56.3518C50.7479 56.5903 50.7479 56.7095 50.7479 56.8287C50.5095 58.6172 48.9595 60.0479 47.1711 60.0479H29.7638C27.7369 60.0479 26.0677 58.3787 26.0677 56.3518C26.0677 55.7557 25.5908 55.1595 24.8754 55.1595C24.2792 55.1595 23.6831 55.6365 23.6831 56.3518C23.6831 59.6902 26.4254 62.3132 29.6445 62.3132H46.9326C49.9133 62.3132 52.5363 60.0479 52.894 57.1864C52.894 56.948 52.894 56.7095 52.894 56.3518V50.5096C52.894 50.2712 52.7748 50.0327 52.6556 49.7943C52.1787 49.1981 51.7017 48.8404 51.1056 48.602C51.1056 48.602 51.1056 48.602 50.9864 48.602H50.8672C49.9133 48.3635 48.8403 48.7212 47.8864 49.5558C47.7672 49.675 47.648 49.7943 47.648 49.7943C47.1711 50.2712 46.4557 50.6289 45.7403 50.6289C45.5019 50.6289 45.1442 50.6289 44.9057 50.5096H44.7865C44.7865 50.5096 44.6673 50.5096 44.6673 50.3904C44.0711 50.152 43.7135 49.675 43.3558 49.1981C43.3558 49.1981 43.3558 49.0789 43.2365 49.0789C43.2365 48.9597 43.2365 48.9597 43.1173 48.8404V48.7212C42.9981 48.3635 42.9981 48.0058 42.9981 47.6482C43.1173 46.6943 43.5942 45.979 44.4288 45.5021C44.4288 45.5021 44.5481 45.5021 44.5481 45.3828C44.5481 45.3828 44.5481 45.3828 44.6673 45.3828H44.7865C44.9057 45.2636 45.1442 45.2636 45.2634 45.2636C46.098 45.1444 46.9326 45.5021 47.5288 46.0982C47.5288 46.0982 47.5288 46.0982 47.648 46.2174C48.6018 47.2905 49.9133 47.6482 51.1056 47.1713C51.2248 47.1713 51.2248 47.052 51.3441 47.052C51.821 46.8136 52.1787 46.4559 52.5364 45.979C52.6556 45.7405 52.7748 45.5021 52.7748 45.2636V39.3022C52.7748 39.0637 52.7748 38.706 52.7748 38.5868C52.4171 35.6061 49.7941 33.3408 46.8134 33.3408H41.3289C41.2097 33.2215 41.0904 33.1023 41.0904 32.9831C41.0904 32.7446 41.2097 32.5062 41.4481 32.2677C41.5673 32.1485 41.5673 32.1485 41.5673 32.1485C41.5673 32.1485 41.6866 32.1485 41.6866 32.0293C42.6404 31.0754 43.2365 29.7639 43.2365 28.4524C43.2365 25.7102 40.9712 23.4448 38.229 23.4448C35.6059 23.5641 33.3406 25.8294 33.3406 28.5716Z" fill="white"/>
</g>
</mask>
<g mask="url(#mask1_78_1133)">
<path id="Vector_4" d="M71.8509 48.3635L34.4132 76.7399L4.96387 37.7522L42.4015 9.49512L71.8509 48.3635Z" fill="url(#paint1_linear_78_1133)"/>
</g>
</g>
</g>
<g id="Group_4">
<g id="Clip path group_3">
<mask id="mask2_78_1133" style="mask-type:luminance" maskUnits="userSpaceOnUse" x="4" y="18" width="16" height="15">
<g id="SVGID_8_">
<path id="Vector_5" d="M7.22978 25.4717C7.22978 22.7295 9.49512 20.4642 12.2374 20.4642C14.9796 20.4642 17.245 22.7295 17.245 25.4717C17.245 28.214 14.9796 30.4793 12.2374 30.4793C9.49512 30.4793 7.22978 28.214 7.22978 25.4717ZM4.84521 25.4717C4.84521 29.5255 8.18361 32.8639 12.2374 32.8639C16.2911 32.8639 19.6295 29.5255 19.6295 25.4717C19.6295 21.418 16.2911 18.0796 12.2374 18.0796C8.18361 18.1988 4.84521 21.418 4.84521 25.4717Z" fill="white"/>
</g>
</mask>
<g mask="url(#mask2_78_1133)">
<path id="Vector_6" d="M26.6643 27.4989L10.2108 39.8987L-2.18896 23.4451L14.2645 11.0454L26.6643 27.4989Z" fill="url(#paint2_linear_78_1133)"/>
</g>
</g>
</g>
<g id="Group_5">
<g id="Clip path group_4">
<mask id="mask3_78_1133" style="mask-type:luminance" maskUnits="userSpaceOnUse" x="0" y="33" width="35" height="53">
<g id="SVGID_11_">
<path id="Vector_7" d="M3.29525 83.1783L3.17602 83.0591C2.57988 82.8206 2.46065 82.4629 2.46065 82.3437C2.34142 81.986 2.46065 81.2706 2.81834 80.5553L7.58747 71.017C7.94515 70.3017 8.18361 69.5863 8.18361 68.8709L8.42206 65.2941C8.54129 63.7441 8.54129 62.0749 8.42206 60.048C8.42206 59.8096 8.42206 59.6903 8.42206 59.3326V39.3023C8.42206 37.3946 9.97203 35.9639 11.7605 35.9639H11.8797C12.9527 35.9639 13.9066 36.4408 14.5027 37.2754L14.7412 37.6331C16.1719 39.5408 17.7219 41.4484 19.5103 43.1176L21.5372 45.1445C21.7756 45.3829 22.0141 45.5022 22.3718 45.5022H31.0754C31.91 45.5022 32.5062 46.0983 32.5062 46.9329C32.5062 47.7675 31.91 48.3636 31.0754 48.3636H20.7026L17.245 44.906C16.8873 44.5483 16.4104 44.4291 15.9334 44.6676C15.4565 44.906 15.2181 45.2637 15.2181 45.7406V55.875C15.2181 56.3519 15.0988 56.7096 14.9796 57.0673C14.8604 57.425 14.8604 57.7827 15.0989 58.1404L21.4179 69.2286C21.5372 69.5863 21.5372 69.944 21.5372 70.3017L17.9603 81.3899C17.3642 82.8206 16.5296 83.7744 15.9334 83.7744C15.8142 83.7744 15.695 83.7744 15.695 83.7744C15.695 83.7744 15.695 83.7744 15.5758 83.6552C14.7412 83.2975 14.6219 83.1783 15.3373 81.0322L18.5565 71.7324C18.5565 71.6132 18.5565 71.4939 18.6757 71.4939C18.7949 70.7786 18.6757 69.944 18.4372 69.2286C18.4372 69.1094 18.318 68.9901 18.318 68.9901L14.3835 62.9095C14.145 62.4326 13.6681 62.1941 13.072 62.1941C12.2374 62.1941 11.6412 62.7903 11.522 63.6249L10.9259 70.4209C10.9259 70.8978 10.8066 71.2555 10.5682 71.7324L5.56059 82.1053C5.2029 82.7014 4.60676 83.7744 3.77216 83.7744C3.53371 83.2975 3.29525 83.1783 3.29525 83.1783ZM11.7605 33.5793C8.66052 33.5793 6.0375 36.2024 6.0375 39.3023V59.3326C6.0375 59.6903 6.0375 59.9288 6.0375 60.1672C6.15673 62.0749 6.15673 63.7441 6.0375 65.1748L5.79904 68.7517C5.79904 69.2286 5.67981 69.5863 5.44136 70.0632L0.672228 79.6015C-0.0431419 81.0322 -0.16237 82.2245 0.195315 83.1783C0.553 84.0129 1.14914 84.7283 2.10297 85.2052C2.34142 85.3244 2.93757 85.6821 3.77216 85.6821C4.84522 85.6821 6.39519 85.2052 7.7067 82.7014L12.7143 72.3285C13.072 71.6132 13.1912 71.017 13.3104 70.3017L13.6681 65.8902L16.2911 69.8247C16.4104 70.1824 16.4104 70.5401 16.4104 70.8978L13.3104 79.7207C13.3104 79.7207 13.3104 79.7207 13.3104 79.8399L13.1912 80.1976C12.5951 82.2245 11.9989 84.2514 14.6219 85.5629C14.8604 85.6821 15.3373 85.9206 16.0527 85.9206C17.245 85.9206 18.9142 85.2052 20.2257 82.1053V81.986L23.8025 70.7786C23.8025 70.6593 23.8025 70.6593 23.8025 70.5401C23.9217 69.8247 23.8025 69.1094 23.5641 68.394C23.5641 68.2748 23.5641 68.2748 23.4448 68.1555L17.3642 57.1865C17.4834 56.7096 17.6026 56.1135 17.6026 55.6366V48.3636L19.3911 50.1521C19.6295 50.3905 19.868 50.5098 20.2257 50.5098H31.0754C33.1023 50.5098 34.7715 48.8406 34.7715 46.8137C34.7715 44.7868 33.1023 43.1176 31.0754 43.1176H22.8487L21.1795 41.4484C19.5103 39.7792 18.0796 37.9908 16.5296 36.0831L16.2911 35.7255C15.2181 34.2947 13.5489 33.5793 11.7605 33.5793Z" fill="white"/>
</g>
</mask>
<g mask="url(#mask3_78_1133)">
<path id="Vector_8" d="M59.9284 66.8437L12.5948 102.612L-25.3198 52.5363L22.0138 16.7678L59.9284 66.8437Z" fill="url(#paint3_linear_78_1133)"/>
</g>
</g>
</g>
<g id="Group_6">
<g id="Clip path group_5">
<mask id="mask4_78_1133" style="mask-type:luminance" maskUnits="userSpaceOnUse" x="84" y="18" width="16" height="15">
<g id="SVGID_14_">
<path id="Vector_9" d="M86.5168 25.4717C86.5168 22.7295 88.7821 20.4642 91.5244 20.4642C94.2666 20.4642 96.532 22.7295 96.532 25.4717C96.532 28.214 94.2666 30.4793 91.5244 30.4793C88.7821 30.4793 86.5168 28.214 86.5168 25.4717ZM84.2515 25.4717C84.2515 29.5255 87.5899 32.8639 91.6436 32.8639C95.6974 32.8639 99.0358 29.5255 99.0358 25.4717C99.0358 21.418 95.6974 18.0796 91.6436 18.0796C87.4706 18.1988 84.2515 21.418 84.2515 25.4717Z" fill="white"/>
</g>
</mask>
<g mask="url(#mask4_78_1133)">
<path id="Vector_10" d="M105.951 27.4989L89.4974 39.8987L77.0977 23.4451L93.5512 11.0454L105.951 27.4989Z" fill="url(#paint4_linear_78_1133)"/>
</g>
</g>
</g>
<g id="Group_7">
<g id="Clip path group_6">
<mask id="mask5_78_1133" style="mask-type:luminance" maskUnits="userSpaceOnUse" x="68" y="33" width="36" height="53">
<g id="SVGID_17_">
<path id="Vector_11" d="M71.2556 46.8137C71.2556 45.9791 71.8517 45.3829 72.6863 45.3829H81.39C81.7477 45.3829 81.9861 45.2637 82.2246 45.0253L84.2515 42.9984C86.0399 41.21 87.4706 39.3023 89.0206 37.5139L89.259 37.1562C89.8552 36.3216 90.809 35.8447 91.8821 35.8447H92.0013C93.9089 35.8447 95.4589 37.3946 95.4589 39.1831V59.2134C95.4589 59.4519 95.4589 59.6903 95.4589 59.9288C95.3397 61.9557 95.3397 63.6249 95.4589 65.1748L95.6974 68.7517C95.8166 69.4671 95.9358 70.1824 96.2935 70.8978L101.063 80.4361C101.42 81.1514 101.54 81.8668 101.42 82.2245C101.42 82.3437 101.301 82.5822 100.705 82.9398C100.705 82.9398 100.586 82.9398 100.586 83.0591C100.586 83.0591 100.347 83.1783 100.109 83.1783C99.2742 83.1783 98.6781 82.1053 98.3204 81.5091L93.3128 71.1362C93.0743 70.7786 92.9551 70.3017 92.9551 69.8247L92.359 63.0287C92.2397 62.1941 91.6436 61.598 90.809 61.598C90.3321 61.598 89.8552 61.8364 89.4975 62.3134L85.563 68.6325C85.4437 68.7517 85.4437 68.8709 85.4437 68.8709C85.2053 69.5863 85.2053 70.3017 85.2053 71.1362C85.2053 71.2555 85.2053 71.3747 85.3245 71.3747L88.5437 80.3168L88.6629 80.6745C89.259 82.8206 89.1398 82.9398 88.4244 83.2975C88.4244 83.2975 88.3052 83.2975 88.3052 83.4168C88.3052 83.4168 88.186 83.4168 88.0668 83.4168C87.4706 83.4168 86.636 82.5822 86.0399 81.0322L82.463 69.944C82.463 69.5863 82.463 69.2286 82.5823 68.8709L88.9014 57.7827C89.0206 57.425 89.1398 57.0673 89.0206 56.7096C88.9014 56.3519 88.7821 55.875 88.7821 55.5173V45.3829C88.7821 44.906 88.5437 44.4291 88.0668 44.3099C87.5898 44.0714 87.1129 44.1907 86.7552 44.5483L83.2976 48.006H72.9248C71.9709 48.2444 71.2556 47.5291 71.2556 46.8137ZM91.8821 33.5793C90.0936 33.5793 88.5437 34.4139 87.4706 35.7255L87.2322 36.0831C85.8014 37.8716 84.2515 39.7792 82.5823 41.4484L80.9131 43.1176H72.6863C70.6594 43.1176 68.9902 44.7868 68.9902 46.8137C68.9902 48.8406 70.6594 50.5098 72.6863 50.5098H83.5361C83.8938 50.5098 84.1322 50.3905 84.3707 50.1521L86.1591 48.3636V55.6366C86.1591 56.1135 86.2783 56.7096 86.3976 57.1865L80.1977 68.0363C80.1977 68.1555 80.0785 68.1555 80.0785 68.2748C79.84 68.9901 79.7208 69.7055 79.84 70.4209C79.84 70.5401 79.84 70.5401 79.84 70.6593L83.4169 81.8668V81.986C84.7284 85.2052 86.3976 85.8013 87.5898 85.8013C88.3052 85.8013 88.7821 85.5629 89.0206 85.4436C91.6436 84.1321 91.0475 82.1053 90.4513 80.0784L90.6898 79.8399C90.6898 79.8399 90.6898 79.8399 90.6898 79.7207L87.5898 70.8978C87.5898 70.5401 87.5898 70.1824 87.7091 69.8247L90.3321 65.8902L90.6898 70.3017C90.809 71.017 90.9282 71.7324 91.2859 72.4478L96.2935 82.8206C97.605 85.2052 99.0358 85.8013 100.228 85.8013C101.063 85.8013 101.659 85.4436 101.897 85.3244C102.851 84.8475 103.447 84.2514 103.805 83.2975C104.163 82.2245 104.043 81.0322 103.328 79.7207L98.5588 70.1824C98.3204 69.8247 98.2012 69.3478 98.2012 68.9901L97.9627 65.4133C97.8435 63.9826 97.8435 62.3134 97.9627 60.4057C97.9627 60.1672 97.9627 59.9288 97.9627 59.5711V39.3023C97.7242 36.0831 95.2205 33.5793 91.8821 33.5793Z" fill="white"/>
</g>
</mask>
<g mask="url(#mask5_78_1133)">
<path id="Vector_12" d="M129.081 66.8437L81.6284 102.612L43.833 52.5363L91.1666 16.7678L129.081 66.8437Z" fill="url(#paint5_linear_78_1133)"/>
</g>
</g>
</g>
</g>
</g>
<defs>
<linearGradient id="paint0_linear_78_1133" x1="96.6323" y1="20.4999" x2="20.5421" y2="78.0465" gradientUnits="userSpaceOnUse">
<stop stop-color="white"/>
<stop offset="1" stop-color="#231F20"/>
</linearGradient>
<linearGradient id="paint1_linear_78_1133" x1="86.2838" y1="6.8192" x2="10.1936" y2="64.3658" gradientUnits="userSpaceOnUse">
<stop stop-color="white"/>
<stop offset="1" stop-color="#231F20"/>
</linearGradient>
<linearGradient id="paint2_linear_78_1133" x1="68.2841" y1="-16.9815" x2="-7.80608" y2="40.5651" gradientUnits="userSpaceOnUse">
<stop stop-color="white"/>
<stop offset="1" stop-color="#231F20"/>
</linearGradient>
<linearGradient id="paint3_linear_78_1133" x1="86.5763" y1="7.23452" x2="10.4861" y2="64.7811" gradientUnits="userSpaceOnUse">
<stop stop-color="white"/>
<stop offset="1" stop-color="#231F20"/>
</linearGradient>
<linearGradient id="paint4_linear_78_1133" x1="97.155" y1="21.193" x2="21.0649" y2="78.7395" gradientUnits="userSpaceOnUse">
<stop stop-color="white"/>
<stop offset="1" stop-color="#231F20"/>
</linearGradient>
<linearGradient id="paint5_linear_78_1133" x1="111.73" y1="40.4935" x2="35.6401" y2="98.0401" gradientUnits="userSpaceOnUse">
<stop stop-color="white"/>
<stop offset="1" stop-color="#231F20"/>
</linearGradient>
</defs>
</svg>
