<svg width="104" height="104" viewBox="0 0 104 104" fill="none" xmlns="http://www.w3.org/2000/svg">
<g id="Catering">
<g id="Group">
<g id="Group_2">
<g id="Clip path group">
<mask id="mask0_78_1165" style="mask-type:luminance" maskUnits="userSpaceOnUse" x="40" y="63" width="47" height="16">
<g id="SVGID_2_">
<path id="Vector" d="M64.4033 64.8805L58.9966 66.7888C57.7244 66.9478 51.6816 67.2659 47.5471 66.1527C45.7978 65.6756 44.3666 66.1527 43.7306 66.6298C41.3452 68.22 41.0272 71.7185 41.0272 72.1955L40.8682 73.3087L41.8223 73.9448C49.2963 78.3974 59.3146 78.3974 59.7917 78.3974C60.7458 78.3974 61.5409 77.6022 61.5409 76.6481C61.5409 75.694 60.7458 74.8989 59.7917 74.8989C59.6327 74.8989 51.2046 74.8989 44.6847 71.4004C44.8437 70.6053 45.3208 69.8102 45.6388 69.4922C45.7978 69.4922 45.9568 69.3331 46.5929 69.4922C51.6816 70.9234 59.1556 70.2873 59.4737 70.2873H59.6327L65.3575 68.22C67.2657 67.4249 72.8315 65.8347 76.3299 66.9478C80.3055 68.22 83.3269 73.4677 83.3269 73.6267C83.8039 74.4218 84.9171 74.7399 85.7122 74.2628C86.5073 73.7857 86.8253 72.6726 86.3483 71.8775C86.1893 71.5594 82.6908 65.1986 77.2841 63.6084C76.1709 63.2903 74.8987 63.1313 73.6266 63.1313C69.333 62.9723 64.8804 64.7215 64.4033 64.8805Z" fill="white"/>
</g>
</mask>
<g mask="url(#mask0_78_1165)">
<path id="Vector_2" d="M94.7776 70.6059L63.9275 101.297L33.2363 70.6059L63.9275 39.9148L94.7776 70.6059Z" fill="url(#paint0_linear_78_1165)"/>
</g>
</g>
</g>
<g id="Group_3">
<g id="Clip path group_2">
<mask id="mask1_78_1165" style="mask-type:luminance" maskUnits="userSpaceOnUse" x="22" y="63" width="71" height="35">
<g id="SVGID_5_">
<path id="Vector_3" d="M27.6697 63.1313C25.6025 63.2904 24.0122 64.2445 23.2171 65.5167C22.5811 66.4708 22.422 67.5839 22.7401 68.5381C23.5352 70.7644 35.7798 80.9417 39.2783 82.3729C40.0734 82.691 41.0275 83.168 42.1407 83.4861C48.8196 86.3485 54.2263 88.4158 57.4067 88.0977C67.2661 86.6665 75.0581 85.8714 76.8074 86.3485C79.0336 86.8255 88.0979 95.8898 89.37 96.8439C89.6881 97.1619 90.1651 97.1619 90.4832 97.1619C90.9603 97.1619 91.4373 97.0029 91.9144 96.5258C92.5505 95.7307 92.3914 94.6176 91.5963 94.1405C91.1193 93.6635 81.1009 83.6451 77.6025 83.009C74.422 82.2139 63.2905 83.8041 56.9297 84.7583C54.7034 85.0763 47.7064 82.2139 43.5719 80.4647C42.4587 79.9876 41.5046 79.6696 40.7095 79.1925C37.6881 77.9203 27.8288 69.4922 26.2385 67.4249C26.3976 67.2659 26.8746 66.7888 28.1468 66.6298C28.9419 66.7888 31.3272 68.22 32.9174 69.3332C34.0306 69.9693 35.1437 70.7644 36.2569 71.4005C39.2783 73.1497 46.9113 76.1711 47.2294 76.3301C48.1835 76.6482 49.1376 76.1711 49.4557 75.376C49.7737 74.4219 49.2967 73.4677 48.5015 73.1497C48.5015 73.1497 40.7095 69.9693 37.8471 68.5381C36.893 67.902 35.7798 67.2659 34.6667 66.6298C31.4863 64.5625 29.578 63.4494 27.9878 63.4494C27.8288 63.1313 27.8288 63.1313 27.6697 63.1313Z" fill="white"/>
</g>
</mask>
<g mask="url(#mask1_78_1165)">
<path id="Vector_4" d="M109.407 80.1462L57.4067 132.146L5.40674 80.1462L57.4067 28.1462L109.407 80.1462Z" fill="url(#paint1_linear_78_1165)"/>
</g>
</g>
</g>
<g id="Group_4">
<g id="Clip path group_3">
<mask id="mask2_78_1165" style="mask-type:luminance" maskUnits="userSpaceOnUse" x="83" y="70" width="21" height="15">
<g id="SVGID_8_">
<path id="Vector_5" d="M83.645 71.7182C83.168 72.5133 83.486 73.6265 84.2811 74.1035L100.66 83.8038C100.978 83.9628 101.296 84.1219 101.614 84.1219C102.251 84.1219 102.728 83.8038 103.046 83.3268C103.523 82.5317 103.205 81.4185 102.41 80.9414L86.0304 71.2411C85.7123 71.0821 85.3943 70.9231 85.0762 70.9231C84.4402 70.7641 83.9631 71.0821 83.645 71.7182Z" fill="white"/>
</g>
</mask>
<g mask="url(#mask2_78_1165)">
<path id="Vector_6" d="M110.043 77.4429L93.3455 94.2992L76.4893 77.4429L93.3455 60.5867L110.043 77.4429Z" fill="url(#paint2_linear_78_1165)"/>
</g>
</g>
</g>
<g id="Group_5">
<g id="Clip path group_4">
<mask id="mask3_78_1165" style="mask-type:luminance" maskUnits="userSpaceOnUse" x="0" y="55" width="104" height="5">
<g id="SVGID_11_">
<path id="Vector_7" d="M104 55.6572H0V59.9508H104V55.6572Z" fill="white"/>
</g>
</mask>
<g mask="url(#mask3_78_1165)">
<path id="Vector_8" d="M106.067 57.8838L51.9999 111.951L-2.06738 57.8838L51.9999 3.65747L106.067 57.8838Z" fill="url(#paint3_linear_78_1165)"/>
</g>
</g>
</g>
<g id="Group_6">
<g id="Clip path group_5">
<mask id="mask4_78_1165" style="mask-type:luminance" maskUnits="userSpaceOnUse" x="13" y="19" width="78" height="42">
<g id="SVGID_14_">
<path id="Vector_9" d="M51.9998 23.6942C70.1282 23.6942 84.9172 37.8471 86.0304 55.6575H17.9692C19.0824 37.8471 33.8713 23.6942 51.9998 23.6942ZM13.5166 57.8838V60.1101H90.3239V57.8838C90.3239 36.734 73.1496 19.4006 51.9998 19.4006C30.8499 19.4006 13.5166 36.734 13.5166 57.8838Z" fill="white"/>
</g>
</mask>
<g mask="url(#mask4_78_1165)">
<path id="Vector_10" d="M110.679 39.7553L51.9997 98.4342L-6.6792 39.7553L51.9997 -18.9236L110.679 39.7553Z" fill="url(#paint4_linear_78_1165)"/>
</g>
</g>
</g>
<g id="Group_7">
<g id="Clip path group_6">
<mask id="mask5_78_1165" style="mask-type:luminance" maskUnits="userSpaceOnUse" x="44" y="6" width="10" height="16">
<g id="SVGID_17_">
<path id="Vector_11" d="M44.8444 11.6085L44.5264 12.4036L49.9331 21.9449L53.7496 19.8776L49.297 12.0856C49.7741 11.6085 50.4102 11.1315 51.8413 11.1315V6.83789C47.5478 6.83789 45.4805 9.8593 44.8444 11.6085Z" fill="white"/>
</g>
</mask>
<g mask="url(#mask5_78_1165)">
<path id="Vector_12" d="M61.382 14.4709L49.2964 26.5565L37.0518 14.4709L49.2964 2.38525L61.382 14.4709Z" fill="url(#paint5_linear_78_1165)"/>
</g>
</g>
</g>
<g id="Group_8">
<g id="Clip path group_7">
<mask id="mask6_78_1165" style="mask-type:luminance" maskUnits="userSpaceOnUse" x="50" y="7" width="10" height="16">
<g id="SVGID_20_">
<path id="Vector_13" d="M51.9996 11.2903C53.4308 11.2903 54.0668 11.7674 54.5439 12.2444L50.0913 20.0365L53.9078 22.1038L59.3145 12.5625L58.9965 11.7674C58.5194 10.0181 56.4522 7.15576 51.9996 7.15576V11.2903Z" fill="white"/>
</g>
</mask>
<g mask="url(#mask6_78_1165)">
<path id="Vector_14" d="M66.7897 14.4709L54.7041 26.5565L42.4595 14.4709L54.7041 2.38525L66.7897 14.4709Z" fill="url(#paint6_linear_78_1165)"/>
</g>
</g>
</g>
<g id="Group_9">
<g id="Clip path group_8">
<mask id="mask7_78_1165" style="mask-type:luminance" maskUnits="userSpaceOnUse" x="25" y="28" width="28" height="23">
<g id="SVGID_23_">
<path id="Vector_15" d="M49.9331 28.4648C33.7129 29.419 25.6029 46.2752 25.2848 47.0703C24.8077 48.1835 25.2848 49.4557 26.2389 49.9327C26.557 50.0918 26.875 50.0918 27.1931 50.0918C27.9882 50.0918 28.7833 49.6147 29.1013 48.8196C29.1013 48.6606 36.4163 33.5535 50.0921 32.7584C51.2053 32.7584 52.1594 31.6453 52.1594 30.5321C52.1594 29.419 51.2053 28.4648 49.9331 28.4648C50.0921 28.4648 50.0921 28.4648 49.9331 28.4648Z" fill="white"/>
</g>
</mask>
<g mask="url(#mask7_78_1165)">
<path id="Vector_16" d="M63.1308 39.2781L38.6415 63.9264L13.9932 39.2781L38.6415 14.7888L63.1308 39.2781Z" fill="url(#paint7_linear_78_1165)"/>
</g>
</g>
</g>
</g>
</g>
<defs>
<linearGradient id="paint0_linear_78_1165" x1="102.014" y1="32.5141" x2="39.3057" y2="95.2226" gradientUnits="userSpaceOnUse">
<stop stop-color="white"/>
<stop offset="1" stop-color="#231F20"/>
</linearGradient>
<linearGradient id="paint1_linear_78_1165" x1="103.562" y1="33.9745" x2="40.8531" y2="96.683" gradientUnits="userSpaceOnUse">
<stop stop-color="white"/>
<stop offset="1" stop-color="#231F20"/>
</linearGradient>
<linearGradient id="paint2_linear_78_1165" x1="120.123" y1="50.5359" x2="57.4144" y2="113.244" gradientUnits="userSpaceOnUse">
<stop stop-color="white"/>
<stop offset="1" stop-color="#231F20"/>
</linearGradient>
<linearGradient id="paint3_linear_78_1165" x1="89.6778" y1="20.0914" x2="26.9693" y2="82.7998" gradientUnits="userSpaceOnUse">
<stop stop-color="white"/>
<stop offset="1" stop-color="#231F20"/>
</linearGradient>
<linearGradient id="paint4_linear_78_1165" x1="80.6225" y1="11.0362" x2="17.914" y2="73.7447" gradientUnits="userSpaceOnUse">
<stop stop-color="white"/>
<stop offset="1" stop-color="#231F20"/>
</linearGradient>
<linearGradient id="paint5_linear_78_1165" x1="66.6386" y1="-2.9478" x2="3.93006" y2="59.7607" gradientUnits="userSpaceOnUse">
<stop stop-color="white"/>
<stop offset="1" stop-color="#231F20"/>
</linearGradient>
<linearGradient id="paint6_linear_78_1165" x1="69.3548" y1="-0.232521" x2="6.64633" y2="62.476" gradientUnits="userSpaceOnUse">
<stop stop-color="white"/>
<stop offset="1" stop-color="#231F20"/>
</linearGradient>
<linearGradient id="paint7_linear_78_1165" x1="73.7119" y1="4.1631" x2="11.0034" y2="66.8716" gradientUnits="userSpaceOnUse">
<stop stop-color="white"/>
<stop offset="1" stop-color="#231F20"/>
</linearGradient>
</defs>
</svg>
