<svg width="104" height="105" viewBox="0 0 104 105" fill="none" xmlns="http://www.w3.org/2000/svg">
<mask id="mask0_749_41110" style="mask-type:luminance" maskUnits="userSpaceOnUse" x="40" y="64" width="47" height="16">
<path d="M64.4043 65.8141L58.9976 67.7224C57.7254 67.8814 51.6826 68.1995 47.548 67.0863C45.7988 66.6092 44.3676 67.0863 43.7315 67.5634C41.3462 69.1536 41.0282 72.6521 41.0282 73.1291L40.8691 74.2423L41.8233 74.8784C49.2973 79.331 59.3156 79.331 59.7927 79.331C60.7468 79.331 61.5419 78.5358 61.5419 77.5817C61.5419 76.6276 60.7468 75.8325 59.7927 75.8325C59.6337 75.8325 51.2055 75.8325 44.6857 72.334C44.8447 71.5389 45.3217 70.7438 45.6398 70.4258C45.7988 70.4258 45.9578 70.2667 46.5939 70.4258C51.6826 71.8569 59.1566 71.2209 59.4746 71.2209H59.6337L65.3584 69.1536C67.2667 68.3585 72.8324 66.7683 76.3309 67.8814C80.3064 69.1536 83.3279 74.4013 83.3279 74.5603C83.8049 75.3554 84.9181 75.6735 85.7132 75.1964C86.5083 74.7193 86.8263 73.6062 86.3493 72.8111C86.1902 72.493 82.6918 66.1322 77.285 64.542C76.1719 64.2239 74.8997 64.0649 73.6275 64.0649C69.334 63.9059 64.8814 65.6551 64.4043 65.8141Z" fill="white"/>
</mask>
<g mask="url(#mask0_749_41110)">
<path d="M94.7796 71.5388L63.9294 102.23L33.2383 71.5388L63.9294 40.8477L94.7796 71.5388Z" fill="#35C5E8"/>
</g>
<mask id="mask1_749_41110" style="mask-type:luminance" maskUnits="userSpaceOnUse" x="22" y="64" width="71" height="35">
<path d="M27.6707 64.0645C25.6034 64.2235 24.0132 65.1776 23.2181 66.4498C22.582 67.4039 22.423 68.5171 22.7411 69.4712C23.5362 71.6975 35.7808 81.8749 39.2793 83.306C40.0744 83.6241 41.0285 84.1012 42.1417 84.4192C48.8206 87.2816 54.2273 89.3489 57.4077 89.0308C67.267 87.5996 75.0591 86.8045 76.8083 87.2816C79.0346 87.7586 88.0988 96.8229 89.371 97.777C89.6891 98.095 90.1661 98.095 90.4842 98.095C90.9612 98.095 91.4383 97.936 91.9154 97.4589C92.5514 96.6638 92.3924 95.5507 91.5973 95.0736C91.1203 94.5966 81.1019 84.5782 77.6034 83.9421C74.423 83.147 63.2915 84.7372 56.9307 85.6914C54.7044 86.0094 47.7074 83.147 43.5729 81.3978C42.4597 80.9207 41.5056 80.6027 40.7105 80.1256C37.6891 78.8534 27.8297 70.4253 26.2395 68.358C26.3985 68.199 26.8756 67.7219 28.1478 67.5629C28.9429 67.7219 31.3282 69.1531 32.9184 70.2663C34.0316 70.9024 35.1447 71.6975 36.2579 72.3336C39.2793 74.0828 46.9123 77.1042 47.2304 77.2632C48.1845 77.5813 49.1386 77.1042 49.4566 76.3091C49.7747 75.355 49.2976 74.4008 48.5025 74.0828C48.5025 74.0828 40.7105 70.9024 37.8481 69.4712C36.894 68.8351 35.7808 68.199 34.6677 67.5629C31.4872 65.4956 29.579 64.3825 27.9888 64.3825C27.8297 64.0645 27.8297 64.0645 27.6707 64.0645Z" fill="white"/>
</mask>
<g mask="url(#mask1_749_41110)">
<path d="M109.406 81.0801L57.4062 133.08L5.40625 81.0801L57.4062 29.0801L109.406 81.0801Z" fill="#35C5E8"/>
</g>
<mask id="mask2_749_41110" style="mask-type:luminance" maskUnits="userSpaceOnUse" x="83" y="71" width="21" height="15">
<path d="M83.646 72.652C83.169 73.4471 83.487 74.5603 84.2821 75.0374L100.661 84.7377C100.979 84.8967 101.297 85.0557 101.615 85.0557C102.252 85.0557 102.729 84.7377 103.047 84.2606C103.524 83.4655 103.206 82.3523 102.411 81.8753L86.0313 72.175C85.7133 72.016 85.3953 71.8569 85.0772 71.8569C84.4411 71.6979 83.9641 72.016 83.646 72.652Z" fill="white"/>
</mask>
<g mask="url(#mask2_749_41110)">
<path d="M110.044 78.3778L93.3465 95.234L76.4902 78.3778L93.3465 61.5215L110.044 78.3778Z" fill="#35C5E8"/>
</g>
<mask id="mask3_749_41110" style="mask-type:luminance" maskUnits="userSpaceOnUse" x="0" y="56" width="104" height="5">
<path d="M104 56.5898H0V60.8834H104V56.5898Z" fill="white"/>
</mask>
<g mask="url(#mask3_749_41110)">
<path d="M106.068 58.8161L52.0009 112.883L-2.06641 58.8161L52.0009 4.58984L106.068 58.8161Z" fill="#35C5E8"/>
</g>
<mask id="mask4_749_41110" style="mask-type:luminance" maskUnits="userSpaceOnUse" x="13" y="20" width="78" height="42">
<path d="M51.9988 24.6276C70.1272 24.6276 84.9162 38.7805 86.0294 56.5909H17.9682C19.0814 38.7805 33.8704 24.6276 51.9988 24.6276ZM13.5156 58.8172V61.0435H90.323V58.8172C90.323 37.6673 73.1487 20.334 51.9988 20.334C30.849 20.334 13.5156 37.6673 13.5156 58.8172Z" fill="white"/>
</mask>
<g mask="url(#mask4_749_41110)">
<path d="M110.678 40.6887L51.9992 99.3676L-6.67969 40.6887L51.9992 -17.9902L110.678 40.6887Z" fill="#35C5E8"/>
</g>
<mask id="mask5_749_41110" style="mask-type:luminance" maskUnits="userSpaceOnUse" x="44" y="7" width="10" height="16">
<path d="M44.8454 12.5421L44.5273 13.3372L49.9341 22.8785L53.7506 20.8112L49.298 13.0192C49.7751 12.5421 50.4111 12.0651 51.8423 12.0651V7.77148C47.5487 7.77148 45.4815 10.7929 44.8454 12.5421Z" fill="white"/>
</mask>
<g mask="url(#mask5_749_41110)">
<path d="M61.383 15.404L49.2974 27.4896L37.0527 15.404L49.2974 3.31836L61.383 15.404Z" fill="#35C5E8"/>
</g>
<mask id="mask6_749_41110" style="mask-type:luminance" maskUnits="userSpaceOnUse" x="50" y="8" width="10" height="16">
<path d="M52.0001 12.2244C53.4312 12.2244 54.0673 12.7015 54.5444 13.1785L50.0918 20.9706L53.9083 23.0379L59.315 13.4966L58.997 12.7015C58.5199 10.9522 56.4527 8.08984 52.0001 8.08984V12.2244Z" fill="white"/>
</mask>
<g mask="url(#mask6_749_41110)">
<path d="M66.7912 15.4059L54.7056 27.4916L42.4609 15.4059L54.7056 3.32031L66.7912 15.4059Z" fill="#35C5E8"/>
</g>
<mask id="mask7_749_41110" style="mask-type:luminance" maskUnits="userSpaceOnUse" x="25" y="29" width="28" height="23">
<path d="M49.9331 29.3984C33.7129 30.3526 25.6029 47.2088 25.2848 48.0039C24.8077 49.1171 25.2848 50.3893 26.2389 50.8663C26.557 51.0253 26.875 51.0254 27.1931 51.0254C27.9882 51.0254 28.7833 50.5483 29.1013 49.7532C29.1013 49.5942 36.4163 34.4871 50.0921 33.692C51.2053 33.692 52.1594 32.5789 52.1594 31.4657C52.1594 30.3526 51.2053 29.3984 49.9331 29.3984C50.0921 29.3984 50.0921 29.3984 49.9331 29.3984Z" fill="white"/>
</mask>
<g mask="url(#mask7_749_41110)">
<path d="M63.1298 40.212L38.6405 64.8603L13.9922 40.212L38.6405 15.7227L63.1298 40.212Z" fill="#35C5E8"/>
</g>
</svg>
