<svg width="104" height="105" viewBox="0 0 104 105" fill="none" xmlns="http://www.w3.org/2000/svg">
<g clip-path="url(#clip0_749_40900)">
<mask id="mask0_749_40900" style="mask-type:luminance" maskUnits="userSpaceOnUse" x="9" y="61" width="23" height="23">
<path d="M13.7422 76.0134C13.1325 74.9464 12.9801 73.727 12.9801 72.5076C12.9801 68.2398 16.4859 64.734 20.7537 64.734C25.0216 64.734 28.5273 68.2398 28.5273 72.5076C28.5273 73.727 28.2225 74.9464 27.7652 76.0134C26.3934 78.6046 23.8022 80.2812 20.7537 80.2812C17.8577 80.2812 15.114 78.757 13.7422 76.0134ZM9.93164 72.5076C9.93164 74.1843 10.3889 75.861 11.151 77.3852C12.9801 81.0434 16.6383 83.3297 20.7537 83.3297C24.8692 83.3297 28.5273 81.0434 30.5088 77.3852C31.271 75.861 31.7282 74.1843 31.7282 72.5076C31.7282 66.5631 26.8507 61.6855 20.9061 61.6855C14.8092 61.6855 9.93164 66.5631 9.93164 72.5076Z" fill="white"/>
</mask>
<g mask="url(#mask0_749_40900)">
<path d="M42.5501 72.5074L20.7535 94.1516L-0.890625 72.5074L20.7535 50.8633L42.5501 72.5074Z" fill="#35C5E8"/>
</g>
<mask id="mask1_749_40900" style="mask-type:luminance" maskUnits="userSpaceOnUse" x="0" y="82" width="33" height="22">
<path d="M10.0835 86.0731C4.4438 89.4264 1.2429 94.4564 0.0235131 101.62C-0.128911 102.382 0.480784 103.145 1.2429 103.297C1.39533 103.297 1.39533 103.297 1.54775 103.297C2.30987 103.297 2.91956 102.84 3.07199 102.078C4.4438 93.9991 8.40682 90.6458 11.7601 88.6643C18.0095 84.8537 23.954 84.8537 30.2034 88.6643C30.9655 89.1215 31.8801 88.8167 32.1849 88.207C32.6422 87.4449 32.3373 86.5303 31.7276 86.2255C28.0695 84.0915 24.5637 82.8722 20.9056 82.8722C17.2474 82.7197 13.7416 83.9391 10.0835 86.0731Z" fill="white"/>
</mask>
<g mask="url(#mask1_749_40900)">
<path d="M42.8541 93.0843L16.1799 119.606L-10.3418 93.0843L16.1799 66.4102L42.8541 93.0843Z" fill="#35C5E8"/>
</g>
<mask id="mask2_749_40900" style="mask-type:luminance" maskUnits="userSpaceOnUse" x="72" y="61" width="23" height="23">
<path d="M76.0821 76.0134C75.4724 74.9464 75.32 73.727 75.32 72.5076C75.32 68.2398 78.8257 64.734 83.0936 64.734C87.3614 64.734 90.8672 68.2398 90.8672 72.5076C90.8672 73.727 90.5623 74.9464 90.1051 76.0134C88.7332 78.6046 86.142 80.2812 83.0936 80.2812C80.0451 80.2812 77.3015 78.6046 76.0821 76.0134ZM72.2715 72.5076C72.2715 74.1843 72.7288 75.861 73.4909 77.3852C75.32 81.0434 79.1305 83.3297 83.246 83.3297C87.3614 83.3297 91.0196 81.0434 92.8487 77.3852C93.6108 75.861 94.0681 74.1843 94.0681 72.5076C94.0681 66.5631 89.1905 61.6855 83.246 61.6855C76.9966 61.6855 72.2715 66.5631 72.2715 72.5076Z" fill="white"/>
</mask>
<g mask="url(#mask2_749_40900)">
<path d="M104.738 72.5074L83.0935 94.1516L61.2969 72.5074L83.0935 50.8633L104.738 72.5074Z" fill="#35C5E8"/>
</g>
<mask id="mask3_749_40900" style="mask-type:luminance" maskUnits="userSpaceOnUse" x="71" y="82" width="34" height="22">
<path d="M72.2731 86.0721C71.511 86.5294 71.3585 87.444 71.8158 88.0537C72.2731 88.8158 73.1876 88.9682 73.7973 88.5109C80.0467 84.7003 85.9912 84.7003 92.2406 88.5109C95.5939 90.4924 99.5569 93.8458 100.929 101.924C101.081 102.686 101.691 103.144 102.453 103.144C102.605 103.144 102.605 103.144 102.758 103.144C103.52 102.991 104.13 102.229 103.977 101.467C102.758 94.303 99.5569 89.4255 93.9172 85.9197C90.2591 83.7858 86.7533 82.5664 83.0952 82.5664C79.437 82.7188 75.9313 83.9382 72.2731 86.0721Z" fill="white"/>
</mask>
<g mask="url(#mask3_749_40900)">
<path d="M114.19 93.0843L87.6683 119.606L60.9941 93.0843L87.6683 66.4102L114.19 93.0843Z" fill="#35C5E8"/>
</g>
<mask id="mask4_749_40900" style="mask-type:luminance" maskUnits="userSpaceOnUse" x="41" y="61" width="22" height="23">
<path d="M44.9903 76.0134C44.3806 74.9464 44.2282 73.727 44.2282 72.5076C44.2282 68.2398 47.7339 64.734 52.0018 64.734C56.2696 64.734 59.7754 68.2398 59.7754 72.5076C59.7754 73.727 59.4705 74.9464 59.0133 76.0134C57.6415 78.6046 55.0502 80.2812 52.0018 80.2812C48.9533 80.2812 46.2097 78.757 44.9903 76.0134ZM41.1797 72.5076C41.1797 74.1843 41.637 75.861 42.3991 77.3852C44.2282 81.0434 47.8863 83.3297 52.0018 83.3297C56.1172 83.3297 59.7754 81.0434 61.7569 77.3852C62.519 75.861 62.9763 74.1843 62.9763 72.5076C62.9763 66.5631 58.0987 61.6855 52.1542 61.6855C45.9048 61.6855 41.1797 66.5631 41.1797 72.5076Z" fill="white"/>
</mask>
<g mask="url(#mask4_749_40900)">
<path d="M73.6458 72.5074L52.0017 94.1516L30.2051 72.5074L52.0017 50.8633L73.6458 72.5074Z" fill="#35C5E8"/>
</g>
<mask id="mask5_749_40900" style="mask-type:luminance" maskUnits="userSpaceOnUse" x="31" y="82" width="42" height="22">
<path d="M41.1772 86.072C35.5375 89.4253 32.3367 94.4553 31.1173 101.619C30.9648 102.381 31.5745 103.143 32.3367 103.296C32.4891 103.296 32.4891 103.296 32.6415 103.296C33.4036 103.296 34.0133 102.839 34.1657 102.076C35.5376 93.998 39.5006 90.6447 42.8539 88.6632C49.1033 84.8526 55.0478 84.8526 61.2972 88.6632C64.6505 90.6447 68.6135 93.998 69.9853 102.076C70.1377 102.839 70.8999 103.448 71.662 103.296C72.4241 103.143 73.0338 102.381 72.8814 101.619C71.662 94.4553 68.4611 89.5777 62.8214 86.072C59.3157 83.9381 55.6575 82.8711 51.9993 82.8711C48.3411 82.8711 44.683 83.9381 41.1772 86.072Z" fill="white"/>
</mask>
<g mask="url(#mask5_749_40900)">
<path d="M83.2458 93.0828L51.9989 124.482L20.5996 93.0828L51.9989 61.8359L83.2458 93.0828Z" fill="#35C5E8"/>
</g>
<mask id="mask6_749_40900" style="mask-type:luminance" maskUnits="userSpaceOnUse" x="8" y="2" width="87" height="55">
<path d="M11.7594 53.302V5.5934H92.0867V53.4544C92.0867 53.6069 91.9343 53.7593 91.7819 53.7593H12.0643C11.9118 53.6069 11.7594 53.6069 11.7594 53.302ZM11.607 2.54492C10.0828 2.54492 8.71094 3.76431 8.71094 5.44097V53.4544C8.71094 55.2835 10.2352 56.6553 11.9118 56.6553H91.6294C93.4585 56.6553 94.8303 55.1311 94.8303 53.4544V5.44097C94.8303 3.91674 93.611 2.54492 91.9343 2.54492H11.607Z" fill="white"/>
</mask>
<g mask="url(#mask6_749_40900)">
<path d="M122.115 29.5231L51.8473 99.7904L-18.2676 29.5231L51.8473 -40.5918L122.115 29.5231Z" fill="#35C5E8"/>
</g>
<mask id="mask7_749_40900" style="mask-type:luminance" maskUnits="userSpaceOnUse" x="45" y="19" width="18" height="20">
<path d="M48.3414 23.7326L57.6392 29.5247L48.3414 34.7071V23.7326ZM46.2074 19.7696C45.7502 20.0745 45.4453 20.5317 45.4453 21.1414V37.2983C45.4453 37.7556 45.7502 38.3653 46.2074 38.5177C46.5123 38.6702 46.6647 38.6702 46.9695 38.6702C47.2744 38.6702 47.4268 38.6702 47.7317 38.5177L61.4498 30.8965C61.9071 30.5917 62.2119 30.1344 62.2119 29.6772C62.2119 29.2199 61.9071 28.6102 61.4498 28.3053L47.7317 19.7696C47.4268 19.6172 47.2744 19.6172 46.9695 19.6172C46.6647 19.6172 46.3599 19.6172 46.2074 19.7696Z" fill="white"/>
</mask>
<g mask="url(#mask7_749_40900)">
<path d="M71.8138 29.2204L53.8278 47.2064L35.8418 29.2204L53.8278 11.2344L71.8138 29.2204Z" fill="#35C5E8"/>
</g>
</g>
<defs>
<clipPath id="clip0_749_40900">
<rect width="104" height="104" fill="white" transform="translate(0 0.933594)"/>
</clipPath>
</defs>
</svg>
