<svg width="104" height="104" viewBox="0 0 104 104" fill="none" xmlns="http://www.w3.org/2000/svg">
<g id="Documentation &#38; Media Production" clip-path="url(#clip0_78_987)">
<g id="Group">
<g id="Group_2">
<g id="Clip path group">
<mask id="mask0_78_987" style="mask-type:luminance" maskUnits="userSpaceOnUse" x="9" y="60" width="23" height="23">
<g id="SVGID_2_">
<path id="Vector" d="M13.7422 75.0805C13.1325 74.0136 12.9801 72.7942 12.9801 71.5748C12.9801 67.3069 16.4859 63.8012 20.7537 63.8012C25.0216 63.8012 28.5273 67.3069 28.5273 71.5748C28.5273 72.7942 28.2225 74.0136 27.7652 75.0805C26.3934 77.6717 23.8022 79.3484 20.7537 79.3484C17.8577 79.3484 15.114 77.8241 13.7422 75.0805ZM9.93164 71.5748C9.93164 73.2514 10.3889 74.9281 11.151 76.4523C12.9801 80.1105 16.6383 82.3969 20.7537 82.3969C24.8692 82.3969 28.5273 80.1105 30.5088 76.4523C31.271 74.9281 31.7282 73.2514 31.7282 71.5748C31.7282 65.6302 26.8507 60.7527 20.9061 60.7527C14.8092 60.7527 9.93164 65.6302 9.93164 71.5748Z" fill="white"/>
</g>
</mask>
<g mask="url(#mask0_78_987)">
<path id="Vector_2" d="M42.5506 71.5746L20.754 93.2188L-0.890137 71.5746L20.754 49.9304L42.5506 71.5746Z" fill="url(#paint0_linear_78_987)"/>
</g>
</g>
</g>
<g id="Group_3">
<g id="Clip path group_2">
<mask id="mask1_78_987" style="mask-type:luminance" maskUnits="userSpaceOnUse" x="0" y="81" width="33" height="22">
<g id="SVGID_5_">
<path id="Vector_3" d="M10.0835 85.1402C4.4438 88.4935 1.2429 93.5235 0.0235131 100.687C-0.128911 101.45 0.480784 102.212 1.2429 102.364C1.39533 102.364 1.39533 102.364 1.54775 102.364C2.30987 102.364 2.91956 101.907 3.07199 101.145C4.4438 93.0662 8.40682 89.7129 11.7601 87.7314C18.0095 83.9208 23.954 83.9208 30.2034 87.7314C30.9655 88.1887 31.8801 87.8838 32.1849 87.2741C32.6422 86.512 32.3373 85.5975 31.7276 85.2926C28.0695 83.1587 24.5637 81.9393 20.9056 81.9393C17.2474 81.7869 13.7416 83.0063 10.0835 85.1402Z" fill="white"/>
</g>
</mask>
<g mask="url(#mask1_78_987)">
<path id="Vector_4" d="M42.8546 92.1519L16.1804 118.674L-10.3413 92.1519L16.1804 65.4778L42.8546 92.1519Z" fill="url(#paint1_linear_78_987)"/>
</g>
</g>
</g>
<g id="Group_4">
<g id="Clip path group_3">
<mask id="mask2_78_987" style="mask-type:luminance" maskUnits="userSpaceOnUse" x="72" y="60" width="23" height="23">
<g id="SVGID_8_">
<path id="Vector_5" d="M76.0831 75.0808C75.4734 74.0138 75.3209 72.7944 75.3209 71.575C75.3209 67.3071 78.8267 63.8014 83.0945 63.8014C87.3624 63.8014 90.8681 67.3071 90.8681 71.575C90.8681 72.7944 90.5633 74.0138 90.106 75.0808C88.7342 77.672 86.143 79.3486 83.0945 79.3486C80.0461 79.3486 77.3024 77.672 76.0831 75.0808ZM72.2725 71.575C72.2725 73.2517 72.7297 74.9283 73.4918 76.4526C75.3209 80.1107 79.1315 82.3971 83.247 82.3971C87.3624 82.3971 91.0206 80.1107 92.8497 76.4526C93.6118 74.9283 94.069 73.2517 94.069 71.575C94.069 65.6305 89.1915 60.7529 83.247 60.7529C76.9976 60.7529 72.2725 65.6305 72.2725 71.575Z" fill="white"/>
</g>
</mask>
<g mask="url(#mask2_78_987)">
<path id="Vector_6" d="M104.738 71.5748L83.094 93.219L61.2974 71.5748L83.094 49.9307L104.738 71.5748Z" fill="url(#paint2_linear_78_987)"/>
</g>
</g>
</g>
<g id="Group_5">
<g id="Clip path group_4">
<mask id="mask3_78_987" style="mask-type:luminance" maskUnits="userSpaceOnUse" x="71" y="81" width="33" height="22">
<g id="SVGID_11_">
<path id="Vector_7" d="M72.2726 85.1403C71.5105 85.5975 71.358 86.5121 71.8153 87.1218C72.2726 87.8839 73.1871 88.0363 73.7968 87.579C80.0462 83.7684 85.9907 83.7684 92.2401 87.579C95.5934 89.5605 99.5564 92.9139 100.928 100.992C101.081 101.754 101.69 102.212 102.452 102.212C102.605 102.212 102.605 102.212 102.757 102.212C103.519 102.059 104.129 101.297 103.977 100.535C102.757 93.3711 99.5564 88.4936 93.9168 84.9878C90.2586 82.8539 86.7528 81.6345 83.0947 81.6345C79.4365 81.7869 75.9308 83.0063 72.2726 85.1403Z" fill="white"/>
</g>
</mask>
<g mask="url(#mask3_78_987)">
<path id="Vector_8" d="M114.19 92.1519L87.6678 118.674L60.9937 92.1519L87.6678 65.4778L114.19 92.1519Z" fill="url(#paint3_linear_78_987)"/>
</g>
</g>
</g>
<g id="Group_6">
<g id="Clip path group_5">
<mask id="mask4_78_987" style="mask-type:luminance" maskUnits="userSpaceOnUse" x="41" y="60" width="22" height="23">
<g id="SVGID_14_">
<path id="Vector_9" d="M44.9888 75.0808C44.3791 74.0138 44.2267 72.7944 44.2267 71.575C44.2267 67.3071 47.7324 63.8014 52.0003 63.8014C56.2682 63.8014 59.7739 67.3071 59.7739 71.575C59.7739 72.7944 59.4691 74.0138 59.0118 75.0808C57.64 77.672 55.0488 79.3486 52.0003 79.3486C48.9518 79.3486 46.2082 77.8244 44.9888 75.0808ZM41.1782 71.575C41.1782 73.2517 41.6355 74.9283 42.3976 76.4526C44.2267 80.1107 47.8849 82.3971 52.0003 82.3971C56.1157 82.3971 59.7739 80.1107 61.7554 76.4526C62.5175 74.9283 62.9748 73.2517 62.9748 71.575C62.9748 65.6305 58.0973 60.7529 52.1527 60.7529C45.9034 60.7529 41.1782 65.6305 41.1782 71.575Z" fill="white"/>
</g>
</mask>
<g mask="url(#mask4_78_987)">
<path id="Vector_10" d="M73.6439 71.5748L51.9997 93.219L30.2031 71.5748L51.9997 49.9307L73.6439 71.5748Z" fill="url(#paint4_linear_78_987)"/>
</g>
</g>
</g>
<g id="Group_7">
<g id="Clip path group_6">
<mask id="mask5_78_987" style="mask-type:luminance" maskUnits="userSpaceOnUse" x="31" y="81" width="42" height="22">
<g id="SVGID_17_">
<path id="Vector_11" d="M41.1782 85.1403C35.5385 88.4937 32.3376 93.5237 31.1182 100.688C30.9658 101.45 31.5755 102.212 32.3376 102.364C32.4901 102.364 32.4901 102.364 32.6425 102.364C33.4046 102.364 34.0143 101.907 34.1667 101.145C35.5385 93.0664 39.5015 89.7131 42.8549 87.7316C49.1042 83.921 55.0488 83.921 61.2981 87.7316C64.6515 89.7131 68.6145 93.0664 69.9863 101.145C70.1387 101.907 70.9008 102.517 71.6629 102.364C72.4251 102.212 73.0348 101.45 72.8823 100.688C71.6629 93.5237 68.4621 88.6461 62.8224 85.1403C59.3166 83.0064 55.6585 81.9395 52.0003 81.9395C48.3421 81.9395 44.6839 83.0064 41.1782 85.1403Z" fill="white"/>
</g>
</mask>
<g mask="url(#mask5_78_987)">
<path id="Vector_12" d="M83.2467 92.1514L51.9999 123.551L20.6006 92.1514L51.9999 60.9045L83.2467 92.1514Z" fill="url(#paint5_linear_78_987)"/>
</g>
</g>
</g>
<g id="Group_8">
<g id="Clip path group_7">
<mask id="mask6_78_987" style="mask-type:luminance" maskUnits="userSpaceOnUse" x="8" y="1" width="87" height="55">
<g id="SVGID_20_">
<path id="Vector_13" d="M11.7594 52.3694V4.66078H92.0867V52.5218C92.0867 52.6742 91.9343 52.8267 91.7819 52.8267H12.0643C11.9118 52.6742 11.7594 52.6742 11.7594 52.3694ZM11.607 1.6123C10.0828 1.6123 8.71094 2.8317 8.71094 4.50836V52.5218C8.71094 54.3509 10.2352 55.7227 11.9118 55.7227H91.6294C93.4585 55.7227 94.8303 54.1985 94.8303 52.5218V4.50836C94.8303 2.98412 93.611 1.6123 91.9343 1.6123H11.607Z" fill="white"/>
</g>
</mask>
<g mask="url(#mask6_78_987)">
<path id="Vector_14" d="M122.115 28.5912L51.8473 98.8586L-18.2676 28.5912L51.8473 -41.5237L122.115 28.5912Z" fill="url(#paint6_linear_78_987)"/>
</g>
</g>
</g>
<g id="Group_9">
<g id="Clip path group_8">
<mask id="mask7_78_987" style="mask-type:luminance" maskUnits="userSpaceOnUse" x="45" y="18" width="18" height="20">
<g id="SVGID_23_">
<path id="Vector_15" d="M48.3414 22.7992L57.6392 28.5913L48.3414 33.7737V22.7992ZM46.2074 18.8361C45.7502 19.141 45.4453 19.5983 45.4453 20.208V36.3649C45.4453 36.8221 45.7502 37.4318 46.2074 37.5843C46.5123 37.7367 46.6647 37.7367 46.9695 37.7367C47.2744 37.7367 47.4268 37.7367 47.7317 37.5843L61.4498 29.9631C61.9071 29.6582 62.2119 29.2009 62.2119 28.7437C62.2119 28.2864 61.9071 27.6767 61.4498 27.3719L47.7317 18.8361C47.4268 18.6837 47.2744 18.6837 46.9695 18.6837C46.6647 18.6837 46.3599 18.6837 46.2074 18.8361Z" fill="white"/>
</g>
</mask>
<g mask="url(#mask7_78_987)">
<path id="Vector_16" d="M71.8148 28.2863L53.8288 46.2723L35.8428 28.2863L53.8288 10.3003L71.8148 28.2863Z" fill="url(#paint7_linear_78_987)"/>
</g>
</g>
</g>
</g>
</g>
<defs>
<linearGradient id="paint0_linear_78_987" x1="90.2275" y1="2.16914" x2="3.11777" y2="89.2788" gradientUnits="userSpaceOnUse">
<stop stop-color="white"/>
<stop offset="1" stop-color="#231F20"/>
</linearGradient>
<linearGradient id="paint1_linear_78_987" x1="98.2058" y1="10.1485" x2="11.0961" y2="97.2582" gradientUnits="userSpaceOnUse">
<stop stop-color="white"/>
<stop offset="1" stop-color="#231F20"/>
</linearGradient>
<linearGradient id="paint2_linear_78_987" x1="121.333" y1="33.2763" x2="34.2233" y2="120.386" gradientUnits="userSpaceOnUse">
<stop stop-color="white"/>
<stop offset="1" stop-color="#231F20"/>
</linearGradient>
<linearGradient id="paint3_linear_78_987" x1="133.921" y1="45.8635" x2="46.8117" y2="132.973" gradientUnits="userSpaceOnUse">
<stop stop-color="white"/>
<stop offset="1" stop-color="#231F20"/>
</linearGradient>
<linearGradient id="paint4_linear_78_987" x1="105.784" y1="17.7272" x2="18.6744" y2="104.837" gradientUnits="userSpaceOnUse">
<stop stop-color="white"/>
<stop offset="1" stop-color="#231F20"/>
</linearGradient>
<linearGradient id="paint5_linear_78_987" x1="116.115" y1="28.0578" x2="29.0057" y2="115.167" gradientUnits="userSpaceOnUse">
<stop stop-color="white"/>
<stop offset="1" stop-color="#231F20"/>
</linearGradient>
<linearGradient id="paint6_linear_78_987" x1="84.3377" y1="-3.71935" x2="-2.77199" y2="83.3903" gradientUnits="userSpaceOnUse">
<stop stop-color="white"/>
<stop offset="1" stop-color="#231F20"/>
</linearGradient>
<linearGradient id="paint7_linear_78_987" x1="85.0606" y1="-2.99642" x2="-2.04904" y2="84.1133" gradientUnits="userSpaceOnUse">
<stop stop-color="white"/>
<stop offset="1" stop-color="#231F20"/>
</linearGradient>
<clipPath id="clip0_78_987">
<rect width="104" height="104" fill="white"/>
</clipPath>
</defs>
</svg>
