<svg width="104" height="104" viewBox="0 0 104 104" fill="none" xmlns="http://www.w3.org/2000/svg">
<g id="Entertainment">
<g id="Group">
<g id="Group_2">
<g id="Clip path group">
<mask id="mask0_78_1207" style="mask-type:luminance" maskUnits="userSpaceOnUse" x="36" y="17" width="5" height="6">
<g id="SVGID_2_">
<path id="Vector" d="M36.3882 19.9517C36.3882 21.2085 37.3308 22.3082 38.5876 22.3082C39.8444 22.3082 40.787 21.2085 40.787 19.9517C40.787 18.6949 39.8444 17.5952 38.5876 17.5952C37.3308 17.5952 36.3882 18.6949 36.3882 19.9517Z" fill="white"/>
</g>
</mask>
<g mask="url(#mask0_78_1207)">
<path id="Vector_2" d="M43.144 19.7948L38.7452 24.3507L34.0322 19.9519L38.5881 15.396L43.144 19.7948Z" fill="url(#paint0_linear_78_1207)"/>
</g>
</g>
</g>
<g id="Group_3">
<g id="Clip path group_2">
<mask id="mask1_78_1207" style="mask-type:luminance" maskUnits="userSpaceOnUse" x="20" y="32" width="6" height="6">
<g id="SVGID_5_">
<path id="Vector_3" d="M20.8354 34.876C20.8354 36.1328 21.778 37.2325 23.0348 37.2325C24.2916 37.2325 25.2342 36.1328 25.2342 34.876C25.2342 33.6192 24.2916 32.5195 23.0348 32.5195C21.778 32.5195 20.8354 33.4621 20.8354 34.876Z" fill="white"/>
</g>
</mask>
<g mask="url(#mask1_78_1207)">
<path id="Vector_4" d="M27.5913 34.7189L23.0354 39.2748L18.4795 34.876L22.8783 30.3201L27.5913 34.7189Z" fill="url(#paint1_linear_78_1207)"/>
</g>
</g>
</g>
<g id="Group_4">
<g id="Clip path group_3">
<mask id="mask2_78_1207" style="mask-type:luminance" maskUnits="userSpaceOnUse" x="6" y="54" width="5" height="6">
<g id="SVGID_8_">
<path id="Vector_5" d="M6.53955 57.0274C6.53955 58.2842 7.48215 59.3839 8.73895 59.3839C9.99574 59.3839 10.9383 58.2842 10.9383 57.0274C10.9383 55.7706 9.99574 54.6709 8.73895 54.6709C7.48215 54.6709 6.53955 55.7706 6.53955 57.0274Z" fill="white"/>
</g>
</mask>
<g mask="url(#mask2_78_1207)">
<path id="Vector_6" d="M13.2945 56.87L8.89574 61.583L4.33984 57.0271L8.73864 52.4712L13.2945 56.87Z" fill="url(#paint2_linear_78_1207)"/>
</g>
</g>
</g>
<g id="Group_5">
<g id="Clip path group_4">
<mask id="mask3_78_1207" style="mask-type:luminance" maskUnits="userSpaceOnUse" x="13" y="72" width="6" height="6">
<g id="SVGID_11_">
<path id="Vector_7" d="M13.6084 74.9366C13.6084 76.1934 14.551 77.2931 15.8078 77.2931C17.0646 77.2931 18.0072 76.1934 18.0072 74.9366C18.0072 73.6798 17.0646 72.5801 15.8078 72.5801C14.551 72.5801 13.6084 73.6798 13.6084 74.9366Z" fill="white"/>
</g>
</mask>
<g mask="url(#mask3_78_1207)">
<path id="Vector_8" d="M20.3639 74.7794L15.9651 79.4924L11.4092 74.9365L15.808 70.3806L20.3639 74.7794Z" fill="url(#paint3_linear_78_1207)"/>
</g>
</g>
</g>
<g id="Group_6">
<g id="Clip path group_5">
<mask id="mask4_78_1207" style="mask-type:luminance" maskUnits="userSpaceOnUse" x="61" y="86" width="6" height="5">
<g id="SVGID_14_">
<path id="Vector_9" d="M61.6816 88.6043C61.6816 89.8611 62.6242 90.9608 63.881 90.9608C65.1378 90.9608 66.0804 89.8611 66.0804 88.6043C66.0804 87.3475 65.1378 86.2478 63.881 86.2478C62.6242 86.4049 61.6816 87.3475 61.6816 88.6043Z" fill="white"/>
</g>
</mask>
<g mask="url(#mask4_78_1207)">
<path id="Vector_10" d="M68.436 88.6041L64.0372 93.16L59.3242 88.7612L63.8801 84.2053L68.436 88.6041Z" fill="url(#paint4_linear_78_1207)"/>
</g>
</g>
</g>
<g id="Group_7">
<g id="Clip path group_6">
<mask id="mask5_78_1207" style="mask-type:luminance" maskUnits="userSpaceOnUse" x="36" y="81" width="5" height="6">
<g id="SVGID_17_">
<path id="Vector_11" d="M36.2305 84.0481C36.2305 85.3049 37.1731 86.4046 38.4299 86.4046C39.6867 86.4046 40.6293 85.3049 40.6293 84.0481C40.6293 82.7913 39.6867 81.6917 38.4299 81.6917C37.1731 81.8488 36.2305 82.7913 36.2305 84.0481Z" fill="white"/>
</g>
</mask>
<g mask="url(#mask5_78_1207)">
<path id="Vector_12" d="M42.9863 84.0482L38.4304 88.6041L33.8745 84.2053L38.2733 79.6494L42.9863 84.0482Z" fill="url(#paint5_linear_78_1207)"/>
</g>
</g>
</g>
<g id="Group_8">
<g id="Clip path group_7">
<mask id="mask6_78_1207" style="mask-type:luminance" maskUnits="userSpaceOnUse" x="94" y="65" width="5" height="6">
<g id="SVGID_20_">
<path id="Vector_13" d="M94.0439 68.024C94.0439 69.2808 94.9865 70.3805 96.2433 70.3805C97.5001 70.3805 98.4427 69.2808 98.4427 68.024C98.4427 66.7672 97.5001 65.6675 96.2433 65.6675C94.9865 65.8246 94.0439 66.7672 94.0439 68.024Z" fill="white"/>
</g>
</mask>
<g mask="url(#mask6_78_1207)">
<path id="Vector_14" d="M100.8 68.0246L96.401 72.5805L91.688 68.1817L96.2439 63.4688L100.8 68.0246Z" fill="url(#paint6_linear_78_1207)"/>
</g>
</g>
</g>
<g id="Group_9">
<g id="Clip path group_8">
<mask id="mask7_78_1207" style="mask-type:luminance" maskUnits="userSpaceOnUse" x="87" y="40" width="5" height="6">
<g id="SVGID_23_">
<path id="Vector_15" d="M87.4453 42.8882C87.4453 44.145 88.3879 45.2447 89.6447 45.2447C90.9015 45.2447 91.8441 44.145 91.8441 42.8882C91.8441 41.6314 90.9015 40.5317 89.6447 40.5317C88.3879 40.5317 87.4453 41.6314 87.4453 42.8882Z" fill="white"/>
</g>
</mask>
<g mask="url(#mask7_78_1207)">
<path id="Vector_16" d="M94.044 42.7311L89.6452 47.287L85.0894 42.8882L89.4881 38.3323L94.044 42.7311Z" fill="url(#paint7_linear_78_1207)"/>
</g>
</g>
</g>
<g id="Group_10">
<g id="Clip path group_9">
<mask id="mask8_78_1207" style="mask-type:luminance" maskUnits="userSpaceOnUse" x="65" y="13" width="5" height="6">
<g id="SVGID_26_">
<path id="Vector_17" d="M65.1377 16.1814C65.1377 17.4382 66.0803 18.5379 67.3371 18.5379C68.5939 18.5379 69.5365 17.4382 69.5365 16.1814C69.5365 14.9246 68.5939 13.825 67.3371 13.825C66.2374 13.9821 65.1377 14.9246 65.1377 16.1814Z" fill="white"/>
</g>
</mask>
<g mask="url(#mask8_78_1207)">
<path id="Vector_18" d="M71.8932 16.1815L67.4944 20.7374L62.9385 16.3386L67.3373 11.7827L71.8932 16.1815Z" fill="url(#paint8_linear_78_1207)"/>
</g>
</g>
</g>
<g id="Group_11">
<g id="Clip path group_10">
<mask id="mask9_78_1207" style="mask-type:luminance" maskUnits="userSpaceOnUse" x="42" y="88" width="15" height="15">
<g id="SVGID_29_">
<path id="Vector_19" d="M42.9863 95.5166H44.7144H42.9863ZM49.7416 90.3323C49.7416 93.1601 47.5422 95.5166 44.7144 95.5166C47.5422 95.5166 49.7416 97.8731 49.7416 100.701V102.429V100.701C49.7416 97.8731 51.941 95.5166 54.7688 95.5166H56.4969H54.7688C51.941 95.5166 49.7416 93.3172 49.7416 90.3323V88.6042V90.3323Z" fill="white"/>
</g>
</mask>
<g mask="url(#mask9_78_1207)">
<path id="Vector_20" d="M63.2526 95.3593L49.8991 109.027L36.2314 95.8306L49.4278 82.0059L63.2526 95.3593Z" fill="url(#paint9_linear_78_1207)"/>
</g>
</g>
</g>
<g id="Group_12">
<g id="Clip path group_11">
<mask id="mask10_78_1207" style="mask-type:luminance" maskUnits="userSpaceOnUse" x="41" y="87" width="17" height="17">
<g id="SVGID_32_">
<path id="Vector_21" d="M48.7992 95.5166C49.1134 95.2024 49.4276 94.8882 49.7418 94.574C50.056 94.8882 50.3702 95.2024 50.6844 95.5166C50.3702 95.8308 50.056 96.145 49.7418 96.4592C49.4276 96.145 49.1134 95.8308 48.7992 95.5166ZM48.1708 88.6042V90.3323C48.1708 92.3746 46.5998 93.9456 44.5575 93.9456H42.8294C42.0439 93.9456 41.4155 94.574 41.4155 95.5166C41.4155 96.3021 42.0439 97.0876 42.8294 97.0876H44.5575C46.4427 97.0876 48.1708 98.6586 48.1708 100.701V102.429C48.1708 103.214 48.7992 104 49.5847 104C50.3702 104 50.9986 103.372 50.9986 102.429V100.701C50.9986 98.6586 52.5696 97.0876 54.6119 97.0876H56.34C57.1255 97.0876 57.7539 96.4592 57.7539 95.5166C57.7539 94.7311 57.1255 93.9456 56.34 93.9456H54.6119C52.7267 93.9456 50.9986 92.3746 50.9986 90.3323V88.6042C50.9986 87.8187 50.3702 87.0332 49.5847 87.0332C48.7992 87.0332 48.1708 87.8187 48.1708 88.6042Z" fill="white"/>
</g>
</mask>
<g mask="url(#mask10_78_1207)">
<path id="Vector_22" d="M66.0799 95.2023L49.8987 112.012L33.2461 95.8307L49.4274 79.021L66.0799 95.2023Z" fill="url(#paint10_linear_78_1207)"/>
</g>
</g>
</g>
<g id="Group_13">
<g id="Clip path group_12">
<mask id="mask11_78_1207" style="mask-type:luminance" maskUnits="userSpaceOnUse" x="86" y="78" width="7" height="7">
<g id="SVGID_35_">
<path id="Vector_23" d="M87.2884 84.2051L86.5029 84.9906L87.2884 84.2051ZM92.0014 84.2051L92.7869 84.9906L92.0014 84.2051ZM92.0014 79.3351C90.7446 80.749 88.5452 80.749 87.2884 79.3351L86.5029 78.5496L87.2884 79.3351C88.5452 80.749 88.5452 82.7912 87.2884 84.2051C88.5452 82.9483 90.5875 82.7912 92.0014 84.2051C90.5875 82.7912 90.7446 80.749 92.0014 79.3351L92.7869 78.5496L92.0014 79.3351Z" fill="white"/>
</g>
</mask>
<g mask="url(#mask11_78_1207)">
<path id="Vector_24" d="M95.9282 81.6919L89.6442 88.133L83.2031 81.849L89.4871 75.408L95.9282 81.6919Z" fill="url(#paint11_linear_78_1207)"/>
</g>
</g>
</g>
<g id="Group_14">
<g id="Clip path group_13">
<mask id="mask12_78_1207" style="mask-type:luminance" maskUnits="userSpaceOnUse" x="84" y="76" width="11" height="11">
<g id="SVGID_38_">
<path id="Vector_25" d="M91.6869 77.4505L90.9014 78.236C90.1159 79.0215 89.0162 79.0215 88.2307 78.236L87.4452 77.4505C87.131 77.1363 86.8168 76.9792 86.3455 76.9792C85.7171 76.9792 85.2458 77.2934 85.0887 77.9218C84.9316 78.5502 84.9316 79.1786 85.4029 79.4928L86.1884 80.2783C86.5026 80.5925 86.8168 81.0638 86.8168 81.6922C86.8168 82.1635 86.6597 82.6348 86.1884 83.1061L85.4029 83.8916C85.0887 84.2058 84.9316 84.52 84.9316 84.9913C84.9316 85.3055 85.0887 85.7768 85.4029 86.091C86.0313 86.7194 86.8168 86.7194 87.4452 86.091L88.2307 85.3055C89.0162 84.52 90.1159 84.52 90.9014 85.3055L91.6869 86.091C92.0011 86.4052 92.3153 86.5623 92.7866 86.5623C93.1008 86.5623 93.415 86.4052 93.7292 86.2481C94.3576 85.7768 94.5147 84.9913 94.0434 84.3629C94.0434 84.2058 93.8863 84.2058 93.7292 84.0487L92.9437 83.2632C92.6295 82.949 92.4724 82.4777 92.4724 82.0064C92.4724 81.5351 92.6295 81.0638 93.1008 80.5925L93.8863 79.807C94.2005 79.4928 94.3576 79.1786 94.3576 78.7073C94.3576 78.3931 94.2005 77.9218 93.8863 77.6076C93.5721 77.2934 93.2579 77.1363 92.7866 77.1363C92.3153 77.1363 92.0011 77.1363 91.6869 77.4505Z" fill="white"/>
</g>
</mask>
<g mask="url(#mask12_78_1207)">
<path id="Vector_26" d="M99.2272 81.6922L89.8012 91.4324L80.061 82.0064L89.487 72.4233L99.2272 81.6922Z" fill="url(#paint12_linear_78_1207)"/>
</g>
</g>
</g>
<g id="Group_15">
<g id="Clip path group_14">
<mask id="mask13_78_1207" style="mask-type:luminance" maskUnits="userSpaceOnUse" x="87" y="24" width="10" height="10">
<g id="SVGID_41_">
<path id="Vector_27" d="M87.4453 29.0637H88.545H87.4453ZM91.8441 25.6075C91.8441 27.4927 90.4302 29.0637 88.545 29.0637C90.4302 29.0637 91.8441 30.6347 91.8441 32.5199V33.6196V32.5199C91.8441 30.6347 93.258 29.0637 95.1432 29.0637H96.2429H95.1432C93.258 29.0637 91.8441 27.4927 91.8441 25.6075V24.5078V25.6075Z" fill="white"/>
</g>
</mask>
<g mask="url(#mask13_78_1207)">
<path id="Vector_28" d="M100.799 28.9065L92.0013 38.0183L82.7324 29.2207L91.6871 20.1089L100.799 28.9065Z" fill="url(#paint13_linear_78_1207)"/>
</g>
</g>
</g>
<g id="Group_16">
<g id="Clip path group_15">
<mask id="mask14_78_1207" style="mask-type:luminance" maskUnits="userSpaceOnUse" x="86" y="22" width="12" height="14">
<g id="SVGID_44_">
<path id="Vector_29" d="M90.431 24.5078V25.6075C90.431 26.7072 89.6455 27.4927 88.5458 27.4927H87.4461C86.6606 27.4927 86.0322 28.1211 86.0322 29.0637C86.0322 29.8492 86.6606 30.6347 87.4461 30.6347H88.5458C89.6455 30.6347 90.431 31.5773 90.431 32.5198V33.6195C90.431 34.405 91.0594 35.1905 91.8449 35.1905C92.6304 35.1905 93.2588 34.5621 93.2588 33.6195V32.5198C93.2588 31.4202 94.0443 30.6347 95.144 30.6347H96.2437C97.0292 30.6347 97.6576 30.0063 97.6576 29.0637C97.6576 28.2782 97.0292 27.4927 96.2437 27.4927H95.144C94.0443 27.4927 93.2588 26.5501 93.2588 25.6075V24.5078C93.2588 23.7223 92.6304 22.9368 91.8449 22.9368C91.0594 22.9368 90.431 23.7223 90.431 24.5078Z" fill="white"/>
</g>
</mask>
<g mask="url(#mask14_78_1207)">
<path id="Vector_30" d="M103.785 28.9065L92.0024 41.0032L79.9058 29.2207L91.6882 17.124L103.785 28.9065Z" fill="url(#paint14_linear_78_1207)"/>
</g>
</g>
</g>
<g id="Group_17">
<g id="Clip path group_16">
<mask id="mask15_78_1207" style="mask-type:luminance" maskUnits="userSpaceOnUse" x="9" y="8" width="10" height="10">
<g id="SVGID_47_">
<path id="Vector_31" d="M9.99561 13.039H11.0953H9.99561ZM14.3944 9.58285C14.3944 11.468 12.9805 13.039 11.0953 13.039C12.9805 13.039 14.3944 14.61 14.3944 16.4952V17.5949V16.4952C14.3944 14.61 15.8083 13.039 17.6935 13.039H18.7932H17.6935C15.8083 13.039 14.3944 11.468 14.3944 9.58285V8.48315V9.58285Z" fill="white"/>
</g>
</mask>
<g mask="url(#mask15_78_1207)">
<path id="Vector_32" d="M23.3498 12.8824L14.5522 21.9942L5.44043 13.1966L14.238 3.92773L23.3498 12.8824Z" fill="url(#paint15_linear_78_1207)"/>
</g>
</g>
</g>
<g id="Group_18">
<g id="Clip path group_17">
<mask id="mask16_78_1207" style="mask-type:luminance" maskUnits="userSpaceOnUse" x="8" y="6" width="13" height="14">
<g id="SVGID_50_">
<path id="Vector_33" d="M12.9808 8.48335V9.58305C12.9808 10.6827 12.0382 11.4682 11.0956 11.4682H9.99593C9.21043 11.4682 8.58203 12.0966 8.58203 13.0392C8.58203 13.8247 9.21043 14.6102 9.99593 14.6102H11.0956C12.1953 14.6102 12.9808 15.5528 12.9808 16.4954V17.5951C12.9808 18.3806 13.6092 19.1661 14.3947 19.1661C15.1802 19.1661 15.8086 18.5377 15.8086 17.5951V16.4954C15.8086 15.3957 16.5941 14.6102 17.6938 14.6102H18.7935C19.579 14.6102 20.2074 13.9818 20.2074 13.0392C20.2074 12.2537 19.579 11.4682 18.7935 11.4682H17.6938C16.5941 11.4682 15.8086 10.5256 15.8086 9.58305V8.48335C15.8086 7.69785 15.1802 6.91235 14.3947 6.91235C13.6092 6.91235 12.9808 7.54075 12.9808 8.48335Z" fill="white"/>
</g>
</mask>
<g mask="url(#mask16_78_1207)">
<path id="Vector_34" d="M26.3347 12.8826L14.5522 24.9793L2.45557 13.1968L14.238 1.1001L26.3347 12.8826Z" fill="url(#paint16_linear_78_1207)"/>
</g>
</g>
</g>
<g id="Group_19">
<g id="Clip path group_18">
<mask id="mask17_78_1207" style="mask-type:luminance" maskUnits="userSpaceOnUse" x="47" y="1" width="10" height="10">
<g id="SVGID_53_">
<path id="Vector_35" d="M47.542 6.12694H48.6417H47.542ZM51.9408 2.67074C51.9408 4.55594 50.5269 6.12694 48.6417 6.12694C50.5269 6.12694 51.9408 7.69793 51.9408 9.58313V10.6828V9.58313C51.9408 7.69793 53.3547 6.12694 55.2399 6.12694H56.3396H55.2399C53.3547 6.12694 51.9408 4.55594 51.9408 2.67074V1.57104V2.67074Z" fill="white"/>
</g>
</mask>
<g mask="url(#mask17_78_1207)">
<path id="Vector_36" d="M60.8956 5.9697L52.098 15.2386L42.8291 6.2839L51.7838 -2.82788L60.8956 5.9697Z" fill="url(#paint17_linear_78_1207)"/>
</g>
</g>
</g>
<g id="Group_20">
<g id="Clip path group_19">
<mask id="mask18_78_1207" style="mask-type:luminance" maskUnits="userSpaceOnUse" x="46" y="0" width="12" height="13">
<g id="SVGID_56_">
<path id="Vector_37" d="M50.5277 1.571V2.6707C50.5277 3.77039 49.7422 4.55589 48.6425 4.55589H47.5428C46.7573 4.55589 46.1289 5.18429 46.1289 6.12689C46.1289 6.91239 46.7573 7.69789 47.5428 7.69789H48.6425C49.7422 7.69789 50.5277 8.64048 50.5277 9.58308V10.6828C50.5277 11.4683 51.1561 12.2538 51.9416 12.2538C52.7271 12.2538 53.3555 11.6254 53.3555 10.6828V9.58308C53.3555 8.48338 54.141 7.69789 55.2407 7.69789H56.3404C57.1259 7.69789 57.7543 7.06949 57.7543 6.12689C57.7543 5.34139 57.1259 4.55589 56.3404 4.55589H55.2407C54.141 4.55589 53.3555 3.61329 53.3555 2.6707V1.571C53.3555 0.785498 52.7271 0 51.9416 0C51.1561 0 50.5277 0.785498 50.5277 1.571Z" fill="white"/>
</g>
</mask>
<g mask="url(#mask18_78_1207)">
<path id="Vector_38" d="M63.8816 5.96998L52.0991 18.0667L40.0024 6.28417L51.6278 -5.8125L63.8816 5.96998Z" fill="url(#paint18_linear_78_1207)"/>
</g>
</g>
</g>
<g id="Group_21">
<g id="Clip path group_20">
<mask id="mask19_78_1207" style="mask-type:luminance" maskUnits="userSpaceOnUse" x="12" y="86" width="9" height="10">
<g id="SVGID_59_">
<path id="Vector_39" d="M12.0376 90.9607H13.1373H12.0376ZM16.4364 87.5045C16.4364 89.3897 15.0225 90.9607 13.1373 90.9607C15.0225 90.9607 16.4364 92.5317 16.4364 94.4169V95.5166V94.4169C16.4364 92.5317 17.8503 90.9607 19.7355 90.9607H20.8352H19.7355C17.8503 90.9607 16.4364 89.3897 16.4364 87.5045V86.4048V87.5045Z" fill="white"/>
</g>
</mask>
<g mask="url(#mask19_78_1207)">
<path id="Vector_40" d="M25.3913 90.8034L16.5937 99.9152L7.48193 91.1176L16.2795 82.0059L25.3913 90.8034Z" fill="url(#paint19_linear_78_1207)"/>
</g>
</g>
</g>
<g id="Group_22">
<g id="Clip path group_21">
<mask id="mask20_78_1207" style="mask-type:luminance" maskUnits="userSpaceOnUse" x="10" y="84" width="13" height="14">
<g id="SVGID_62_">
<path id="Vector_41" d="M15.0228 86.4047V87.5044C15.0228 88.6041 14.2373 89.3896 13.1376 89.3896H12.0379C11.2524 89.3896 10.624 90.018 10.624 90.9606C10.624 91.7461 11.2524 92.5316 12.0379 92.5316H13.1376C14.2373 92.5316 15.0228 93.4742 15.0228 94.4168V95.5165C15.0228 96.302 15.6512 97.0875 16.4367 97.0875C17.2222 97.0875 17.8506 96.4591 17.8506 95.5165V94.4168C17.8506 93.3171 18.6361 92.5316 19.7358 92.5316H20.8355C21.621 92.5316 22.2494 91.9032 22.2494 90.9606C22.2494 90.1751 21.621 89.3896 20.8355 89.3896H19.7358C18.6361 89.3896 17.8506 88.447 17.8506 87.5044V86.4047C17.8506 85.6192 17.2222 84.8337 16.4367 84.8337C15.6512 84.8337 15.0228 85.6192 15.0228 86.4047Z" fill="white"/>
</g>
</mask>
<g mask="url(#mask20_78_1207)">
<path id="Vector_42" d="M28.3767 90.804L16.5942 102.901L4.49756 91.1182L16.28 79.0215L28.3767 90.804Z" fill="url(#paint20_linear_78_1207)"/>
</g>
</g>
</g>
<g id="Group_23">
<g id="Clip path group_22">
<mask id="mask21_78_1207" style="mask-type:luminance" maskUnits="userSpaceOnUse" x="50" y="16" width="4" height="28">
<g id="SVGID_65_">
<path id="Vector_43" d="M50.5273 17.5952V41.7885C50.5273 42.574 51.1557 43.3595 51.9412 43.3595C52.7267 43.3595 53.3551 42.7311 53.3551 41.7885V17.5952C53.3551 16.8097 52.7267 16.0242 51.9412 16.0242C51.1557 16.1813 50.5273 16.8097 50.5273 17.5952Z" fill="white"/>
</g>
</mask>
<g mask="url(#mask21_78_1207)">
<path id="Vector_44" d="M66.8649 29.2206L51.9405 44.7735L36.8589 30.1632L51.7834 14.6104L66.8649 29.2206Z" fill="url(#paint21_linear_78_1207)"/>
</g>
</g>
</g>
<g id="Group_24">
<g id="Clip path group_23">
<mask id="mask22_78_1207" style="mask-type:luminance" maskUnits="userSpaceOnUse" x="76" y="19" width="8" height="7">
<g id="SVGID_68_">
<path id="Vector_45" d="M80.8474 19.6373L77.3912 23.2506C76.7628 23.879 76.7628 24.8216 77.3912 25.2929C77.7054 25.6071 78.0196 25.7642 78.4909 25.7642C78.8051 25.7642 79.2764 25.6071 79.5906 25.2929L83.0468 21.6796C83.6752 21.0512 83.6752 20.1086 83.0468 19.6373C82.7326 19.3231 82.4184 19.166 81.9471 19.166C81.4758 19.3231 81.0045 19.4802 80.8474 19.6373Z" fill="white"/>
</g>
</mask>
<g mask="url(#mask22_78_1207)">
<path id="Vector_46" d="M86.6602 22.4646L80.2192 29.2199L73.4639 22.6217L79.905 15.8665L86.6602 22.4646Z" fill="url(#paint22_linear_78_1207)"/>
</g>
</g>
</g>
<g id="Group_25">
<g id="Clip path group_24">
<mask id="mask23_78_1207" style="mask-type:luminance" maskUnits="userSpaceOnUse" x="57" y="29" width="17" height="18">
<g id="SVGID_71_">
<path id="Vector_47" d="M71.1078 29.8487L57.5973 43.6735C56.9689 44.3019 56.9689 45.2445 57.5973 45.7158C57.9115 46.03 58.2257 46.1871 58.697 46.1871C59.0112 46.1871 59.4825 46.03 59.7967 45.7158L73.3072 31.891C73.9356 31.2626 73.9356 30.32 73.3072 29.8487C72.993 29.5345 72.6788 29.3774 72.2075 29.3774C71.7362 29.3774 71.2649 29.5345 71.1078 29.8487Z" fill="white"/>
</g>
</mask>
<g mask="url(#mask23_78_1207)">
<path id="Vector_48" d="M82.1048 37.5467L65.6093 54.5135L48.6426 38.018L64.9809 21.0513L82.1048 37.5467Z" fill="url(#paint23_linear_78_1207)"/>
</g>
</g>
</g>
<g id="Group_26">
<g id="Clip path group_25">
<mask id="mask24_78_1207" style="mask-type:luminance" maskUnits="userSpaceOnUse" x="96" y="50" width="7" height="4">
<g id="SVGID_74_">
<path id="Vector_49" d="M97.9715 50.429C97.186 50.429 96.5576 51.0574 96.5576 52C96.5576 52.7855 97.186 53.5709 97.9715 53.5709H100.799C101.585 53.5709 102.213 52.9426 102.213 52C102.213 51.2145 101.585 50.429 100.799 50.429H97.9715Z" fill="white"/>
</g>
</mask>
<g mask="url(#mask24_78_1207)">
<path id="Vector_50" d="M103.627 51.9999L99.3851 56.2416L94.9863 51.9999L99.228 47.6011L103.627 51.9999Z" fill="url(#paint24_linear_78_1207)"/>
</g>
</g>
</g>
<g id="Group_27">
<g id="Clip path group_26">
<mask id="mask25_78_1207" style="mask-type:luminance" maskUnits="userSpaceOnUse" x="82" y="50" width="10" height="4">
<g id="SVGID_77_">
<path id="Vector_51" d="M84.1463 50.429C83.3608 50.429 82.7324 51.0574 82.7324 52C82.7324 52.7855 83.3608 53.5709 84.1463 53.5709H89.959C90.7445 53.5709 91.3729 52.9426 91.3729 52C91.3729 51.2145 90.7445 50.429 89.959 50.429H84.1463Z" fill="white"/>
</g>
</mask>
<g mask="url(#mask25_78_1207)">
<path id="Vector_52" d="M92.9442 52.0004L87.2886 57.8131L81.3188 52.0004L86.9744 46.1877L92.9442 52.0004Z" fill="url(#paint25_linear_78_1207)"/>
</g>
</g>
</g>
<g id="Group_28">
<g id="Clip path group_27">
<mask id="mask26_78_1207" style="mask-type:luminance" maskUnits="userSpaceOnUse" x="60" y="50" width="19" height="4">
<g id="SVGID_80_">
<path id="Vector_53" d="M61.682 50.429C60.8965 50.429 60.2681 51.0574 60.2681 52C60.2681 52.7855 60.8965 53.5709 61.682 53.5709H77.3919C78.1774 53.5709 78.8058 52.9426 78.8058 52C78.8058 51.2145 78.1774 50.429 77.3919 50.429H61.682Z" fill="white"/>
</g>
</mask>
<g mask="url(#mask26_78_1207)">
<path id="Vector_54" d="M80.3765 52.0003L69.8509 62.8402L58.6968 52.0003L69.2225 41.1604L80.3765 52.0003Z" fill="url(#paint26_linear_78_1207)"/>
</g>
</g>
</g>
<g id="Group_29">
<g id="Clip path group_28">
<mask id="mask27_78_1207" style="mask-type:luminance" maskUnits="userSpaceOnUse" x="76" y="88" width="8" height="9">
<g id="SVGID_83_">
<path id="Vector_55" d="M76.9203 88.6042C76.2919 89.0755 76.1348 90.0181 76.6061 90.6465L80.5336 96.3021C80.8478 96.7734 81.3191 96.9305 81.7904 96.9305C82.1046 96.9305 82.4188 96.7734 82.5759 96.6163C83.2043 96.145 83.3614 95.2024 82.8901 94.574L78.9626 88.9184C78.6484 88.4471 78.1771 88.29 77.7058 88.29C77.3916 88.29 77.2345 88.4471 76.9203 88.6042Z" fill="white"/>
</g>
</mask>
<g mask="url(#mask27_78_1207)">
<path id="Vector_56" d="M87.6019 92.5317L79.7469 100.701L71.7349 92.8459L79.5898 84.6768L87.6019 92.5317Z" fill="url(#paint27_linear_78_1207)"/>
</g>
</g>
</g>
<g id="Group_30">
<g id="Clip path group_29">
<mask id="mask28_78_1207" style="mask-type:luminance" maskUnits="userSpaceOnUse" x="55" y="57" width="21" height="30">
<g id="SVGID_86_">
<path id="Vector_57" d="M56.3402 58.2837C55.7118 58.755 55.5547 59.6976 56.026 60.326L73.307 85.7761C73.6212 86.2474 74.0925 86.4045 74.5637 86.4045C74.8779 86.4045 75.1921 86.2474 75.3492 86.0903C75.9776 85.619 76.1347 84.6764 75.6634 84.048L58.2254 58.5979C57.9112 58.1266 57.4399 57.9695 56.9686 57.9695C56.8115 57.9695 56.4973 58.1266 56.3402 58.2837Z" fill="white"/>
</g>
</mask>
<g mask="url(#mask28_78_1207)">
<path id="Vector_58" d="M90.2734 71.6375L66.0801 96.6163L41.2583 72.7372L65.4517 47.7583L90.2734 71.6375Z" fill="url(#paint28_linear_78_1207)"/>
</g>
</g>
</g>
<g id="Group_31">
<g id="Clip path group_30">
<mask id="mask29_78_1207" style="mask-type:luminance" maskUnits="userSpaceOnUse" x="1" y="66" width="11" height="6">
<g id="SVGID_89_">
<path id="Vector_59" d="M9.52427 66.296L2.76898 68.8096C1.98348 69.1238 1.66928 69.9093 1.82638 70.6948C1.98348 71.3232 2.61188 71.6374 3.24028 71.6374C3.39738 71.6374 3.55448 71.6374 3.71158 71.4803L10.4669 68.9667C11.2524 68.6525 11.5666 67.867 11.4095 67.0815C11.2524 66.4531 10.624 66.1389 9.99557 66.1389C9.83847 66.296 9.68137 66.296 9.52427 66.296Z" fill="white"/>
</g>
</mask>
<g mask="url(#mask29_78_1207)">
<path id="Vector_60" d="M14.3947 68.9664L6.69678 76.6643L-1.1582 69.1235L6.38258 61.2686L14.3947 68.9664Z" fill="url(#paint29_linear_78_1207)"/>
</g>
</g>
</g>
<g id="Group_32">
<g id="Clip path group_31">
<mask id="mask30_78_1207" style="mask-type:luminance" maskUnits="userSpaceOnUse" x="15" y="55" width="26" height="12">
<g id="SVGID_92_">
<path id="Vector_61" d="M38.7455 55.6134L16.9086 63.6255C16.1231 63.9397 15.8089 64.7252 15.966 65.5107C16.1231 66.1391 16.7515 66.4533 17.3799 66.4533C17.537 66.4533 17.6941 66.4533 17.8512 66.2962L39.6881 58.4412C40.4736 58.127 40.7878 57.3415 40.6307 56.556C40.3165 55.9276 39.6881 55.4563 39.2168 55.4563C39.0597 55.4563 38.9026 55.6134 38.7455 55.6134Z" fill="white"/>
</g>
</mask>
<g mask="url(#mask30_78_1207)">
<path id="Vector_62" d="M46.2867 60.7978L28.6916 79.1785L10.1538 61.2691L27.749 42.8884L46.2867 60.7978Z" fill="url(#paint30_linear_78_1207)"/>
</g>
</g>
</g>
<g id="Group_33">
<g id="Clip path group_32">
<mask id="mask31_78_1207" style="mask-type:luminance" maskUnits="userSpaceOnUse" x="5" y="40" width="19" height="7">
<g id="SVGID_95_">
<path id="Vector_63" d="M5.12532 41.9453C4.96822 42.7308 5.43951 43.5163 6.22501 43.6734L21.4637 46.5012C21.6208 46.5012 21.6208 46.5012 21.7779 46.5012C22.4063 46.5012 23.0347 46.0299 23.1918 45.2444C23.3489 44.4589 22.8776 43.6734 22.0921 43.5163L6.85341 40.6885C6.69631 40.6885 6.69631 40.6885 6.53921 40.6885C5.91081 40.8456 5.28242 41.3169 5.12532 41.9453Z" fill="white"/>
</g>
</mask>
<g mask="url(#mask31_78_1207)">
<path id="Vector_64" d="M26.334 43.6736L14.5515 55.7703L2.14062 43.8307L13.9231 31.5769L26.334 43.6736Z" fill="url(#paint31_linear_78_1207)"/>
</g>
</g>
</g>
<g id="Group_34">
<g id="Clip path group_33">
<mask id="mask32_78_1207" style="mask-type:luminance" maskUnits="userSpaceOnUse" x="27" y="45" width="12" height="5">
<g id="SVGID_98_">
<path id="Vector_65" d="M27.1199 46.5019C26.9628 47.2874 27.4341 48.0729 28.2196 48.23L37.0172 49.9581C37.1743 49.9581 37.1743 49.9581 37.3314 49.9581C37.9598 49.9581 38.5882 49.4868 38.7453 48.7013C38.9024 47.9158 38.4311 47.1303 37.6456 46.9732L28.848 45.2451C28.6909 45.2451 28.6909 45.2451 28.5338 45.2451C27.9054 45.2451 27.277 45.7164 27.1199 46.5019Z" fill="white"/>
</g>
</mask>
<g mask="url(#mask32_78_1207)">
<path id="Vector_66" d="M41.2577 47.4443L33.2456 55.7706L24.7622 47.6014L32.7743 39.2751L41.2577 47.4443Z" fill="url(#paint32_linear_78_1207)"/>
</g>
</g>
</g>
<g id="Group_35">
<g id="Clip path group_34">
<mask id="mask33_78_1207" style="mask-type:luminance" maskUnits="userSpaceOnUse" x="20" y="56" width="28" height="29">
<g id="SVGID_101_">
<path id="Vector_67" d="M44.8711 57.1843L21.149 81.849C20.5206 82.4774 20.5206 83.42 21.149 83.8913C21.4632 84.2055 21.7774 84.3626 22.2487 84.3626C22.5629 84.3626 23.0342 84.2055 23.3484 83.8913L47.0705 59.3837C47.6989 58.7553 47.6989 57.8127 47.0705 57.3414C46.7563 57.0272 46.4421 56.8701 46.1279 56.8701C45.4995 56.8701 45.1853 57.0272 44.8711 57.1843Z" fill="white"/>
</g>
</mask>
<g mask="url(#mask33_78_1207)">
<path id="Vector_68" d="M61.3671 70.0663L34.5031 97.873L6.85352 71.0089L33.5605 43.3594L61.3671 70.0663Z" fill="url(#paint33_linear_78_1207)"/>
</g>
</g>
</g>
<g id="Group_36">
<g id="Clip path group_35">
<mask id="mask34_78_1207" style="mask-type:luminance" maskUnits="userSpaceOnUse" x="19" y="18" width="29" height="29">
<g id="SVGID_104_">
<path id="Vector_69" d="M19.8932 18.8519C19.2648 19.4803 19.2648 20.4229 19.8932 20.8942L44.5578 46.3444C44.872 46.6586 45.1862 46.8157 45.6575 46.8157C46.1288 46.8157 46.443 46.6586 46.7572 46.3444C47.3856 45.716 47.3856 44.7734 46.7572 44.3021L21.9355 18.8519C21.6213 18.5377 21.3071 18.3806 20.8358 18.3806C20.5216 18.3806 20.0503 18.5377 19.8932 18.8519Z" fill="white"/>
</g>
</mask>
<g mask="url(#mask34_78_1207)">
<path id="Vector_70" d="M61.367 32.2052L33.7175 60.7974L4.96826 33.1478L32.7749 4.55566L61.367 32.2052Z" fill="url(#paint34_linear_78_1207)"/>
</g>
</g>
</g>
<g id="Group_37">
<g id="Clip path group_36">
<mask id="mask35_78_1207" style="mask-type:luminance" maskUnits="userSpaceOnUse" x="50" y="61" width="4" height="23">
<g id="SVGID_107_">
<path id="Vector_71" d="M50.5273 63.4682V81.8489C50.5273 82.6344 51.1557 83.4199 51.9412 83.4199C52.7267 83.4199 53.3551 82.7915 53.3551 81.8489V63.4682C53.3551 62.6827 52.7267 61.8972 51.9412 61.8972C51.1557 61.8972 50.5273 62.6827 50.5273 63.4682Z" fill="white"/>
</g>
</mask>
<g mask="url(#mask35_78_1207)">
<path id="Vector_72" d="M64.0381 72.2664L51.9414 84.6772L39.8447 73.0519L51.7843 60.4839L64.0381 72.2664Z" fill="url(#paint35_linear_78_1207)"/>
</g>
</g>
</g>
<g id="Group_38">
<g id="Clip path group_37">
<mask id="mask36_78_1207" style="mask-type:luminance" maskUnits="userSpaceOnUse" x="82" y="67" width="7" height="6">
<g id="SVGID_110_">
<path id="Vector_73" d="M82.5765 68.3382C82.2623 69.1237 82.4194 69.9092 83.2049 70.3805L86.8182 72.2657C86.9753 72.4228 87.2895 72.4228 87.4466 72.4228C87.9179 72.4228 88.5463 72.1086 88.7034 71.6373C89.0176 70.8518 88.8605 70.0663 88.075 69.595L84.4617 67.7098C84.3046 67.5527 83.9904 67.5527 83.8333 67.5527C83.362 67.5527 82.7336 67.8669 82.5765 68.3382Z" fill="white"/>
</g>
</mask>
<g mask="url(#mask36_78_1207)">
<path id="Vector_74" d="M91.6881 69.9091L85.7183 76.036L79.7485 70.2233L85.5612 64.0964L91.6881 69.9091Z" fill="url(#paint36_linear_78_1207)"/>
</g>
</g>
</g>
<g id="Group_39">
<g id="Clip path group_38">
<mask id="mask37_78_1207" style="mask-type:luminance" maskUnits="userSpaceOnUse" x="64" y="57" width="16" height="11">
<g id="SVGID_113_">
<path id="Vector_75" d="M64.5096 58.755C64.1954 59.5405 64.3525 60.326 65.138 60.7973L77.706 67.3955C77.8631 67.5526 78.1773 67.5526 78.3344 67.5526C78.8057 67.5526 79.4341 67.2384 79.5912 66.7671C79.9054 65.9816 79.7483 65.1961 78.9628 64.7248L66.3948 58.1266C66.2377 57.9695 65.9235 57.9695 65.7664 57.9695C65.2951 57.9695 64.6667 58.2837 64.5096 58.755Z" fill="white"/>
</g>
</mask>
<g mask="url(#mask37_78_1207)">
<path id="Vector_76" d="M84.7744 62.6827L72.3635 75.5649L59.3242 62.9969L71.7351 50.1147L84.7744 62.6827Z" fill="url(#paint37_linear_78_1207)"/>
</g>
</g>
</g>
<g id="Group_40">
<g id="Clip path group_39">
<mask id="mask38_78_1207" style="mask-type:luminance" maskUnits="userSpaceOnUse" x="68" y="38" width="15" height="9">
<g id="SVGID_116_">
<path id="Vector_77" d="M80.0617 39.118L69.2218 43.9881C68.4363 44.3023 68.1221 45.2449 68.4363 45.8733C68.5934 46.5017 69.2218 46.8159 69.6931 46.8159C69.8502 46.8159 70.0073 46.8159 70.3215 46.6588L81.1614 41.7887C81.9469 41.4745 82.2611 40.5319 81.9469 39.9035C81.7898 39.2751 81.1614 38.9609 80.6901 38.9609C80.3759 38.9609 80.2188 39.118 80.0617 39.118Z" fill="white"/>
</g>
</mask>
<g mask="url(#mask38_78_1207)">
<path id="Vector_78" d="M86.1887 42.8881L75.3488 54.0422L64.0376 43.0452L74.8775 31.8911L86.1887 42.8881Z" fill="url(#paint38_linear_78_1207)"/>
</g>
</g>
</g>
<g id="Group_41">
<g id="Clip path group_40">
<mask id="mask39_78_1207" style="mask-type:luminance" maskUnits="userSpaceOnUse" x="85" y="10" width="8" height="7">
<g id="SVGID_119_">
<path id="Vector_79" d="M89.8021 10.84L86.1888 14.2961C85.5604 14.9245 85.5605 15.8671 86.0317 16.3384C86.3459 16.6526 86.6601 16.8097 87.1314 16.8097C87.4456 16.8097 87.7598 16.6526 88.074 16.3384L91.6873 12.8822C92.3157 12.2538 92.3157 11.3113 91.8444 10.84C91.5302 10.5258 91.216 10.3687 90.7447 10.3687C90.4305 10.3687 89.9592 10.5258 89.8021 10.84Z" fill="white"/>
</g>
</mask>
<g mask="url(#mask39_78_1207)">
<path id="Vector_80" d="M95.4581 13.5105L89.017 20.2658L82.2617 13.6676L88.8599 6.91235L95.4581 13.5105Z" fill="url(#paint39_linear_78_1207)"/>
</g>
</g>
</g>
<g id="Group_42">
<g id="Clip path group_41">
<mask id="mask40_78_1207" style="mask-type:luminance" maskUnits="userSpaceOnUse" x="39" y="24" width="7" height="12">
<g id="SVGID_122_">
<path id="Vector_81" d="M40.6295 25.1361C39.844 25.4503 39.5298 26.3929 39.844 27.0213L42.986 34.7192C43.3002 35.3476 43.7715 35.6618 44.2428 35.6618C44.3999 35.6618 44.557 35.6618 44.8712 35.5047C45.6567 35.1905 45.9709 34.2479 45.6567 33.6195L42.5147 25.9216C42.2005 25.2932 41.7292 24.979 41.2579 24.979C40.9437 24.979 40.7866 24.979 40.6295 25.1361Z" fill="white"/>
</g>
</mask>
<g mask="url(#mask40_78_1207)">
<path id="Vector_82" d="M51.4694 30.1633L42.9861 38.9609L34.1885 30.4775L42.6719 21.6799L51.4694 30.1633Z" fill="url(#paint40_linear_78_1207)"/>
</g>
</g>
</g>
<g id="Group_43">
<g id="Clip path group_42">
<mask id="mask41_78_1207" style="mask-type:luminance" maskUnits="userSpaceOnUse" x="31" y="5" width="7" height="10">
<g id="SVGID_125_">
<path id="Vector_83" d="M32.6178 5.9696C31.8323 6.2838 31.5181 7.0693 31.8323 7.8548L34.3459 13.9817C34.503 14.6101 35.1314 14.9243 35.6027 14.9243C35.7598 14.9243 35.9169 14.9243 36.2311 14.7672C37.0166 14.453 37.3308 13.5104 37.0166 12.882L34.503 6.7551C34.3459 6.1267 33.7175 5.8125 33.2462 5.8125C32.932 5.8125 32.7749 5.8125 32.6178 5.9696Z" fill="white"/>
</g>
</mask>
<g mask="url(#mask41_78_1207)">
<path id="Vector_84" d="M41.8864 10.2111L34.5027 17.7519L26.9619 10.5253L34.3456 2.82739L41.8864 10.2111Z" fill="url(#paint41_linear_78_1207)"/>
</g>
</g>
</g>
<g id="Group_44">
<g id="Clip path group_43">
<mask id="mask42_78_1207" style="mask-type:luminance" maskUnits="userSpaceOnUse" x="68" y="4" width="6" height="9">
<g id="SVGID_128_">
<path id="Vector_85" d="M71.4218 5.49839L69.0653 9.89718C68.7511 10.6827 68.9082 11.4682 69.6937 11.9395C69.8508 12.0966 70.165 12.0966 70.3221 12.0966C70.7934 12.0966 71.4218 11.7824 71.5789 11.3111L73.7783 6.91229C74.0925 6.12679 73.9354 5.34129 73.1499 4.86999C72.9928 4.71289 72.6786 4.71289 72.5215 4.71289C72.2073 4.71289 71.5789 4.86999 71.4218 5.49839Z" fill="white"/>
</g>
</mask>
<g mask="url(#mask42_78_1207)">
<path id="Vector_86" d="M78.0193 8.16875L71.5782 14.924L64.98 8.48295L71.4211 1.88477L78.0193 8.16875Z" fill="url(#paint42_linear_78_1207)"/>
</g>
</g>
</g>
<g id="Group_45">
<g id="Clip path group_44">
<mask id="mask43_78_1207" style="mask-type:luminance" maskUnits="userSpaceOnUse" x="57" y="21" width="9" height="15">
<g id="SVGID_131_">
<path id="Vector_87" d="M62.6245 22.6224L57.2831 32.991C56.9689 33.7765 57.126 34.562 57.9115 35.0333C58.0686 35.1904 58.3828 35.1904 58.5399 35.1904C59.0112 35.1904 59.4825 34.8762 59.7967 34.4049L65.1381 24.0363C65.4523 23.2508 65.2951 22.4653 64.5096 21.994C64.3526 21.8369 64.0384 21.8369 63.8813 21.8369C63.41 21.6798 62.9387 21.994 62.6245 22.6224Z" fill="white"/>
</g>
</mask>
<g mask="url(#mask43_78_1207)">
<path id="Vector_88" d="M72.2073 28.2781L61.3675 39.4322L50.2134 28.7494L61.0533 17.4382L72.2073 28.2781Z" fill="url(#paint43_linear_78_1207)"/>
</g>
</g>
</g>
<g id="Group_46">
<g id="Clip path group_45">
<mask id="mask44_78_1207" style="mask-type:luminance" maskUnits="userSpaceOnUse" x="31" y="88" width="6" height="10">
<g id="SVGID_134_">
<path id="Vector_89" d="M34.189 89.2328L31.3612 94.8884C31.047 95.6738 31.2041 96.4594 31.9896 96.9307C32.1467 97.0878 32.4609 97.0877 32.618 97.0877C33.0893 97.0877 33.7177 96.7735 33.8748 96.3022L36.7026 90.6467C37.0168 89.8612 36.8597 89.0757 36.0742 88.6044C35.9171 88.4473 35.6029 88.4473 35.4458 88.4473C34.9745 88.4473 34.3461 88.7615 34.189 89.2328Z" fill="white"/>
</g>
</mask>
<g mask="url(#mask44_78_1207)">
<path id="Vector_90" d="M41.4163 92.5316L34.1897 100.072L26.6489 92.8458L33.8755 85.4622L41.4163 92.5316Z" fill="url(#paint44_linear_78_1207)"/>
</g>
</g>
</g>
<g id="Group_47">
<g id="Clip path group_46">
<mask id="mask45_78_1207" style="mask-type:luminance" maskUnits="userSpaceOnUse" x="40" y="70" width="6" height="10">
<g id="SVGID_137_">
<path id="Vector_91" d="M43.1439 71.4803L40.159 77.4501C39.8448 78.2356 40.0019 79.0211 40.7874 79.4924C40.9445 79.6495 41.2587 79.6495 41.4158 79.6495C41.8871 79.6495 42.5155 79.3353 42.6726 78.864L45.6575 72.8942C45.9717 72.1087 45.8146 71.3232 45.0291 70.8519C44.872 70.6948 44.5578 70.6948 44.4007 70.6948C43.9294 70.6948 43.4581 71.009 43.1439 71.4803Z" fill="white"/>
</g>
</mask>
<g mask="url(#mask45_78_1207)">
<path id="Vector_92" d="M50.5277 75.0935L42.9869 82.7914L35.2891 75.4077L42.8298 67.5527L50.5277 75.0935Z" fill="url(#paint45_linear_78_1207)"/>
</g>
</g>
</g>
<g id="Group_48">
<g id="Clip path group_47">
<mask id="mask46_78_1207" style="mask-type:luminance" maskUnits="userSpaceOnUse" x="14" y="52" width="13" height="5">
<g id="SVGID_140_">
<path id="Vector_93" d="M25.0765 52.3141L16.1219 53.5709C15.3364 53.728 14.708 54.5135 14.8651 55.299C15.0222 56.0845 15.6506 56.5558 16.279 56.5558H16.4361L25.3907 55.1419C26.1762 54.9848 26.8046 54.1993 26.6475 53.4138C26.4904 52.6283 25.862 52.157 25.2336 52.157C25.2336 52.157 25.0765 52.157 25.0765 52.3141Z" fill="white"/>
</g>
</mask>
<g mask="url(#mask46_78_1207)">
<path id="Vector_94" d="M29.0047 54.3562L20.9927 62.5254L12.5093 54.5133L20.5214 46.187L29.0047 54.3562Z" fill="url(#paint46_linear_78_1207)"/>
</g>
</g>
</g>
<g id="Group_49">
<g id="Clip path group_48">
<mask id="mask47_78_1207" style="mask-type:luminance" maskUnits="userSpaceOnUse" x="9" y="28" width="9" height="7">
<g id="SVGID_143_">
<path id="Vector_95" d="M9.68102 28.9061C9.36682 29.6916 9.52392 30.4771 10.3094 30.9484L15.6508 34.0904C15.8079 34.2475 16.1221 34.2475 16.2792 34.2475C16.7505 34.2475 17.2218 33.9333 17.536 33.462C17.8502 32.6765 17.6931 31.891 16.9076 31.4197L11.5662 28.2777C11.4091 28.1206 11.0949 28.1206 10.9378 28.1206C10.4665 28.1206 9.99521 28.2777 9.68102 28.9061Z" fill="white"/>
</g>
</mask>
<g mask="url(#mask47_78_1207)">
<path id="Vector_96" d="M21.1492 30.9483L13.9226 38.4891L6.38184 31.2625L13.6084 23.7217L21.1492 30.9483Z" fill="url(#paint47_linear_78_1207)"/>
</g>
</g>
</g>
<g id="Group_50">
<g id="Clip path group_49">
<mask id="mask48_78_1207" style="mask-type:luminance" maskUnits="userSpaceOnUse" x="80" y="57" width="14" height="6">
<g id="SVGID_146_">
<path id="Vector_97" d="M80.2191 59.2263C80.062 60.0118 80.5333 60.7973 81.3188 60.9544L91.5302 62.9967C91.6873 62.9967 91.6873 62.9967 91.8444 62.9967C92.4728 62.9967 93.1012 62.5254 93.2583 61.7399C93.4154 60.9544 92.9441 60.1689 92.1586 60.0118L81.9472 57.9695C81.7901 57.9695 81.7901 57.9695 81.633 57.9695C81.0046 57.9695 80.3762 58.4408 80.2191 59.2263Z" fill="white"/>
</g>
</mask>
<g mask="url(#mask48_78_1207)">
<path id="Vector_98" d="M95.929 60.4834L86.9743 69.7522L77.5483 60.6405L86.503 51.3716L95.929 60.4834Z" fill="url(#paint48_linear_78_1207)"/>
</g>
</g>
</g>
<g id="Group_51">
<g id="Clip path group_50">
<mask id="mask49_78_1207" style="mask-type:luminance" maskUnits="userSpaceOnUse" x="65" y="93" width="5" height="9">
<g id="SVGID_149_">
<path id="Vector_99" d="M65.923 93.7881C65.1375 94.1023 64.8233 94.8878 65.1375 95.6733L66.8656 100.543C67.0227 101.172 67.6511 101.486 68.2795 101.486C68.4366 101.486 68.5937 101.486 68.7508 101.329C69.5363 101.015 69.8505 100.229 69.5363 99.4437L67.8082 94.7307C67.6511 94.1023 67.0227 93.7881 66.3943 93.7881C66.2372 93.7881 66.0801 93.7881 65.923 93.7881Z" fill="white"/>
</g>
</mask>
<g mask="url(#mask49_78_1207)">
<path id="Vector_100" d="M73.779 97.5584L67.3379 104.157L60.7397 97.8726L67.1808 91.2744L73.779 97.5584Z" fill="url(#paint49_linear_78_1207)"/>
</g>
</g>
</g>
<g id="Group_52">
<g id="Clip path group_51">
<mask id="mask50_78_1207" style="mask-type:luminance" maskUnits="userSpaceOnUse" x="58" y="76" width="6" height="8">
<g id="SVGID_152_">
<path id="Vector_101" d="M59.6388 76.8219C58.8533 77.1361 58.5391 77.9216 58.8533 78.7071L60.2672 82.7917C60.4243 83.4201 61.0527 83.7343 61.6811 83.7343C61.8382 83.7343 61.9953 83.7343 62.1524 83.5772C62.9379 83.263 63.2521 82.4775 62.9379 81.692L61.524 77.6074C61.3669 76.979 60.7385 76.6648 60.1101 76.6648C60.1101 76.6648 59.953 76.6648 59.6388 76.8219Z" fill="white"/>
</g>
</mask>
<g mask="url(#mask50_78_1207)">
<path id="Vector_102" d="M66.8665 80.121L61.0538 86.0908L55.084 80.2781L60.8967 74.3083L66.8665 80.121Z" fill="url(#paint50_linear_78_1207)"/>
</g>
</g>
</g>
</g>
</g>
<defs>
<linearGradient id="paint0_linear_78_1207" x1="70.5319" y1="-13.0262" x2="-5.01111" y2="65.2008" gradientUnits="userSpaceOnUse">
<stop stop-color="white"/>
<stop offset="1" stop-color="#231F20"/>
</linearGradient>
<linearGradient id="paint1_linear_78_1207" x1="69.914" y1="-13.6234" x2="-5.62899" y2="64.6036" gradientUnits="userSpaceOnUse">
<stop stop-color="white"/>
<stop offset="1" stop-color="#231F20"/>
</linearGradient>
<linearGradient id="paint2_linear_78_1207" x1="73.6604" y1="-10.0049" x2="-1.88261" y2="68.2221" gradientUnits="userSpaceOnUse">
<stop stop-color="white"/>
<stop offset="1" stop-color="#231F20"/>
</linearGradient>
<linearGradient id="paint3_linear_78_1207" x1="86.2861" y1="2.18786" x2="10.7431" y2="80.4149" gradientUnits="userSpaceOnUse">
<stop stop-color="white"/>
<stop offset="1" stop-color="#231F20"/>
</linearGradient>
<linearGradient id="paint4_linear_78_1207" x1="117.975" y1="32.7902" x2="42.4325" y2="111.017" gradientUnits="userSpaceOnUse">
<stop stop-color="white"/>
<stop offset="1" stop-color="#231F20"/>
</linearGradient>
<linearGradient id="paint5_linear_78_1207" x1="102.518" y1="17.863" x2="26.9754" y2="96.09" gradientUnits="userSpaceOnUse">
<stop stop-color="white"/>
<stop offset="1" stop-color="#231F20"/>
</linearGradient>
<linearGradient id="paint6_linear_78_1207" x1="124.43" y1="39.0231" x2="48.8875" y2="117.25" gradientUnits="userSpaceOnUse">
<stop stop-color="white"/>
<stop offset="1" stop-color="#231F20"/>
</linearGradient>
<linearGradient id="paint7_linear_78_1207" x1="108.378" y1="23.5212" x2="32.8348" y2="101.748" gradientUnits="userSpaceOnUse">
<stop stop-color="white"/>
<stop offset="1" stop-color="#231F20"/>
</linearGradient>
<linearGradient id="paint8_linear_78_1207" x1="83.627" y1="-0.380325" x2="8.084" y2="77.8467" gradientUnits="userSpaceOnUse">
<stop stop-color="white"/>
<stop offset="1" stop-color="#231F20"/>
</linearGradient>
<linearGradient id="paint9_linear_78_1207" x1="114.073" y1="29.0206" x2="38.5299" y2="107.248" gradientUnits="userSpaceOnUse">
<stop stop-color="white"/>
<stop offset="1" stop-color="#231F20"/>
</linearGradient>
<linearGradient id="paint10_linear_78_1207" x1="114.072" y1="29.0206" x2="38.5294" y2="107.248" gradientUnits="userSpaceOnUse">
<stop stop-color="white"/>
<stop offset="1" stop-color="#231F20"/>
</linearGradient>
<linearGradient id="paint11_linear_78_1207" x1="127.855" y1="42.3315" x2="52.3123" y2="120.559" gradientUnits="userSpaceOnUse">
<stop stop-color="white"/>
<stop offset="1" stop-color="#231F20"/>
</linearGradient>
<linearGradient id="paint12_linear_78_1207" x1="127.902" y1="42.3771" x2="52.3592" y2="120.604" gradientUnits="userSpaceOnUse">
<stop stop-color="white"/>
<stop offset="1" stop-color="#231F20"/>
</linearGradient>
<linearGradient id="paint13_linear_78_1207" x1="102.659" y1="17.9992" x2="27.116" y2="96.2262" gradientUnits="userSpaceOnUse">
<stop stop-color="white"/>
<stop offset="1" stop-color="#231F20"/>
</linearGradient>
<linearGradient id="paint14_linear_78_1207" x1="102.66" y1="17.9992" x2="27.1172" y2="96.2262" gradientUnits="userSpaceOnUse">
<stop stop-color="white"/>
<stop offset="1" stop-color="#231F20"/>
</linearGradient>
<linearGradient id="paint15_linear_78_1207" x1="54.5739" y1="-28.437" x2="-20.9691" y2="49.79" gradientUnits="userSpaceOnUse">
<stop stop-color="white"/>
<stop offset="1" stop-color="#231F20"/>
</linearGradient>
<linearGradient id="paint16_linear_78_1207" x1="54.5739" y1="-28.4368" x2="-20.969" y2="49.7902" gradientUnits="userSpaceOnUse">
<stop stop-color="white"/>
<stop offset="1" stop-color="#231F20"/>
</linearGradient>
<linearGradient id="paint17_linear_78_1207" x1="70.5468" y1="-13.0114" x2="-4.99617" y2="65.2156" gradientUnits="userSpaceOnUse">
<stop stop-color="white"/>
<stop offset="1" stop-color="#231F20"/>
</linearGradient>
<linearGradient id="paint18_linear_78_1207" x1="70.5479" y1="-13.0112" x2="-4.99502" y2="65.2159" gradientUnits="userSpaceOnUse">
<stop stop-color="white"/>
<stop offset="1" stop-color="#231F20"/>
</linearGradient>
<linearGradient id="paint19_linear_78_1207" x1="94.5706" y1="10.1877" x2="19.0276" y2="88.4147" gradientUnits="userSpaceOnUse">
<stop stop-color="white"/>
<stop offset="1" stop-color="#231F20"/>
</linearGradient>
<linearGradient id="paint20_linear_78_1207" x1="94.5711" y1="10.1882" x2="19.0281" y2="88.4152" gradientUnits="userSpaceOnUse">
<stop stop-color="white"/>
<stop offset="1" stop-color="#231F20"/>
</linearGradient>
<linearGradient id="paint21_linear_78_1207" x1="82.3117" y1="-1.64961" x2="6.76874" y2="76.5774" gradientUnits="userSpaceOnUse">
<stop stop-color="white"/>
<stop offset="1" stop-color="#231F20"/>
</linearGradient>
<linearGradient id="paint22_linear_78_1207" x1="93.2777" y1="9.01066" x2="17.7347" y2="87.2377" gradientUnits="userSpaceOnUse">
<stop stop-color="white"/>
<stop offset="1" stop-color="#231F20"/>
</linearGradient>
<linearGradient id="paint23_linear_78_1207" x1="93.0038" y1="8.79774" x2="17.461" y2="87.0247" gradientUnits="userSpaceOnUse">
<stop stop-color="white"/>
<stop offset="1" stop-color="#231F20"/>
</linearGradient>
<linearGradient id="paint24_linear_78_1207" x1="117.984" y1="32.7978" x2="42.4408" y2="111.025" gradientUnits="userSpaceOnUse">
<stop stop-color="white"/>
<stop offset="1" stop-color="#231F20"/>
</linearGradient>
<linearGradient id="paint25_linear_78_1207" x1="111.671" y1="26.702" x2="36.1281" y2="104.929" gradientUnits="userSpaceOnUse">
<stop stop-color="white"/>
<stop offset="1" stop-color="#231F20"/>
</linearGradient>
<linearGradient id="paint26_linear_78_1207" x1="102.581" y1="17.9238" x2="27.0384" y2="96.1508" gradientUnits="userSpaceOnUse">
<stop stop-color="white"/>
<stop offset="1" stop-color="#231F20"/>
</linearGradient>
<linearGradient id="paint27_linear_78_1207" x1="128.095" y1="42.6704" x2="52.5515" y2="120.897" gradientUnits="userSpaceOnUse">
<stop stop-color="white"/>
<stop offset="1" stop-color="#231F20"/>
</linearGradient>
<linearGradient id="paint28_linear_78_1207" x1="110.401" y1="25.5985" x2="34.8581" y2="103.826" gradientUnits="userSpaceOnUse">
<stop stop-color="white"/>
<stop offset="1" stop-color="#231F20"/>
</linearGradient>
<linearGradient id="paint29_linear_78_1207" x1="78.4784" y1="-5.31669" x2="2.93546" y2="72.9103" gradientUnits="userSpaceOnUse">
<stop stop-color="white"/>
<stop offset="1" stop-color="#231F20"/>
</linearGradient>
<linearGradient id="paint30_linear_78_1207" x1="85.2918" y1="1.82726" x2="9.74899" y2="80.0541" gradientUnits="userSpaceOnUse">
<stop stop-color="white"/>
<stop offset="1" stop-color="#231F20"/>
</linearGradient>
<linearGradient id="paint31_linear_78_1207" x1="69.3962" y1="-13.5461" x2="-6.14661" y2="64.6808" gradientUnits="userSpaceOnUse">
<stop stop-color="white"/>
<stop offset="1" stop-color="#231F20"/>
</linearGradient>
<linearGradient id="paint32_linear_78_1207" x1="81.1822" y1="-2.3804" x2="5.63923" y2="75.8466" gradientUnits="userSpaceOnUse">
<stop stop-color="white"/>
<stop offset="1" stop-color="#231F20"/>
</linearGradient>
<linearGradient id="paint33_linear_78_1207" x1="93.5145" y1="9.16793" x2="17.9715" y2="87.3949" gradientUnits="userSpaceOnUse">
<stop stop-color="white"/>
<stop offset="1" stop-color="#231F20"/>
</linearGradient>
<linearGradient id="paint34_linear_78_1207" x1="74.1063" y1="-9.57437" x2="-1.43667" y2="68.6526" gradientUnits="userSpaceOnUse">
<stop stop-color="white"/>
<stop offset="1" stop-color="#231F20"/>
</linearGradient>
<linearGradient id="paint35_linear_78_1207" x1="103.77" y1="19.0723" x2="28.2274" y2="97.2993" gradientUnits="userSpaceOnUse">
<stop stop-color="white"/>
<stop offset="1" stop-color="#231F20"/>
</linearGradient>
<linearGradient id="paint36_linear_78_1207" x1="119.833" y1="34.7626" x2="44.2902" y2="112.99" gradientUnits="userSpaceOnUse">
<stop stop-color="white"/>
<stop offset="1" stop-color="#231F20"/>
</linearGradient>
<linearGradient id="paint37_linear_78_1207" x1="109.292" y1="24.405" x2="33.7493" y2="102.632" gradientUnits="userSpaceOnUse">
<stop stop-color="white"/>
<stop offset="1" stop-color="#231F20"/>
</linearGradient>
<linearGradient id="paint38_linear_78_1207" x1="100.946" y1="16.3445" x2="25.4029" y2="94.5715" gradientUnits="userSpaceOnUse">
<stop stop-color="white"/>
<stop offset="1" stop-color="#231F20"/>
</linearGradient>
<linearGradient id="paint39_linear_78_1207" x1="93.3395" y1="9.10659" x2="17.7965" y2="87.3336" gradientUnits="userSpaceOnUse">
<stop stop-color="white"/>
<stop offset="1" stop-color="#231F20"/>
</linearGradient>
<linearGradient id="paint40_linear_78_1207" x1="77.7917" y1="-5.79884" x2="2.24878" y2="72.4282" gradientUnits="userSpaceOnUse">
<stop stop-color="white"/>
<stop offset="1" stop-color="#231F20"/>
</linearGradient>
<linearGradient id="paint41_linear_78_1207" x1="63.363" y1="-19.5755" x2="-12.1798" y2="58.6514" gradientUnits="userSpaceOnUse">
<stop stop-color="white"/>
<stop offset="1" stop-color="#231F20"/>
</linearGradient>
<linearGradient id="paint42_linear_78_1207" x1="81.7543" y1="-2.11664" x2="6.21136" y2="76.1104" gradientUnits="userSpaceOnUse">
<stop stop-color="white"/>
<stop offset="1" stop-color="#231F20"/>
</linearGradient>
<linearGradient id="paint43_linear_78_1207" x1="86.5201" y1="2.44961" x2="10.9772" y2="80.6766" gradientUnits="userSpaceOnUse">
<stop stop-color="white"/>
<stop offset="1" stop-color="#231F20"/>
</linearGradient>
<linearGradient id="paint44_linear_78_1207" x1="104.267" y1="19.9715" x2="28.7241" y2="98.1983" gradientUnits="userSpaceOnUse">
<stop stop-color="white"/>
<stop offset="1" stop-color="#231F20"/>
</linearGradient>
<linearGradient id="paint45_linear_78_1207" x1="100.081" y1="15.9299" x2="24.5387" y2="94.1568" gradientUnits="userSpaceOnUse">
<stop stop-color="white"/>
<stop offset="1" stop-color="#231F20"/>
</linearGradient>
<linearGradient id="paint46_linear_78_1207" x1="78.1431" y1="-5.1477" x2="2.60026" y2="73.0791" gradientUnits="userSpaceOnUse">
<stop stop-color="white"/>
<stop offset="1" stop-color="#231F20"/>
</linearGradient>
<linearGradient id="paint47_linear_78_1207" x1="63.2312" y1="-20.0401" x2="-12.3117" y2="58.1869" gradientUnits="userSpaceOnUse">
<stop stop-color="white"/>
<stop offset="1" stop-color="#231F20"/>
</linearGradient>
<linearGradient id="paint48_linear_78_1207" x1="115.533" y1="30.7431" x2="39.9904" y2="108.97" gradientUnits="userSpaceOnUse">
<stop stop-color="white"/>
<stop offset="1" stop-color="#231F20"/>
</linearGradient>
<linearGradient id="paint49_linear_78_1207" x1="124.202" y1="38.8729" x2="48.6588" y2="117.1" gradientUnits="userSpaceOnUse">
<stop stop-color="white"/>
<stop offset="1" stop-color="#231F20"/>
</linearGradient>
<linearGradient id="paint50_linear_78_1207" x1="112.154" y1="27.2749" x2="36.6106" y2="105.502" gradientUnits="userSpaceOnUse">
<stop stop-color="white"/>
<stop offset="1" stop-color="#231F20"/>
</linearGradient>
</defs>
</svg>
