<svg width="104" height="105" viewBox="0 0 104 105" fill="none" xmlns="http://www.w3.org/2000/svg">
<g clip-path="url(#clip0_749_41160)">
<mask id="mask0_749_41160" style="mask-type:luminance" maskUnits="userSpaceOnUse" x="36" y="18" width="5" height="6">
<path d="M36.3887 20.8858C36.3887 22.1426 37.3313 23.2423 38.5881 23.2423C39.8449 23.2423 40.7875 22.1426 40.7875 20.8858C40.7875 19.629 39.8449 18.5293 38.5881 18.5293C37.3313 18.5293 36.3887 19.629 36.3887 20.8858Z" fill="white"/>
</mask>
<g mask="url(#mask0_749_41160)">
<path d="M43.143 20.7289L38.7442 25.2848L34.0312 20.886L38.5871 16.3301L43.143 20.7289Z" fill="#35C5E8"/>
</g>
<mask id="mask1_749_41160" style="mask-type:luminance" maskUnits="userSpaceOnUse" x="20" y="33" width="6" height="6">
<path d="M20.8359 35.8096C20.8359 37.0664 21.7785 38.1661 23.0353 38.1661C24.2921 38.1661 25.2347 37.0664 25.2347 35.8096C25.2347 34.5528 24.2921 33.4531 23.0353 33.4531C21.7785 33.4531 20.8359 34.3957 20.8359 35.8096Z" fill="white"/>
</mask>
<g mask="url(#mask1_749_41160)">
<path d="M27.5922 35.6527L23.0364 40.2086L18.4805 35.8098L22.8793 31.2539L27.5922 35.6527Z" fill="#35C5E8"/>
</g>
<mask id="mask2_749_41160" style="mask-type:luminance" maskUnits="userSpaceOnUse" x="6" y="55" width="5" height="6">
<path d="M6.53906 57.96C6.53906 59.2168 7.48166 60.3165 8.73846 60.3165C9.99526 60.3165 10.9379 59.2168 10.9379 57.96C10.9379 56.7032 9.99526 55.6035 8.73846 55.6035C7.48166 55.6035 6.53906 56.7032 6.53906 57.96Z" fill="white"/>
</mask>
<g mask="url(#mask2_749_41160)">
<path d="M13.2945 57.8031L8.89574 62.5161L4.33984 57.9602L8.73864 53.4043L13.2945 57.8031Z" fill="#35C5E8"/>
</g>
<mask id="mask3_749_41160" style="mask-type:luminance" maskUnits="userSpaceOnUse" x="13" y="73" width="6" height="6">
<path d="M13.6094 75.8702C13.6094 77.127 14.552 78.2267 15.8088 78.2267C17.0656 78.2267 18.0082 77.127 18.0082 75.8702C18.0082 74.6134 17.0656 73.5137 15.8088 73.5137C14.552 73.5137 13.6094 74.6134 13.6094 75.8702Z" fill="white"/>
</mask>
<g mask="url(#mask3_749_41160)">
<path d="M20.3648 75.7132L15.966 80.4262L11.4102 75.8703L15.8089 71.3145L20.3648 75.7132Z" fill="#35C5E8"/>
</g>
<mask id="mask4_749_41160" style="mask-type:luminance" maskUnits="userSpaceOnUse" x="61" y="87" width="6" height="5">
<path d="M61.6816 89.5381C61.6816 90.7949 62.6242 91.8946 63.881 91.8946C65.1378 91.8946 66.0804 90.7949 66.0804 89.5381C66.0804 88.2813 65.1378 87.1816 63.881 87.1816C62.6242 87.3387 61.6816 88.2813 61.6816 89.5381Z" fill="white"/>
</mask>
<g mask="url(#mask4_749_41160)">
<path d="M68.436 89.5375L64.0372 94.0934L59.3242 89.6946L63.8801 85.1387L68.436 89.5375Z" fill="#35C5E8"/>
</g>
<mask id="mask5_749_41160" style="mask-type:luminance" maskUnits="userSpaceOnUse" x="36" y="82" width="5" height="6">
<path d="M36.2305 84.9815C36.2305 86.2383 37.1731 87.338 38.4299 87.338C39.6867 87.338 40.6293 86.2383 40.6293 84.9815C40.6293 83.7247 39.6867 82.625 38.4299 82.625C37.1731 82.7821 36.2305 83.7247 36.2305 84.9815Z" fill="white"/>
</mask>
<g mask="url(#mask5_749_41160)">
<path d="M42.9868 84.9808L38.4309 89.5367L33.875 85.1379L38.2738 80.582L42.9868 84.9808Z" fill="#35C5E8"/>
</g>
<mask id="mask6_749_41160" style="mask-type:luminance" maskUnits="userSpaceOnUse" x="94" y="66" width="5" height="6">
<path d="M94.043 68.9581C94.043 70.2149 94.9856 71.3146 96.2424 71.3146C97.4992 71.3146 98.4418 70.2149 98.4418 68.9581C98.4418 67.7013 97.4992 66.6016 96.2424 66.6016C94.9856 66.7587 94.043 67.7013 94.043 68.9581Z" fill="white"/>
</mask>
<g mask="url(#mask6_749_41160)">
<path d="M100.799 68.9582L96.4005 73.5141L91.6875 69.1153L96.2434 64.4023L100.799 68.9582Z" fill="#35C5E8"/>
</g>
<mask id="mask7_749_41160" style="mask-type:luminance" maskUnits="userSpaceOnUse" x="87" y="41" width="5" height="6">
<path d="M87.4453 43.8213C87.4453 45.0781 88.3879 46.1778 89.6447 46.1778C90.9015 46.1778 91.8441 45.0781 91.8441 43.8213C91.8441 42.5645 90.9015 41.4648 89.6447 41.4648C88.3879 41.4648 87.4453 42.5645 87.4453 43.8213Z" fill="white"/>
</mask>
<g mask="url(#mask7_749_41160)">
<path d="M94.0445 43.6644L89.6457 48.2203L85.0898 43.8215L89.4886 39.2656L94.0445 43.6644Z" fill="#35C5E8"/>
</g>
<mask id="mask8_749_41160" style="mask-type:luminance" maskUnits="userSpaceOnUse" x="65" y="14" width="5" height="6">
<path d="M65.1387 17.1143C65.1387 18.3711 66.0813 19.4708 67.3381 19.4708C68.5949 19.4708 69.5375 18.3711 69.5375 17.1143C69.5375 15.8575 68.5949 14.7578 67.3381 14.7578C66.2384 14.9149 65.1387 15.8575 65.1387 17.1143Z" fill="white"/>
</mask>
<g mask="url(#mask8_749_41160)">
<path d="M71.8941 17.1136L67.4953 21.6695L62.9395 17.2707L67.3382 12.7148L71.8941 17.1136Z" fill="#35C5E8"/>
</g>
<mask id="mask9_749_41160" style="mask-type:luminance" maskUnits="userSpaceOnUse" x="42" y="89" width="15" height="15">
<path d="M42.9863 96.4495H44.7144H42.9863ZM49.7416 91.2652C49.7416 94.093 47.5422 96.4495 44.7144 96.4495C47.5422 96.4495 49.7416 98.806 49.7416 101.634V103.362V101.634C49.7416 98.806 51.941 96.4495 54.7688 96.4495H56.4969H54.7688C51.941 96.4495 49.7416 94.2501 49.7416 91.2652V89.5371V91.2652Z" fill="white"/>
</mask>
<g mask="url(#mask9_749_41160)">
<path d="M63.2536 96.2929L49.9001 109.961L36.2324 96.7642L49.4288 82.9395L63.2536 96.2929Z" fill="#35C5E8"/>
</g>
<mask id="mask10_749_41160" style="mask-type:luminance" maskUnits="userSpaceOnUse" x="41" y="87" width="17" height="18">
<path d="M48.7997 96.4502C49.1139 96.136 49.4281 95.8218 49.7423 95.5076C50.0565 95.8218 50.3707 96.136 50.6849 96.4502C50.3707 96.7644 50.0565 97.0786 49.7423 97.3928C49.4281 97.0786 49.1139 96.7644 48.7997 96.4502ZM48.1713 89.5378V91.2659C48.1713 93.3082 46.6003 94.8792 44.558 94.8792H42.8299C42.0444 94.8792 41.416 95.5076 41.416 96.4502C41.416 97.2357 42.0444 98.0212 42.8299 98.0212H44.558C46.4432 98.0212 48.1713 99.5922 48.1713 101.634V103.363C48.1713 104.148 48.7997 104.934 49.5852 104.934C50.3707 104.934 50.9991 104.305 50.9991 103.363V101.634C50.9991 99.5922 52.5701 98.0212 54.6124 98.0212H56.3405C57.126 98.0212 57.7544 97.3928 57.7544 96.4502C57.7544 95.6647 57.126 94.8792 56.3405 94.8792H54.6124C52.7272 94.8792 50.9991 93.3082 50.9991 91.2659V89.5378C50.9991 88.7523 50.3707 87.9668 49.5852 87.9668C48.7997 87.9668 48.1713 88.7523 48.1713 89.5378Z" fill="white"/>
</mask>
<g mask="url(#mask10_749_41160)">
<path d="M66.0799 96.1364L49.8987 112.946L33.2461 96.7647L49.4274 79.9551L66.0799 96.1364Z" fill="#35C5E8"/>
</g>
<mask id="mask11_749_41160" style="mask-type:luminance" maskUnits="userSpaceOnUse" x="86" y="79" width="7" height="7">
<path d="M87.2894 85.138L86.5039 85.9235L87.2894 85.138ZM92.0024 85.138L92.7879 85.9235L92.0024 85.138ZM92.0024 80.2679C90.7456 81.6818 88.5462 81.6818 87.2894 80.2679L86.5039 79.4824L87.2894 80.2679C88.5462 81.6818 88.5462 83.7241 87.2894 85.138C88.5462 83.8812 90.5885 83.7241 92.0024 85.138C90.5885 83.7241 90.7456 81.6818 92.0024 80.2679L92.7879 79.4824L92.0024 80.2679Z" fill="white"/>
</mask>
<g mask="url(#mask11_749_41160)">
<path d="M95.9302 82.6258L89.6462 89.0669L83.2051 82.7829L89.4891 76.3418L95.9302 82.6258Z" fill="#35C5E8"/>
</g>
<mask id="mask12_749_41160" style="mask-type:luminance" maskUnits="userSpaceOnUse" x="84" y="77" width="11" height="11">
<path d="M91.6869 78.3834L90.9014 79.1689C90.1159 79.9544 89.0162 79.9544 88.2307 79.1689L87.4452 78.3834C87.131 78.0692 86.8168 77.9121 86.3455 77.9121C85.7171 77.9121 85.2458 78.2263 85.0887 78.8547C84.9316 79.4831 84.9316 80.1115 85.4029 80.4257L86.1884 81.2112C86.5026 81.5254 86.8168 81.9967 86.8168 82.6251C86.8168 83.0964 86.6597 83.5677 86.1884 84.039L85.4029 84.8245C85.0887 85.1387 84.9316 85.4529 84.9316 85.9242C84.9316 86.2384 85.0887 86.7097 85.4029 87.0239C86.0313 87.6523 86.8168 87.6523 87.4452 87.0239L88.2307 86.2384C89.0162 85.4529 90.1159 85.4529 90.9014 86.2384L91.6869 87.0239C92.0011 87.3381 92.3153 87.4952 92.7866 87.4952C93.1008 87.4952 93.415 87.3381 93.7292 87.181C94.3576 86.7097 94.5147 85.9242 94.0434 85.2958C94.0434 85.1387 93.8863 85.1387 93.7292 84.9816L92.9437 84.1961C92.6295 83.8819 92.4724 83.4106 92.4724 82.9393C92.4724 82.468 92.6295 81.9967 93.1008 81.5254L93.8863 80.7399C94.2005 80.4257 94.3576 80.1115 94.3576 79.6402C94.3576 79.326 94.2005 78.8547 93.8863 78.5405C93.5721 78.2263 93.2579 78.0692 92.7866 78.0692C92.3153 78.0692 92.0011 78.0692 91.6869 78.3834Z" fill="white"/>
</mask>
<g mask="url(#mask12_749_41160)">
<path d="M99.2287 82.6244L89.8027 92.3645L80.0625 82.9386L89.4885 73.3555L99.2287 82.6244Z" fill="#35C5E8"/>
</g>
<mask id="mask13_749_41160" style="mask-type:luminance" maskUnits="userSpaceOnUse" x="87" y="25" width="10" height="10">
<path d="M87.4453 29.9973H88.545H87.4453ZM91.8441 26.5411C91.8441 28.4263 90.4302 29.9973 88.545 29.9973C90.4302 29.9973 91.8441 31.5683 91.8441 33.4535V34.5532V33.4535C91.8441 31.5683 93.258 29.9973 95.1432 29.9973H96.2429H95.1432C93.258 29.9973 91.8441 28.4263 91.8441 26.5411V25.4414V26.5411Z" fill="white"/>
</mask>
<g mask="url(#mask13_749_41160)">
<path d="M100.799 29.8406L92.0013 38.9523L82.7324 30.1547L91.6871 21.043L100.799 29.8406Z" fill="#35C5E8"/>
</g>
<mask id="mask14_749_41160" style="mask-type:luminance" maskUnits="userSpaceOnUse" x="86" y="23" width="12" height="14">
<path d="M90.43 25.4421V26.5418C90.43 27.6415 89.6445 28.427 88.5448 28.427H87.4451C86.6597 28.427 86.0312 29.0554 86.0312 29.998C86.0312 30.7835 86.6597 31.569 87.4451 31.569H88.5448C89.6445 31.569 90.43 32.5116 90.43 33.4542V34.5539C90.43 35.3394 91.0584 36.1249 91.8439 36.1249C92.6294 36.1249 93.2578 35.4965 93.2578 34.5539V33.4542C93.2578 32.3545 94.0433 31.569 95.143 31.569H96.2427C97.0282 31.569 97.6566 30.9406 97.6566 29.998C97.6566 29.2125 97.0282 28.427 96.2427 28.427H95.143C94.0433 28.427 93.2578 27.4844 93.2578 26.5418V25.4421C93.2578 24.6566 92.6294 23.8711 91.8439 23.8711C91.0584 23.8711 90.43 24.6566 90.43 25.4421Z" fill="white"/>
</mask>
<g mask="url(#mask14_749_41160)">
<path d="M103.783 29.8411L92.001 41.9377L79.9043 30.1553L91.6868 18.0586L103.783 29.8411Z" fill="#35C5E8"/>
</g>
<mask id="mask15_749_41160" style="mask-type:luminance" maskUnits="userSpaceOnUse" x="9" y="9" width="10" height="10">
<path d="M9.99609 13.9719H11.0958H9.99609ZM14.3949 10.5157C14.3949 12.4009 12.981 13.9719 11.0958 13.9719C12.981 13.9719 14.3949 15.5429 14.3949 17.4281V18.5278V17.4281C14.3949 15.5429 15.8088 13.9719 17.694 13.9719H18.7937H17.694C15.8088 13.9719 14.3949 12.4009 14.3949 10.5157V9.41602V10.5157Z" fill="white"/>
</mask>
<g mask="url(#mask15_749_41160)">
<path d="M23.3508 13.816L14.5532 22.9278L5.44141 14.1302L14.239 4.86133L23.3508 13.816Z" fill="#35C5E8"/>
</g>
<mask id="mask16_749_41160" style="mask-type:luminance" maskUnits="userSpaceOnUse" x="8" y="7" width="13" height="14">
<path d="M12.9808 9.4167V10.5164C12.9808 11.6161 12.0382 12.4016 11.0956 12.4016H9.99593C9.21043 12.4016 8.58203 13.03 8.58203 13.9726C8.58203 14.7581 9.21043 15.5436 9.99593 15.5436H11.0956C12.1953 15.5436 12.9808 16.4862 12.9808 17.4288V18.5285C12.9808 19.314 13.6092 20.0995 14.3947 20.0995C15.1802 20.0995 15.8086 19.4711 15.8086 18.5285V17.4288C15.8086 16.3291 16.5941 15.5436 17.6938 15.5436H18.7935C19.579 15.5436 20.2074 14.9152 20.2074 13.9726C20.2074 13.1871 19.579 12.4016 18.7935 12.4016H17.6938C16.5941 12.4016 15.8086 11.459 15.8086 10.5164V9.4167C15.8086 8.6312 15.1802 7.8457 14.3947 7.8457C13.6092 7.8457 12.9808 8.4741 12.9808 9.4167Z" fill="white"/>
</mask>
<g mask="url(#mask16_749_41160)">
<path d="M26.3362 13.8157L14.5537 25.9124L2.45703 14.1299L14.2395 2.0332L26.3362 13.8157Z" fill="#35C5E8"/>
</g>
<mask id="mask17_749_41160" style="mask-type:luminance" maskUnits="userSpaceOnUse" x="47" y="2" width="10" height="10">
<path d="M47.543 7.0598H48.6427H47.543ZM51.9418 3.6036C51.9418 5.4888 50.5279 7.0598 48.6427 7.0598C50.5279 7.0598 51.9418 8.6308 51.9418 10.516V11.6157V10.516C51.9418 8.6308 53.3557 7.0598 55.2409 7.0598H56.3405H55.2409C53.3557 7.0598 51.9418 5.4888 51.9418 3.6036V2.50391V3.6036Z" fill="white"/>
</mask>
<g mask="url(#mask17_749_41160)">
<path d="M60.8965 6.90305L52.099 16.1719L42.8301 7.21725L51.7848 -1.89453L60.8965 6.90305Z" fill="#35C5E8"/>
</g>
<mask id="mask18_749_41160" style="mask-type:luminance" maskUnits="userSpaceOnUse" x="46" y="0" width="12" height="14">
<path d="M50.5277 2.50459V3.60429C50.5277 4.70399 49.7422 5.48948 48.6425 5.48948H47.5428C46.7573 5.48948 46.1289 6.11788 46.1289 7.06048C46.1289 7.84598 46.7573 8.63148 47.5428 8.63148H48.6425C49.7422 8.63148 50.5277 9.57408 50.5277 10.5167V11.6164C50.5277 12.4019 51.1561 13.1874 51.9416 13.1874C52.7271 13.1874 53.3555 12.559 53.3555 11.6164V10.5167C53.3555 9.41698 54.141 8.63148 55.2407 8.63148H56.3404C57.1259 8.63148 57.7543 8.00308 57.7543 7.06048C57.7543 6.27498 57.1259 5.48948 56.3404 5.48948H55.2407C54.141 5.48948 53.3555 4.54689 53.3555 3.60429V2.50459C53.3555 1.71909 52.7271 0.933594 51.9416 0.933594C51.1561 0.933594 50.5277 1.71909 50.5277 2.50459Z" fill="white"/>
</mask>
<g mask="url(#mask18_749_41160)">
<path d="M63.8831 6.90357L52.1006 19.0002L40.0039 7.21777L51.6293 -4.87891L63.8831 6.90357Z" fill="#35C5E8"/>
</g>
<mask id="mask19_749_41160" style="mask-type:luminance" maskUnits="userSpaceOnUse" x="12" y="87" width="9" height="10">
<path d="M12.0371 91.8938H13.1368H12.0371ZM16.4359 88.4376C16.4359 90.3228 15.022 91.8938 13.1368 91.8938C15.022 91.8938 16.4359 93.4648 16.4359 95.35V96.4497V95.35C16.4359 93.4648 17.8498 91.8938 19.735 91.8938H20.8347H19.735C17.8498 91.8938 16.4359 90.3228 16.4359 88.4376V87.3379V88.4376Z" fill="white"/>
</mask>
<g mask="url(#mask19_749_41160)">
<path d="M25.3918 91.737L16.5942 100.849L7.48242 92.0512L16.28 82.9395L25.3918 91.737Z" fill="#35C5E8"/>
</g>
<mask id="mask20_749_41160" style="mask-type:luminance" maskUnits="userSpaceOnUse" x="10" y="85" width="13" height="14">
<path d="M15.0238 87.3386V88.4383C15.0238 89.538 14.2383 90.3235 13.1386 90.3235H12.0389C11.2534 90.3235 10.625 90.9519 10.625 91.8945C10.625 92.68 11.2534 93.4655 12.0389 93.4655H13.1386C14.2383 93.4655 15.0238 94.4081 15.0238 95.3507V96.4504C15.0238 97.2359 15.6522 98.0214 16.4377 98.0214C17.2232 98.0214 17.8516 97.393 17.8516 96.4504V95.3507C17.8516 94.251 18.6371 93.4655 19.7368 93.4655H20.8365C21.622 93.4655 22.2504 92.8371 22.2504 91.8945C22.2504 91.109 21.622 90.3235 20.8365 90.3235H19.7368C18.6371 90.3235 17.8516 89.3809 17.8516 88.4383V87.3386C17.8516 86.5531 17.2232 85.7676 16.4377 85.7676C15.6522 85.7676 15.0238 86.5531 15.0238 87.3386Z" fill="white"/>
</mask>
<g mask="url(#mask20_749_41160)">
<path d="M28.3792 91.7376L16.5967 103.834L4.5 92.0518L16.2825 79.9551L28.3792 91.7376Z" fill="#35C5E8"/>
</g>
<mask id="mask21_749_41160" style="mask-type:luminance" maskUnits="userSpaceOnUse" x="50" y="16" width="4" height="29">
<path d="M50.5273 18.528V42.7214C50.5273 43.5069 51.1557 44.2924 51.9412 44.2924C52.7267 44.2924 53.3551 43.664 53.3551 42.7214V18.528C53.3551 17.7425 52.7267 16.957 51.9412 16.957C51.1557 17.1141 50.5273 17.7425 50.5273 18.528Z" fill="white"/>
</mask>
<g mask="url(#mask21_749_41160)">
<path d="M66.8654 30.1532L51.9409 45.7061L36.8594 31.0958L51.7838 15.543L66.8654 30.1532Z" fill="#35C5E8"/>
</g>
<mask id="mask22_749_41160" style="mask-type:luminance" maskUnits="userSpaceOnUse" x="76" y="20" width="8" height="7">
<path d="M80.8474 20.5709L77.3912 24.1842C76.7628 24.8126 76.7628 25.7552 77.3912 26.2265C77.7054 26.5407 78.0196 26.6978 78.4909 26.6978C78.8051 26.6978 79.2764 26.5407 79.5906 26.2265L83.0468 22.6132C83.6752 21.9848 83.6752 21.0422 83.0468 20.5709C82.7326 20.2567 82.4184 20.0996 81.9471 20.0996C81.4758 20.2567 81.0045 20.4138 80.8474 20.5709Z" fill="white"/>
</mask>
<g mask="url(#mask22_749_41160)">
<path d="M86.6593 23.399L80.2182 30.1543L73.4629 23.5561L79.904 16.8008L86.6593 23.399Z" fill="#35C5E8"/>
</g>
<mask id="mask23_749_41160" style="mask-type:luminance" maskUnits="userSpaceOnUse" x="57" y="30" width="17" height="18">
<path d="M71.1069 30.7818L57.5963 44.6066C56.9679 45.235 56.9679 46.1776 57.5963 46.6489C57.9105 46.9631 58.2247 47.1202 58.696 47.1202C59.0102 47.1202 59.4815 46.9631 59.7957 46.6489L73.3063 32.8241C73.9347 32.1957 73.9347 31.2531 73.3063 30.7818C72.9921 30.4676 72.6779 30.3105 72.2066 30.3105C71.7353 30.3105 71.264 30.4676 71.1069 30.7818Z" fill="white"/>
</mask>
<g mask="url(#mask23_749_41160)">
<path d="M82.1029 38.4798L65.6074 55.4466L48.6406 38.9511L64.979 21.9844L82.1029 38.4798Z" fill="#35C5E8"/>
</g>
<mask id="mask24_749_41160" style="mask-type:luminance" maskUnits="userSpaceOnUse" x="96" y="51" width="7" height="4">
<path d="M97.9725 51.3633C97.187 51.3633 96.5586 51.9917 96.5586 52.9343C96.5586 53.7198 97.187 54.5053 97.9725 54.5053H100.8C101.586 54.5053 102.214 53.8769 102.214 52.9343C102.214 52.1488 101.586 51.3633 100.8 51.3633H97.9725Z" fill="white"/>
</mask>
<g mask="url(#mask24_749_41160)">
<path d="M103.629 52.9339L99.3871 57.1756L94.9883 52.9339L99.23 48.5352L103.629 52.9339Z" fill="#35C5E8"/>
</g>
<mask id="mask25_749_41160" style="mask-type:luminance" maskUnits="userSpaceOnUse" x="82" y="51" width="10" height="4">
<path d="M84.1463 51.3633C83.3608 51.3633 82.7324 51.9917 82.7324 52.9343C82.7324 53.7198 83.3608 54.5053 84.1463 54.5053H89.959C90.7445 54.5053 91.3729 53.8769 91.3729 52.9343C91.3729 52.1488 90.7445 51.3633 89.959 51.3633H84.1463Z" fill="white"/>
</mask>
<g mask="url(#mask25_749_41160)">
<path d="M92.9457 52.9338L87.2901 58.7465L81.3203 52.9338L86.9759 47.1211L92.9457 52.9338Z" fill="#35C5E8"/>
</g>
<mask id="mask26_749_41160" style="mask-type:luminance" maskUnits="userSpaceOnUse" x="60" y="51" width="19" height="4">
<path d="M61.6815 51.3633C60.896 51.3633 60.2676 51.9917 60.2676 52.9343C60.2676 53.7198 60.896 54.5053 61.6815 54.5053H77.3914C78.1769 54.5053 78.8053 53.8769 78.8053 52.9343C78.8053 52.1488 78.1769 51.3633 77.3914 51.3633H61.6815Z" fill="white"/>
</mask>
<g mask="url(#mask26_749_41160)">
<path d="M80.377 52.9336L69.8513 63.7735L58.6973 52.9336L69.2229 42.0938L80.377 52.9336Z" fill="#35C5E8"/>
</g>
<mask id="mask27_749_41160" style="mask-type:luminance" maskUnits="userSpaceOnUse" x="76" y="89" width="8" height="9">
<path d="M76.9203 89.5388C76.2919 90.0101 76.1348 90.9527 76.6061 91.5811L80.5336 97.2367C80.8478 97.708 81.3191 97.8651 81.7904 97.8651C82.1046 97.8651 82.4188 97.708 82.5759 97.5509C83.2043 97.0796 83.3614 96.137 82.8901 95.5086L78.9626 89.853C78.6484 89.3817 78.1771 89.2246 77.7058 89.2246C77.3916 89.2246 77.2345 89.3817 76.9203 89.5388Z" fill="white"/>
</mask>
<g mask="url(#mask27_749_41160)">
<path d="M87.6014 93.4663L79.7465 101.636L71.7344 93.7805L79.5894 85.6113L87.6014 93.4663Z" fill="#35C5E8"/>
</g>
<mask id="mask28_749_41160" style="mask-type:luminance" maskUnits="userSpaceOnUse" x="55" y="58" width="21" height="30">
<path d="M56.3402 59.2165C55.7118 59.6878 55.5547 60.6304 56.026 61.2588L73.307 86.709C73.6212 87.1803 74.0925 87.3374 74.5637 87.3374C74.8779 87.3374 75.1921 87.1803 75.3492 87.0232C75.9776 86.5519 76.1347 85.6093 75.6634 84.9809L58.2254 59.5307C57.9112 59.0594 57.4399 58.9023 56.9686 58.9023C56.8115 58.9023 56.4973 59.0594 56.3402 59.2165Z" fill="white"/>
</mask>
<g mask="url(#mask28_749_41160)">
<path d="M90.2729 72.5706L66.0796 97.5494L41.2578 73.6703L65.4512 48.6914L90.2729 72.5706Z" fill="#35C5E8"/>
</g>
<mask id="mask29_749_41160" style="mask-type:luminance" maskUnits="userSpaceOnUse" x="1" y="67" width="11" height="6">
<path d="M9.52427 67.2294L2.76898 69.743C1.98348 70.0572 1.66928 70.8427 1.82638 71.6282C1.98348 72.2566 2.61188 72.5708 3.24028 72.5708C3.39738 72.5708 3.55448 72.5708 3.71158 72.4137L10.4669 69.9001C11.2524 69.5859 11.5666 68.8004 11.4095 68.0149C11.2524 67.3865 10.624 67.0723 9.99557 67.0723C9.83847 67.2294 9.68137 67.2294 9.52427 67.2294Z" fill="white"/>
</mask>
<g mask="url(#mask29_749_41160)">
<path d="M14.3947 69.8991L6.69678 77.5969L-1.1582 70.0562L6.38258 62.2012L14.3947 69.8991Z" fill="#35C5E8"/>
</g>
<mask id="mask30_749_41160" style="mask-type:luminance" maskUnits="userSpaceOnUse" x="15" y="56" width="26" height="12">
<path d="M38.7445 56.5477L16.9077 64.5598C16.1222 64.874 15.808 65.6595 15.9651 66.445C16.1222 67.0734 16.7506 67.3876 17.379 67.3876C17.5361 67.3876 17.6932 67.3876 17.8503 67.2305L39.6871 59.3755C40.4726 59.0613 40.7868 58.2758 40.6297 57.4903C40.3155 56.8619 39.6871 56.3906 39.2158 56.3906C39.0587 56.3906 38.9016 56.5477 38.7445 56.5477Z" fill="white"/>
</mask>
<g mask="url(#mask30_749_41160)">
<path d="M46.2853 61.7316L28.6901 80.1123L10.1523 62.2029L27.7475 43.8223L46.2853 61.7316Z" fill="#35C5E8"/>
</g>
<mask id="mask31_749_41160" style="mask-type:luminance" maskUnits="userSpaceOnUse" x="5" y="41" width="19" height="7">
<path d="M5.1258 42.8779C4.9687 43.6634 5.44 44.4489 6.2255 44.606L21.4642 47.4338C21.6213 47.4338 21.6213 47.4338 21.7784 47.4338C22.4068 47.4338 23.0352 46.9625 23.1923 46.177C23.3494 45.3915 22.8781 44.606 22.0926 44.4489L6.8539 41.6211C6.6968 41.6211 6.6968 41.6211 6.5397 41.6211C5.9113 41.7782 5.2829 42.2495 5.1258 42.8779Z" fill="white"/>
</mask>
<g mask="url(#mask31_749_41160)">
<path d="M26.334 44.6064L14.5515 56.7031L2.14062 44.7635L13.9231 32.5098L26.334 44.6064Z" fill="#35C5E8"/>
</g>
<mask id="mask32_749_41160" style="mask-type:luminance" maskUnits="userSpaceOnUse" x="27" y="46" width="12" height="5">
<path d="M27.1199 47.4345C26.9628 48.22 27.4341 49.0055 28.2196 49.1626L37.0172 50.8907C37.1743 50.8907 37.1743 50.8907 37.3314 50.8907C37.9598 50.8907 38.5882 50.4194 38.7453 49.6339C38.9024 48.8484 38.4311 48.0629 37.6456 47.9058L28.848 46.1777C28.6909 46.1777 28.6909 46.1777 28.5338 46.1777C27.9054 46.1777 27.277 46.649 27.1199 47.4345Z" fill="white"/>
</mask>
<g mask="url(#mask32_749_41160)">
<path d="M41.2572 48.3762L33.2451 56.7025L24.7617 48.5333L32.7738 40.207L41.2572 48.3762Z" fill="#35C5E8"/>
</g>
<mask id="mask33_749_41160" style="mask-type:luminance" maskUnits="userSpaceOnUse" x="20" y="57" width="28" height="29">
<path d="M44.8711 58.1189L21.149 82.7835C20.5206 83.4119 20.5206 84.3545 21.149 84.8258C21.4632 85.14 21.7774 85.2971 22.2487 85.2971C22.5629 85.2971 23.0342 85.14 23.3484 84.8258L47.0705 60.3183C47.6989 59.6899 47.6989 58.7473 47.0705 58.276C46.7563 57.9618 46.4421 57.8047 46.1279 57.8047C45.4995 57.8047 45.1853 57.9618 44.8711 58.1189Z" fill="white"/>
</mask>
<g mask="url(#mask33_749_41160)">
<path d="M61.3671 70.9999L34.5031 98.8066L6.85352 71.9425L33.5605 44.293L61.3671 70.9999Z" fill="#35C5E8"/>
</g>
<mask id="mask34_749_41160" style="mask-type:luminance" maskUnits="userSpaceOnUse" x="19" y="19" width="29" height="29">
<path d="M19.8932 19.7858C19.2648 20.4142 19.2648 21.3567 19.8932 21.828L44.5578 47.2782C44.872 47.5924 45.1862 47.7495 45.6575 47.7495C46.1288 47.7495 46.443 47.5924 46.7572 47.2782C47.3856 46.6498 47.3856 45.7072 46.7572 45.2359L21.9355 19.7858C21.6213 19.4716 21.3071 19.3145 20.8358 19.3145C20.5216 19.3145 20.0503 19.4716 19.8932 19.7858Z" fill="white"/>
</mask>
<g mask="url(#mask34_749_41160)">
<path d="M61.3675 33.1398L33.718 61.7319L4.96875 34.0824L32.7754 5.49023L61.3675 33.1398Z" fill="#35C5E8"/>
</g>
<mask id="mask35_749_41160" style="mask-type:luminance" maskUnits="userSpaceOnUse" x="50" y="62" width="4" height="23">
<path d="M50.5273 64.4011V82.7817C50.5273 83.5672 51.1557 84.3527 51.9412 84.3527C52.7267 84.3527 53.3551 83.7243 53.3551 82.7817V64.4011C53.3551 63.6156 52.7267 62.8301 51.9412 62.8301C51.1557 62.8301 50.5273 63.6156 50.5273 64.4011Z" fill="white"/>
</mask>
<g mask="url(#mask35_749_41160)">
<path d="M64.0371 73.1985L51.9404 85.6094L39.8438 73.984L51.7833 61.416L64.0371 73.1985Z" fill="#35C5E8"/>
</g>
<mask id="mask36_749_41160" style="mask-type:luminance" maskUnits="userSpaceOnUse" x="82" y="68" width="7" height="6">
<path d="M82.5775 69.2718C82.2633 70.0573 82.4204 70.8428 83.2059 71.3141L86.8192 73.1993C86.9763 73.3564 87.2905 73.3564 87.4476 73.3564C87.9189 73.3564 88.5473 73.0422 88.7044 72.5709C89.0186 71.7854 88.8615 70.9999 88.076 70.5286L84.4627 68.6434C84.3056 68.4863 83.9914 68.4863 83.8343 68.4863C83.363 68.4863 82.7346 68.8005 82.5775 69.2718Z" fill="white"/>
</mask>
<g mask="url(#mask36_749_41160)">
<path d="M91.6896 70.842L85.7198 76.9689L79.75 71.1562L85.5627 65.0293L91.6896 70.842Z" fill="#35C5E8"/>
</g>
<mask id="mask37_749_41160" style="mask-type:luminance" maskUnits="userSpaceOnUse" x="64" y="58" width="16" height="11">
<path d="M64.5111 59.6878C64.1969 60.4733 64.354 61.2588 65.1395 61.7301L77.7075 68.3283C77.8646 68.4854 78.1788 68.4854 78.3359 68.4854C78.8072 68.4854 79.4356 68.1712 79.5927 67.6999C79.9069 66.9144 79.7498 66.1289 78.9643 65.6576L66.3963 59.0594C66.2392 58.9023 65.925 58.9023 65.7679 58.9023C65.2966 58.9023 64.6682 59.2165 64.5111 59.6878Z" fill="white"/>
</mask>
<g mask="url(#mask37_749_41160)">
<path d="M84.7763 63.6149L72.3654 76.497L59.3262 63.9291L71.7371 51.0469L84.7763 63.6149Z" fill="#35C5E8"/>
</g>
<mask id="mask38_749_41160" style="mask-type:luminance" maskUnits="userSpaceOnUse" x="68" y="39" width="15" height="9">
<path d="M80.0622 40.0516L69.2223 44.9217C68.4368 45.2359 68.1226 46.1785 68.4368 46.8069C68.5939 47.4353 69.2223 47.7495 69.6936 47.7495C69.8507 47.7495 70.0078 47.7495 70.322 47.5924L81.1619 42.7223C81.9474 42.4081 82.2616 41.4655 81.9474 40.8371C81.7903 40.2087 81.1619 39.8945 80.6906 39.8945C80.3764 39.8945 80.2193 40.0516 80.0622 40.0516Z" fill="white"/>
</mask>
<g mask="url(#mask38_749_41160)">
<path d="M86.1882 43.8212L75.3483 54.9753L64.0371 43.9783L74.877 32.8242L86.1882 43.8212Z" fill="#35C5E8"/>
</g>
<mask id="mask39_749_41160" style="mask-type:luminance" maskUnits="userSpaceOnUse" x="85" y="11" width="8" height="7">
<path d="M89.8017 11.774L86.1884 15.2302C85.56 15.8586 85.56 16.8012 86.0313 17.2725C86.3455 17.5867 86.6597 17.7438 87.131 17.7438C87.4452 17.7438 87.7594 17.5867 88.0736 17.2725L91.6868 13.8163C92.3152 13.1879 92.3152 12.2453 91.844 11.774C91.5298 11.4598 91.2156 11.3027 90.7443 11.3027C90.4301 11.3027 89.9588 11.4598 89.8017 11.774Z" fill="white"/>
</mask>
<g mask="url(#mask39_749_41160)">
<path d="M95.4581 14.4439L89.017 21.1992L82.2617 14.601L88.8599 7.8457L95.4581 14.4439Z" fill="#35C5E8"/>
</g>
<mask id="mask40_749_41160" style="mask-type:luminance" maskUnits="userSpaceOnUse" x="39" y="25" width="7" height="12">
<path d="M40.6286 26.0692C39.8431 26.3834 39.5289 27.326 39.8431 27.9544L42.9851 35.6523C43.2993 36.2807 43.7705 36.5949 44.2418 36.5949C44.3989 36.5949 44.556 36.5949 44.8702 36.4378C45.6557 36.1236 45.9699 35.181 45.6557 34.5526L42.5138 26.8547C42.1996 26.2263 41.7283 25.9121 41.257 25.9121C40.9428 25.9121 40.7857 25.9121 40.6286 26.0692Z" fill="white"/>
</mask>
<g mask="url(#mask40_749_41160)">
<path d="M51.4685 31.0967L42.9851 39.8942L34.1875 31.4109L42.6709 22.6133L51.4685 31.0967Z" fill="#35C5E8"/>
</g>
<mask id="mask41_749_41160" style="mask-type:luminance" maskUnits="userSpaceOnUse" x="31" y="6" width="7" height="10">
<path d="M32.6188 6.90319C31.8333 7.21739 31.5191 8.00289 31.8333 8.78839L34.3469 14.9153C34.504 15.5437 35.1324 15.8579 35.6037 15.8579C35.7608 15.8579 35.9179 15.8579 36.2321 15.7008C37.0176 15.3866 37.3318 14.444 37.0176 13.8156L34.504 7.68869C34.3469 7.06029 33.7185 6.74609 33.2472 6.74609C32.933 6.74609 32.7759 6.74609 32.6188 6.90319Z" fill="white"/>
</mask>
<g mask="url(#mask41_749_41160)">
<path d="M41.8874 11.1454L34.5037 18.6862L26.9629 11.4596L34.3466 3.76172L41.8874 11.1454Z" fill="#35C5E8"/>
</g>
<mask id="mask42_749_41160" style="mask-type:luminance" maskUnits="userSpaceOnUse" x="68" y="5" width="6" height="9">
<path d="M71.4223 6.43198L69.0658 10.8308C68.7516 11.6163 68.9087 12.4018 69.6942 12.8731C69.8513 13.0302 70.1655 13.0302 70.3226 13.0302C70.7939 13.0302 71.4223 12.716 71.5794 12.2447L73.7788 7.84588C74.093 7.06038 73.9359 6.27488 73.1504 5.80358C72.9933 5.64648 72.6791 5.64648 72.522 5.64648C72.2078 5.64648 71.5794 5.80358 71.4223 6.43198Z" fill="white"/>
</mask>
<g mask="url(#mask42_749_41160)">
<path d="M78.0197 9.10235L71.5787 15.8576L64.9805 9.41655L71.4216 2.81836L78.0197 9.10235Z" fill="#35C5E8"/>
</g>
<mask id="mask43_749_41160" style="mask-type:luminance" maskUnits="userSpaceOnUse" x="57" y="22" width="9" height="15">
<path d="M62.624 23.556L57.2826 33.9246C56.9684 34.7101 57.1255 35.4956 57.911 35.9669C58.0681 36.124 58.3823 36.124 58.5394 36.124C59.0107 36.124 59.482 35.8098 59.7962 35.3385L65.1376 24.9699C65.4518 24.1844 65.2947 23.3989 64.5092 22.9276C64.3521 22.7705 64.0379 22.7705 63.8808 22.7705C63.4095 22.6134 62.9382 22.9276 62.624 23.556Z" fill="white"/>
</mask>
<g mask="url(#mask43_749_41160)">
<path d="M72.2068 29.211L61.367 40.365L50.2129 29.6823L61.0528 18.3711L72.2068 29.211Z" fill="#35C5E8"/>
</g>
<mask id="mask44_749_41160" style="mask-type:luminance" maskUnits="userSpaceOnUse" x="31" y="89" width="6" height="10">
<path d="M34.1904 90.1664L31.3627 95.8219C31.0485 96.6074 31.2056 97.3929 31.9911 97.8642C32.1482 98.0213 32.4624 98.0213 32.6195 98.0213C33.0908 98.0213 33.7191 97.7071 33.8762 97.2358L36.704 91.5803C37.0182 90.7948 36.8611 90.0093 36.0756 89.538C35.9185 89.3809 35.6043 89.3809 35.4472 89.3809C34.9759 89.3809 34.3475 89.6951 34.1904 90.1664Z" fill="white"/>
</mask>
<g mask="url(#mask44_749_41160)">
<path d="M41.4178 93.466L34.1912 101.007L26.6504 93.7802L33.877 86.3965L41.4178 93.466Z" fill="#35C5E8"/>
</g>
<mask id="mask45_749_41160" style="mask-type:luminance" maskUnits="userSpaceOnUse" x="40" y="71" width="6" height="10">
<path d="M43.1444 72.4144L40.1595 78.3842C39.8453 79.1697 40.0024 79.9552 40.7879 80.4265C40.945 80.5836 41.2592 80.5836 41.4163 80.5836C41.8876 80.5836 42.516 80.2694 42.6731 79.7981L45.658 73.8283C45.9722 73.0428 45.8151 72.2573 45.0296 71.786C44.8725 71.6289 44.5583 71.6289 44.4012 71.6289C43.9299 71.6289 43.4586 71.9431 43.1444 72.4144Z" fill="white"/>
</mask>
<g mask="url(#mask45_749_41160)">
<path d="M50.5277 76.0271L42.9869 83.725L35.2891 76.3413L42.8298 68.4863L50.5277 76.0271Z" fill="#35C5E8"/>
</g>
<mask id="mask46_749_41160" style="mask-type:luminance" maskUnits="userSpaceOnUse" x="14" y="53" width="13" height="5">
<path d="M25.0756 53.2469L16.1209 54.5037C15.3354 54.6608 14.707 55.4463 14.8641 56.2318C15.0212 57.0173 15.6496 57.4886 16.278 57.4886H16.4351L25.3898 56.0747C26.1753 55.9176 26.8037 55.1321 26.6466 54.3466C26.4895 53.5611 25.8611 53.0898 25.2327 53.0898C25.2327 53.0898 25.0756 53.0898 25.0756 53.2469Z" fill="white"/>
</mask>
<g mask="url(#mask46_749_41160)">
<path d="M29.0033 55.2883L20.9912 63.4575L12.5078 55.4454L20.5199 47.1191L29.0033 55.2883Z" fill="#35C5E8"/>
</g>
<mask id="mask47_749_41160" style="mask-type:luminance" maskUnits="userSpaceOnUse" x="9" y="29" width="9" height="7">
<path d="M9.68102 29.8402C9.36682 30.6257 9.52392 31.4112 10.3094 31.8825L15.6508 35.0245C15.8079 35.1816 16.1221 35.1816 16.2792 35.1816C16.7505 35.1816 17.2218 34.8674 17.536 34.3961C17.8502 33.6106 17.6931 32.8251 16.9076 32.3538L11.5662 29.2118C11.4091 29.0547 11.0949 29.0547 10.9378 29.0547C10.4665 29.0547 9.99521 29.2118 9.68102 29.8402Z" fill="white"/>
</mask>
<g mask="url(#mask47_749_41160)">
<path d="M21.1482 31.8828L13.9216 39.4236L6.38086 32.197L13.6074 24.6562L21.1482 31.8828Z" fill="#35C5E8"/>
</g>
<mask id="mask48_749_41160" style="mask-type:luminance" maskUnits="userSpaceOnUse" x="80" y="58" width="14" height="6">
<path d="M80.2196 60.1591C80.0625 60.9446 80.5338 61.7301 81.3193 61.8872L91.5307 63.9295C91.6878 63.9295 91.6878 63.9295 91.8449 63.9295C92.4733 63.9295 93.1017 63.4582 93.2588 62.6727C93.4159 61.8872 92.9446 61.1017 92.1591 60.9446L81.9477 58.9023C81.7906 58.9023 81.7906 58.9023 81.6335 58.9023C81.0051 58.9023 80.3767 59.3736 80.2196 60.1591Z" fill="white"/>
</mask>
<g mask="url(#mask48_749_41160)">
<path d="M95.9295 61.4165L86.9748 70.6853L77.5488 61.5736L86.5035 52.3047L95.9295 61.4165Z" fill="#35C5E8"/>
</g>
<mask id="mask49_749_41160" style="mask-type:luminance" maskUnits="userSpaceOnUse" x="65" y="94" width="5" height="9">
<path d="M65.9235 94.7227C65.138 95.0369 64.8238 95.8223 65.138 96.6078L66.8661 101.478C67.0232 102.106 67.6516 102.421 68.28 102.421C68.4371 102.421 68.5942 102.421 68.7513 102.263C69.5368 101.949 69.851 101.164 69.5368 100.378L67.8087 95.6653C67.6516 95.0369 67.0232 94.7227 66.3948 94.7227C66.2377 94.7227 66.0806 94.7227 65.9235 94.7227Z" fill="white"/>
</mask>
<g mask="url(#mask49_749_41160)">
<path d="M73.7795 98.493L67.3384 105.091L60.7402 98.8072L67.1813 92.209L73.7795 98.493Z" fill="#35C5E8"/>
</g>
<mask id="mask50_749_41160" style="mask-type:luminance" maskUnits="userSpaceOnUse" x="58" y="77" width="6" height="8">
<path d="M59.6403 77.7548C58.8548 78.069 58.5406 78.8545 58.8548 79.64L60.2687 83.7245C60.4258 84.3529 61.0542 84.6671 61.6826 84.6671C61.8397 84.6671 61.9968 84.6671 62.1539 84.51C62.9394 84.1958 63.2536 83.4103 62.9394 82.6248L61.5255 78.5403C61.3684 77.9119 60.74 77.5977 60.1116 77.5977C60.1116 77.5977 59.9545 77.5977 59.6403 77.7548Z" fill="white"/>
</mask>
<g mask="url(#mask50_749_41160)">
<path d="M66.8684 81.0529L61.0557 87.0227L55.0859 81.21L60.8986 75.2402L66.8684 81.0529Z" fill="#35C5E8"/>
</g>
</g>
<defs>
<clipPath id="clip0_749_41160">
<rect width="104" height="104" fill="white" transform="translate(0 0.933594)"/>
</clipPath>
</defs>
</svg>
