<svg width="104" height="105" viewBox="0 0 104 105" fill="none" xmlns="http://www.w3.org/2000/svg">
<g clip-path="url(#clip0_749_40558)">
<mask id="mask0_749_40558" style="mask-type:luminance" maskUnits="userSpaceOnUse" x="41" y="0" width="22" height="23">
<path d="M44.5215 15.3271C43.957 14.1982 43.6748 12.9282 43.6748 11.6582C43.6748 7.14255 47.3437 3.47362 51.8593 3.47362C56.3749 3.47362 60.0439 7.14255 60.0439 11.6582C60.0439 12.9282 59.7616 14.1982 59.1972 15.3271C57.7861 18.1493 54.9638 19.8427 51.8593 19.8427C48.7548 19.8427 45.9326 18.1493 44.5215 15.3271ZM51.8593 0.933594C45.9326 0.933594 41.1348 5.73142 41.1348 11.6582C41.1348 13.3515 41.5581 14.9037 42.2637 16.456C44.0981 20.1249 47.7671 22.3827 51.8593 22.3827C55.9516 22.3827 59.6205 20.1249 61.455 16.456C62.1605 14.9037 62.5839 13.3515 62.5839 11.6582C62.5839 5.73142 57.7861 0.933594 51.8593 0.933594Z" fill="white"/>
</mask>
<g mask="url(#mask0_749_40558)">
<path d="M71.7566 6.15521L57.3632 31.5555L31.9629 17.162L46.3564 -8.23828L71.7566 6.15521Z" fill="#35C5E8"/>
</g>
<mask id="mask1_749_40558" style="mask-type:luminance" maskUnits="userSpaceOnUse" x="32" y="22" width="40" height="17">
<path d="M41.1352 25.6284C36.6196 28.3095 33.7974 31.9785 32.104 36.9174C31.8218 37.623 32.2451 38.3285 32.9507 38.4696C33.6563 38.6108 34.3618 38.3285 34.5029 37.623C35.9141 33.2485 38.4541 30.144 42.4052 27.7451C48.7553 23.9351 54.9643 23.9351 61.3143 27.7451C65.2655 30.144 67.9466 33.3896 69.3578 37.9052C69.4989 38.4697 70.0633 38.7519 70.6278 38.7519C70.7689 38.7519 70.91 38.7519 71.0511 38.7519C71.7567 38.4697 72.0389 37.7641 71.8978 37.1996C70.2044 32.1196 67.3822 28.4507 62.7255 25.6284C59.0565 23.3706 55.5287 22.3828 52.0009 22.3828C48.332 22.3828 44.8042 23.5117 41.1352 25.6284Z" fill="white"/>
</mask>
<g mask="url(#mask1_749_40558)">
<path d="M79.094 26.3349L62.3016 56.1096L24.7656 34.8016L41.6991 5.16797L79.094 26.3349Z" fill="#35C5E8"/>
</g>
<mask id="mask2_749_40558" style="mask-type:luminance" maskUnits="userSpaceOnUse" x="24" y="41" width="56" height="20">
<path d="M27.3057 57.3793V44.2558C27.3057 44.1147 27.4468 43.9736 27.5879 43.9736H76.4128C76.554 43.9736 76.6951 44.1147 76.6951 44.2558V57.3793C76.6951 57.5204 76.554 57.6615 76.4128 57.6615H27.5879C27.4468 57.5204 27.3057 57.5204 27.3057 57.3793ZM27.5879 41.4336C26.0356 41.4336 24.7656 42.7036 24.7656 44.2558V57.3793C24.7656 58.9316 26.0356 60.2016 27.5879 60.2016H76.4128C77.9651 60.2016 79.2351 58.9316 79.2351 57.3793V44.2558C79.2351 42.7036 77.9651 41.4336 76.4128 41.4336H27.5879Z" fill="white"/>
</mask>
<g mask="url(#mask2_749_40558)">
<path d="M87.1374 46.0907L65.8294 83.4855L16.8633 55.5452L38.0302 18.1504L87.1374 46.0907Z" fill="#35C5E8"/>
</g>
<mask id="mask3_749_40558" style="mask-type:luminance" maskUnits="userSpaceOnUse" x="30" y="46" width="44" height="9">
<path d="M33.0908 49.4756H70.7679V52.1567H33.0908V49.4756ZM31.8208 46.9355C31.1152 46.9355 30.5508 47.5 30.5508 48.2056V53.4267C30.5508 54.1323 31.1152 54.6967 31.8208 54.6967H72.0379C72.7435 54.6967 73.3079 54.1323 73.3079 53.4267V48.2056C73.3079 47.5 72.7435 46.9355 72.0379 46.9355H31.8208Z" fill="white"/>
</mask>
<g mask="url(#mask3_749_40558)">
<path d="M76.6941 48.769L62.8651 73.0403L27.3047 52.8612L40.9926 28.5898L76.6941 48.769Z" fill="#35C5E8"/>
</g>
<mask id="mask4_749_40558" style="mask-type:luminance" maskUnits="userSpaceOnUse" x="30" y="57" width="7" height="48">
<path d="M30.5508 58.7895V63.4463C30.5508 64.5752 30.9741 65.563 31.8208 66.4096C32.6675 67.1152 33.9375 68.6674 33.9375 70.3608V90.9632C33.9375 91.2455 33.6553 94.3499 31.9619 95.761C31.1152 96.4666 30.5508 97.4544 30.5508 98.4422V103.663C30.5508 104.369 31.1152 104.933 31.8208 104.933C32.5264 104.933 33.0908 104.369 33.0908 103.663V98.4422C33.0908 98.16 33.373 97.8777 33.5141 97.7366C36.1953 95.6199 36.3364 91.2454 36.4775 91.1043V70.3608C36.4775 67.9619 34.9253 65.8452 33.6553 64.5752C33.373 64.2929 33.2319 63.8696 33.2319 63.4463V58.7895C33.2319 58.084 32.6675 57.5195 31.9619 57.5195C31.1152 57.5195 30.5508 58.084 30.5508 58.7895Z" fill="white"/>
</mask>
<g mask="url(#mask4_749_40558)">
<path d="M56.7976 69.0912L35.0663 107.474L10.2305 93.3626L31.9618 55.1211L56.7976 69.0912Z" fill="#35C5E8"/>
</g>
<mask id="mask5_749_40558" style="mask-type:luminance" maskUnits="userSpaceOnUse" x="67" y="57" width="7" height="48">
<path d="M70.769 58.7895V63.4463C70.769 63.8696 70.6279 64.2929 70.3457 64.5752C69.0757 65.8452 67.5234 67.9619 67.5234 70.3608V91.1043C67.5234 91.2454 67.8057 95.6199 70.4868 97.7366C70.6279 97.8777 70.9101 98.16 70.9101 98.4422V103.663C70.9101 104.369 71.4746 104.933 72.1802 104.933C72.8857 104.933 73.4502 104.369 73.4502 103.663V98.4422C73.4502 97.4544 72.8857 96.4666 72.039 95.761C70.6279 94.6321 70.2046 91.951 70.0635 90.9632V70.3608C70.0635 68.6674 71.3335 67.1152 72.1802 66.4096C73.0268 65.563 73.4502 64.5752 73.4502 63.4463V58.7895C73.4502 58.084 72.8857 57.5195 72.1802 57.5195C71.3335 57.5195 70.769 58.084 70.769 58.7895Z" fill="white"/>
</mask>
<g mask="url(#mask5_749_40558)">
<path d="M93.7703 69.0912L71.8978 107.474L47.2031 93.3626L68.9345 55.1211L93.7703 69.0912Z" fill="#35C5E8"/>
</g>
<mask id="mask6_749_40558" style="mask-type:luminance" maskUnits="userSpaceOnUse" x="39" y="63" width="25" height="37">
<path d="M42.4053 65.7041H61.1732V97.3133H42.4053V65.7041ZM41.1352 63.1641C40.4297 63.1641 39.8652 63.7285 39.8652 64.4341V98.5833C39.8652 99.2889 40.4297 99.8533 41.1352 99.8533H62.4433C63.1488 99.8533 63.7133 99.2889 63.7133 98.5833V64.4341C63.7133 63.7285 63.1488 63.1641 62.4433 63.1641H41.1352Z" fill="white"/>
</mask>
<g mask="url(#mask6_749_40558)">
<path d="M79.3767 72.1952L57.7865 110.155L24.0605 90.9632L45.6508 53.0039L79.3767 72.1952Z" fill="#35C5E8"/>
</g>
<mask id="mask7_749_40558" style="mask-type:luminance" maskUnits="userSpaceOnUse" x="30" y="102" width="44" height="3">
<path d="M31.8208 102.395C31.1152 102.395 30.5508 102.959 30.5508 103.665C30.5508 104.37 31.1152 104.935 31.8208 104.935H72.0379C72.7435 104.935 73.3079 104.37 73.3079 103.665C73.3079 102.959 72.7435 102.395 72.0379 102.395H31.8208Z" fill="white"/>
</mask>
<g mask="url(#mask7_749_40558)">
<path d="M74.4363 103.101L62.8651 123.28L29.5625 104.371L40.9926 84.0508L74.4363 103.101Z" fill="#35C5E8"/>
</g>
<mask id="mask8_749_40558" style="mask-type:luminance" maskUnits="userSpaceOnUse" x="50" y="64" width="4" height="35">
<path d="M53.2705 64.5762H50.7305V98.8665H53.2705V64.5762Z" fill="white"/>
</mask>
<g mask="url(#mask8_749_40558)">
<path d="M67.9461 72.9013L52.5649 99.9949L36.0547 90.5404L51.2949 63.5879L67.9461 72.9013Z" fill="#35C5E8"/>
</g>
<mask id="mask9_749_40558" style="mask-type:luminance" maskUnits="userSpaceOnUse" x="49" y="29" width="6" height="15">
<path d="M52.0005 29.5801C50.3071 29.5801 49.0371 30.8501 49.0371 32.5434V35.2246C49.0371 36.4946 49.7427 37.4824 50.7305 37.9057V42.5624C50.7305 43.268 51.2949 43.8325 52.0005 43.8325C52.706 43.8325 53.2705 43.268 53.2705 42.5624V37.9057C54.2583 37.4824 54.9638 36.3535 54.9638 35.2246V32.5434C54.9638 30.8501 53.6938 29.5801 52.0005 29.5801Z" fill="white"/>
</mask>
<g mask="url(#mask9_749_40558)">
<path d="M61.1728 33.1074L53.5527 46.5131L42.8281 40.4453L50.4482 26.8984L61.1728 33.1074Z" fill="#35C5E8"/>
</g>
</g>
<defs>
<clipPath id="clip0_749_40558">
<rect width="104" height="104" fill="white" transform="translate(0 0.933594)"/>
</clipPath>
</defs>
</svg>
