<svg width="104" height="104" viewBox="0 0 104 104" fill="none" xmlns="http://www.w3.org/2000/svg">
<g id="Event Consultancy &#38; Management.">
<g id="Group">
<g id="Group_2">
<g id="Clip path group">
<mask id="mask0_77_826" style="mask-type:luminance" maskUnits="userSpaceOnUse" x="41" y="0" width="22" height="22">
<g id="SVGID_2_">
<path id="Vector" d="M44.5215 14.3935C43.957 13.2646 43.6748 11.9946 43.6748 10.7246C43.6748 6.20896 47.3437 2.54003 51.8593 2.54003C56.3749 2.54003 60.0439 6.20896 60.0439 10.7246C60.0439 11.9946 59.7616 13.2646 59.1972 14.3935C57.7861 17.2157 54.9638 18.9091 51.8593 18.9091C48.7548 18.9091 45.9326 17.2157 44.5215 14.3935ZM51.8593 0C45.9326 0 41.1348 4.79783 41.1348 10.7246C41.1348 12.4179 41.5581 13.9702 42.2637 15.5224C44.0981 19.1913 47.7671 21.4491 51.8593 21.4491C55.9516 21.4491 59.6205 19.1913 61.455 15.5224C62.1605 13.9702 62.5839 12.4179 62.5839 10.7246C62.5839 4.79783 57.7861 0 51.8593 0Z" fill="white"/>
</g>
</mask>
<g mask="url(#mask0_77_826)">
<path id="Vector_2" d="M71.7562 5.22112L57.3627 30.6214L31.9624 16.2279L46.3559 -9.17236L71.7562 5.22112Z" fill="url(#paint0_linear_77_826)"/>
</g>
</g>
</g>
<g id="Group_3">
<g id="Clip path group_2">
<mask id="mask1_77_826" style="mask-type:luminance" maskUnits="userSpaceOnUse" x="32" y="21" width="40" height="17">
<g id="SVGID_5_">
<path id="Vector_3" d="M41.1338 24.6946C36.6182 27.3757 33.7959 31.0446 32.1026 35.9836C31.8203 36.6891 32.2437 37.3947 32.9492 37.5358C33.6548 37.6769 34.3604 37.3947 34.5015 36.6891C35.9126 32.3146 38.4526 29.2102 42.4038 26.8113C48.7539 23.0012 54.9628 23.0012 61.3129 26.8113C65.264 29.2102 67.9452 32.4558 69.3563 36.9714C69.4974 37.5358 70.0619 37.818 70.6263 37.818C70.7674 37.818 70.9085 37.818 71.0496 37.818C71.7552 37.5358 72.0374 36.8303 71.8963 36.2658C70.203 31.1857 67.3807 27.5168 62.724 24.6946C59.0551 22.4368 55.5273 21.449 51.9994 21.449C48.3305 21.449 44.8027 22.5779 41.1338 24.6946Z" fill="white"/>
</g>
</mask>
<g mask="url(#mask1_77_826)">
<path id="Vector_4" d="M79.0935 25.4003L62.3011 55.1751L24.7651 33.8671L41.6987 4.2334L79.0935 25.4003Z" fill="url(#paint1_linear_77_826)"/>
</g>
</g>
</g>
<g id="Group_4">
<g id="Clip path group_3">
<mask id="mask2_77_826" style="mask-type:luminance" maskUnits="userSpaceOnUse" x="24" y="40" width="56" height="20">
<g id="SVGID_8_">
<path id="Vector_5" d="M27.3052 56.4451V43.3216C27.3052 43.1805 27.4463 43.0394 27.5874 43.0394H76.4124C76.5535 43.0394 76.6946 43.1805 76.6946 43.3216V56.4451C76.6946 56.5862 76.5535 56.7273 76.4124 56.7273H27.5874C27.4463 56.5862 27.3052 56.5862 27.3052 56.4451ZM27.5874 40.4994C26.0352 40.4994 24.7651 41.7694 24.7651 43.3216V56.4451C24.7651 57.9974 26.0352 59.2674 27.5874 59.2674H76.4124C77.9646 59.2674 79.2346 57.9974 79.2346 56.4451V43.3216C79.2346 41.7694 77.9646 40.4994 76.4124 40.4994H27.5874Z" fill="white"/>
</g>
</mask>
<g mask="url(#mask2_77_826)">
<path id="Vector_6" d="M87.1364 45.1559L65.8284 82.5507L16.8623 54.6104L38.0292 17.2156L87.1364 45.1559Z" fill="url(#paint2_linear_77_826)"/>
</g>
</g>
</g>
<g id="Group_5">
<g id="Clip path group_4">
<mask id="mask3_77_826" style="mask-type:luminance" maskUnits="userSpaceOnUse" x="30" y="46" width="44" height="8">
<g id="SVGID_11_">
<path id="Vector_7" d="M33.0913 48.5428H70.7684V51.224H33.0913V48.5428ZM31.8213 46.0028C31.1157 46.0028 30.5513 46.5673 30.5513 47.2728V52.494C30.5513 53.1996 31.1157 53.764 31.8213 53.764H72.0384C72.7439 53.764 73.3084 53.1996 73.3084 52.494V47.2728C73.3084 46.5673 72.7439 46.0028 72.0384 46.0028H31.8213Z" fill="white"/>
</g>
</mask>
<g mask="url(#mask3_77_826)">
<path id="Vector_8" d="M76.6946 47.8372L62.8656 72.1086L27.3052 51.9295L40.9931 27.6581L76.6946 47.8372Z" fill="url(#paint3_linear_77_826)"/>
</g>
</g>
</g>
<g id="Group_6">
<g id="Clip path group_5">
<mask id="mask4_77_826" style="mask-type:luminance" maskUnits="userSpaceOnUse" x="30" y="56" width="7" height="48">
<g id="SVGID_14_">
<path id="Vector_9" d="M30.5513 57.8562V62.5129C30.5513 63.6418 30.9746 64.6296 31.8213 65.4763C32.668 66.1818 33.938 67.7341 33.938 69.4274V90.0299C33.938 90.3121 33.6557 93.4166 31.9624 94.8277C31.1157 95.5333 30.5513 96.521 30.5513 97.5088V102.73C30.5513 103.436 31.1157 104 31.8213 104C32.5268 104 33.0913 103.436 33.0913 102.73V97.5088C33.0913 97.2266 33.3735 96.9444 33.5146 96.8033C36.1958 94.6866 36.3369 90.3121 36.478 90.171V69.4274C36.478 67.0285 34.9258 64.9118 33.6557 63.6418C33.3735 63.3596 33.2324 62.9363 33.2324 62.5129V57.8562C33.2324 57.1506 32.668 56.5862 31.9624 56.5862C31.1157 56.5862 30.5513 57.1506 30.5513 57.8562Z" fill="white"/>
</g>
</mask>
<g mask="url(#mask4_77_826)">
<path id="Vector_10" d="M56.7981 68.1574L35.0668 106.54L10.231 92.4288L31.9623 54.1873L56.7981 68.1574Z" fill="url(#paint4_linear_77_826)"/>
</g>
</g>
</g>
<g id="Group_7">
<g id="Clip path group_6">
<mask id="mask5_77_826" style="mask-type:luminance" maskUnits="userSpaceOnUse" x="67" y="56" width="7" height="48">
<g id="SVGID_17_">
<path id="Vector_11" d="M70.7676 57.8562V62.5129C70.7676 62.9363 70.6265 63.3596 70.3442 63.6418C69.0742 64.9118 67.522 67.0285 67.522 69.4274V90.171C67.522 90.3121 67.8042 94.6866 70.4853 96.8033C70.6265 96.9444 70.9087 97.2266 70.9087 97.5088V102.73C70.9087 103.436 71.4731 104 72.1787 104C72.8843 104 73.4487 103.436 73.4487 102.73V97.5088C73.4487 96.521 72.8843 95.5333 72.0376 94.8277C70.6265 93.6988 70.2031 91.0177 70.062 90.0299V69.4274C70.062 67.7341 71.332 66.1818 72.1787 65.4763C73.0254 64.6296 73.4487 63.6418 73.4487 62.5129V57.8562C73.4487 57.1506 72.8843 56.5862 72.1787 56.5862C71.332 56.5862 70.7676 57.1506 70.7676 57.8562Z" fill="white"/>
</g>
</mask>
<g mask="url(#mask5_77_826)">
<path id="Vector_12" d="M93.7693 68.1574L71.8969 106.54L47.2021 92.4288L68.9335 54.1873L93.7693 68.1574Z" fill="url(#paint5_linear_77_826)"/>
</g>
</g>
</g>
<g id="Group_8">
<g id="Clip path group_7">
<mask id="mask6_77_826" style="mask-type:luminance" maskUnits="userSpaceOnUse" x="39" y="62" width="25" height="37">
<g id="SVGID_20_">
<path id="Vector_13" d="M42.4043 64.7706H61.1723V96.3799H42.4043V64.7706ZM41.1343 62.2306C40.4287 62.2306 39.8643 62.795 39.8643 63.5006V97.6499C39.8643 98.3554 40.4287 98.9199 41.1343 98.9199H62.4423C63.1478 98.9199 63.7123 98.3554 63.7123 97.6499V63.5006C63.7123 62.795 63.1478 62.2306 62.4423 62.2306H41.1343Z" fill="white"/>
</g>
</mask>
<g mask="url(#mask6_77_826)">
<path id="Vector_14" d="M79.3757 71.2619L57.7855 109.221L24.0596 90.0299L45.6498 52.0706L79.3757 71.2619Z" fill="url(#paint6_linear_77_826)"/>
</g>
</g>
</g>
<g id="Group_9">
<g id="Clip path group_8">
<mask id="mask7_77_826" style="mask-type:luminance" maskUnits="userSpaceOnUse" x="30" y="101" width="44" height="3">
<g id="SVGID_23_">
<path id="Vector_15" d="M31.8213 101.46C31.1157 101.46 30.5513 102.024 30.5513 102.73C30.5513 103.436 31.1157 104 31.8213 104H72.0384C72.7439 104 73.3084 103.436 73.3084 102.73C73.3084 102.024 72.7439 101.46 72.0384 101.46H31.8213Z" fill="white"/>
</g>
</mask>
<g mask="url(#mask7_77_826)">
<path id="Vector_16" d="M74.4368 102.166L62.8656 122.345L29.563 103.436L40.9931 83.1155L74.4368 102.166Z" fill="url(#paint7_linear_77_826)"/>
</g>
</g>
</g>
<g id="Group_10">
<g id="Clip path group_9">
<mask id="mask8_77_826" style="mask-type:luminance" maskUnits="userSpaceOnUse" x="50" y="63" width="4" height="35">
<g id="SVGID_26_">
<path id="Vector_17" d="M53.2705 63.6418H50.7305V97.9322H53.2705V63.6418Z" fill="white"/>
</g>
</mask>
<g mask="url(#mask8_77_826)">
<path id="Vector_18" d="M67.9461 71.9675L52.5649 99.0611L36.0547 89.6066L51.2949 62.6541L67.9461 71.9675Z" fill="url(#paint8_linear_77_826)"/>
</g>
</g>
</g>
<g id="Group_11">
<g id="Clip path group_10">
<mask id="mask9_77_826" style="mask-type:luminance" maskUnits="userSpaceOnUse" x="49" y="28" width="6" height="15">
<g id="SVGID_29_">
<path id="Vector_19" d="M52 28.6459C50.3066 28.6459 49.0366 29.9159 49.0366 31.6092V34.2904C49.0366 35.5604 49.7422 36.5482 50.73 36.9715V41.6282C50.73 42.3338 51.2944 42.8983 52 42.8983C52.7055 42.8983 53.27 42.3338 53.27 41.6282V36.9715C54.2578 36.5482 54.9634 35.4193 54.9634 34.2904V31.6092C54.9634 29.9159 53.6933 28.6459 52 28.6459Z" fill="white"/>
</g>
</mask>
<g mask="url(#mask9_77_826)">
<path id="Vector_20" d="M61.1733 32.1738L53.5532 45.5795L42.8286 39.5117L50.4487 25.9648L61.1733 32.1738Z" fill="url(#paint9_linear_77_826)"/>
</g>
</g>
</g>
</g>
</g>
<defs>
<linearGradient id="paint0_linear_77_826" x1="60.2239" y1="-4.03701" x2="12.5733" y2="79.8433" gradientUnits="userSpaceOnUse">
<stop stop-color="white"/>
<stop offset="1" stop-color="#231F20"/>
</linearGradient>
<linearGradient id="paint1_linear_77_826" x1="68.3439" y1="0.646779" x2="20.6933" y2="84.5271" gradientUnits="userSpaceOnUse">
<stop stop-color="white"/>
<stop offset="1" stop-color="#231F20"/>
</linearGradient>
<linearGradient id="paint2_linear_77_826" x1="77.0744" y1="5.53588" x2="29.4238" y2="89.4162" gradientUnits="userSpaceOnUse">
<stop stop-color="white"/>
<stop offset="1" stop-color="#231F20"/>
</linearGradient>
<linearGradient id="paint3_linear_77_826" x1="77.075" y1="5.53606" x2="29.4243" y2="89.4164" gradientUnits="userSpaceOnUse">
<stop stop-color="white"/>
<stop offset="1" stop-color="#231F20"/>
</linearGradient>
<linearGradient id="paint4_linear_77_826" x1="76.2114" y1="5.04526" x2="28.5608" y2="88.9256" gradientUnits="userSpaceOnUse">
<stop stop-color="white"/>
<stop offset="1" stop-color="#231F20"/>
</linearGradient>
<linearGradient id="paint5_linear_77_826" x1="104.118" y1="20.8986" x2="56.4674" y2="104.779" gradientUnits="userSpaceOnUse">
<stop stop-color="white"/>
<stop offset="1" stop-color="#231F20"/>
</linearGradient>
<linearGradient id="paint6_linear_77_826" x1="90.1099" y1="12.941" x2="42.4593" y2="96.8213" gradientUnits="userSpaceOnUse">
<stop stop-color="white"/>
<stop offset="1" stop-color="#231F20"/>
</linearGradient>
<linearGradient id="paint7_linear_77_826" x1="99.7981" y1="18.4448" x2="52.1475" y2="102.325" gradientUnits="userSpaceOnUse">
<stop stop-color="white"/>
<stop offset="1" stop-color="#231F20"/>
</linearGradient>
<linearGradient id="paint8_linear_77_826" x1="90.3621" y1="13.084" x2="42.7115" y2="96.9643" gradientUnits="userSpaceOnUse">
<stop stop-color="white"/>
<stop offset="1" stop-color="#231F20"/>
</linearGradient>
<linearGradient id="paint9_linear_77_826" x1="71.0366" y1="2.10532" x2="23.386" y2="85.9856" gradientUnits="userSpaceOnUse">
<stop stop-color="white"/>
<stop offset="1" stop-color="#231F20"/>
</linearGradient>
</defs>
</svg>
