<svg width="16" height="26" viewBox="0 0 16 26" fill="none" xmlns="http://www.w3.org/2000/svg">
<path d="M10.0363 25.4919V14.1519H14.3483L14.9923 9.72794H10.0363V6.89994C10.0363 6.19061 10.1949 5.66794 10.5123 5.33194C10.8856 4.93994 11.5576 4.74394 12.5283 4.74394H15.1603V0.795942C14.8616 0.75861 14.3949 0.721275 13.7603 0.683943C12.9389 0.646608 12.1176 0.627943 11.2963 0.627943C10.0269 0.627943 8.90693 0.851942 7.93627 1.29994C6.9656 1.74794 6.21427 2.41061 5.68227 3.28794C5.15027 4.16528 4.88427 5.21994 4.88427 6.45194V9.72794H0.572266V14.1519H4.88427V25.4919H10.0363Z" fill="white"/>
</svg>
