<svg width="104" height="105" viewBox="0 0 104 105" fill="none" xmlns="http://www.w3.org/2000/svg">
<mask id="mask0_749_41050" style="mask-type:luminance" maskUnits="userSpaceOnUse" x="5" y="16" width="94" height="52">
<path d="M8.46739 19.2096H95.5302V64.2267H8.46739V19.2096ZM8.46739 16.3867C6.8331 16.3867 5.64453 17.5753 5.64453 19.2096V64.2267C5.64453 65.7124 6.98167 67.0496 8.46739 67.0496H95.5302C97.1645 67.0496 98.3531 65.861 98.3531 64.2267V19.2096C98.3531 17.7239 97.016 16.3867 95.5302 16.3867H8.46739Z" fill="white"/>
</mask>
<g mask="url(#mask0_749_41050)">
<path d="M123.758 40.9018L53.6324 113.405L-19.6133 42.6846L50.5124 -29.9668L123.758 40.9018Z" fill="#35C5E8"/>
</g>
<mask id="mask1_749_41050" style="mask-type:luminance" maskUnits="userSpaceOnUse" x="0" y="10" width="104" height="86">
<path d="M33.4286 90.9688C33.4286 89.4831 34.7657 88.146 36.2514 88.146H67.7486C69.3829 88.146 70.5714 89.3345 70.5714 90.9688V92.306H33.4286V90.9688ZM46.2057 81.1631H57.9429C58.24 82.7974 59.1314 84.2831 60.4686 85.3231H43.68C45.0171 84.2831 45.9086 82.7974 46.2057 81.1631ZM2.82286 75.5174V72.6945H101.326V75.5174C101.326 77.0031 99.9886 78.3402 98.5029 78.3402H5.64572C4.16 78.3402 2.82286 77.0031 2.82286 75.5174ZM2.82286 16.3859C2.82286 14.9002 4.16 13.5631 5.64572 13.5631H98.5029C100.137 13.5631 101.326 14.7517 101.326 16.3859V69.8717H2.82286V16.3859ZM5.64572 10.8888C2.52572 10.8888 0 13.4145 0 16.5345V75.5174C0 78.6374 2.52572 81.1631 5.64572 81.1631H43.2343C42.1943 84.1345 38.3314 85.1745 37.5886 85.3231H36.2514C33.1314 85.3231 30.6057 87.8488 30.6057 90.9688V92.306C30.6057 93.7917 31.9429 95.1288 33.4286 95.1288H70.5714C72.2057 95.1288 73.3943 93.9402 73.3943 92.306V90.9688C73.3943 87.8488 70.8686 85.3231 67.7486 85.3231H66.4114C65.6686 85.1745 61.8057 84.1345 60.7657 81.1631H98.3543C101.474 81.1631 104 78.6374 104 75.5174V16.3859C104 13.2659 101.474 10.7402 98.3543 10.7402H5.64572V10.8888Z" fill="white"/>
</mask>
<g mask="url(#mask1_749_41050)">
<path d="M146.342 51.5974L53.9304 147.277L-42.1953 54.4202L50.2161 -41.2598L146.342 51.5974Z" fill="#35C5E8"/>
</g>
</svg>
