<svg width="104" height="104" viewBox="0 0 104 104" fill="none" xmlns="http://www.w3.org/2000/svg">
<g id="Graphic Design">
<g id="Group">
<g id="Group_2">
<g id="Clip path group">
<mask id="mask0_78_1121" style="mask-type:luminance" maskUnits="userSpaceOnUse" x="5" y="15" width="94" height="52">
<g id="SVGID_2_">
<path id="Vector" d="M8.46787 18.2743H95.5307V63.2914H8.46787V18.2743ZM8.46787 15.4514C6.83359 15.4514 5.64502 16.64 5.64502 18.2743V63.2914C5.64502 64.7771 6.98216 66.1143 8.46787 66.1143H95.5307C97.165 66.1143 98.3536 64.9257 98.3536 63.2914V18.2743C98.3536 16.7886 97.0164 15.4514 95.5307 15.4514H8.46787Z" fill="white"/>
</g>
</mask>
<g mask="url(#mask0_78_1121)">
<path id="Vector_2" d="M123.759 39.966L53.6334 112.469L-19.6123 41.7488L50.5134 -30.9026L123.759 39.966Z" fill="url(#paint0_linear_78_1121)"/>
</g>
</g>
</g>
<g id="Group_3">
<g id="Clip path group_2">
<mask id="mask1_78_1121" style="mask-type:luminance" maskUnits="userSpaceOnUse" x="0" y="9" width="104" height="86">
<g id="SVGID_5_">
<path id="Vector_3" d="M33.4286 90.0342C33.4286 88.5485 34.7657 87.2114 36.2514 87.2114H67.7486C69.3829 87.2114 70.5714 88.3999 70.5714 90.0342V91.3714H33.4286V90.0342ZM46.2057 80.2285H57.9429C58.24 81.8628 59.1314 83.3485 60.4686 84.3885H43.68C45.0171 83.3485 45.9086 81.8628 46.2057 80.2285ZM2.82286 74.5828V71.7599H101.326V74.5828C101.326 76.0685 99.9886 77.4057 98.5029 77.4057H5.64572C4.16 77.4057 2.82286 76.0685 2.82286 74.5828ZM2.82286 15.4514C2.82286 13.9657 4.16 12.6285 5.64572 12.6285H98.5029C100.137 12.6285 101.326 13.8171 101.326 15.4514V68.9371H2.82286V15.4514ZM5.64572 9.95423C2.52572 9.95423 0 12.48 0 15.6V74.5828C0 77.7028 2.52572 80.2285 5.64572 80.2285H43.2343C42.1943 83.2 38.3314 84.2399 37.5886 84.3885H36.2514C33.1314 84.3885 30.6057 86.9142 30.6057 90.0342V91.3714C30.6057 92.8571 31.9429 94.1942 33.4286 94.1942H70.5714C72.2057 94.1942 73.3943 93.0057 73.3943 91.3714V90.0342C73.3943 86.9142 70.8686 84.3885 67.7486 84.3885H66.4114C65.6686 84.2399 61.8057 83.2 60.7657 80.2285H98.3543C101.474 80.2285 104 77.7028 104 74.5828V15.4514C104 12.3314 101.474 9.80566 98.3543 9.80566H5.64572V9.95423Z" fill="white"/>
</g>
</mask>
<g mask="url(#mask1_78_1121)">
<path id="Vector_4" d="M146.343 50.6628L53.9319 146.343L-42.1938 53.4857L50.2176 -42.1943L146.343 50.6628Z" fill="url(#paint1_linear_78_1121)"/>
</g>
</g>
</g>
</g>
</g>
<defs>
<linearGradient id="paint0_linear_78_1121" x1="84.9496" y1="6.93122" x2="12.682" y2="81.7665" gradientUnits="userSpaceOnUse">
<stop stop-color="white"/>
<stop offset="1" stop-color="#231F20"/>
</linearGradient>
<linearGradient id="paint1_linear_78_1121" x1="90.5711" y1="12.3582" x2="18.3034" y2="87.1935" gradientUnits="userSpaceOnUse">
<stop stop-color="white"/>
<stop offset="1" stop-color="#231F20"/>
</linearGradient>
</defs>
</svg>
