<svg width="27" height="26" viewBox="0 0 27 26" fill="none" xmlns="http://www.w3.org/2000/svg">
<path d="M8.4243 0.152018C7.00564 0.152018 5.68964 0.506683 4.4763 1.21602C3.3003 1.90668 2.36697 2.84002 1.6763 4.01602C0.966971 5.22935 0.612305 6.54535 0.612305 7.96402V18.156C0.612305 19.5747 0.966971 20.8907 1.6763 22.104C2.36697 23.28 3.3003 24.2134 4.4763 24.904C5.68964 25.6134 7.00564 25.968 8.4243 25.968H18.6163C20.035 25.968 21.351 25.6134 22.5643 24.904C23.7403 24.2134 24.6736 23.28 25.3643 22.104C26.0736 20.8907 26.4283 19.5747 26.4283 18.156V7.96402C26.4283 6.54535 26.0736 5.22935 25.3643 4.01602C24.6736 2.84002 23.7403 1.90668 22.5643 1.21602C21.351 0.506683 20.035 0.152018 18.6163 0.152018H8.4243ZM20.3243 4.91202C20.6976 4.91202 21.015 5.04268 21.2763 5.30402C21.5376 5.56535 21.6683 5.88268 21.6683 6.25602C21.6683 6.62935 21.5376 6.95135 21.2763 7.22202C21.015 7.49268 20.6976 7.62802 20.3243 7.62802C19.951 7.62802 19.629 7.49268 19.3583 7.22202C19.0876 6.95135 18.9523 6.62935 18.9523 6.25602C18.9523 5.88268 19.0876 5.56535 19.3583 5.30402C19.629 5.04268 19.951 4.91202 20.3243 4.91202ZM13.5203 6.25602C14.7523 6.25602 15.891 6.55935 16.9363 7.16602C17.9816 7.77268 18.8076 8.59868 19.4143 9.64402C20.021 10.6894 20.3243 11.828 20.3243 13.06C20.3243 14.292 20.021 15.426 19.4143 16.462C18.8076 17.498 17.9816 18.3194 16.9363 18.926C15.891 19.5327 14.7523 19.836 13.5203 19.836C12.2883 19.836 11.1543 19.5327 10.1183 18.926C9.0823 18.3194 8.26097 17.498 7.6543 16.462C7.04764 15.426 6.7443 14.292 6.7443 13.06C6.7443 11.828 7.04764 10.6894 7.6543 9.64402C8.26097 8.59868 9.0823 7.77268 10.1183 7.16602C11.1543 6.55935 12.2883 6.25602 13.5203 6.25602ZM13.5203 8.30002C12.9416 8.30002 12.335 8.42135 11.7003 8.66402C11.0843 8.94402 10.5663 9.29402 10.1463 9.71402C9.72631 10.134 9.38564 10.6427 9.1243 11.24C8.88164 11.8747 8.76031 12.4814 8.76031 13.06C8.76031 13.6387 8.88164 14.2454 9.1243 14.88C9.4043 15.496 9.74964 16.0094 10.1603 16.42C10.571 16.8307 11.0843 17.176 11.7003 17.456C12.335 17.6987 12.9416 17.82 13.5203 17.82C14.099 17.82 14.7056 17.6987 15.3403 17.456C15.9376 17.1947 16.4463 16.854 16.8663 16.434C17.2863 16.014 17.6363 15.496 17.9163 14.88C18.159 14.2454 18.2803 13.6387 18.2803 13.06C18.2803 12.4814 18.159 11.8747 17.9163 11.24C17.6736 10.6427 17.333 10.1247 16.8943 9.68602C16.4556 9.24735 15.9376 8.90668 15.3403 8.66402C14.7056 8.42135 14.099 8.30002 13.5203 8.30002Z" fill="white"/>
</svg>
