<svg width="104" height="104" viewBox="0 0 104 104" fill="none" xmlns="http://www.w3.org/2000/svg">
<g id="Interpretation &#38; Translation Services">
<g id="Group">
<g id="Group_2">
<g id="Clip path group">
<mask id="mask0_77_878" style="mask-type:luminance" maskUnits="userSpaceOnUse" x="16" y="43" width="30" height="30">
<g id="SVGID_2_">
<path id="Vector" d="M20.6551 63.1878C19.8672 61.612 19.3945 59.7211 19.3945 57.9878C19.3945 51.5272 24.5945 46.3272 31.0551 46.3272C37.5157 46.3272 42.7157 51.5272 42.7157 57.9878C42.7157 59.8787 42.243 61.612 41.4551 63.1878C39.4066 67.1272 35.4672 69.6484 31.0551 69.6484C26.643 69.6484 22.7036 67.1272 20.6551 63.1878ZM16.5581 57.9878C16.5581 60.3514 17.0308 62.5575 18.1339 64.6059C20.6551 69.4908 25.5399 72.6423 31.2127 72.6423C36.7278 72.6423 41.7702 69.4908 44.2914 64.6059C45.3945 62.5575 45.8672 60.3514 45.8672 57.9878C45.8672 49.9514 39.4066 43.4908 31.3702 43.4908C23.0187 43.3332 16.5581 49.9514 16.5581 57.9878Z" fill="white"/>
</g>
</mask>
<g mask="url(#mask0_77_878)">
<path id="Vector_2" d="M60.2063 57.9878L31.0548 87.1393L1.90332 57.9878L31.0548 28.8363L60.2063 57.9878Z" fill="url(#paint0_linear_77_878)"/>
</g>
</g>
</g>
<g id="Group_3">
<g id="Clip path group_2">
<mask id="mask1_77_878" style="mask-type:luminance" maskUnits="userSpaceOnUse" x="2" y="72" width="59" height="32">
<g id="SVGID_5_">
<path id="Vector_3" d="M16.4005 77.5272C11.2005 80.6787 4.10955 86.509 2.21864 101.006C2.06107 101.794 2.69137 102.582 3.47925 102.739C4.26713 102.897 5.05501 102.267 5.21258 101.479C6.94592 88.3999 12.9338 83.1999 17.9762 80.0484C26.958 74.6909 35.6247 74.6909 44.4489 80.0484C49.6489 83.1999 55.952 88.7151 57.3702 102.739C57.3702 103.527 58.158 104 58.7883 104H58.9459C59.7338 103.842 60.3641 103.212 60.2065 102.424C58.9459 90.4484 54.5338 82.7272 45.8671 77.5272C40.8247 74.5333 35.9399 72.9575 31.055 72.9575C26.1702 73.1151 21.2853 74.5333 16.4005 77.5272Z" fill="white"/>
</g>
</mask>
<g mask="url(#mask1_77_878)">
<path id="Vector_4" d="M75.9649 88.5574L31.2134 133.309L-13.5381 88.5574L31.2134 43.8059L75.9649 88.5574Z" fill="url(#paint1_linear_77_878)"/>
</g>
</g>
</g>
<g id="Group_4">
<g id="Clip path group_3">
<mask id="mask2_77_878" style="mask-type:luminance" maskUnits="userSpaceOnUse" x="41" y="0" width="61" height="54">
<g id="SVGID_8_">
<path id="Vector_5" d="M44.1331 40.6545V8.66667C44.1331 8.03636 44.921 7.56363 45.8664 7.56363H46.024L97.2361 2.99394C98.024 2.99394 98.8119 3.46666 98.8119 4.09697V36.0848C98.8119 36.7151 98.024 37.1879 97.0785 37.1879H96.921L65.2483 41.7576C65.0907 41.7576 64.9331 41.9151 64.6179 41.9151L52.6422 49.3212V43.1758C52.6422 42.3879 52.0119 41.7576 51.224 41.7576H45.7089C44.921 41.7576 44.1331 41.1273 44.1331 40.6545ZM96.921 0L45.7089 4.5697C43.1876 4.5697 41.1392 6.46061 41.1392 8.66667V40.6545C41.1392 42.8606 43.1876 44.7515 45.7089 44.7515H49.8058V52C49.8058 52.4727 50.121 53.103 50.5937 53.2606C50.7513 53.4182 51.0664 53.4182 51.3816 53.4182C51.6967 53.4182 51.8543 53.4182 52.1695 53.2606L66.0361 44.7515L97.2361 40.3394C99.7573 40.3394 101.806 38.4485 101.806 36.2424V4.09697C101.648 1.89091 99.5998 0 96.921 0C97.0786 0 96.921 0 96.921 0Z" fill="white"/>
</g>
</mask>
<g mask="url(#mask2_77_878)">
<path id="Vector_6" d="M128.437 26.6303L71.3946 83.6728L14.5098 26.6303L71.3946 -30.2545L128.437 26.6303Z" fill="url(#paint2_linear_77_878)"/>
</g>
</g>
</g>
<g id="Group_5">
<g id="Clip path group_4">
<mask id="mask3_77_878" style="mask-type:luminance" maskUnits="userSpaceOnUse" x="64" y="17" width="14" height="13">
<g id="SVGID_11_">
<path id="Vector_7" d="M67.9275 23.4789C67.9275 21.588 69.5033 20.0122 71.3942 20.0122C73.2851 20.0122 74.8609 21.588 74.8609 23.4789C74.8609 25.3698 73.2851 26.9456 71.3942 26.9456C69.5033 26.9456 67.9275 25.3698 67.9275 23.4789ZM64.9336 23.4789C64.9336 27.1032 67.77 29.9395 71.3942 29.9395C75.0184 29.9395 77.8548 27.1032 77.8548 23.4789C77.8548 19.8547 75.0184 17.0183 71.3942 17.0183C67.9275 17.0183 64.9336 19.8547 64.9336 23.4789Z" fill="white"/>
</g>
</mask>
<g mask="url(#mask3_77_878)">
<path id="Vector_8" d="M84.3152 23.4789L71.394 36.2426L58.6304 23.4789L71.394 10.5577L84.3152 23.4789Z" fill="url(#paint3_linear_77_878)"/>
</g>
</g>
</g>
<g id="Group_6">
<g id="Clip path group_5">
<mask id="mask4_77_878" style="mask-type:luminance" maskUnits="userSpaceOnUse" x="49" y="17" width="14" height="13">
<g id="SVGID_14_">
<path id="Vector_9" d="M52.1703 23.4789C52.1703 21.588 53.7461 20.0122 55.637 20.0122C57.5279 20.0122 59.1037 21.588 59.1037 23.4789C59.1037 25.3698 57.5279 26.9456 55.637 26.9456C53.7461 26.9456 52.1703 25.3698 52.1703 23.4789ZM49.334 23.4789C49.334 27.1032 52.1703 29.9395 55.7946 29.9395C59.4188 29.9395 62.2552 27.1032 62.2552 23.4789C62.2552 19.8547 59.4188 17.0183 55.7946 17.0183C52.1703 17.0183 49.334 19.8547 49.334 23.4789Z" fill="white"/>
</g>
</mask>
<g mask="url(#mask4_77_878)">
<path id="Vector_10" d="M68.5579 23.4789L55.6367 36.2426L42.873 23.4789L55.6367 10.5577L68.5579 23.4789Z" fill="url(#paint4_linear_77_878)"/>
</g>
</g>
</g>
<g id="Group_7">
<g id="Clip path group_6">
<mask id="mask5_77_878" style="mask-type:luminance" maskUnits="userSpaceOnUse" x="80" y="17" width="14" height="13">
<g id="SVGID_17_">
<path id="Vector_11" d="M83.6853 23.4789C83.6853 21.588 85.2611 20.0122 87.152 20.0122C89.0429 20.0122 90.6187 21.588 90.6187 23.4789C90.6187 25.3698 89.0429 26.9456 87.152 26.9456C85.2611 26.9456 83.6853 25.3698 83.6853 23.4789ZM80.6914 23.4789C80.6914 27.1032 83.5278 29.9395 87.152 29.9395C90.7763 29.9395 93.6126 27.1032 93.6126 23.4789C93.6126 19.8547 90.7763 17.0183 87.152 17.0183C83.6853 17.0183 80.6914 19.8547 80.6914 23.4789Z" fill="white"/>
</g>
</mask>
<g mask="url(#mask5_77_878)">
<path id="Vector_12" d="M100.073 23.4789L87.1517 36.2426L74.2305 23.4789L87.1517 10.5577L100.073 23.4789Z" fill="url(#paint5_linear_77_878)"/>
</g>
</g>
</g>
</g>
</g>
<defs>
<linearGradient id="paint0_linear_77_878" x1="86.5245" y1="2.49614" x2="4.081" y2="84.9396" gradientUnits="userSpaceOnUse">
<stop stop-color="white"/>
<stop offset="1" stop-color="#231F20"/>
</linearGradient>
<linearGradient id="paint1_linear_77_878" x1="101.819" y1="17.8758" x2="19.3756" y2="100.319" gradientUnits="userSpaceOnUse">
<stop stop-color="white"/>
<stop offset="1" stop-color="#231F20"/>
</linearGradient>
<linearGradient id="paint2_linear_77_878" x1="91.0757" y1="7.0471" x2="8.63226" y2="89.4906" gradientUnits="userSpaceOnUse">
<stop stop-color="white"/>
<stop offset="1" stop-color="#231F20"/>
</linearGradient>
<linearGradient id="paint3_linear_77_878" x1="89.4345" y1="5.40661" x2="6.99102" y2="87.8501" gradientUnits="userSpaceOnUse">
<stop stop-color="white"/>
<stop offset="1" stop-color="#231F20"/>
</linearGradient>
<linearGradient id="paint4_linear_77_878" x1="81.5614" y1="-2.46674" x2="-0.882082" y2="79.9767" gradientUnits="userSpaceOnUse">
<stop stop-color="white"/>
<stop offset="1" stop-color="#231F20"/>
</linearGradient>
<linearGradient id="paint5_linear_77_878" x1="97.2997" y1="13.2717" x2="14.8562" y2="95.7152" gradientUnits="userSpaceOnUse">
<stop stop-color="white"/>
<stop offset="1" stop-color="#231F20"/>
</linearGradient>
</defs>
</svg>
