<svg width="104" height="105" viewBox="0 0 104 105" fill="none" xmlns="http://www.w3.org/2000/svg">
<g clip-path="url(#clip0_749_40775)">
<mask id="mask0_749_40775" style="mask-type:luminance" maskUnits="userSpaceOnUse" x="16" y="44" width="30" height="30">
<path d="M20.6536 64.1216C19.8657 62.5458 19.393 60.6549 19.393 58.9216C19.393 52.461 24.593 47.261 31.0536 47.261C37.5142 47.261 42.7142 52.461 42.7142 58.9216C42.7142 60.8125 42.2415 62.5458 41.4536 64.1216C39.4051 68.061 35.4657 70.5822 31.0536 70.5822C26.6415 70.5822 22.7021 68.061 20.6536 64.1216ZM16.5566 58.9216C16.5566 61.2852 17.0294 63.4913 18.1324 65.5398C20.6536 70.4246 25.5385 73.5762 31.2112 73.5762C36.7263 73.5762 41.7688 70.4246 44.29 65.5398C45.393 63.4913 45.8657 61.2852 45.8657 58.9216C45.8657 50.8852 39.4051 44.4246 31.3688 44.4246C23.0172 44.2671 16.5566 50.8852 16.5566 58.9216Z" fill="white"/>
</mask>
<g mask="url(#mask0_749_40775)">
<path d="M60.2054 58.921L31.0539 88.0726L1.90234 58.921L31.0539 29.7695L60.2054 58.921Z" fill="#35C5E8"/>
</g>
<mask id="mask1_749_40775" style="mask-type:luminance" maskUnits="userSpaceOnUse" x="2" y="73" width="59" height="32">
<path d="M16.3995 78.4603C11.1995 81.6118 4.10858 87.4421 2.21767 101.939C2.06009 102.727 2.69039 103.515 3.47827 103.672C4.26615 103.83 5.05403 103.2 5.21161 102.412C6.94494 89.333 12.9328 84.133 17.9752 80.9815C26.9571 75.624 35.6237 75.624 44.448 80.9815C49.648 84.133 55.951 89.6482 57.3692 103.672C57.3692 104.46 58.1571 104.933 58.7874 104.933H58.9449C59.7328 104.775 60.3631 104.145 60.2055 103.357C58.9449 91.3815 54.5328 83.6603 45.8662 78.4603C40.8237 75.4664 35.9389 73.8906 31.054 73.8906C26.1692 74.0482 21.2843 75.4664 16.3995 78.4603Z" fill="white"/>
</mask>
<g mask="url(#mask1_749_40775)">
<path d="M75.964 89.4898L31.2125 134.241L-13.5391 89.4898L31.2125 44.7383L75.964 89.4898Z" fill="#35C5E8"/>
</g>
<mask id="mask2_749_40775" style="mask-type:luminance" maskUnits="userSpaceOnUse" x="41" y="0" width="61" height="55">
<path d="M44.1326 41.5881V9.60026C44.1326 8.96996 44.9205 8.49723 45.8659 8.49723H46.0235L97.2356 3.92753C98.0235 3.92753 98.8114 4.40026 98.8114 5.03056V37.0184C98.8114 37.6487 98.0235 38.1215 97.0781 38.1215H96.9205L65.2478 42.6912C65.0902 42.6912 64.9326 42.8487 64.6175 42.8487L52.6417 50.2548V44.1093C52.6417 43.3215 52.0114 42.6912 51.2235 42.6912H45.7084C44.9205 42.6912 44.1326 42.0609 44.1326 41.5881ZM96.9205 0.933594L45.7084 5.50329C43.1872 5.50329 41.1387 7.3942 41.1387 9.60026V41.5881C41.1387 43.7942 43.1872 45.6851 45.7084 45.6851H49.8053V52.9336C49.8053 53.4063 50.1205 54.0366 50.5932 54.1942C50.7508 54.3518 51.0659 54.3518 51.3811 54.3518C51.6962 54.3518 51.8538 54.3518 52.169 54.1942L66.0356 45.6851L97.2356 41.273C99.7569 41.273 101.805 39.3821 101.805 37.176V5.03056C101.648 2.8245 99.5993 0.933594 96.9205 0.933594C97.0781 0.933594 96.9205 0.933594 96.9205 0.933594Z" fill="white"/>
</mask>
<g mask="url(#mask2_749_40775)">
<path d="M128.437 27.5645L71.3946 84.607L14.5098 27.5645L71.3946 -29.3203L128.437 27.5645Z" fill="#35C5E8"/>
</g>
<mask id="mask3_749_40775" style="mask-type:luminance" maskUnits="userSpaceOnUse" x="64" y="17" width="14" height="14">
<path d="M67.9256 24.4118C67.9256 22.5209 69.5013 20.9451 71.3923 20.9451C73.2832 20.9451 74.8589 22.5209 74.8589 24.4118C74.8589 26.3027 73.2832 27.8784 71.3923 27.8784C69.5013 27.8784 67.9256 26.3027 67.9256 24.4118ZM64.9316 24.4118C64.9316 28.036 67.768 30.8724 71.3923 30.8724C75.0165 30.8724 77.8529 28.036 77.8529 24.4118C77.8529 20.7875 75.0165 17.9512 71.3923 17.9512C67.9256 17.9512 64.9316 20.7875 64.9316 24.4118Z" fill="white"/>
</mask>
<g mask="url(#mask3_749_40775)">
<path d="M84.3138 24.4114L71.3925 37.1751L58.6289 24.4114L71.3925 11.4902L84.3138 24.4114Z" fill="#35C5E8"/>
</g>
<mask id="mask4_749_40775" style="mask-type:luminance" maskUnits="userSpaceOnUse" x="49" y="17" width="14" height="14">
<path d="M52.1703 24.4118C52.1703 22.5209 53.7461 20.9451 55.637 20.9451C57.5279 20.9451 59.1037 22.5209 59.1037 24.4118C59.1037 26.3027 57.5279 27.8784 55.637 27.8784C53.7461 27.8784 52.1703 26.3027 52.1703 24.4118ZM49.334 24.4118C49.334 28.036 52.1703 30.8724 55.7946 30.8724C59.4188 30.8724 62.2552 28.036 62.2552 24.4118C62.2552 20.7875 59.4188 17.9512 55.7946 17.9512C52.1703 17.9512 49.334 20.7875 49.334 24.4118Z" fill="white"/>
</mask>
<g mask="url(#mask4_749_40775)">
<path d="M68.5579 24.4114L55.6367 37.1751L42.873 24.4114L55.6367 11.4902L68.5579 24.4114Z" fill="#35C5E8"/>
</g>
<mask id="mask5_749_40775" style="mask-type:luminance" maskUnits="userSpaceOnUse" x="80" y="17" width="14" height="14">
<path d="M83.6853 24.4118C83.6853 22.5209 85.2611 20.9451 87.152 20.9451C89.0429 20.9451 90.6187 22.5209 90.6187 24.4118C90.6187 26.3027 89.0429 27.8784 87.152 27.8784C85.2611 27.8784 83.6853 26.3027 83.6853 24.4118ZM80.6914 24.4118C80.6914 28.036 83.5278 30.8724 87.152 30.8724C90.7763 30.8724 93.6126 28.036 93.6126 24.4118C93.6126 20.7875 90.7763 17.9512 87.152 17.9512C83.6853 17.9512 80.6914 20.7875 80.6914 24.4118Z" fill="white"/>
</mask>
<g mask="url(#mask5_749_40775)">
<path d="M100.073 24.4114L87.1517 37.1751L74.2305 24.4114L87.1517 11.4902L100.073 24.4114Z" fill="#35C5E8"/>
</g>
</g>
<defs>
<clipPath id="clip0_749_40775">
<rect width="104" height="104" fill="white" transform="translate(0 0.933594)"/>
</clipPath>
</defs>
</svg>
