<svg width="28" height="26" viewBox="0 0 28 26" fill="none" xmlns="http://www.w3.org/2000/svg">
<path d="M0.632324 3.54005C0.632324 2.68138 0.921658 1.98138 1.50032 1.44005C2.07899 0.898714 2.85366 0.628048 3.82432 0.628048C4.79499 0.628048 5.56966 0.903381 6.14832 1.45405C6.72699 2.00471 7.01632 2.72805 7.01632 3.62405C7.01632 4.42671 6.71766 5.10338 6.12032 5.65405C5.52299 6.20472 4.74832 6.48005 3.79632 6.48005H3.76832C2.81632 6.48005 2.05566 6.20005 1.48632 5.64005C0.916991 5.08005 0.632324 4.38005 0.632324 3.54005ZM0.968324 25.8V8.80405H6.62432V25.8H0.968324ZM9.76032 25.8H15.4443V16.308C15.4443 15.7107 15.5097 15.2534 15.6403 14.936C15.8643 14.3574 16.2283 13.8674 16.7323 13.466C17.2363 13.0647 17.843 12.864 18.5523 12.864C20.4563 12.864 21.4083 14.152 21.4083 16.728V25.8H27.0643V16.056C27.0643 13.5174 26.4717 11.6087 25.2863 10.33C24.101 9.05138 22.5283 8.41205 20.5683 8.41205C18.347 8.41205 16.639 9.34538 15.4443 11.212V11.268H15.4163L15.4443 11.212V8.80405H9.76032C9.79766 9.51338 9.81632 11.2027 9.81632 13.872C9.81632 15.3094 9.80699 18.1374 9.78832 22.356L9.76032 25.8Z" fill="white"/>
</svg>
