<svg width="104" height="105" viewBox="0 0 104 105" fill="none" xmlns="http://www.w3.org/2000/svg">
<mask id="mask0_749_40619" style="mask-type:luminance" maskUnits="userSpaceOnUse" x="37" y="6" width="30" height="34">
<path d="M47.8248 15.8621C47.4452 15.2295 47.3187 14.4704 47.3187 13.7112C47.3187 11.0543 49.4696 8.90346 52.1265 8.90346C54.7834 8.90346 56.9343 11.0543 56.9343 13.7112C56.9343 14.4704 56.8077 15.2295 56.4282 15.8621C55.6691 17.5069 54.0243 18.519 52.1265 18.519C50.2287 18.519 48.5839 17.5069 47.8248 15.8621ZM52.1265 6.37305C48.0778 6.37305 44.6618 9.66258 44.6618 13.8378C44.6618 14.9765 44.9148 16.1151 45.4209 17.1273C46.18 18.6456 47.4452 19.9108 49.09 20.5434C47.6983 20.9229 46.3065 21.429 44.9148 22.3147C39.9805 25.3512 37.7031 30.1589 37.7031 37.8767C37.7031 38.6358 38.3357 39.1419 38.9683 39.1419C39.7275 39.1419 40.2335 38.5093 40.2335 37.8767C40.2335 29.3998 43.27 26.3633 46.18 24.592C50.1022 22.1881 53.8978 22.1881 57.8199 24.592C60.7299 26.3633 63.7664 29.2733 63.7664 37.8767C63.7664 38.6358 64.399 39.1419 65.0316 39.1419C65.6642 39.1419 66.2968 38.5093 66.2968 37.8767C66.2968 30.1589 64.146 25.3512 59.0851 22.3147C57.6934 21.429 56.3017 20.9229 54.9099 20.5434C56.4282 19.9108 57.6934 18.6456 58.579 17.1273C59.0851 16.1151 59.3382 14.9765 59.3382 13.8378C59.4647 9.66258 56.1751 6.37305 52.1265 6.37305Z" fill="white"/>
</mask>
<g mask="url(#mask0_749_40619)">
<path d="M82.8695 22.6937L52.125 53.5648L21.2539 22.6937L52.125 -8.05078L82.8695 22.6937Z" fill="#35C5E8"/>
</g>
<mask id="mask1_749_40619" style="mask-type:luminance" maskUnits="userSpaceOnUse" x="37" y="66" width="30" height="34">
<path d="M47.8248 76.3382C47.4452 75.7056 47.3187 74.9465 47.3187 74.1874C47.3187 71.5304 49.4696 69.3796 52.1265 69.3796C54.7834 69.3796 56.9343 71.5304 56.9343 74.1874C56.9343 74.9465 56.8077 75.7056 56.4282 76.3382C55.6691 77.983 54.0243 78.9952 52.1265 78.9952C50.2287 78.9952 48.5839 77.983 47.8248 76.3382ZM44.6618 74.1874C44.6618 75.3261 44.9148 76.4647 45.4209 77.4769C46.18 78.9952 47.4452 80.2604 49.09 80.893C47.6983 81.2725 46.3065 81.7786 44.9148 82.6643C39.9805 85.7008 37.7031 90.5085 37.7031 98.2263C37.7031 98.9854 38.3357 99.4915 38.9683 99.4915C39.7275 99.4915 40.2335 98.8589 40.2335 98.2263C40.2335 89.7494 43.27 86.7129 46.18 84.9416C50.1022 82.5377 53.8978 82.5377 57.8199 84.9416C60.8564 86.7129 63.8929 89.7494 63.8929 98.2263C63.8929 98.9854 64.5255 99.4915 65.1581 99.4915C65.7907 99.4915 66.4233 98.8589 66.4233 98.2263C66.4233 90.5085 64.2725 85.7008 59.2116 82.6643C57.8199 81.7786 56.4282 81.2725 55.0365 80.893C56.5547 80.2604 57.8199 78.9952 58.7056 77.4769C59.2116 76.4647 59.4647 75.3261 59.4647 74.1874C59.4647 70.1387 56.1751 66.7227 52 66.7227C47.9513 66.7227 44.6618 70.0122 44.6618 74.1874Z" fill="white"/>
</mask>
<g mask="url(#mask1_749_40619)">
<path d="M82.8695 83.1699L52.125 113.914L21.2539 83.1699L52.125 52.2988L82.8695 83.1699Z" fill="#35C5E8"/>
</g>
<mask id="mask2_749_40619" style="mask-type:luminance" maskUnits="userSpaceOnUse" x="75" y="40" width="29" height="34">
<path d="M85.5279 50.5296C85.1483 49.897 85.0218 49.1379 85.0218 48.3788C85.0218 45.7218 87.1727 43.571 89.8296 43.571C92.4865 43.571 94.6374 45.7218 94.6374 48.3788C94.6374 49.1379 94.5109 49.897 94.1313 50.5296C93.3722 52.1744 91.7274 53.1866 89.8296 53.1866C87.9318 53.1866 86.4135 52.1744 85.5279 50.5296ZM82.3649 48.3788C82.3649 49.5175 82.6179 50.6562 83.124 51.6683C83.8831 53.1866 85.1483 54.4518 86.7931 55.0844C85.4014 55.4639 84.0097 55.97 82.6179 56.8557C77.6836 59.8922 75.4062 64.6999 75.4062 72.4177C75.4062 73.1768 76.0389 73.6829 76.6715 73.6829C77.4306 73.6829 77.9367 73.0503 77.9367 72.4177C77.9367 63.9408 80.9732 60.9043 83.8831 59.133C87.9318 56.7291 91.6009 56.7291 95.523 59.133C98.433 60.9043 101.47 63.8143 101.47 72.4177C101.47 73.1768 102.102 73.6829 102.735 73.6829C103.494 73.6829 104 73.0503 104 72.4177C104 64.6999 101.849 59.8922 96.7882 56.8557C95.3965 55.97 94.0048 55.4639 92.6131 55.0844C94.1313 54.4518 95.3965 53.1866 96.2822 51.6683C96.7882 50.6562 97.0413 49.5175 97.0413 48.3788C97.0413 44.3301 93.7518 40.9141 89.5766 40.9141C85.781 40.9141 82.3649 44.2036 82.3649 48.3788Z" fill="white"/>
</mask>
<g mask="url(#mask2_749_40619)">
<path d="M120.575 57.3613L89.8305 88.1058L59.0859 57.3613L89.8305 26.4902L120.575 57.3613Z" fill="#35C5E8"/>
</g>
<mask id="mask3_749_40619" style="mask-type:luminance" maskUnits="userSpaceOnUse" x="6" y="40" width="16" height="16">
<path d="M10.122 50.5296C9.74244 49.897 9.61592 49.1379 9.61592 48.3788C9.61592 45.7218 11.7668 43.571 14.4237 43.571C17.0806 43.571 19.2315 45.7218 19.2315 48.3788C19.2315 49.1379 19.105 49.897 18.7254 50.5296C17.9663 52.1744 16.3215 53.1866 14.4237 53.1866C12.6524 53.1866 11.0076 52.1744 10.122 50.5296ZM6.95898 48.3788C6.95898 49.5175 7.21203 50.6562 7.71811 51.6683C8.98332 54.1987 11.5137 55.717 14.2972 55.717C17.0806 55.717 19.6111 54.1987 20.8763 51.6683C21.3823 50.6562 21.6354 49.5175 21.6354 48.3788C21.6354 44.3301 18.3458 40.9141 14.1707 40.9141C10.375 40.9141 6.95898 44.2036 6.95898 48.3788Z" fill="white"/>
</mask>
<g mask="url(#mask3_749_40619)">
<path d="M29.2269 48.3787L14.424 63.1816L-0.378906 48.3787L14.424 33.4492L29.2269 48.3787Z" fill="#35C5E8"/>
</g>
<mask id="mask4_749_40619" style="mask-type:luminance" maskUnits="userSpaceOnUse" x="0" y="54" width="29" height="20">
<path d="M7.21168 56.9809C2.27737 60.0174 0 64.8252 0 72.543C0 73.3021 0.632603 73.8082 1.26521 73.8082C2.02433 73.8082 2.53041 73.1756 2.53041 72.543C2.53041 64.0661 5.56691 61.0296 8.47689 59.2583C12.399 56.8544 16.1946 56.8544 20.1168 59.2583C23.0268 61.0296 26.0633 63.9396 26.0633 72.543C26.0633 73.3021 26.6959 73.8082 27.3285 73.8082C28.0876 73.8082 28.5937 73.1756 28.5937 72.543C28.5937 64.8252 26.4428 60.0174 21.382 56.9809C18.9781 55.4627 16.5742 54.8301 14.1703 54.8301C11.7664 54.8301 9.61557 55.4627 7.21168 56.9809Z" fill="white"/>
</mask>
<g mask="url(#mask4_749_40619)">
<path d="M38.3365 64.3187L14.4241 88.1046L-9.48828 64.3187L14.4241 40.4062L38.3365 64.3187Z" fill="#35C5E8"/>
</g>
<mask id="mask5_749_40619" style="mask-type:luminance" maskUnits="userSpaceOnUse" x="69" y="29" width="12" height="12">
<path d="M69.9655 29.653C69.4594 30.1591 69.4594 31.0447 69.9655 31.5508L78.822 40.4073C79.075 40.6603 79.4546 40.7868 79.7076 40.7868C79.9606 40.7868 80.3402 40.6603 80.5932 40.4073C81.0993 39.9012 81.0993 39.0155 80.5932 38.5094L71.7368 29.653C71.4837 29.4 71.1042 29.2734 70.8511 29.2734C70.4716 29.2734 70.2185 29.4 69.9655 29.653Z" fill="white"/>
</mask>
<g mask="url(#mask5_749_40619)">
<path d="M86.9185 35.093L75.2786 46.6064L63.6387 35.093L75.2786 23.4531L86.9185 35.093Z" fill="#35C5E8"/>
</g>
<mask id="mask6_749_40619" style="mask-type:luminance" maskUnits="userSpaceOnUse" x="23" y="29" width="12" height="12">
<path d="M32.3884 29.653L23.5319 38.5094C23.0258 39.0155 23.0258 39.9012 23.5319 40.4073C23.7849 40.6603 24.1645 40.7868 24.4175 40.7868C24.6706 40.7868 25.0502 40.6603 25.3032 40.4073L34.1596 31.5508C34.6657 31.0447 34.6657 30.1591 34.1596 29.653C33.9066 29.4 33.527 29.2734 33.274 29.2734C33.021 29.2734 32.6414 29.4 32.3884 29.653Z" fill="white"/>
</mask>
<g mask="url(#mask6_749_40619)">
<path d="M40.6118 35.093L28.9719 46.6064L17.332 35.093L28.9719 23.4531L40.6118 35.093Z" fill="#35C5E8"/>
</g>
<mask id="mask7_749_40619" style="mask-type:luminance" maskUnits="userSpaceOnUse" x="69" y="77" width="12" height="13">
<path d="M78.6969 78.11L69.8405 86.9665C69.3344 87.4726 69.3344 88.3582 69.8405 88.8643C70.0935 89.1173 70.4731 89.2438 70.7261 89.2438C71.1057 89.2438 71.3587 89.1173 71.6118 88.8643L80.4682 80.0078C80.9743 79.5018 80.9743 78.6161 80.4682 78.11C80.2152 77.857 79.8356 77.7305 79.5826 77.7305C79.3296 77.7305 78.95 77.857 78.6969 78.11Z" fill="white"/>
</mask>
<g mask="url(#mask7_749_40619)">
<path d="M86.9204 83.4231L75.2805 95.063L63.6406 83.4231L75.2805 71.7832L86.9204 83.4231Z" fill="#35C5E8"/>
</g>
<mask id="mask8_749_40619" style="mask-type:luminance" maskUnits="userSpaceOnUse" x="23" y="77" width="12" height="13">
<path d="M23.6589 78.11C23.1528 78.6161 23.1528 79.5018 23.6589 80.0078L32.5153 88.8643C32.7683 89.1173 33.1479 89.2438 33.401 89.2438C33.7805 89.2438 34.0336 89.1173 34.2866 88.8643C34.7927 88.3582 34.7927 87.4726 34.2866 86.9665L25.4301 78.11C25.1771 77.857 24.7975 77.7305 24.5445 77.7305C24.2915 77.7305 23.9119 77.857 23.6589 78.11Z" fill="white"/>
</mask>
<g mask="url(#mask8_749_40619)">
<path d="M40.6118 83.4231L28.9719 95.063L17.332 83.4231L28.9719 71.7832L40.6118 83.4231Z" fill="#35C5E8"/>
</g>
</svg>
