<svg width="104" height="104" viewBox="0 0 104 104" fill="none" xmlns="http://www.w3.org/2000/svg">
<g id="Public Relations &#38; VIP Management.">
<g id="Group">
<g id="Group_2">
<g id="Clip path group">
<mask id="mask0_77_779" style="mask-type:luminance" maskUnits="userSpaceOnUse" x="37" y="5" width="30" height="34">
<g id="SVGID_2_">
<path id="Vector" d="M47.8248 14.9294C47.4452 14.2968 47.3187 13.5376 47.3187 12.7785C47.3187 10.1216 49.4696 7.97072 52.1265 7.97072C54.7834 7.97072 56.9343 10.1216 56.9343 12.7785C56.9343 13.5376 56.8077 14.2968 56.4282 14.9294C55.6691 16.5741 54.0243 17.5863 52.1265 17.5863C50.2287 17.5863 48.5839 16.5741 47.8248 14.9294ZM52.1265 5.44031C48.0778 5.44031 44.6618 8.72985 44.6618 12.905C44.6618 14.0437 44.9148 15.1824 45.4209 16.1946C46.18 17.7128 47.4452 18.978 49.09 19.6106C47.6983 19.9902 46.3065 20.4963 44.9148 21.3819C39.9805 24.4184 37.7031 29.2262 37.7031 36.944C37.7031 37.7031 38.3357 38.2092 38.9683 38.2092C39.7275 38.2092 40.2335 37.5766 40.2335 36.944C40.2335 28.4671 43.27 25.4306 46.18 23.6593C50.1022 21.2554 53.8978 21.2554 57.8199 23.6593C60.7299 25.4306 63.7664 28.3406 63.7664 36.944C63.7664 37.7031 64.399 38.2092 65.0316 38.2092C65.6642 38.2092 66.2968 37.5766 66.2968 36.944C66.2968 29.2262 64.146 24.4184 59.0851 21.3819C57.6934 20.4963 56.3017 19.9902 54.9099 19.6106C56.4282 18.978 57.6934 17.7128 58.579 16.1946C59.0851 15.1824 59.3382 14.0437 59.3382 12.905C59.4647 8.72985 56.1751 5.44031 52.1265 5.44031Z" fill="white"/>
</g>
</mask>
<g mask="url(#mask0_77_779)">
<path id="Vector_2" d="M82.8705 21.7614L52.1259 52.6324L21.2549 21.7614L52.1259 -8.98315L82.8705 21.7614Z" fill="url(#paint0_linear_77_779)"/>
</g>
</g>
</g>
<g id="Group_3">
<g id="Clip path group_2">
<mask id="mask1_77_779" style="mask-type:luminance" maskUnits="userSpaceOnUse" x="37" y="65" width="30" height="34">
<g id="SVGID_5_">
<path id="Vector_3" d="M47.8248 75.4065C47.4452 74.7739 47.3187 74.0147 47.3187 73.2556C47.3187 70.5987 49.4696 68.4478 52.1265 68.4478C54.7834 68.4478 56.9343 70.5987 56.9343 73.2556C56.9343 74.0147 56.8077 74.7739 56.4282 75.4065C55.6691 77.0512 54.0243 78.0634 52.1265 78.0634C50.2287 78.0634 48.5839 77.0512 47.8248 75.4065ZM44.6618 73.2556C44.6618 74.3943 44.9148 75.533 45.4209 76.5452C46.18 78.0634 47.4452 79.3286 49.09 79.9612C47.6983 80.3408 46.3065 80.8469 44.9148 81.7325C39.9805 84.769 37.7031 89.5768 37.7031 97.2945C37.7031 98.0537 38.3357 98.5598 38.9683 98.5598C39.7275 98.5598 40.2335 97.9271 40.2335 97.2945C40.2335 88.8177 43.27 85.7812 46.18 84.0099C50.1022 81.606 53.8978 81.606 57.8199 84.0099C60.8564 85.7812 63.8929 88.8177 63.8929 97.2945C63.8929 98.0537 64.5255 98.5598 65.1581 98.5598C65.7907 98.5598 66.4233 97.9271 66.4233 97.2945C66.4233 89.5768 64.2725 84.769 59.2116 81.7325C57.8199 80.8469 56.4282 80.3408 55.0365 79.9612C56.5547 79.3286 57.8199 78.0634 58.7056 76.5452C59.2116 75.533 59.4647 74.3943 59.4647 73.2556C59.4647 69.207 56.1751 65.7909 52 65.7909C47.9513 65.7909 44.6618 69.0804 44.6618 73.2556Z" fill="white"/>
</g>
</mask>
<g mask="url(#mask1_77_779)">
<path id="Vector_4" d="M82.8705 82.2385L52.1259 112.983L21.2549 82.2385L52.1259 51.3674L82.8705 82.2385Z" fill="url(#paint1_linear_77_779)"/>
</g>
</g>
</g>
<g id="Group_4">
<g id="Clip path group_3">
<mask id="mask2_77_779" style="mask-type:luminance" maskUnits="userSpaceOnUse" x="75" y="39" width="29" height="34">
<g id="SVGID_8_">
<path id="Vector_5" d="M85.5279 49.5963C85.1483 48.9637 85.0218 48.2046 85.0218 47.4454C85.0218 44.7885 87.1727 42.6376 89.8296 42.6376C92.4865 42.6376 94.6374 44.7885 94.6374 47.4454C94.6374 48.2046 94.5109 48.9637 94.1313 49.5963C93.3722 51.2411 91.7274 52.2532 89.8296 52.2532C87.9318 52.2532 86.4135 51.2411 85.5279 49.5963ZM82.3649 47.4454C82.3649 48.5841 82.6179 49.7228 83.124 50.735C83.8831 52.2532 85.1483 53.5184 86.7931 54.151C85.4014 54.5306 84.0097 55.0367 82.6179 55.9223C77.6836 58.9588 75.4062 63.7666 75.4062 71.4844C75.4062 72.2435 76.0389 72.7496 76.6715 72.7496C77.4306 72.7496 77.9367 72.117 77.9367 71.4844C77.9367 63.0075 80.9732 59.971 83.8831 58.1997C87.9318 55.7958 91.6009 55.7958 95.523 58.1997C98.433 59.971 101.47 62.881 101.47 71.4844C101.47 72.2435 102.102 72.7496 102.735 72.7496C103.494 72.7496 104 72.117 104 71.4844C104 63.7666 101.849 58.9588 96.7882 55.9223C95.3965 55.0367 94.0048 54.5306 92.6131 54.151C94.1313 53.5184 95.3965 52.2532 96.2822 50.735C96.7882 49.7228 97.0413 48.5841 97.0413 47.4454C97.0413 43.3968 93.7518 39.9807 89.5766 39.9807C85.781 39.9807 82.3649 43.2702 82.3649 47.4454Z" fill="white"/>
</g>
</mask>
<g mask="url(#mask2_77_779)">
<path id="Vector_6" d="M120.574 56.4283L89.8295 87.1728L59.085 56.4283L89.8295 25.5573L120.574 56.4283Z" fill="url(#paint2_linear_77_779)"/>
</g>
</g>
</g>
<g id="Group_5">
<g id="Clip path group_4">
<mask id="mask3_77_779" style="mask-type:luminance" maskUnits="userSpaceOnUse" x="6" y="39" width="16" height="16">
<g id="SVGID_11_">
<path id="Vector_7" d="M10.122 49.5962C9.74244 48.9636 9.61592 48.2044 9.61592 47.4453C9.61592 44.7884 11.7668 42.6375 14.4237 42.6375C17.0806 42.6375 19.2315 44.7884 19.2315 47.4453C19.2315 48.2044 19.105 48.9636 18.7254 49.5962C17.9663 51.2409 16.3215 52.2531 14.4237 52.2531C12.6524 52.2531 11.0076 51.2409 10.122 49.5962ZM6.95898 47.4453C6.95898 48.584 7.21203 49.7227 7.71811 50.7348C8.98332 53.2653 11.5137 54.7835 14.2972 54.7835C17.0806 54.7835 19.6111 53.2653 20.8763 50.7348C21.3823 49.7227 21.6354 48.584 21.6354 47.4453C21.6354 43.3966 18.3458 39.9806 14.1707 39.9806C10.375 39.9806 6.95898 43.2701 6.95898 47.4453Z" fill="white"/>
</g>
</mask>
<g mask="url(#mask3_77_779)">
<path id="Vector_8" d="M29.226 47.4452L14.423 62.2481L-0.379883 47.4452L14.423 32.5157L29.226 47.4452Z" fill="url(#paint3_linear_77_779)"/>
</g>
</g>
</g>
<g id="Group_6">
<g id="Clip path group_5">
<mask id="mask4_77_779" style="mask-type:luminance" maskUnits="userSpaceOnUse" x="0" y="53" width="29" height="20">
<g id="SVGID_14_">
<path id="Vector_9" d="M7.21168 56.0487C2.27737 59.0852 0 63.893 0 71.6107C0 72.3698 0.632603 72.8759 1.26521 72.8759C2.02433 72.8759 2.53041 72.2433 2.53041 71.6107C2.53041 63.1338 5.56691 60.0973 8.47689 58.3261C12.399 55.9222 16.1946 55.9222 20.1168 58.3261C23.0268 60.0973 26.0633 63.0073 26.0633 71.6107C26.0633 72.3698 26.6959 72.8759 27.3285 72.8759C28.0876 72.8759 28.5937 72.2433 28.5937 71.6107C28.5937 63.893 26.4428 59.0852 21.382 56.0487C18.9781 54.5304 16.5742 53.8978 14.1703 53.8978C11.7664 53.8978 9.61557 54.5304 7.21168 56.0487Z" fill="white"/>
</g>
</mask>
<g mask="url(#mask4_77_779)">
<path id="Vector_10" d="M38.336 63.3868L14.4236 87.1727L-9.48877 63.3868L14.4236 39.4744L38.336 63.3868Z" fill="url(#paint4_linear_77_779)"/>
</g>
</g>
</g>
<g id="Group_7">
<g id="Clip path group_6">
<mask id="mask5_77_779" style="mask-type:luminance" maskUnits="userSpaceOnUse" x="69" y="28" width="12" height="12">
<g id="SVGID_17_">
<path id="Vector_11" d="M69.967 28.7201C69.4609 29.2262 69.4609 30.1119 69.967 30.6179L78.8234 39.4744C79.0765 39.7274 79.456 39.854 79.7091 39.854C79.9621 39.854 80.3417 39.7274 80.5947 39.4744C81.1008 38.9683 81.1008 38.0827 80.5947 37.5766L71.7383 28.7201C71.4852 28.4671 71.1057 28.3406 70.8526 28.3406C70.473 28.3406 70.22 28.4671 69.967 28.7201Z" fill="white"/>
</g>
</mask>
<g mask="url(#mask5_77_779)">
<path id="Vector_12" d="M86.9204 34.1605L75.2805 45.6739L63.6406 34.1605L75.2805 22.5206L86.9204 34.1605Z" fill="url(#paint5_linear_77_779)"/>
</g>
</g>
</g>
<g id="Group_8">
<g id="Clip path group_7">
<mask id="mask6_77_779" style="mask-type:luminance" maskUnits="userSpaceOnUse" x="23" y="28" width="12" height="12">
<g id="SVGID_20_">
<path id="Vector_13" d="M32.3884 28.72L23.5319 37.5765C23.0258 38.0825 23.0258 38.9682 23.5319 39.4743C23.7849 39.7273 24.1645 39.8538 24.4175 39.8538C24.6706 39.8538 25.0502 39.7273 25.3032 39.4743L34.1596 30.6178C34.6657 30.1117 34.6657 29.2261 34.1596 28.72C33.9066 28.467 33.527 28.3405 33.274 28.3405C33.021 28.3405 32.6414 28.467 32.3884 28.72Z" fill="white"/>
</g>
</mask>
<g mask="url(#mask6_77_779)">
<path id="Vector_14" d="M40.6128 34.1604L28.9729 45.6738L17.333 34.1604L28.9729 22.5205L40.6128 34.1604Z" fill="url(#paint6_linear_77_779)"/>
</g>
</g>
</g>
<g id="Group_9">
<g id="Clip path group_8">
<mask id="mask7_77_779" style="mask-type:luminance" maskUnits="userSpaceOnUse" x="69" y="76" width="12" height="13">
<g id="SVGID_23_">
<path id="Vector_15" d="M78.6965 77.1779L69.84 86.0343C69.3339 86.5404 69.3339 87.4261 69.84 87.9322C70.0931 88.1852 70.4726 88.3117 70.7257 88.3117C71.1052 88.3117 71.3583 88.1852 71.6113 87.9322L80.4677 79.0757C80.9738 78.5696 80.9738 77.684 80.4677 77.1779C80.2147 76.9249 79.8351 76.7983 79.5821 76.7983C79.3291 76.7983 78.9495 76.9249 78.6965 77.1779Z" fill="white"/>
</g>
</mask>
<g mask="url(#mask7_77_779)">
<path id="Vector_16" d="M86.9204 82.4917L75.2805 94.1316L63.6406 82.4917L75.2805 70.8518L86.9204 82.4917Z" fill="url(#paint7_linear_77_779)"/>
</g>
</g>
</g>
<g id="Group_10">
<g id="Clip path group_9">
<mask id="mask8_77_779" style="mask-type:luminance" maskUnits="userSpaceOnUse" x="23" y="76" width="12" height="13">
<g id="SVGID_26_">
<path id="Vector_17" d="M23.6589 77.178C23.1528 77.6841 23.1528 78.5697 23.6589 79.0758L32.5153 87.9323C32.7683 88.1853 33.1479 88.3118 33.401 88.3118C33.7805 88.3118 34.0336 88.1853 34.2866 87.9323C34.7927 87.4262 34.7927 86.5405 34.2866 86.0345L25.4301 77.178C25.1771 76.925 24.7975 76.7985 24.5445 76.7985C24.2915 76.7985 23.9119 76.925 23.6589 77.178Z" fill="white"/>
</g>
</mask>
<g mask="url(#mask8_77_779)">
<path id="Vector_18" d="M40.6128 82.492L28.9729 94.1319L17.333 82.492L28.9729 70.8521L40.6128 82.492Z" fill="url(#paint8_linear_77_779)"/>
</g>
</g>
</g>
</g>
</g>
<defs>
<linearGradient id="paint0_linear_77_779" x1="77.1316" y1="-3.21573" x2="4.58428" y2="69.3316" gradientUnits="userSpaceOnUse">
<stop stop-color="white"/>
<stop offset="1" stop-color="#231F20"/>
</linearGradient>
<linearGradient id="paint1_linear_77_779" x1="107.333" y1="26.9859" x2="34.7857" y2="99.5333" gradientUnits="userSpaceOnUse">
<stop stop-color="white"/>
<stop offset="1" stop-color="#231F20"/>
</linearGradient>
<linearGradient id="paint2_linear_77_779" x1="113.29" y1="32.9421" x2="40.7423" y2="105.489" gradientUnits="userSpaceOnUse">
<stop stop-color="white"/>
<stop offset="1" stop-color="#231F20"/>
</linearGradient>
<linearGradient id="paint3_linear_77_779" x1="71.0815" y1="-9.26607" x2="-1.4659" y2="63.2813" gradientUnits="userSpaceOnUse">
<stop stop-color="white"/>
<stop offset="1" stop-color="#231F20"/>
</linearGradient>
<linearGradient id="paint4_linear_77_779" x1="79.026" y1="-1.32215" x2="6.47863" y2="71.2252" gradientUnits="userSpaceOnUse">
<stop stop-color="white"/>
<stop offset="1" stop-color="#231F20"/>
</linearGradient>
<linearGradient id="paint5_linear_77_779" x1="94.8042" y1="14.525" x2="22.2568" y2="87.0723" gradientUnits="userSpaceOnUse">
<stop stop-color="white"/>
<stop offset="1" stop-color="#231F20"/>
</linearGradient>
<linearGradient id="paint6_linear_77_779" x1="71.646" y1="-8.63227" x2="-0.901341" y2="63.9151" gradientUnits="userSpaceOnUse">
<stop stop-color="white"/>
<stop offset="1" stop-color="#231F20"/>
</linearGradient>
<linearGradient id="paint7_linear_77_779" x1="118.991" y1="38.7125" x2="46.4441" y2="111.26" gradientUnits="userSpaceOnUse">
<stop stop-color="white"/>
<stop offset="1" stop-color="#231F20"/>
</linearGradient>
<linearGradient id="paint8_linear_77_779" x1="95.8333" y1="15.5557" x2="23.2859" y2="88.103" gradientUnits="userSpaceOnUse">
<stop stop-color="white"/>
<stop offset="1" stop-color="#231F20"/>
</linearGradient>
</defs>
</svg>
