<svg width="40" height="41" viewBox="0 0 40 41" fill="none" xmlns="http://www.w3.org/2000/svg">
<g id="rocket">
<path id="Vector" d="M9.1675 17.8901L3.33417 13.7232L6.74551 10.312C7.63102 9.4265 8.07377 8.98375 8.59771 8.70392C9.06155 8.45619 9.56968 8.30235 10.093 8.2512C10.6842 8.19342 11.2982 8.31622 12.5261 8.56183L17.5 9.55667M30.8333 22.8901L31.8289 27.8641C32.0747 29.0923 32.1976 29.7063 32.1399 30.2976C32.0888 30.8211 31.9349 31.3293 31.6872 31.7932C31.4073 32.3172 30.9645 32.7601 30.0788 33.6457L26.6679 37.0566L22.5012 31.2233M11.6667 28.7231L14.9998 25.3901M28.3374 15.3892C28.3374 17.2302 26.845 18.7226 25.0041 18.7226C23.1631 18.7226 21.6708 17.2302 21.6708 15.3892C21.6708 13.5483 23.1631 12.0559 25.0041 12.0559C26.845 12.0559 28.3374 13.5483 28.3374 15.3892ZM31.8653 3.72338L25.983 3.72338C25.0046 3.72338 24.5154 3.72338 24.055 3.83392C23.6469 3.93191 23.2567 4.09355 22.8988 4.31288C22.4951 4.56027 22.1492 4.90621 21.4574 5.59808L9.52515 17.5312C7.9412 19.1153 7.14923 19.9073 6.85251 20.8206C6.5915 21.624 6.59152 22.4894 6.85256 23.2927C7.14931 24.206 7.94132 24.998 9.52533 26.582L13.8077 30.8644C15.3918 32.4485 16.1839 33.2406 17.0972 33.5373C17.9006 33.7984 18.766 33.7983 19.5694 33.5373C20.4827 33.2405 21.2748 32.4484 22.8588 30.8642L34.7909 18.9312C35.4827 18.2394 35.8285 17.8935 36.0759 17.4899C36.2952 17.132 36.4568 16.7418 36.5548 16.3337C36.6653 15.8734 36.6653 15.3842 36.6653 14.4059L36.6653 8.52338C36.6653 6.84323 36.6653 6.00315 36.3383 5.36141C36.0507 4.79693 35.5917 4.33798 35.0272 4.05036C34.3855 3.72338 33.5454 3.72338 31.8653 3.72338Z" stroke="white" stroke-width="3" stroke-linecap="round" stroke-linejoin="round"/>
</g>
</svg>
