<svg width="42" height="42" viewBox="0 0 42 42" fill="none" xmlns="http://www.w3.org/2000/svg">
<g id="star">
<path id="Vector" d="M18.1379 5.44772C19.0591 3.60529 19.5197 2.68408 20.143 2.38846C20.6854 2.13121 21.3147 2.13121 21.8571 2.38847C22.4804 2.68408 22.941 3.6053 23.8622 5.44772L26.8882 11.4996C27.1726 12.0685 27.3148 12.3529 27.5229 12.5707C27.7071 12.7635 27.9279 12.9175 28.1725 13.0237C28.4488 13.1436 28.7648 13.1787 29.3969 13.249L35.7231 13.9519C37.9313 14.1972 39.0354 14.3199 39.5344 14.829C39.968 15.2714 40.1722 15.8898 40.0872 16.5034C39.9894 17.2095 39.1753 17.9654 37.5472 19.4772L32.5362 24.1303C31.9804 24.6464 31.7025 24.9044 31.5419 25.2171C31.4 25.4935 31.3244 25.7991 31.3211 26.1098C31.3174 26.4613 31.443 26.8191 31.6941 27.5347L33.9399 33.9352C34.7578 36.2665 35.1668 37.4321 34.8952 38.1239C34.6597 38.7239 34.1493 39.1736 33.5244 39.3318C32.8039 39.5142 31.699 38.9618 29.4893 37.8569L22.4311 34.3278C21.9064 34.0655 21.644 33.9343 21.3688 33.8826C21.1251 33.8369 20.875 33.8369 20.6313 33.8826C20.3561 33.9343 20.0937 34.0655 19.569 34.3278L12.5108 37.8569C10.3011 38.9618 9.1962 39.5142 8.47573 39.3318C7.8508 39.1736 7.34043 38.7239 7.10485 38.1239C6.83325 37.4321 7.24223 36.2665 8.06021 33.9352L10.306 27.5347C10.5571 26.8191 10.6826 26.4613 10.679 26.1098C10.6757 25.7991 10.6001 25.4935 10.4581 25.2171C10.2976 24.9044 10.0197 24.6464 9.46392 24.1303L4.45291 19.4772C2.82478 17.9654 2.01072 17.2095 1.9129 16.5034C1.8279 15.8898 2.03204 15.2714 2.46567 14.829C2.96464 14.3199 4.06875 14.1972 6.27697 13.9519L12.6031 13.249C13.2353 13.1787 13.5513 13.1436 13.8276 13.0237C14.0722 12.9175 14.293 12.7635 14.4772 12.5707C14.6853 12.3529 14.8275 12.0685 15.1119 11.4996L18.1379 5.44772Z" stroke="white" stroke-width="3" stroke-linecap="round" stroke-linejoin="round"/>
</g>
</svg>
