<svg width="789" height="67" viewBox="0 0 789 67" fill="none" xmlns="http://www.w3.org/2000/svg">
<path d="M27.44 66.26C17.09 66.26 6.83 63.47 0.89 59.33L6.74 46.19C12.32 49.88 20.24 52.4 27.53 52.4C34.91 52.4 37.79 50.33 37.79 47.27C37.79 37.28 1.97 44.57 1.97 21.17C1.97 9.92 11.15 0.739996 29.87 0.739996C38.06 0.739996 46.52 2.63 52.73 6.22999L47.24 19.46C41.21 16.22 35.27 14.6 29.78 14.6C22.31 14.6 19.61 17.12 19.61 20.27C19.61 29.9 55.34 22.7 55.34 45.92C55.34 56.9 46.16 66.26 27.44 66.26ZM92.6415 66.26C74.0115 66.26 63.0315 55.73 63.0315 36.92V2H80.8515V36.38C80.8515 47.18 85.3515 51.5 92.8215 51.5C100.201 51.5 104.701 47.18 104.701 36.38V2H122.251V36.92C122.251 55.73 111.271 66.26 92.6415 66.26ZM156.463 66.26C146.113 66.26 135.853 63.47 129.913 59.33L135.763 46.19C141.343 49.88 149.263 52.4 156.553 52.4C163.933 52.4 166.813 50.33 166.813 47.27C166.813 37.28 130.993 44.57 130.993 21.17C130.993 9.92 140.173 0.739996 158.893 0.739996C167.083 0.739996 175.543 2.63 181.753 6.22999L176.263 19.46C170.233 16.22 164.293 14.6 158.803 14.6C151.333 14.6 148.633 17.12 148.633 20.27C148.633 29.9 184.363 22.7 184.363 45.92C184.363 56.9 175.183 66.26 156.463 66.26ZM205.126 65V16.13H185.776V2H242.206V16.13H222.946V65H205.126ZM292.841 65L287.891 52.76H261.251L256.301 65H238.121L265.931 2H283.481L311.381 65H292.841ZM266.471 39.62H282.671L274.571 19.46L266.471 39.62ZM316.433 65V2H334.253V65H316.433ZM389.411 2H406.871V65H392.201L364.391 31.43V65H346.931V2H361.601L389.411 35.57V2ZM466.601 65L461.651 52.76H435.011L430.061 65H411.881L439.691 2H457.241L485.141 65H466.601ZM440.231 39.62H456.431L448.331 19.46L440.231 39.62ZM538.613 32.15C545.723 34.67 550.133 40.07 550.133 47.72C550.133 58.61 541.133 65 524.213 65H490.193V2H522.413C538.973 2 547.073 8.75 547.073 18.47C547.073 24.5 544.013 29.36 538.613 32.15ZM520.073 14.87H507.833V27.02H520.073C526.013 27.02 529.073 24.95 529.073 20.9C529.073 16.94 526.013 14.87 520.073 14.87ZM522.773 52.13C528.893 52.13 532.133 50.06 532.133 45.74C532.133 41.42 528.893 39.35 522.773 39.35H507.833V52.13H522.773ZM559.363 65V2H577.183V65H559.363ZM589.861 65V2H607.681V50.87H637.741V65H589.861ZM644.792 65V2H662.612V65H644.792ZM688.7 65V16.13H669.35V2H725.78V16.13H706.52V65H688.7ZM788.795 2L764.675 42.41V65H746.855V42.14L722.825 2H741.635L756.575 27.02L771.515 2H788.795Z" fill="url(#paint0_linear_380_2812)"/>
<defs>
<linearGradient id="paint0_linear_380_2812" x1="393.5" y1="-19" x2="393.5" y2="85" gradientUnits="userSpaceOnUse">
<stop stop-color="#35C5E8"/>
<stop offset="1" stop-color="#C5F4FF"/>
</linearGradient>
</defs>
</svg>
