<svg width="104" height="105" viewBox="0 0 104 105" fill="none" xmlns="http://www.w3.org/2000/svg">
<mask id="mask0_749_40815" style="mask-type:luminance" maskUnits="userSpaceOnUse" x="69" y="39" width="20" height="9">
<path d="M69.8808 39.3181C69.334 39.5369 69.0059 40.3024 69.334 40.8492C69.4434 41.0679 69.5527 41.1772 69.5527 41.3959C71.3025 44.8954 74.9113 47.192 78.8482 47.192C82.7851 47.192 86.394 45.0048 88.2531 41.3959C88.3624 41.1772 88.4718 41.0679 88.4718 40.8492L87.3782 40.4117L86.2846 39.9743C86.1752 40.0836 86.1752 40.3024 86.0659 40.4117C84.6442 43.1457 81.9103 44.8954 78.7389 44.8954C75.6768 44.8954 72.8335 43.1457 71.5212 40.4117C71.4118 40.3024 71.4118 40.0836 71.3025 39.9743C71.0838 39.5369 70.6463 39.3181 70.2089 39.3181C70.2089 39.2088 70.0995 39.3181 69.8808 39.3181Z" fill="white"/>
</mask>
<g mask="url(#mask0_749_40815)">
<path d="M92.41 44.0213L76.8811 56.8162L65.1797 42.4903L80.7086 29.6953L92.41 44.0213Z" fill="#35C5E8"/>
</g>
<mask id="mask1_749_40815" style="mask-type:luminance" maskUnits="userSpaceOnUse" x="69" y="26" width="20" height="9">
<path d="M69.334 32.647C69.1153 33.1938 69.334 33.9593 69.9901 34.178C70.0995 34.2874 70.3182 34.2874 70.4276 34.2874C70.865 34.2874 71.3024 34.0687 71.5211 33.6313C72.8334 30.6786 75.7861 28.7101 78.9575 28.7101C82.2383 28.7101 85.191 30.6786 86.3939 33.6313C86.6126 34.178 87.3781 34.5061 87.9249 34.2874C88.4717 34.0687 88.7998 33.3032 88.5811 32.7564C86.9407 28.9288 83.1132 26.4136 78.9575 26.4136C74.6925 26.3042 70.9744 28.8195 69.334 32.647Z" fill="white"/>
</mask>
<g mask="url(#mask1_749_40815)">
<path d="M92.7361 31.117L76.9884 44.1306L65.0684 29.5859L80.9254 16.5723L92.7361 31.117Z" fill="#35C5E8"/>
</g>
<mask id="mask2_749_40815" style="mask-type:luminance" maskUnits="userSpaceOnUse" x="70" y="47" width="28" height="28">
<path d="M71.3027 49.0505C70.7559 49.2692 70.4278 50.0347 70.7559 50.5815C70.9746 51.1283 71.7401 51.4564 72.2869 51.1283C77.6455 48.7224 82.8947 49.1599 88.3626 52.55C93.7212 55.8307 95.5803 61.2987 95.5803 73.4375C95.5803 74.0936 96.1271 74.6404 96.7832 74.6404C97.4394 74.6404 97.9862 74.0936 97.9862 73.4375C97.9862 60.4238 95.6896 54.1904 89.6749 50.4722C86.1754 48.285 82.676 47.1914 79.1765 47.1914C76.4425 47.3008 73.8179 47.8476 71.3027 49.0505Z" fill="white"/>
</mask>
<g mask="url(#mask2_749_40815)">
<path d="M111.218 63.7045L81.3635 88.0915L57.0859 58.2366L86.8315 33.8496L111.218 63.7045Z" fill="#35C5E8"/>
</g>
<mask id="mask3_749_40815" style="mask-type:luminance" maskUnits="userSpaceOnUse" x="86" y="63" width="3" height="12">
<path d="M86.2832 64.7986V73.5473C86.2832 74.2035 86.83 74.7503 87.4861 74.7503C88.1423 74.7503 88.6891 74.2035 88.6891 73.5473V64.7986C88.6891 64.1425 88.1423 63.5957 87.4861 63.5957C86.83 63.5957 86.2832 64.1425 86.2832 64.7986Z" fill="white"/>
</mask>
<g mask="url(#mask3_749_40815)">
<path d="M94.0469 70.157L87.2666 75.7343L80.9238 67.9699L87.7041 62.3926L94.0469 70.157Z" fill="#35C5E8"/>
</g>
<mask id="mask4_749_40815" style="mask-type:luminance" maskUnits="userSpaceOnUse" x="83" y="31" width="11" height="11">
<path d="M85.6266 36.802C85.6266 35.3803 86.8296 34.1774 88.2512 34.1774C89.6729 34.1774 90.8758 35.3803 90.8758 36.802C90.8758 38.2237 89.6729 39.3172 88.2512 39.3172C86.8296 39.3172 85.6266 38.1143 85.6266 36.802ZM83.3301 36.802C83.3301 39.536 85.5172 41.7231 88.2512 41.7231C90.9852 41.7231 93.1723 39.536 93.1723 36.802C93.1723 34.068 90.9852 31.8809 88.2512 31.8809C85.5172 31.8809 83.3301 34.068 83.3301 36.802Z" fill="white"/>
</mask>
<g mask="url(#mask4_749_40815)">
<path d="M97.874 37.6761L87.2663 46.4248L78.5176 35.817L89.2347 27.0684L97.874 37.6761Z" fill="#35C5E8"/>
</g>
<mask id="mask5_749_40815" style="mask-type:luminance" maskUnits="userSpaceOnUse" x="64" y="31" width="11" height="11">
<path d="M67.0387 36.802C67.0387 35.3803 68.2417 34.1774 69.6633 34.1774C71.085 34.1774 72.2879 35.3803 72.2879 36.802C72.2879 38.2237 71.085 39.3172 69.6633 39.3172C68.2417 39.3172 67.0387 38.1143 67.0387 36.802ZM64.7422 36.802C64.7422 39.536 66.9294 41.7231 69.6633 41.7231C72.3973 41.7231 74.5845 39.536 74.5845 36.802C74.5845 34.068 72.3973 31.8809 69.6633 31.8809C66.9294 31.8809 64.7422 34.068 64.7422 36.802Z" fill="white"/>
</mask>
<g mask="url(#mask5_749_40815)">
<path d="M79.2881 37.6761L68.6803 46.4248L59.9316 35.817L70.6488 27.0684L79.2881 37.6761Z" fill="#35C5E8"/>
</g>
<mask id="mask6_749_40815" style="mask-type:luminance" maskUnits="userSpaceOnUse" x="67" y="21" width="24" height="14">
<path d="M67.6934 33.0842C67.6934 33.7404 68.2402 34.2872 68.8963 34.2872C69.5525 34.2872 70.0992 33.7404 70.0992 33.0842C70.0992 27.7257 74.6923 24.2262 78.9573 24.2262C83.2223 24.2262 87.8153 27.6163 87.8153 33.0842C87.8153 33.7404 88.3621 34.2872 89.0183 34.2872C89.6744 34.2872 90.2212 33.7404 90.2212 33.0842C90.1119 26.1947 84.3159 21.8203 78.9573 21.8203C72.7239 21.8203 67.6934 26.8508 67.6934 33.0842Z" fill="white"/>
</mask>
<g mask="url(#mask6_749_40815)">
<path d="M96.237 29.257L76.6618 45.2234L61.6797 26.8511L81.1455 10.8848L96.237 29.257Z" fill="#35C5E8"/>
</g>
<mask id="mask7_749_40815" style="mask-type:luminance" maskUnits="userSpaceOnUse" x="32" y="52" width="40" height="29">
<path d="M35.1051 55.2848H68.8969V78.0314H35.1051V55.2848ZM34.8864 52.9883C33.6835 52.9883 32.8086 53.9725 32.8086 55.1754V78.2501C32.8086 79.453 33.7928 80.4373 34.8864 80.4373H69.1156C70.3186 80.4373 71.1935 79.453 71.1935 78.2501V55.0661C71.1935 53.8631 70.2092 52.8789 69.1156 52.8789H34.8864V52.9883Z" fill="white"/>
</mask>
<g mask="url(#mask7_749_40815)">
<path d="M84.6445 69.3912L48.2281 99.2461L19.3574 63.9232L55.7738 34.0684L84.6445 69.3912Z" fill="#35C5E8"/>
</g>
<mask id="mask8_749_40815" style="mask-type:luminance" maskUnits="userSpaceOnUse" x="32" y="81" width="40" height="4">
<path d="M33.244 81.6387C32.5878 81.6387 32.041 82.1855 32.041 82.8416C32.041 83.4978 32.5878 84.0446 33.244 84.0446H70.754C71.4101 84.0446 71.9569 83.4978 71.9569 82.8416C71.9569 82.1855 71.4101 81.6387 70.754 81.6387H33.244Z" fill="white"/>
</mask>
<g mask="url(#mask8_749_40815)">
<path d="M73.0503 83.0613L48.0072 103.511L30.9473 82.5145L55.881 62.0645L73.0503 83.0613Z" fill="#35C5E8"/>
</g>
<mask id="mask9_749_40815" style="mask-type:luminance" maskUnits="userSpaceOnUse" x="50" y="65" width="4" height="3">
<path d="M51.3983 65.4551C50.7421 65.4551 50.1953 66.0019 50.1953 66.658C50.1953 67.3142 50.7421 67.861 51.3983 67.861H52.7106C53.3667 67.861 53.9135 67.3142 53.9135 66.658C53.9135 66.0019 53.3667 65.4551 52.7106 65.4551H51.3983Z" fill="white"/>
</mask>
<g mask="url(#mask9_749_40815)">
<path d="M54.8976 66.8765L51.6168 69.6104L49.1016 66.439L52.3823 63.7051L54.8976 66.8765Z" fill="#35C5E8"/>
</g>
<mask id="mask10_749_40815" style="mask-type:luminance" maskUnits="userSpaceOnUse" x="74" y="72" width="30" height="3">
<path d="M75.8943 72.5625C75.2382 72.5625 74.6914 73.1093 74.6914 73.7654C74.6914 74.4216 75.2382 74.9684 75.8943 74.9684H102.797C103.453 74.9684 103.999 74.4216 103.999 73.7654C103.999 73.1093 103.453 72.5625 102.797 72.5625H75.8943Z" fill="white"/>
</mask>
<g mask="url(#mask10_749_40815)">
<path d="M105.093 73.8746L86.502 89.1848L73.5977 73.4372L92.298 58.127L105.093 73.8746Z" fill="#35C5E8"/>
</g>
<mask id="mask11_749_40815" style="mask-type:luminance" maskUnits="userSpaceOnUse" x="6" y="47" width="28" height="28">
<path d="M14.5456 50.5812C8.42155 54.2994 6.23438 60.5328 6.23438 73.5465C6.23438 74.2027 6.78117 74.7495 7.43732 74.7495C8.09347 74.7495 8.64026 74.2027 8.64026 73.5465C8.64026 61.2983 10.4994 55.8304 15.8579 52.659C21.3259 49.3783 26.5751 48.9408 31.9336 51.2374C32.4804 51.4561 33.2459 51.2374 33.4647 50.6906C33.6834 50.1438 33.4647 49.3783 32.9179 49.1595C30.2933 48.066 27.778 47.4098 25.2628 47.4098C21.5446 47.3005 18.0451 48.394 14.5456 50.5812Z" fill="white"/>
</mask>
<g mask="url(#mask11_749_40815)">
<path d="M46.9176 63.7045L17.1721 88.0915L-7.21484 58.2366L22.5307 33.8496L46.9176 63.7045Z" fill="#35C5E8"/>
</g>
<mask id="mask12_749_40815" style="mask-type:luminance" maskUnits="userSpaceOnUse" x="15" y="63" width="3" height="12">
<path d="M15.3105 64.7986V73.5473C15.3105 74.2035 15.8573 74.7503 16.5135 74.7503C17.1696 74.7503 17.7164 74.2035 17.7164 73.5473V64.7986C17.7164 64.1425 17.1696 63.5957 16.5135 63.5957C15.8573 63.5957 15.3105 64.1425 15.3105 64.7986Z" fill="white"/>
</mask>
<g mask="url(#mask12_749_40815)">
<path d="M23.0742 70.157L16.294 75.7343L9.95117 67.9699L16.7314 62.3926L23.0742 70.157Z" fill="#35C5E8"/>
</g>
<mask id="mask13_749_40815" style="mask-type:luminance" maskUnits="userSpaceOnUse" x="0" y="72" width="30" height="3">
<path d="M1.20294 72.5625C0.546793 72.5625 0 73.1093 0 73.7654C0 74.4216 0.546793 74.9684 1.20294 74.9684H28.1052C28.7613 74.9684 29.3081 74.4216 29.3081 73.7654C29.3081 73.1093 28.7613 72.5625 28.1052 72.5625H1.20294Z" fill="white"/>
</mask>
<g mask="url(#mask13_749_40815)">
<path d="M30.4015 73.8746L11.7012 89.1848L-1.09375 73.4372L17.4972 58.127L30.4015 73.8746Z" fill="#35C5E8"/>
</g>
<mask id="mask14_749_40815" style="mask-type:luminance" maskUnits="userSpaceOnUse" x="14" y="26" width="22" height="22">
<path d="M16.7321 36.803C16.7321 32.2099 20.4503 28.4917 25.0433 28.4917C29.6364 28.4917 33.3546 32.2099 33.3546 36.803C33.3546 41.396 29.6364 45.1142 25.0433 45.1142C20.4503 45.1142 16.7321 41.2867 16.7321 36.803ZM14.4355 36.803C14.4355 42.7083 19.2473 47.4108 25.0433 47.4108C30.9487 47.4108 35.6511 42.599 35.6511 36.803C35.6511 31.007 30.8393 26.1952 25.0433 26.1952C19.2473 26.0858 14.4355 30.8976 14.4355 36.803Z" fill="white"/>
</mask>
<g mask="url(#mask14_749_40815)">
<path d="M46.1499 38.8813L22.9659 57.8003L4.04688 34.6163L27.1215 15.6973L46.1499 38.8813Z" fill="#35C5E8"/>
</g>
</svg>
