<svg width="104" height="104" viewBox="0 0 104 104" fill="none" xmlns="http://www.w3.org/2000/svg">
<g id="Technical Support">
<g id="Group">
<g id="Group_2">
<g id="Clip path group">
<mask id="mask0_77_910" style="mask-type:luminance" maskUnits="userSpaceOnUse" x="69" y="38" width="20" height="9">
<g id="SVGID_2_">
<path id="Vector" d="M69.8798 38.3847C69.333 38.6034 69.005 39.3689 69.333 39.9157C69.4424 40.1344 69.5518 40.2438 69.5518 40.4625C71.3015 43.962 74.9103 46.2585 78.8472 46.2585C82.7841 46.2585 86.393 44.0713 88.2521 40.4625C88.3614 40.2438 88.4708 40.1344 88.4708 39.9157L87.3772 39.4782L86.2836 39.0408C86.1743 39.1502 86.1743 39.3689 86.0649 39.4782C84.6432 42.2122 81.9093 43.962 78.7379 43.962C75.6758 43.962 72.8325 42.2122 71.5202 39.4782C71.4109 39.3689 71.4109 39.1502 71.3015 39.0408C71.0828 38.6034 70.6454 38.3847 70.2079 38.3847C70.2079 38.2753 70.0986 38.3847 69.8798 38.3847Z" fill="white"/>
</g>
</mask>
<g mask="url(#mask0_77_910)">
<path id="Vector_2" d="M92.408 43.0872L76.8791 55.8822L65.1777 41.5562L80.7067 28.7612L92.408 43.0872Z" fill="url(#paint0_linear_77_910)"/>
</g>
</g>
</g>
<g id="Group_3">
<g id="Clip path group_2">
<mask id="mask1_77_910" style="mask-type:luminance" maskUnits="userSpaceOnUse" x="69" y="25" width="20" height="9">
<g id="SVGID_5_">
<path id="Vector_3" d="M69.334 31.7139C69.1153 32.2607 69.334 33.0262 69.9901 33.2449C70.0995 33.3543 70.3182 33.3543 70.4276 33.3543C70.865 33.3543 71.3024 33.1356 71.5211 32.6981C72.8334 29.7455 75.7861 27.777 78.9575 27.777C82.2383 27.777 85.191 29.7455 86.3939 32.6981C86.6126 33.2449 87.3781 33.573 87.9249 33.3543C88.4717 33.1356 88.7998 32.3701 88.5811 31.8233C86.9407 27.9957 83.1132 25.4805 78.9575 25.4805C74.6925 25.3711 70.9744 27.8864 69.334 31.7139Z" fill="white"/>
</g>
</mask>
<g mask="url(#mask1_77_910)">
<path id="Vector_4" d="M92.7366 30.1829L76.9889 43.1965L65.0688 28.6519L80.9258 15.6382L92.7366 30.1829Z" fill="url(#paint1_linear_77_910)"/>
</g>
</g>
</g>
<g id="Group_4">
<g id="Clip path group_3">
<mask id="mask2_77_910" style="mask-type:luminance" maskUnits="userSpaceOnUse" x="70" y="46" width="28" height="28">
<g id="SVGID_8_">
<path id="Vector_5" d="M71.3017 48.1176C70.7549 48.3364 70.4268 49.1019 70.7549 49.6487C70.9736 50.1955 71.7391 50.5235 72.2859 50.1955C77.6445 47.7896 82.8937 48.227 88.3616 51.6171C93.7202 54.8979 95.5793 60.3658 95.5793 72.5046C95.5793 73.1608 96.1261 73.7075 96.7823 73.7075C97.4384 73.7075 97.9852 73.1608 97.9852 72.5046C97.9852 59.4909 95.6887 53.2575 89.6739 49.5393C86.1745 47.3521 82.675 46.2585 79.1755 46.2585C76.4416 46.3679 73.817 46.9147 71.3017 48.1176Z" fill="white"/>
</g>
</mask>
<g mask="url(#mask2_77_910)">
<path id="Vector_6" d="M111.217 62.7716L81.3621 87.1586L57.0845 57.3037L86.83 32.9167L111.217 62.7716Z" fill="url(#paint2_linear_77_910)"/>
</g>
</g>
</g>
<g id="Group_5">
<g id="Clip path group_4">
<mask id="mask3_77_910" style="mask-type:luminance" maskUnits="userSpaceOnUse" x="86" y="62" width="3" height="12">
<g id="SVGID_11_">
<path id="Vector_7" d="M86.2837 63.8653V72.614C86.2837 73.2701 86.8305 73.8169 87.4866 73.8169C88.1428 73.8169 88.6896 73.2701 88.6896 72.614V63.8653C88.6896 63.2091 88.1428 62.6624 87.4866 62.6624C86.8305 62.6624 86.2837 63.2091 86.2837 63.8653Z" fill="white"/>
</g>
</mask>
<g mask="url(#mask3_77_910)">
<path id="Vector_8" d="M94.0483 69.2237L87.2681 74.801L80.9253 67.0365L87.7055 61.4592L94.0483 69.2237Z" fill="url(#paint3_linear_77_910)"/>
</g>
</g>
</g>
<g id="Group_6">
<g id="Clip path group_5">
<mask id="mask4_77_910" style="mask-type:luminance" maskUnits="userSpaceOnUse" x="83" y="30" width="11" height="11">
<g id="SVGID_14_">
<path id="Vector_9" d="M85.6276 35.8696C85.6276 34.448 86.8305 33.245 88.2522 33.245C89.6739 33.245 90.8768 34.448 90.8768 35.8696C90.8768 37.2913 89.6739 38.3849 88.2522 38.3849C86.8305 38.3849 85.6276 37.1819 85.6276 35.8696ZM83.3311 35.8696C83.3311 38.6036 85.5182 40.7908 88.2522 40.7908C90.9862 40.7908 93.1733 38.6036 93.1733 35.8696C93.1733 33.1357 90.9862 30.9485 88.2522 30.9485C85.5182 30.9485 83.3311 33.1357 83.3311 35.8696Z" fill="white"/>
</g>
</mask>
<g mask="url(#mask4_77_910)">
<path id="Vector_10" d="M97.876 36.7445L87.2682 45.4932L78.5195 34.8854L89.2367 26.1367L97.876 36.7445Z" fill="url(#paint4_linear_77_910)"/>
</g>
</g>
</g>
<g id="Group_7">
<g id="Clip path group_6">
<mask id="mask5_77_910" style="mask-type:luminance" maskUnits="userSpaceOnUse" x="64" y="30" width="11" height="11">
<g id="SVGID_17_">
<path id="Vector_11" d="M67.0373 35.8696C67.0373 34.448 68.2402 33.245 69.6619 33.245C71.0835 33.245 72.2865 34.448 72.2865 35.8696C72.2865 37.2913 71.0835 38.3849 69.6619 38.3849C68.2402 38.3849 67.0373 37.1819 67.0373 35.8696ZM64.7407 35.8696C64.7407 38.6036 66.9279 40.7908 69.6619 40.7908C72.3958 40.7908 74.583 38.6036 74.583 35.8696C74.583 33.1357 72.3958 30.9485 69.6619 30.9485C66.9279 30.9485 64.7407 33.1357 64.7407 35.8696Z" fill="white"/>
</g>
</mask>
<g mask="url(#mask5_77_910)">
<path id="Vector_12" d="M79.2857 36.7445L68.6779 45.4932L59.9292 34.8854L70.6463 26.1367L79.2857 36.7445Z" fill="url(#paint5_linear_77_910)"/>
</g>
</g>
</g>
<g id="Group_8">
<g id="Clip path group_7">
<mask id="mask6_77_910" style="mask-type:luminance" maskUnits="userSpaceOnUse" x="67" y="20" width="24" height="14">
<g id="SVGID_20_">
<path id="Vector_13" d="M67.6924 32.1514C67.6924 32.8075 68.2392 33.3543 68.8953 33.3543C69.5515 33.3543 70.0983 32.8075 70.0983 32.1514C70.0983 26.7928 74.6913 23.2933 78.9563 23.2933C83.2213 23.2933 87.8144 26.6835 87.8144 32.1514C87.8144 32.8075 88.3612 33.3543 89.0173 33.3543C89.6735 33.3543 90.2202 32.8075 90.2202 32.1514C90.1109 25.2618 84.3149 20.8875 78.9563 20.8875C72.7229 20.8875 67.6924 25.9179 67.6924 32.1514Z" fill="white"/>
</g>
</mask>
<g mask="url(#mask6_77_910)">
<path id="Vector_14" d="M96.2355 28.3238L76.6603 44.2901L61.6782 25.9179L81.1441 9.95154L96.2355 28.3238Z" fill="url(#paint6_linear_77_910)"/>
</g>
</g>
</g>
<g id="Group_9">
<g id="Clip path group_8">
<mask id="mask7_77_910" style="mask-type:luminance" maskUnits="userSpaceOnUse" x="32" y="51" width="40" height="29">
<g id="SVGID_23_">
<path id="Vector_15" d="M35.1051 54.3512H68.8969V77.0978H35.1051V54.3512ZM34.8864 52.0547C33.6835 52.0547 32.8086 53.0389 32.8086 54.2418V77.3165C32.8086 78.5194 33.7928 79.5037 34.8864 79.5037H69.1156C70.3186 79.5037 71.1935 78.5194 71.1935 77.3165V54.1325C71.1935 52.9295 70.2092 51.9453 69.1156 51.9453H34.8864V52.0547Z" fill="white"/>
</g>
</mask>
<g mask="url(#mask7_77_910)">
<path id="Vector_16" d="M84.6445 68.4584L48.2281 98.3133L19.3574 62.9905L55.7738 33.1356L84.6445 68.4584Z" fill="url(#paint7_linear_77_910)"/>
</g>
</g>
</g>
<g id="Group_10">
<g id="Clip path group_9">
<mask id="mask8_77_910" style="mask-type:luminance" maskUnits="userSpaceOnUse" x="32" y="80" width="40" height="4">
<g id="SVGID_26_">
<path id="Vector_17" d="M33.2449 80.7065C32.5888 80.7065 32.042 81.2533 32.042 81.9095C32.042 82.5656 32.5888 83.1124 33.2449 83.1124H70.7549C71.4111 83.1124 71.9579 82.5656 71.9579 81.9095C71.9579 81.2533 71.4111 80.7065 70.7549 80.7065H33.2449Z" fill="white"/>
</g>
</mask>
<g mask="url(#mask8_77_910)">
<path id="Vector_18" d="M73.0513 82.1287L48.0082 102.579L30.9482 81.5819L55.882 61.1318L73.0513 82.1287Z" fill="url(#paint8_linear_77_910)"/>
</g>
</g>
</g>
<g id="Group_11">
<g id="Clip path group_10">
<mask id="mask9_77_910" style="mask-type:luminance" maskUnits="userSpaceOnUse" x="50" y="64" width="4" height="3">
<g id="SVGID_29_">
<path id="Vector_19" d="M51.3983 64.5215C50.7421 64.5215 50.1953 65.0683 50.1953 65.7244C50.1953 66.3806 50.7421 66.9274 51.3983 66.9274H52.7106C53.3667 66.9274 53.9135 66.3806 53.9135 65.7244C53.9135 65.0683 53.3667 64.5215 52.7106 64.5215H51.3983Z" fill="white"/>
</g>
</mask>
<g mask="url(#mask9_77_910)">
<path id="Vector_20" d="M54.8985 65.9431L51.6178 68.6771L49.1025 65.5057L52.3833 62.7717L54.8985 65.9431Z" fill="url(#paint9_linear_77_910)"/>
</g>
</g>
</g>
<g id="Group_12">
<g id="Clip path group_11">
<mask id="mask10_77_910" style="mask-type:luminance" maskUnits="userSpaceOnUse" x="74" y="71" width="30" height="4">
<g id="SVGID_32_">
<path id="Vector_21" d="M75.8948 71.6299C75.2387 71.6299 74.6919 72.1767 74.6919 72.8328C74.6919 73.489 75.2387 74.0358 75.8948 74.0358H102.797C103.453 74.0358 104 73.489 104 72.8328C104 72.1767 103.453 71.6299 102.797 71.6299H75.8948Z" fill="white"/>
</g>
</mask>
<g mask="url(#mask10_77_910)">
<path id="Vector_22" d="M105.093 72.942L86.502 88.2522L73.5977 72.5045L92.298 57.1943L105.093 72.942Z" fill="url(#paint10_linear_77_910)"/>
</g>
</g>
</g>
<g id="Group_13">
<g id="Clip path group_12">
<mask id="mask11_77_910" style="mask-type:luminance" maskUnits="userSpaceOnUse" x="6" y="46" width="28" height="28">
<g id="SVGID_35_">
<path id="Vector_23" d="M14.5446 49.6486C8.42057 53.3668 6.2334 59.6002 6.2334 72.6139C6.2334 73.27 6.78019 73.8168 7.43634 73.8168C8.09249 73.8168 8.63929 73.27 8.63929 72.6139C8.63929 60.3657 10.4984 54.8978 15.857 51.7264C21.3249 48.4456 26.5741 48.0082 31.9327 50.3047C32.4795 50.5235 33.245 50.3047 33.4637 49.758C33.6824 49.2112 33.4637 48.4456 32.9169 48.2269C30.2923 47.1333 27.777 46.4772 25.2618 46.4772C21.5436 46.3678 18.0441 47.4614 14.5446 49.6486Z" fill="white"/>
</g>
</mask>
<g mask="url(#mask11_77_910)">
<path id="Vector_24" d="M46.9152 62.7715L17.1697 87.1585L-7.21729 57.3036L22.5282 32.9166L46.9152 62.7715Z" fill="url(#paint11_linear_77_910)"/>
</g>
</g>
</g>
<g id="Group_14">
<g id="Clip path group_13">
<mask id="mask12_77_910" style="mask-type:luminance" maskUnits="userSpaceOnUse" x="15" y="62" width="3" height="12">
<g id="SVGID_38_">
<path id="Vector_25" d="M15.3105 63.8653V72.614C15.3105 73.2701 15.8573 73.8169 16.5135 73.8169C17.1696 73.8169 17.7164 73.2701 17.7164 72.614V63.8653C17.7164 63.2091 17.1696 62.6624 16.5135 62.6624C15.8573 62.6624 15.3105 63.2091 15.3105 63.8653Z" fill="white"/>
</g>
</mask>
<g mask="url(#mask12_77_910)">
<path id="Vector_26" d="M23.0752 69.2237L16.2949 74.801L9.95215 67.0365L16.7324 61.4592L23.0752 69.2237Z" fill="url(#paint12_linear_77_910)"/>
</g>
</g>
</g>
<g id="Group_15">
<g id="Clip path group_14">
<mask id="mask13_77_910" style="mask-type:luminance" maskUnits="userSpaceOnUse" x="0" y="71" width="30" height="4">
<g id="SVGID_41_">
<path id="Vector_27" d="M1.20294 71.6299C0.546793 71.6299 0 72.1767 0 72.8328C0 73.489 0.546793 74.0358 1.20294 74.0358H28.1052C28.7613 74.0358 29.3081 73.489 29.3081 72.8328C29.3081 72.1767 28.7613 71.6299 28.1052 71.6299H1.20294Z" fill="white"/>
</g>
</mask>
<g mask="url(#mask13_77_910)">
<path id="Vector_28" d="M30.4015 72.942L11.7012 88.2522L-1.09375 72.5045L17.4972 57.1943L30.4015 72.942Z" fill="url(#paint13_linear_77_910)"/>
</g>
</g>
</g>
<g id="Group_16">
<g id="Clip path group_15">
<mask id="mask14_77_910" style="mask-type:luminance" maskUnits="userSpaceOnUse" x="14" y="25" width="22" height="22">
<g id="SVGID_44_">
<path id="Vector_29" d="M16.7321 35.8695C16.7321 31.2764 20.4503 27.5582 25.0433 27.5582C29.6364 27.5582 33.3546 31.2764 33.3546 35.8695C33.3546 40.4626 29.6364 44.1807 25.0433 44.1807C20.4503 44.1807 16.7321 40.3532 16.7321 35.8695ZM14.4355 35.8695C14.4355 41.7749 19.2473 46.4773 25.0433 46.4773C30.9487 46.4773 35.6511 41.6655 35.6511 35.8695C35.6511 30.0735 30.8393 25.2617 25.0433 25.2617C19.2473 25.1524 14.4355 29.9641 14.4355 35.8695Z" fill="white"/>
</g>
</mask>
<g mask="url(#mask14_77_910)">
<path id="Vector_30" d="M46.1499 37.9473L22.9659 56.8664L4.04688 33.6823L27.1215 14.7633L46.1499 37.9473Z" fill="url(#paint14_linear_77_910)"/>
</g>
</g>
</g>
</g>
</g>
<defs>
<linearGradient id="paint0_linear_77_910" x1="96.0765" y1="28.1108" x2="26.7858" y2="84.8246" gradientUnits="userSpaceOnUse">
<stop stop-color="white"/>
<stop offset="1" stop-color="#231F20"/>
</linearGradient>
<linearGradient id="paint1_linear_77_910" x1="89.8157" y1="20.4611" x2="20.5251" y2="77.1749" gradientUnits="userSpaceOnUse">
<stop stop-color="white"/>
<stop offset="1" stop-color="#231F20"/>
</linearGradient>
<linearGradient id="paint2_linear_77_910" x1="106.948" y1="41.3521" x2="37.6572" y2="98.0659" gradientUnits="userSpaceOnUse">
<stop stop-color="white"/>
<stop offset="1" stop-color="#231F20"/>
</linearGradient>
<linearGradient id="paint3_linear_77_910" x1="112.28" y1="47.8654" x2="42.9889" y2="104.579" gradientUnits="userSpaceOnUse">
<stop stop-color="white"/>
<stop offset="1" stop-color="#231F20"/>
</linearGradient>
<linearGradient id="paint4_linear_77_910" x1="96.7175" y1="28.8523" x2="27.4268" y2="85.5661" gradientUnits="userSpaceOnUse">
<stop stop-color="white"/>
<stop offset="1" stop-color="#231F20"/>
</linearGradient>
<linearGradient id="paint5_linear_77_910" x1="89.2659" y1="19.7475" x2="19.9752" y2="76.4613" gradientUnits="userSpaceOnUse">
<stop stop-color="white"/>
<stop offset="1" stop-color="#231F20"/>
</linearGradient>
<linearGradient id="paint6_linear_77_910" x1="88.7069" y1="19.0935" x2="19.4162" y2="75.8073" gradientUnits="userSpaceOnUse">
<stop stop-color="white"/>
<stop offset="1" stop-color="#231F20"/>
</linearGradient>
<linearGradient id="paint7_linear_77_910" x1="96.8488" y1="29.0116" x2="27.5581" y2="85.7254" gradientUnits="userSpaceOnUse">
<stop stop-color="white"/>
<stop offset="1" stop-color="#231F20"/>
</linearGradient>
<linearGradient id="paint8_linear_77_910" x1="104.748" y1="38.6642" x2="35.4572" y2="95.378" gradientUnits="userSpaceOnUse">
<stop stop-color="white"/>
<stop offset="1" stop-color="#231F20"/>
</linearGradient>
<linearGradient id="paint9_linear_77_910" x1="96.8484" y1="29.0115" x2="27.5577" y2="85.7253" gradientUnits="userSpaceOnUse">
<stop stop-color="white"/>
<stop offset="1" stop-color="#231F20"/>
</linearGradient>
<linearGradient id="paint10_linear_77_910" x1="115.279" y1="51.5309" x2="45.9885" y2="108.245" gradientUnits="userSpaceOnUse">
<stop stop-color="white"/>
<stop offset="1" stop-color="#231F20"/>
</linearGradient>
<linearGradient id="paint11_linear_77_910" x1="81.1782" y1="9.86633" x2="11.8875" y2="66.5801" gradientUnits="userSpaceOnUse">
<stop stop-color="white"/>
<stop offset="1" stop-color="#231F20"/>
</linearGradient>
<linearGradient id="paint12_linear_77_910" x1="83.8212" y1="13.0953" x2="14.5305" y2="69.8091" gradientUnits="userSpaceOnUse">
<stop stop-color="white"/>
<stop offset="1" stop-color="#231F20"/>
</linearGradient>
<linearGradient id="paint13_linear_77_910" x1="85.2951" y1="14.8969" x2="16.0044" y2="71.6107" gradientUnits="userSpaceOnUse">
<stop stop-color="white"/>
<stop offset="1" stop-color="#231F20"/>
</linearGradient>
<linearGradient id="paint14_linear_77_910" x1="71.3896" y1="-2.09304" x2="2.09895" y2="54.6207" gradientUnits="userSpaceOnUse">
<stop stop-color="white"/>
<stop offset="1" stop-color="#231F20"/>
</linearGradient>
</defs>
</svg>
