<svg width="40" height="41" viewBox="0 0 40 41" fill="none" xmlns="http://www.w3.org/2000/svg">
<g id="ticket">
<path id="Vector" d="M15 18.7233V22.0567M15 10.39V13.7233M15 27.0567V30.39M3.33333 25.6841V30.59C3.33333 32.2702 3.33333 33.1103 3.66031 33.752C3.94793 34.3165 4.40687 34.7754 4.97136 35.063C5.61309 35.39 6.45317 35.39 8.13333 35.39H31.8667C33.5468 35.39 34.3869 35.39 35.0286 35.063C35.5931 34.7754 36.0521 34.3165 36.3397 33.752C36.6667 33.1103 36.6667 32.2702 36.6667 30.59V25.6841C36.6667 25.5217 36.535 25.39 36.3725 25.39V25.39C33.7736 25.39 31.6667 23.2831 31.6667 20.6841V20.0959C31.6667 17.4969 33.7736 15.39 36.3725 15.39V15.39C36.535 15.39 36.6667 15.2583 36.6667 15.0959V10.19C36.6667 8.50986 36.6667 7.66978 36.3397 7.02804C36.0521 6.46356 35.5931 6.00462 35.0286 5.717C34.3869 5.39001 33.5468 5.39001 31.8667 5.39001H8.13333C6.45317 5.39001 5.61309 5.39001 4.97136 5.717C4.40687 6.00462 3.94793 6.46356 3.66031 7.02804C3.33333 7.66978 3.33333 8.50986 3.33333 10.19V15.0959C3.33333 15.2583 3.46501 15.39 3.62745 15.39V15.39C6.22643 15.39 8.33333 17.4969 8.33333 20.0959V20.6841C8.33333 23.2831 6.22643 25.39 3.62745 25.39V25.39C3.46501 25.39 3.33333 25.5217 3.33333 25.6841Z" stroke="white" stroke-width="3" stroke-linecap="round" stroke-linejoin="round"/>
</g>
</svg>
