<svg width="40" height="41" viewBox="0 0 40 41" fill="none" xmlns="http://www.w3.org/2000/svg">
<g id="timer">
<path id="Vector" d="M25 24.5567L26 25.3901L29.815 28.5693C32.952 31.1834 34.5204 32.4904 34.6837 33.6321C34.825 34.6208 34.465 35.6151 33.7235 36.2841C32.8672 37.0567 30.8255 37.0567 26.7422 37.0567H13.2578C9.17448 37.0567 7.1328 37.0567 6.27649 36.2841C5.53495 35.6151 5.175 34.6208 5.31635 33.6321C5.47957 32.4904 7.04803 31.1834 10.1849 28.5693L29.815 12.2109C32.952 9.59675 34.5204 8.2897 34.6837 7.14796C34.825 6.15926 34.465 5.16505 33.7235 4.496C32.8672 3.72339 30.8255 3.72339 26.7422 3.72339H13.2578C9.17448 3.72339 7.1328 3.72339 6.27649 4.496C5.53495 5.16505 5.175 6.15926 5.31634 7.14796C5.47957 8.2897 7.04803 9.59675 10.185 12.2109L14 15.3901L15 16.2234" stroke="white" stroke-width="3" stroke-linecap="round" stroke-linejoin="round"/>
</g>
</svg>
