<svg width="104" height="105" viewBox="0 0 104 105" fill="none" xmlns="http://www.w3.org/2000/svg">
<mask id="mask0_749_40950" style="mask-type:luminance" maskUnits="userSpaceOnUse" x="71" y="34" width="7" height="41">
<path d="M73.3442 34.2598C72.6682 34.2598 71.9922 34.9358 71.9922 35.6117C71.9922 36.2877 72.6682 36.9637 73.3442 36.9637H74.6962V72.9603C74.6962 73.6363 75.3721 74.3123 76.0481 74.3123C76.7241 74.3123 77.4001 73.6363 77.4001 72.9603V35.6117C77.4001 34.9358 76.7241 34.2598 76.0481 34.2598H73.3442Z" fill="white"/>
</mask>
<g mask="url(#mask0_749_40950)">
<path d="M97.3432 54.2004L74.6975 76.8461L51.8828 54.2004L74.6975 31.5547L97.3432 54.2004Z" fill="#35C5E8"/>
</g>
<mask id="mask1_749_40950" style="mask-type:luminance" maskUnits="userSpaceOnUse" x="55" y="79" width="23" height="23">
<path d="M74.6982 80.9026V98.3094H57.2914C56.6154 98.3094 55.9395 98.9854 55.9395 99.6614C55.9395 100.337 56.6154 101.013 57.2914 101.013H75.8812C76.5572 101.013 77.2332 100.337 77.2332 99.6614V81.0716C77.2332 80.3956 76.5572 79.7196 75.8812 79.7196C75.2052 79.5506 74.6982 80.2266 74.6982 80.9026Z" fill="white"/>
</mask>
<g mask="url(#mask1_749_40950)">
<path d="M87.8804 90.198L66.5867 111.492L45.293 90.198L66.5867 68.9043L87.8804 90.198Z" fill="#35C5E8"/>
</g>
<mask id="mask2_749_40950" style="mask-type:luminance" maskUnits="userSpaceOnUse" x="26" y="34" width="44" height="68">
<path d="M28.0551 34.2598C27.3791 34.2598 26.7031 34.9358 26.7031 35.6117V99.662C26.7031 100.338 27.3791 101.014 28.0551 101.014H52.0528C52.7288 101.014 53.4048 100.338 53.4048 99.662C53.4048 98.986 52.7288 98.31 52.0528 98.31H29.2381V36.9637H67.9386C68.6146 36.9637 69.2906 36.2877 69.2906 35.6117C69.2906 34.9358 68.6146 34.2598 67.9386 34.2598H28.0551Z" fill="white"/>
</mask>
<g mask="url(#mask2_749_40950)">
<path d="M102.583 67.5531L47.9965 122.308L-6.58984 67.5531L47.9965 12.9668L102.583 67.5531Z" fill="#35C5E8"/>
</g>
<mask id="mask3_749_40950" style="mask-type:luminance" maskUnits="userSpaceOnUse" x="74" y="52" width="30" height="49">
<path d="M75.8793 52.8496C75.2033 52.8496 74.5273 53.5256 74.5273 54.2016C74.5273 54.8776 75.2033 55.5536 75.8793 55.5536H101.229V98.141H75.8793C75.2033 98.141 74.5273 98.817 74.5273 99.493C74.5273 100.169 75.2033 100.845 75.8793 100.845H102.581C103.257 100.845 103.933 100.169 103.933 99.493V54.2016C103.933 53.5256 103.257 52.8496 102.581 52.8496H75.8793Z" fill="white"/>
</mask>
<g mask="url(#mask3_749_40950)">
<path d="M127.931 76.8479L89.2307 115.548L50.6992 76.8479L89.2307 38.3164L127.931 76.8479Z" fill="#35C5E8"/>
</g>
<mask id="mask4_749_40950" style="mask-type:luminance" maskUnits="userSpaceOnUse" x="37" y="79" width="30" height="23">
<path d="M38.6996 79.5508C38.0236 79.5508 37.3477 80.2268 37.3477 80.9028V99.4925C37.3477 100.169 38.0236 100.845 38.6996 100.845C39.3756 100.845 40.0516 100.169 40.0516 99.4925V82.2548H63.8803V99.6615C63.8803 100.338 64.5563 101.014 65.2323 101.014C65.9083 101.014 66.5843 100.338 66.5843 99.6615V81.0718C66.5843 80.3958 65.9083 79.7198 65.2323 79.7198H38.6996V79.5508Z" fill="white"/>
</mask>
<g mask="url(#mask4_749_40950)">
<path d="M77.2315 90.1973L52.0509 115.547L26.7012 90.1973L52.0509 64.8477L77.2315 90.1973Z" fill="#35C5E8"/>
</g>
<mask id="mask5_749_40950" style="mask-type:luminance" maskUnits="userSpaceOnUse" x="34" y="60" width="14" height="15">
<path d="M37.3485 63.6649H45.2914V71.6078H37.3485V63.6649ZM35.9965 60.9609C35.3205 60.9609 34.6445 61.6369 34.6445 62.3129V72.9598C34.6445 73.6358 35.3205 74.3118 35.9965 74.3118H46.6434C47.3194 74.3118 47.9954 73.6358 47.9954 72.9598V62.3129C47.9954 61.6369 47.3194 60.9609 46.6434 60.9609H35.9965Z" fill="white"/>
</mask>
<g mask="url(#mask5_749_40950)">
<path d="M54.5874 67.552L41.2365 80.9028L28.0547 67.552L41.2365 54.2012L54.5874 67.552Z" fill="#35C5E8"/>
</g>
<mask id="mask6_749_40950" style="mask-type:luminance" maskUnits="userSpaceOnUse" x="55" y="60" width="15" height="15">
<path d="M58.6434 63.6649H66.5863V71.6078H58.6434V63.6649ZM57.2914 60.9609C56.6154 60.9609 55.9395 61.6369 55.9395 62.3129V72.9598C55.9395 73.6358 56.6154 74.3118 57.2914 74.3118H67.9383C68.6143 74.3118 69.2903 73.6358 69.2903 72.9598V62.3129C69.2903 61.6369 68.6143 60.9609 67.9383 60.9609H57.2914Z" fill="white"/>
</mask>
<g mask="url(#mask6_749_40950)">
<path d="M75.8803 67.552L62.6985 80.9028L49.3477 67.552L62.6985 54.2012L75.8803 67.552Z" fill="#35C5E8"/>
</g>
<mask id="mask7_749_40950" style="mask-type:luminance" maskUnits="userSpaceOnUse" x="34" y="42" width="14" height="14">
<path d="M37.3485 44.9051H45.2914V52.848H37.3485V44.9051ZM35.9965 42.2012C35.3205 42.2012 34.6445 42.8772 34.6445 43.5532V54.2C34.6445 54.876 35.3205 55.552 35.9965 55.552H46.6434C47.3194 55.552 47.9954 54.876 47.9954 54.2V43.5532C47.9954 42.8772 47.3194 42.2012 46.6434 42.2012H35.9965Z" fill="white"/>
</mask>
<g mask="url(#mask7_749_40950)">
<path d="M54.5874 48.9602L41.2365 62.311L28.0547 48.9602L41.2365 35.6094L54.5874 48.9602Z" fill="#35C5E8"/>
</g>
<mask id="mask8_749_40950" style="mask-type:luminance" maskUnits="userSpaceOnUse" x="55" y="42" width="15" height="14">
<path d="M58.6434 44.9071H66.5863V52.85H58.6434V44.9071ZM57.2914 42.2031C56.6154 42.2031 55.9395 42.8791 55.9395 43.5551V54.202C55.9395 54.878 56.6154 55.554 57.2914 55.554H67.9383C68.6143 55.554 69.2903 54.878 69.2903 54.202V43.5551C69.2903 42.8791 68.6143 42.2031 67.9383 42.2031H57.2914Z" fill="white"/>
</mask>
<g mask="url(#mask8_749_40950)">
<path d="M75.8803 48.9622L62.6985 62.313L49.3477 48.9622L62.6985 35.6113L75.8803 48.9622Z" fill="#35C5E8"/>
</g>
<mask id="mask9_749_40950" style="mask-type:luminance" maskUnits="userSpaceOnUse" x="82" y="60" width="14" height="15">
<path d="M85.3446 63.6649H93.2875V71.6078H85.3446V63.6649ZM83.9926 60.9609C83.3166 60.9609 82.6406 61.6369 82.6406 62.3129V72.9598C82.6406 73.6358 83.3166 74.3118 83.9926 74.3118H94.6395C95.3155 74.3118 95.9915 73.6358 95.9915 72.9598V62.3129C95.9915 61.6369 95.3155 60.9609 94.6395 60.9609H83.9926Z" fill="white"/>
</mask>
<g mask="url(#mask9_749_40950)">
<path d="M102.583 67.552L89.2317 80.9028L75.8809 67.552L89.2317 54.2012L102.583 67.552Z" fill="#35C5E8"/>
</g>
<mask id="mask10_749_40950" style="mask-type:luminance" maskUnits="userSpaceOnUse" x="82" y="79" width="14" height="14">
<path d="M85.3446 82.2548H93.2875V90.1976H85.3446V82.2548ZM83.9926 79.5508C83.3166 79.5508 82.6406 80.2268 82.6406 80.9028V91.5496C82.6406 92.2256 83.3166 92.9016 83.9926 92.9016H94.6395C95.3155 92.9016 95.9915 92.2256 95.9915 91.5496V80.9028C95.9915 80.2268 95.3155 79.5508 94.6395 79.5508H83.9926Z" fill="white"/>
</mask>
<g mask="url(#mask10_749_40950)">
<path d="M102.583 86.3098L89.2317 99.4916L75.8809 86.3098L89.2317 72.959L102.583 86.3098Z" fill="#35C5E8"/>
</g>
<mask id="mask11_749_40950" style="mask-type:luminance" maskUnits="userSpaceOnUse" x="0" y="52" width="30" height="49">
<path d="M2.70397 55.5536H26.7017V98.141H2.70397V55.5536ZM1.35198 52.8496C0.675992 52.8496 0 53.5256 0 54.2016V99.493C0 100.169 0.675992 100.845 1.35198 100.845H28.0536C28.7296 100.845 29.4056 100.169 29.4056 99.493V54.2016C29.4056 53.5256 28.7296 52.8496 28.0536 52.8496H1.35198Z" fill="white"/>
</mask>
<g mask="url(#mask11_749_40950)">
<path d="M53.234 76.8479L14.7025 115.548L-23.998 76.8479L14.7025 38.3164L53.234 76.8479Z" fill="#35C5E8"/>
</g>
<mask id="mask12_749_40950" style="mask-type:luminance" maskUnits="userSpaceOnUse" x="7" y="60" width="15" height="15">
<path d="M10.6473 63.6649H18.5902V71.6078H10.6473V63.6649ZM9.29534 60.9609C8.61935 60.9609 7.94336 61.6369 7.94336 62.3129V72.9598C7.94336 73.6358 8.61935 74.3118 9.29534 74.3118H19.9422C20.6182 74.3118 21.2942 73.6358 21.2942 72.9598V62.3129C21.2942 61.6369 20.6182 60.9609 19.9422 60.9609H9.29534Z" fill="white"/>
</mask>
<g mask="url(#mask12_749_40950)">
<path d="M28.0532 67.552L14.7024 80.9028L1.35156 67.552L14.7024 54.2012L28.0532 67.552Z" fill="#35C5E8"/>
</g>
<mask id="mask13_749_40950" style="mask-type:luminance" maskUnits="userSpaceOnUse" x="7" y="79" width="15" height="14">
<path d="M10.6473 82.2548H18.5902V90.1976H10.6473V82.2548ZM9.29534 79.5508C8.61935 79.5508 7.94336 80.2268 7.94336 80.9028V91.5496C7.94336 92.2256 8.61935 92.9016 9.29534 92.9016H19.9422C20.6182 92.9016 21.2942 92.2256 21.2942 91.5496V80.9028C21.2942 80.2268 20.6182 79.5508 19.9422 79.5508H9.29534Z" fill="white"/>
</mask>
<g mask="url(#mask13_749_40950)">
<path d="M28.0532 86.3098L14.7024 99.4916L1.35156 86.3098L14.7024 72.959L28.0532 86.3098Z" fill="#35C5E8"/>
</g>
<mask id="mask14_749_40950" style="mask-type:luminance" maskUnits="userSpaceOnUse" x="0" y="5" width="24" height="25">
<path d="M7.94138 20.0643C8.11038 19.5573 7.94138 19.0503 7.60339 18.7123L4.56142 15.6703H9.29337C9.80036 15.6703 10.3074 15.3323 10.4763 14.8253L11.8283 10.6004L13.1803 14.8253C13.3493 15.3323 13.8563 15.6703 14.3633 15.6703H19.0952L16.0533 18.7123C15.7153 19.0503 15.5463 19.5573 15.7153 20.0643L17.2363 24.2892L12.5043 21.0782C12.3353 20.9092 11.9973 20.9092 11.8283 20.9092C11.4903 20.9092 11.3213 20.9092 11.1523 21.0782L6.4204 24.2892L7.94138 20.0643ZM10.6453 5.86843L8.27938 12.9663H1.35046C0.843471 12.9663 0.336478 13.3043 0.16748 13.8113C-0.00151791 14.3183 -0.00151825 14.8253 0.505475 15.3323L5.23741 20.0643L2.87145 27.3312C2.70245 27.8382 2.87145 28.5141 3.37844 28.8521C3.88543 29.1901 4.39243 29.1901 4.89942 28.8521L12.1663 23.9512L19.4332 28.8521C19.6022 29.0211 19.9402 29.0211 20.1092 29.0211C20.4472 29.0211 20.6162 28.8521 20.9542 28.6831C21.4612 28.3451 21.6302 27.6692 21.4612 27.1622L18.7572 19.8953L23.4892 15.1633C23.8272 14.8253 23.9962 14.1493 23.8272 13.6423C23.6582 13.1353 23.1512 12.7973 22.6442 12.7973H15.5463L13.1803 5.86843C13.0113 5.36143 12.5043 5.02344 11.9973 5.02344C11.4903 5.02344 10.9833 5.36143 10.6453 5.86843Z" fill="white"/>
</mask>
<g mask="url(#mask14_749_40950)">
<path d="M36.1635 17.0222L11.9968 41.1889L-12.1699 17.0222L11.9968 -7.14453L36.1635 17.0222Z" fill="#35C5E8"/>
</g>
<mask id="mask15_749_40950" style="mask-type:luminance" maskUnits="userSpaceOnUse" x="26" y="4" width="25" height="25">
<path d="M34.6455 20.0633C34.8145 19.5563 34.6455 19.0493 34.3075 18.7113L31.2656 15.6694H35.9975C36.5045 15.6694 37.0115 15.3314 37.1805 14.8244L38.5325 10.5994L39.8845 14.8244C40.0535 15.3314 40.5605 15.6694 41.0675 15.6694H45.7994L42.7574 18.7113C42.4194 19.0493 42.2504 19.5563 42.4194 20.0633L43.9404 24.2883L39.2085 21.0773C39.0395 20.9083 38.7015 20.9083 38.5325 20.9083C38.1945 20.9083 38.0255 20.9083 37.8565 21.0773L33.1246 24.2883L34.6455 20.0633ZM37.3495 5.8675L34.9835 12.9654H27.8856C27.3786 12.9654 26.8716 13.3034 26.7026 13.8104C26.5336 14.3174 26.5336 14.8244 27.0406 15.3314L31.7726 19.8943L29.4066 27.1612C29.2376 27.6682 29.4066 28.3442 29.9136 28.6822C30.4206 29.0202 30.9276 29.0202 31.4346 28.6822L38.7015 23.7813L45.9684 28.6822C46.1374 28.8512 46.4754 28.8512 46.6444 28.8512C46.9824 28.8512 47.1514 28.6822 47.4894 28.5132C47.9964 28.1752 48.1654 27.4992 47.9964 26.9922L45.4614 19.8943L50.1933 15.1624C50.5313 14.8244 50.7003 14.1484 50.5313 13.6414C50.3623 13.1344 49.8554 12.7964 49.3484 12.7964H42.2504L39.8845 5.69851C39.7155 5.19151 39.2085 4.85352 38.7015 4.85352C38.0255 5.02251 37.5185 5.36051 37.3495 5.8675Z" fill="white"/>
</mask>
<g mask="url(#mask15_749_40950)">
<path d="M62.6996 17.0222L38.7019 41.1889L14.5352 17.0222L38.7019 -7.14453L62.6996 17.0222Z" fill="#35C5E8"/>
</g>
<mask id="mask16_749_40950" style="mask-type:luminance" maskUnits="userSpaceOnUse" x="53" y="4" width="25" height="26">
<path d="M61.1777 20.0633C61.3467 19.5563 61.1777 19.0493 60.8397 18.7113L57.7978 15.6694H62.5297C63.0367 15.6694 63.5437 15.3314 63.7127 14.8244L65.0647 10.5994L66.4166 14.8244C66.5856 15.3314 67.0926 15.6694 67.5996 15.6694H72.3316L69.2896 18.7113C68.9516 19.0493 68.7826 19.5563 68.9516 20.0633L70.4726 24.2883L65.7407 21.0773C65.5717 20.9083 65.2337 20.9083 65.0647 20.9083C64.7267 20.9083 64.5577 20.9083 64.3887 21.0773L59.6567 24.2883L61.1777 20.0633ZM64.0507 5.8675L61.6847 12.9654H54.5868C54.0798 12.9654 53.5728 13.3034 53.4038 13.8104C53.2348 14.3174 53.2348 14.8244 53.7418 15.3314L58.4737 20.0633L56.1078 27.3302C55.9388 27.8372 56.1078 28.5132 56.6148 28.8512C57.1218 29.1892 57.6288 29.1892 58.1357 28.8512L65.4027 23.9503L72.6696 28.8512C72.8386 29.0202 73.1766 29.0202 73.3456 29.0202C73.6836 29.0202 73.8526 28.8512 74.1905 28.6822C74.6975 28.3442 74.8665 27.6682 74.6975 27.1612L72.1626 19.8943L76.8945 15.1624C77.2325 14.8244 77.4015 14.1484 77.2325 13.6414C77.0635 13.1344 76.5565 12.7964 76.0495 12.7964H68.9516L66.5856 5.69851C66.4166 5.19151 65.9097 4.85352 65.4027 4.85352C64.7267 5.02251 64.2197 5.36051 64.0507 5.8675Z" fill="white"/>
</mask>
<g mask="url(#mask16_749_40950)">
<path d="M89.4007 17.0222L65.234 41.1889L41.2363 17.0222L65.234 -7.14453L89.4007 17.0222Z" fill="#35C5E8"/>
</g>
<mask id="mask17_749_40950" style="mask-type:luminance" maskUnits="userSpaceOnUse" x="80" y="4" width="24" height="26">
<path d="M87.8789 20.0633C88.0479 19.5563 87.8789 19.0493 87.5409 18.7113L84.4989 15.6694H89.2309C89.7379 15.6694 90.2449 15.3314 90.4138 14.8244L91.7658 10.5994L93.1178 14.8244C93.2868 15.3314 93.7938 15.6694 94.3008 15.6694H99.3707L96.3288 18.7113C95.9908 19.0493 95.8218 19.5563 95.9908 20.0633L97.3428 24.2883L92.6108 21.2463C92.4418 21.0773 92.1038 21.0773 91.9348 21.0773C91.5968 21.0773 91.4278 21.0773 91.2588 21.2463L86.5269 24.4573L87.8789 20.0633ZM90.7519 5.8675L88.3859 12.9654H81.288C80.781 12.9654 80.274 13.3034 80.105 13.8104C79.936 14.3174 79.936 14.8244 80.443 15.3314L85.1749 20.0633L82.8089 27.3302C82.64 27.8372 82.8089 28.5132 83.3159 28.8512C83.8229 29.1892 84.3299 29.1892 84.8369 28.8512L92.1038 23.9503L99.3707 28.8512C99.5397 29.0202 99.8777 29.0202 100.047 29.0202C100.385 29.0202 100.554 28.8512 100.892 28.6822C101.399 28.3442 101.568 27.6682 101.399 27.1612L98.8637 19.8943L103.596 15.1624C103.934 14.8244 104.103 14.1484 103.934 13.6414C103.765 13.1344 103.258 12.7964 102.751 12.7964H95.6528L93.2868 5.69851C93.1178 5.19151 92.6108 4.85352 91.9348 4.85352C91.4278 5.02251 90.9208 5.36051 90.7519 5.8675Z" fill="white"/>
</mask>
<g mask="url(#mask17_749_40950)">
<path d="M116.103 17.0222L91.9362 41.1889L67.7695 17.0222L91.9362 -7.14453L116.103 17.0222Z" fill="#35C5E8"/>
</g>
</svg>
