<svg width="104" height="104" viewBox="0 0 104 104" fill="none" xmlns="http://www.w3.org/2000/svg">
<g id="Travel, Transportation &#38; Accommodation">
<g id="Group">
<g id="Group_2">
<g id="Clip path group">
<mask id="mask0_78_1029" style="mask-type:luminance" maskUnits="userSpaceOnUse" x="71" y="33" width="7" height="41">
<g id="SVGID_2_">
<path id="Vector" d="M73.3451 33.3258C72.6692 33.3258 71.9932 34.0018 71.9932 34.6778C71.9932 35.3538 72.6692 36.0298 73.3451 36.0298H74.6971V72.0263C74.6971 72.7023 75.3731 73.3783 76.0491 73.3783C76.7251 73.3783 77.4011 72.7023 77.4011 72.0263V34.6778C77.4011 34.0018 76.7251 33.3258 76.0491 33.3258H73.3451Z" fill="white"/>
</g>
</mask>
<g mask="url(#mask0_78_1029)">
<path id="Vector_2" d="M97.3432 53.2674L74.6975 75.9131L51.8828 53.2674L74.6975 30.6217L97.3432 53.2674Z" fill="url(#paint0_linear_78_1029)"/>
</g>
</g>
</g>
<g id="Group_3">
<g id="Clip path group_2">
<mask id="mask1_78_1029" style="mask-type:luminance" maskUnits="userSpaceOnUse" x="55" y="78" width="23" height="23">
<g id="SVGID_5_">
<path id="Vector_3" d="M74.6982 79.969V97.3758H57.2914C56.6154 97.3758 55.9395 98.0518 55.9395 98.7278C55.9395 99.4038 56.6154 100.08 57.2914 100.08H75.8812C76.5572 100.08 77.2332 99.4038 77.2332 98.7278V80.138C77.2332 79.462 76.5572 78.786 75.8812 78.786C75.2052 78.617 74.6982 79.293 74.6982 79.969Z" fill="white"/>
</g>
</mask>
<g mask="url(#mask1_78_1029)">
<path id="Vector_4" d="M87.8795 89.2635L66.5857 110.557L45.292 89.2635L66.5857 67.9697L87.8795 89.2635Z" fill="url(#paint1_linear_78_1029)"/>
</g>
</g>
</g>
<g id="Group_4">
<g id="Clip path group_3">
<mask id="mask2_78_1029" style="mask-type:luminance" maskUnits="userSpaceOnUse" x="26" y="33" width="44" height="68">
<g id="SVGID_8_">
<path id="Vector_5" d="M28.0541 33.3259C27.3781 33.3259 26.7021 34.0019 26.7021 34.6779V98.7281C26.7021 99.4041 27.3781 100.08 28.0541 100.08H52.0518C52.7278 100.08 53.4038 99.4041 53.4038 98.7281C53.4038 98.0521 52.7278 97.3761 52.0518 97.3761H29.2371V36.0299H67.9376C68.6136 36.0299 69.2896 35.3539 69.2896 34.6779C69.2896 34.0019 68.6136 33.3259 67.9376 33.3259H28.0541Z" fill="white"/>
</g>
</mask>
<g mask="url(#mask2_78_1029)">
<path id="Vector_6" d="M102.581 66.6184L47.9945 121.374L-6.5918 66.6184L47.9945 12.0321L102.581 66.6184Z" fill="url(#paint2_linear_78_1029)"/>
</g>
</g>
</g>
<g id="Group_5">
<g id="Clip path group_4">
<mask id="mask3_78_1029" style="mask-type:luminance" maskUnits="userSpaceOnUse" x="74" y="51" width="30" height="49">
<g id="SVGID_11_">
<path id="Vector_7" d="M75.8798 51.9155C75.2038 51.9155 74.5278 52.5915 74.5278 53.2675C74.5278 53.9435 75.2038 54.6195 75.8798 54.6195H101.229V97.207H75.8798C75.2038 97.207 74.5278 97.883 74.5278 98.5589C74.5278 99.2349 75.2038 99.9109 75.8798 99.9109H102.581C103.257 99.9109 103.933 99.2349 103.933 98.5589V53.2675C103.933 52.5915 103.257 51.9155 102.581 51.9155H75.8798Z" fill="white"/>
</g>
</mask>
<g mask="url(#mask3_78_1029)">
<path id="Vector_8" d="M127.932 75.9134L89.2312 114.614L50.6997 75.9134L89.2312 37.3818L127.932 75.9134Z" fill="url(#paint3_linear_78_1029)"/>
</g>
</g>
</g>
<g id="Group_6">
<g id="Clip path group_5">
<mask id="mask4_78_1029" style="mask-type:luminance" maskUnits="userSpaceOnUse" x="37" y="78" width="30" height="23">
<g id="SVGID_14_">
<path id="Vector_9" d="M38.7006 78.6172C38.0246 78.6172 37.3486 79.2932 37.3486 79.9692V98.5589C37.3486 99.2349 38.0246 99.9109 38.7006 99.9109C39.3766 99.9109 40.0526 99.2349 40.0526 98.5589V81.3212H63.8813V98.7279C63.8813 99.4039 64.5573 100.08 65.2333 100.08C65.9093 100.08 66.5853 99.4039 66.5853 98.7279V80.1382C66.5853 79.4622 65.9093 78.7862 65.2333 78.7862H38.7006V78.6172Z" fill="white"/>
</g>
</mask>
<g mask="url(#mask4_78_1029)">
<path id="Vector_10" d="M77.233 89.2637L52.0523 114.613L26.7026 89.2637L52.0523 63.9141L77.233 89.2637Z" fill="url(#paint4_linear_78_1029)"/>
</g>
</g>
</g>
<g id="Group_7">
<g id="Clip path group_6">
<mask id="mask5_78_1029" style="mask-type:luminance" maskUnits="userSpaceOnUse" x="34" y="60" width="14" height="14">
<g id="SVGID_17_">
<path id="Vector_11" d="M37.3485 62.7316H45.2914V70.6745H37.3485V62.7316ZM35.9965 60.0276C35.3205 60.0276 34.6445 60.7036 34.6445 61.3796V72.0264C34.6445 72.7024 35.3205 73.3784 35.9965 73.3784H46.6434C47.3194 73.3784 47.9954 72.7024 47.9954 72.0264V61.3796C47.9954 60.7036 47.3194 60.0276 46.6434 60.0276H35.9965Z" fill="white"/>
</g>
</mask>
<g mask="url(#mask5_78_1029)">
<path id="Vector_12" d="M54.5864 66.6184L41.2355 79.9692L28.0537 66.6184L41.2355 53.2676L54.5864 66.6184Z" fill="url(#paint5_linear_78_1029)"/>
</g>
</g>
</g>
<g id="Group_8">
<g id="Clip path group_7">
<mask id="mask6_78_1029" style="mask-type:luminance" maskUnits="userSpaceOnUse" x="55" y="60" width="15" height="14">
<g id="SVGID_20_">
<path id="Vector_13" d="M58.6434 62.7316H66.5863V70.6745H58.6434V62.7316ZM57.2914 60.0276C56.6154 60.0276 55.9395 60.7036 55.9395 61.3796V72.0264C55.9395 72.7024 56.6154 73.3784 57.2914 73.3784H67.9383C68.6143 73.3784 69.2903 72.7024 69.2903 72.0264V61.3796C69.2903 60.7036 68.6143 60.0276 67.9383 60.0276H57.2914Z" fill="white"/>
</g>
</mask>
<g mask="url(#mask6_78_1029)">
<path id="Vector_14" d="M75.8808 66.6184L62.699 79.9692L49.3481 66.6184L62.699 53.2676L75.8808 66.6184Z" fill="url(#paint6_linear_78_1029)"/>
</g>
</g>
</g>
<g id="Group_9">
<g id="Clip path group_8">
<mask id="mask7_78_1029" style="mask-type:luminance" maskUnits="userSpaceOnUse" x="34" y="41" width="14" height="14">
<g id="SVGID_23_">
<path id="Vector_15" d="M37.3485 43.9725H45.2914V51.9154H37.3485V43.9725ZM35.9965 41.2686C35.3205 41.2686 34.6445 41.9445 34.6445 42.6205V53.2674C34.6445 53.9434 35.3205 54.6194 35.9965 54.6194H46.6434C47.3194 54.6194 47.9954 53.9434 47.9954 53.2674V42.6205C47.9954 41.9445 47.3194 41.2686 46.6434 41.2686H35.9965Z" fill="white"/>
</g>
</mask>
<g mask="url(#mask7_78_1029)">
<path id="Vector_16" d="M54.5864 48.0285L41.2355 61.3793L28.0537 48.0285L41.2355 34.6776L54.5864 48.0285Z" fill="url(#paint7_linear_78_1029)"/>
</g>
</g>
</g>
<g id="Group_10">
<g id="Clip path group_9">
<mask id="mask8_78_1029" style="mask-type:luminance" maskUnits="userSpaceOnUse" x="55" y="41" width="15" height="14">
<g id="SVGID_26_">
<path id="Vector_17" d="M58.6434 43.9726H66.5863V51.9155H58.6434V43.9726ZM57.2914 41.2687C56.6154 41.2687 55.9395 41.9447 55.9395 42.6207V53.2675C55.9395 53.9435 56.6154 54.6195 57.2914 54.6195H67.9383C68.6143 54.6195 69.2903 53.9435 69.2903 53.2675V42.6207C69.2903 41.9447 68.6143 41.2687 67.9383 41.2687H57.2914Z" fill="white"/>
</g>
</mask>
<g mask="url(#mask8_78_1029)">
<path id="Vector_18" d="M75.8808 48.0285L62.699 61.3793L49.3481 48.0285L62.699 34.6776L75.8808 48.0285Z" fill="url(#paint8_linear_78_1029)"/>
</g>
</g>
</g>
<g id="Group_11">
<g id="Clip path group_10">
<mask id="mask9_78_1029" style="mask-type:luminance" maskUnits="userSpaceOnUse" x="82" y="60" width="14" height="14">
<g id="SVGID_29_">
<path id="Vector_19" d="M85.3441 62.7316H93.287V70.6745H85.3441V62.7316ZM83.9921 60.0276C83.3161 60.0276 82.6401 60.7036 82.6401 61.3796V72.0264C82.6401 72.7024 83.3161 73.3784 83.9921 73.3784H94.639C95.315 73.3784 95.991 72.7024 95.991 72.0264V61.3796C95.991 60.7036 95.315 60.0276 94.639 60.0276H83.9921Z" fill="white"/>
</g>
</mask>
<g mask="url(#mask9_78_1029)">
<path id="Vector_20" d="M102.582 66.6184L89.2307 79.9692L75.8799 66.6184L89.2307 53.2676L102.582 66.6184Z" fill="url(#paint9_linear_78_1029)"/>
</g>
</g>
</g>
<g id="Group_12">
<g id="Clip path group_11">
<mask id="mask10_78_1029" style="mask-type:luminance" maskUnits="userSpaceOnUse" x="82" y="78" width="14" height="14">
<g id="SVGID_32_">
<path id="Vector_21" d="M85.3441 81.3212H93.287V89.2641H85.3441V81.3212ZM83.9921 78.6172C83.3161 78.6172 82.6401 79.2932 82.6401 79.9692V90.616C82.6401 91.292 83.3161 91.968 83.9921 91.968H94.639C95.315 91.968 95.991 91.292 95.991 90.616V79.9692C95.991 79.2932 95.315 78.6172 94.639 78.6172H83.9921Z" fill="white"/>
</g>
</mask>
<g mask="url(#mask10_78_1029)">
<path id="Vector_22" d="M102.582 85.377L89.2307 98.5588L75.8799 85.377L89.2307 72.0261L102.582 85.377Z" fill="url(#paint10_linear_78_1029)"/>
</g>
</g>
</g>
<g id="Group_13">
<g id="Clip path group_12">
<mask id="mask11_78_1029" style="mask-type:luminance" maskUnits="userSpaceOnUse" x="0" y="51" width="30" height="49">
<g id="SVGID_35_">
<path id="Vector_23" d="M2.70397 54.6195H26.7017V97.207H2.70397V54.6195ZM1.35198 51.9155C0.675992 51.9155 0 52.5915 0 53.2675V98.5589C0 99.2349 0.675992 99.9109 1.35198 99.9109H28.0536C28.7296 99.9109 29.4056 99.2349 29.4056 98.5589V53.2675C29.4056 52.5915 28.7296 51.9155 28.0536 51.9155H1.35198Z" fill="white"/>
</g>
</mask>
<g mask="url(#mask11_78_1029)">
<path id="Vector_24" d="M53.2335 75.9134L14.702 114.614L-23.9985 75.9134L14.702 37.3818L53.2335 75.9134Z" fill="url(#paint11_linear_78_1029)"/>
</g>
</g>
</g>
<g id="Group_14">
<g id="Clip path group_13">
<mask id="mask12_78_1029" style="mask-type:luminance" maskUnits="userSpaceOnUse" x="7" y="60" width="15" height="14">
<g id="SVGID_38_">
<path id="Vector_25" d="M10.6468 62.7316H18.5897V70.6745H10.6468V62.7316ZM9.29486 60.0276C8.61886 60.0276 7.94287 60.7036 7.94287 61.3796V72.0264C7.94287 72.7024 8.61886 73.3784 9.29486 73.3784H19.9417C20.6177 73.3784 21.2937 72.7024 21.2937 72.0264V61.3796C21.2937 60.7036 20.6177 60.0276 19.9417 60.0276H9.29486Z" fill="white"/>
</g>
</mask>
<g mask="url(#mask12_78_1029)">
<path id="Vector_26" d="M28.0537 66.6184L14.7029 79.9692L1.35205 66.6184L14.7029 53.2676L28.0537 66.6184Z" fill="url(#paint12_linear_78_1029)"/>
</g>
</g>
</g>
<g id="Group_15">
<g id="Clip path group_14">
<mask id="mask13_78_1029" style="mask-type:luminance" maskUnits="userSpaceOnUse" x="7" y="78" width="15" height="14">
<g id="SVGID_41_">
<path id="Vector_27" d="M10.6468 81.3212H18.5897V89.2641H10.6468V81.3212ZM9.29486 78.6172C8.61886 78.6172 7.94287 79.2932 7.94287 79.9692V90.616C7.94287 91.292 8.61886 91.968 9.29486 91.968H19.9417C20.6177 91.968 21.2937 91.292 21.2937 90.616V79.9692C21.2937 79.2932 20.6177 78.6172 19.9417 78.6172H9.29486Z" fill="white"/>
</g>
</mask>
<g mask="url(#mask13_78_1029)">
<path id="Vector_28" d="M28.0537 85.377L14.7029 98.5588L1.35205 85.377L14.7029 72.0261L28.0537 85.377Z" fill="url(#paint13_linear_78_1029)"/>
</g>
</g>
</g>
<g id="Group_16">
<g id="Clip path group_15">
<mask id="mask14_78_1029" style="mask-type:luminance" maskUnits="userSpaceOnUse" x="0" y="4" width="24" height="25">
<g id="SVGID_44_">
<path id="Vector_29" d="M7.94285 19.1299C8.11185 18.6229 7.94285 18.1159 7.60485 17.7779L4.56289 14.736H9.29483C9.80183 14.736 10.3088 14.398 10.4778 13.891L11.8298 9.66604L13.1818 13.891C13.3508 14.398 13.8578 14.736 14.3648 14.736H19.0967L16.0547 17.7779C15.7168 18.1159 15.5478 18.6229 15.7168 19.1299L17.2377 23.3549L12.5058 20.1439C12.3368 19.9749 11.9988 19.9749 11.8298 19.9749C11.4918 19.9749 11.3228 19.9749 11.1538 20.1439L6.42187 23.3549L7.94285 19.1299ZM10.6468 4.9341L8.28084 12.032H1.35193C0.844936 12.032 0.337943 12.37 0.168945 12.877C-5.30705e-05 13.384 -5.34058e-05 13.891 0.50694 14.398L5.23888 19.1299L2.87291 26.3968C2.70391 26.9038 2.87291 27.5798 3.37991 27.9178C3.8869 28.2558 4.39389 28.2558 4.90089 27.9178L12.1678 23.0169L19.4347 27.9178C19.6037 28.0868 19.9417 28.0868 20.1107 28.0868C20.4487 28.0868 20.6177 27.9178 20.9557 27.7488C21.4627 27.4108 21.6317 26.7348 21.4627 26.2278L18.7587 18.9609L23.4907 14.229C23.8286 13.891 23.9976 13.215 23.8286 12.708C23.6596 12.201 23.1527 11.863 22.6457 11.863H15.5478L13.1818 4.9341C13.0128 4.42711 12.5058 4.08911 11.9988 4.08911C11.4918 4.08911 10.9848 4.42711 10.6468 4.9341Z" fill="white"/>
</g>
</mask>
<g mask="url(#mask14_78_1029)">
<path id="Vector_30" d="M36.1649 16.088L11.9982 40.2547L-12.1685 16.088L11.9982 -8.07874L36.1649 16.088Z" fill="url(#paint14_linear_78_1029)"/>
</g>
</g>
</g>
<g id="Group_17">
<g id="Clip path group_16">
<mask id="mask15_78_1029" style="mask-type:luminance" maskUnits="userSpaceOnUse" x="26" y="3" width="25" height="26">
<g id="SVGID_47_">
<path id="Vector_31" d="M34.6451 19.1299C34.814 18.6229 34.645 18.1159 34.3071 17.7779L31.2651 14.7359H35.997C36.504 14.7359 37.011 14.3979 37.18 13.8909L38.532 9.66597L39.884 13.8909C40.053 14.3979 40.56 14.7359 41.067 14.7359H45.7989L42.7569 17.7779C42.419 18.1159 42.25 18.6229 42.419 19.1299L43.9399 23.3548L39.208 20.1438C39.039 19.9748 38.701 19.9748 38.532 19.9748C38.194 19.9748 38.025 19.9748 37.856 20.1438L33.1241 23.3548L34.6451 19.1299ZM37.349 4.93403L34.983 12.0319H27.8851C27.3781 12.0319 26.8711 12.3699 26.7021 12.8769C26.5331 13.3839 26.5332 13.8909 27.0401 14.3979L31.7721 18.9609L29.4061 26.2278C29.2371 26.7348 29.4061 27.4108 29.9131 27.7487C30.4201 28.0867 30.9271 28.0867 31.4341 27.7487L38.701 22.8478L45.9679 27.7487C46.1369 27.9177 46.4749 27.9177 46.6439 27.9177C46.9819 27.9177 47.1509 27.7487 47.4889 27.5798C47.9959 27.2418 48.1649 26.5658 47.9959 26.0588L45.4609 18.9609L50.1929 14.2289C50.5309 13.8909 50.6998 13.2149 50.5308 12.7079C50.3619 12.2009 49.8549 11.8629 49.3479 11.8629H42.25L39.884 4.76503C39.715 4.25804 39.208 3.92004 38.701 3.92004C38.025 4.08904 37.518 4.42704 37.349 4.93403Z" fill="white"/>
</g>
</mask>
<g mask="url(#mask15_78_1029)">
<path id="Vector_32" d="M62.6986 16.0878L38.7009 40.2545L14.5342 16.0878L38.7009 -8.07886L62.6986 16.0878Z" fill="url(#paint15_linear_78_1029)"/>
</g>
</g>
</g>
<g id="Group_18">
<g id="Clip path group_17">
<mask id="mask16_78_1029" style="mask-type:luminance" maskUnits="userSpaceOnUse" x="53" y="3" width="25" height="26">
<g id="SVGID_50_">
<path id="Vector_33" d="M61.1772 19.1299C61.3462 18.6229 61.1772 18.1159 60.8392 17.7779L57.7973 14.7359H62.5292C63.0362 14.7359 63.5432 14.3979 63.7122 13.8909L65.0642 9.66597L66.4162 13.8909C66.5852 14.3979 67.0922 14.7359 67.5991 14.7359H72.3311L69.2891 17.7779C68.9511 18.1159 68.7821 18.6229 68.9511 19.1299L70.4721 23.3548L65.7402 20.1438C65.5712 19.9748 65.2332 19.9748 65.0642 19.9748C64.7262 19.9748 64.5572 19.9748 64.3882 20.1438L59.6562 23.3548L61.1772 19.1299ZM64.0502 4.93403L61.6842 12.0319H54.5863C54.0793 12.0319 53.5723 12.3699 53.4033 12.8769C53.2343 13.3839 53.2343 13.8909 53.7413 14.3979L58.4733 19.1299L56.1073 26.3968C55.9383 26.9038 56.1073 27.5797 56.6143 27.9177C57.1213 28.2557 57.6283 28.2557 58.1353 27.9177L65.4022 23.0168L72.6691 27.9177C72.8381 28.0867 73.1761 28.0867 73.3451 28.0867C73.6831 28.0867 73.8521 27.9177 74.1901 27.7487C74.6971 27.4108 74.8661 26.7348 74.6971 26.2278L72.1621 18.9609L76.894 14.2289C77.232 13.8909 77.401 13.2149 77.232 12.7079C77.063 12.2009 76.556 11.8629 76.049 11.8629H68.9511L66.5852 4.76503C66.4162 4.25804 65.9092 3.92004 65.4022 3.92004C64.7262 4.08904 64.2192 4.42704 64.0502 4.93403Z" fill="white"/>
</g>
</mask>
<g mask="url(#mask16_78_1029)">
<path id="Vector_34" d="M89.3997 16.0878L65.2331 40.2545L41.2354 16.0878L65.2331 -8.07886L89.3997 16.0878Z" fill="url(#paint16_linear_78_1029)"/>
</g>
</g>
</g>
<g id="Group_19">
<g id="Clip path group_18">
<mask id="mask17_78_1029" style="mask-type:luminance" maskUnits="userSpaceOnUse" x="80" y="3" width="24" height="26">
<g id="SVGID_53_">
<path id="Vector_35" d="M87.8789 19.1299C88.0479 18.6229 87.8789 18.1159 87.5409 17.7779L84.4989 14.7359H89.2309C89.7379 14.7359 90.2449 14.3979 90.4138 13.8909L91.7658 9.66597L93.1178 13.8909C93.2868 14.3979 93.7938 14.7359 94.3008 14.7359H99.3707L96.3288 17.7779C95.9908 18.1159 95.8218 18.6229 95.9908 19.1299L97.3428 23.3548L92.6108 20.3128C92.4418 20.1438 92.1038 20.1438 91.9348 20.1438C91.5968 20.1438 91.4278 20.1438 91.2588 20.3128L86.5269 23.5238L87.8789 19.1299ZM90.7519 4.93403L88.3859 12.0319H81.288C80.781 12.0319 80.274 12.3699 80.105 12.8769C79.936 13.3839 79.936 13.8909 80.443 14.3979L85.1749 19.1299L82.8089 26.3968C82.64 26.9038 82.8089 27.5797 83.3159 27.9177C83.8229 28.2557 84.3299 28.2557 84.8369 27.9177L92.1038 23.0168L99.3707 27.9177C99.5397 28.0867 99.8777 28.0867 100.047 28.0867C100.385 28.0867 100.554 27.9177 100.892 27.7487C101.399 27.4108 101.568 26.7348 101.399 26.2278L98.8637 18.9609L103.596 14.2289C103.934 13.8909 104.103 13.2149 103.934 12.7079C103.765 12.2009 103.258 11.8629 102.751 11.8629H95.6528L93.2868 4.76503C93.1178 4.25804 92.6108 3.92004 91.9348 3.92004C91.4278 4.08904 90.9208 4.42704 90.7519 4.93403Z" fill="white"/>
</g>
</mask>
<g mask="url(#mask17_78_1029)">
<path id="Vector_36" d="M116.102 16.0878L91.9353 40.2545L67.7686 16.0878L91.9353 -8.07886L116.102 16.0878Z" fill="url(#paint17_linear_78_1029)"/>
</g>
</g>
</g>
</g>
</g>
<defs>
<linearGradient id="paint0_linear_78_1029" x1="106.411" y1="21.4684" x2="24.0107" y2="103.869" gradientUnits="userSpaceOnUse">
<stop stop-color="white"/>
<stop offset="1" stop-color="#231F20"/>
</linearGradient>
<linearGradient id="paint1_linear_78_1029" x1="120.403" y1="35.4595" x2="38.0024" y2="117.86" gradientUnits="userSpaceOnUse">
<stop stop-color="white"/>
<stop offset="1" stop-color="#231F20"/>
</linearGradient>
<linearGradient id="paint2_linear_78_1029" x1="99.7517" y1="14.8106" x2="17.3514" y2="97.211" gradientUnits="userSpaceOnUse">
<stop stop-color="white"/>
<stop offset="1" stop-color="#231F20"/>
</linearGradient>
<linearGradient id="paint3_linear_78_1029" x1="125.066" y1="40.1241" x2="42.666" y2="122.524" gradientUnits="userSpaceOnUse">
<stop stop-color="white"/>
<stop offset="1" stop-color="#231F20"/>
</linearGradient>
<linearGradient id="paint4_linear_78_1029" x1="113.078" y1="28.1344" x2="30.6774" y2="110.535" gradientUnits="userSpaceOnUse">
<stop stop-color="white"/>
<stop offset="1" stop-color="#231F20"/>
</linearGradient>
<linearGradient id="paint5_linear_78_1029" x1="96.4155" y1="11.4734" x2="14.0151" y2="93.8737" gradientUnits="userSpaceOnUse">
<stop stop-color="white"/>
<stop offset="1" stop-color="#231F20"/>
</linearGradient>
<linearGradient id="paint6_linear_78_1029" x1="107.087" y1="22.1442" x2="24.6867" y2="104.545" gradientUnits="userSpaceOnUse">
<stop stop-color="white"/>
<stop offset="1" stop-color="#231F20"/>
</linearGradient>
<linearGradient id="paint7_linear_78_1029" x1="87.0878" y1="2.14549" x2="4.68742" y2="84.5458" gradientUnits="userSpaceOnUse">
<stop stop-color="white"/>
<stop offset="1" stop-color="#231F20"/>
</linearGradient>
<linearGradient id="paint8_linear_78_1029" x1="97.751" y1="12.8081" x2="15.3507" y2="95.2084" gradientUnits="userSpaceOnUse">
<stop stop-color="white"/>
<stop offset="1" stop-color="#231F20"/>
</linearGradient>
<linearGradient id="paint9_linear_78_1029" x1="120.402" y1="35.4601" x2="38.0016" y2="117.86" gradientUnits="userSpaceOnUse">
<stop stop-color="white"/>
<stop offset="1" stop-color="#231F20"/>
</linearGradient>
<linearGradient id="paint10_linear_78_1029" x1="129.738" y1="44.7959" x2="47.3376" y2="127.196" gradientUnits="userSpaceOnUse">
<stop stop-color="white"/>
<stop offset="1" stop-color="#231F20"/>
</linearGradient>
<linearGradient id="paint11_linear_78_1029" x1="87.7543" y1="2.81319" x2="5.35397" y2="85.2135" gradientUnits="userSpaceOnUse">
<stop stop-color="white"/>
<stop offset="1" stop-color="#231F20"/>
</linearGradient>
<linearGradient id="paint12_linear_78_1029" x1="83.0913" y1="-1.85073" x2="0.691007" y2="80.5496" gradientUnits="userSpaceOnUse">
<stop stop-color="white"/>
<stop offset="1" stop-color="#231F20"/>
</linearGradient>
<linearGradient id="paint13_linear_78_1029" x1="92.4191" y1="7.47677" x2="10.0187" y2="89.8771" gradientUnits="userSpaceOnUse">
<stop stop-color="white"/>
<stop offset="1" stop-color="#231F20"/>
</linearGradient>
<linearGradient id="paint14_linear_78_1029" x1="56.4325" y1="-28.476" x2="-25.9678" y2="53.9243" gradientUnits="userSpaceOnUse">
<stop stop-color="white"/>
<stop offset="1" stop-color="#231F20"/>
</linearGradient>
<linearGradient id="paint15_linear_78_1029" x1="69.7576" y1="-15.152" x2="-12.6427" y2="67.2483" gradientUnits="userSpaceOnUse">
<stop stop-color="white"/>
<stop offset="1" stop-color="#231F20"/>
</linearGradient>
<linearGradient id="paint16_linear_78_1029" x1="83.0895" y1="-1.81962" x2="0.689162" y2="80.5807" gradientUnits="userSpaceOnUse">
<stop stop-color="white"/>
<stop offset="1" stop-color="#231F20"/>
</linearGradient>
<linearGradient id="paint17_linear_78_1029" x1="96.4142" y1="11.5045" x2="14.0138" y2="93.9049" gradientUnits="userSpaceOnUse">
<stop stop-color="white"/>
<stop offset="1" stop-color="#231F20"/>
</linearGradient>
</defs>
</svg>
