<svg width="29" height="23" viewBox="0 0 29 23" fill="none" xmlns="http://www.w3.org/2000/svg">
<path d="M19.2963 0.168114H20.6123L21.0883 0.252113L21.2843 0.308113C21.6016 0.38278 21.8256 0.448112 21.9563 0.504112C22.2363 0.616114 22.4976 0.73278 22.7403 0.854113C22.983 0.975447 23.1976 1.11078 23.3843 1.26011C23.515 1.35345 23.6923 1.49345 23.9163 1.68011C24.0656 1.82945 24.3083 1.87611 24.6443 1.82011L25.7083 1.51211L25.9603 1.42811C26.3523 1.27878 26.6416 1.15745 26.8283 1.06411C27.2016 0.896112 27.4256 0.784113 27.5003 0.728113L27.6403 0.672113V0.644114H27.6683L27.6963 0.616114H27.7243L27.7803 0.560114H27.8083V0.644114L27.7803 0.672113V0.728113H27.7523V0.756113L27.7243 0.812113C27.7243 0.849447 27.7196 0.882113 27.7103 0.910112C27.701 0.938112 27.6263 1.09211 27.4863 1.37211C27.3463 1.65211 27.155 1.96011 26.9123 2.29611C26.763 2.48278 26.5576 2.70678 26.2963 2.96811C26.1656 3.06145 26.049 3.15945 25.9463 3.26211C25.8436 3.36478 25.7643 3.42545 25.7083 3.44411L25.5683 3.55611H25.5403V3.58411H25.5123L25.4843 3.61211H25.4563V3.64011H25.4283V3.66811H25.4003H25.5403L26.2403 3.50011C26.7256 3.40678 27.1736 3.29478 27.5843 3.16411L28.2843 2.94011L28.3963 2.88411H28.4243L28.4523 2.85611H28.4803L28.5363 2.82811H28.5923V2.88411H28.5643V2.91211H28.5363V2.94011H28.5083V2.96811H28.4803V2.99611C28.4803 3.01478 28.3683 3.16411 28.1443 3.44411L27.9763 3.66811C27.883 3.79878 27.827 3.86411 27.8083 3.86411C27.7896 3.86411 27.7803 3.87345 27.7803 3.89211L27.7523 3.92011C27.715 3.97611 27.5283 4.16278 27.1923 4.48011C26.9683 4.72278 26.651 5.01211 26.2403 5.34811C25.923 5.60945 25.7643 5.91745 25.7643 6.27211C25.7643 6.47745 25.7456 6.84145 25.7083 7.36411V7.53211C25.6896 7.79345 25.6336 8.21345 25.5403 8.79211L25.5123 9.04411C25.419 9.60411 25.279 10.2061 25.0923 10.8501C24.9056 11.4941 24.663 12.1614 24.3643 12.8521C24.1403 13.4308 23.851 14.0094 23.4963 14.5881C23.235 15.0734 22.9643 15.5121 22.6843 15.9041L21.9003 16.9121C21.6576 17.2108 21.331 17.5654 20.9203 17.9761L20.2483 18.6201L19.7723 19.0121C19.6043 19.1428 19.3523 19.3388 19.0163 19.6001L18.5683 19.9081C18.2696 20.1134 18.055 20.2534 17.9243 20.3281L16.9163 20.8601C16.431 21.1028 16.0016 21.2894 15.6283 21.4201C15.4043 21.5134 15.0403 21.6441 14.5363 21.8121L14.2003 21.9241C13.6776 22.0734 13.1923 22.1854 12.7443 22.2601C12.147 22.3721 11.615 22.4468 11.1483 22.4841L10.2523 22.5681H8.60029L8.37629 22.5401C8.20829 22.5401 8.09629 22.5308 8.04029 22.5121L6.97629 22.4001C6.39762 22.3068 5.92162 22.2228 5.54829 22.1481C5.36162 22.1108 4.97895 21.9894 4.40029 21.7841L4.00829 21.6721C3.18695 21.3734 2.60829 21.1401 2.27229 20.9721C1.74962 20.7108 1.44162 20.5614 1.34829 20.5241L1.18029 20.4121C1.08695 20.3561 1.01229 20.3094 0.956285 20.2721L0.732285 20.1321H0.704285L0.676285 20.1041H0.648285V20.0761H0.620285V20.0481H0.592285V20.0201H0.760285C0.797618 20.0388 0.900285 20.0481 1.06829 20.0481L1.37629 20.0761H2.44029C2.96295 20.0388 3.35495 20.0014 3.61629 19.9641C3.95229 19.9081 4.41895 19.8054 5.01629 19.6561C5.57629 19.5068 6.07095 19.3388 6.50029 19.1521L7.45229 18.7321C7.69495 18.6014 7.98429 18.4241 8.32029 18.2001L8.90829 17.8081V17.7801H8.93629L8.96429 17.7521H8.99229V17.7241L9.02029 17.6961L8.82429 17.6681C8.65629 17.6681 8.52562 17.6588 8.43229 17.6401C8.26429 17.6401 8.06829 17.6028 7.84429 17.5281C7.69495 17.4908 7.45229 17.4161 7.11629 17.3041L6.97629 17.2481C6.77095 17.1548 6.46295 16.9961 6.05229 16.7721L5.85629 16.6321C5.63229 16.4828 5.48295 16.3708 5.40829 16.2961L4.90429 15.7921C4.81095 15.6988 4.67095 15.5308 4.48429 15.2881L4.37229 15.1201C4.24162 14.9148 4.10162 14.6441 3.95229 14.3081L3.72829 13.8601V13.8321L3.70029 13.8041V13.7481H3.78429L4.06429 13.8041C4.17629 13.8228 4.46562 13.8321 4.93229 13.8321L5.35229 13.8041C5.55762 13.8041 5.68829 13.7948 5.74429 13.7761L6.08029 13.7201L6.13629 13.6921H6.19229V13.6641H6.22029L6.16429 13.6361H6.13629L6.08029 13.6081H5.96829C5.94962 13.5894 5.92162 13.5801 5.88429 13.5801L5.80029 13.5521C5.66962 13.4961 5.43629 13.4028 5.10029 13.2721C4.70829 13.0854 4.41895 12.9361 4.23229 12.8241C4.08295 12.7121 3.87762 12.5441 3.61629 12.3201C3.48562 12.2081 3.28029 11.9934 3.00029 11.6761L2.94429 11.6201C2.66429 11.2654 2.45895 10.9388 2.32829 10.6401C2.14162 10.2854 2.00162 9.93078 1.90829 9.57611C1.79629 9.12811 1.73095 8.78278 1.71229 8.54011L1.68429 8.03611H1.74029L1.76829 8.06411H1.79629L1.82429 8.09211L2.21629 8.26011C2.57095 8.40945 2.89762 8.51211 3.19629 8.56811L3.89629 8.70811H4.23229H4.20429V8.68011H4.17629V8.65211H4.14829L4.12029 8.62411H4.09229L3.84029 8.42811C3.74695 8.35345 3.59762 8.21345 3.39229 8.00811L2.94429 7.50411C2.86962 7.41078 2.77629 7.28011 2.66429 7.11211L2.52429 6.91611C2.43095 6.71078 2.30962 6.44011 2.16029 6.10411C2.01095 5.69345 1.91762 5.37611 1.88029 5.15211C1.80562 4.87211 1.76829 4.55478 1.76829 4.20011C1.74962 4.05078 1.74962 3.85478 1.76829 3.61211V3.38811C1.80562 3.16411 1.86162 2.91211 1.93629 2.63211L1.96429 2.54811C2.07629 2.19345 2.17895 1.92278 2.27229 1.73611L2.46829 1.26011L2.49629 1.23211V1.17611H2.55229V1.20411H2.58029V1.23211L2.60829 1.26011V1.28811L2.94429 1.65211C3.09362 1.82011 3.36429 2.10011 3.75629 2.49211C4.03629 2.77211 4.21362 2.93078 4.28829 2.96811C4.30695 2.96811 4.32562 2.98678 4.34429 3.02411L4.40029 3.08011C4.45629 3.13611 4.62429 3.27611 4.90429 3.50011C5.05362 3.63078 5.34295 3.84545 5.77229 4.14411L6.02429 4.31211C6.54695 4.64811 7.06029 4.95611 7.56429 5.23611C8.34829 5.60945 8.95495 5.88011 9.38428 6.04811L9.52429 6.10411C10.1963 6.32811 10.607 6.45878 10.7563 6.49611C11.0736 6.60811 11.5216 6.71078 12.1003 6.80411C12.3616 6.86011 12.6976 6.91611 13.1083 6.97211L13.5283 7.02811L14.1723 7.08411H14.3403V7.00011L14.2843 6.69211C14.247 6.43078 14.2283 6.14145 14.2283 5.82411C14.2283 5.41345 14.261 5.06811 14.3263 4.78811C14.3916 4.50811 14.4803 4.20011 14.5923 3.86411C14.7043 3.52811 14.8163 3.25745 14.9283 3.05211C15.003 2.92145 15.1523 2.71145 15.3763 2.42211C15.6003 2.13278 15.843 1.86678 16.1043 1.62411C16.4776 1.32545 16.8136 1.09211 17.1123 0.924112C17.4483 0.737446 17.7936 0.578779 18.1483 0.448112C18.503 0.317446 18.7736 0.242779 18.9603 0.224113L19.2963 0.168114Z" fill="white"/>
</svg>
