<svg width="170" height="31" viewBox="0 0 170 31" fill="none" xmlns="http://www.w3.org/2000/svg">
<g id="Vector">
<path d="M0 27.9132L3.87257 31V25.9825L0 22.8958V27.9132Z" fill="#35C5E8"/>
<path d="M8.54717 20.953V13.8723H5.14639V25.3483L8.54717 28.0618V25.1677L11.1931 23.0644L8.54717 20.953Z" fill="#35C5E8"/>
<path d="M0 21.246L3.87257 24.3328V8.09622H0V21.246Z" fill="#35C5E8"/>
<path d="M20.5856 31L24.4581 27.9132V22.8958L20.5856 25.9825V31Z" fill="#35C5E8"/>
<path d="M9.82099 25.8019V29.0773L12.2271 30.996L14.6332 29.0773V25.8019L12.2271 23.8832L9.82099 25.8019Z" fill="#35C5E8"/>
<path d="M15.907 20.953L13.265 23.0644L15.907 25.1677V28.0618L19.3117 25.3483V13.8723H15.907V20.953Z" fill="#35C5E8"/>
<path d="M9.82099 19.9856H14.6332V12.7605L19.3117 11.0987V8.09622H5.14639V11.0987L9.82099 12.7605V19.9856Z" fill="#35C5E8"/>
<path d="M20.5856 8.09622V24.3328L24.4581 21.246V8.09622H20.5856Z" fill="#35C5E8"/>
<path d="M24.4581 0H20.5856V2.83789H14.1653V0H10.2928V2.83789H3.87257V0H0V6.79568H24.4581V0Z" fill="#35C5E8"/>
<path d="M36.4541 6.80984C37.9972 6.80984 39.3328 7.0724 40.4611 7.59754C41.6059 8.12268 42.4853 8.86803 43.0992 9.83361C43.7131 10.7992 44.0201 11.9426 44.0201 13.2639C44.0201 14.5683 43.7131 15.7118 43.0992 16.6943C42.4853 17.6598 41.6059 18.4052 40.4611 18.9303C39.3328 19.4385 37.9972 19.6926 36.4541 19.6926H32.9449V24.5967H28.9131V6.80984H36.4541ZM36.2301 16.3385C37.4414 16.3385 38.3622 16.076 38.9927 15.5508C39.6232 15.0087 39.9384 14.2465 39.9384 13.2639C39.9384 12.2645 39.6232 11.5022 38.9927 10.9771C38.3622 10.435 37.4414 10.1639 36.2301 10.1639H32.9449V16.3385H36.2301Z" fill="white"/>
<path d="M57.4969 20.7853H49.4083L47.8653 24.5967H43.7339L51.4989 6.80984H55.481L63.2709 24.5967H59.04L57.4969 20.7853ZM56.2276 17.6598L53.465 10.85L50.7025 17.6598H56.2276Z" fill="white"/>
<path d="M76.1784 24.5967L72.8185 19.6418H69.1102V24.5967H65.0784V6.80984H72.6194C74.1625 6.80984 75.4981 7.0724 76.6264 7.59754C77.7712 8.12268 78.6506 8.86803 79.2645 9.83361C79.8784 10.7992 80.1854 11.9426 80.1854 13.2639C80.1854 14.5852 79.8701 15.7287 79.2396 16.6943C78.6257 17.6429 77.7464 18.3713 76.6015 18.8795L80.5089 24.5967H76.1784ZM76.1038 13.2639C76.1038 12.2645 75.7885 11.5022 75.158 10.9771C74.5275 10.435 73.6067 10.1639 72.3955 10.1639H69.1102V16.3639H72.3955C73.6067 16.3639 74.5275 16.0929 75.158 15.5508C75.7885 15.0087 76.1038 14.2465 76.1038 13.2639Z" fill="white"/>
<path d="M94.8531 20.7853H86.7645L85.2215 24.5967H81.0901L88.8551 6.80984H92.8372L100.627 24.5967H96.3962L94.8531 20.7853ZM93.5839 17.6598L90.8213 10.85L88.0587 17.6598H93.5839Z" fill="white"/>
<path d="M102.435 6.80984H110.349C112.24 6.80984 113.908 7.18251 115.351 7.92787C116.812 8.65629 117.94 9.68962 118.736 11.0279C119.549 12.3661 119.956 13.9246 119.956 15.7033C119.956 17.482 119.549 19.0404 118.736 20.3787C117.94 21.7169 116.812 22.7587 115.351 23.5041C113.908 24.2325 112.24 24.5967 110.349 24.5967H102.435V6.80984ZM110.15 21.2172C111.892 21.2172 113.277 20.726 114.306 19.7434C115.351 18.744 115.874 17.3973 115.874 15.7033C115.874 14.0093 115.351 12.671 114.306 11.6885C113.277 10.6891 111.892 10.1893 110.15 10.1893H106.466V21.2172H110.15Z" fill="white"/>
<path d="M122.996 6.80984H127.028V24.5967H122.996V6.80984Z" fill="white"/>
<path d="M142.935 15.4238H146.618V22.6402C145.672 23.3686 144.577 23.9276 143.333 24.3172C142.089 24.7068 140.836 24.9016 139.575 24.9016C137.766 24.9016 136.14 24.512 134.697 23.7328C133.253 22.9366 132.117 21.844 131.287 20.4549C130.474 19.0489 130.068 17.465 130.068 15.7033C130.068 13.9415 130.474 12.3661 131.287 10.9771C132.117 9.57104 133.262 8.47842 134.722 7.69918C136.182 6.90301 137.824 6.50492 139.65 6.50492C141.176 6.50492 142.561 6.76749 143.806 7.29262C145.05 7.81776 146.096 8.58006 146.942 9.57951L144.353 12.0189C143.109 10.6806 141.607 10.0115 139.849 10.0115C138.737 10.0115 137.75 10.2486 136.887 10.723C136.024 11.1973 135.352 11.8664 134.871 12.7303C134.39 13.5943 134.149 14.5852 134.149 15.7033C134.149 16.8044 134.39 17.7869 134.871 18.6508C135.352 19.5148 136.016 20.1924 136.862 20.6836C137.725 21.1579 138.704 21.3951 139.799 21.3951C140.96 21.3951 142.006 21.141 142.935 20.6328V15.4238Z" fill="white"/>
<path d="M166.217 24.5967L166.192 13.9246L161.065 22.7164H159.248L154.146 14.1533V24.5967H150.363V6.80984H153.698L160.219 17.8631L166.64 6.80984H169.95L170 24.5967H166.217Z" fill="white"/>
</g>
</svg>
