<svg xmlns="http://www.w3.org/2000/svg" width="25" height="24" viewBox="0 0 25 24" fill="none">
<g clip-path="url(#clip0_797_76)">
<path fill-rule="evenodd" clip-rule="evenodd" d="M21.0929 3.48501C18.8371 1.23878 15.8369 0.00113964 12.6402 0C6.05324 0 0.692408 5.33065 0.690116 11.883C0.68897 13.9776 1.23961 16.0221 2.2853 17.8239L0.589844 23.9825L6.92475 22.33C8.67004 23.2771 10.6354 23.7756 12.6351 23.7762H12.6402C19.2261 23.7762 24.5876 18.445 24.5898 11.8927C24.591 8.7171 23.3493 5.7318 21.0929 3.48558V3.48501ZM12.6402 21.7693H12.6362C10.8542 21.7688 9.10611 21.2924 7.58084 20.3926L7.21812 20.1784L3.45878 21.159L4.46207 17.5139L4.226 17.1401C3.23187 15.5674 2.70644 13.7497 2.70759 11.8836C2.70988 6.43781 7.1654 2.0069 12.6443 2.0069C15.2972 2.00804 17.7908 3.03656 19.6662 4.90386C21.5416 6.77059 22.5735 9.25273 22.5724 11.8915C22.57 17.3379 18.1146 21.7688 12.6402 21.7688V21.7693ZM18.0882 14.372C17.7896 14.2232 16.3217 13.5052 16.0478 13.4061C15.7739 13.3069 15.5751 13.2574 15.3762 13.5548C15.1774 13.8523 14.605 14.5213 14.4308 14.719C14.2566 14.9173 14.0824 14.9418 13.7839 14.793C13.4854 14.6443 12.5234 14.3309 11.3826 13.3195C10.495 12.532 9.89564 11.5599 9.72151 11.2624C9.54731 10.965 9.70318 10.8043 9.85211 10.6567C9.98618 10.5234 10.1506 10.3097 10.3002 10.1365C10.4498 9.96325 10.499 9.83907 10.5987 9.6413C10.6984 9.44301 10.6486 9.26983 10.5741 9.12106C10.4996 8.97235 9.90258 7.51074 9.65331 6.91644C9.41091 6.33752 9.16458 6.41615 8.98178 6.40647C8.80758 6.39792 8.60878 6.39621 8.40938 6.39621C8.20998 6.39621 7.88678 6.47029 7.61291 6.76774C7.33904 7.06515 6.56778 7.78369 6.56778 9.24471C6.56778 10.7057 7.63758 12.1183 7.78711 12.3166C7.93664 12.5149 9.89278 15.5139 12.8878 16.8005C13.6 17.1065 14.1564 17.2894 14.5901 17.4262C15.3052 17.6524 15.9561 17.6205 16.4706 17.5441C17.0442 17.4587 18.2372 16.8256 18.4858 16.1321C18.7345 15.4386 18.7345 14.8437 18.66 14.7201C18.5856 14.5964 18.3862 14.5218 18.0876 14.3731L18.0882 14.372Z" fill="#25D366"/>
</g>
<defs>
<clipPath id="clip0_797_76">
<rect width="24" height="24" fill="white" transform="translate(0.589844)"/>
</clipPath>
</defs>
</svg>